M48
;GenerationSoftware,Autodesk,EAGLE,9.7.0*%
;CreationDate,2022-12-29T12:37:18Z*%
FMAT,2
ICI,OFF
METRIC,TZ,000.000
T4C0.150
T3C0.200
T2C0.450
T1C0.508
%
G90
M71
T1
X4050Y700
X1000Y700
T2
X1470Y2580
T3
X21450Y7960
X23450Y7960
X23450Y5210
X21450Y5210
T4
X18270Y1800
X17565Y2790
X21390Y10600
X22955Y10980
X10477Y11103
X16120Y12779
X6610Y3670
X15473Y12353
X7410Y3670
X7800Y12000
X2700Y10155
X7000Y12000
X2700Y11100
X19070Y2600
X15615Y2290
X13620Y11440
X20955Y12850
X10310Y8930
X2710Y8940
X17180Y4050
X5650Y11500
X14940Y10230
X22420Y9790
X11557Y10190
X22452Y9244
X14450Y3600
X13620Y12740
X9580Y12980
X16760Y12789
X19470Y2200
X19010Y6540
X14630Y6470
X13970Y6080
X13250Y5380
X21720Y13365
X18030Y5050
X21190Y6366
X22427Y6366
X23600Y6366
X20139Y6211
X19070Y2200
X17565Y2290
X14540Y4350
X13350Y3460
X18920Y4790
X16600Y5050
X20149Y4211
X11509Y4241
X11489Y6261
X11469Y8071
X15169Y7971
X16669Y7971
X18269Y7971
X23569Y4071
X22369Y4071
X21169Y4071
X23590Y9266
X23590Y10166
X23290Y13466
X18290Y12466
X22869Y671
X20269Y671
X17469Y671
X5669Y3771
X3069Y3771
X3069Y6771
X8669Y11971
X6369Y671
X9269Y671
X22485Y12850
X11209Y11219
X22935Y10346
X20965Y10850
X17565Y3290
X18670Y1800
X15170Y4890
M30