M48
;GenerationSoftware,Autodesk,EAGLE,9.6.2*%
;CreationDate,2021-08-02T08:33:27Z*%
FMAT,2
ICI,OFF
METRIC,TZ,000.000
T5C0.200
T4C0.450
T3C0.508
T2C0.600
T1C0.800
%
G90
M71
T1
X400Y12800
X400Y11300
X400Y9800
X400Y8300
X400Y6800
X400Y5300
X400Y3800
T2
X26800Y10700
X28800Y10700
X28800Y5700
X26800Y5700
T3
X16250Y800
X16250Y15550
T4
X2550Y3200
T5
X27650Y8300
X12650Y8300
X12650Y10300
X12650Y6300
X15650Y7500
X17650Y7500
X19650Y7300
X21650Y6800
X23900Y6700
X19650Y5450
X17650Y5700
X15650Y5700
X21650Y4950
X25650Y7000
X27650Y7000
X27650Y4400
X25650Y4400
X27650Y9400
X25650Y9400
X22800Y6700
X20650Y7100
X18650Y7500
X16650Y7500
X18650Y5600
X20650Y5150
X16650Y5700
X14750Y7500
X14750Y5700
X26650Y7000
X26650Y4400
X28650Y4400
X28650Y7000
X28650Y9400
X26650Y9400
X26650Y12000
X27650Y12000
X28650Y12000
X29650Y9400
X29650Y7000
X29650Y12000
X29650Y4400
X23650Y10300
X22550Y12000
X22950Y11100
X24650Y9800
X25650Y12000
X24650Y12000
X24250Y12800
X23650Y8300
X10250Y14300
X4100Y13800
X1500Y16050
X14400Y15800
X19500Y14500
X21700Y14500
X25100Y14450
X25100Y1850
X4050Y8300
X9750Y300
X22800Y4850
X23900Y4850
X1500Y13800
X1500Y350
X22850Y1850
X12800Y14050
X2800Y1000
X12350Y13350
X2800Y1650
X7800Y5750
X16750Y5000
X17850Y5000
X8600Y5750
X9400Y14450
X8600Y14450
X10050Y2900
X20406Y3090
X10100Y1859
X5287Y655
X15700Y3050
X24218Y2740
X7250Y13950
X11850Y12100
X21100Y3050
X11050Y5750
X6700Y1050
X9300Y950
X13490Y4426
X10050Y3550
X12750Y2200
X11700Y2200
X6650Y3800
X15200Y5200
X24154Y2150
X23900Y3300
X14900Y14450
X11850Y5750
X22800Y3300
X25650Y8300
X21650Y8300
X19650Y8300
X17650Y8300
X15650Y8300
X15650Y10300
X17650Y10300
X19650Y10300
X21650Y10300
X21650Y12300
X19650Y12300
X17650Y12300
X15650Y12300
X22350Y12800
M30