*
%FSLAX26Y26*%
%MOIN*%
%ADD10C,0.028874*%
%ADD11C,0.038717*%
%ADD12R,0.040370X0.040370*%
%ADD13C,0.041000*%
%ADD14R,0.032496X0.032496*%
%ADD15R,0.101000X0.101000*%
%ADD16C,0.014900*%
%ADD17C,0.015900*%
%ADD18C,0.015925*%
%ADD19C,0.015950*%
%ADD20C,0.012906*%
%ADD21C,0.013000*%
%ADD22C,0.011000*%
%ADD23C,0.001975*%
%ADD24C,0.001875*%
%ADD25C,0.002550*%
%ADD26C,0.015748*%
%ADD27C,0.035433*%
%ADD28C,0.041339*%
%IPPOS*%
%LNgbl.gbr*%
%LPD*%
G75*
G36*
X11976Y40191D02*
X11977Y70931D01*
X705343D01*
G03X707797Y63020I13979J0D01*
G01X709415Y61029D01*
X710220Y60283D01*
X710743Y59910D01*
G03X713518Y58230I5416J5814D01*
G03X725105Y58230I5794J12655D01*
G01X725721Y58479D01*
G02X728576Y58417I1391J-1697D01*
G01X728909Y58292D01*
G03X732261Y57111I4885J8518D01*
G03X741169Y58292I2767J13316D01*
G03X743581Y59785I-3003J7546D01*
G03X749037Y70838I-8467J11053D01*
G01X928987D01*
X928820Y36210D01*
X927715Y30736D01*
X558555D01*
X558553Y42368D01*
X503502D01*
X503500Y30736D01*
X496500D01*
X496498Y42368D01*
X441447D01*
X441475Y31420D01*
X441445Y30736D01*
X186308D01*
G03X137867Y11266I-26849J-3196D01*
G02X136719Y8093I-1604J-1214D01*
G01X57351D01*
G03X13463Y33136I-17981J19466D01*
G02X12335Y35774I884J1938D01*
G01X11976Y40191D01*
G37*
G36*
X11977Y70931D02*
Y101580D01*
X32027D01*
G03X40310Y82615I25854J0D01*
G03X45082Y79131I14225J14473D01*
G03X54736Y75896I12878J22408D01*
G01X59739Y75772D01*
X64066Y76456D01*
X67987Y77763D01*
X71673Y79691D01*
X75445Y82615D01*
G03X79951Y88089I-17523J19015D01*
G02X81996Y90141I2255J-202D01*
G01X600304D01*
G03X629223Y90141I14460J0D01*
G01X743037D01*
G03X747715Y88275I7003J10758D01*
G01X749570Y87964D01*
G02X752083Y86160I471J-1997D01*
G03X764114Y72351I14471J463D01*
G03X780978Y86599I2413J14248D01*
G01X930109D01*
G03X929777Y85352I26067J-7610D01*
G01X929689Y85103D01*
X929035Y80686D01*
X928987Y70838D01*
X749037D01*
G03X744956Y80686I-13923J-0D01*
G01X744654Y80935D01*
G03X731004Y84170I-9507J-9698D01*
G01X730135Y83921D01*
X729100Y83485D01*
G02X726288Y83050I-1665J1457D01*
G03X705343Y70931I-6966J-12119D01*
G01X11977D01*
G37*
G36*
Y101580D02*
X11979Y220087D01*
X38691D01*
Y174926D01*
X54372D01*
Y220087D01*
X61376D01*
Y174926D01*
X77057D01*
Y220087D01*
X209479D01*
Y200119D01*
X209291Y200057D01*
X208847Y199435D01*
X121456Y112037D01*
X120619Y111540D01*
X120366Y111478D01*
X82632D01*
X82265Y111602D01*
X81937Y111789D01*
X81328Y112473D01*
G03X32027Y101580I-23447J-10893D01*
G01X11977D01*
G37*
G36*
X11979Y220087D02*
Y227178D01*
X38689D01*
X38702Y227116D01*
X54361D01*
X54374Y227178D01*
X61375D01*
X61387Y227116D01*
X77046D01*
X77059Y227178D01*
X209479D01*
Y220087D01*
X11979D01*
G37*
G36*
Y227178D02*
X11983Y511827D01*
G02X18573Y530986I31481J-116D01*
G02X22530Y530240I1881J-890D01*
G01X22541Y522962D01*
X22528Y522837D01*
X22530Y335539D01*
X68021D01*
Y338711D01*
G02X69719Y340702I2019J-2D01*
G01X97243D01*
G02X98933Y339769I-1004J-3815D01*
G03X120193Y346798I7760J12194D01*
G03X121155Y351584I-13504J5204D01*
G01X391452D01*
G03X392605Y345927I14454J0D01*
G01X163082D01*
X163109Y232030D01*
X209479Y231906D01*
Y227178D01*
X77059D01*
X77057Y272277D01*
X61376D01*
X61375Y227178D01*
X54374D01*
X54372Y272277D01*
X38691D01*
X38689Y227178D01*
X11979D01*
G37*
G36*
X59838Y540460D02*
G02X59867Y540815I2125J5D01*
G02X61811Y543116I2332J2D01*
G01X848422D01*
G02X848722Y539197I-307J-1994D01*
G03X844478Y535963I4561J-10387D01*
G03X861347Y539259I10661J-9746D01*
G02X861816Y543116I776J1863D01*
G01X897632Y543147D01*
G02X931496Y521033I3688J-31337D01*
G02X932906Y509712I-29966J-9481D01*
G01X932925Y505914D01*
X899691D01*
G03X870782Y505914I-14455J0D01*
G01X839454D01*
G03X810545Y505914I-14455J0D01*
G01X674091D01*
G03X669274Y514440I-14262J-2434D01*
G01X668900Y514689D01*
X668328Y515186D01*
X666135Y516492D01*
X665769Y516617D01*
X665147Y516928D01*
X663651Y517426D01*
X662913Y517550D01*
G03X656773Y517550I-3070J-9226D01*
G01X656035Y517426D01*
X654539Y516928D01*
X653916Y516617D01*
G03X650946Y514813I2423J-7337D01*
G01X650199Y514253D01*
X649306Y513382D01*
G02X645732Y512449I-2056J566D01*
G03X620279Y501563I-11066J-9326D01*
G01X550679D01*
G03X525281Y511018I-14459J0D01*
G01X391624D01*
G03X362706Y511018I-14459J0D01*
G01X211019D01*
X198194Y523833D01*
G03X192107Y526321I-6850J-8068D01*
G01X69672Y526445D01*
G02X68490Y527129I352J1972D01*
G02X68024Y530302I3583J2147D01*
G01X67992Y538451D01*
X62816Y538513D01*
G02X59838Y540460I-853J1947D01*
G37*
G36*
X67896Y412145D02*
G02X68024Y413170I4177J-1D01*
G01X68021Y423372D01*
G02X69719Y425363I2019J-2D01*
G01X97378D01*
X97795Y425238D01*
X98058Y425114D01*
G03X97754Y448752I8210J11926D01*
G01X97542Y448689D01*
X69672D01*
G02X68490Y449374I352J1970D01*
G02X68024Y452484I3514J2116D01*
G01Y463618D01*
G02X69719Y465733I2015J122D01*
G01X193939D01*
X194308Y465609D01*
X195095Y465111D01*
X207287Y452919D01*
G02X208100Y450680I-1301J-1739D01*
G03X221385Y438301I14338J2070D01*
G01X221764Y438177D01*
G02X223285Y436933I-443J-2094D01*
G01X282099Y378149D01*
X283263Y377278D01*
X284495Y376594D01*
X285951Y376034D01*
X287721Y375661D01*
X478348Y375599D01*
G03X484956Y378460I-398J9980D01*
G01X491604Y385081D01*
X868122D01*
G03X869251Y380140I11379J0D01*
G01X870703Y377341D01*
X871640Y376096D01*
G02X871914Y372115I-822J-2056D01*
G03X873250Y354263I11912J-8085D01*
G03X874901Y352707I5437J4116D01*
G03X876445Y351584I8496J10058D01*
G01X420360D01*
G03X391452Y351584I-14454J0D01*
G01X121155D01*
G03X98735Y364091I-14466J418D01*
G01X98522Y364029D01*
X69672D01*
G02X68021Y366019I352J1972D01*
G01Y383996D01*
G02X69719Y385987I2019J-2D01*
G01X102014D01*
G03X95805Y409749I4245J13801D01*
G01X95163Y409376D01*
X94950Y409314D01*
X69672D01*
G02X68490Y409998I352J1972D01*
G02X67896Y412145I3583J2147D01*
G37*
G36*
X81996Y90141D02*
G01X126449Y90266D01*
G03X132305Y92941I-1264J10514D01*
G01X183871Y144505D01*
X245830D01*
G03X251152Y133311I14431J-1D01*
G03X255277Y130948I7977J9144D01*
G01X255543Y130823D01*
X257698Y130263D01*
G03X265528Y131072I2487J14221D01*
G03X269320Y133311I-3626J10472D01*
G03X272585Y137044I-6200J8718D01*
G03X273763Y139407I-7361J5145D01*
G02X274973Y141460I2110J139D01*
G02X277846Y140465I1011J-1725D01*
G03X305863Y141709I13856J4045D01*
G01X554437D01*
G03X576632Y129492I14460J0D01*
G01X677083D01*
G03X677139Y128211I14492J-8D01*
G03X679515Y121492I12145J515D01*
G02X679583Y118009I-1184J-1765D01*
G01X679457Y117760D01*
G03X677600Y106066I12065J-7910D01*
G03X682603Y98539I12268J2728D01*
G03X683859Y97668I3035J3035D01*
G03X688194Y95802I6474J9071D01*
G01X689115Y95615D01*
G03X694277Y95678I2429J12459D01*
G01X695968Y96113D01*
X698545Y97233D01*
X699191Y97668D01*
G03X700446Y98539I-1779J3902D01*
G03X703791Y102208I-7638J10323D01*
G01X736196D01*
G03X737437Y96922I11880J0D01*
G03X739110Y93874I9076J2999D01*
G01X739326Y93563D01*
X739680Y93189D01*
G03X740965Y91821I4425J2869D01*
G03X743037Y90141I9077J9077D01*
G01X629223D01*
G03X600304Y90141I-14459J0D01*
G01X81996D01*
G37*
G36*
X180625Y10056D02*
G02X181187Y11452I2017J-1D01*
G01X182605Y13567D01*
X182964Y14252D01*
X183140Y14500D01*
G03X186300Y24453I-23518J12945D01*
G01X186340Y24640D01*
X186397Y29865D01*
G03X186308Y30736I-26939J-2315D01*
G01X441445D01*
X441493Y30674D01*
X496451D01*
X496500Y30736D01*
X503500D01*
X503549Y30674D01*
X558506D01*
X558555Y30736D01*
X927715D01*
X927640Y30363D01*
X925743Y25511D01*
X923214Y21218D01*
X919674Y17113D01*
X916094Y14065D01*
X911958Y11515D01*
X907519Y9648D01*
X901437Y8280D01*
X900888Y8218D01*
X560653Y8093D01*
G02X559649Y8591I353J1972D01*
G02X558555Y12074I2986J2851D01*
G01X558524Y23644D01*
X441476D01*
X441424Y11452D01*
X440944Y9586D01*
G02X439904Y8280I-1977J507D01*
G02X436938Y8000I-2957J15474D01*
G01Y8062D01*
X186742D01*
X186709Y8018D01*
X182176Y8093D01*
G02X180625Y10056I466J1963D01*
G37*
G36*
X183871Y144505D02*
G01X198806Y159441D01*
X661921D01*
G03X690835Y159441I14457J0D01*
G01X956528D01*
X956529Y128874D01*
X706084D01*
G03X706067Y129517I-11843J8D01*
G03X683780Y141709I-14492J-25D01*
G01X583357D01*
G03X554711Y144510I-14460J0D01*
G01X306138D01*
G03X302873Y153652I-14435J-1D01*
G03X282681Y155705I-11081J-8660D01*
G03X279408Y151973I6064J-8620D01*
G01X279153Y151600D01*
X278220Y149609D01*
G02X277059Y147556I-2118J-157D01*
G02X274132Y148489I-1075J1687D01*
G03X245830Y144505I-13871J-3984D01*
G01X183871D01*
G37*
G36*
X198806Y159441D02*
X226609Y187243D01*
G03X228690Y189420I-4161J6060D01*
G03X230022Y191970I-6185J4854D01*
G03X230681Y195516I-8523J3418D01*
G01X230680Y200244D01*
X819055D01*
X819132Y199870D01*
X822865Y190851D01*
X822900Y190789D01*
X830022Y183635D01*
X830236Y183511D01*
X839048Y179841D01*
X839257Y179778D01*
X849719D01*
X849930Y179841D01*
X858617Y183448D01*
X858954Y183635D01*
X865989Y190664D01*
X866035Y190726D01*
X866109Y190851D01*
X869844Y199870D01*
X869921Y200244D01*
X897795D01*
X897873Y199870D01*
X901608Y190851D01*
X901681Y190726D01*
X901728Y190664D01*
X908762Y183635D01*
X909100Y183448D01*
X917787Y179841D01*
X917997Y179778D01*
X928460D01*
X928669Y179841D01*
X937481Y183511D01*
X937695Y183635D01*
X944816Y190789D01*
X944852Y190851D01*
X945628Y192717D01*
G02X955587Y198253I7046J-950D01*
G02X956527Y195578I-1005J-1856D01*
G01X956528Y159441D01*
X690835D01*
G03X661921Y159441I-14457J0D01*
G01X198806D01*
G37*
G36*
X211019Y511018D02*
X362706D01*
G03X388104Y501563I14459J0D01*
G01X521761D01*
G03X550679Y501563I14459J0D01*
G01X620279D01*
G03X620324Y501190I14389J1546D01*
G02X620400Y499200I-3336J-1124D01*
G02X617524Y498142I-1882J678D01*
G03X594742Y486350I-8339J-11792D01*
G01X311126D01*
G03X293198Y476495I-4051J-13866D01*
G02X290311Y475500I-1864J724D01*
G02X289108Y477552I909J1912D01*
G01X288137Y479605D01*
X287161Y481098D01*
G03X284645Y483648I-8479J-5850D01*
G03X266624Y483711I-9050J-11209D01*
G03X263765Y480663I4995J-7551D01*
G03X261269Y470772I11649J-8200D01*
G03X262901Y465547I14340J1612D01*
G02X261246Y462654I-1790J-896D01*
G02X258833Y463245I-551J2972D01*
G01X211019Y511018D01*
G37*
G36*
X230677Y229915D02*
G02X232375Y231906I2018J-2D01*
G01X277049Y232030D01*
X277069Y318246D01*
X819051D01*
X819064Y308355D01*
X819117Y308169D01*
X822856Y299149D01*
X823067Y298838D01*
X829984Y291933D01*
X830273Y291747D01*
X839123Y288077D01*
X839333Y288015D01*
X849643D01*
X849854Y288077D01*
X858703Y291747D01*
X858992Y291933D01*
X865909Y298838D01*
X866120Y299149D01*
X869881Y308231D01*
X869888Y308293D01*
X869925Y318246D01*
X897792D01*
X897828Y308293D01*
X897836Y308231D01*
X901596Y299149D01*
X901807Y298838D01*
X908724Y291933D01*
X909013Y291747D01*
X917863Y288077D01*
X918073Y288015D01*
X928383D01*
X928594Y288077D01*
X937528Y291809D01*
X937732Y291933D01*
X944649Y298838D01*
X944861Y299149D01*
X946734Y303628D01*
G02X955764Y306365I5767J-2763D01*
G02X956527Y303690I-1179J-1783D01*
G01X956530Y213804D01*
G02X956200Y212685I-2003J-18D01*
G02X948381Y212747I-3874J4501D01*
G02X946029Y216541I3937J5067D01*
G01X944866Y219341D01*
X944661Y219652D01*
X937748Y226556D01*
X937566Y226681D01*
X936927Y226929D01*
X936587Y227116D01*
X928468Y230475D01*
X928160Y230537D01*
X918297D01*
X917989Y230475D01*
X908891Y226681D01*
X908709Y226556D01*
X905896Y223695D01*
X905590Y223446D01*
X901796Y219652D01*
X901592Y219341D01*
X897802Y210072D01*
X897795Y200244D01*
X869921D01*
X869914Y210072D01*
X866124Y219341D01*
X865921Y219652D01*
X862126Y223446D01*
X861821Y223695D01*
X859008Y226556D01*
X858825Y226681D01*
X849728Y230475D01*
X849419Y230537D01*
X839557D01*
X839249Y230475D01*
X831129Y227116D01*
X830789Y226929D01*
X830151Y226681D01*
X829968Y226556D01*
X823056Y219652D01*
X822851Y219341D01*
X819111Y210321D01*
X819100Y210259D01*
X819055Y200244D01*
X230680D01*
X230677Y229915D01*
G37*
G36*
X265773Y457966D02*
G02X267657Y459979I2018J-0D01*
G02X269656Y459264I359J-2148D01*
G03X274353Y458082I5370J11416D01*
G03X281453Y459264I1678J11835D01*
G01X281927Y459451D01*
X284513Y461130D01*
G03X286402Y462872I-4218J6469D01*
G01X287700Y464552D01*
X287900Y464925D01*
G03X289478Y468408I-8348J5881D01*
G02X292339Y469404I1860J-736D01*
G02X293558Y467351I-890J-1917D01*
G03X294741Y464987I8503J2777D01*
G01X294949Y464614D01*
X296096Y463059D01*
X298761Y460633D01*
X300764Y459451D01*
G03X316001Y461130I6326J12573D01*
G01X316449Y461441D01*
X317513Y462437D01*
X318627Y463743D01*
X320214Y466480D01*
G03X311126Y486350I-13139J6004D01*
G01X594742D01*
G03X600251Y475002I14443J0D01*
G03X604614Y472638I6940J7600D01*
G01X606763Y472078D01*
G03X612229Y472203I2445J12653D01*
G03X623596Y486074I-3035J14080D01*
G01X623627Y486572D01*
X623484Y488376D01*
G02X623413Y490242I2903J1045D01*
G02X626341Y491300I1888J-645D01*
G03X629130Y489807I6855J9454D01*
G03X640515Y489931I5563J11924D01*
G03X643501Y491735I-3632J9385D01*
G01X644222Y492295D01*
X645185Y493228D01*
G02X648813Y494099I2052J-558D01*
G03X674297Y503479I11016J9380D01*
G01X810752D01*
G03X839454Y505914I14248J2435D01*
G01X870782D01*
G03X899691Y505914I14455J0D01*
G01X932925D01*
X933108Y469092D01*
G03X936453Y458891I27194J3269D01*
G01X939198Y454785D01*
G03X943750Y450369I21166J17263D01*
G01X550681D01*
G03X521760Y450369I-14460J0D01*
G01X452852D01*
G03X432685Y453292I-11554J-8681D01*
G01X432423Y453044D01*
X431759Y452546D01*
X430913Y451737D01*
X430460Y451178D01*
G03X429163Y449498I4018J-4443D01*
G01X428425Y448254D01*
X427938Y447196D01*
G02X427238Y445641I-2109J14D01*
G02X424220Y445579I-1536J1281D01*
G03X398011Y437141I-11746J-8439D01*
G01X284936D01*
X266357Y455718D01*
G02X265856Y456776I1480J1349D01*
G01X265783Y457771D01*
G02X265773Y457966I2008J200D01*
G37*
G36*
X277069Y318246D02*
G01X277075Y345927D01*
X392605D01*
G03X420360Y351584I13301J5656D01*
G01X876445D01*
G03X881580Y349722I6958J11178D01*
G03X894970Y373297I2342J14260D01*
G02X894078Y376470I839J1948D01*
G03X896915Y387915I-11418J8904D01*
G01X896412Y389968D01*
G02X895929Y391896I1573J1419D01*
G02X898497Y393576I1986J-234D01*
G03X913187Y417525I4454J13748D01*
G02X912767Y420884I936J1823D01*
G03X918271Y432239I-8961J11355D01*
G01X956528D01*
X956530Y322103D01*
G02X956061Y320796I-2002J-19D01*
G02X947632Y321729I-3675J5341D01*
G02X945657Y325711I10008J7444D01*
G01X944856Y327639D01*
X944741Y327826D01*
X937792Y334792D01*
X937608Y334917D01*
X936971Y335166D01*
X936631Y335352D01*
X928546Y338711D01*
X928235Y338774D01*
X918222D01*
X917910Y338711D01*
X908849Y334917D01*
X908665Y334792D01*
X901670Y327763D01*
X901599Y327639D01*
X900936Y325959D01*
X900801Y325711D01*
X897866Y318619D01*
X897792Y318246D01*
X869925D01*
X869851Y318619D01*
X866916Y325711D01*
X866781Y325959D01*
X866118Y327639D01*
X866046Y327763D01*
X859051Y334792D01*
X858868Y334917D01*
X849806Y338711D01*
X849495Y338774D01*
X839482D01*
X839170Y338711D01*
X830463Y335041D01*
G03X829510Y334357I431J-1607D01*
G01X822974Y327826D01*
X822860Y327639D01*
X819125Y318619D01*
X819051Y318246D01*
X277069D01*
G37*
G36*
X284936Y437141D02*
X398011D01*
G03X403908Y425487I14463J-0D01*
G01X405324Y424616D01*
G03X408138Y423372I4563J6517D01*
G01X408439Y423248D01*
X410065Y422874D01*
G03X416521Y423248I2501J12731D01*
G01X417000Y423434D01*
X417467Y423559D01*
X419274Y424367D01*
X421052Y425487D01*
X421482Y425860D01*
G03X423047Y427177I-5536J8167D01*
G01X810973D01*
G03X811417Y423621I14457J-1D01*
G03X813231Y419391I10246J1890D01*
G03X826060Y412704I12356J8054D01*
G02X828787Y411740I841J-1959D01*
G03X832040Y407012I13803J6014D01*
G01X832614Y406452D01*
X833199Y406017D01*
G03X837643Y403653I6984J7770D01*
G01X838067Y403466D01*
G03X846174Y403466I4054J13876D01*
G01X846598Y403653D01*
G03X851122Y406079I-2219J9569D01*
G03X851738Y406577I-1040J1916D01*
G01X852357Y407137D01*
X853701Y408692D01*
X853820Y408878D01*
G03X856579Y416981I-10518J8103D01*
G01X892225D01*
X892080Y416841D01*
X891105Y415596D01*
X891007Y415410D01*
G03X889255Y402720I11939J-8114D01*
G02X889732Y401103I-1611J-1354D01*
G02X887378Y399112I-2009J-12D01*
G01X882680Y399859D01*
G03X877755Y398988I-343J-12422D01*
G03X872778Y395940I3308J-10989D01*
G03X868435Y387729I9247J-10145D01*
G03X868122Y385081I11067J-2651D01*
G01X491604D01*
X498073Y391523D01*
G02X499229Y392145I1587J-1565D01*
G01X577920D01*
G02X579583Y391150I-717J-3085D01*
G01X581234Y390092D01*
G03X578264Y413481I6909J12760D01*
G01X578053Y413419D01*
X493490Y413295D01*
X492319Y413170D01*
X490891Y412797D01*
G03X486766Y410185I2257J-8128D01*
G01X486608Y410060D01*
X474261Y397681D01*
G02X472911Y396873I-2007J1822D01*
G01X471143Y396842D01*
G02X469380Y399734I102J2046D01*
G01X469440Y401725D01*
X469374Y402471D01*
G03X467816Y407759I-13826J-1200D01*
G01X467522Y408381D01*
X466243Y410247D01*
X465612Y410931D01*
X465479Y411118D01*
X463580Y412797D01*
X462553Y413481D01*
X461930Y413792D01*
G03X448418Y414041I-6991J-12631D01*
G01X448057Y413792D01*
X447126Y413295D01*
X445410Y412051D01*
X445129Y411926D01*
X444916Y411864D01*
X310743D01*
X310490Y411926D01*
X309654Y412424D01*
X284936Y437141D01*
G37*
G36*
X305863Y141709D02*
G03X306138Y144510I-14161J2804D01*
G01X554711D01*
G03X554437Y141709I14186J-2802D01*
G01X305863D01*
G37*
G36*
X388104Y501563D02*
G03X391624Y511018I-10939J9455D01*
G01X525281D01*
G03X521761Y501563I10939J-9455D01*
G01X388104D01*
G37*
G36*
X423047Y427177D02*
G03X424630Y429344I-7101J6849D01*
G01X424855Y429655D01*
X425856Y431645D01*
G02X426565Y433200I2101J-19D01*
G02X429601Y433200I1518J-1302D01*
G03X455750Y441688I11697J8487D01*
G01X524656D01*
G03X550681Y450369I11565J8681D01*
G01X943750D01*
G03X954991Y445268I16615J21678D01*
G02X956527Y442220I-386J-2105D01*
G01X956528Y432239D01*
X918271D01*
G03X913227Y443215I-14465J-0D01*
G03X906424Y446450I-8185J-8443D01*
G03X893257Y422315I-2688J-14193D01*
G02X894034Y418707I-662J-2030D01*
G01X892848Y417649D01*
X892598Y417338D01*
X892225Y416981D01*
X856579D01*
G03X856574Y417338I-13276J-8D01*
G01X856484Y418955D01*
X856440Y419142D01*
G03X853712Y425922I-12555J-1113D01*
G03X850456Y429095I-8987J-5965D01*
G03X842042Y431770I-7769J-9867D01*
G01Y431739D01*
X841479D01*
Y431801D01*
X841274D01*
Y431739D01*
G02X838763Y432765I-670J1945D01*
G03X810973Y427177I-13333J-5588D01*
G01X423047D01*
G37*
G36*
X452852Y450369D02*
X521760D01*
G03X524656Y441688I14460J0D01*
G01X455750D01*
G03X452852Y450369I-14452J-0D01*
G37*
G36*
X576632Y129492D02*
G03X583357Y141709I-7735J12217D01*
G01X683780D01*
G03X677083Y129492I7795J-12217D01*
G01X576632D01*
G37*
G36*
X674091Y505914D02*
X810545D01*
G03X810752Y503479I14454J2D01*
G01X674297D01*
G03X674091Y505914I-14469J2D01*
G37*
G36*
X702715Y119517D02*
G02X703074Y120684I2076J0D01*
G01X704107Y122239D01*
X704215Y122488D01*
G03X706084Y128874I-9974J6386D01*
G01X956529D01*
X956530Y108429D01*
G02X953728Y106315I-2104J-126D01*
G03X943224Y102831I1767J-22905D01*
G01X942820Y102644D01*
X938632Y99783D01*
X938038Y99223D01*
X937869Y99099D01*
X934658Y95553D01*
G03X930109Y86599I21518J-16564D01*
G01X780978D01*
G03X778154Y95180I-14451J-1D01*
G03X775866Y97668I-8636J-5645D01*
G01X774442Y98726D01*
X774192Y98850D01*
X773614Y99223D01*
X772513Y99783D01*
X771797Y100032D01*
G03X769118Y100841I-3817J-7800D01*
G01X767673Y101027D01*
G02X765248Y102769I-402J1999D01*
G01X765018Y104884D01*
X764811Y105755D01*
G03X759609Y113779I-13011J-2737D01*
G03X756396Y115707I-6917J-7885D01*
G01X755953Y115832D01*
G03X745634Y115832I-5159J-13199D01*
G03X741743Y113592I2978J-9672D01*
G03X737703Y108429I7340J-9905D01*
G01X737375Y107745D01*
X736871Y106252D01*
X736839Y106066D01*
G03X736196Y102208I11236J-3855D01*
G01X703791D01*
G03X704724Y104075I-10983J6655D01*
G03X705733Y107372I-7273J4029D01*
G03X704836Y115396I-12392J2677D01*
G01X704715Y115770D01*
X703591Y117822D01*
G02X702715Y119517I1200J1694D01*
G37*
G36*
X12979Y228178D02*
G01X37689D01*
G02X37689Y226178I0J-1000D01*
G01X12979D01*
G02X12979Y228178I0J1000D01*
G37*
G36*
X55374D02*
G01X60375D01*
G02X60375Y226178I0J-1000D01*
G01X55374D01*
G02X55374Y228178I0J1000D01*
G37*
G36*
G01X60375D01*
G02X60375Y226178I0J-1000D01*
G01X55374D01*
G02X55374Y228178I0J1000D01*
G37*
G36*
X12979Y221087D02*
G01X37691D01*
G02X37691Y219087I0J-1000D01*
G01X12979D01*
G02X12979Y221087I0J1000D01*
G37*
G36*
X55372D02*
G01X60376D01*
G02X60376Y219087I0J-1000D01*
G01X55372D01*
G02X55372Y221087I0J1000D01*
G37*
G36*
G01X60376D01*
G02X60376Y219087I0J-1000D01*
G01X55372D01*
G02X55372Y221087I0J1000D01*
G37*
G36*
X278075Y346927D02*
G01X391525D01*
G02X391525Y344927I0J-1000D01*
G01X278075D01*
G02X278075Y346927I0J1000D01*
G37*
G36*
X12977Y102580D02*
G01X31027D01*
G02X31027Y100580I0J-1000D01*
G01X12977D01*
G02X12977Y102580I0J1000D01*
G37*
G36*
X78059Y228178D02*
G01X208479D01*
G02X208479Y226178I0J-1000D01*
G01X78059D01*
G02X78059Y228178I0J1000D01*
G37*
G36*
X78057Y221087D02*
G01X208479D01*
G02X208479Y219087I0J-1000D01*
G01X78057D01*
G02X78057Y221087I0J1000D01*
G37*
G36*
X307138Y145510D02*
G01X553693D01*
G02X553693Y143510I0J-1000D01*
G01X307138D01*
G02X307138Y145510I0J1000D01*
G37*
G36*
X185285Y145505D02*
G01X244830D01*
G02X244830Y143505I0J-1000D01*
G01X185285D01*
G02X185285Y145505I0J1000D01*
G37*
G36*
X212434Y512018D02*
G01X361706D01*
G02X361706Y510018I0J-1000D01*
G01X212434D01*
G02X212434Y512018I0J1000D01*
G37*
G36*
X392624D02*
G01X523990D01*
G02X523990Y510018I0J-1000D01*
G01X392624D01*
G02X392624Y512018I0J1000D01*
G37*
G36*
X122155Y352584D02*
G01X390452D01*
G02X390452Y350584I0J-1000D01*
G01X122155D01*
G02X122155Y352584I0J1000D01*
G37*
G36*
X421360D02*
G01X874700D01*
G02X874700Y350584I0J-1000D01*
G01X421360D01*
G02X421360Y352584I0J1000D01*
G37*
G36*
X456750Y442688D02*
G01X523427D01*
G02X523427Y440688I0J-1000D01*
G01X456750D01*
G02X456750Y442688I0J1000D01*
G37*
G36*
X286351Y438140D02*
G01X397011D01*
G02X397011Y436140I0J-1000D01*
G01X286351D01*
G02X286351Y438140I0J1000D01*
G37*
G36*
X187315Y31736D02*
G01X440445D01*
G02X440445Y29736I0J-1000D01*
G01X187315D01*
G02X187315Y31736I0J1000D01*
G37*
G36*
X497500D02*
G01X502500D01*
G02X502500Y29736I0J-1000D01*
G01X497500D01*
G02X497500Y31736I0J1000D01*
G37*
G36*
G01X502500D01*
G02X502500Y29736I0J-1000D01*
G01X497500D01*
G02X497500Y31736I0J1000D01*
G37*
G36*
X559555D02*
G01X926695D01*
G02X926695Y29736I0J-1000D01*
G01X559555D01*
G02X559555Y31736I0J1000D01*
G37*
G36*
X454081Y451369D02*
G01X520760D01*
G02X520760Y449369I0J-1000D01*
G01X454081D01*
G02X454081Y451369I0J1000D01*
G37*
G36*
X551681D02*
G01X942153D01*
G02X942153Y449369I0J-1000D01*
G01X551681D01*
G02X551681Y451369I0J1000D01*
G37*
G36*
X389396Y502563D02*
G01X520761D01*
G02X520761Y500563I0J-1000D01*
G01X389396D01*
G02X389396Y502563I0J1000D01*
G37*
G36*
X551679D02*
G01X606535D01*
G02X606535Y500563I0J-1000D01*
G01X551679D01*
G02X551679Y502563I0J1000D01*
G37*
G36*
X611836D02*
G01X619273D01*
G02X619273Y500563I0J-1000D01*
G01X611836D01*
G02X611836Y502563I0J1000D01*
G37*
G36*
X306881Y142709D02*
G01X553437D01*
G02X553437Y140709I0J-1000D01*
G01X306881D01*
G02X306881Y142709I0J1000D01*
G37*
G36*
X584357D02*
G01X682049D01*
G02X682049Y140709I0J-1000D01*
G01X584357D01*
G02X584357Y142709I0J1000D01*
G37*
G36*
X675297Y504479D02*
G01X809738D01*
G02X809738Y502479I0J-1000D01*
G01X675297D01*
G02X675297Y504479I0J1000D01*
G37*
G36*
X313880Y487350D02*
G01X533478D01*
G02X533478Y485350I0J-1000D01*
G01X313880D01*
G02X313880Y487350I0J1000D01*
G37*
G36*
X538962D02*
G01X593742D01*
G02X593742Y485350I0J-1000D01*
G01X538962D01*
G02X538962Y487350I0J1000D01*
G37*
G36*
X129784Y91141D02*
G01X599304D01*
G02X599304Y89141I0J-1000D01*
G01X129784D01*
G02X129784Y91141I0J1000D01*
G37*
G36*
X630223D02*
G01X741339D01*
G02X741339Y89141I0J-1000D01*
G01X630223D01*
G02X630223Y91141I0J1000D01*
G37*
G36*
X200221Y160441D02*
G01X256381D01*
G02X256381Y158441I0J-1000D01*
G01X200221D01*
G02X200221Y160441I0J1000D01*
G37*
G36*
X264141D02*
G01X287532D01*
G02X287532Y158441I0J-1000D01*
G01X264141D01*
G02X264141Y160441I0J1000D01*
G37*
G36*
X296052D02*
G01X660921D01*
G02X660921Y158441I0J-1000D01*
G01X296052D01*
G02X296052Y160441I0J1000D01*
G37*
G36*
X691835D02*
G01X955528D01*
G02X955528Y158441I0J-1000D01*
G01X691835D01*
G02X691835Y160441I0J1000D01*
G37*
G36*
X707084Y129874D02*
G01X955529D01*
G02X955529Y127874I0J-1000D01*
G01X707084D01*
G02X707084Y129874I0J1000D01*
G37*
G36*
X578371Y130492D02*
G01X676083D01*
G02X676083Y128492I0J-1000D01*
G01X578371D01*
G02X578371Y130492I0J1000D01*
G37*
G36*
X750037Y71838D02*
G01X927987D01*
G02X927987Y69838I0J-1000D01*
G01X750037D01*
G02X750037Y71838I0J1000D01*
G37*
G36*
X12977Y71931D02*
G01X704343D01*
G02X704343Y69931I0J-1000D01*
G01X12977D01*
G02X12977Y71931I0J1000D01*
G37*
G36*
X704945Y103208D02*
G01X735196D01*
G02X735196Y101208I0J-1000D01*
G01X704945D01*
G02X704945Y103208I0J1000D01*
G37*
G36*
X781978Y87599D02*
G01X929069D01*
G02X929069Y85599I0J-1000D01*
G01X781978D01*
G02X781978Y87599I0J1000D01*
G37*
G36*
X675104Y506914D02*
G01X809545D01*
G02X809545Y504914I0J-1000D01*
G01X675104D01*
G02X675104Y506914I0J1000D01*
G37*
G36*
X840454D02*
G01X869782D01*
G02X869782Y504914I0J-1000D01*
G01X840454D01*
G02X840454Y506914I0J1000D01*
G37*
G36*
G01X869782D01*
G02X869782Y504914I0J-1000D01*
G01X840454D01*
G02X840454Y506914I0J1000D01*
G37*
G36*
X857579Y417980D02*
G01X890919D01*
G02X890919Y415980I0J-1000D01*
G01X857579D01*
G02X857579Y417980I0J1000D01*
G37*
G36*
X424381Y428177D02*
G01X435988D01*
G02X435988Y426177I0J-1000D01*
G01X424381D01*
G02X424381Y428177I0J1000D01*
G37*
G36*
X446608D02*
G01X809973D01*
G02X809973Y426177I0J-1000D01*
G01X446608D01*
G02X446608Y428177I0J1000D01*
G37*
G36*
X278069Y319246D02*
G01X818051D01*
G02X818051Y317246I0J-1000D01*
G01X278069D01*
G02X278069Y319246I0J1000D01*
G37*
G36*
X870925D02*
G01X896792D01*
G02X896792Y317246I0J-1000D01*
G01X870925D01*
G02X870925Y319246I0J1000D01*
G37*
G36*
G01X896792D01*
G02X896792Y317246I0J-1000D01*
G01X870925D01*
G02X870925Y319246I0J1000D01*
G37*
G36*
X231680Y201244D02*
G01X818055D01*
G02X818055Y199244I0J-1000D01*
G01X231680D01*
G02X231680Y201244I0J1000D01*
G37*
G36*
X870921D02*
G01X896795D01*
G02X896795Y199244I0J-1000D01*
G01X870921D01*
G02X870921Y201244I0J1000D01*
G37*
G36*
G01X896795D01*
G02X896795Y199244I0J-1000D01*
G01X870921D01*
G02X870921Y201244I0J1000D01*
G37*
G36*
X493021Y386081D02*
G01X867122D01*
G02X867122Y384081I0J-1000D01*
G01X493021D01*
G02X493021Y386081I0J1000D01*
G37*
G36*
X919271Y433239D02*
G01X955528D01*
G02X955528Y431239I0J-1000D01*
G01X919271D01*
G02X919271Y433239I0J1000D01*
G37*
G36*
X900691Y506914D02*
G01X931925D01*
G02X931925Y504914I0J-1000D01*
G01X900691D01*
G02X900691Y506914I0J1000D01*
G37*
G54D10*
X844488Y205119D03*
X923228D03*
G54D11*
X57874Y101575D03*
G54D12*
Y194095D02*
G01Y253150D01*
G54D10*
X923228Y313386D03*
X844488D03*
G54D13*
X39370Y27560D03*
X159449D03*
G54D14*
X45276Y358268D03*
Y437008D03*
Y397638D03*
Y476379D03*
Y515749D03*
G54D15*
X220079Y288977D03*
G54D14*
X456693Y27166D02*
X543307D01*
G54D16*
X735039Y70867D03*
G54D17*
X748425Y257481D03*
X575984Y254725D03*
X550000Y239371D03*
X521654Y211812D03*
X597244Y192520D03*
X709843Y198819D03*
X834252Y250630D03*
G54D18*
X882968D03*
G54D17*
X929134D03*
G54D19*
X792858Y244544D03*
G54D20*
X750787Y86615D03*
G54D17*
X691535Y90158D03*
X572441Y171260D03*
X525591Y136221D03*
X744882Y188583D03*
X653543Y198819D03*
G54D19*
X793252Y165804D03*
X453094Y166985D03*
X452307Y246512D03*
X451520Y317772D03*
X597189Y313835D03*
X656244D03*
X719236D03*
X927898Y160292D03*
X880654D03*
X833409D03*
G54D17*
X928740Y364804D03*
Y400237D03*
X916929Y530158D03*
X720079Y490788D03*
G54D19*
X900339Y26434D03*
X797976D03*
X687740D03*
X223173Y148481D03*
X120811D03*
Y266591D03*
X341283Y471316D03*
X250732Y26434D03*
X364906D03*
G54D16*
X719291Y70867D03*
G54D17*
X691535Y109843D03*
X842126Y417323D03*
X903740Y432284D03*
X412480Y437127D03*
X634646Y503111D03*
X260236Y144489D03*
X609173Y486339D03*
X291732Y144489D03*
X307087Y472441D03*
X106299Y399804D03*
X275591Y472441D03*
X106299Y437008D03*
X750787Y102363D03*
X614764Y90158D03*
X536220Y450394D03*
X825000Y505906D03*
X405906Y351575D03*
X106693Y351969D03*
X676378Y159449D03*
X222441Y452756D03*
X588189Y402756D03*
X882677Y385434D03*
X455000Y401182D03*
X883937Y363938D03*
X568898Y141733D03*
X536220Y501575D03*
X377165Y511024D03*
X659843Y503504D03*
X766535Y86615D03*
X855118Y526182D03*
X885236Y505906D03*
X441299Y441693D03*
X902953Y407323D03*
X825394Y427166D03*
X691535Y129528D03*
G54D21*
X106299Y399796D02*
X104142Y397638D01*
X45276D01*
X106299Y437008D02*
X45276D01*
X106299Y352363D02*
X51181D01*
X45276Y358268D01*
G54D22*
X106693Y351969D02*
X106299Y352363D01*
X198819Y476379D02*
X45276D01*
X198819D02*
X222441Y452756D01*
X494315Y402756D02*
X588189D01*
X289016Y386182D02*
X222441Y452756D01*
X289016Y386182D02*
X477740D01*
X494315Y402756D01*
X191339Y515749D02*
X45276D01*
X191339D02*
X305906Y401182D01*
X454988D01*
X220079Y195670D02*
Y288977D01*
Y195670D02*
X125197Y100788D01*
X58661D01*
X57874Y101575D01*
G36*
X34562Y27477D02*
Y60521D01*
X44507D01*
Y27477D01*
X34562D01*
G37*
G36*
X32637Y22183D02*
Y32449D01*
X73862D01*
Y22183D01*
X32637D01*
G37*
%LPC*%
G75*
X32637Y22183D02*
G54D23*
X727733Y66779D02*
Y74954D01*
X726597D02*
Y66779D01*
G54D24*
X747383Y93129D02*
X754192D01*
X754590Y94351D02*
X746985D01*
X757302Y90020D02*
Y83210D01*
X758524Y82812D02*
Y90417D01*
G54D25*
X459850Y393507D02*
X450150D01*
G54D26*
X3937Y39371D02*
X4087Y35938D01*
X4535Y32536D01*
X5280Y29182D01*
X6311Y25906D01*
X7626Y22733D01*
X9213Y19686D01*
X11055Y16788D01*
X13150Y14064D01*
X15468Y11532D01*
X18000Y9213D01*
X20724Y7119D01*
X23622Y5276D01*
X26669Y3690D01*
X29843Y2375D01*
X33118Y1343D01*
X36472Y599D01*
X39874Y150D01*
X43307Y1D01*
X897638D01*
X901071Y150D01*
X904472Y599D01*
X907827Y1343D01*
X911102Y2375D01*
X914276Y3690D01*
X917323Y5276D01*
X920220Y7119D01*
X922945Y9213D01*
X925476Y11532D01*
X927795Y14064D01*
X929890Y16788D01*
X931732Y19686D01*
X933319Y22733D01*
X934634Y25906D01*
X935665Y29182D01*
X936409Y32536D01*
X936858Y35938D01*
X937008Y39371D01*
Y78741D01*
X937083Y80457D01*
X937307Y82158D01*
X937677Y83835D01*
X938197Y85473D01*
X938850Y87060D01*
X939646Y88583D01*
X940567Y90032D01*
X941614Y91394D01*
X942772Y92662D01*
X944039Y93819D01*
X945402Y94867D01*
X946850Y95788D01*
X948374Y96583D01*
X949961Y97237D01*
X951598Y97756D01*
X953276Y98127D01*
X954976Y98351D01*
X956693Y98426D01*
X957378Y98457D01*
X958059Y98544D01*
X958732Y98693D01*
X959386Y98902D01*
X960020Y99162D01*
X960630Y99481D01*
X961209Y99851D01*
X961756Y100268D01*
X962260Y100733D01*
X962724Y101237D01*
X963142Y101784D01*
X963512Y102363D01*
X963831Y102973D01*
X964091Y103607D01*
X964299Y104260D01*
X964449Y104934D01*
X964535Y105615D01*
X964567Y106300D01*
Y448819D01*
X964551Y449162D01*
X964508Y449504D01*
X964433Y449839D01*
X964331Y450166D01*
X964197Y450485D01*
X964039Y450788D01*
X963854Y451079D01*
X963646Y451351D01*
X963413Y451603D01*
X963161Y451835D01*
X962890Y452044D01*
X962598Y452229D01*
X962295Y452386D01*
X961976Y452520D01*
X961650Y452623D01*
X961315Y452697D01*
X960972Y452741D01*
X960630Y452756D01*
X958913Y452831D01*
X957213Y453056D01*
X955535Y453426D01*
X953898Y453945D01*
X952311Y454599D01*
X950787Y455394D01*
X949339Y456316D01*
X947976Y457363D01*
X946709Y458520D01*
X945551Y459788D01*
X944504Y461150D01*
X943583Y462599D01*
X942787Y464123D01*
X942134Y465709D01*
X941614Y467347D01*
X941244Y469024D01*
X941020Y470725D01*
X940945Y472441D01*
Y511812D01*
X940795Y515245D01*
X940346Y518646D01*
X939602Y522001D01*
X938571Y525276D01*
X937256Y528449D01*
X935669Y531497D01*
X933827Y534394D01*
X931732Y537119D01*
X929413Y539650D01*
X926882Y541969D01*
X924157Y544064D01*
X921260Y545906D01*
X918213Y547493D01*
X915039Y548808D01*
X911764Y549839D01*
X908409Y550583D01*
X905008Y551032D01*
X901575Y551182D01*
X43307D01*
X39874Y551032D01*
X36472Y550583D01*
X33118Y549839D01*
X29843Y548808D01*
X26669Y547493D01*
X23622Y545906D01*
X20724Y544064D01*
X18000Y541969D01*
X15468Y539650D01*
X13150Y537119D01*
X11055Y534394D01*
X9213Y531497D01*
X7626Y528449D01*
X6311Y525276D01*
X5280Y522001D01*
X4535Y518646D01*
X4087Y515245D01*
X3937Y511812D01*
Y39371D01*
X-3343Y1D02*
X968204D01*
X964567Y-13511D02*
Y542672D01*
X956047Y551182D02*
X4761D01*
X3937Y552802D02*
Y2698D01*
G54D27*
X124433Y559831D03*
X157898D03*
X191362D03*
X224827D03*
X258291D03*
X669616D03*
X703080D03*
X736545D03*
X770009D03*
X803474D03*
X124433Y-8580D03*
X157898D03*
X191362D03*
X224827D03*
X258291D03*
X669616D03*
X703080D03*
X736545D03*
X770009D03*
X803474D03*
%LPD*%
G75*
X803474Y-8580D02*
G36*
X11976Y670112D02*
X11977Y700852D01*
X705343D01*
G03X707797Y692941I13979J0D01*
G01X709415Y690951D01*
X710220Y690204D01*
X710743Y689831D01*
G03X713518Y688152I5414J5816D01*
G03X725105Y688152I5794J12655D01*
G01X725721Y688400D01*
G02X728576Y688338I1391J-1697D01*
G01X728909Y688214D01*
G03X732261Y687032I4888J8517D01*
G03X741169Y688214I2766J13316D01*
G03X743581Y689707I-3003J7546D01*
G03X749037Y700759I-8467J11053D01*
G01X928987D01*
X928820Y666131D01*
X927715Y660657D01*
X558555D01*
X558553Y672289D01*
X503502D01*
X503500Y660657D01*
X496500D01*
X496498Y672289D01*
X441447D01*
X441475Y661341D01*
X441445Y660657D01*
X186308D01*
G03X137867Y641187I-26849J-3196D01*
G02X136719Y638015I-1604J-1213D01*
G01X57351D01*
G03X13463Y663057I-17981J19466D01*
G02X12335Y665696I884J1938D01*
G01X11976Y670112D01*
G37*
G36*
X11977Y700852D02*
Y731501D01*
X32027D01*
G03X40310Y712536I25854J0D01*
G03X45082Y709052I14224J14473D01*
G03X54736Y705818I12875J22408D01*
G01X59739Y705693D01*
X64066Y706378D01*
X67987Y707684D01*
X71673Y709612D01*
X75445Y712536D01*
G03X79951Y718010I-17523J19016D01*
G02X81996Y720063I2255J-202D01*
G01X600304D01*
G03X629223Y720063I14460J0D01*
G01X743037D01*
G03X747715Y718196I7005J10757D01*
G01X749570Y717885D01*
G02X752083Y716081I471J-1997D01*
G03X764114Y702272I14471J463D01*
G03X780978Y716520I2413J14248D01*
G01X930109D01*
G03X929777Y715273I26067J-7609D01*
G01X929689Y715024D01*
X929035Y710607D01*
X928987Y700759D01*
X749037D01*
G03X744956Y710607I-13923J-0D01*
G01X744654Y710856D01*
G03X731004Y714091I-9507J-9698D01*
G01X730135Y713842D01*
X729100Y713407D01*
G02X726288Y712971I-1666J1457D01*
G03X705343Y700852I-6966J-12119D01*
G01X11977D01*
G37*
G36*
Y731501D02*
X11979Y850008D01*
X38691D01*
Y804848D01*
X54372D01*
Y850008D01*
X61376D01*
Y804848D01*
X77057D01*
Y850008D01*
X209479D01*
Y830041D01*
X209291Y829978D01*
X208847Y829356D01*
X121456Y741959D01*
X120619Y741461D01*
X120366Y741399D01*
X82632D01*
X82265Y741523D01*
X81937Y741710D01*
X81328Y742394D01*
G03X32027Y731501I-23447J-10893D01*
G01X11977D01*
G37*
G36*
X11979Y850008D02*
Y857100D01*
X38689D01*
X38702Y857037D01*
X54361D01*
X54374Y857100D01*
X61375D01*
X61387Y857037D01*
X77046D01*
X77059Y857100D01*
X209479D01*
Y850008D01*
X11979D01*
G37*
G36*
Y857100D02*
X11983Y1141748D01*
G02X18573Y1160907I31481J-115D01*
G02X22530Y1160161I1881J-890D01*
G01X22541Y1152883D01*
X22528Y1152759D01*
X22530Y965460D01*
X68021D01*
Y968633D01*
G02X69719Y970623I2018J-3D01*
G01X97243D01*
G02X98933Y969690I-1004J-3815D01*
G03X120193Y976719I7760J12194D01*
G03X121155Y981505I-13504J5204D01*
G01X391452D01*
G03X392605Y975848I14454J0D01*
G01X163082D01*
X163109Y861952D01*
X209479Y861827D01*
Y857100D01*
X77059D01*
X77057Y902198D01*
X61376D01*
X61375Y857100D01*
X54374D01*
X54372Y902198D01*
X38691D01*
X38689Y857100D01*
X11979D01*
G37*
G36*
X59838Y1170381D02*
G02X59867Y1170736I2125J5D01*
G02X61811Y1173037I2332J2D01*
G01X848422D01*
G02X848722Y1169118I-307J-1994D01*
G03X844478Y1165884I4561J-10387D01*
G03X861347Y1169181I10662J-9746D01*
G02X861816Y1173037I776J1862D01*
G01X897632Y1173068D01*
G02X931496Y1150955I3689J-31337D01*
G02X932906Y1139633I-29966J-9481D01*
G01X932925Y1135835D01*
X899691D01*
G03X870782Y1135835I-14455J0D01*
G01X839454D01*
G03X810545Y1135835I-14455J0D01*
G01X674091D01*
G03X669274Y1144361I-14262J-2434D01*
G01X668900Y1144610D01*
X668328Y1145107D01*
X666135Y1146414D01*
X665769Y1146538D01*
X665147Y1146849D01*
X663651Y1147347D01*
X662913Y1147471D01*
G03X656773Y1147471I-3070J-9226D01*
G01X656035Y1147347D01*
X654539Y1146849D01*
X653916Y1146538D01*
G03X650946Y1144734I2423J-7337D01*
G01X650199Y1144174D01*
X649306Y1143304D01*
G02X645732Y1142370I-2057J566D01*
G03X620279Y1131485I-11066J-9326D01*
G01X550679D01*
G03X525281Y1140940I-14459J0D01*
G01X391624D01*
G03X362706Y1140940I-14459J0D01*
G01X211019D01*
X198194Y1153754D01*
G03X192107Y1156242I-6850J-8068D01*
G01X69672Y1156366D01*
G02X68490Y1157051I353J1971D01*
G02X68024Y1160223I3583J2147D01*
G01X67992Y1168372D01*
X62816Y1168434D01*
G02X59838Y1170381I-853J1947D01*
G37*
G36*
X67896Y1042066D02*
G02X68024Y1043092I4177J-0D01*
G01X68021Y1053293D01*
G02X69719Y1055284I2019J-2D01*
G01X97378D01*
X97795Y1055159D01*
X98058Y1055035D01*
G03X97754Y1078673I8210J11926D01*
G01X97542Y1078611D01*
X69672D01*
G02X68490Y1079295I351J1971D01*
G02X68024Y1082405I3514J2116D01*
G01Y1093540D01*
G02X69719Y1095655I2015J122D01*
G01X193939D01*
X194308Y1095530D01*
X195095Y1095033D01*
X207287Y1082841D01*
G02X208100Y1080601I-1301J-1740D01*
G03X221385Y1068222I14338J2070D01*
G01X221764Y1068098D01*
G02X223285Y1066854I-443J-2094D01*
G01X282099Y1008070D01*
X283263Y1007200D01*
X284495Y1006515D01*
X285951Y1005955D01*
X287721Y1005582D01*
X478348Y1005520D01*
G03X484956Y1008381I-398J9980D01*
G01X491604Y1015002D01*
X868122D01*
G03X869251Y1010061I11379J0D01*
G01X870703Y1007262D01*
X871640Y1006018D01*
G02X871914Y1002037I-822J-2056D01*
G03X873250Y984184I11912J-8085D01*
G03X874901Y982629I5436J4117D01*
G03X876445Y981505I8501J10055D01*
G01X420360D01*
G03X391452Y981505I-14454J0D01*
G01X121155D01*
G03X98735Y994012I-14466J418D01*
G01X98522Y993950D01*
X69672D01*
G02X68021Y995941I352J1972D01*
G01Y1013918D01*
G02X69719Y1015908I2018J-3D01*
G01X102014D01*
G03X95805Y1039670I4245J13801D01*
G01X95163Y1039297D01*
X94950Y1039235D01*
X69672D01*
G02X68490Y1039919I352J1972D01*
G02X67896Y1042066I3583J2147D01*
G37*
G36*
X81996Y720063D02*
G01X126449Y720187D01*
G03X132305Y722862I-1264J10514D01*
G01X183871Y774426D01*
X245830D01*
G03X251152Y763233I14431J-0D01*
G03X255277Y760869I7980J9143D01*
G01X255543Y760744D01*
X257698Y760185D01*
G03X265528Y760993I2489J14221D01*
G03X269320Y763233I-3628J10471D01*
G03X272585Y766965I-6200J8718D01*
G03X273763Y769329I-7362J5144D01*
G02X274973Y771381I2110J139D01*
G02X277846Y770386I1011J-1725D01*
G03X305863Y771630I13856J4045D01*
G01X554437D01*
G03X576632Y759413I14460J0D01*
G01X677083D01*
G03X677139Y758132I14492J-8D01*
G03X679515Y751414I12145J516D01*
G02X679583Y747930I-1184J-1766D01*
G01X679457Y747681D01*
G03X677600Y735987I12065J-7910D01*
G03X682603Y728460I12268J2728D01*
G03X683859Y727589I3035J3035D01*
G03X688194Y725723I6474J9071D01*
G01X689115Y725537D01*
G03X694277Y725599I2432J12459D01*
G01X695968Y726034D01*
X698545Y727154D01*
X699191Y727589D01*
G03X700446Y728460I-1778J3902D01*
G03X703791Y732130I-7639J10322D01*
G01X736196D01*
G03X737437Y726843I11880J-0D01*
G03X739110Y723795I9076J2999D01*
G01X739326Y723484D01*
X739680Y723111D01*
G03X740965Y721742I4427J2867D01*
G03X743037Y720063I9074J9080D01*
G01X629223D01*
G03X600304Y720063I-14459J0D01*
G01X81996D01*
G37*
G36*
X180625Y639977D02*
G02X181187Y641374I2017J0D01*
G01X182605Y643489D01*
X182964Y644173D01*
X183140Y644422D01*
G03X186300Y654374I-23518J12945D01*
G01X186340Y654561D01*
X186397Y659786D01*
G03X186308Y660657I-26939J-2315D01*
G01X441445D01*
X441493Y660595D01*
X496451D01*
X496500Y660657D01*
X503500D01*
X503549Y660595D01*
X558506D01*
X558555Y660657D01*
X927715D01*
X927640Y660284D01*
X925743Y655432D01*
X923214Y651140D01*
X919674Y647034D01*
X916094Y643986D01*
X911958Y641436D01*
X907519Y639570D01*
X901437Y638201D01*
X900888Y638139D01*
X560653Y638015D01*
G02X559649Y638512I351J1972D01*
G02X558555Y641996I2986J2851D01*
G01X558524Y653566D01*
X441476D01*
X441424Y641374D01*
X440944Y639507D01*
G02X439904Y638201I-1977J507D01*
G02X436938Y637921I-2957J15474D01*
G01Y637983D01*
X186742D01*
X186709Y637940D01*
X182176Y638015D01*
G02X180625Y639977I466J1963D01*
G37*
G36*
X183871Y774426D02*
G01X198806Y789362D01*
X661921D01*
G03X690835Y789362I14457J0D01*
G01X956528D01*
X956529Y758795D01*
X706084D01*
G03X706067Y759438I-11843J8D01*
G03X683780Y771630I-14492J-25D01*
G01X583357D01*
G03X554711Y774431I-14460J0D01*
G01X306138D01*
G03X302873Y783574I-14435J-0D01*
G03X282681Y785626I-11080J-8660D01*
G03X279408Y781894I6064J-8620D01*
G01X279153Y781521D01*
X278220Y779530D01*
G02X277059Y777478I-2118J-156D01*
G02X274132Y778411I-1075J1687D01*
G03X245830Y774426I-13871J-3984D01*
G01X183871D01*
G37*
G36*
X198806Y789362D02*
X226609Y817164D01*
G03X228690Y819341I-4161J6060D01*
G03X230022Y821892I-6186J4853D01*
G03X230681Y825437I-8523J3418D01*
G01X230680Y830165D01*
X819055D01*
X819132Y829792D01*
X822865Y820772D01*
X822900Y820710D01*
X830022Y813556D01*
X830236Y813432D01*
X839048Y809762D01*
X839257Y809700D01*
X849719D01*
X849930Y809762D01*
X858617Y813370D01*
X858954Y813556D01*
X865989Y820585D01*
X866035Y820648D01*
X866109Y820772D01*
X869844Y829792D01*
X869921Y830165D01*
X897795D01*
X897873Y829792D01*
X901608Y820772D01*
X901681Y820648D01*
X901728Y820585D01*
X908762Y813556D01*
X909100Y813370D01*
X917787Y809762D01*
X917997Y809700D01*
X928460D01*
X928669Y809762D01*
X937481Y813432D01*
X937695Y813556D01*
X944816Y820710D01*
X944852Y820772D01*
X945628Y822638D01*
G02X955587Y828174I7046J-950D01*
G02X956527Y825500I-1005J-1856D01*
G01X956528Y789362D01*
X690835D01*
G03X661921Y789362I-14457J0D01*
G01X198806D01*
G37*
G36*
X211019Y1140940D02*
X362706D01*
G03X388104Y1131485I14459J0D01*
G01X521761D01*
G03X550679Y1131485I14459J0D01*
G01X620279D01*
G03X620324Y1131111I14389J1541D01*
G02X620400Y1129121I-3336J-1124D01*
G02X617524Y1128063I-1882J678D01*
G03X594742Y1116271I-8339J-11792D01*
G01X311126D01*
G03X293198Y1106416I-4051J-13866D01*
G02X290311Y1105421I-1864J724D01*
G02X289108Y1107474I909J1912D01*
G01X288137Y1109526D01*
X287161Y1111019D01*
G03X284645Y1113570I-8481J-5848D01*
G03X266624Y1113632I-9049J-11209D01*
G03X263765Y1110584I4995J-7551D01*
G03X261269Y1100693I11649J-8200D01*
G03X262901Y1095468I14340J1612D01*
G02X261246Y1092576I-1790J-895D01*
G02X258833Y1093166I-552J2972D01*
G01X211019Y1140940D01*
G37*
G36*
X230677Y859837D02*
G02X232375Y861827I2018J-2D01*
G01X277049Y861952D01*
X277069Y948167D01*
X819051D01*
X819064Y938277D01*
X819117Y938090D01*
X822856Y929070D01*
X823067Y928759D01*
X829984Y921855D01*
X830273Y921668D01*
X839123Y917998D01*
X839333Y917936D01*
X849643D01*
X849854Y917998D01*
X858703Y921668D01*
X858992Y921855D01*
X865909Y928759D01*
X866120Y929070D01*
X869881Y938152D01*
X869888Y938215D01*
X869925Y948167D01*
X897792D01*
X897828Y938215D01*
X897836Y938152D01*
X901596Y929070D01*
X901807Y928759D01*
X908724Y921855D01*
X909013Y921668D01*
X917863Y917998D01*
X918073Y917936D01*
X928383D01*
X928594Y917998D01*
X937528Y921730D01*
X937732Y921855D01*
X944649Y928759D01*
X944861Y929070D01*
X946734Y933549D01*
G02X955764Y936286I5767J-2763D01*
G02X956527Y933611I-1179J-1783D01*
G01X956530Y843726D01*
G02X956200Y842606I-2003J-19D01*
G02X948381Y842668I-3874J4501D01*
G02X946029Y846463I3937J5067D01*
G01X944866Y849262D01*
X944661Y849573D01*
X937748Y856478D01*
X937566Y856602D01*
X936927Y856851D01*
X936587Y857037D01*
X928468Y860396D01*
X928160Y860459D01*
X918297D01*
X917989Y860396D01*
X908891Y856602D01*
X908709Y856478D01*
X905896Y853616D01*
X905590Y853367D01*
X901796Y849573D01*
X901592Y849262D01*
X897802Y839993D01*
X897795Y830165D01*
X869921D01*
X869914Y839993D01*
X866124Y849262D01*
X865921Y849573D01*
X862126Y853367D01*
X861821Y853616D01*
X859008Y856478D01*
X858825Y856602D01*
X849728Y860396D01*
X849419Y860459D01*
X839557D01*
X839249Y860396D01*
X831129Y857037D01*
X830789Y856851D01*
X830151Y856602D01*
X829968Y856478D01*
X823056Y849573D01*
X822851Y849262D01*
X819111Y840242D01*
X819100Y840180D01*
X819055Y830165D01*
X230680D01*
X230677Y859837D01*
G37*
G36*
X265773Y1087887D02*
G02X267657Y1089901I2018J0D01*
G02X269656Y1089185I358J-2148D01*
G03X274353Y1088004I5368J11417D01*
G03X281453Y1089185I1680J11835D01*
G01X281927Y1089372D01*
X284513Y1091052D01*
G03X286402Y1092793I-4217J6470D01*
G01X287700Y1094473D01*
X287900Y1094846D01*
G03X289478Y1098329I-8348J5881D01*
G02X292339Y1099325I1860J-736D01*
G02X293558Y1097272I-890J-1917D01*
G03X294741Y1094908I8503J2777D01*
G01X294949Y1094535D01*
X296096Y1092980D01*
X298761Y1090554D01*
X300764Y1089372D01*
G03X316001Y1091052I6325J12573D01*
G01X316449Y1091363D01*
X317513Y1092358D01*
X318627Y1093664D01*
X320214Y1096401D01*
G03X311126Y1116271I-13139J6004D01*
G01X594742D01*
G03X600251Y1104923I14443J0D01*
G03X604614Y1102559I6940J7600D01*
G01X606763Y1102000D01*
G03X612229Y1102124I2447J12653D01*
G03X623596Y1115996I-3035J14080D01*
G01X623627Y1116493D01*
X623484Y1118297D01*
G02X623413Y1120163I2903J1045D01*
G02X626341Y1121221I1888J-645D01*
G03X629130Y1119728I6855J9454D01*
G03X640515Y1119852I5563J11924D01*
G03X643501Y1121656I-3632J9385D01*
G01X644222Y1122216D01*
X645185Y1123149D01*
G02X648813Y1124020I2052J-558D01*
G03X674297Y1133400I11016J9380D01*
G01X810752D01*
G03X839454Y1135835I14248J2435D01*
G01X870782D01*
G03X899691Y1135835I14455J0D01*
G01X932925D01*
X933108Y1099014D01*
G03X936453Y1088812I27195J3267D01*
G01X939198Y1084707D01*
G03X943750Y1080290I21168J17261D01*
G01X550681D01*
G03X521760Y1080290I-14460J0D01*
G01X452852D01*
G03X432685Y1083214I-11554J-8681D01*
G01X432423Y1082965D01*
X431759Y1082467D01*
X430913Y1081659D01*
X430460Y1081099D01*
G03X429163Y1079419I4018J-4443D01*
G01X428425Y1078175D01*
X427938Y1077118D01*
G02X427238Y1075563I-2109J14D01*
G02X424220Y1075500I-1536J1281D01*
G03X398011Y1067062I-11746J-8439D01*
G01X284936D01*
X266357Y1085640D01*
G02X265856Y1086697I1480J1349D01*
G01X265783Y1087692D01*
G02X265773Y1087887I2008J200D01*
G37*
G36*
X277069Y948167D02*
G01X277075Y975848D01*
X392605D01*
G03X420360Y981505I13301J5656D01*
G01X876445D01*
G03X881580Y979643I6958J11178D01*
G03X894970Y1003218I2342J14260D01*
G02X894078Y1006391I839J1948D01*
G03X896915Y1017837I-11418J8905D01*
G01X896412Y1019889D01*
G02X895929Y1021818I1573J1419D01*
G02X898497Y1023497I1986J-234D01*
G03X913187Y1047446I4454J13748D01*
G02X912767Y1050805I936J1823D01*
G03X918271Y1062160I-8961J11355D01*
G01X956528D01*
X956530Y952024D01*
G02X956061Y950718I-2002J-18D01*
G02X947632Y951651I-3675J5341D01*
G02X945657Y955632I10007J7445D01*
G01X944856Y957560D01*
X944741Y957747D01*
X937792Y964714D01*
X937608Y964838D01*
X936971Y965087D01*
X936631Y965274D01*
X928546Y968633D01*
X928235Y968695D01*
X918222D01*
X917910Y968633D01*
X908849Y964838D01*
X908665Y964714D01*
X901670Y957685D01*
X901599Y957560D01*
X900936Y955881D01*
X900801Y955632D01*
X897866Y948541D01*
X897792Y948167D01*
X869925D01*
X869851Y948541D01*
X866916Y955632D01*
X866781Y955881D01*
X866118Y957560D01*
X866046Y957685D01*
X859051Y964714D01*
X858868Y964838D01*
X849806Y968633D01*
X849495Y968695D01*
X839482D01*
X839170Y968633D01*
X830463Y964963D01*
G03X829510Y964278I432J-1606D01*
G01X822974Y957747D01*
X822860Y957560D01*
X819125Y948541D01*
X819051Y948167D01*
X277069D01*
G37*
G36*
X284936Y1067062D02*
X398011D01*
G03X403908Y1055408I14463J-0D01*
G01X405324Y1054537D01*
G03X408138Y1053293I4563J6517D01*
G01X408439Y1053169D01*
X410065Y1052796D01*
G03X416521Y1053169I2503J12731D01*
G01X417000Y1053355D01*
X417467Y1053480D01*
X419274Y1054289D01*
X421052Y1055408D01*
X421482Y1055781D01*
G03X423047Y1057098I-5536J8167D01*
G01X810973D01*
G03X811417Y1053542I14457J-1D01*
G03X813231Y1049312I10246J1890D01*
G03X826060Y1042625I12356J8054D01*
G02X828787Y1041661I841J-1959D01*
G03X832040Y1036933I13803J6014D01*
G01X832614Y1036374D01*
X833199Y1035938D01*
G03X837643Y1033574I6984J7770D01*
G01X838067Y1033388D01*
G03X846174Y1033388I4054J13876D01*
G01X846598Y1033574D01*
G03X851122Y1036000I-2219J9569D01*
G03X851738Y1036498I-1040J1916D01*
G01X852357Y1037058D01*
X853701Y1038613D01*
X853820Y1038800D01*
G03X856579Y1046902I-10518J8103D01*
G01X892225D01*
X892080Y1046762D01*
X891105Y1045518D01*
X891007Y1045331D01*
G03X889255Y1032641I11939J-8114D01*
G02X889732Y1031024I-1611J-1354D01*
G02X887378Y1029033I-2009J-12D01*
G01X882680Y1029780D01*
G03X877755Y1028909I-343J-12422D01*
G03X872778Y1025861I3308J-10989D01*
G03X868435Y1017650I9247J-10145D01*
G03X868122Y1015002I11067J-2651D01*
G01X491604D01*
X498073Y1021444D01*
G02X499229Y1022066I1587J-1565D01*
G01X577920D01*
G02X579583Y1021071I-717J-3085D01*
G01X581234Y1020014D01*
G03X578264Y1043403I6909J12760D01*
G01X578053Y1043341D01*
X493490Y1043216D01*
X492319Y1043092D01*
X490891Y1042718D01*
G03X486766Y1040106I2257J-8128D01*
G01X486608Y1039981D01*
X474261Y1027603D01*
G02X472911Y1026794I-2009J1821D01*
G01X471143Y1026763D01*
G02X469380Y1029655I102J2046D01*
G01X469440Y1031646D01*
X469374Y1032392D01*
G03X467816Y1037680I-13826J-1200D01*
G01X467522Y1038302D01*
X466243Y1040168D01*
X465612Y1040852D01*
X465479Y1041039D01*
X463580Y1042718D01*
X462553Y1043403D01*
X461930Y1043714D01*
G03X448418Y1043963I-6991J-12631D01*
G01X448057Y1043714D01*
X447126Y1043216D01*
X445410Y1041972D01*
X445129Y1041848D01*
X444916Y1041785D01*
X310743D01*
X310490Y1041848D01*
X309654Y1042345D01*
X284936Y1067062D01*
G37*
G36*
X305863Y771630D02*
G03X306138Y774431I-14161J2804D01*
G01X554711D01*
G03X554437Y771630I14186J-2802D01*
G01X305863D01*
G37*
G36*
X388104Y1131485D02*
G03X391624Y1140940I-10939J9455D01*
G01X525281D01*
G03X521761Y1131485I10939J-9455D01*
G01X388104D01*
G37*
G36*
X423047Y1057098D02*
G03X424630Y1059265I-7102J6849D01*
G01X424855Y1059576D01*
X425856Y1061566D01*
G02X426565Y1063122I2101J-18D01*
G02X429601Y1063122I1518J-1302D01*
G03X455750Y1071609I11697J8487D01*
G01X524656D01*
G03X550681Y1080290I11565J8681D01*
G01X943750D01*
G03X954991Y1075189I16615J21678D01*
G02X956527Y1072141I-386J-2105D01*
G01X956528Y1062160D01*
X918271D01*
G03X913227Y1073137I-14465J0D01*
G03X906424Y1076371I-8184J-8443D01*
G03X893257Y1052236I-2688J-14193D01*
G02X894034Y1048628I-662J-2030D01*
G01X892848Y1047570D01*
X892598Y1047259D01*
X892225Y1046902D01*
X856579D01*
G03X856574Y1047259I-13276J-8D01*
G01X856484Y1048877D01*
X856440Y1049063D01*
G03X853712Y1055844I-12555J-1112D01*
G03X850456Y1059016I-8986J-5966D01*
G03X842042Y1061691I-7769J-9867D01*
G01Y1061660D01*
X841479D01*
Y1061722D01*
X841274D01*
Y1061660D01*
G02X838763Y1062686I-670J1945D01*
G03X810973Y1057098I-13333J-5588D01*
G01X423047D01*
G37*
G36*
X452852Y1080290D02*
X521760D01*
G03X524656Y1071609I14460J0D01*
G01X455750D01*
G03X452852Y1080290I-14452J-0D01*
G37*
G36*
X576632Y759413D02*
G03X583357Y771630I-7735J12217D01*
G01X683780D01*
G03X677083Y759413I7795J-12217D01*
G01X576632D01*
G37*
G36*
X674091Y1135835D02*
X810545D01*
G03X810752Y1133400I14454J2D01*
G01X674297D01*
G03X674091Y1135835I-14469J2D01*
G37*
G36*
X702715Y749438D02*
G02X703074Y750605I2076J0D01*
G01X704107Y752160D01*
X704215Y752409D01*
G03X706084Y758795I-9974J6386D01*
G01X956529D01*
X956530Y738351D01*
G02X953728Y736236I-2104J-126D01*
G03X943224Y732752I1767J-22905D01*
G01X942820Y732566D01*
X938632Y729704D01*
X938038Y729144D01*
X937869Y729020D01*
X934658Y725474D01*
G03X930109Y716520I21518J-16564D01*
G01X780978D01*
G03X778154Y725101I-14451J-1D01*
G03X775866Y727589I-8636J-5645D01*
G01X774442Y728647D01*
X774192Y728771D01*
X773614Y729144D01*
X772513Y729704D01*
X771797Y729953D01*
G03X769118Y730762I-3817J-7800D01*
G01X767673Y730948D01*
G02X765248Y732690I-402J1999D01*
G01X765018Y734805D01*
X764811Y735676D01*
G03X759609Y743700I-13011J-2737D01*
G03X756396Y745629I-6919J-7884D01*
G01X755953Y745753D01*
G03X745634Y745753I-5159J-13199D01*
G03X741743Y743514I2976J-9673D01*
G03X737703Y738351I7340J-9905D01*
G01X737375Y737666D01*
X736871Y736174D01*
X736839Y735987D01*
G03X736196Y732130I11236J-3855D01*
G01X703791D01*
G03X704724Y733996I-10982J6657D01*
G03X705733Y737293I-7273J4029D01*
G03X704836Y745318I-12392J2678D01*
G01X704715Y745691D01*
X703591Y747744D01*
G02X702715Y749438I1200J1694D01*
G37*
G36*
X12979Y858100D02*
G01X37689D01*
G02X37689Y856100I0J-1000D01*
G01X12979D01*
G02X12979Y858100I0J1000D01*
G37*
G36*
X55374D02*
G01X60375D01*
G02X60375Y856100I0J-1000D01*
G01X55374D01*
G02X55374Y858100I0J1000D01*
G37*
G36*
G01X60375D01*
G02X60375Y856100I0J-1000D01*
G01X55374D01*
G02X55374Y858100I0J1000D01*
G37*
G36*
X12979Y851008D02*
G01X37691D01*
G02X37691Y849008I0J-1000D01*
G01X12979D01*
G02X12979Y851008I0J1000D01*
G37*
G36*
X55372D02*
G01X60376D01*
G02X60376Y849008I0J-1000D01*
G01X55372D01*
G02X55372Y851008I0J1000D01*
G37*
G36*
G01X60376D01*
G02X60376Y849008I0J-1000D01*
G01X55372D01*
G02X55372Y851008I0J1000D01*
G37*
G36*
X278075Y976848D02*
G01X391525D01*
G02X391525Y974848I0J-1000D01*
G01X278075D01*
G02X278075Y976848I0J1000D01*
G37*
G36*
X12977Y732501D02*
G01X31027D01*
G02X31027Y730501I0J-1000D01*
G01X12977D01*
G02X12977Y732501I0J1000D01*
G37*
G36*
X78059Y858100D02*
G01X208479D01*
G02X208479Y856100I0J-1000D01*
G01X78059D01*
G02X78059Y858100I0J1000D01*
G37*
G36*
X78057Y851008D02*
G01X208479D01*
G02X208479Y849008I0J-1000D01*
G01X78057D01*
G02X78057Y851008I0J1000D01*
G37*
G36*
X307138Y775431D02*
G01X553693D01*
G02X553693Y773431I0J-1000D01*
G01X307138D01*
G02X307138Y775431I0J1000D01*
G37*
G36*
X185285Y775426D02*
G01X244830D01*
G02X244830Y773426I0J-1000D01*
G01X185285D01*
G02X185285Y775426I0J1000D01*
G37*
G36*
X212434Y1141940D02*
G01X361706D01*
G02X361706Y1139940I0J-1000D01*
G01X212434D01*
G02X212434Y1141940I0J1000D01*
G37*
G36*
X392624D02*
G01X523990D01*
G02X523990Y1139940I0J-1000D01*
G01X392624D01*
G02X392624Y1141940I0J1000D01*
G37*
G36*
X122155Y982505D02*
G01X390452D01*
G02X390452Y980505I0J-1000D01*
G01X122155D01*
G02X122155Y982505I0J1000D01*
G37*
G36*
X421360D02*
G01X874700D01*
G02X874700Y980505I0J-1000D01*
G01X421360D01*
G02X421360Y982505I0J1000D01*
G37*
G36*
X456750Y1072609D02*
G01X523427D01*
G02X523427Y1070609I0J-1000D01*
G01X456750D01*
G02X456750Y1072609I0J1000D01*
G37*
G36*
X286351Y1068062D02*
G01X397011D01*
G02X397011Y1066062I0J-1000D01*
G01X286351D01*
G02X286351Y1068062I0J1000D01*
G37*
G36*
X187315Y661657D02*
G01X440445D01*
G02X440445Y659657I0J-1000D01*
G01X187315D01*
G02X187315Y661657I0J1000D01*
G37*
G36*
X497500D02*
G01X502500D01*
G02X502500Y659657I0J-1000D01*
G01X497500D01*
G02X497500Y661657I0J1000D01*
G37*
G36*
G01X502500D01*
G02X502500Y659657I0J-1000D01*
G01X497500D01*
G02X497500Y661657I0J1000D01*
G37*
G36*
X559555D02*
G01X926695D01*
G02X926695Y659657I0J-1000D01*
G01X559555D01*
G02X559555Y661657I0J1000D01*
G37*
G36*
X454081Y1081290D02*
G01X520760D01*
G02X520760Y1079290I0J-1000D01*
G01X454081D01*
G02X454081Y1081290I0J1000D01*
G37*
G36*
X551681D02*
G01X942153D01*
G02X942153Y1079290I0J-1000D01*
G01X551681D01*
G02X551681Y1081290I0J1000D01*
G37*
G36*
X389396Y1132485D02*
G01X520761D01*
G02X520761Y1130485I0J-1000D01*
G01X389396D01*
G02X389396Y1132485I0J1000D01*
G37*
G36*
X551679D02*
G01X606535D01*
G02X606535Y1130485I0J-1000D01*
G01X551679D01*
G02X551679Y1132485I0J1000D01*
G37*
G36*
X611836D02*
G01X619273D01*
G02X619273Y1130485I0J-1000D01*
G01X611836D01*
G02X611836Y1132485I0J1000D01*
G37*
G36*
X306881Y772630D02*
G01X553437D01*
G02X553437Y770630I0J-1000D01*
G01X306881D01*
G02X306881Y772630I0J1000D01*
G37*
G36*
X584357D02*
G01X682049D01*
G02X682049Y770630I0J-1000D01*
G01X584357D01*
G02X584357Y772630I0J1000D01*
G37*
G36*
X675297Y1134400D02*
G01X809738D01*
G02X809738Y1132400I0J-1000D01*
G01X675297D01*
G02X675297Y1134400I0J1000D01*
G37*
G36*
X313880Y1117271D02*
G01X533478D01*
G02X533478Y1115271I0J-1000D01*
G01X313880D01*
G02X313880Y1117271I0J1000D01*
G37*
G36*
X538962D02*
G01X593742D01*
G02X593742Y1115271I0J-1000D01*
G01X538962D01*
G02X538962Y1117271I0J1000D01*
G37*
G36*
X129784Y721063D02*
G01X599304D01*
G02X599304Y719063I0J-1000D01*
G01X129784D01*
G02X129784Y721063I0J1000D01*
G37*
G36*
X630223D02*
G01X741339D01*
G02X741339Y719063I0J-1000D01*
G01X630223D01*
G02X630223Y721063I0J1000D01*
G37*
G36*
X200221Y790362D02*
G01X256381D01*
G02X256381Y788362I0J-1000D01*
G01X200221D01*
G02X200221Y790362I0J1000D01*
G37*
G36*
X264141D02*
G01X287532D01*
G02X287532Y788362I0J-1000D01*
G01X264141D01*
G02X264141Y790362I0J1000D01*
G37*
G36*
X296052D02*
G01X660921D01*
G02X660921Y788362I0J-1000D01*
G01X296052D01*
G02X296052Y790362I0J1000D01*
G37*
G36*
X691835D02*
G01X955528D01*
G02X955528Y788362I0J-1000D01*
G01X691835D01*
G02X691835Y790362I0J1000D01*
G37*
G36*
X707084Y759795D02*
G01X955529D01*
G02X955529Y757795I0J-1000D01*
G01X707084D01*
G02X707084Y759795I0J1000D01*
G37*
G36*
X578371Y760413D02*
G01X676083D01*
G02X676083Y758413I0J-1000D01*
G01X578371D01*
G02X578371Y760413I0J1000D01*
G37*
G36*
X750037Y701759D02*
G01X927987D01*
G02X927987Y699759I0J-1000D01*
G01X750037D01*
G02X750037Y701759I0J1000D01*
G37*
G36*
X12977Y701852D02*
G01X704343D01*
G02X704343Y699852I0J-1000D01*
G01X12977D01*
G02X12977Y701852I0J1000D01*
G37*
G36*
X704945Y733129D02*
G01X735196D01*
G02X735196Y731129I0J-1000D01*
G01X704945D01*
G02X704945Y733129I0J1000D01*
G37*
G36*
X781978Y717520D02*
G01X929069D01*
G02X929069Y715520I0J-1000D01*
G01X781978D01*
G02X781978Y717520I0J1000D01*
G37*
G36*
X675104Y1136835D02*
G01X809545D01*
G02X809545Y1134835I0J-1000D01*
G01X675104D01*
G02X675104Y1136835I0J1000D01*
G37*
G36*
X840454D02*
G01X869782D01*
G02X869782Y1134835I0J-1000D01*
G01X840454D01*
G02X840454Y1136835I0J1000D01*
G37*
G36*
G01X869782D01*
G02X869782Y1134835I0J-1000D01*
G01X840454D01*
G02X840454Y1136835I0J1000D01*
G37*
G36*
X857579Y1047902D02*
G01X890919D01*
G02X890919Y1045902I0J-1000D01*
G01X857579D01*
G02X857579Y1047902I0J1000D01*
G37*
G36*
X424381Y1058098D02*
G01X435988D01*
G02X435988Y1056098I0J-1000D01*
G01X424381D01*
G02X424381Y1058098I0J1000D01*
G37*
G36*
X446608D02*
G01X809973D01*
G02X809973Y1056098I0J-1000D01*
G01X446608D01*
G02X446608Y1058098I0J1000D01*
G37*
G36*
X278069Y949167D02*
G01X818051D01*
G02X818051Y947167I0J-1000D01*
G01X278069D01*
G02X278069Y949167I0J1000D01*
G37*
G36*
X870925D02*
G01X896792D01*
G02X896792Y947167I0J-1000D01*
G01X870925D01*
G02X870925Y949167I0J1000D01*
G37*
G36*
G01X896792D01*
G02X896792Y947167I0J-1000D01*
G01X870925D01*
G02X870925Y949167I0J1000D01*
G37*
G36*
X231680Y831165D02*
G01X818055D01*
G02X818055Y829165I0J-1000D01*
G01X231680D01*
G02X231680Y831165I0J1000D01*
G37*
G36*
X870921D02*
G01X896795D01*
G02X896795Y829165I0J-1000D01*
G01X870921D01*
G02X870921Y831165I0J1000D01*
G37*
G36*
G01X896795D01*
G02X896795Y829165I0J-1000D01*
G01X870921D01*
G02X870921Y831165I0J1000D01*
G37*
G36*
X493021Y1016002D02*
G01X867122D01*
G02X867122Y1014002I0J-1000D01*
G01X493021D01*
G02X493021Y1016002I0J1000D01*
G37*
G36*
X919271Y1063160D02*
G01X955528D01*
G02X955528Y1061160I0J-1000D01*
G01X919271D01*
G02X919271Y1063160I0J1000D01*
G37*
G36*
X900691Y1136835D02*
G01X931925D01*
G02X931925Y1134835I0J-1000D01*
G01X900691D01*
G02X900691Y1136835I0J1000D01*
G37*
G54D10*
X844488Y835040D03*
X923228D03*
G54D11*
X57874Y731497D03*
G54D12*
Y824016D02*
G01Y883071D01*
G54D10*
X923228Y943308D03*
X844488D03*
G54D13*
X39370Y657481D03*
X159449D03*
G54D14*
X45276Y988190D03*
Y1066930D03*
Y1027560D03*
Y1106300D03*
Y1145670D03*
G54D15*
X220079Y918898D03*
G54D14*
X456693Y657087D02*
X543307D01*
G54D16*
X735039Y700788D03*
G54D17*
X748425Y887402D03*
X575984Y884646D03*
X550000Y869292D03*
X521654Y841733D03*
X597244Y822441D03*
X709843Y828741D03*
X834252Y880552D03*
G54D18*
X882968D03*
G54D17*
X929134D03*
G54D19*
X792858Y874465D03*
G54D20*
X750787Y716536D03*
G54D17*
X691535Y720079D03*
X572441Y801182D03*
X525591Y766142D03*
X744882Y818504D03*
X653543Y828741D03*
G54D19*
X793252Y795725D03*
X453094Y796906D03*
X452307Y876434D03*
X451520Y947693D03*
X597189Y943756D03*
X656244D03*
X719236D03*
X927898Y790213D03*
X880654D03*
X833409D03*
G54D17*
X928740Y994725D03*
Y1030158D03*
X916929Y1160079D03*
X720079Y1120709D03*
G54D19*
X900339Y656355D03*
X797976D03*
X687740D03*
X223173Y778402D03*
X120811D03*
Y896512D03*
X341283Y1101237D03*
X250732Y656355D03*
X364906D03*
G54D16*
X719291Y700788D03*
G54D17*
X691535Y739764D03*
X842126Y1047245D03*
X903740Y1062205D03*
X412480Y1067048D03*
X634646Y1133032D03*
X260236Y774410D03*
X609173Y1116260D03*
X291732Y774410D03*
X307087Y1102363D03*
X106299Y1029725D03*
X275591Y1102363D03*
X106299Y1066930D03*
X750787Y732284D03*
X614764Y720079D03*
X536220Y1080316D03*
X825000Y1135827D03*
X405906Y981497D03*
X106693Y981890D03*
X676378Y789371D03*
X222441Y1082678D03*
X588189Y1032678D03*
X882677Y1015355D03*
X455000Y1031103D03*
X883937Y993859D03*
X568898Y771654D03*
X536220Y1131497D03*
X377165Y1140945D03*
X659843Y1133426D03*
X766535Y716536D03*
X855118Y1156103D03*
X885236Y1135827D03*
X441299Y1071615D03*
X902953Y1037245D03*
X825394Y1057087D03*
X691535Y759449D03*
G54D21*
X106299Y1029717D02*
X104142Y1027560D01*
X45276D01*
X106299Y1066930D02*
X45276D01*
X106299Y982284D02*
X51181D01*
X45276Y988190D01*
G54D22*
X106693Y981890D02*
X106299Y982284D01*
X198819Y1106300D02*
X45276D01*
X198819D02*
X222441Y1082678D01*
X494315Y1032678D02*
X588189D01*
X289016Y1016103D02*
X222441Y1082678D01*
X289016Y1016103D02*
X477740D01*
X494315Y1032678D01*
X191339Y1145670D02*
X45276D01*
X191339D02*
X305906Y1031103D01*
X454988D01*
X220079Y825591D02*
Y918898D01*
Y825591D02*
X125197Y730709D01*
X58661D01*
X57874Y731497D01*
G36*
X34562Y657398D02*
Y690442D01*
X44507D01*
Y657398D01*
X34562D01*
G37*
G36*
X32637Y652104D02*
Y662371D01*
X73862D01*
Y652104D01*
X32637D01*
G37*
%LPC*%
G75*
X32637Y652104D02*
G54D23*
X727733Y696700D02*
Y704875D01*
X726597D02*
Y696700D01*
G54D24*
X747383Y723050D02*
X754192D01*
X754590Y724273D02*
X746985D01*
X757302Y719941D02*
Y713131D01*
X758524Y712734D02*
Y720338D01*
G54D25*
X459850Y1023428D02*
X450150D01*
G54D26*
X3937Y669292D02*
X4087Y665859D01*
X4535Y662457D01*
X5280Y659103D01*
X6311Y655827D01*
X7626Y652654D01*
X9213Y649607D01*
X11055Y646709D01*
X13150Y643985D01*
X15468Y641453D01*
X18000Y639134D01*
X20724Y637040D01*
X23622Y635197D01*
X26669Y633611D01*
X29843Y632296D01*
X33118Y631264D01*
X36472Y630520D01*
X39874Y630071D01*
X43307Y629922D01*
X897638D01*
X901071Y630071D01*
X904472Y630520D01*
X907827Y631264D01*
X911102Y632296D01*
X914276Y633611D01*
X917323Y635197D01*
X920220Y637040D01*
X922945Y639134D01*
X925476Y641453D01*
X927795Y643985D01*
X929890Y646709D01*
X931732Y649607D01*
X933319Y652654D01*
X934634Y655827D01*
X935665Y659103D01*
X936409Y662457D01*
X936858Y665859D01*
X937008Y669292D01*
Y708662D01*
X937083Y710379D01*
X937307Y712079D01*
X937677Y713756D01*
X938197Y715394D01*
X938850Y716981D01*
X939646Y718504D01*
X940567Y719953D01*
X941614Y721316D01*
X942772Y722583D01*
X944039Y723741D01*
X945402Y724788D01*
X946850Y725709D01*
X948374Y726504D01*
X949961Y727158D01*
X951598Y727678D01*
X953276Y728048D01*
X954976Y728272D01*
X956693Y728347D01*
X957378Y728379D01*
X958059Y728465D01*
X958732Y728615D01*
X959386Y728823D01*
X960020Y729083D01*
X960630Y729402D01*
X961209Y729772D01*
X961756Y730190D01*
X962260Y730654D01*
X962724Y731158D01*
X963142Y731705D01*
X963512Y732284D01*
X963831Y732894D01*
X964091Y733528D01*
X964299Y734182D01*
X964449Y734855D01*
X964535Y735536D01*
X964567Y736221D01*
Y1078741D01*
X964551Y1079083D01*
X964508Y1079426D01*
X964433Y1079760D01*
X964331Y1080087D01*
X964197Y1080406D01*
X964039Y1080709D01*
X963854Y1081001D01*
X963646Y1081272D01*
X963413Y1081524D01*
X963161Y1081756D01*
X962890Y1081965D01*
X962598Y1082150D01*
X962295Y1082308D01*
X961976Y1082441D01*
X961650Y1082544D01*
X961315Y1082619D01*
X960972Y1082662D01*
X960630Y1082678D01*
X958913Y1082753D01*
X957213Y1082977D01*
X955535Y1083347D01*
X953898Y1083867D01*
X952311Y1084520D01*
X950787Y1085316D01*
X949339Y1086237D01*
X947976Y1087284D01*
X946709Y1088441D01*
X945551Y1089709D01*
X944504Y1091071D01*
X943583Y1092520D01*
X942787Y1094044D01*
X942134Y1095630D01*
X941614Y1097268D01*
X941244Y1098945D01*
X941020Y1100646D01*
X940945Y1102363D01*
Y1141733D01*
X940795Y1145166D01*
X940346Y1148567D01*
X939602Y1151922D01*
X938571Y1155197D01*
X937256Y1158371D01*
X935669Y1161418D01*
X933827Y1164316D01*
X931732Y1167040D01*
X929413Y1169571D01*
X926882Y1171890D01*
X924157Y1173985D01*
X921260Y1175827D01*
X918213Y1177414D01*
X915039Y1178729D01*
X911764Y1179760D01*
X908409Y1180504D01*
X905008Y1180953D01*
X901575Y1181103D01*
X43307D01*
X39874Y1180953D01*
X36472Y1180504D01*
X33118Y1179760D01*
X29843Y1178729D01*
X26669Y1177414D01*
X23622Y1175827D01*
X20724Y1173985D01*
X18000Y1171890D01*
X15468Y1169571D01*
X13150Y1167040D01*
X11055Y1164316D01*
X9213Y1161418D01*
X7626Y1158371D01*
X6311Y1155197D01*
X5280Y1151922D01*
X4535Y1148567D01*
X4087Y1145166D01*
X3937Y1141733D01*
Y669292D01*
X-3343Y629922D02*
X968204D01*
X964567Y616410D02*
Y1172593D01*
X956047Y1181103D02*
X4761D01*
X3937Y1182724D02*
Y632619D01*
G54D27*
X124433Y1189752D03*
X157898D03*
X191362D03*
X224827D03*
X258291D03*
X669616D03*
X703080D03*
X736545D03*
X770009D03*
X803474D03*
X124433Y621341D03*
X157898D03*
X191362D03*
X224827D03*
X258291D03*
X669616D03*
X703080D03*
X736545D03*
X770009D03*
X803474D03*
%LPD*%
G75*
X803474Y621341D02*
G36*
X1051347Y40191D02*
Y70931D01*
X1744713D01*
G03X1747167Y63020I13979J0D01*
G01X1748785Y61029D01*
X1749590Y60283D01*
X1750113Y59910D01*
G03X1752888Y58230I5416J5814D01*
G03X1764475Y58230I5794J12655D01*
G01X1765092Y58479D01*
G02X1767946Y58417I1391J-1697D01*
G01X1768279Y58292D01*
G03X1771631Y57111I4885J8518D01*
G03X1780539Y58292I2767J13316D01*
G03X1782951Y59785I-3003J7546D01*
G03X1788407Y70838I-8467J11053D01*
G01X1968358D01*
X1968190Y36210D01*
X1967085Y30736D01*
X1597925D01*
X1597924Y42368D01*
X1542872D01*
X1542871Y30736D01*
X1535870D01*
X1535868Y42368D01*
X1480817D01*
X1480845Y31420D01*
X1480815Y30736D01*
X1225678D01*
G03X1177237Y11266I-26849J-3196D01*
G02X1176090Y8093I-1604J-1214D01*
G01X1096721D01*
G03X1052834Y33136I-17981J19466D01*
G02X1051705Y35774I884J1939D01*
G01X1051347Y40191D01*
G37*
G36*
Y70931D02*
Y101580D01*
X1071397D01*
G03X1079680Y82615I25854J0D01*
G03X1084452Y79131I14225J14473D01*
G03X1094106Y75896I12878J22408D01*
G01X1099109Y75772D01*
X1103437Y76456D01*
X1107357Y77763D01*
X1111043Y79691D01*
X1114815Y82615D01*
G03X1119321Y88089I-17523J19015D01*
G02X1121366Y90141I2255J-202D01*
G01X1639675D01*
G03X1668593Y90141I14459J0D01*
G01X1782407D01*
G03X1787085Y88275I7003J10758D01*
G01X1788940Y87964D01*
G02X1791454Y86160I471J-1997D01*
G03X1803484Y72351I14471J463D01*
G03X1820348Y86599I2413J14248D01*
G01X1969480D01*
G03X1969147Y85352I26062J-7627D01*
G01X1969059Y85103D01*
X1968405Y80686D01*
X1968358Y70838D01*
X1788407D01*
G03X1784326Y80686I-13923J0D01*
G01X1784024Y80935D01*
G03X1770374Y84170I-9507J-9698D01*
G01X1769505Y83921D01*
X1768470Y83485D01*
G02X1765658Y83050I-1665J1457D01*
G03X1744713Y70931I-6966J-12119D01*
G01X1051347D01*
G37*
G36*
Y101580D02*
X1051349Y220087D01*
X1078061D01*
Y174926D01*
X1093742D01*
Y220087D01*
X1100746D01*
Y174926D01*
X1116427D01*
Y220087D01*
X1248849D01*
Y200119D01*
X1248661Y200057D01*
X1248217Y199435D01*
X1160826Y112037D01*
X1159989Y111540D01*
X1159737Y111478D01*
X1122002D01*
X1121635Y111602D01*
X1121307Y111789D01*
X1120698Y112473D01*
G03X1071397Y101580I-23447J-10893D01*
G01X1051347D01*
G37*
G36*
X1051349Y220087D02*
Y227178D01*
X1078060D01*
X1078072Y227116D01*
X1093731D01*
X1093744Y227178D01*
X1100745D01*
X1100757Y227116D01*
X1116416D01*
X1116429Y227178D01*
X1248849D01*
Y220087D01*
X1051349D01*
G37*
G36*
Y227178D02*
X1051353Y511827D01*
G02X1057943Y530986I31481J-115D01*
G02X1061900Y530240I1881J-890D01*
G01X1061911Y522962D01*
X1061898Y522837D01*
X1061900Y335539D01*
X1107392D01*
Y338711D01*
G02X1109090Y340702I2019J-2D01*
G01X1136613D01*
G02X1138303Y339769I-1004J-3815D01*
G03X1159563Y346798I7760J12194D01*
G03X1160525Y351584I-13504J5204D01*
G01X1430822D01*
G03X1431975Y345927I14454J-0D01*
G01X1202452D01*
X1202479Y232030D01*
X1248849Y231906D01*
Y227178D01*
X1116429D01*
X1116427Y272277D01*
X1100746D01*
X1100745Y227178D01*
X1093744D01*
X1093742Y272277D01*
X1078061D01*
X1078060Y227178D01*
X1051349D01*
G37*
G36*
X1099208Y540460D02*
G02X1099237Y540815I2125J5D01*
G02X1101181Y543116I2332J2D01*
G01X1887793D01*
G02X1888093Y539197I-307J-1994D01*
G03X1883848Y535963I4560J-10388D01*
G03X1900717Y539259I10661J-9746D01*
G02X1901186Y543116I776J1863D01*
G01X1937003Y543147D01*
G02X1970866Y521033I3688J-31337D01*
G02X1972276Y509712I-29966J-9480D01*
G01X1972295Y505914D01*
X1939061D01*
G03X1910152Y505914I-14455J0D01*
G01X1878824D01*
G03X1849916Y505914I-14454J0D01*
G01X1713461D01*
G03X1708644Y514440I-14262J-2434D01*
G01X1708271Y514689D01*
X1707698Y515186D01*
X1705505Y516492D01*
X1705139Y516617D01*
X1704517Y516928D01*
X1703021Y517426D01*
X1702283Y517550D01*
G03X1696143Y517550I-3070J-9226D01*
G01X1695405Y517426D01*
X1693909Y516928D01*
X1693286Y516617D01*
G03X1690316Y514813I2424J-7337D01*
G01X1689569Y514253D01*
X1688676Y513382D01*
G02X1685102Y512449I-2056J566D01*
G03X1659649Y501563I-11066J-9326D01*
G01X1590049D01*
G03X1564651Y511018I-14459J0D01*
G01X1430994D01*
G03X1402077Y511018I-14458J0D01*
G01X1250389D01*
X1237564Y523833D01*
G03X1231477Y526321I-6850J-8068D01*
G01X1109042Y526445D01*
G02X1107860Y527129I352J1972D01*
G02X1107394Y530302I3583J2147D01*
G01X1107362Y538451D01*
X1102186Y538513D01*
G02X1099208Y540460I-853J1947D01*
G37*
G36*
X1107266Y412145D02*
G02X1107394Y413170I4177J-1D01*
G01X1107392Y423372D01*
G02X1109090Y425363I2019J-2D01*
G01X1136748D01*
X1137165Y425238D01*
X1137428Y425114D01*
G03X1137124Y448752I8210J11927D01*
G01X1136912Y448689D01*
X1109042D01*
G02X1107860Y449374I352J1970D01*
G02X1107394Y452484I3514J2117D01*
G01Y463618D01*
G02X1109090Y465733I2015J122D01*
G01X1233309D01*
X1233678Y465609D01*
X1234465Y465111D01*
X1246657Y452919D01*
G02X1247470Y450680I-1301J-1739D01*
G03X1260755Y438301I14338J2070D01*
G01X1261135Y438177D01*
G02X1262655Y436933I-444J-2093D01*
G01X1321469Y378149D01*
X1322633Y377278D01*
X1323865Y376594D01*
X1325321Y376034D01*
X1327091Y375661D01*
X1517718Y375599D01*
G03X1524326Y378460I-398J9980D01*
G01X1530974Y385081D01*
X1907492D01*
G03X1908621Y380140I11379J0D01*
G01X1910073Y377341D01*
X1911010Y376096D01*
G02X1911284Y372115I-822J-2056D01*
G03X1912620Y354263I11912J-8085D01*
G03X1914271Y352707I5437J4116D01*
G03X1915815Y351584I8496J10058D01*
G01X1459730D01*
G03X1430822Y351584I-14454J0D01*
G01X1160525D01*
G03X1138105Y364091I-14465J418D01*
G01X1137892Y364029D01*
X1109042D01*
G02X1107392Y366019I352J1971D01*
G01Y383996D01*
G02X1109090Y385987I2019J-2D01*
G01X1141384D01*
G03X1135175Y409749I4245J13801D01*
G01X1134533Y409376D01*
X1134320Y409314D01*
X1109042D01*
G02X1107860Y409998I352J1972D01*
G02X1107266Y412145I3583J2147D01*
G37*
G36*
X1121366Y90141D02*
G01X1165819Y90266D01*
G03X1171675Y92941I-1264J10514D01*
G01X1223241Y144505D01*
X1285200D01*
G03X1290523Y133311I14431J-0D01*
G03X1294648Y130948I7977J9144D01*
G01X1294913Y130823D01*
X1297068Y130263D01*
G03X1304898Y131072I2487J14221D01*
G03X1308690Y133311I-3626J10472D01*
G03X1311955Y137044I-6200J8718D01*
G03X1313133Y139407I-7361J5145D01*
G02X1314343Y141460I2110J139D01*
G02X1317216Y140465I1011J-1725D01*
G03X1345233Y141709I13856J4045D01*
G01X1593807D01*
G03X1616003Y129492I14460J-0D01*
G01X1716453D01*
G03X1716509Y128211I14492J-8D01*
G03X1718885Y121492I12145J515D01*
G02X1718953Y118009I-1184J-1765D01*
G01X1718827Y117760D01*
G03X1716971Y106066I12065J-7909D01*
G03X1721973Y98539I12268J2727D01*
G03X1723229Y97668I3035J3035D01*
G03X1727564Y95802I6474J9071D01*
G01X1728485Y95615D01*
G03X1733647Y95678I2429J12459D01*
G01X1735338Y96113D01*
X1737915Y97233D01*
X1738561Y97668D01*
G03X1739816Y98539I-1778J3902D01*
G03X1743161Y102208I-7638J10323D01*
G01X1775566D01*
G03X1776807Y96922I11880J0D01*
G03X1778480Y93874I9076J2999D01*
G01X1778697Y93563D01*
X1779050Y93189D01*
G03X1780335Y91821I4425J2869D01*
G03X1782407Y90141I9077J9077D01*
G01X1668593D01*
G03X1639675Y90141I-14459J0D01*
G01X1121366D01*
G37*
G36*
X1219995Y10056D02*
G02X1220557Y11452I2017J-1D01*
G01X1221975Y13567D01*
X1222334Y14252D01*
X1222510Y14500D01*
G03X1225670Y24453I-23518J12945D01*
G01X1225710Y24640D01*
X1225767Y29865D01*
G03X1225678Y30736I-26939J-2312D01*
G01X1480815D01*
X1480864Y30674D01*
X1535821D01*
X1535870Y30736D01*
X1542871D01*
X1542919Y30674D01*
X1597877D01*
X1597925Y30736D01*
X1967085D01*
X1967010Y30363D01*
X1965113Y25511D01*
X1962584Y21218D01*
X1959044Y17113D01*
X1955464Y14065D01*
X1951328Y11515D01*
X1946889Y9648D01*
X1940807Y8280D01*
X1940258Y8218D01*
X1600023Y8093D01*
G02X1599019Y8591I353J1972D01*
G02X1597925Y12074I2986J2851D01*
G01X1597894Y23644D01*
X1480846D01*
X1480794Y11452D01*
X1480314Y9586D01*
G02X1479274Y8280I-1977J507D01*
G02X1476308Y8000I-2957J15474D01*
G01Y8062D01*
X1226112D01*
X1226079Y8018D01*
X1221546Y8093D01*
G02X1219995Y10056I466J1963D01*
G37*
G36*
X1223241Y144505D02*
G01X1238177Y159441D01*
X1701291D01*
G03X1730205Y159441I14457J0D01*
G01X1995898D01*
X1995899Y128874D01*
X1745455D01*
G03X1745437Y129517I-11843J-10D01*
G03X1723150Y141709I-14492J-25D01*
G01X1622728D01*
G03X1594081Y144510I-14460J0D01*
G01X1345508D01*
G03X1342243Y153652I-14435J-1D01*
G03X1322051Y155705I-11081J-8660D01*
G03X1318778Y151973I6064J-8620D01*
G01X1318523Y151600D01*
X1317590Y149609D01*
G02X1316429Y147556I-2118J-157D01*
G02X1313502Y148489I-1075J1687D01*
G03X1285200Y144505I-13871J-3984D01*
G01X1223241D01*
G37*
G36*
X1238177Y159441D02*
X1265979Y187243D01*
G03X1268060Y189420I-4161J6060D01*
G03X1269392Y191970I-6186J4854D01*
G03X1270051Y195516I-8523J3418D01*
G01X1270050Y200244D01*
X1858425D01*
X1858503Y199870D01*
X1862235Y190851D01*
X1862270Y190789D01*
X1869392Y183635D01*
X1869606Y183511D01*
X1878418Y179841D01*
X1878627Y179778D01*
X1889089D01*
X1889300Y179841D01*
X1897987Y183448D01*
X1898324Y183635D01*
X1905359Y190664D01*
X1905405Y190726D01*
X1905479Y190851D01*
X1909214Y199870D01*
X1909291Y200244D01*
X1937165D01*
X1937243Y199870D01*
X1940978Y190851D01*
X1941051Y190726D01*
X1941098Y190664D01*
X1948132Y183635D01*
X1948470Y183448D01*
X1957157Y179841D01*
X1957367Y179778D01*
X1967830D01*
X1968039Y179841D01*
X1976851Y183511D01*
X1977065Y183635D01*
X1984187Y190789D01*
X1984222Y190851D01*
X1984998Y192717D01*
G02X1994957Y198253I7046J-950D01*
G02X1995898Y195578I-1005J-1856D01*
G01Y159441D01*
X1730205D01*
G03X1701291Y159441I-14457J0D01*
G01X1238177D01*
G37*
G36*
X1250389Y511018D02*
X1402077D01*
G03X1427474Y501563I14459J0D01*
G01X1561131D01*
G03X1590049Y501563I14459J0D01*
G01X1659649D01*
G03X1659694Y501190I14389J1546D01*
G02X1659770Y499200I-3336J-1124D01*
G02X1656894Y498142I-1882J678D01*
G03X1634112Y486350I-8339J-11792D01*
G01X1350496D01*
G03X1332568Y476495I-4051J-13866D01*
G02X1329681Y475500I-1864J724D01*
G02X1328478Y477552I909J1912D01*
G01X1327507Y479605D01*
X1326531Y481098D01*
G03X1324015Y483648I-8479J-5850D01*
G03X1305994Y483711I-9050J-11209D01*
G03X1303135Y480663I4995J-7550D01*
G03X1300639Y470772I11649J-8200D01*
G03X1302271Y465547I14340J1612D01*
G02X1300616Y462654I-1790J-896D01*
G02X1298203Y463245I-551J2972D01*
G01X1250389Y511018D01*
G37*
G36*
X1270047Y229915D02*
G02X1271745Y231906I2018J-2D01*
G01X1316419Y232030D01*
X1316439Y318246D01*
X1858421D01*
X1858434Y308355D01*
X1858487Y308169D01*
X1862226Y299149D01*
X1862437Y298838D01*
X1869354Y291933D01*
X1869643Y291747D01*
X1878493Y288077D01*
X1878703Y288015D01*
X1889013D01*
X1889224Y288077D01*
X1898074Y291747D01*
X1898362Y291933D01*
X1905279Y298838D01*
X1905490Y299149D01*
X1909251Y308231D01*
X1909258Y308293D01*
X1909295Y318246D01*
X1937162D01*
X1937198Y308293D01*
X1937206Y308231D01*
X1940966Y299149D01*
X1941178Y298838D01*
X1948094Y291933D01*
X1948383Y291747D01*
X1957233Y288077D01*
X1957443Y288015D01*
X1967754D01*
X1967964Y288077D01*
X1976898Y291809D01*
X1977102Y291933D01*
X1984019Y298838D01*
X1984231Y299149D01*
X1986104Y303628D01*
G02X1995134Y306365I5767J-2763D01*
G02X1995898Y303690I-1179J-1783D01*
G01X1995900Y213804D01*
G02X1995570Y212685I-2003J-18D01*
G02X1987752Y212747I-3874J4501D01*
G02X1985399Y216541I3936J5068D01*
G01X1984236Y219341D01*
X1984031Y219652D01*
X1977118Y226556D01*
X1976936Y226681D01*
X1976297Y226929D01*
X1975957Y227116D01*
X1967838Y230475D01*
X1967530Y230537D01*
X1957667D01*
X1957359Y230475D01*
X1948261Y226681D01*
X1948079Y226556D01*
X1945266Y223695D01*
X1944960Y223446D01*
X1941166Y219652D01*
X1940962Y219341D01*
X1937173Y210072D01*
X1937165Y200244D01*
X1909291D01*
X1909284Y210072D01*
X1905494Y219341D01*
X1905291Y219652D01*
X1901497Y223446D01*
X1901191Y223695D01*
X1898378Y226556D01*
X1898195Y226681D01*
X1889098Y230475D01*
X1888790Y230537D01*
X1878927D01*
X1878619Y230475D01*
X1870500Y227116D01*
X1870160Y226929D01*
X1869521Y226681D01*
X1869338Y226556D01*
X1862426Y219652D01*
X1862221Y219341D01*
X1858481Y210321D01*
X1858470Y210259D01*
X1858425Y200244D01*
X1270050D01*
X1270047Y229915D01*
G37*
G36*
X1305143Y457966D02*
G02X1307027Y459979I2018J-0D01*
G02X1309026Y459264I359J-2148D01*
G03X1313723Y458082I5370J11416D01*
G03X1320823Y459264I1678J11835D01*
G01X1321297Y459451D01*
X1323883Y461130D01*
G03X1325772Y462872I-4218J6469D01*
G01X1327070Y464552D01*
X1327270Y464925D01*
G03X1328848Y468408I-8348J5881D01*
G02X1331709Y469404I1860J-736D01*
G02X1332929Y467351I-890J-1918D01*
G03X1334111Y464987I8505J2775D01*
G01X1334319Y464614D01*
X1335466Y463059D01*
X1338131Y460633D01*
X1340134Y459451D01*
G03X1355371Y461130I6326J12573D01*
G01X1355819Y461441D01*
X1356883Y462437D01*
X1357997Y463743D01*
X1359584Y466480D01*
G03X1350496Y486350I-13139J6004D01*
G01X1634112D01*
G03X1639621Y475002I14443J0D01*
G03X1643984Y472638I6940J7600D01*
G01X1646134Y472078D01*
G03X1651599Y472203I2444J12653D01*
G03X1662966Y486074I-3035J14080D01*
G01X1662997Y486572D01*
X1662854Y488376D01*
G02X1662783Y490242I2903J1045D01*
G02X1665711Y491300I1888J-645D01*
G03X1668500Y489807I6855J9454D01*
G03X1679885Y489931I5563J11924D01*
G03X1682871Y491735I-3632J9385D01*
G01X1683592Y492295D01*
X1684555Y493228D01*
G02X1688183Y494099I2052J-558D01*
G03X1713667Y503479I11016J9380D01*
G01X1850122D01*
G03X1878824Y505914I14248J2435D01*
G01X1910152D01*
G03X1939061Y505914I14455J0D01*
G01X1972295D01*
X1972478Y469092D01*
G03X1975823Y458891I27194J3268D01*
G01X1978568Y454785D01*
G03X1983120Y450369I21166J17263D01*
G01X1590051D01*
G03X1561130Y450369I-14460J0D01*
G01X1492222D01*
G03X1472056Y453292I-11553J-8681D01*
G01X1471793Y453044D01*
X1471129Y452546D01*
X1470283Y451737D01*
X1469830Y451178D01*
G03X1468533Y449498I4018J-4443D01*
G01X1467795Y448254D01*
X1467308Y447196D01*
G02X1466608Y445641I-2109J14D01*
G02X1463591Y445579I-1535J1281D01*
G03X1437381Y437141I-11746J-8439D01*
G01X1324306D01*
X1305728Y455718D01*
G02X1305226Y456776I1479J1350D01*
G01X1305153Y457771D01*
G02X1305143Y457966I2008J201D01*
G37*
G36*
X1316439Y318246D02*
G01X1316445Y345927D01*
X1431975D01*
G03X1459730Y351584I13301J5656D01*
G01X1915815D01*
G03X1920950Y349722I6958J11178D01*
G03X1934340Y373297I2342J14260D01*
G02X1933448Y376470I839J1948D01*
G03X1936285Y387915I-11418J8904D01*
G01X1935782Y389968D01*
G02X1935300Y391896I1573J1418D01*
G02X1937867Y393576I1986J-234D01*
G03X1952557Y417525I4454J13748D01*
G02X1952137Y420884I936J1823D01*
G03X1957641Y432239I-8961J11355D01*
G01X1995898D01*
X1995900Y322103D01*
G02X1995431Y320796I-2002J-19D01*
G02X1987002Y321729I-3675J5341D01*
G02X1985027Y325711I10008J7444D01*
G01X1984226Y327639D01*
X1984111Y327826D01*
X1977162Y334792D01*
X1976978Y334917D01*
X1976341Y335166D01*
X1976001Y335352D01*
X1967916Y338711D01*
X1967605Y338774D01*
X1957592D01*
X1957281Y338711D01*
X1948219Y334917D01*
X1948035Y334792D01*
X1941040Y327763D01*
X1940969Y327639D01*
X1940306Y325959D01*
X1940171Y325711D01*
X1937236Y318619D01*
X1937162Y318246D01*
X1909295D01*
X1909221Y318619D01*
X1906286Y325711D01*
X1906151Y325959D01*
X1905488Y327639D01*
X1905416Y327763D01*
X1898421Y334792D01*
X1898238Y334917D01*
X1889176Y338711D01*
X1888865Y338774D01*
X1878852D01*
X1878540Y338711D01*
X1869833Y335041D01*
G03X1868880Y334357I431J-1607D01*
G01X1862344Y327826D01*
X1862231Y327639D01*
X1858496Y318619D01*
X1858421Y318246D01*
X1316439D01*
G37*
G36*
X1324306Y437141D02*
X1437381D01*
G03X1443279Y425487I14463J0D01*
G01X1444694Y424616D01*
G03X1447508Y423372I4563J6517D01*
G01X1447809Y423248D01*
X1449436Y422874D01*
G03X1455891Y423248I2501J12731D01*
G01X1456370Y423434D01*
X1456837Y423559D01*
X1458644Y424367D01*
X1460422Y425487D01*
X1460852Y425860D01*
G03X1462417Y427177I-5536J8167D01*
G01X1850343D01*
G03X1850787Y423621I14457J-1D01*
G03X1852601Y419391I10246J1890D01*
G03X1865430Y412704I12356J8054D01*
G02X1868157Y411740I841J-1959D01*
G03X1871410Y407012I13803J6014D01*
G01X1871984Y406452D01*
X1872569Y406017D01*
G03X1877013Y403653I6984J7770D01*
G01X1877437Y403466D01*
G03X1885544Y403466I4054J13876D01*
G01X1885968Y403653D01*
G03X1890492Y406079I-2219J9569D01*
G03X1891108Y406577I-1040J1916D01*
G01X1891728Y407137D01*
X1893071Y408692D01*
X1893190Y408878D01*
G03X1895949Y416981I-10518J8102D01*
G01X1931595D01*
X1931450Y416841D01*
X1930475Y415596D01*
X1930377Y415410D01*
G03X1928625Y402720I11939J-8114D01*
G02X1929102Y401103I-1611J-1354D01*
G02X1926748Y399112I-2009J-12D01*
G01X1922050Y399859D01*
G03X1917125Y398988I-343J-12422D01*
G03X1912148Y395940I3308J-10989D01*
G03X1907805Y387729I9247J-10145D01*
G03X1907492Y385081I11067J-2651D01*
G01X1530974D01*
X1537443Y391523D01*
G02X1538599Y392145I1587J-1565D01*
G01X1617290D01*
G02X1618953Y391150I-717J-3085D01*
G01X1620604Y390092D01*
G03X1617635Y413481I6909J12760D01*
G01X1617423Y413419D01*
X1532860Y413295D01*
X1531689Y413170D01*
X1530261Y412797D01*
G03X1526136Y410185I2257J-8128D01*
G01X1525978Y410060D01*
X1513631Y397681D01*
G02X1512281Y396873I-2007J1822D01*
G01X1510514Y396842D01*
G02X1508750Y399734I102J2046D01*
G01X1508811Y401725D01*
X1508744Y402471D01*
G03X1507186Y407759I-13826J-1200D01*
G01X1506892Y408381D01*
X1505613Y410247D01*
X1504982Y410931D01*
X1504849Y411118D01*
X1502950Y412797D01*
X1501923Y413481D01*
X1501300Y413792D01*
G03X1487788Y414041I-6991J-12631D01*
G01X1487427Y413792D01*
X1486496Y413295D01*
X1484780Y412051D01*
X1484499Y411926D01*
X1484286Y411864D01*
X1350113D01*
X1349861Y411926D01*
X1349024Y412424D01*
X1324306Y437141D01*
G37*
G36*
X1345233Y141709D02*
G03X1345508Y144510I-14161J2804D01*
G01X1594081D01*
G03X1593807Y141709I14186J-2802D01*
G01X1345233D01*
G37*
G36*
X1427474Y501563D02*
G03X1430994Y511018I-10939J9455D01*
G01X1564651D01*
G03X1561131Y501563I10939J-9455D01*
G01X1427474D01*
G37*
G36*
X1462417Y427177D02*
G03X1464000Y429344I-7101J6849D01*
G01X1464225Y429655D01*
X1465226Y431645D01*
G02X1465935Y433200I2101J-19D01*
G02X1468972Y433200I1519J-1302D01*
G03X1495120Y441688I11697J8487D01*
G01X1564026D01*
G03X1590051Y450369I11565J8681D01*
G01X1983120D01*
G03X1994361Y445268I16615J21678D01*
G02X1995898Y442220I-385J-2106D01*
G01Y432239D01*
X1957641D01*
G03X1952597Y443215I-14465J-0D01*
G03X1945794Y446450I-8185J-8443D01*
G03X1932628Y422315I-2688J-14192D01*
G02X1933404Y418707I-662J-2030D01*
G01X1932218Y417649D01*
X1931968Y417338D01*
X1931595Y416981D01*
X1895949D01*
G03X1895944Y417338I-13276J-8D01*
G01X1895854Y418955D01*
X1895810Y419142D01*
G03X1893082Y425922I-12555J-1113D01*
G03X1889826Y429095I-8987J-5965D01*
G03X1881412Y431770I-7769J-9867D01*
G01Y431739D01*
X1880849D01*
Y431801D01*
X1880644D01*
Y431739D01*
G02X1878134Y432765I-670J1945D01*
G03X1850343Y427177I-13334J-5588D01*
G01X1462417D01*
G37*
G36*
X1492222Y450369D02*
X1561130D01*
G03X1564026Y441688I14460J0D01*
G01X1495120D01*
G03X1492222Y450369I-14452J-0D01*
G37*
G36*
X1616003Y129492D02*
G03X1622728Y141709I-7735J12217D01*
G01X1723150D01*
G03X1716453Y129492I7795J-12217D01*
G01X1616003D01*
G37*
G36*
X1713461Y505914D02*
X1849916D01*
G03X1850122Y503479I14454J-3D01*
G01X1713667D01*
G03X1713461Y505914I-14469J2D01*
G37*
G36*
X1742085Y119517D02*
G02X1742444Y120684I2076J0D01*
G01X1743477Y122239D01*
X1743585Y122488D01*
G03X1745455Y128874I-9974J6387D01*
G01X1995899D01*
X1995900Y108429D01*
G02X1993098Y106315I-2104J-126D01*
G03X1982594Y102831I1767J-22905D01*
G01X1982190Y102644D01*
X1978003Y99783D01*
X1977409Y99223D01*
X1977239Y99099D01*
X1974028Y95553D01*
G03X1969480Y86599I21519J-16562D01*
G01X1820348D01*
G03X1817524Y95180I-14451J-1D01*
G03X1815236Y97668I-8636J-5645D01*
G01X1813812Y98726D01*
X1813562Y98850D01*
X1812985Y99223D01*
X1811883Y99783D01*
X1811167Y100032D01*
G03X1808489Y100841I-3817J-7800D01*
G01X1807043Y101027D01*
G02X1804618Y102769I-402J1999D01*
G01X1804389Y104884D01*
X1804181Y105755D01*
G03X1798979Y113779I-13011J-2737D01*
G03X1795766Y115707I-6917J-7885D01*
G01X1795323Y115832D01*
G03X1785004Y115832I-5159J-13199D01*
G03X1781113Y113592I2978J-9672D01*
G03X1777073Y108429I7340J-9905D01*
G01X1776745Y107745D01*
X1776241Y106252D01*
X1776209Y106066D01*
G03X1775566Y102208I11236J-3855D01*
G01X1743161D01*
G03X1744094Y104075I-10982J6655D01*
G03X1745103Y107372I-7273J4029D01*
G03X1744206Y115396I-12392J2677D01*
G01X1744086Y115770D01*
X1742961Y117822D01*
G02X1742085Y119517I1200J1694D01*
G37*
G36*
X1052349Y228178D02*
G01X1077060D01*
G02X1077060Y226178I0J-1000D01*
G01X1052349D01*
G02X1052349Y228178I0J1000D01*
G37*
G36*
X1094744D02*
G01X1099745D01*
G02X1099745Y226178I0J-1000D01*
G01X1094744D01*
G02X1094744Y228178I0J1000D01*
G37*
G36*
G01X1099745D01*
G02X1099745Y226178I0J-1000D01*
G01X1094744D01*
G02X1094744Y228178I0J1000D01*
G37*
G36*
X1052349Y221087D02*
G01X1077061D01*
G02X1077061Y219087I0J-1000D01*
G01X1052349D01*
G02X1052349Y221087I0J1000D01*
G37*
G36*
X1094742D02*
G01X1099746D01*
G02X1099746Y219087I0J-1000D01*
G01X1094742D01*
G02X1094742Y221087I0J1000D01*
G37*
G36*
G01X1099746D01*
G02X1099746Y219087I0J-1000D01*
G01X1094742D01*
G02X1094742Y221087I0J1000D01*
G37*
G36*
X1317445Y346927D02*
G01X1430895D01*
G02X1430895Y344927I0J-1000D01*
G01X1317445D01*
G02X1317445Y346927I0J1000D01*
G37*
G36*
X1052347Y102580D02*
G01X1070397D01*
G02X1070397Y100580I0J-1000D01*
G01X1052347D01*
G02X1052347Y102580I0J1000D01*
G37*
G36*
X1117429Y228178D02*
G01X1247849D01*
G02X1247849Y226178I0J-1000D01*
G01X1117429D01*
G02X1117429Y228178I0J1000D01*
G37*
G36*
X1117427Y221087D02*
G01X1247849D01*
G02X1247849Y219087I0J-1000D01*
G01X1117427D01*
G02X1117427Y221087I0J1000D01*
G37*
G36*
X1346508Y145510D02*
G01X1593063D01*
G02X1593063Y143510I0J-1000D01*
G01X1346508D01*
G02X1346508Y145510I0J1000D01*
G37*
G36*
X1224655Y145505D02*
G01X1284200D01*
G02X1284200Y143505I0J-1000D01*
G01X1224655D01*
G02X1224655Y145505I0J1000D01*
G37*
G36*
X1251804Y512018D02*
G01X1401077D01*
G02X1401077Y510018I0J-1000D01*
G01X1251804D01*
G02X1251804Y512018I0J1000D01*
G37*
G36*
X1431994D02*
G01X1563360D01*
G02X1563360Y510018I0J-1000D01*
G01X1431994D01*
G02X1431994Y512018I0J1000D01*
G37*
G36*
X1161525Y352584D02*
G01X1429822D01*
G02X1429822Y350584I0J-1000D01*
G01X1161525D01*
G02X1161525Y352584I0J1000D01*
G37*
G36*
X1460730D02*
G01X1914070D01*
G02X1914070Y350584I0J-1000D01*
G01X1460730D01*
G02X1460730Y352584I0J1000D01*
G37*
G36*
X1496120Y442688D02*
G01X1562797D01*
G02X1562797Y440688I0J-1000D01*
G01X1496120D01*
G02X1496120Y442688I0J1000D01*
G37*
G36*
X1325721Y438140D02*
G01X1436381D01*
G02X1436381Y436140I0J-1000D01*
G01X1325721D01*
G02X1325721Y438140I0J1000D01*
G37*
G36*
X1226685Y31736D02*
G01X1479815D01*
G02X1479815Y29736I0J-1000D01*
G01X1226685D01*
G02X1226685Y31736I0J1000D01*
G37*
G36*
X1536870D02*
G01X1541871D01*
G02X1541871Y29736I0J-1000D01*
G01X1536870D01*
G02X1536870Y31736I0J1000D01*
G37*
G36*
G01X1541871D01*
G02X1541871Y29736I0J-1000D01*
G01X1536870D01*
G02X1536870Y31736I0J1000D01*
G37*
G36*
X1598925D02*
G01X1966065D01*
G02X1966065Y29736I0J-1000D01*
G01X1598925D01*
G02X1598925Y31736I0J1000D01*
G37*
G36*
X1493451Y451369D02*
G01X1560130D01*
G02X1560130Y449369I0J-1000D01*
G01X1493451D01*
G02X1493451Y451369I0J1000D01*
G37*
G36*
X1591051D02*
G01X1981523D01*
G02X1981523Y449369I0J-1000D01*
G01X1591051D01*
G02X1591051Y451369I0J1000D01*
G37*
G36*
X1428766Y502563D02*
G01X1560131D01*
G02X1560131Y500563I0J-1000D01*
G01X1428766D01*
G02X1428766Y502563I0J1000D01*
G37*
G36*
X1591049D02*
G01X1645905D01*
G02X1645905Y500563I0J-1000D01*
G01X1591049D01*
G02X1591049Y502563I0J1000D01*
G37*
G36*
X1651206D02*
G01X1658643D01*
G02X1658643Y500563I0J-1000D01*
G01X1651206D01*
G02X1651206Y502563I0J1000D01*
G37*
G36*
X1346251Y142709D02*
G01X1592807D01*
G02X1592807Y140709I0J-1000D01*
G01X1346251D01*
G02X1346251Y142709I0J1000D01*
G37*
G36*
X1623728D02*
G01X1721419D01*
G02X1721419Y140709I0J-1000D01*
G01X1623728D01*
G02X1623728Y142709I0J1000D01*
G37*
G36*
X1714667Y504479D02*
G01X1849109D01*
G02X1849109Y502479I0J-1000D01*
G01X1714667D01*
G02X1714667Y504479I0J1000D01*
G37*
G36*
X1353250Y487350D02*
G01X1572848D01*
G02X1572848Y485350I0J-1000D01*
G01X1353250D01*
G02X1353250Y487350I0J1000D01*
G37*
G36*
X1578332D02*
G01X1633112D01*
G02X1633112Y485350I0J-1000D01*
G01X1578332D01*
G02X1578332Y487350I0J1000D01*
G37*
G36*
X1169154Y91141D02*
G01X1638675D01*
G02X1638675Y89141I0J-1000D01*
G01X1169154D01*
G02X1169154Y91141I0J1000D01*
G37*
G36*
X1669593D02*
G01X1780709D01*
G02X1780709Y89141I0J-1000D01*
G01X1669593D01*
G02X1669593Y91141I0J1000D01*
G37*
G36*
X1239591Y160441D02*
G01X1295751D01*
G02X1295751Y158441I0J-1000D01*
G01X1239591D01*
G02X1239591Y160441I0J1000D01*
G37*
G36*
X1303511D02*
G01X1326902D01*
G02X1326902Y158441I0J-1000D01*
G01X1303511D01*
G02X1303511Y160441I0J1000D01*
G37*
G36*
X1335422D02*
G01X1700291D01*
G02X1700291Y158441I0J-1000D01*
G01X1335422D01*
G02X1335422Y160441I0J1000D01*
G37*
G36*
X1731205D02*
G01X1994898D01*
G02X1994898Y158441I0J-1000D01*
G01X1731205D01*
G02X1731205Y160441I0J1000D01*
G37*
G36*
X1746455Y129874D02*
G01X1994899D01*
G02X1994899Y127874I0J-1000D01*
G01X1746455D01*
G02X1746455Y129874I0J1000D01*
G37*
G36*
X1617741Y130492D02*
G01X1715453D01*
G02X1715453Y128492I0J-1000D01*
G01X1617741D01*
G02X1617741Y130492I0J1000D01*
G37*
G36*
X1789407Y71838D02*
G01X1967358D01*
G02X1967358Y69838I0J-1000D01*
G01X1789407D01*
G02X1789407Y71838I0J1000D01*
G37*
G36*
X1052347Y71931D02*
G01X1743713D01*
G02X1743713Y69931I0J-1000D01*
G01X1052347D01*
G02X1052347Y71931I0J1000D01*
G37*
G36*
X1744316Y103208D02*
G01X1774566D01*
G02X1774566Y101208I0J-1000D01*
G01X1744316D01*
G02X1744316Y103208I0J1000D01*
G37*
G36*
X1821348Y87599D02*
G01X1968439D01*
G02X1968439Y85599I0J-1000D01*
G01X1821348D01*
G02X1821348Y87599I0J1000D01*
G37*
G36*
X1714475Y506914D02*
G01X1848916D01*
G02X1848916Y504914I0J-1000D01*
G01X1714475D01*
G02X1714475Y506914I0J1000D01*
G37*
G36*
X1879824D02*
G01X1909152D01*
G02X1909152Y504914I0J-1000D01*
G01X1879824D01*
G02X1879824Y506914I0J1000D01*
G37*
G36*
G01X1909152D01*
G02X1909152Y504914I0J-1000D01*
G01X1879824D01*
G02X1879824Y506914I0J1000D01*
G37*
G36*
X1896949Y417980D02*
G01X1930289D01*
G02X1930289Y415980I0J-1000D01*
G01X1896949D01*
G02X1896949Y417980I0J1000D01*
G37*
G36*
X1463751Y428177D02*
G01X1475359D01*
G02X1475359Y426177I0J-1000D01*
G01X1463751D01*
G02X1463751Y428177I0J1000D01*
G37*
G36*
X1485978D02*
G01X1849343D01*
G02X1849343Y426177I0J-1000D01*
G01X1485978D01*
G02X1485978Y428177I0J1000D01*
G37*
G36*
X1317439Y319246D02*
G01X1857421D01*
G02X1857421Y317246I0J-1000D01*
G01X1317439D01*
G02X1317439Y319246I0J1000D01*
G37*
G36*
X1910295D02*
G01X1936162D01*
G02X1936162Y317246I0J-1000D01*
G01X1910295D01*
G02X1910295Y319246I0J1000D01*
G37*
G36*
G01X1936162D01*
G02X1936162Y317246I0J-1000D01*
G01X1910295D01*
G02X1910295Y319246I0J1000D01*
G37*
G36*
X1271050Y201244D02*
G01X1857425D01*
G02X1857425Y199244I0J-1000D01*
G01X1271050D01*
G02X1271050Y201244I0J1000D01*
G37*
G36*
X1910291D02*
G01X1936165D01*
G02X1936165Y199244I0J-1000D01*
G01X1910291D01*
G02X1910291Y201244I0J1000D01*
G37*
G36*
G01X1936165D01*
G02X1936165Y199244I0J-1000D01*
G01X1910291D01*
G02X1910291Y201244I0J1000D01*
G37*
G36*
X1532391Y386081D02*
G01X1906492D01*
G02X1906492Y384081I0J-1000D01*
G01X1532391D01*
G02X1532391Y386081I0J1000D01*
G37*
G36*
X1958641Y433239D02*
G01X1994898D01*
G02X1994898Y431239I0J-1000D01*
G01X1958641D01*
G02X1958641Y433239I0J1000D01*
G37*
G36*
X1940061Y506914D02*
G01X1971295D01*
G02X1971295Y504914I0J-1000D01*
G01X1940061D01*
G02X1940061Y506914I0J1000D01*
G37*
G54D10*
X1883858Y205119D03*
X1962598D03*
G54D11*
X1097244Y101575D03*
G54D12*
Y194095D02*
G01Y253150D01*
G54D10*
X1962598Y313386D03*
X1883858D03*
G54D13*
X1078740Y27560D03*
X1198819D03*
G54D14*
X1084646Y358268D03*
Y437008D03*
Y397638D03*
Y476379D03*
Y515749D03*
G54D15*
X1259449Y288977D03*
G54D14*
X1496063Y27166D02*
X1582677D01*
G54D16*
X1774409Y70867D03*
G54D17*
X1787795Y257481D03*
X1615354Y254725D03*
X1589370Y239371D03*
X1561024Y211812D03*
X1636614Y192520D03*
X1749213Y198819D03*
X1873622Y250630D03*
G54D18*
X1922339D03*
G54D17*
X1968504D03*
G54D19*
X1832228Y244544D03*
G54D20*
X1790157Y86615D03*
G54D17*
X1730906Y90158D03*
X1611811Y171260D03*
X1564961Y136221D03*
X1784252Y188583D03*
X1692913Y198819D03*
G54D19*
X1832622Y165804D03*
X1492465Y166985D03*
X1491677Y246512D03*
X1490890Y317772D03*
X1636559Y313835D03*
X1695614D03*
X1758606D03*
X1967268Y160292D03*
X1920024D03*
X1872780D03*
G54D17*
X1968110Y364804D03*
Y400237D03*
X1956299Y530158D03*
X1759449Y490788D03*
G54D19*
X1939709Y26434D03*
X1837346D03*
X1727110D03*
X1262543Y148481D03*
X1160181D03*
Y266591D03*
X1380654Y471316D03*
X1290102Y26434D03*
X1404276D03*
G54D16*
X1758661Y70867D03*
G54D17*
X1730906Y109843D03*
X1881496Y417323D03*
X1943110Y432284D03*
X1451850Y437127D03*
X1674016Y503111D03*
X1299606Y144489D03*
X1648543Y486339D03*
X1331102Y144489D03*
X1346457Y472441D03*
X1145669Y399804D03*
X1314961Y472441D03*
X1145669Y437008D03*
X1790157Y102363D03*
X1654134Y90158D03*
X1575591Y450394D03*
X1864370Y505906D03*
X1445276Y351575D03*
X1146063Y351969D03*
X1715748Y159449D03*
X1261811Y452756D03*
X1627559Y402756D03*
X1922047Y385434D03*
X1494370Y401182D03*
X1923307Y363938D03*
X1608268Y141733D03*
X1575591Y501575D03*
X1416535Y511024D03*
X1699213Y503504D03*
X1805906Y86615D03*
X1894488Y526182D03*
X1924606Y505906D03*
X1480669Y441693D03*
X1942323Y407323D03*
X1864764Y427166D03*
X1730906Y129528D03*
G54D21*
X1145669Y399796D02*
X1143512Y397638D01*
X1084646D01*
X1145669Y437008D02*
X1084646D01*
X1145669Y352363D02*
X1090551D01*
X1084646Y358268D01*
G54D22*
X1146063Y351969D02*
X1145669Y352363D01*
X1238189Y476379D02*
X1084646D01*
X1238189D02*
X1261811Y452756D01*
X1533685Y402756D02*
X1627559D01*
X1328386Y386182D02*
X1261811Y452756D01*
X1328386Y386182D02*
X1517110D01*
X1533685Y402756D01*
X1230709Y515749D02*
X1084646D01*
X1230709D02*
X1345276Y401182D01*
X1494358D01*
X1259449Y195670D02*
Y288977D01*
Y195670D02*
X1164567Y100788D01*
X1098031D01*
X1097244Y101575D01*
G36*
X1073932Y27477D02*
Y60521D01*
X1083877D01*
Y27477D01*
X1073932D01*
G37*
G36*
X1072007Y22183D02*
Y32449D01*
X1113232D01*
Y22183D01*
X1072007D01*
G37*
%LPC*%
G75*
X1072007Y22183D02*
G54D23*
X1767103Y66779D02*
Y74954D01*
X1765968D02*
Y66779D01*
G54D24*
X1786753Y93129D02*
X1793562D01*
X1793960Y94351D02*
X1786355D01*
X1796672Y90020D02*
Y83210D01*
X1797894Y82812D02*
Y90417D01*
G54D25*
X1499220Y393507D02*
X1489520D01*
G54D26*
X1043307Y39371D02*
X1043457Y35938D01*
X1043906Y32536D01*
X1044650Y29182D01*
X1045681Y25906D01*
X1046996Y22733D01*
X1048583Y19686D01*
X1050425Y16788D01*
X1052520Y14064D01*
X1054839Y11532D01*
X1057370Y9213D01*
X1060094Y7119D01*
X1062992Y5276D01*
X1066039Y3690D01*
X1069213Y2375D01*
X1072488Y1343D01*
X1075843Y599D01*
X1079244Y150D01*
X1082677Y1D01*
X1937008D01*
X1940441Y150D01*
X1943843Y599D01*
X1947197Y1343D01*
X1950472Y2375D01*
X1953646Y3690D01*
X1956693Y5276D01*
X1959591Y7119D01*
X1962315Y9213D01*
X1964846Y11532D01*
X1967165Y14064D01*
X1969260Y16788D01*
X1971102Y19686D01*
X1972689Y22733D01*
X1974004Y25906D01*
X1975035Y29182D01*
X1975780Y32536D01*
X1976228Y35938D01*
X1976378Y39371D01*
Y78741D01*
X1976453Y80457D01*
X1976677Y82158D01*
X1977047Y83835D01*
X1977567Y85473D01*
X1978220Y87060D01*
X1979016Y88583D01*
X1979937Y90032D01*
X1980984Y91394D01*
X1982142Y92662D01*
X1983409Y93819D01*
X1984772Y94867D01*
X1986220Y95788D01*
X1987744Y96583D01*
X1989331Y97237D01*
X1990968Y97756D01*
X1992646Y98127D01*
X1994346Y98351D01*
X1996063Y98426D01*
X1996748Y98457D01*
X1997429Y98544D01*
X1998102Y98693D01*
X1998756Y98902D01*
X1999390Y99162D01*
X2000000Y99481D01*
X2000579Y99851D01*
X2001126Y100268D01*
X2001630Y100733D01*
X2002094Y101237D01*
X2002512Y101784D01*
X2002882Y102363D01*
X2003201Y102973D01*
X2003461Y103607D01*
X2003669Y104260D01*
X2003819Y104934D01*
X2003906Y105615D01*
X2003937Y106300D01*
Y448819D01*
X2003921Y449162D01*
X2003878Y449504D01*
X2003803Y449839D01*
X2003701Y450166D01*
X2003567Y450485D01*
X2003409Y450788D01*
X2003224Y451079D01*
X2003016Y451351D01*
X2002783Y451603D01*
X2002531Y451835D01*
X2002260Y452044D01*
X2001968Y452229D01*
X2001665Y452386D01*
X2001346Y452520D01*
X2001020Y452623D01*
X2000685Y452697D01*
X2000343Y452741D01*
X2000000Y452756D01*
X1998283Y452831D01*
X1996583Y453056D01*
X1994906Y453426D01*
X1993268Y453945D01*
X1991681Y454599D01*
X1990157Y455394D01*
X1988709Y456316D01*
X1987346Y457363D01*
X1986079Y458520D01*
X1984921Y459788D01*
X1983874Y461150D01*
X1982953Y462599D01*
X1982157Y464123D01*
X1981504Y465709D01*
X1980984Y467347D01*
X1980614Y469024D01*
X1980390Y470725D01*
X1980315Y472441D01*
Y511812D01*
X1980165Y515245D01*
X1979717Y518646D01*
X1978972Y522001D01*
X1977941Y525276D01*
X1976626Y528449D01*
X1975039Y531497D01*
X1973197Y534394D01*
X1971102Y537119D01*
X1968783Y539650D01*
X1966252Y541969D01*
X1963528Y544064D01*
X1960630Y545906D01*
X1957583Y547493D01*
X1954409Y548808D01*
X1951134Y549839D01*
X1947780Y550583D01*
X1944378Y551032D01*
X1940945Y551182D01*
X1082677D01*
X1079244Y551032D01*
X1075843Y550583D01*
X1072488Y549839D01*
X1069213Y548808D01*
X1066039Y547493D01*
X1062992Y545906D01*
X1060094Y544064D01*
X1057370Y541969D01*
X1054839Y539650D01*
X1052520Y537119D01*
X1050425Y534394D01*
X1048583Y531497D01*
X1046996Y528449D01*
X1045681Y525276D01*
X1044650Y522001D01*
X1043906Y518646D01*
X1043457Y515245D01*
X1043307Y511812D01*
Y39371D01*
X1036027Y1D02*
X2007574D01*
X2003937Y-13511D02*
Y542672D01*
X1995417Y551182D02*
X1044131D01*
X1043307Y552802D02*
Y2698D01*
G54D27*
X1163803Y559831D03*
X1197268D03*
X1230732D03*
X1264197D03*
X1297661D03*
X1708986D03*
X1742450D03*
X1775915D03*
X1809379D03*
X1842844D03*
X1163803Y-8580D03*
X1197268D03*
X1230732D03*
X1264197D03*
X1297661D03*
X1708986D03*
X1742450D03*
X1775915D03*
X1809379D03*
X1842844D03*
%LPD*%
G75*
X1842844Y-8580D02*
G36*
X1051347Y670112D02*
Y700852D01*
X1744713D01*
G03X1747167Y692941I13979J0D01*
G01X1748785Y690951D01*
X1749590Y690204D01*
X1750113Y689831D01*
G03X1752888Y688152I5414J5816D01*
G03X1764475Y688152I5794J12655D01*
G01X1765092Y688400D01*
G02X1767946Y688338I1391J-1697D01*
G01X1768279Y688214D01*
G03X1771631Y687032I4888J8517D01*
G03X1780539Y688214I2766J13316D01*
G03X1782951Y689707I-3003J7546D01*
G03X1788407Y700759I-8467J11053D01*
G01X1968358D01*
X1968190Y666131D01*
X1967085Y660657D01*
X1597925D01*
X1597924Y672289D01*
X1542872D01*
X1542871Y660657D01*
X1535870D01*
X1535868Y672289D01*
X1480817D01*
X1480845Y661341D01*
X1480815Y660657D01*
X1225678D01*
G03X1177237Y641187I-26849J-3196D01*
G02X1176090Y638015I-1604J-1213D01*
G01X1096721D01*
G03X1052834Y663057I-17981J19466D01*
G02X1051705Y665696I883J1939D01*
G01X1051347Y670112D01*
G37*
G36*
Y700852D02*
Y731501D01*
X1071397D01*
G03X1079680Y712536I25854J0D01*
G03X1084452Y709052I14224J14473D01*
G03X1094106Y705818I12875J22408D01*
G01X1099109Y705693D01*
X1103437Y706378D01*
X1107357Y707684D01*
X1111043Y709612D01*
X1114815Y712536D01*
G03X1119321Y718010I-17523J19016D01*
G02X1121366Y720063I2255J-202D01*
G01X1639675D01*
G03X1668593Y720063I14459J0D01*
G01X1782407D01*
G03X1787085Y718196I7005J10757D01*
G01X1788940Y717885D01*
G02X1791454Y716081I471J-1997D01*
G03X1803484Y702272I14471J463D01*
G03X1820348Y716520I2413J14248D01*
G01X1969480D01*
G03X1969147Y715273I26062J-7627D01*
G01X1969059Y715024D01*
X1968405Y710607D01*
X1968358Y700759D01*
X1788407D01*
G03X1784326Y710607I-13923J0D01*
G01X1784024Y710856D01*
G03X1770374Y714091I-9507J-9698D01*
G01X1769505Y713842D01*
X1768470Y713407D01*
G02X1765658Y712971I-1666J1457D01*
G03X1744713Y700852I-6966J-12119D01*
G01X1051347D01*
G37*
G36*
Y731501D02*
X1051349Y850008D01*
X1078061D01*
Y804848D01*
X1093742D01*
Y850008D01*
X1100746D01*
Y804848D01*
X1116427D01*
Y850008D01*
X1248849D01*
Y830041D01*
X1248661Y829978D01*
X1248217Y829356D01*
X1160826Y741959D01*
X1159989Y741461D01*
X1159737Y741399D01*
X1122002D01*
X1121635Y741523D01*
X1121307Y741710D01*
X1120698Y742394D01*
G03X1071397Y731501I-23447J-10893D01*
G01X1051347D01*
G37*
G36*
X1051349Y850008D02*
Y857100D01*
X1078060D01*
X1078072Y857037D01*
X1093731D01*
X1093744Y857100D01*
X1100745D01*
X1100757Y857037D01*
X1116416D01*
X1116429Y857100D01*
X1248849D01*
Y850008D01*
X1051349D01*
G37*
G36*
Y857100D02*
X1051353Y1141748D01*
G02X1057943Y1160907I31481J-115D01*
G02X1061900Y1160161I1881J-890D01*
G01X1061911Y1152883D01*
X1061898Y1152759D01*
X1061900Y965460D01*
X1107392D01*
Y968633D01*
G02X1109090Y970623I2018J-3D01*
G01X1136613D01*
G02X1138303Y969690I-1004J-3815D01*
G03X1159563Y976719I7760J12194D01*
G03X1160525Y981505I-13504J5204D01*
G01X1430822D01*
G03X1431975Y975848I14454J-0D01*
G01X1202452D01*
X1202479Y861952D01*
X1248849Y861827D01*
Y857100D01*
X1116429D01*
X1116427Y902198D01*
X1100746D01*
X1100745Y857100D01*
X1093744D01*
X1093742Y902198D01*
X1078061D01*
X1078060Y857100D01*
X1051349D01*
G37*
G36*
X1099208Y1170381D02*
G02X1099237Y1170736I2125J5D01*
G02X1101181Y1173037I2332J2D01*
G01X1887793D01*
G02X1888093Y1169118I-307J-1994D01*
G03X1883848Y1165884I4560J-10388D01*
G03X1900717Y1169181I10662J-9746D01*
G02X1901186Y1173037I776J1862D01*
G01X1937003Y1173068D01*
G02X1970866Y1150955I3688J-31337D01*
G02X1972276Y1139633I-29966J-9481D01*
G01X1972295Y1135835D01*
X1939061D01*
G03X1910152Y1135835I-14455J0D01*
G01X1878824D01*
G03X1849916Y1135835I-14454J0D01*
G01X1713461D01*
G03X1708644Y1144361I-14262J-2434D01*
G01X1708271Y1144610D01*
X1707698Y1145107D01*
X1705505Y1146414D01*
X1705139Y1146538D01*
X1704517Y1146849D01*
X1703021Y1147347D01*
X1702283Y1147471D01*
G03X1696143Y1147471I-3070J-9226D01*
G01X1695405Y1147347D01*
X1693909Y1146849D01*
X1693286Y1146538D01*
G03X1690316Y1144734I2423J-7337D01*
G01X1689569Y1144174D01*
X1688676Y1143304D01*
G02X1685102Y1142370I-2057J566D01*
G03X1659649Y1131485I-11066J-9326D01*
G01X1590049D01*
G03X1564651Y1140940I-14459J0D01*
G01X1430994D01*
G03X1402077Y1140940I-14458J0D01*
G01X1250389D01*
X1237564Y1153754D01*
G03X1231477Y1156242I-6850J-8068D01*
G01X1109042Y1156366D01*
G02X1107860Y1157051I353J1971D01*
G02X1107394Y1160223I3583J2147D01*
G01X1107362Y1168372D01*
X1102186Y1168434D01*
G02X1099208Y1170381I-853J1947D01*
G37*
G36*
X1107266Y1042066D02*
G02X1107394Y1043092I4177J0D01*
G01X1107392Y1053293D01*
G02X1109090Y1055284I2019J-2D01*
G01X1136748D01*
X1137165Y1055159D01*
X1137428Y1055035D01*
G03X1137124Y1078673I8210J11927D01*
G01X1136912Y1078611D01*
X1109042D01*
G02X1107860Y1079295I352J1971D01*
G02X1107394Y1082405I3514J2117D01*
G01Y1093540D01*
G02X1109090Y1095655I2015J122D01*
G01X1233309D01*
X1233678Y1095530D01*
X1234465Y1095033D01*
X1246657Y1082841D01*
G02X1247470Y1080601I-1301J-1740D01*
G03X1260755Y1068222I14338J2070D01*
G01X1261135Y1068098D01*
G02X1262655Y1066854I-444J-2093D01*
G01X1321469Y1008070D01*
X1322633Y1007200D01*
X1323865Y1006515D01*
X1325321Y1005955D01*
X1327091Y1005582D01*
X1517718Y1005520D01*
G03X1524326Y1008381I-398J9980D01*
G01X1530974Y1015002D01*
X1907492D01*
G03X1908621Y1010061I11379J0D01*
G01X1910073Y1007262D01*
X1911010Y1006018D01*
G02X1911284Y1002037I-822J-2056D01*
G03X1912620Y984184I11912J-8085D01*
G03X1914271Y982629I5436J4117D01*
G03X1915815Y981505I8501J10055D01*
G01X1459730D01*
G03X1430822Y981505I-14454J0D01*
G01X1160525D01*
G03X1138105Y994012I-14465J418D01*
G01X1137892Y993950D01*
X1109042D01*
G02X1107392Y995941I352J1971D01*
G01Y1013918D01*
G02X1109090Y1015908I2018J-3D01*
G01X1141384D01*
G03X1135175Y1039670I4245J13801D01*
G01X1134533Y1039297D01*
X1134320Y1039235D01*
X1109042D01*
G02X1107860Y1039919I352J1972D01*
G02X1107266Y1042066I3583J2147D01*
G37*
G36*
X1121366Y720063D02*
G01X1165819Y720187D01*
G03X1171675Y722862I-1264J10514D01*
G01X1223241Y774426D01*
X1285200D01*
G03X1290523Y763233I14431J1D01*
G03X1294648Y760869I7980J9143D01*
G01X1294913Y760744D01*
X1297068Y760185D01*
G03X1304898Y760993I2489J14221D01*
G03X1308690Y763233I-3628J10471D01*
G03X1311955Y766965I-6200J8718D01*
G03X1313133Y769329I-7362J5144D01*
G02X1314343Y771381I2110J139D01*
G02X1317216Y770386I1011J-1725D01*
G03X1345233Y771630I13856J4045D01*
G01X1593807D01*
G03X1616003Y759413I14460J-0D01*
G01X1716453D01*
G03X1716509Y758132I14492J-8D01*
G03X1718885Y751414I12145J516D01*
G02X1718953Y747930I-1184J-1766D01*
G01X1718827Y747681D01*
G03X1716971Y735987I12065J-7909D01*
G03X1721973Y728460I12268J2727D01*
G03X1723229Y727589I3035J3035D01*
G03X1727564Y725723I6474J9071D01*
G01X1728485Y725537D01*
G03X1733647Y725599I2432J12459D01*
G01X1735338Y726034D01*
X1737915Y727154D01*
X1738561Y727589D01*
G03X1739816Y728460I-1778J3902D01*
G03X1743161Y732130I-7639J10322D01*
G01X1775566D01*
G03X1776807Y726843I11880J-1D01*
G03X1778480Y723795I9076J2999D01*
G01X1778697Y723484D01*
X1779050Y723111D01*
G03X1780335Y721742I4426J2867D01*
G03X1782407Y720063I9074J9080D01*
G01X1668593D01*
G03X1639675Y720063I-14459J0D01*
G01X1121366D01*
G37*
G36*
X1219995Y639977D02*
G02X1220557Y641374I2017J0D01*
G01X1221975Y643489D01*
X1222334Y644173D01*
X1222510Y644422D01*
G03X1225670Y654374I-23518J12945D01*
G01X1225710Y654561D01*
X1225767Y659786D01*
G03X1225678Y660657I-26939J-2312D01*
G01X1480815D01*
X1480864Y660595D01*
X1535821D01*
X1535870Y660657D01*
X1542871D01*
X1542919Y660595D01*
X1597877D01*
X1597925Y660657D01*
X1967085D01*
X1967010Y660284D01*
X1965113Y655432D01*
X1962584Y651140D01*
X1959044Y647034D01*
X1955464Y643986D01*
X1951328Y641436D01*
X1946889Y639570D01*
X1940807Y638201D01*
X1940258Y638139D01*
X1600023Y638015D01*
G02X1599019Y638512I351J1972D01*
G02X1597925Y641996I2986J2851D01*
G01X1597894Y653566D01*
X1480846D01*
X1480794Y641374D01*
X1480314Y639507D01*
G02X1479274Y638201I-1977J507D01*
G02X1476308Y637921I-2957J15474D01*
G01Y637983D01*
X1226112D01*
X1226079Y637940D01*
X1221546Y638015D01*
G02X1219995Y639977I466J1963D01*
G37*
G36*
X1223241Y774426D02*
G01X1238177Y789362D01*
X1701291D01*
G03X1730205Y789362I14457J0D01*
G01X1995898D01*
X1995899Y758795D01*
X1745455D01*
G03X1745437Y759438I-11843J-10D01*
G03X1723150Y771630I-14492J-25D01*
G01X1622728D01*
G03X1594081Y774431I-14460J0D01*
G01X1345508D01*
G03X1342243Y783574I-14435J-0D01*
G03X1322051Y785626I-11080J-8660D01*
G03X1318778Y781894I6065J-8620D01*
G01X1318523Y781521D01*
X1317590Y779530D01*
G02X1316429Y777478I-2118J-156D01*
G02X1313502Y778411I-1075J1687D01*
G03X1285200Y774426I-13871J-3984D01*
G01X1223241D01*
G37*
G36*
X1238177Y789362D02*
X1265979Y817164D01*
G03X1268060Y819341I-4161J6060D01*
G03X1269392Y821892I-6186J4853D01*
G03X1270051Y825437I-8523J3418D01*
G01X1270050Y830165D01*
X1858425D01*
X1858503Y829792D01*
X1862235Y820772D01*
X1862270Y820710D01*
X1869392Y813556D01*
X1869606Y813432D01*
X1878418Y809762D01*
X1878627Y809700D01*
X1889089D01*
X1889300Y809762D01*
X1897987Y813370D01*
X1898324Y813556D01*
X1905359Y820585D01*
X1905405Y820648D01*
X1905479Y820772D01*
X1909214Y829792D01*
X1909291Y830165D01*
X1937165D01*
X1937243Y829792D01*
X1940978Y820772D01*
X1941051Y820648D01*
X1941098Y820585D01*
X1948132Y813556D01*
X1948470Y813370D01*
X1957157Y809762D01*
X1957367Y809700D01*
X1967830D01*
X1968039Y809762D01*
X1976851Y813432D01*
X1977065Y813556D01*
X1984187Y820710D01*
X1984222Y820772D01*
X1984998Y822638D01*
G02X1994957Y828174I7046J-950D01*
G02X1995898Y825500I-1005J-1856D01*
G01Y789362D01*
X1730205D01*
G03X1701291Y789362I-14457J0D01*
G01X1238177D01*
G37*
G36*
X1250389Y1140940D02*
X1402077D01*
G03X1427474Y1131485I14459J0D01*
G01X1561131D01*
G03X1590049Y1131485I14459J0D01*
G01X1659649D01*
G03X1659694Y1131111I14389J1541D01*
G02X1659770Y1129121I-3336J-1124D01*
G02X1656894Y1128063I-1882J678D01*
G03X1634112Y1116271I-8339J-11792D01*
G01X1350496D01*
G03X1332568Y1106416I-4051J-13866D01*
G02X1329681Y1105421I-1864J724D01*
G02X1328478Y1107474I909J1912D01*
G01X1327507Y1109526D01*
X1326531Y1111019D01*
G03X1324015Y1113570I-8481J-5848D01*
G03X1305994Y1113632I-9049J-11209D01*
G03X1303135Y1110584I4996J-7550D01*
G03X1300639Y1100693I11649J-8200D01*
G03X1302271Y1095468I14340J1612D01*
G02X1300616Y1092576I-1790J-895D01*
G02X1298203Y1093166I-552J2972D01*
G01X1250389Y1140940D01*
G37*
G36*
X1270047Y859837D02*
G02X1271745Y861827I2018J-2D01*
G01X1316419Y861952D01*
X1316439Y948167D01*
X1858421D01*
X1858434Y938277D01*
X1858487Y938090D01*
X1862226Y929070D01*
X1862437Y928759D01*
X1869354Y921855D01*
X1869643Y921668D01*
X1878493Y917998D01*
X1878703Y917936D01*
X1889013D01*
X1889224Y917998D01*
X1898074Y921668D01*
X1898362Y921855D01*
X1905279Y928759D01*
X1905490Y929070D01*
X1909251Y938152D01*
X1909258Y938215D01*
X1909295Y948167D01*
X1937162D01*
X1937198Y938215D01*
X1937206Y938152D01*
X1940966Y929070D01*
X1941178Y928759D01*
X1948094Y921855D01*
X1948383Y921668D01*
X1957233Y917998D01*
X1957443Y917936D01*
X1967754D01*
X1967964Y917998D01*
X1976898Y921730D01*
X1977102Y921855D01*
X1984019Y928759D01*
X1984231Y929070D01*
X1986104Y933549D01*
G02X1995134Y936286I5767J-2763D01*
G02X1995898Y933611I-1179J-1783D01*
G01X1995900Y843726D01*
G02X1995570Y842606I-2003J-19D01*
G02X1987752Y842668I-3874J4501D01*
G02X1985399Y846463I3937J5068D01*
G01X1984236Y849262D01*
X1984031Y849573D01*
X1977118Y856478D01*
X1976936Y856602D01*
X1976297Y856851D01*
X1975957Y857037D01*
X1967838Y860396D01*
X1967530Y860459D01*
X1957667D01*
X1957359Y860396D01*
X1948261Y856602D01*
X1948079Y856478D01*
X1945266Y853616D01*
X1944960Y853367D01*
X1941166Y849573D01*
X1940962Y849262D01*
X1937173Y839993D01*
X1937165Y830165D01*
X1909291D01*
X1909284Y839993D01*
X1905494Y849262D01*
X1905291Y849573D01*
X1901497Y853367D01*
X1901191Y853616D01*
X1898378Y856478D01*
X1898195Y856602D01*
X1889098Y860396D01*
X1888790Y860459D01*
X1878927D01*
X1878619Y860396D01*
X1870500Y857037D01*
X1870160Y856851D01*
X1869521Y856602D01*
X1869338Y856478D01*
X1862426Y849573D01*
X1862221Y849262D01*
X1858481Y840242D01*
X1858470Y840180D01*
X1858425Y830165D01*
X1270050D01*
X1270047Y859837D01*
G37*
G36*
X1305143Y1087887D02*
G02X1307027Y1089901I2018J0D01*
G02X1309026Y1089185I358J-2148D01*
G03X1313723Y1088004I5368J11417D01*
G03X1320823Y1089185I1680J11835D01*
G01X1321297Y1089372D01*
X1323883Y1091052D01*
G03X1325772Y1092793I-4216J6470D01*
G01X1327070Y1094473D01*
X1327270Y1094846D01*
G03X1328848Y1098329I-8348J5881D01*
G02X1331709Y1099325I1860J-736D01*
G02X1332929Y1097272I-890J-1918D01*
G03X1334111Y1094908I8505J2775D01*
G01X1334319Y1094535D01*
X1335466Y1092980D01*
X1338131Y1090554D01*
X1340134Y1089372D01*
G03X1355371Y1091052I6325J12573D01*
G01X1355819Y1091363D01*
X1356883Y1092358D01*
X1357997Y1093664D01*
X1359584Y1096401D01*
G03X1350496Y1116271I-13139J6004D01*
G01X1634112D01*
G03X1639621Y1104923I14443J0D01*
G03X1643984Y1102559I6940J7600D01*
G01X1646134Y1102000D01*
G03X1651599Y1102124I2447J12653D01*
G03X1662966Y1115996I-3035J14080D01*
G01X1662997Y1116493D01*
X1662854Y1118297D01*
G02X1662783Y1120163I2903J1045D01*
G02X1665711Y1121221I1888J-645D01*
G03X1668500Y1119728I6855J9454D01*
G03X1679885Y1119852I5563J11924D01*
G03X1682871Y1121656I-3632J9385D01*
G01X1683592Y1122216D01*
X1684555Y1123149D01*
G02X1688183Y1124020I2052J-558D01*
G03X1713667Y1133400I11016J9380D01*
G01X1850122D01*
G03X1878824Y1135835I14248J2435D01*
G01X1910152D01*
G03X1939061Y1135835I14455J0D01*
G01X1972295D01*
X1972478Y1099014D01*
G03X1975823Y1088812I27195J3267D01*
G01X1978568Y1084707D01*
G03X1983120Y1080290I21168J17261D01*
G01X1590051D01*
G03X1561130Y1080290I-14460J0D01*
G01X1492222D01*
G03X1472056Y1083214I-11554J-8681D01*
G01X1471793Y1082965D01*
X1471129Y1082467D01*
X1470283Y1081659D01*
X1469830Y1081099D01*
G03X1468533Y1079419I4018J-4443D01*
G01X1467795Y1078175D01*
X1467308Y1077118D01*
G02X1466608Y1075563I-2109J14D01*
G02X1463591Y1075500I-1536J1281D01*
G03X1437381Y1067062I-11746J-8439D01*
G01X1324306D01*
X1305728Y1085640D01*
G02X1305226Y1086697I1479J1350D01*
G01X1305153Y1087692D01*
G02X1305143Y1087887I2008J201D01*
G37*
G36*
X1316439Y948167D02*
G01X1316445Y975848D01*
X1431975D01*
G03X1459730Y981505I13301J5656D01*
G01X1915815D01*
G03X1920950Y979643I6958J11178D01*
G03X1934340Y1003218I2342J14260D01*
G02X1933448Y1006391I839J1948D01*
G03X1936285Y1017837I-11418J8905D01*
G01X1935782Y1019889D01*
G02X1935300Y1021818I1573J1418D01*
G02X1937867Y1023497I1986J-234D01*
G03X1952557Y1047446I4454J13748D01*
G02X1952137Y1050805I936J1823D01*
G03X1957641Y1062160I-8961J11355D01*
G01X1995898D01*
X1995900Y952024D01*
G02X1995431Y950718I-2002J-18D01*
G02X1987002Y951651I-3675J5341D01*
G02X1985027Y955632I10007J7445D01*
G01X1984226Y957560D01*
X1984111Y957747D01*
X1977162Y964714D01*
X1976978Y964838D01*
X1976341Y965087D01*
X1976001Y965274D01*
X1967916Y968633D01*
X1967605Y968695D01*
X1957592D01*
X1957281Y968633D01*
X1948219Y964838D01*
X1948035Y964714D01*
X1941040Y957685D01*
X1940969Y957560D01*
X1940306Y955881D01*
X1940171Y955632D01*
X1937236Y948541D01*
X1937162Y948167D01*
X1909295D01*
X1909221Y948541D01*
X1906286Y955632D01*
X1906151Y955881D01*
X1905488Y957560D01*
X1905416Y957685D01*
X1898421Y964714D01*
X1898238Y964838D01*
X1889176Y968633D01*
X1888865Y968695D01*
X1878852D01*
X1878540Y968633D01*
X1869833Y964963D01*
G03X1868880Y964278I432J-1606D01*
G01X1862344Y957747D01*
X1862231Y957560D01*
X1858496Y948541D01*
X1858421Y948167D01*
X1316439D01*
G37*
G36*
X1324306Y1067062D02*
X1437381D01*
G03X1443279Y1055408I14463J0D01*
G01X1444694Y1054537D01*
G03X1447508Y1053293I4563J6517D01*
G01X1447809Y1053169D01*
X1449436Y1052796D01*
G03X1455891Y1053169I2503J12731D01*
G01X1456370Y1053355D01*
X1456837Y1053480D01*
X1458644Y1054289D01*
X1460422Y1055408D01*
X1460852Y1055781D01*
G03X1462417Y1057098I-5536J8167D01*
G01X1850343D01*
G03X1850787Y1053542I14457J-1D01*
G03X1852601Y1049312I10246J1890D01*
G03X1865430Y1042625I12356J8054D01*
G02X1868157Y1041661I841J-1959D01*
G03X1871410Y1036933I13803J6014D01*
G01X1871984Y1036374D01*
X1872569Y1035938D01*
G03X1877013Y1033574I6984J7770D01*
G01X1877437Y1033388D01*
G03X1885544Y1033388I4054J13876D01*
G01X1885968Y1033574D01*
G03X1890492Y1036000I-2219J9569D01*
G03X1891108Y1036498I-1040J1916D01*
G01X1891728Y1037058D01*
X1893071Y1038613D01*
X1893190Y1038800D01*
G03X1895949Y1046902I-10518J8102D01*
G01X1931595D01*
X1931450Y1046762D01*
X1930475Y1045518D01*
X1930377Y1045331D01*
G03X1928625Y1032641I11939J-8114D01*
G02X1929102Y1031024I-1611J-1354D01*
G02X1926748Y1029033I-2009J-12D01*
G01X1922050Y1029780D01*
G03X1917125Y1028909I-343J-12422D01*
G03X1912148Y1025861I3308J-10989D01*
G03X1907805Y1017650I9247J-10145D01*
G03X1907492Y1015002I11067J-2651D01*
G01X1530974D01*
X1537443Y1021444D01*
G02X1538599Y1022066I1587J-1565D01*
G01X1617290D01*
G02X1618953Y1021071I-717J-3085D01*
G01X1620604Y1020014D01*
G03X1617635Y1043403I6909J12760D01*
G01X1617423Y1043341D01*
X1532860Y1043216D01*
X1531689Y1043092D01*
X1530261Y1042718D01*
G03X1526136Y1040106I2257J-8128D01*
G01X1525978Y1039981D01*
X1513631Y1027603D01*
G02X1512281Y1026794I-2009J1821D01*
G01X1510514Y1026763D01*
G02X1508750Y1029655I102J2046D01*
G01X1508811Y1031646D01*
X1508744Y1032392D01*
G03X1507186Y1037680I-13826J-1200D01*
G01X1506892Y1038302D01*
X1505613Y1040168D01*
X1504982Y1040852D01*
X1504849Y1041039D01*
X1502950Y1042718D01*
X1501923Y1043403D01*
X1501300Y1043714D01*
G03X1487788Y1043963I-6991J-12631D01*
G01X1487427Y1043714D01*
X1486496Y1043216D01*
X1484780Y1041972D01*
X1484499Y1041848D01*
X1484286Y1041785D01*
X1350113D01*
X1349861Y1041848D01*
X1349024Y1042345D01*
X1324306Y1067062D01*
G37*
G36*
X1345233Y771630D02*
G03X1345508Y774431I-14161J2804D01*
G01X1594081D01*
G03X1593807Y771630I14186J-2802D01*
G01X1345233D01*
G37*
G36*
X1427474Y1131485D02*
G03X1430994Y1140940I-10939J9455D01*
G01X1564651D01*
G03X1561131Y1131485I10939J-9455D01*
G01X1427474D01*
G37*
G36*
X1462417Y1057098D02*
G03X1464000Y1059265I-7102J6849D01*
G01X1464225Y1059576D01*
X1465226Y1061566D01*
G02X1465935Y1063122I2101J-18D01*
G02X1468972Y1063122I1519J-1302D01*
G03X1495120Y1071609I11697J8487D01*
G01X1564026D01*
G03X1590051Y1080290I11565J8681D01*
G01X1983120D01*
G03X1994361Y1075189I16615J21678D01*
G02X1995898Y1072141I-385J-2106D01*
G01Y1062160D01*
X1957641D01*
G03X1952597Y1073137I-14465J0D01*
G03X1945794Y1076371I-8184J-8443D01*
G03X1932628Y1052236I-2688J-14192D01*
G02X1933404Y1048628I-662J-2030D01*
G01X1932218Y1047570D01*
X1931968Y1047259D01*
X1931595Y1046902D01*
X1895949D01*
G03X1895944Y1047259I-13276J-8D01*
G01X1895854Y1048877D01*
X1895810Y1049063D01*
G03X1893082Y1055844I-12555J-1112D01*
G03X1889826Y1059016I-8986J-5966D01*
G03X1881412Y1061691I-7769J-9867D01*
G01Y1061660D01*
X1880849D01*
Y1061722D01*
X1880644D01*
Y1061660D01*
G02X1878134Y1062686I-670J1945D01*
G03X1850343Y1057098I-13334J-5588D01*
G01X1462417D01*
G37*
G36*
X1492222Y1080290D02*
X1561130D01*
G03X1564026Y1071609I14460J0D01*
G01X1495120D01*
G03X1492222Y1080290I-14452J-0D01*
G37*
G36*
X1616003Y759413D02*
G03X1622728Y771630I-7735J12217D01*
G01X1723150D01*
G03X1716453Y759413I7795J-12217D01*
G01X1616003D01*
G37*
G36*
X1713461Y1135835D02*
X1849916D01*
G03X1850122Y1133400I14454J-3D01*
G01X1713667D01*
G03X1713461Y1135835I-14469J2D01*
G37*
G36*
X1742085Y749438D02*
G02X1742444Y750605I2076J0D01*
G01X1743477Y752160D01*
X1743585Y752409D01*
G03X1745455Y758795I-9974J6387D01*
G01X1995899D01*
X1995900Y738351D01*
G02X1993098Y736236I-2104J-126D01*
G03X1982594Y732752I1767J-22905D01*
G01X1982190Y732566D01*
X1978003Y729704D01*
X1977409Y729144D01*
X1977239Y729020D01*
X1974028Y725474D01*
G03X1969480Y716520I21519J-16562D01*
G01X1820348D01*
G03X1817524Y725101I-14451J-1D01*
G03X1815236Y727589I-8636J-5645D01*
G01X1813812Y728647D01*
X1813562Y728771D01*
X1812985Y729144D01*
X1811883Y729704D01*
X1811167Y729953D01*
G03X1808489Y730762I-3817J-7800D01*
G01X1807043Y730948D01*
G02X1804618Y732690I-402J1999D01*
G01X1804389Y734805D01*
X1804181Y735676D01*
G03X1798979Y743700I-13011J-2737D01*
G03X1795766Y745629I-6919J-7884D01*
G01X1795323Y745753D01*
G03X1785004Y745753I-5159J-13199D01*
G03X1781113Y743514I2976J-9673D01*
G03X1777073Y738351I7340J-9905D01*
G01X1776745Y737666D01*
X1776241Y736174D01*
X1776209Y735987D01*
G03X1775566Y732130I11236J-3855D01*
G01X1743161D01*
G03X1744094Y733996I-10982J6657D01*
G03X1745103Y737293I-7273J4029D01*
G03X1744206Y745318I-12392J2677D01*
G01X1744086Y745691D01*
X1742961Y747744D01*
G02X1742085Y749438I1200J1694D01*
G37*
G36*
X1052349Y858100D02*
G01X1077060D01*
G02X1077060Y856100I0J-1000D01*
G01X1052349D01*
G02X1052349Y858100I0J1000D01*
G37*
G36*
X1094744D02*
G01X1099745D01*
G02X1099745Y856100I0J-1000D01*
G01X1094744D01*
G02X1094744Y858100I0J1000D01*
G37*
G36*
G01X1099745D01*
G02X1099745Y856100I0J-1000D01*
G01X1094744D01*
G02X1094744Y858100I0J1000D01*
G37*
G36*
X1052349Y851008D02*
G01X1077061D01*
G02X1077061Y849008I0J-1000D01*
G01X1052349D01*
G02X1052349Y851008I0J1000D01*
G37*
G36*
X1094742D02*
G01X1099746D01*
G02X1099746Y849008I0J-1000D01*
G01X1094742D01*
G02X1094742Y851008I0J1000D01*
G37*
G36*
G01X1099746D01*
G02X1099746Y849008I0J-1000D01*
G01X1094742D01*
G02X1094742Y851008I0J1000D01*
G37*
G36*
X1317445Y976848D02*
G01X1430895D01*
G02X1430895Y974848I0J-1000D01*
G01X1317445D01*
G02X1317445Y976848I0J1000D01*
G37*
G36*
X1052347Y732501D02*
G01X1070397D01*
G02X1070397Y730501I0J-1000D01*
G01X1052347D01*
G02X1052347Y732501I0J1000D01*
G37*
G36*
X1117429Y858100D02*
G01X1247849D01*
G02X1247849Y856100I0J-1000D01*
G01X1117429D01*
G02X1117429Y858100I0J1000D01*
G37*
G36*
X1117427Y851008D02*
G01X1247849D01*
G02X1247849Y849008I0J-1000D01*
G01X1117427D01*
G02X1117427Y851008I0J1000D01*
G37*
G36*
X1346508Y775431D02*
G01X1593063D01*
G02X1593063Y773431I0J-1000D01*
G01X1346508D01*
G02X1346508Y775431I0J1000D01*
G37*
G36*
X1224655Y775426D02*
G01X1284200D01*
G02X1284200Y773426I0J-1000D01*
G01X1224655D01*
G02X1224655Y775426I0J1000D01*
G37*
G36*
X1251804Y1141940D02*
G01X1401077D01*
G02X1401077Y1139940I0J-1000D01*
G01X1251804D01*
G02X1251804Y1141940I0J1000D01*
G37*
G36*
X1431994D02*
G01X1563360D01*
G02X1563360Y1139940I0J-1000D01*
G01X1431994D01*
G02X1431994Y1141940I0J1000D01*
G37*
G36*
X1161525Y982505D02*
G01X1429822D01*
G02X1429822Y980505I0J-1000D01*
G01X1161525D01*
G02X1161525Y982505I0J1000D01*
G37*
G36*
X1460730D02*
G01X1914070D01*
G02X1914070Y980505I0J-1000D01*
G01X1460730D01*
G02X1460730Y982505I0J1000D01*
G37*
G36*
X1496120Y1072609D02*
G01X1562797D01*
G02X1562797Y1070609I0J-1000D01*
G01X1496120D01*
G02X1496120Y1072609I0J1000D01*
G37*
G36*
X1325721Y1068062D02*
G01X1436381D01*
G02X1436381Y1066062I0J-1000D01*
G01X1325721D01*
G02X1325721Y1068062I0J1000D01*
G37*
G36*
X1226685Y661657D02*
G01X1479815D01*
G02X1479815Y659657I0J-1000D01*
G01X1226685D01*
G02X1226685Y661657I0J1000D01*
G37*
G36*
X1536870D02*
G01X1541871D01*
G02X1541871Y659657I0J-1000D01*
G01X1536870D01*
G02X1536870Y661657I0J1000D01*
G37*
G36*
G01X1541871D01*
G02X1541871Y659657I0J-1000D01*
G01X1536870D01*
G02X1536870Y661657I0J1000D01*
G37*
G36*
X1598925D02*
G01X1966065D01*
G02X1966065Y659657I0J-1000D01*
G01X1598925D01*
G02X1598925Y661657I0J1000D01*
G37*
G36*
X1493451Y1081290D02*
G01X1560130D01*
G02X1560130Y1079290I0J-1000D01*
G01X1493451D01*
G02X1493451Y1081290I0J1000D01*
G37*
G36*
X1591051D02*
G01X1981523D01*
G02X1981523Y1079290I0J-1000D01*
G01X1591051D01*
G02X1591051Y1081290I0J1000D01*
G37*
G36*
X1428766Y1132485D02*
G01X1560131D01*
G02X1560131Y1130485I0J-1000D01*
G01X1428766D01*
G02X1428766Y1132485I0J1000D01*
G37*
G36*
X1591049D02*
G01X1645905D01*
G02X1645905Y1130485I0J-1000D01*
G01X1591049D01*
G02X1591049Y1132485I0J1000D01*
G37*
G36*
X1651206D02*
G01X1658643D01*
G02X1658643Y1130485I0J-1000D01*
G01X1651206D01*
G02X1651206Y1132485I0J1000D01*
G37*
G36*
X1346251Y772630D02*
G01X1592807D01*
G02X1592807Y770630I0J-1000D01*
G01X1346251D01*
G02X1346251Y772630I0J1000D01*
G37*
G36*
X1623728D02*
G01X1721419D01*
G02X1721419Y770630I0J-1000D01*
G01X1623728D01*
G02X1623728Y772630I0J1000D01*
G37*
G36*
X1714667Y1134400D02*
G01X1849109D01*
G02X1849109Y1132400I0J-1000D01*
G01X1714667D01*
G02X1714667Y1134400I0J1000D01*
G37*
G36*
X1353250Y1117271D02*
G01X1572848D01*
G02X1572848Y1115271I0J-1000D01*
G01X1353250D01*
G02X1353250Y1117271I0J1000D01*
G37*
G36*
X1578332D02*
G01X1633112D01*
G02X1633112Y1115271I0J-1000D01*
G01X1578332D01*
G02X1578332Y1117271I0J1000D01*
G37*
G36*
X1169154Y721063D02*
G01X1638675D01*
G02X1638675Y719063I0J-1000D01*
G01X1169154D01*
G02X1169154Y721063I0J1000D01*
G37*
G36*
X1669593D02*
G01X1780709D01*
G02X1780709Y719063I0J-1000D01*
G01X1669593D01*
G02X1669593Y721063I0J1000D01*
G37*
G36*
X1239591Y790362D02*
G01X1295751D01*
G02X1295751Y788362I0J-1000D01*
G01X1239591D01*
G02X1239591Y790362I0J1000D01*
G37*
G36*
X1303511D02*
G01X1326902D01*
G02X1326902Y788362I0J-1000D01*
G01X1303511D01*
G02X1303511Y790362I0J1000D01*
G37*
G36*
X1335422D02*
G01X1700291D01*
G02X1700291Y788362I0J-1000D01*
G01X1335422D01*
G02X1335422Y790362I0J1000D01*
G37*
G36*
X1731205D02*
G01X1994898D01*
G02X1994898Y788362I0J-1000D01*
G01X1731205D01*
G02X1731205Y790362I0J1000D01*
G37*
G36*
X1746455Y759795D02*
G01X1994899D01*
G02X1994899Y757795I0J-1000D01*
G01X1746455D01*
G02X1746455Y759795I0J1000D01*
G37*
G36*
X1617741Y760413D02*
G01X1715453D01*
G02X1715453Y758413I0J-1000D01*
G01X1617741D01*
G02X1617741Y760413I0J1000D01*
G37*
G36*
X1789407Y701759D02*
G01X1967358D01*
G02X1967358Y699759I0J-1000D01*
G01X1789407D01*
G02X1789407Y701759I0J1000D01*
G37*
G36*
X1052347Y701852D02*
G01X1743713D01*
G02X1743713Y699852I0J-1000D01*
G01X1052347D01*
G02X1052347Y701852I0J1000D01*
G37*
G36*
X1744316Y733129D02*
G01X1774566D01*
G02X1774566Y731129I0J-1000D01*
G01X1744316D01*
G02X1744316Y733129I0J1000D01*
G37*
G36*
X1821348Y717520D02*
G01X1968439D01*
G02X1968439Y715520I0J-1000D01*
G01X1821348D01*
G02X1821348Y717520I0J1000D01*
G37*
G36*
X1714475Y1136835D02*
G01X1848916D01*
G02X1848916Y1134835I0J-1000D01*
G01X1714475D01*
G02X1714475Y1136835I0J1000D01*
G37*
G36*
X1879824D02*
G01X1909152D01*
G02X1909152Y1134835I0J-1000D01*
G01X1879824D01*
G02X1879824Y1136835I0J1000D01*
G37*
G36*
G01X1909152D01*
G02X1909152Y1134835I0J-1000D01*
G01X1879824D01*
G02X1879824Y1136835I0J1000D01*
G37*
G36*
X1896949Y1047902D02*
G01X1930289D01*
G02X1930289Y1045902I0J-1000D01*
G01X1896949D01*
G02X1896949Y1047902I0J1000D01*
G37*
G36*
X1463751Y1058098D02*
G01X1475359D01*
G02X1475359Y1056098I0J-1000D01*
G01X1463751D01*
G02X1463751Y1058098I0J1000D01*
G37*
G36*
X1485978D02*
G01X1849343D01*
G02X1849343Y1056098I0J-1000D01*
G01X1485978D01*
G02X1485978Y1058098I0J1000D01*
G37*
G36*
X1317439Y949167D02*
G01X1857421D01*
G02X1857421Y947167I0J-1000D01*
G01X1317439D01*
G02X1317439Y949167I0J1000D01*
G37*
G36*
X1910295D02*
G01X1936162D01*
G02X1936162Y947167I0J-1000D01*
G01X1910295D01*
G02X1910295Y949167I0J1000D01*
G37*
G36*
G01X1936162D01*
G02X1936162Y947167I0J-1000D01*
G01X1910295D01*
G02X1910295Y949167I0J1000D01*
G37*
G36*
X1271050Y831165D02*
G01X1857425D01*
G02X1857425Y829165I0J-1000D01*
G01X1271050D01*
G02X1271050Y831165I0J1000D01*
G37*
G36*
X1910291D02*
G01X1936165D01*
G02X1936165Y829165I0J-1000D01*
G01X1910291D01*
G02X1910291Y831165I0J1000D01*
G37*
G36*
G01X1936165D01*
G02X1936165Y829165I0J-1000D01*
G01X1910291D01*
G02X1910291Y831165I0J1000D01*
G37*
G36*
X1532391Y1016002D02*
G01X1906492D01*
G02X1906492Y1014002I0J-1000D01*
G01X1532391D01*
G02X1532391Y1016002I0J1000D01*
G37*
G36*
X1958641Y1063160D02*
G01X1994898D01*
G02X1994898Y1061160I0J-1000D01*
G01X1958641D01*
G02X1958641Y1063160I0J1000D01*
G37*
G36*
X1940061Y1136835D02*
G01X1971295D01*
G02X1971295Y1134835I0J-1000D01*
G01X1940061D01*
G02X1940061Y1136835I0J1000D01*
G37*
G54D10*
X1883858Y835040D03*
X1962598D03*
G54D11*
X1097244Y731497D03*
G54D12*
Y824016D02*
G01Y883071D01*
G54D10*
X1962598Y943308D03*
X1883858D03*
G54D13*
X1078740Y657481D03*
X1198819D03*
G54D14*
X1084646Y988190D03*
Y1066930D03*
Y1027560D03*
Y1106300D03*
Y1145670D03*
G54D15*
X1259449Y918898D03*
G54D14*
X1496063Y657087D02*
X1582677D01*
G54D16*
X1774409Y700788D03*
G54D17*
X1787795Y887402D03*
X1615354Y884646D03*
X1589370Y869292D03*
X1561024Y841733D03*
X1636614Y822441D03*
X1749213Y828741D03*
X1873622Y880552D03*
G54D18*
X1922339D03*
G54D17*
X1968504D03*
G54D19*
X1832228Y874465D03*
G54D20*
X1790157Y716536D03*
G54D17*
X1730906Y720079D03*
X1611811Y801182D03*
X1564961Y766142D03*
X1784252Y818504D03*
X1692913Y828741D03*
G54D19*
X1832622Y795725D03*
X1492465Y796906D03*
X1491677Y876434D03*
X1490890Y947693D03*
X1636559Y943756D03*
X1695614D03*
X1758606D03*
X1967268Y790213D03*
X1920024D03*
X1872780D03*
G54D17*
X1968110Y994725D03*
Y1030158D03*
X1956299Y1160079D03*
X1759449Y1120709D03*
G54D19*
X1939709Y656355D03*
X1837346D03*
X1727110D03*
X1262543Y778402D03*
X1160181D03*
Y896512D03*
X1380654Y1101237D03*
X1290102Y656355D03*
X1404276D03*
G54D16*
X1758661Y700788D03*
G54D17*
X1730906Y739764D03*
X1881496Y1047245D03*
X1943110Y1062205D03*
X1451850Y1067048D03*
X1674016Y1133032D03*
X1299606Y774410D03*
X1648543Y1116260D03*
X1331102Y774410D03*
X1346457Y1102363D03*
X1145669Y1029725D03*
X1314961Y1102363D03*
X1145669Y1066930D03*
X1790157Y732284D03*
X1654134Y720079D03*
X1575591Y1080316D03*
X1864370Y1135827D03*
X1445276Y981497D03*
X1146063Y981890D03*
X1715748Y789371D03*
X1261811Y1082678D03*
X1627559Y1032678D03*
X1922047Y1015355D03*
X1494370Y1031103D03*
X1923307Y993859D03*
X1608268Y771654D03*
X1575591Y1131497D03*
X1416535Y1140945D03*
X1699213Y1133426D03*
X1805906Y716536D03*
X1894488Y1156103D03*
X1924606Y1135827D03*
X1480669Y1071615D03*
X1942323Y1037245D03*
X1864764Y1057087D03*
X1730906Y759449D03*
G54D21*
X1145669Y1029717D02*
X1143512Y1027560D01*
X1084646D01*
X1145669Y1066930D02*
X1084646D01*
X1145669Y982284D02*
X1090551D01*
X1084646Y988190D01*
G54D22*
X1146063Y981890D02*
X1145669Y982284D01*
X1238189Y1106300D02*
X1084646D01*
X1238189D02*
X1261811Y1082678D01*
X1533685Y1032678D02*
X1627559D01*
X1328386Y1016103D02*
X1261811Y1082678D01*
X1328386Y1016103D02*
X1517110D01*
X1533685Y1032678D01*
X1230709Y1145670D02*
X1084646D01*
X1230709D02*
X1345276Y1031103D01*
X1494358D01*
X1259449Y825591D02*
Y918898D01*
Y825591D02*
X1164567Y730709D01*
X1098031D01*
X1097244Y731497D01*
G36*
X1073932Y657398D02*
Y690442D01*
X1083877D01*
Y657398D01*
X1073932D01*
G37*
G36*
X1072007Y652104D02*
Y662371D01*
X1113232D01*
Y652104D01*
X1072007D01*
G37*
%LPC*%
G75*
X1072007Y652104D02*
G54D23*
X1767103Y696700D02*
Y704875D01*
X1765968D02*
Y696700D01*
G54D24*
X1786753Y723050D02*
X1793562D01*
X1793960Y724273D02*
X1786355D01*
X1796672Y719941D02*
Y713131D01*
X1797894Y712734D02*
Y720338D01*
G54D25*
X1499220Y1023428D02*
X1489520D01*
G54D26*
X1043307Y669292D02*
X1043457Y665859D01*
X1043906Y662457D01*
X1044650Y659103D01*
X1045681Y655827D01*
X1046996Y652654D01*
X1048583Y649607D01*
X1050425Y646709D01*
X1052520Y643985D01*
X1054839Y641453D01*
X1057370Y639134D01*
X1060094Y637040D01*
X1062992Y635197D01*
X1066039Y633611D01*
X1069213Y632296D01*
X1072488Y631264D01*
X1075843Y630520D01*
X1079244Y630071D01*
X1082677Y629922D01*
X1937008D01*
X1940441Y630071D01*
X1943843Y630520D01*
X1947197Y631264D01*
X1950472Y632296D01*
X1953646Y633611D01*
X1956693Y635197D01*
X1959591Y637040D01*
X1962315Y639134D01*
X1964846Y641453D01*
X1967165Y643985D01*
X1969260Y646709D01*
X1971102Y649607D01*
X1972689Y652654D01*
X1974004Y655827D01*
X1975035Y659103D01*
X1975780Y662457D01*
X1976228Y665859D01*
X1976378Y669292D01*
Y708662D01*
X1976453Y710379D01*
X1976677Y712079D01*
X1977047Y713756D01*
X1977567Y715394D01*
X1978220Y716981D01*
X1979016Y718504D01*
X1979937Y719953D01*
X1980984Y721316D01*
X1982142Y722583D01*
X1983409Y723741D01*
X1984772Y724788D01*
X1986220Y725709D01*
X1987744Y726504D01*
X1989331Y727158D01*
X1990968Y727678D01*
X1992646Y728048D01*
X1994346Y728272D01*
X1996063Y728347D01*
X1996748Y728379D01*
X1997429Y728465D01*
X1998102Y728615D01*
X1998756Y728823D01*
X1999390Y729083D01*
X2000000Y729402D01*
X2000579Y729772D01*
X2001126Y730190D01*
X2001630Y730654D01*
X2002094Y731158D01*
X2002512Y731705D01*
X2002882Y732284D01*
X2003201Y732894D01*
X2003461Y733528D01*
X2003669Y734182D01*
X2003819Y734855D01*
X2003906Y735536D01*
X2003937Y736221D01*
Y1078741D01*
X2003921Y1079083D01*
X2003878Y1079426D01*
X2003803Y1079760D01*
X2003701Y1080087D01*
X2003567Y1080406D01*
X2003409Y1080709D01*
X2003224Y1081001D01*
X2003016Y1081272D01*
X2002783Y1081524D01*
X2002531Y1081756D01*
X2002260Y1081965D01*
X2001968Y1082150D01*
X2001665Y1082308D01*
X2001346Y1082441D01*
X2001020Y1082544D01*
X2000685Y1082619D01*
X2000343Y1082662D01*
X2000000Y1082678D01*
X1998283Y1082753D01*
X1996583Y1082977D01*
X1994906Y1083347D01*
X1993268Y1083867D01*
X1991681Y1084520D01*
X1990157Y1085316D01*
X1988709Y1086237D01*
X1987346Y1087284D01*
X1986079Y1088441D01*
X1984921Y1089709D01*
X1983874Y1091071D01*
X1982953Y1092520D01*
X1982157Y1094044D01*
X1981504Y1095630D01*
X1980984Y1097268D01*
X1980614Y1098945D01*
X1980390Y1100646D01*
X1980315Y1102363D01*
Y1141733D01*
X1980165Y1145166D01*
X1979717Y1148567D01*
X1978972Y1151922D01*
X1977941Y1155197D01*
X1976626Y1158371D01*
X1975039Y1161418D01*
X1973197Y1164316D01*
X1971102Y1167040D01*
X1968783Y1169571D01*
X1966252Y1171890D01*
X1963528Y1173985D01*
X1960630Y1175827D01*
X1957583Y1177414D01*
X1954409Y1178729D01*
X1951134Y1179760D01*
X1947780Y1180504D01*
X1944378Y1180953D01*
X1940945Y1181103D01*
X1082677D01*
X1079244Y1180953D01*
X1075843Y1180504D01*
X1072488Y1179760D01*
X1069213Y1178729D01*
X1066039Y1177414D01*
X1062992Y1175827D01*
X1060094Y1173985D01*
X1057370Y1171890D01*
X1054839Y1169571D01*
X1052520Y1167040D01*
X1050425Y1164316D01*
X1048583Y1161418D01*
X1046996Y1158371D01*
X1045681Y1155197D01*
X1044650Y1151922D01*
X1043906Y1148567D01*
X1043457Y1145166D01*
X1043307Y1141733D01*
Y669292D01*
X1036027Y629922D02*
X2007574D01*
X2003937Y616410D02*
Y1172593D01*
X1995417Y1181103D02*
X1044131D01*
X1043307Y1182724D02*
Y632619D01*
G54D27*
X1163803Y1189752D03*
X1197268D03*
X1230732D03*
X1264197D03*
X1297661D03*
X1708986D03*
X1742450D03*
X1775915D03*
X1809379D03*
X1842844D03*
X1163803Y621341D03*
X1197268D03*
X1230732D03*
X1264197D03*
X1297661D03*
X1708986D03*
X1742450D03*
X1775915D03*
X1809379D03*
X1842844D03*
%LPD*%
G75*
X1842844Y621341D02*
G36*
X32937Y-196850D02*
Y-107740D01*
X169852D01*
G02X171104Y-113466I0J-3000D01*
G03X171104Y-240864I29684J-63699D01*
G02X169852Y-246590I-1252J-2726D01*
G01X82677D01*
G02X32937Y-196850I0J49740D01*
G37*
G36*
Y1377953D02*
G02X82677Y1427693I49740J0D01*
G01X366702D01*
G02X367954Y1421967I0J-3000D01*
G03X367954Y1294569I29684J-63699D01*
G02X366702Y1288843I-1252J-2726D01*
G01X32937D01*
Y1377953D01*
G37*
G36*
X230471Y-240864D02*
G03X230471Y-113466I-29684J63699D01*
G02X231723Y-107740I1252J2726D01*
G01X335442D01*
G02X337501Y-112930I8J-3000D01*
G03X337501Y-241400I60137J-64235D01*
G02X335442Y-246590I-2050J-2190D01*
G01X231723D01*
G02X230471Y-240864I0J3000D01*
G37*
G36*
X427321Y1294569D02*
G03X427321Y1421967I-29684J63699D01*
G02X428573Y1427693I1252J2726D01*
G01X532293D01*
G02X534351Y1422503I8J-3000D01*
G03X534351Y1294033I60137J-64235D01*
G02X532293Y1288843I-2050J-2190D01*
G01X428573D01*
G02X427321Y1294569I0J3000D01*
G37*
G36*
X457775Y-112930D02*
G02X459833Y-107740I2050J2190D01*
G01X952567D01*
Y-246590D01*
X459833D01*
G02X457775Y-241400I-8J3000D01*
G03X457775Y-112930I-60137J64235D01*
G37*
G36*
X654625Y1422503D02*
G02X656684Y1427693I2050J2190D01*
G01X952567D01*
Y1288843D01*
X656684D01*
G02X654625Y1294033I-8J3000D01*
G03X654625Y1422503I-60137J64235D01*
G37*
G36*
X976567Y-107740D02*
G01X1031307D01*
Y-246590D01*
X976567D01*
Y-107740D01*
G37*
G36*
Y1427693D02*
X1031307D01*
Y1288843D01*
X976567D01*
Y1427693D01*
G37*
G36*
X1055307Y-107740D02*
X1548041D01*
G02X1550099Y-112930I8J-3000D01*
G03X1550099Y-241400I60137J-64235D01*
G02X1548041Y-246590I-2050J-2190D01*
G01X1055307D01*
Y-107740D01*
G37*
G36*
Y1427693D02*
X1548041D01*
G02X1550099Y1422503I8J-3000D01*
G03X1550099Y1294033I60137J-64235D01*
G02X1548041Y1288843I-2050J-2190D01*
G01X1055307D01*
Y1427693D01*
G37*
G36*
X1670373Y-112930D02*
G02X1672432Y-107740I2050J2190D01*
G01X1776151D01*
G02X1777403Y-113466I0J-3000D01*
G03X1777403Y-240864I29684J-63699D01*
G02X1776151Y-246590I-1252J-2726D01*
G01X1672432D01*
G02X1670373Y-241400I-8J3000D01*
G03X1670373Y-112930I-60137J64235D01*
G37*
G36*
Y1422503D02*
G02X1672432Y1427693I2050J2190D01*
G01X1776151D01*
G02X1777403Y1421967I0J-3000D01*
G03X1777403Y1294569I29684J-63699D01*
G02X1776151Y1288843I-1252J-2726D01*
G01X1672432D01*
G02X1670373Y1294033I-8J3000D01*
G03X1670373Y1422503I-60137J64235D01*
G37*
G36*
X1836770Y-240864D02*
G03X1836770Y-113466I-29684J63699D01*
G02X1838022Y-107740I1252J2726D01*
G01X1974937D01*
Y-196850D01*
G02X1925197Y-246590I-49740J0D01*
G01X1838022D01*
G02X1836770Y-240864I0J3000D01*
G37*
G36*
Y1294569D02*
G03X1836770Y1421967I-29684J63699D01*
G02X1838022Y1427693I1252J2726D01*
G01X1925197D01*
G02X1974937Y1377953I0J-49740D01*
G01Y1288843D01*
X1838022D01*
G02X1836770Y1294569I0J3000D01*
G37*
G54D28*
X397638Y-177165D03*
X1610236D03*
Y1358268D03*
X594488D03*
G54D26*
X342520Y-177165D02*
G01X343389Y-187593D01*
X346333Y-197647D01*
X351122Y-206963D01*
X357583Y-215209D01*
X365485Y-222086D01*
X374543Y-227348D01*
X384432Y-230805D01*
X394795Y-232334D01*
X405261Y-231878D01*
X415453Y-229456D01*
X425004Y-225152D01*
X433571Y-219124D01*
X440845Y-211586D01*
X446566Y-202811D01*
X450528Y-193113D01*
X452588Y-182842D01*
X452756Y-177165D01*
X451887Y-166736D01*
X448943Y-156683D01*
X444154Y-147366D01*
X437692Y-139121D01*
X429790Y-132243D01*
X420732Y-126982D01*
X410844Y-123524D01*
X400480Y-121996D01*
X390014Y-122451D01*
X379823Y-124874D01*
X370272Y-129177D01*
X361705Y-135206D01*
X354430Y-142744D01*
X348709Y-151519D01*
X344748Y-161217D01*
X342688Y-171488D01*
X342520Y-177165D01*
X1555118D02*
X1555987Y-187593D01*
X1558931Y-197647D01*
X1563720Y-206963D01*
X1570182Y-215209D01*
X1578084Y-222086D01*
X1587142Y-227348D01*
X1597030Y-230805D01*
X1607394Y-232334D01*
X1617860Y-231878D01*
X1628051Y-229456D01*
X1637602Y-225152D01*
X1646169Y-219124D01*
X1653444Y-211586D01*
X1659165Y-202811D01*
X1663126Y-193113D01*
X1665186Y-182842D01*
X1665354Y-177165D01*
X1664485Y-166736D01*
X1661541Y-156683D01*
X1656752Y-147366D01*
X1650291Y-139121D01*
X1642389Y-132243D01*
X1633331Y-126982D01*
X1623442Y-123524D01*
X1613079Y-121996D01*
X1602613Y-122451D01*
X1592421Y-124874D01*
X1582870Y-129177D01*
X1574303Y-135206D01*
X1567029Y-142744D01*
X1561308Y-151519D01*
X1557346Y-161217D01*
X1555286Y-171488D01*
X1555118Y-177165D01*
Y1358268D02*
X1555987Y1347840D01*
X1558931Y1337786D01*
X1563720Y1328470D01*
X1570182Y1320224D01*
X1578084Y1313347D01*
X1587142Y1308085D01*
X1597030Y1304628D01*
X1607394Y1303099D01*
X1617860Y1303555D01*
X1628051Y1305977D01*
X1637602Y1310281D01*
X1646169Y1316309D01*
X1653444Y1323847D01*
X1659165Y1332622D01*
X1663126Y1342320D01*
X1665186Y1352591D01*
X1665354Y1358268D01*
X1664485Y1368697D01*
X1661541Y1378750D01*
X1656752Y1388067D01*
X1650291Y1396312D01*
X1642389Y1403190D01*
X1633331Y1408452D01*
X1623442Y1411909D01*
X1613079Y1413437D01*
X1602613Y1412982D01*
X1592421Y1410559D01*
X1582870Y1406256D01*
X1574303Y1400227D01*
X1567029Y1392690D01*
X1561308Y1383914D01*
X1557346Y1374216D01*
X1555286Y1363945D01*
X1555118Y1358268D01*
X539370D02*
X540239Y1347840D01*
X543183Y1337786D01*
X547972Y1328470D01*
X554434Y1320224D01*
X562336Y1313347D01*
X571394Y1308085D01*
X581282Y1304628D01*
X591646Y1303099D01*
X602112Y1303555D01*
X612303Y1305977D01*
X621854Y1310281D01*
X630421Y1316309D01*
X637696Y1323847D01*
X643417Y1332622D01*
X647378Y1342320D01*
X649438Y1352591D01*
X649606Y1358268D01*
X648737Y1368697D01*
X645793Y1378750D01*
X641004Y1388067D01*
X634543Y1396312D01*
X626641Y1403190D01*
X617583Y1408452D01*
X607694Y1411909D01*
X597331Y1413437D01*
X586865Y1412982D01*
X576673Y1410559D01*
X567122Y1406256D01*
X558555Y1400227D01*
X551281Y1392690D01*
X545560Y1383914D01*
X541598Y1374216D01*
X539538Y1363945D01*
X539370Y1358268D01*
M02*
