*
%FSLAX26Y26*%
%MOIN*%
%ADD10C,0.006150*%
%ADD11C,0.005000*%
%ADD12C,0.041350*%
%ADD13C,0.050850*%
%ADD14R,0.051350X0.051350*%
%ADD15C,0.001500*%
%ADD16C,0.053100*%
%ADD17R,0.040600X0.040600*%
%ADD18C,0.004000*%
%ADD19R,0.109100X0.109100*%
%ADD20R,0.039850X0.039850*%
%ADD21C,0.005500*%
%ADD22C,0.014006*%
%IPPOS*%
%LNgbo.gbr*%
%LPD*%
G75*
G54D10*
X107776Y536615D02*
X913484D01*
X913921Y536607D01*
X914354Y536583D01*
X914791Y536548D01*
X915224Y536493D01*
X915654Y536426D01*
X916083Y536343D01*
X916508Y536245D01*
X916929Y536130D01*
X917346Y536004D01*
X917760Y535863D01*
X918165Y535705D01*
X918567Y535536D01*
X918965Y535351D01*
X919354Y535150D01*
X919736Y534941D01*
X920106Y534717D01*
X920472Y534477D01*
X920831Y534229D01*
X921181Y533965D01*
X921520Y533690D01*
X921846Y533402D01*
X922169Y533107D01*
X922476Y532800D01*
X922772Y532477D01*
X923059Y532150D01*
X923335Y531812D01*
X923598Y531461D01*
X923846Y531103D01*
X924087Y530737D01*
X924311Y530367D01*
X924520Y529985D01*
X924720Y529595D01*
X924906Y529197D01*
X925075Y528796D01*
X925232Y528390D01*
X925374Y527977D01*
X925500Y527560D01*
X925614Y527138D01*
X925713Y526713D01*
X925795Y526284D01*
X925862Y525855D01*
X925917Y525422D01*
X925953Y524985D01*
X925976Y524552D01*
X925984Y524115D01*
Y72737D01*
X925976Y72300D01*
X925953Y71867D01*
X925917Y71430D01*
X925862Y70997D01*
X925795Y70567D01*
X925713Y70138D01*
X925614Y69713D01*
X925500Y69292D01*
X925374Y68875D01*
X925232Y68461D01*
X925075Y68056D01*
X924906Y67654D01*
X924720Y67256D01*
X924520Y66867D01*
X924311Y66485D01*
X924087Y66115D01*
X923846Y65749D01*
X923598Y65390D01*
X923335Y65040D01*
X923059Y64701D01*
X922772Y64375D01*
X922476Y64052D01*
X922169Y63745D01*
X921846Y63449D01*
X921520Y63162D01*
X921181Y62886D01*
X920831Y62623D01*
X920472Y62375D01*
X920106Y62134D01*
X919732Y61910D01*
X919354Y61701D01*
X918965Y61501D01*
X918567Y61316D01*
X918165Y61146D01*
X917760Y60989D01*
X917346Y60847D01*
X916929Y60721D01*
X916508Y60607D01*
X916083Y60508D01*
X915654Y60426D01*
X915224Y60359D01*
X914791Y60304D01*
X914354Y60268D01*
X913921Y60245D01*
X913484Y60237D01*
X36220D01*
X16535Y79922D02*
Y119292D01*
X16543Y119843D01*
X16567Y120394D01*
X16606Y120945D01*
X16657Y121497D01*
X16728Y122044D01*
X16815Y122591D01*
X16913Y123130D01*
X17028Y123674D01*
X17157Y124209D01*
X17303Y124741D01*
X17465Y125268D01*
X17642Y125792D01*
X17831Y126312D01*
X18035Y126823D01*
X18252Y127331D01*
X18484Y127831D01*
X18732Y128327D01*
X18992Y128816D01*
X19264Y129292D01*
X19551Y129764D01*
X19854Y130229D01*
X20165Y130682D01*
X20492Y131130D01*
X20831Y131564D01*
X21181Y131993D01*
X21543Y132410D01*
X21917Y132816D01*
X22299Y133213D01*
X22697Y133595D01*
X23102Y133969D01*
X23520Y134331D01*
X23949Y134682D01*
X24382Y135020D01*
X24831Y135347D01*
X25283Y135658D01*
X25748Y135961D01*
X26220Y136249D01*
X26697Y136520D01*
X27185Y136780D01*
X27681Y137028D01*
X28181Y137260D01*
X28689Y137477D01*
X29201Y137682D01*
X29720Y137871D01*
X30244Y138048D01*
X30772Y138209D01*
X31303Y138355D01*
X31839Y138485D01*
X32382Y138599D01*
X32921Y138697D01*
X33468Y138784D01*
X34016Y138855D01*
X34567Y138906D01*
X35118Y138945D01*
X35669Y138969D01*
X36220Y138977D01*
X75591D01*
X76142Y138985D01*
X76693Y139008D01*
X77244Y139048D01*
X77795Y139099D01*
X78343Y139170D01*
X78890Y139256D01*
X79429Y139355D01*
X79972Y139469D01*
X80508Y139599D01*
X81039Y139745D01*
X81567Y139906D01*
X82091Y140083D01*
X82610Y140272D01*
X83122Y140477D01*
X83630Y140693D01*
X84130Y140926D01*
X84626Y141174D01*
X85114Y141434D01*
X85591Y141705D01*
X86063Y141993D01*
X86528Y142296D01*
X86980Y142607D01*
X87429Y142934D01*
X87862Y143272D01*
X88291Y143623D01*
X88709Y143985D01*
X89114Y144359D01*
X89512Y144741D01*
X89894Y145138D01*
X90268Y145544D01*
X90630Y145961D01*
X90980Y146390D01*
X91319Y146823D01*
X91646Y147272D01*
X91957Y147725D01*
X92260Y148190D01*
X92547Y148662D01*
X92819Y149138D01*
X93079Y149627D01*
X93327Y150123D01*
X93559Y150623D01*
X93776Y151130D01*
X93980Y151642D01*
X94169Y152162D01*
X94346Y152686D01*
X94508Y153213D01*
X94654Y153745D01*
X94783Y154280D01*
X94898Y154823D01*
X94996Y155363D01*
X95083Y155910D01*
X95154Y156457D01*
X95205Y157008D01*
X95244Y157560D01*
X95268Y158111D01*
X95276Y158662D01*
Y524115D01*
X95283Y524552D01*
X95307Y524985D01*
X95343Y525422D01*
X95398Y525855D01*
X95465Y526284D01*
X95547Y526713D01*
X95646Y527138D01*
X95760Y527560D01*
X95886Y527977D01*
X96028Y528390D01*
X96185Y528796D01*
X96354Y529197D01*
X96539Y529595D01*
X96740Y529985D01*
X96949Y530367D01*
X97173Y530737D01*
X97413Y531103D01*
X97661Y531461D01*
X97925Y531812D01*
X98201Y532150D01*
X98488Y532477D01*
X98783Y532800D01*
X99091Y533107D01*
X99413Y533402D01*
X99740Y533690D01*
X100079Y533965D01*
X100429Y534229D01*
X100787Y534477D01*
X101154Y534717D01*
X101528Y534941D01*
X101906Y535150D01*
X102295Y535351D01*
X102693Y535536D01*
X103094Y535705D01*
X103500Y535863D01*
X103913Y536004D01*
X104331Y536130D01*
X104752Y536245D01*
X105177Y536343D01*
X105606Y536426D01*
X106035Y536493D01*
X106468Y536548D01*
X106906Y536583D01*
X107339Y536607D01*
X107776Y536615D01*
X16535Y79922D02*
X16543Y79371D01*
X16567Y78819D01*
X16606Y78268D01*
X16657Y77717D01*
X16728Y77170D01*
X16815Y76623D01*
X16913Y76083D01*
X17028Y75540D01*
X17157Y75004D01*
X17303Y74473D01*
X17465Y73945D01*
X17642Y73422D01*
X17831Y72902D01*
X18035Y72390D01*
X18252Y71882D01*
X18484Y71382D01*
X18732Y70886D01*
X18992Y70398D01*
X19264Y69922D01*
X19551Y69449D01*
X19854Y68985D01*
X20165Y68532D01*
X20492Y68083D01*
X20831Y67650D01*
X21181Y67221D01*
X21543Y66804D01*
X21917Y66398D01*
X22299Y66001D01*
X22697Y65619D01*
X23102Y65245D01*
X23520Y64882D01*
X23949Y64532D01*
X24382Y64193D01*
X24831Y63867D01*
X25283Y63556D01*
X25748Y63253D01*
X26220Y62965D01*
X26697Y62693D01*
X27185Y62434D01*
X27681Y62186D01*
X28181Y61953D01*
X28689Y61737D01*
X29201Y61532D01*
X29720Y61343D01*
X30244Y61166D01*
X30772Y61004D01*
X31303Y60859D01*
X31839Y60729D01*
X32382Y60615D01*
X32921Y60516D01*
X33468Y60430D01*
X34016Y60359D01*
X34567Y60308D01*
X35118Y60268D01*
X35669Y60245D01*
X36220Y60237D01*
G54D11*
X909843Y52756D02*
Y525197D01*
X83071D01*
Y52756D01*
X398031D01*
X594882D01*
X909843D01*
X594882D02*
Y92127D01*
X398031D01*
Y52756D01*
%LPC*%
G75*
X398031Y52756D02*
G54D12*
X844488Y205119D03*
X923228D03*
G54D13*
X57874Y101575D03*
G54D14*
Y193372D02*
Y253873D01*
G54D15*
X32199Y168447D02*
Y278798D01*
X83549Y168447D02*
Y278798D01*
G54D12*
X923228Y313386D03*
X844488D03*
G54D16*
X39370Y27560D03*
X159449D03*
G54D17*
X43276Y358268D02*
X47276D01*
G54D18*
X24976Y378568D02*
X65576D01*
X24976Y337968D02*
X65576D01*
G54D17*
X43276Y437008D02*
X47276D01*
G54D18*
X24976Y457308D02*
X65576D01*
X24976Y416708D02*
X65576D01*
G54D17*
X43276Y397638D02*
X47276D01*
G54D18*
X24976Y417938D02*
X65576D01*
X24976Y377338D02*
X65576D01*
G54D17*
X43276Y476379D02*
X47276D01*
G54D18*
X24976Y496679D02*
X65576D01*
X24976Y456079D02*
X65576D01*
G54D17*
X43276Y515749D02*
X47276D01*
G54D18*
X24976Y536049D02*
X65576D01*
X24976Y495449D02*
X65576D01*
G54D19*
X218079Y288977D02*
X222079D01*
G54D18*
X165529Y343527D02*
X274629D01*
X165529Y234427D02*
X274629D01*
G54D20*
X454000Y27166D02*
X546000D01*
G54D21*
X436825Y47091D02*
X563175D01*
X436825Y7241D02*
X563175D01*
G54D22*
X3937Y39371D02*
X4087Y35938D01*
X4535Y32536D01*
X5280Y29182D01*
X6311Y25906D01*
X7626Y22733D01*
X9213Y19686D01*
X11055Y16788D01*
X13150Y14064D01*
X15468Y11532D01*
X18000Y9213D01*
X20724Y7119D01*
X23622Y5276D01*
X26669Y3690D01*
X29843Y2375D01*
X33118Y1343D01*
X36472Y599D01*
X39874Y150D01*
X43307Y1D01*
X897638D01*
X901071Y150D01*
X904472Y599D01*
X907827Y1343D01*
X911102Y2375D01*
X914276Y3690D01*
X917323Y5276D01*
X920220Y7119D01*
X922945Y9213D01*
X925476Y11532D01*
X927795Y14064D01*
X929890Y16788D01*
X931732Y19686D01*
X933319Y22733D01*
X934634Y25906D01*
X935665Y29182D01*
X936409Y32536D01*
X936858Y35938D01*
X937008Y39371D01*
Y78741D01*
X937083Y80457D01*
X937307Y82158D01*
X937677Y83835D01*
X938197Y85473D01*
X938850Y87060D01*
X939646Y88583D01*
X940567Y90032D01*
X941614Y91394D01*
X942772Y92662D01*
X944039Y93819D01*
X945402Y94867D01*
X946850Y95788D01*
X948374Y96583D01*
X949961Y97237D01*
X951598Y97756D01*
X953276Y98127D01*
X954976Y98351D01*
X956693Y98426D01*
X957378Y98457D01*
X958059Y98544D01*
X958732Y98693D01*
X959386Y98902D01*
X960020Y99162D01*
X960630Y99481D01*
X961209Y99851D01*
X961756Y100268D01*
X962260Y100733D01*
X962724Y101237D01*
X963142Y101784D01*
X963512Y102363D01*
X963831Y102973D01*
X964091Y103607D01*
X964299Y104260D01*
X964449Y104934D01*
X964535Y105615D01*
X964567Y106300D01*
Y448819D01*
X964551Y449162D01*
X964508Y449504D01*
X964433Y449839D01*
X964331Y450166D01*
X964197Y450485D01*
X964039Y450788D01*
X963854Y451079D01*
X963646Y451351D01*
X963413Y451603D01*
X963161Y451835D01*
X962890Y452044D01*
X962598Y452229D01*
X962295Y452386D01*
X961976Y452520D01*
X961650Y452623D01*
X961315Y452697D01*
X960972Y452741D01*
X960630Y452756D01*
X958913Y452831D01*
X957213Y453056D01*
X955535Y453426D01*
X953898Y453945D01*
X952311Y454599D01*
X950787Y455394D01*
X949339Y456316D01*
X947976Y457363D01*
X946709Y458520D01*
X945551Y459788D01*
X944504Y461150D01*
X943583Y462599D01*
X942787Y464123D01*
X942134Y465709D01*
X941614Y467347D01*
X941244Y469024D01*
X941020Y470725D01*
X940945Y472441D01*
Y511812D01*
X940795Y515245D01*
X940346Y518646D01*
X939602Y522001D01*
X938571Y525276D01*
X937256Y528449D01*
X935669Y531497D01*
X933827Y534394D01*
X931732Y537119D01*
X929413Y539650D01*
X926882Y541969D01*
X924157Y544064D01*
X921260Y545906D01*
X918213Y547493D01*
X915039Y548808D01*
X911764Y549839D01*
X908409Y550583D01*
X905008Y551032D01*
X901575Y551182D01*
X43307D01*
X39874Y551032D01*
X36472Y550583D01*
X33118Y549839D01*
X29843Y548808D01*
X26669Y547493D01*
X23622Y545906D01*
X20724Y544064D01*
X18000Y541969D01*
X15468Y539650D01*
X13150Y537119D01*
X11055Y534394D01*
X9213Y531497D01*
X7626Y528449D01*
X6311Y525276D01*
X5280Y522001D01*
X4535Y518646D01*
X4087Y515245D01*
X3937Y511812D01*
Y39371D01*
%LPD*%
G75*
X3937Y39371D02*
G54D10*
X107776Y1166536D02*
X913484D01*
X913921Y1166528D01*
X914354Y1166504D01*
X914791Y1166469D01*
X915224Y1166414D01*
X915654Y1166347D01*
X916083Y1166264D01*
X916508Y1166166D01*
X916929Y1166052D01*
X917346Y1165926D01*
X917760Y1165784D01*
X918165Y1165627D01*
X918567Y1165457D01*
X918965Y1165272D01*
X919354Y1165071D01*
X919736Y1164863D01*
X920106Y1164638D01*
X920472Y1164398D01*
X920831Y1164150D01*
X921181Y1163886D01*
X921520Y1163611D01*
X921846Y1163323D01*
X922169Y1163028D01*
X922476Y1162721D01*
X922772Y1162398D01*
X923059Y1162071D01*
X923335Y1161733D01*
X923598Y1161382D01*
X923846Y1161024D01*
X924087Y1160658D01*
X924311Y1160288D01*
X924520Y1159906D01*
X924720Y1159516D01*
X924906Y1159119D01*
X925075Y1158717D01*
X925232Y1158312D01*
X925374Y1157898D01*
X925500Y1157481D01*
X925614Y1157060D01*
X925713Y1156634D01*
X925795Y1156205D01*
X925862Y1155776D01*
X925917Y1155343D01*
X925953Y1154906D01*
X925976Y1154473D01*
X925984Y1154036D01*
Y702658D01*
X925976Y702221D01*
X925953Y701788D01*
X925917Y701351D01*
X925862Y700918D01*
X925795Y700489D01*
X925713Y700060D01*
X925614Y699634D01*
X925500Y699213D01*
X925374Y698796D01*
X925232Y698382D01*
X925075Y697977D01*
X924906Y697575D01*
X924720Y697178D01*
X924520Y696788D01*
X924311Y696406D01*
X924087Y696036D01*
X923846Y695670D01*
X923598Y695312D01*
X923335Y694961D01*
X923059Y694623D01*
X922772Y694296D01*
X922476Y693973D01*
X922169Y693666D01*
X921846Y693371D01*
X921520Y693083D01*
X921181Y692808D01*
X920831Y692544D01*
X920472Y692296D01*
X920106Y692056D01*
X919732Y691831D01*
X919354Y691623D01*
X918965Y691422D01*
X918567Y691237D01*
X918165Y691067D01*
X917760Y690910D01*
X917346Y690768D01*
X916929Y690642D01*
X916508Y690528D01*
X916083Y690430D01*
X915654Y690347D01*
X915224Y690280D01*
X914791Y690225D01*
X914354Y690190D01*
X913921Y690166D01*
X913484Y690158D01*
X36220D01*
X16535Y709843D02*
Y749213D01*
X16543Y749764D01*
X16567Y750316D01*
X16606Y750867D01*
X16657Y751418D01*
X16728Y751965D01*
X16815Y752512D01*
X16913Y753052D01*
X17028Y753595D01*
X17157Y754130D01*
X17303Y754662D01*
X17465Y755190D01*
X17642Y755713D01*
X17831Y756233D01*
X18035Y756745D01*
X18252Y757253D01*
X18484Y757753D01*
X18732Y758249D01*
X18992Y758737D01*
X19264Y759213D01*
X19551Y759686D01*
X19854Y760150D01*
X20165Y760603D01*
X20492Y761052D01*
X20831Y761485D01*
X21181Y761914D01*
X21543Y762331D01*
X21917Y762737D01*
X22299Y763134D01*
X22697Y763516D01*
X23102Y763890D01*
X23520Y764253D01*
X23949Y764603D01*
X24382Y764941D01*
X24831Y765268D01*
X25283Y765579D01*
X25748Y765882D01*
X26220Y766170D01*
X26697Y766441D01*
X27185Y766701D01*
X27681Y766949D01*
X28181Y767182D01*
X28689Y767398D01*
X29201Y767603D01*
X29720Y767792D01*
X30244Y767969D01*
X30772Y768130D01*
X31303Y768276D01*
X31839Y768406D01*
X32382Y768520D01*
X32921Y768619D01*
X33468Y768705D01*
X34016Y768776D01*
X34567Y768827D01*
X35118Y768867D01*
X35669Y768890D01*
X36220Y768898D01*
X75591D01*
X76142Y768906D01*
X76693Y768930D01*
X77244Y768969D01*
X77795Y769020D01*
X78343Y769091D01*
X78890Y769178D01*
X79429Y769276D01*
X79972Y769390D01*
X80508Y769520D01*
X81039Y769666D01*
X81567Y769827D01*
X82091Y770004D01*
X82610Y770193D01*
X83122Y770398D01*
X83630Y770615D01*
X84130Y770847D01*
X84626Y771095D01*
X85114Y771355D01*
X85591Y771627D01*
X86063Y771914D01*
X86528Y772217D01*
X86980Y772528D01*
X87429Y772855D01*
X87862Y773193D01*
X88291Y773544D01*
X88709Y773906D01*
X89114Y774280D01*
X89512Y774662D01*
X89894Y775060D01*
X90268Y775465D01*
X90630Y775882D01*
X90980Y776312D01*
X91319Y776745D01*
X91646Y777193D01*
X91957Y777646D01*
X92260Y778111D01*
X92547Y778583D01*
X92819Y779060D01*
X93079Y779548D01*
X93327Y780044D01*
X93559Y780544D01*
X93776Y781052D01*
X93980Y781564D01*
X94169Y782083D01*
X94346Y782607D01*
X94508Y783134D01*
X94654Y783666D01*
X94783Y784201D01*
X94898Y784745D01*
X94996Y785284D01*
X95083Y785831D01*
X95154Y786379D01*
X95205Y786930D01*
X95244Y787481D01*
X95268Y788032D01*
X95276Y788583D01*
Y1154036D01*
X95283Y1154473D01*
X95307Y1154906D01*
X95343Y1155343D01*
X95398Y1155776D01*
X95465Y1156205D01*
X95547Y1156634D01*
X95646Y1157060D01*
X95760Y1157481D01*
X95886Y1157898D01*
X96028Y1158312D01*
X96185Y1158717D01*
X96354Y1159119D01*
X96539Y1159516D01*
X96740Y1159906D01*
X96949Y1160288D01*
X97173Y1160658D01*
X97413Y1161024D01*
X97661Y1161382D01*
X97925Y1161733D01*
X98201Y1162071D01*
X98488Y1162398D01*
X98783Y1162721D01*
X99091Y1163028D01*
X99413Y1163323D01*
X99740Y1163611D01*
X100079Y1163886D01*
X100429Y1164150D01*
X100787Y1164398D01*
X101154Y1164638D01*
X101528Y1164863D01*
X101906Y1165071D01*
X102295Y1165272D01*
X102693Y1165457D01*
X103094Y1165627D01*
X103500Y1165784D01*
X103913Y1165926D01*
X104331Y1166052D01*
X104752Y1166166D01*
X105177Y1166264D01*
X105606Y1166347D01*
X106035Y1166414D01*
X106468Y1166469D01*
X106906Y1166504D01*
X107339Y1166528D01*
X107776Y1166536D01*
X16535Y709843D02*
X16543Y709292D01*
X16567Y708741D01*
X16606Y708190D01*
X16657Y707638D01*
X16728Y707091D01*
X16815Y706544D01*
X16913Y706004D01*
X17028Y705461D01*
X17157Y704926D01*
X17303Y704394D01*
X17465Y703867D01*
X17642Y703343D01*
X17831Y702823D01*
X18035Y702312D01*
X18252Y701804D01*
X18484Y701304D01*
X18732Y700808D01*
X18992Y700319D01*
X19264Y699843D01*
X19551Y699371D01*
X19854Y698906D01*
X20165Y698453D01*
X20492Y698004D01*
X20831Y697571D01*
X21181Y697142D01*
X21543Y696725D01*
X21917Y696319D01*
X22299Y695922D01*
X22697Y695540D01*
X23102Y695166D01*
X23520Y694804D01*
X23949Y694453D01*
X24382Y694115D01*
X24831Y693788D01*
X25283Y693477D01*
X25748Y693174D01*
X26220Y692886D01*
X26697Y692615D01*
X27185Y692355D01*
X27681Y692107D01*
X28181Y691875D01*
X28689Y691658D01*
X29201Y691453D01*
X29720Y691264D01*
X30244Y691087D01*
X30772Y690926D01*
X31303Y690780D01*
X31839Y690650D01*
X32382Y690536D01*
X32921Y690438D01*
X33468Y690351D01*
X34016Y690280D01*
X34567Y690229D01*
X35118Y690190D01*
X35669Y690166D01*
X36220Y690158D01*
G54D11*
X909843Y682678D02*
Y1155119D01*
X83071D01*
Y682678D01*
X398031D01*
X594882D01*
X909843D01*
X594882D02*
Y722048D01*
X398031D01*
Y682678D01*
%LPC*%
G75*
X398031Y682678D02*
G54D12*
X844488Y835040D03*
X923228D03*
G54D13*
X57874Y731497D03*
G54D14*
Y823294D02*
Y883794D01*
G54D15*
X32199Y798369D02*
Y908719D01*
X83549Y798369D02*
Y908719D01*
G54D12*
X923228Y943308D03*
X844488D03*
G54D16*
X39370Y657481D03*
X159449D03*
G54D17*
X43276Y988190D02*
X47276D01*
G54D18*
X24976Y1008490D02*
X65576D01*
X24976Y967890D02*
X65576D01*
G54D17*
X43276Y1066930D02*
X47276D01*
G54D18*
X24976Y1087230D02*
X65576D01*
X24976Y1046630D02*
X65576D01*
G54D17*
X43276Y1027560D02*
X47276D01*
G54D18*
X24976Y1047860D02*
X65576D01*
X24976Y1007260D02*
X65576D01*
G54D17*
X43276Y1106300D02*
X47276D01*
G54D18*
X24976Y1126600D02*
X65576D01*
X24976Y1086000D02*
X65576D01*
G54D17*
X43276Y1145670D02*
X47276D01*
G54D18*
X24976Y1165970D02*
X65576D01*
X24976Y1125370D02*
X65576D01*
G54D19*
X218079Y918898D02*
X222079D01*
G54D18*
X165529Y973448D02*
X274629D01*
X165529Y864348D02*
X274629D01*
G54D20*
X454000Y657087D02*
X546000D01*
G54D21*
X436825Y677012D02*
X563175D01*
X436825Y637162D02*
X563175D01*
G54D22*
X3937Y669292D02*
X4087Y665859D01*
X4535Y662457D01*
X5280Y659103D01*
X6311Y655827D01*
X7626Y652654D01*
X9213Y649607D01*
X11055Y646709D01*
X13150Y643985D01*
X15468Y641453D01*
X18000Y639134D01*
X20724Y637040D01*
X23622Y635197D01*
X26669Y633611D01*
X29843Y632296D01*
X33118Y631264D01*
X36472Y630520D01*
X39874Y630071D01*
X43307Y629922D01*
X897638D01*
X901071Y630071D01*
X904472Y630520D01*
X907827Y631264D01*
X911102Y632296D01*
X914276Y633611D01*
X917323Y635197D01*
X920220Y637040D01*
X922945Y639134D01*
X925476Y641453D01*
X927795Y643985D01*
X929890Y646709D01*
X931732Y649607D01*
X933319Y652654D01*
X934634Y655827D01*
X935665Y659103D01*
X936409Y662457D01*
X936858Y665859D01*
X937008Y669292D01*
Y708662D01*
X937083Y710379D01*
X937307Y712079D01*
X937677Y713756D01*
X938197Y715394D01*
X938850Y716981D01*
X939646Y718504D01*
X940567Y719953D01*
X941614Y721316D01*
X942772Y722583D01*
X944039Y723741D01*
X945402Y724788D01*
X946850Y725709D01*
X948374Y726504D01*
X949961Y727158D01*
X951598Y727678D01*
X953276Y728048D01*
X954976Y728272D01*
X956693Y728347D01*
X957378Y728379D01*
X958059Y728465D01*
X958732Y728615D01*
X959386Y728823D01*
X960020Y729083D01*
X960630Y729402D01*
X961209Y729772D01*
X961756Y730190D01*
X962260Y730654D01*
X962724Y731158D01*
X963142Y731705D01*
X963512Y732284D01*
X963831Y732894D01*
X964091Y733528D01*
X964299Y734182D01*
X964449Y734855D01*
X964535Y735536D01*
X964567Y736221D01*
Y1078741D01*
X964551Y1079083D01*
X964508Y1079426D01*
X964433Y1079760D01*
X964331Y1080087D01*
X964197Y1080406D01*
X964039Y1080709D01*
X963854Y1081001D01*
X963646Y1081272D01*
X963413Y1081524D01*
X963161Y1081756D01*
X962890Y1081965D01*
X962598Y1082150D01*
X962295Y1082308D01*
X961976Y1082441D01*
X961650Y1082544D01*
X961315Y1082619D01*
X960972Y1082662D01*
X960630Y1082678D01*
X958913Y1082753D01*
X957213Y1082977D01*
X955535Y1083347D01*
X953898Y1083867D01*
X952311Y1084520D01*
X950787Y1085316D01*
X949339Y1086237D01*
X947976Y1087284D01*
X946709Y1088441D01*
X945551Y1089709D01*
X944504Y1091071D01*
X943583Y1092520D01*
X942787Y1094044D01*
X942134Y1095630D01*
X941614Y1097268D01*
X941244Y1098945D01*
X941020Y1100646D01*
X940945Y1102363D01*
Y1141733D01*
X940795Y1145166D01*
X940346Y1148567D01*
X939602Y1151922D01*
X938571Y1155197D01*
X937256Y1158371D01*
X935669Y1161418D01*
X933827Y1164316D01*
X931732Y1167040D01*
X929413Y1169571D01*
X926882Y1171890D01*
X924157Y1173985D01*
X921260Y1175827D01*
X918213Y1177414D01*
X915039Y1178729D01*
X911764Y1179760D01*
X908409Y1180504D01*
X905008Y1180953D01*
X901575Y1181103D01*
X43307D01*
X39874Y1180953D01*
X36472Y1180504D01*
X33118Y1179760D01*
X29843Y1178729D01*
X26669Y1177414D01*
X23622Y1175827D01*
X20724Y1173985D01*
X18000Y1171890D01*
X15468Y1169571D01*
X13150Y1167040D01*
X11055Y1164316D01*
X9213Y1161418D01*
X7626Y1158371D01*
X6311Y1155197D01*
X5280Y1151922D01*
X4535Y1148567D01*
X4087Y1145166D01*
X3937Y1141733D01*
Y669292D01*
%LPD*%
G75*
X3937Y669292D02*
G54D10*
X1147146Y536615D02*
X1952854D01*
X1953291Y536607D01*
X1953724Y536583D01*
X1954161Y536548D01*
X1954594Y536493D01*
X1955024Y536426D01*
X1955453Y536343D01*
X1955878Y536245D01*
X1956299Y536130D01*
X1956717Y536004D01*
X1957130Y535863D01*
X1957535Y535705D01*
X1957937Y535536D01*
X1958335Y535351D01*
X1958724Y535150D01*
X1959106Y534941D01*
X1959476Y534717D01*
X1959843Y534477D01*
X1960201Y534229D01*
X1960551Y533965D01*
X1960890Y533690D01*
X1961217Y533402D01*
X1961539Y533107D01*
X1961846Y532800D01*
X1962142Y532477D01*
X1962429Y532150D01*
X1962705Y531812D01*
X1962968Y531461D01*
X1963217Y531103D01*
X1963457Y530737D01*
X1963681Y530367D01*
X1963890Y529985D01*
X1964091Y529595D01*
X1964276Y529197D01*
X1964445Y528796D01*
X1964602Y528390D01*
X1964744Y527977D01*
X1964870Y527560D01*
X1964984Y527138D01*
X1965083Y526713D01*
X1965165Y526284D01*
X1965232Y525855D01*
X1965287Y525422D01*
X1965323Y524985D01*
X1965346Y524552D01*
X1965354Y524115D01*
Y72737D01*
X1965346Y72300D01*
X1965323Y71867D01*
X1965287Y71430D01*
X1965232Y70997D01*
X1965165Y70567D01*
X1965083Y70138D01*
X1964984Y69713D01*
X1964870Y69292D01*
X1964744Y68875D01*
X1964602Y68461D01*
X1964445Y68056D01*
X1964276Y67654D01*
X1964091Y67256D01*
X1963890Y66867D01*
X1963681Y66485D01*
X1963457Y66115D01*
X1963217Y65749D01*
X1962968Y65390D01*
X1962705Y65040D01*
X1962429Y64701D01*
X1962142Y64375D01*
X1961846Y64052D01*
X1961539Y63745D01*
X1961217Y63449D01*
X1960890Y63162D01*
X1960551Y62886D01*
X1960201Y62623D01*
X1959843Y62375D01*
X1959476Y62134D01*
X1959102Y61910D01*
X1958724Y61701D01*
X1958335Y61501D01*
X1957937Y61316D01*
X1957535Y61146D01*
X1957130Y60989D01*
X1956717Y60847D01*
X1956299Y60721D01*
X1955878Y60607D01*
X1955453Y60508D01*
X1955024Y60426D01*
X1954594Y60359D01*
X1954161Y60304D01*
X1953724Y60268D01*
X1953291Y60245D01*
X1952854Y60237D01*
X1075591D01*
X1055906Y79922D02*
Y119292D01*
X1055913Y119843D01*
X1055937Y120394D01*
X1055976Y120945D01*
X1056028Y121497D01*
X1056098Y122044D01*
X1056185Y122591D01*
X1056283Y123130D01*
X1056398Y123674D01*
X1056528Y124209D01*
X1056673Y124741D01*
X1056835Y125268D01*
X1057012Y125792D01*
X1057201Y126312D01*
X1057406Y126823D01*
X1057622Y127331D01*
X1057854Y127831D01*
X1058102Y128327D01*
X1058362Y128816D01*
X1058634Y129292D01*
X1058921Y129764D01*
X1059224Y130229D01*
X1059535Y130682D01*
X1059862Y131130D01*
X1060201Y131564D01*
X1060551Y131993D01*
X1060913Y132410D01*
X1061287Y132816D01*
X1061669Y133213D01*
X1062067Y133595D01*
X1062472Y133969D01*
X1062890Y134331D01*
X1063319Y134682D01*
X1063752Y135020D01*
X1064201Y135347D01*
X1064654Y135658D01*
X1065118Y135961D01*
X1065591Y136249D01*
X1066067Y136520D01*
X1066555Y136780D01*
X1067051Y137028D01*
X1067551Y137260D01*
X1068059Y137477D01*
X1068571Y137682D01*
X1069091Y137871D01*
X1069614Y138048D01*
X1070142Y138209D01*
X1070673Y138355D01*
X1071209Y138485D01*
X1071752Y138599D01*
X1072291Y138697D01*
X1072839Y138784D01*
X1073386Y138855D01*
X1073937Y138906D01*
X1074488Y138945D01*
X1075039Y138969D01*
X1075591Y138977D01*
X1114961D01*
X1115512Y138985D01*
X1116063Y139008D01*
X1116614Y139048D01*
X1117165Y139099D01*
X1117713Y139170D01*
X1118260Y139256D01*
X1118799Y139355D01*
X1119343Y139469D01*
X1119878Y139599D01*
X1120409Y139745D01*
X1120937Y139906D01*
X1121461Y140083D01*
X1121980Y140272D01*
X1122492Y140477D01*
X1123000Y140693D01*
X1123500Y140926D01*
X1123996Y141174D01*
X1124484Y141434D01*
X1124961Y141705D01*
X1125433Y141993D01*
X1125898Y142296D01*
X1126350Y142607D01*
X1126799Y142934D01*
X1127232Y143272D01*
X1127661Y143623D01*
X1128079Y143985D01*
X1128484Y144359D01*
X1128882Y144741D01*
X1129264Y145138D01*
X1129638Y145544D01*
X1130000Y145961D01*
X1130350Y146390D01*
X1130689Y146823D01*
X1131016Y147272D01*
X1131327Y147725D01*
X1131630Y148190D01*
X1131917Y148662D01*
X1132189Y149138D01*
X1132449Y149627D01*
X1132697Y150123D01*
X1132929Y150623D01*
X1133146Y151130D01*
X1133350Y151642D01*
X1133539Y152162D01*
X1133717Y152686D01*
X1133878Y153213D01*
X1134024Y153745D01*
X1134154Y154280D01*
X1134268Y154823D01*
X1134366Y155363D01*
X1134453Y155910D01*
X1134524Y156457D01*
X1134575Y157008D01*
X1134614Y157560D01*
X1134638Y158111D01*
X1134646Y158662D01*
Y524115D01*
X1134654Y524552D01*
X1134677Y524985D01*
X1134713Y525422D01*
X1134768Y525855D01*
X1134835Y526284D01*
X1134917Y526713D01*
X1135016Y527138D01*
X1135130Y527560D01*
X1135256Y527977D01*
X1135398Y528390D01*
X1135555Y528796D01*
X1135724Y529197D01*
X1135909Y529595D01*
X1136110Y529985D01*
X1136319Y530367D01*
X1136543Y530737D01*
X1136783Y531103D01*
X1137031Y531461D01*
X1137295Y531812D01*
X1137571Y532150D01*
X1137858Y532477D01*
X1138154Y532800D01*
X1138461Y533107D01*
X1138783Y533402D01*
X1139110Y533690D01*
X1139449Y533965D01*
X1139799Y534229D01*
X1140157Y534477D01*
X1140524Y534717D01*
X1140898Y534941D01*
X1141276Y535150D01*
X1141665Y535351D01*
X1142063Y535536D01*
X1142465Y535705D01*
X1142870Y535863D01*
X1143283Y536004D01*
X1143701Y536130D01*
X1144122Y536245D01*
X1144547Y536343D01*
X1144976Y536426D01*
X1145406Y536493D01*
X1145839Y536548D01*
X1146276Y536583D01*
X1146709Y536607D01*
X1147146Y536615D01*
X1055906Y79922D02*
X1055913Y79371D01*
X1055937Y78819D01*
X1055976Y78268D01*
X1056028Y77717D01*
X1056098Y77170D01*
X1056185Y76623D01*
X1056283Y76083D01*
X1056398Y75540D01*
X1056528Y75004D01*
X1056673Y74473D01*
X1056835Y73945D01*
X1057012Y73422D01*
X1057201Y72902D01*
X1057406Y72390D01*
X1057622Y71882D01*
X1057854Y71382D01*
X1058102Y70886D01*
X1058362Y70398D01*
X1058634Y69922D01*
X1058921Y69449D01*
X1059224Y68985D01*
X1059535Y68532D01*
X1059862Y68083D01*
X1060201Y67650D01*
X1060551Y67221D01*
X1060913Y66804D01*
X1061287Y66398D01*
X1061669Y66001D01*
X1062067Y65619D01*
X1062472Y65245D01*
X1062890Y64882D01*
X1063319Y64532D01*
X1063752Y64193D01*
X1064201Y63867D01*
X1064654Y63556D01*
X1065118Y63253D01*
X1065591Y62965D01*
X1066067Y62693D01*
X1066555Y62434D01*
X1067051Y62186D01*
X1067551Y61953D01*
X1068059Y61737D01*
X1068571Y61532D01*
X1069091Y61343D01*
X1069614Y61166D01*
X1070142Y61004D01*
X1070673Y60859D01*
X1071209Y60729D01*
X1071752Y60615D01*
X1072291Y60516D01*
X1072839Y60430D01*
X1073386Y60359D01*
X1073937Y60308D01*
X1074488Y60268D01*
X1075039Y60245D01*
X1075591Y60237D01*
G54D11*
X1949213Y52756D02*
Y525197D01*
X1122441D01*
Y52756D01*
X1437402D01*
X1634252D01*
X1949213D01*
X1634252D02*
Y92127D01*
X1437402D01*
Y52756D01*
%LPC*%
G75*
X1437402Y52756D02*
G54D12*
X1883858Y205119D03*
X1962598D03*
G54D13*
X1097244Y101575D03*
G54D14*
Y193372D02*
Y253873D01*
G54D15*
X1071569Y168447D02*
Y278798D01*
X1122919Y168447D02*
Y278798D01*
G54D12*
X1962598Y313386D03*
X1883858D03*
G54D16*
X1078740Y27560D03*
X1198819D03*
G54D17*
X1082646Y358268D02*
X1086646D01*
G54D18*
X1064346Y378568D02*
X1104946D01*
X1064346Y337968D02*
X1104946D01*
G54D17*
X1082646Y437008D02*
X1086646D01*
G54D18*
X1064346Y457308D02*
X1104946D01*
X1064346Y416708D02*
X1104946D01*
G54D17*
X1082646Y397638D02*
X1086646D01*
G54D18*
X1064346Y417938D02*
X1104946D01*
X1064346Y377338D02*
X1104946D01*
G54D17*
X1082646Y476379D02*
X1086646D01*
G54D18*
X1064346Y496679D02*
X1104946D01*
X1064346Y456079D02*
X1104946D01*
G54D17*
X1082646Y515749D02*
X1086646D01*
G54D18*
X1064346Y536049D02*
X1104946D01*
X1064346Y495449D02*
X1104946D01*
G54D19*
X1257449Y288977D02*
X1261449D01*
G54D18*
X1204899Y343527D02*
X1313999D01*
X1204899Y234427D02*
X1313999D01*
G54D20*
X1493370Y27166D02*
X1585370D01*
G54D21*
X1476195Y47091D02*
X1602545D01*
X1476195Y7241D02*
X1602545D01*
G54D22*
X1043307Y39371D02*
X1043457Y35938D01*
X1043906Y32536D01*
X1044650Y29182D01*
X1045681Y25906D01*
X1046996Y22733D01*
X1048583Y19686D01*
X1050425Y16788D01*
X1052520Y14064D01*
X1054839Y11532D01*
X1057370Y9213D01*
X1060094Y7119D01*
X1062992Y5276D01*
X1066039Y3690D01*
X1069213Y2375D01*
X1072488Y1343D01*
X1075843Y599D01*
X1079244Y150D01*
X1082677Y1D01*
X1937008D01*
X1940441Y150D01*
X1943843Y599D01*
X1947197Y1343D01*
X1950472Y2375D01*
X1953646Y3690D01*
X1956693Y5276D01*
X1959591Y7119D01*
X1962315Y9213D01*
X1964846Y11532D01*
X1967165Y14064D01*
X1969260Y16788D01*
X1971102Y19686D01*
X1972689Y22733D01*
X1974004Y25906D01*
X1975035Y29182D01*
X1975780Y32536D01*
X1976228Y35938D01*
X1976378Y39371D01*
Y78741D01*
X1976453Y80457D01*
X1976677Y82158D01*
X1977047Y83835D01*
X1977567Y85473D01*
X1978220Y87060D01*
X1979016Y88583D01*
X1979937Y90032D01*
X1980984Y91394D01*
X1982142Y92662D01*
X1983409Y93819D01*
X1984772Y94867D01*
X1986220Y95788D01*
X1987744Y96583D01*
X1989331Y97237D01*
X1990968Y97756D01*
X1992646Y98127D01*
X1994346Y98351D01*
X1996063Y98426D01*
X1996748Y98457D01*
X1997429Y98544D01*
X1998102Y98693D01*
X1998756Y98902D01*
X1999390Y99162D01*
X2000000Y99481D01*
X2000579Y99851D01*
X2001126Y100268D01*
X2001630Y100733D01*
X2002094Y101237D01*
X2002512Y101784D01*
X2002882Y102363D01*
X2003201Y102973D01*
X2003461Y103607D01*
X2003669Y104260D01*
X2003819Y104934D01*
X2003906Y105615D01*
X2003937Y106300D01*
Y448819D01*
X2003921Y449162D01*
X2003878Y449504D01*
X2003803Y449839D01*
X2003701Y450166D01*
X2003567Y450485D01*
X2003409Y450788D01*
X2003224Y451079D01*
X2003016Y451351D01*
X2002783Y451603D01*
X2002531Y451835D01*
X2002260Y452044D01*
X2001968Y452229D01*
X2001665Y452386D01*
X2001346Y452520D01*
X2001020Y452623D01*
X2000685Y452697D01*
X2000343Y452741D01*
X2000000Y452756D01*
X1998283Y452831D01*
X1996583Y453056D01*
X1994906Y453426D01*
X1993268Y453945D01*
X1991681Y454599D01*
X1990157Y455394D01*
X1988709Y456316D01*
X1987346Y457363D01*
X1986079Y458520D01*
X1984921Y459788D01*
X1983874Y461150D01*
X1982953Y462599D01*
X1982157Y464123D01*
X1981504Y465709D01*
X1980984Y467347D01*
X1980614Y469024D01*
X1980390Y470725D01*
X1980315Y472441D01*
Y511812D01*
X1980165Y515245D01*
X1979717Y518646D01*
X1978972Y522001D01*
X1977941Y525276D01*
X1976626Y528449D01*
X1975039Y531497D01*
X1973197Y534394D01*
X1971102Y537119D01*
X1968783Y539650D01*
X1966252Y541969D01*
X1963528Y544064D01*
X1960630Y545906D01*
X1957583Y547493D01*
X1954409Y548808D01*
X1951134Y549839D01*
X1947780Y550583D01*
X1944378Y551032D01*
X1940945Y551182D01*
X1082677D01*
X1079244Y551032D01*
X1075843Y550583D01*
X1072488Y549839D01*
X1069213Y548808D01*
X1066039Y547493D01*
X1062992Y545906D01*
X1060094Y544064D01*
X1057370Y541969D01*
X1054839Y539650D01*
X1052520Y537119D01*
X1050425Y534394D01*
X1048583Y531497D01*
X1046996Y528449D01*
X1045681Y525276D01*
X1044650Y522001D01*
X1043906Y518646D01*
X1043457Y515245D01*
X1043307Y511812D01*
Y39371D01*
%LPD*%
G75*
X1043307Y39371D02*
G54D10*
X1147146Y1166536D02*
X1952854D01*
X1953291Y1166528D01*
X1953724Y1166504D01*
X1954161Y1166469D01*
X1954594Y1166414D01*
X1955024Y1166347D01*
X1955453Y1166264D01*
X1955878Y1166166D01*
X1956299Y1166052D01*
X1956717Y1165926D01*
X1957130Y1165784D01*
X1957535Y1165627D01*
X1957937Y1165457D01*
X1958335Y1165272D01*
X1958724Y1165071D01*
X1959106Y1164863D01*
X1959476Y1164638D01*
X1959843Y1164398D01*
X1960201Y1164150D01*
X1960551Y1163886D01*
X1960890Y1163611D01*
X1961217Y1163323D01*
X1961539Y1163028D01*
X1961846Y1162721D01*
X1962142Y1162398D01*
X1962429Y1162071D01*
X1962705Y1161733D01*
X1962968Y1161382D01*
X1963217Y1161024D01*
X1963457Y1160658D01*
X1963681Y1160288D01*
X1963890Y1159906D01*
X1964091Y1159516D01*
X1964276Y1159119D01*
X1964445Y1158717D01*
X1964602Y1158312D01*
X1964744Y1157898D01*
X1964870Y1157481D01*
X1964984Y1157060D01*
X1965083Y1156634D01*
X1965165Y1156205D01*
X1965232Y1155776D01*
X1965287Y1155343D01*
X1965323Y1154906D01*
X1965346Y1154473D01*
X1965354Y1154036D01*
Y702658D01*
X1965346Y702221D01*
X1965323Y701788D01*
X1965287Y701351D01*
X1965232Y700918D01*
X1965165Y700489D01*
X1965083Y700060D01*
X1964984Y699634D01*
X1964870Y699213D01*
X1964744Y698796D01*
X1964602Y698382D01*
X1964445Y697977D01*
X1964276Y697575D01*
X1964091Y697178D01*
X1963890Y696788D01*
X1963681Y696406D01*
X1963457Y696036D01*
X1963217Y695670D01*
X1962968Y695312D01*
X1962705Y694961D01*
X1962429Y694623D01*
X1962142Y694296D01*
X1961846Y693973D01*
X1961539Y693666D01*
X1961217Y693371D01*
X1960890Y693083D01*
X1960551Y692808D01*
X1960201Y692544D01*
X1959843Y692296D01*
X1959476Y692056D01*
X1959102Y691831D01*
X1958724Y691623D01*
X1958335Y691422D01*
X1957937Y691237D01*
X1957535Y691067D01*
X1957130Y690910D01*
X1956717Y690768D01*
X1956299Y690642D01*
X1955878Y690528D01*
X1955453Y690430D01*
X1955024Y690347D01*
X1954594Y690280D01*
X1954161Y690225D01*
X1953724Y690190D01*
X1953291Y690166D01*
X1952854Y690158D01*
X1075591D01*
X1055906Y709843D02*
Y749213D01*
X1055913Y749764D01*
X1055937Y750316D01*
X1055976Y750867D01*
X1056028Y751418D01*
X1056098Y751965D01*
X1056185Y752512D01*
X1056283Y753052D01*
X1056398Y753595D01*
X1056528Y754130D01*
X1056673Y754662D01*
X1056835Y755190D01*
X1057012Y755713D01*
X1057201Y756233D01*
X1057406Y756745D01*
X1057622Y757253D01*
X1057854Y757753D01*
X1058102Y758249D01*
X1058362Y758737D01*
X1058634Y759213D01*
X1058921Y759686D01*
X1059224Y760150D01*
X1059535Y760603D01*
X1059862Y761052D01*
X1060201Y761485D01*
X1060551Y761914D01*
X1060913Y762331D01*
X1061287Y762737D01*
X1061669Y763134D01*
X1062067Y763516D01*
X1062472Y763890D01*
X1062890Y764253D01*
X1063319Y764603D01*
X1063752Y764941D01*
X1064201Y765268D01*
X1064654Y765579D01*
X1065118Y765882D01*
X1065591Y766170D01*
X1066067Y766441D01*
X1066555Y766701D01*
X1067051Y766949D01*
X1067551Y767182D01*
X1068059Y767398D01*
X1068571Y767603D01*
X1069091Y767792D01*
X1069614Y767969D01*
X1070142Y768130D01*
X1070673Y768276D01*
X1071209Y768406D01*
X1071752Y768520D01*
X1072291Y768619D01*
X1072839Y768705D01*
X1073386Y768776D01*
X1073937Y768827D01*
X1074488Y768867D01*
X1075039Y768890D01*
X1075591Y768898D01*
X1114961D01*
X1115512Y768906D01*
X1116063Y768930D01*
X1116614Y768969D01*
X1117165Y769020D01*
X1117713Y769091D01*
X1118260Y769178D01*
X1118799Y769276D01*
X1119343Y769390D01*
X1119878Y769520D01*
X1120409Y769666D01*
X1120937Y769827D01*
X1121461Y770004D01*
X1121980Y770193D01*
X1122492Y770398D01*
X1123000Y770615D01*
X1123500Y770847D01*
X1123996Y771095D01*
X1124484Y771355D01*
X1124961Y771627D01*
X1125433Y771914D01*
X1125898Y772217D01*
X1126350Y772528D01*
X1126799Y772855D01*
X1127232Y773193D01*
X1127661Y773544D01*
X1128079Y773906D01*
X1128484Y774280D01*
X1128882Y774662D01*
X1129264Y775060D01*
X1129638Y775465D01*
X1130000Y775882D01*
X1130350Y776312D01*
X1130689Y776745D01*
X1131016Y777193D01*
X1131327Y777646D01*
X1131630Y778111D01*
X1131917Y778583D01*
X1132189Y779060D01*
X1132449Y779548D01*
X1132697Y780044D01*
X1132929Y780544D01*
X1133146Y781052D01*
X1133350Y781564D01*
X1133539Y782083D01*
X1133717Y782607D01*
X1133878Y783134D01*
X1134024Y783666D01*
X1134154Y784201D01*
X1134268Y784745D01*
X1134366Y785284D01*
X1134453Y785831D01*
X1134524Y786379D01*
X1134575Y786930D01*
X1134614Y787481D01*
X1134638Y788032D01*
X1134646Y788583D01*
Y1154036D01*
X1134654Y1154473D01*
X1134677Y1154906D01*
X1134713Y1155343D01*
X1134768Y1155776D01*
X1134835Y1156205D01*
X1134917Y1156634D01*
X1135016Y1157060D01*
X1135130Y1157481D01*
X1135256Y1157898D01*
X1135398Y1158312D01*
X1135555Y1158717D01*
X1135724Y1159119D01*
X1135909Y1159516D01*
X1136110Y1159906D01*
X1136319Y1160288D01*
X1136543Y1160658D01*
X1136783Y1161024D01*
X1137031Y1161382D01*
X1137295Y1161733D01*
X1137571Y1162071D01*
X1137858Y1162398D01*
X1138154Y1162721D01*
X1138461Y1163028D01*
X1138783Y1163323D01*
X1139110Y1163611D01*
X1139449Y1163886D01*
X1139799Y1164150D01*
X1140157Y1164398D01*
X1140524Y1164638D01*
X1140898Y1164863D01*
X1141276Y1165071D01*
X1141665Y1165272D01*
X1142063Y1165457D01*
X1142465Y1165627D01*
X1142870Y1165784D01*
X1143283Y1165926D01*
X1143701Y1166052D01*
X1144122Y1166166D01*
X1144547Y1166264D01*
X1144976Y1166347D01*
X1145406Y1166414D01*
X1145839Y1166469D01*
X1146276Y1166504D01*
X1146709Y1166528D01*
X1147146Y1166536D01*
X1055906Y709843D02*
X1055913Y709292D01*
X1055937Y708741D01*
X1055976Y708190D01*
X1056028Y707638D01*
X1056098Y707091D01*
X1056185Y706544D01*
X1056283Y706004D01*
X1056398Y705461D01*
X1056528Y704926D01*
X1056673Y704394D01*
X1056835Y703867D01*
X1057012Y703343D01*
X1057201Y702823D01*
X1057406Y702312D01*
X1057622Y701804D01*
X1057854Y701304D01*
X1058102Y700808D01*
X1058362Y700319D01*
X1058634Y699843D01*
X1058921Y699371D01*
X1059224Y698906D01*
X1059535Y698453D01*
X1059862Y698004D01*
X1060201Y697571D01*
X1060551Y697142D01*
X1060913Y696725D01*
X1061287Y696319D01*
X1061669Y695922D01*
X1062067Y695540D01*
X1062472Y695166D01*
X1062890Y694804D01*
X1063319Y694453D01*
X1063752Y694115D01*
X1064201Y693788D01*
X1064654Y693477D01*
X1065118Y693174D01*
X1065591Y692886D01*
X1066067Y692615D01*
X1066555Y692355D01*
X1067051Y692107D01*
X1067551Y691875D01*
X1068059Y691658D01*
X1068571Y691453D01*
X1069091Y691264D01*
X1069614Y691087D01*
X1070142Y690926D01*
X1070673Y690780D01*
X1071209Y690650D01*
X1071752Y690536D01*
X1072291Y690438D01*
X1072839Y690351D01*
X1073386Y690280D01*
X1073937Y690229D01*
X1074488Y690190D01*
X1075039Y690166D01*
X1075591Y690158D01*
G54D11*
X1949213Y682678D02*
Y1155119D01*
X1122441D01*
Y682678D01*
X1437402D01*
X1634252D01*
X1949213D01*
X1634252D02*
Y722048D01*
X1437402D01*
Y682678D01*
%LPC*%
G75*
X1437402Y682678D02*
G54D12*
X1883858Y835040D03*
X1962598D03*
G54D13*
X1097244Y731497D03*
G54D14*
Y823294D02*
Y883794D01*
G54D15*
X1071569Y798369D02*
Y908719D01*
X1122919Y798369D02*
Y908719D01*
G54D12*
X1962598Y943308D03*
X1883858D03*
G54D16*
X1078740Y657481D03*
X1198819D03*
G54D17*
X1082646Y988190D02*
X1086646D01*
G54D18*
X1064346Y1008490D02*
X1104946D01*
X1064346Y967890D02*
X1104946D01*
G54D17*
X1082646Y1066930D02*
X1086646D01*
G54D18*
X1064346Y1087230D02*
X1104946D01*
X1064346Y1046630D02*
X1104946D01*
G54D17*
X1082646Y1027560D02*
X1086646D01*
G54D18*
X1064346Y1047860D02*
X1104946D01*
X1064346Y1007260D02*
X1104946D01*
G54D17*
X1082646Y1106300D02*
X1086646D01*
G54D18*
X1064346Y1126600D02*
X1104946D01*
X1064346Y1086000D02*
X1104946D01*
G54D17*
X1082646Y1145670D02*
X1086646D01*
G54D18*
X1064346Y1165970D02*
X1104946D01*
X1064346Y1125370D02*
X1104946D01*
G54D19*
X1257449Y918898D02*
X1261449D01*
G54D18*
X1204899Y973448D02*
X1313999D01*
X1204899Y864348D02*
X1313999D01*
G54D20*
X1493370Y657087D02*
X1585370D01*
G54D21*
X1476195Y677012D02*
X1602545D01*
X1476195Y637162D02*
X1602545D01*
G54D22*
X1043307Y669292D02*
X1043457Y665859D01*
X1043906Y662457D01*
X1044650Y659103D01*
X1045681Y655827D01*
X1046996Y652654D01*
X1048583Y649607D01*
X1050425Y646709D01*
X1052520Y643985D01*
X1054839Y641453D01*
X1057370Y639134D01*
X1060094Y637040D01*
X1062992Y635197D01*
X1066039Y633611D01*
X1069213Y632296D01*
X1072488Y631264D01*
X1075843Y630520D01*
X1079244Y630071D01*
X1082677Y629922D01*
X1937008D01*
X1940441Y630071D01*
X1943843Y630520D01*
X1947197Y631264D01*
X1950472Y632296D01*
X1953646Y633611D01*
X1956693Y635197D01*
X1959591Y637040D01*
X1962315Y639134D01*
X1964846Y641453D01*
X1967165Y643985D01*
X1969260Y646709D01*
X1971102Y649607D01*
X1972689Y652654D01*
X1974004Y655827D01*
X1975035Y659103D01*
X1975780Y662457D01*
X1976228Y665859D01*
X1976378Y669292D01*
Y708662D01*
X1976453Y710379D01*
X1976677Y712079D01*
X1977047Y713756D01*
X1977567Y715394D01*
X1978220Y716981D01*
X1979016Y718504D01*
X1979937Y719953D01*
X1980984Y721316D01*
X1982142Y722583D01*
X1983409Y723741D01*
X1984772Y724788D01*
X1986220Y725709D01*
X1987744Y726504D01*
X1989331Y727158D01*
X1990968Y727678D01*
X1992646Y728048D01*
X1994346Y728272D01*
X1996063Y728347D01*
X1996748Y728379D01*
X1997429Y728465D01*
X1998102Y728615D01*
X1998756Y728823D01*
X1999390Y729083D01*
X2000000Y729402D01*
X2000579Y729772D01*
X2001126Y730190D01*
X2001630Y730654D01*
X2002094Y731158D01*
X2002512Y731705D01*
X2002882Y732284D01*
X2003201Y732894D01*
X2003461Y733528D01*
X2003669Y734182D01*
X2003819Y734855D01*
X2003906Y735536D01*
X2003937Y736221D01*
Y1078741D01*
X2003921Y1079083D01*
X2003878Y1079426D01*
X2003803Y1079760D01*
X2003701Y1080087D01*
X2003567Y1080406D01*
X2003409Y1080709D01*
X2003224Y1081001D01*
X2003016Y1081272D01*
X2002783Y1081524D01*
X2002531Y1081756D01*
X2002260Y1081965D01*
X2001968Y1082150D01*
X2001665Y1082308D01*
X2001346Y1082441D01*
X2001020Y1082544D01*
X2000685Y1082619D01*
X2000343Y1082662D01*
X2000000Y1082678D01*
X1998283Y1082753D01*
X1996583Y1082977D01*
X1994906Y1083347D01*
X1993268Y1083867D01*
X1991681Y1084520D01*
X1990157Y1085316D01*
X1988709Y1086237D01*
X1987346Y1087284D01*
X1986079Y1088441D01*
X1984921Y1089709D01*
X1983874Y1091071D01*
X1982953Y1092520D01*
X1982157Y1094044D01*
X1981504Y1095630D01*
X1980984Y1097268D01*
X1980614Y1098945D01*
X1980390Y1100646D01*
X1980315Y1102363D01*
Y1141733D01*
X1980165Y1145166D01*
X1979717Y1148567D01*
X1978972Y1151922D01*
X1977941Y1155197D01*
X1976626Y1158371D01*
X1975039Y1161418D01*
X1973197Y1164316D01*
X1971102Y1167040D01*
X1968783Y1169571D01*
X1966252Y1171890D01*
X1963528Y1173985D01*
X1960630Y1175827D01*
X1957583Y1177414D01*
X1954409Y1178729D01*
X1951134Y1179760D01*
X1947780Y1180504D01*
X1944378Y1180953D01*
X1940945Y1181103D01*
X1082677D01*
X1079244Y1180953D01*
X1075843Y1180504D01*
X1072488Y1179760D01*
X1069213Y1178729D01*
X1066039Y1177414D01*
X1062992Y1175827D01*
X1060094Y1173985D01*
X1057370Y1171890D01*
X1054839Y1169571D01*
X1052520Y1167040D01*
X1050425Y1164316D01*
X1048583Y1161418D01*
X1046996Y1158371D01*
X1045681Y1155197D01*
X1044650Y1151922D01*
X1043906Y1148567D01*
X1043457Y1145166D01*
X1043307Y1141733D01*
Y669292D01*
M02*
