*
%FSLAX26Y26*%
%MOIN*%
%ADD10C,0.033250*%
%ADD11C,0.042750*%
%ADD12R,0.043250X0.043250*%
%ADD13C,0.001500*%
%ADD14C,0.045000*%
%ADD15R,0.032500X0.032500*%
%ADD16C,0.004000*%
%ADD17R,0.101000X0.101000*%
%ADD18R,0.031750X0.031750*%
%ADD19C,0.005500*%
%ADD20R,0.005000X0.005000*%
%ADD21C,0.005906*%
%ADD22C,0.003000*%
%ADD23C,0.027559*%
%ADD24C,0.006063*%
%ADD25C,0.008000*%
%ADD26C,0.090551*%
%ADD27C,0.078740*%
%IPPOS*%
%LNgbs.gbr*%
%LPD*%
G75*
G54D10*
X844488Y205119D03*
X923228D03*
G54D11*
X57874Y101575D03*
G54D12*
Y193373D02*
Y253873D01*
G54D13*
X36249Y172498D02*
Y274748D01*
X79499Y172498D02*
Y274748D01*
G54D10*
X923228Y313386D03*
X844488D03*
G54D14*
X39370Y27560D03*
X159449D03*
G54D15*
X43276Y358268D02*
X47276D01*
G54D16*
X29026Y374518D02*
X61526D01*
X29026Y342018D02*
X61526D01*
G54D15*
X43276Y437008D02*
X47276D01*
G54D16*
X29026Y453258D02*
X61526D01*
X29026Y420758D02*
X61526D01*
G54D15*
X43276Y397638D02*
X47276D01*
G54D16*
X29026Y413888D02*
X61526D01*
X29026Y381388D02*
X61526D01*
G54D15*
X43276Y476379D02*
X47276D01*
G54D16*
X29026Y492629D02*
X61526D01*
X29026Y460129D02*
X61526D01*
G54D15*
X43276Y515749D02*
X47276D01*
G54D16*
X29026Y531999D02*
X61526D01*
X29026Y499499D02*
X61526D01*
G54D17*
X218079Y288977D02*
X222079D01*
G54D16*
X169579Y339477D02*
X270579D01*
X169579Y238477D02*
X270579D01*
G54D18*
X454000Y27166D02*
X546000D01*
G54D19*
X440875Y43041D02*
X559125D01*
X440875Y11291D02*
X559125D01*
%LPC*%
G75*
X559125Y11291D02*
G54D20*
X61044Y377953D02*
X29508D01*
Y417323D02*
X61044D01*
Y456693D02*
X29508D01*
X61044Y496064D02*
X29508D01*
%LPD*%
G75*
X29508Y496064D02*
G54D21*
X3937Y39371D02*
X4087Y35938D01*
X4535Y32536D01*
X5280Y29182D01*
X6311Y25906D01*
X7626Y22733D01*
X9213Y19686D01*
X11055Y16788D01*
X13150Y14064D01*
X15468Y11532D01*
X18000Y9213D01*
X20724Y7119D01*
X23622Y5276D01*
X26669Y3690D01*
X29843Y2375D01*
X33118Y1343D01*
X36472Y599D01*
X39874Y150D01*
X43307Y1D01*
X897638D01*
X901071Y150D01*
X904472Y599D01*
X907827Y1343D01*
X911102Y2375D01*
X914276Y3690D01*
X917323Y5276D01*
X920220Y7119D01*
X922945Y9213D01*
X925476Y11532D01*
X927795Y14064D01*
X929890Y16788D01*
X931732Y19686D01*
X933319Y22733D01*
X934634Y25906D01*
X935665Y29182D01*
X936409Y32536D01*
X936858Y35938D01*
X937008Y39371D01*
Y78741D01*
X937083Y80457D01*
X937307Y82158D01*
X937677Y83835D01*
X938197Y85473D01*
X938850Y87060D01*
X939646Y88583D01*
X940567Y90032D01*
X941614Y91394D01*
X942772Y92662D01*
X944039Y93819D01*
X945402Y94867D01*
X946850Y95788D01*
X948374Y96583D01*
X949961Y97237D01*
X951598Y97756D01*
X953276Y98127D01*
X954976Y98351D01*
X956693Y98426D01*
X957378Y98457D01*
X958059Y98544D01*
X958732Y98693D01*
X959386Y98902D01*
X960020Y99162D01*
X960630Y99481D01*
X961209Y99851D01*
X961756Y100268D01*
X962260Y100733D01*
X962724Y101237D01*
X963142Y101784D01*
X963512Y102363D01*
X963831Y102973D01*
X964091Y103607D01*
X964299Y104260D01*
X964449Y104934D01*
X964535Y105615D01*
X964567Y106300D01*
Y448819D01*
X964551Y449162D01*
X964508Y449504D01*
X964433Y449839D01*
X964331Y450166D01*
X964197Y450485D01*
X964039Y450788D01*
X963854Y451079D01*
X963646Y451351D01*
X963413Y451603D01*
X963161Y451835D01*
X962890Y452044D01*
X962598Y452229D01*
X962295Y452386D01*
X961976Y452520D01*
X961650Y452623D01*
X961315Y452697D01*
X960972Y452741D01*
X960630Y452756D01*
X958913Y452831D01*
X957213Y453056D01*
X955535Y453426D01*
X953898Y453945D01*
X952311Y454599D01*
X950787Y455394D01*
X949339Y456316D01*
X947976Y457363D01*
X946709Y458520D01*
X945551Y459788D01*
X944504Y461150D01*
X943583Y462599D01*
X942787Y464123D01*
X942134Y465709D01*
X941614Y467347D01*
X941244Y469024D01*
X941020Y470725D01*
X940945Y472441D01*
Y511812D01*
X940795Y515245D01*
X940346Y518646D01*
X939602Y522001D01*
X938571Y525276D01*
X937256Y528449D01*
X935669Y531497D01*
X933827Y534394D01*
X931732Y537119D01*
X929413Y539650D01*
X926882Y541969D01*
X924157Y544064D01*
X921260Y545906D01*
X918213Y547493D01*
X915039Y548808D01*
X911764Y549839D01*
X908409Y550583D01*
X905008Y551032D01*
X901575Y551182D01*
X43307D01*
X39874Y551032D01*
X36472Y550583D01*
X33118Y549839D01*
X29843Y548808D01*
X26669Y547493D01*
X23622Y545906D01*
X20724Y544064D01*
X18000Y541969D01*
X15468Y539650D01*
X13150Y537119D01*
X11055Y534394D01*
X9213Y531497D01*
X7626Y528449D01*
X6311Y525276D01*
X5280Y522001D01*
X4535Y518646D01*
X4087Y515245D01*
X3937Y511812D01*
Y39371D01*
%LPC*%
G75*
X3937Y39371D02*
G54D22*
X35689Y171910D02*
X80059D01*
Y275335D01*
X35689D01*
Y171910D01*
X63524Y344863D02*
Y359863D01*
Y390138D02*
Y405138D01*
Y429508D02*
Y444508D01*
Y469879D02*
Y482879D01*
Y509249D02*
Y522249D01*
X213579Y236477D02*
X226579D01*
X561555Y10812D02*
Y45414D01*
X438445D01*
Y10812D01*
X63524Y359863D02*
X65024D01*
Y344863D02*
X63524D01*
Y405138D02*
X65024D01*
Y390138D02*
X63524D01*
Y444508D02*
X65024D01*
Y429508D02*
X63524D01*
Y482879D02*
X65024D01*
Y469879D02*
X63524D01*
Y522249D02*
X65024D01*
Y509249D02*
X63524D01*
X213579Y234977D02*
Y236477D01*
X226579D02*
Y234977D01*
X563055Y10812D02*
X561555D01*
X438445D02*
X436945D01*
%LPD*%
G75*
X436945Y10812D02*
G54D23*
X124433Y559831D03*
X157898D03*
X191362D03*
X224827D03*
X258291D03*
X669616D03*
X703080D03*
X736545D03*
X770009D03*
X803474D03*
X124433Y-8580D03*
X157898D03*
X191362D03*
X224827D03*
X258291D03*
X669616D03*
X703080D03*
X736545D03*
X770009D03*
X803474D03*
G54D24*
X124433Y629866D02*
Y551182D01*
X258291Y629866D02*
Y551182D01*
X669616Y629866D02*
Y551182D01*
X803474Y629866D02*
Y551182D01*
X124433Y-56D02*
Y-78740D01*
X258291Y-56D02*
Y-78740D01*
X669616Y-56D02*
Y-78740D01*
X803474Y-56D02*
Y-78740D01*
G54D10*
X844488Y835040D03*
X923228D03*
G54D11*
X57874Y731497D03*
G54D12*
Y823294D02*
Y883794D01*
G54D13*
X36249Y802419D02*
Y904669D01*
X79499Y802419D02*
Y904669D01*
G54D10*
X923228Y943308D03*
X844488D03*
G54D14*
X39370Y657481D03*
X159449D03*
G54D15*
X43276Y988190D02*
X47276D01*
G54D16*
X29026Y1004440D02*
X61526D01*
X29026Y971940D02*
X61526D01*
G54D15*
X43276Y1066930D02*
X47276D01*
G54D16*
X29026Y1083180D02*
X61526D01*
X29026Y1050680D02*
X61526D01*
G54D15*
X43276Y1027560D02*
X47276D01*
G54D16*
X29026Y1043810D02*
X61526D01*
X29026Y1011310D02*
X61526D01*
G54D15*
X43276Y1106300D02*
X47276D01*
G54D16*
X29026Y1122550D02*
X61526D01*
X29026Y1090050D02*
X61526D01*
G54D15*
X43276Y1145670D02*
X47276D01*
G54D16*
X29026Y1161920D02*
X61526D01*
X29026Y1129420D02*
X61526D01*
G54D17*
X218079Y918898D02*
X222079D01*
G54D16*
X169579Y969398D02*
X270579D01*
X169579Y868398D02*
X270579D01*
G54D18*
X454000Y657087D02*
X546000D01*
G54D19*
X440875Y672962D02*
X559125D01*
X440875Y641212D02*
X559125D01*
%LPC*%
G75*
X559125Y641212D02*
G54D20*
X61044Y1007875D02*
X29508D01*
Y1047245D02*
X61044D01*
Y1086615D02*
X29508D01*
X61044Y1125985D02*
X29508D01*
%LPD*%
G75*
X29508Y1125985D02*
G54D21*
X3937Y669292D02*
X4087Y665859D01*
X4535Y662457D01*
X5280Y659103D01*
X6311Y655827D01*
X7626Y652654D01*
X9213Y649607D01*
X11055Y646709D01*
X13150Y643985D01*
X15468Y641453D01*
X18000Y639134D01*
X20724Y637040D01*
X23622Y635197D01*
X26669Y633611D01*
X29843Y632296D01*
X33118Y631264D01*
X36472Y630520D01*
X39874Y630071D01*
X43307Y629922D01*
X897638D01*
X901071Y630071D01*
X904472Y630520D01*
X907827Y631264D01*
X911102Y632296D01*
X914276Y633611D01*
X917323Y635197D01*
X920220Y637040D01*
X922945Y639134D01*
X925476Y641453D01*
X927795Y643985D01*
X929890Y646709D01*
X931732Y649607D01*
X933319Y652654D01*
X934634Y655827D01*
X935665Y659103D01*
X936409Y662457D01*
X936858Y665859D01*
X937008Y669292D01*
Y708662D01*
X937083Y710379D01*
X937307Y712079D01*
X937677Y713756D01*
X938197Y715394D01*
X938850Y716981D01*
X939646Y718504D01*
X940567Y719953D01*
X941614Y721316D01*
X942772Y722583D01*
X944039Y723741D01*
X945402Y724788D01*
X946850Y725709D01*
X948374Y726504D01*
X949961Y727158D01*
X951598Y727678D01*
X953276Y728048D01*
X954976Y728272D01*
X956693Y728347D01*
X957378Y728379D01*
X958059Y728465D01*
X958732Y728615D01*
X959386Y728823D01*
X960020Y729083D01*
X960630Y729402D01*
X961209Y729772D01*
X961756Y730190D01*
X962260Y730654D01*
X962724Y731158D01*
X963142Y731705D01*
X963512Y732284D01*
X963831Y732894D01*
X964091Y733528D01*
X964299Y734182D01*
X964449Y734855D01*
X964535Y735536D01*
X964567Y736221D01*
Y1078741D01*
X964551Y1079083D01*
X964508Y1079426D01*
X964433Y1079760D01*
X964331Y1080087D01*
X964197Y1080406D01*
X964039Y1080709D01*
X963854Y1081001D01*
X963646Y1081272D01*
X963413Y1081524D01*
X963161Y1081756D01*
X962890Y1081965D01*
X962598Y1082150D01*
X962295Y1082308D01*
X961976Y1082441D01*
X961650Y1082544D01*
X961315Y1082619D01*
X960972Y1082662D01*
X960630Y1082678D01*
X958913Y1082753D01*
X957213Y1082977D01*
X955535Y1083347D01*
X953898Y1083867D01*
X952311Y1084520D01*
X950787Y1085316D01*
X949339Y1086237D01*
X947976Y1087284D01*
X946709Y1088441D01*
X945551Y1089709D01*
X944504Y1091071D01*
X943583Y1092520D01*
X942787Y1094044D01*
X942134Y1095630D01*
X941614Y1097268D01*
X941244Y1098945D01*
X941020Y1100646D01*
X940945Y1102363D01*
Y1141733D01*
X940795Y1145166D01*
X940346Y1148567D01*
X939602Y1151922D01*
X938571Y1155197D01*
X937256Y1158371D01*
X935669Y1161418D01*
X933827Y1164316D01*
X931732Y1167040D01*
X929413Y1169571D01*
X926882Y1171890D01*
X924157Y1173985D01*
X921260Y1175827D01*
X918213Y1177414D01*
X915039Y1178729D01*
X911764Y1179760D01*
X908409Y1180504D01*
X905008Y1180953D01*
X901575Y1181103D01*
X43307D01*
X39874Y1180953D01*
X36472Y1180504D01*
X33118Y1179760D01*
X29843Y1178729D01*
X26669Y1177414D01*
X23622Y1175827D01*
X20724Y1173985D01*
X18000Y1171890D01*
X15468Y1169571D01*
X13150Y1167040D01*
X11055Y1164316D01*
X9213Y1161418D01*
X7626Y1158371D01*
X6311Y1155197D01*
X5280Y1151922D01*
X4535Y1148567D01*
X4087Y1145166D01*
X3937Y1141733D01*
Y669292D01*
%LPC*%
G75*
X3937Y669292D02*
G54D22*
X35689Y801831D02*
X80059D01*
Y905256D01*
X35689D01*
Y801831D01*
X63524Y974784D02*
Y989784D01*
Y1020060D02*
Y1035060D01*
Y1059430D02*
Y1074430D01*
Y1099800D02*
Y1112800D01*
Y1139170D02*
Y1152170D01*
X213579Y866398D02*
X226579D01*
X561555Y640733D02*
Y675335D01*
X438445D01*
Y640733D01*
X63524Y989784D02*
X65024D01*
Y974784D02*
X63524D01*
Y1035060D02*
X65024D01*
Y1020060D02*
X63524D01*
Y1074430D02*
X65024D01*
Y1059430D02*
X63524D01*
Y1112800D02*
X65024D01*
Y1099800D02*
X63524D01*
Y1152170D02*
X65024D01*
Y1139170D02*
X63524D01*
X213579Y864898D02*
Y866398D01*
X226579D02*
Y864898D01*
X563055Y640733D02*
X561555D01*
X438445D02*
X436945D01*
%LPD*%
G75*
X436945Y640733D02*
G54D23*
X124433Y1189752D03*
X157898D03*
X191362D03*
X224827D03*
X258291D03*
X669616D03*
X703080D03*
X736545D03*
X770009D03*
X803474D03*
X124433Y621341D03*
X157898D03*
X191362D03*
X224827D03*
X258291D03*
X669616D03*
X703080D03*
X736545D03*
X770009D03*
X803474D03*
G54D24*
X124433Y1259787D02*
Y1181103D01*
X258291Y1259787D02*
Y1181103D01*
X669616Y1259787D02*
Y1181103D01*
X803474Y1259787D02*
Y1181103D01*
X124433Y629866D02*
Y551182D01*
X258291Y629866D02*
Y551182D01*
X669616Y629866D02*
Y551182D01*
X803474Y629866D02*
Y551182D01*
G54D10*
X1883858Y205119D03*
X1962598D03*
G54D11*
X1097244Y101575D03*
G54D12*
Y193373D02*
Y253873D01*
G54D13*
X1075619Y172498D02*
Y274748D01*
X1118869Y172498D02*
Y274748D01*
G54D10*
X1962598Y313386D03*
X1883858D03*
G54D14*
X1078740Y27560D03*
X1198819D03*
G54D15*
X1082646Y358268D02*
X1086646D01*
G54D16*
X1068396Y374518D02*
X1100896D01*
X1068396Y342018D02*
X1100896D01*
G54D15*
X1082646Y437008D02*
X1086646D01*
G54D16*
X1068396Y453258D02*
X1100896D01*
X1068396Y420758D02*
X1100896D01*
G54D15*
X1082646Y397638D02*
X1086646D01*
G54D16*
X1068396Y413888D02*
X1100896D01*
X1068396Y381388D02*
X1100896D01*
G54D15*
X1082646Y476379D02*
X1086646D01*
G54D16*
X1068396Y492629D02*
X1100896D01*
X1068396Y460129D02*
X1100896D01*
G54D15*
X1082646Y515749D02*
X1086646D01*
G54D16*
X1068396Y531999D02*
X1100896D01*
X1068396Y499499D02*
X1100896D01*
G54D17*
X1257449Y288977D02*
X1261449D01*
G54D16*
X1208949Y339477D02*
X1309949D01*
X1208949Y238477D02*
X1309949D01*
G54D18*
X1493370Y27166D02*
X1585370D01*
G54D19*
X1480245Y43041D02*
X1598495D01*
X1480245Y11291D02*
X1598495D01*
%LPC*%
G75*
X1598495Y11291D02*
G54D20*
X1100414Y377953D02*
X1068878D01*
Y417323D02*
X1100414D01*
Y456693D02*
X1068878D01*
X1100414Y496064D02*
X1068878D01*
%LPD*%
G75*
X1068878Y496064D02*
G54D21*
X1043307Y39371D02*
X1043457Y35938D01*
X1043906Y32536D01*
X1044650Y29182D01*
X1045681Y25906D01*
X1046996Y22733D01*
X1048583Y19686D01*
X1050425Y16788D01*
X1052520Y14064D01*
X1054839Y11532D01*
X1057370Y9213D01*
X1060094Y7119D01*
X1062992Y5276D01*
X1066039Y3690D01*
X1069213Y2375D01*
X1072488Y1343D01*
X1075843Y599D01*
X1079244Y150D01*
X1082677Y1D01*
X1937008D01*
X1940441Y150D01*
X1943843Y599D01*
X1947197Y1343D01*
X1950472Y2375D01*
X1953646Y3690D01*
X1956693Y5276D01*
X1959591Y7119D01*
X1962315Y9213D01*
X1964846Y11532D01*
X1967165Y14064D01*
X1969260Y16788D01*
X1971102Y19686D01*
X1972689Y22733D01*
X1974004Y25906D01*
X1975035Y29182D01*
X1975780Y32536D01*
X1976228Y35938D01*
X1976378Y39371D01*
Y78741D01*
X1976453Y80457D01*
X1976677Y82158D01*
X1977047Y83835D01*
X1977567Y85473D01*
X1978220Y87060D01*
X1979016Y88583D01*
X1979937Y90032D01*
X1980984Y91394D01*
X1982142Y92662D01*
X1983409Y93819D01*
X1984772Y94867D01*
X1986220Y95788D01*
X1987744Y96583D01*
X1989331Y97237D01*
X1990968Y97756D01*
X1992646Y98127D01*
X1994346Y98351D01*
X1996063Y98426D01*
X1996748Y98457D01*
X1997429Y98544D01*
X1998102Y98693D01*
X1998756Y98902D01*
X1999390Y99162D01*
X2000000Y99481D01*
X2000579Y99851D01*
X2001126Y100268D01*
X2001630Y100733D01*
X2002094Y101237D01*
X2002512Y101784D01*
X2002882Y102363D01*
X2003201Y102973D01*
X2003461Y103607D01*
X2003669Y104260D01*
X2003819Y104934D01*
X2003906Y105615D01*
X2003937Y106300D01*
Y448819D01*
X2003921Y449162D01*
X2003878Y449504D01*
X2003803Y449839D01*
X2003701Y450166D01*
X2003567Y450485D01*
X2003409Y450788D01*
X2003224Y451079D01*
X2003016Y451351D01*
X2002783Y451603D01*
X2002531Y451835D01*
X2002260Y452044D01*
X2001968Y452229D01*
X2001665Y452386D01*
X2001346Y452520D01*
X2001020Y452623D01*
X2000685Y452697D01*
X2000343Y452741D01*
X2000000Y452756D01*
X1998283Y452831D01*
X1996583Y453056D01*
X1994906Y453426D01*
X1993268Y453945D01*
X1991681Y454599D01*
X1990157Y455394D01*
X1988709Y456316D01*
X1987346Y457363D01*
X1986079Y458520D01*
X1984921Y459788D01*
X1983874Y461150D01*
X1982953Y462599D01*
X1982157Y464123D01*
X1981504Y465709D01*
X1980984Y467347D01*
X1980614Y469024D01*
X1980390Y470725D01*
X1980315Y472441D01*
Y511812D01*
X1980165Y515245D01*
X1979717Y518646D01*
X1978972Y522001D01*
X1977941Y525276D01*
X1976626Y528449D01*
X1975039Y531497D01*
X1973197Y534394D01*
X1971102Y537119D01*
X1968783Y539650D01*
X1966252Y541969D01*
X1963528Y544064D01*
X1960630Y545906D01*
X1957583Y547493D01*
X1954409Y548808D01*
X1951134Y549839D01*
X1947780Y550583D01*
X1944378Y551032D01*
X1940945Y551182D01*
X1082677D01*
X1079244Y551032D01*
X1075843Y550583D01*
X1072488Y549839D01*
X1069213Y548808D01*
X1066039Y547493D01*
X1062992Y545906D01*
X1060094Y544064D01*
X1057370Y541969D01*
X1054839Y539650D01*
X1052520Y537119D01*
X1050425Y534394D01*
X1048583Y531497D01*
X1046996Y528449D01*
X1045681Y525276D01*
X1044650Y522001D01*
X1043906Y518646D01*
X1043457Y515245D01*
X1043307Y511812D01*
Y39371D01*
%LPC*%
G75*
X1043307Y39371D02*
G54D22*
X1075059Y171910D02*
X1119429D01*
Y275335D01*
X1075059D01*
Y171910D01*
X1102894Y344863D02*
Y359863D01*
Y390138D02*
Y405138D01*
Y429508D02*
Y444508D01*
Y469879D02*
Y482879D01*
Y509249D02*
Y522249D01*
X1252949Y236477D02*
X1265949D01*
X1600925Y10812D02*
Y45414D01*
X1477815D01*
Y10812D01*
X1102894Y359863D02*
X1104394D01*
Y344863D02*
X1102894D01*
Y405138D02*
X1104394D01*
Y390138D02*
X1102894D01*
Y444508D02*
X1104394D01*
Y429508D02*
X1102894D01*
Y482879D02*
X1104394D01*
Y469879D02*
X1102894D01*
Y522249D02*
X1104394D01*
Y509249D02*
X1102894D01*
X1252949Y234977D02*
Y236477D01*
X1265949D02*
Y234977D01*
X1602425Y10812D02*
X1600925D01*
X1477815D02*
X1476315D01*
%LPD*%
G75*
X1476315Y10812D02*
G54D23*
X1163803Y559831D03*
X1197268D03*
X1230732D03*
X1264197D03*
X1297661D03*
X1708986D03*
X1742450D03*
X1775915D03*
X1809379D03*
X1842844D03*
X1163803Y-8580D03*
X1197268D03*
X1230732D03*
X1264197D03*
X1297661D03*
X1708986D03*
X1742450D03*
X1775915D03*
X1809379D03*
X1842844D03*
G54D24*
X1163803Y629866D02*
Y551182D01*
X1297661Y629866D02*
Y551182D01*
X1708986Y629866D02*
Y551182D01*
X1842844Y629866D02*
Y551182D01*
X1163803Y-56D02*
Y-78740D01*
X1297661Y-56D02*
Y-78740D01*
X1708986Y-56D02*
Y-78740D01*
X1842844Y-56D02*
Y-78740D01*
G54D10*
X1883858Y835040D03*
X1962598D03*
G54D11*
X1097244Y731497D03*
G54D12*
Y823294D02*
Y883794D01*
G54D13*
X1075619Y802419D02*
Y904669D01*
X1118869Y802419D02*
Y904669D01*
G54D10*
X1962598Y943308D03*
X1883858D03*
G54D14*
X1078740Y657481D03*
X1198819D03*
G54D15*
X1082646Y988190D02*
X1086646D01*
G54D16*
X1068396Y1004440D02*
X1100896D01*
X1068396Y971940D02*
X1100896D01*
G54D15*
X1082646Y1066930D02*
X1086646D01*
G54D16*
X1068396Y1083180D02*
X1100896D01*
X1068396Y1050680D02*
X1100896D01*
G54D15*
X1082646Y1027560D02*
X1086646D01*
G54D16*
X1068396Y1043810D02*
X1100896D01*
X1068396Y1011310D02*
X1100896D01*
G54D15*
X1082646Y1106300D02*
X1086646D01*
G54D16*
X1068396Y1122550D02*
X1100896D01*
X1068396Y1090050D02*
X1100896D01*
G54D15*
X1082646Y1145670D02*
X1086646D01*
G54D16*
X1068396Y1161920D02*
X1100896D01*
X1068396Y1129420D02*
X1100896D01*
G54D17*
X1257449Y918898D02*
X1261449D01*
G54D16*
X1208949Y969398D02*
X1309949D01*
X1208949Y868398D02*
X1309949D01*
G54D18*
X1493370Y657087D02*
X1585370D01*
G54D19*
X1480245Y672962D02*
X1598495D01*
X1480245Y641212D02*
X1598495D01*
%LPC*%
G75*
X1598495Y641212D02*
G54D20*
X1100414Y1007875D02*
X1068878D01*
Y1047245D02*
X1100414D01*
Y1086615D02*
X1068878D01*
X1100414Y1125985D02*
X1068878D01*
%LPD*%
G75*
X1068878Y1125985D02*
G54D21*
X1043307Y669292D02*
X1043457Y665859D01*
X1043906Y662457D01*
X1044650Y659103D01*
X1045681Y655827D01*
X1046996Y652654D01*
X1048583Y649607D01*
X1050425Y646709D01*
X1052520Y643985D01*
X1054839Y641453D01*
X1057370Y639134D01*
X1060094Y637040D01*
X1062992Y635197D01*
X1066039Y633611D01*
X1069213Y632296D01*
X1072488Y631264D01*
X1075843Y630520D01*
X1079244Y630071D01*
X1082677Y629922D01*
X1937008D01*
X1940441Y630071D01*
X1943843Y630520D01*
X1947197Y631264D01*
X1950472Y632296D01*
X1953646Y633611D01*
X1956693Y635197D01*
X1959591Y637040D01*
X1962315Y639134D01*
X1964846Y641453D01*
X1967165Y643985D01*
X1969260Y646709D01*
X1971102Y649607D01*
X1972689Y652654D01*
X1974004Y655827D01*
X1975035Y659103D01*
X1975780Y662457D01*
X1976228Y665859D01*
X1976378Y669292D01*
Y708662D01*
X1976453Y710379D01*
X1976677Y712079D01*
X1977047Y713756D01*
X1977567Y715394D01*
X1978220Y716981D01*
X1979016Y718504D01*
X1979937Y719953D01*
X1980984Y721316D01*
X1982142Y722583D01*
X1983409Y723741D01*
X1984772Y724788D01*
X1986220Y725709D01*
X1987744Y726504D01*
X1989331Y727158D01*
X1990968Y727678D01*
X1992646Y728048D01*
X1994346Y728272D01*
X1996063Y728347D01*
X1996748Y728379D01*
X1997429Y728465D01*
X1998102Y728615D01*
X1998756Y728823D01*
X1999390Y729083D01*
X2000000Y729402D01*
X2000579Y729772D01*
X2001126Y730190D01*
X2001630Y730654D01*
X2002094Y731158D01*
X2002512Y731705D01*
X2002882Y732284D01*
X2003201Y732894D01*
X2003461Y733528D01*
X2003669Y734182D01*
X2003819Y734855D01*
X2003906Y735536D01*
X2003937Y736221D01*
Y1078741D01*
X2003921Y1079083D01*
X2003878Y1079426D01*
X2003803Y1079760D01*
X2003701Y1080087D01*
X2003567Y1080406D01*
X2003409Y1080709D01*
X2003224Y1081001D01*
X2003016Y1081272D01*
X2002783Y1081524D01*
X2002531Y1081756D01*
X2002260Y1081965D01*
X2001968Y1082150D01*
X2001665Y1082308D01*
X2001346Y1082441D01*
X2001020Y1082544D01*
X2000685Y1082619D01*
X2000343Y1082662D01*
X2000000Y1082678D01*
X1998283Y1082753D01*
X1996583Y1082977D01*
X1994906Y1083347D01*
X1993268Y1083867D01*
X1991681Y1084520D01*
X1990157Y1085316D01*
X1988709Y1086237D01*
X1987346Y1087284D01*
X1986079Y1088441D01*
X1984921Y1089709D01*
X1983874Y1091071D01*
X1982953Y1092520D01*
X1982157Y1094044D01*
X1981504Y1095630D01*
X1980984Y1097268D01*
X1980614Y1098945D01*
X1980390Y1100646D01*
X1980315Y1102363D01*
Y1141733D01*
X1980165Y1145166D01*
X1979717Y1148567D01*
X1978972Y1151922D01*
X1977941Y1155197D01*
X1976626Y1158371D01*
X1975039Y1161418D01*
X1973197Y1164316D01*
X1971102Y1167040D01*
X1968783Y1169571D01*
X1966252Y1171890D01*
X1963528Y1173985D01*
X1960630Y1175827D01*
X1957583Y1177414D01*
X1954409Y1178729D01*
X1951134Y1179760D01*
X1947780Y1180504D01*
X1944378Y1180953D01*
X1940945Y1181103D01*
X1082677D01*
X1079244Y1180953D01*
X1075843Y1180504D01*
X1072488Y1179760D01*
X1069213Y1178729D01*
X1066039Y1177414D01*
X1062992Y1175827D01*
X1060094Y1173985D01*
X1057370Y1171890D01*
X1054839Y1169571D01*
X1052520Y1167040D01*
X1050425Y1164316D01*
X1048583Y1161418D01*
X1046996Y1158371D01*
X1045681Y1155197D01*
X1044650Y1151922D01*
X1043906Y1148567D01*
X1043457Y1145166D01*
X1043307Y1141733D01*
Y669292D01*
%LPC*%
G75*
X1043307Y669292D02*
G54D22*
X1075059Y801831D02*
X1119429D01*
Y905256D01*
X1075059D01*
Y801831D01*
X1102894Y974784D02*
Y989784D01*
Y1020060D02*
Y1035060D01*
Y1059430D02*
Y1074430D01*
Y1099800D02*
Y1112800D01*
Y1139170D02*
Y1152170D01*
X1252949Y866398D02*
X1265949D01*
X1600925Y640733D02*
Y675335D01*
X1477815D01*
Y640733D01*
X1102894Y989784D02*
X1104394D01*
Y974784D02*
X1102894D01*
Y1035060D02*
X1104394D01*
Y1020060D02*
X1102894D01*
Y1074430D02*
X1104394D01*
Y1059430D02*
X1102894D01*
Y1112800D02*
X1104394D01*
Y1099800D02*
X1102894D01*
Y1152170D02*
X1104394D01*
Y1139170D02*
X1102894D01*
X1252949Y864898D02*
Y866398D01*
X1265949D02*
Y864898D01*
X1602425Y640733D02*
X1600925D01*
X1477815D02*
X1476315D01*
%LPD*%
G75*
X1476315Y640733D02*
G54D23*
X1163803Y1189752D03*
X1197268D03*
X1230732D03*
X1264197D03*
X1297661D03*
X1708986D03*
X1742450D03*
X1775915D03*
X1809379D03*
X1842844D03*
X1163803Y621341D03*
X1197268D03*
X1230732D03*
X1264197D03*
X1297661D03*
X1708986D03*
X1742450D03*
X1775915D03*
X1809379D03*
X1842844D03*
G54D24*
X1163803Y1259787D02*
Y1181103D01*
X1297661Y1259787D02*
Y1181103D01*
X1708986Y1259787D02*
Y1181103D01*
X1842844Y1259787D02*
Y1181103D01*
X1163803Y629866D02*
Y551182D01*
X1297661Y629866D02*
Y551182D01*
X1708986Y629866D02*
Y551182D01*
X1842844Y629866D02*
Y551182D01*
G54D25*
X82677Y-275590D02*
X1925197D01*
X2003937Y-196850D02*
Y-78740D01*
X3937D02*
Y-196850D01*
X2003937Y-78740D02*
X3937D01*
Y1259843D02*
X2003937D01*
Y1377953D01*
X1925197Y1456693D02*
X82677D01*
X3937Y1377953D02*
Y1259843D01*
X82677Y-275590D02*
X73880Y-275097D01*
X65193Y-273624D01*
X56725Y-271190D01*
X48582Y-267825D01*
X40866Y-263572D01*
X33673Y-258483D01*
X27094Y-252622D01*
X21211Y-246063D01*
X16098Y-238888D01*
X11818Y-231186D01*
X8425Y-223054D01*
X5963Y-214595D01*
X4460Y-205913D01*
X3938Y-197117D01*
X3937Y-196850D01*
X82677Y1456693D02*
X73880Y1456200D01*
X65193Y1454727D01*
X56725Y1452293D01*
X48582Y1448928D01*
X40866Y1444675D01*
X33673Y1439586D01*
X27094Y1433725D01*
X21211Y1427166D01*
X16098Y1419991D01*
X11818Y1412289D01*
X8425Y1404157D01*
X5963Y1395698D01*
X4460Y1387016D01*
X3938Y1378220D01*
X3937Y1377953D01*
X2003937D02*
X2003444Y1386750D01*
X2001971Y1395437D01*
X1999537Y1403905D01*
X1996172Y1412048D01*
X1991919Y1419764D01*
X1986830Y1426957D01*
X1980969Y1433536D01*
X1974410Y1439419D01*
X1967235Y1444532D01*
X1959533Y1448812D01*
X1951401Y1452205D01*
X1942942Y1454667D01*
X1934260Y1456170D01*
X1925464Y1456692D01*
X1925197Y1456693D01*
Y-275590D02*
X1933994Y-275097D01*
X1942681Y-273624D01*
X1951149Y-271190D01*
X1959292Y-267825D01*
X1967008Y-263572D01*
X1974201Y-258483D01*
X1980780Y-252622D01*
X1986663Y-246063D01*
X1991776Y-238888D01*
X1996056Y-231186D01*
X1999449Y-223054D01*
X2001912Y-214595D01*
X2003414Y-205913D01*
X2003937Y-197117D01*
X2003937Y-196850D01*
G54D26*
X200787Y-177165D03*
X1807087D03*
Y1358268D03*
X397638D03*
G54D27*
Y-177165D03*
X1610236D03*
Y1358268D03*
X594488D03*
M02*
