*
%FSLAX26Y26*%
%MOIN*%
%ADD10C,0.006000*%
%ADD11R,0.011811X0.011811*%
%ADD12C,0.005362*%
%ADD13C,0.005000*%
%ADD14C,0.007874*%
%ADD15C,0.019685*%
%ADD16C,0.005010*%
%ADD17C,0.004876*%
%ADD18C,0.004734*%
%ADD19C,0.023124*%
%ADD20C,0.021549*%
%ADD21C,0.012986*%
%ADD22C,0.013004*%
%ADD23R,0.028850X0.028850*%
%ADD24C,0.004000*%
%ADD25R,0.031850X0.031850*%
%ADD26C,0.001000*%
%ADD27R,0.072100X0.072100*%
%ADD28C,0.041350*%
%ADD29C,0.050850*%
%ADD30R,0.035600X0.035600*%
%ADD31C,0.001500*%
%ADD32C,0.053100*%
%ADD33R,0.023600X0.023600*%
%ADD34C,0.024194*%
%ADD35R,0.043600X0.043600*%
%ADD36C,0.023194*%
%ADD37C,0.017943*%
%ADD38C,0.017549*%
%ADD39C,0.015974*%
%ADD40R,0.024124X0.024124*%
%ADD41R,0.022943X0.022943*%
%ADD42C,0.014006*%
%IPPOS*%
%LNgto.gbr*%
%LPD*%
G75*
G54D10*
X31496Y519686D02*
X31504Y519859D01*
X31528Y520032D01*
X31567Y520201D01*
X31618Y520367D01*
X31685Y520528D01*
X31768Y520682D01*
X31862Y520827D01*
X31968Y520965D01*
X32087Y521091D01*
X32217Y521209D01*
X32358Y521312D01*
X32504Y521406D01*
X32661Y521481D01*
X32823Y521548D01*
X32992Y521595D01*
X33161Y521630D01*
X33335Y521650D01*
X33508Y521654D01*
X33681Y521642D01*
X33854Y521615D01*
X34024Y521571D01*
X34189Y521516D01*
X34346Y521445D01*
X34500Y521359D01*
X34642Y521264D01*
X34776Y521154D01*
X34902Y521032D01*
X35016Y520898D01*
X35118Y520756D01*
X35205Y520607D01*
X35280Y520449D01*
X35339Y520284D01*
X35386Y520119D01*
X35417Y519945D01*
X35433Y519772D01*
Y519599D01*
X35417Y519426D01*
X35386Y519253D01*
X35339Y519087D01*
X35280Y518922D01*
X35205Y518764D01*
X35118Y518615D01*
X35016Y518473D01*
X34902Y518339D01*
X34776Y518217D01*
X34642Y518107D01*
X34500Y518012D01*
X34346Y517926D01*
X34189Y517855D01*
X34024Y517800D01*
X33854Y517756D01*
X33681Y517729D01*
X33508Y517717D01*
X33335Y517721D01*
X33161Y517741D01*
X32992Y517776D01*
X32823Y517823D01*
X32661Y517890D01*
X32504Y517965D01*
X32358Y518060D01*
X32217Y518162D01*
X32087Y518280D01*
X31968Y518406D01*
X31862Y518544D01*
X31768Y518690D01*
X31685Y518843D01*
X31618Y519004D01*
X31567Y519170D01*
X31528Y519339D01*
X31504Y519512D01*
X31496Y519686D01*
G54D11*
X672441Y190945D02*
X680315D01*
X672441Y163386D02*
X680315D01*
G54D12*
X684252Y159449D02*
Y194882D01*
X668504D02*
Y159449D01*
G54D13*
X513256Y537402D02*
X17193D01*
X513256D02*
Y76772D01*
X17193D01*
Y537402D01*
G54D11*
X892913Y407331D03*
X893701Y432284D03*
X893157Y385827D03*
G54D12*
X580709Y114174D02*
X541339D01*
X580709D02*
Y141733D01*
Y153544D01*
X568898D01*
X541339D01*
Y114174D01*
X580709Y141733D02*
X568898Y153544D01*
G54D11*
X625197Y163386D02*
X633071D01*
X625197Y190945D02*
X633071D01*
G54D12*
X621260Y194882D02*
Y159449D01*
X637008D02*
Y194882D01*
G54D14*
X780276Y56693D03*
G54D12*
X869685Y432087D02*
Y439961D01*
Y432087D02*
Y375001D01*
X814567D01*
Y439961D01*
X861811D01*
X869685D01*
G54D14*
X874606Y444882D03*
G54D11*
X884402Y129134D02*
X904087D01*
X884402Y77953D02*
X904087D01*
G54D12*
X908024Y74016D02*
Y133071D01*
X880465D02*
Y74016D01*
G54D11*
X758661Y165355D02*
X766535D01*
X758661Y137796D02*
X766535D01*
G54D12*
X770472Y133859D02*
Y169292D01*
X754724D02*
Y133859D01*
G54D11*
X720079Y165355D02*
X727953D01*
X720079Y137796D02*
X727953D01*
G54D12*
X731890Y133859D02*
Y169292D01*
X716142D02*
Y133859D01*
G54D14*
X541929Y59292D03*
G54D13*
X888583Y536615D02*
X895669D01*
Y520867D01*
Y471260D02*
Y455512D01*
X888583D01*
X821654D02*
X814567D01*
Y471260D01*
Y536615D02*
X821654D01*
X814567D02*
Y520867D01*
G54D14*
X903543Y446851D03*
G54D15*
X593937Y154918D03*
G54D16*
X775873Y257947D02*
X518970D01*
X775873D02*
X801503Y283577D01*
Y540479D01*
X518970D01*
Y257947D01*
G54D17*
X543496Y61207D02*
Y96274D01*
X578551D01*
Y61207D01*
X543496D01*
G54D18*
X778069Y59333D02*
Y72974D01*
Y59333D02*
X764805D01*
X707758D02*
Y72974D01*
Y59333D02*
X721022D01*
X707758Y100255D02*
Y113896D01*
X721022D01*
X778069D02*
Y100255D01*
Y113896D02*
X764805D01*
%LPC*%
G75*
X764805Y113896D02*
G54D19*
X957087Y227166D02*
Y183071D01*
X810630D01*
Y227166D01*
X957087D01*
Y193544D02*
X810630D01*
Y204016D02*
X957087D01*
Y214489D02*
X810630D01*
Y224961D02*
X957087D01*
X810630Y291339D02*
Y335434D01*
X957087D01*
Y291339D01*
X810630D01*
Y301812D02*
X957087D01*
Y312284D02*
X810630D01*
Y322756D02*
X957087D01*
Y333229D02*
X810630D01*
G54D20*
X852697Y78150D02*
Y63977D01*
X798689D01*
Y78150D01*
X852697D01*
Y72953D02*
X798689D01*
X852697Y128938D02*
Y143111D01*
Y128938D02*
X798689D01*
Y143111D01*
X852697D01*
Y137914D02*
X798689D01*
G54D21*
X880264Y481741D02*
Y490701D01*
X890209D01*
Y481741D01*
X880264D01*
Y482583D02*
X890209D01*
Y483426D02*
X880264D01*
Y484268D02*
X890209D01*
Y485111D02*
X880264D01*
Y485953D02*
X890209D01*
Y486796D02*
X880264D01*
Y487638D02*
X890209D01*
Y488481D02*
X880264D01*
Y489323D02*
X890209D01*
Y490166D02*
X880264D01*
Y501426D02*
Y510386D01*
X890209D01*
Y501426D01*
X880264D01*
Y502268D02*
X890209D01*
Y503111D02*
X880264D01*
Y503953D02*
X890209D01*
Y504796D02*
X880264D01*
Y505638D02*
X890209D01*
Y506481D02*
X880264D01*
Y507323D02*
X890209D01*
Y508166D02*
X880264D01*
Y509008D02*
X890209D01*
Y509851D02*
X880264D01*
X870323Y521209D02*
Y531154D01*
X879283D01*
Y521209D01*
X870323D01*
Y522052D02*
X879283D01*
Y522894D02*
X870323D01*
Y523737D02*
X879283D01*
Y524579D02*
X870323D01*
Y525422D02*
X879283D01*
Y526264D02*
X870323D01*
Y527107D02*
X879283D01*
Y527949D02*
X870323D01*
Y528792D02*
X879283D01*
Y529634D02*
X870323D01*
Y530477D02*
X879283D01*
X850638Y531154D02*
Y521209D01*
Y531154D02*
X859598D01*
Y521209D01*
X850638D01*
Y522052D02*
X859598D01*
Y522894D02*
X850638D01*
Y523737D02*
X859598D01*
Y524579D02*
X850638D01*
Y525422D02*
X859598D01*
Y526264D02*
X850638D01*
Y527107D02*
X859598D01*
Y527949D02*
X850638D01*
Y528792D02*
X859598D01*
Y529634D02*
X850638D01*
Y530477D02*
X859598D01*
X830953Y531154D02*
Y521209D01*
Y531154D02*
X839913D01*
Y521209D01*
X830953D01*
Y522052D02*
X839913D01*
Y522894D02*
X830953D01*
Y523737D02*
X839913D01*
Y524579D02*
X830953D01*
Y525422D02*
X839913D01*
Y526264D02*
X830953D01*
Y527107D02*
X839913D01*
Y527949D02*
X830953D01*
Y528792D02*
X839913D01*
Y529634D02*
X830953D01*
Y530477D02*
X839913D01*
X820028Y510386D02*
Y501426D01*
Y510386D02*
X829972D01*
Y501426D01*
X820028D01*
Y502268D02*
X829972D01*
Y503111D02*
X820028D01*
Y503953D02*
X829972D01*
Y504796D02*
X820028D01*
Y505638D02*
X829972D01*
Y506481D02*
X820028D01*
Y507323D02*
X829972D01*
Y508166D02*
X820028D01*
Y509008D02*
X829972D01*
Y509851D02*
X820028D01*
Y490701D02*
Y481741D01*
Y490701D02*
X829972D01*
Y481741D01*
X820028D01*
Y482583D02*
X829972D01*
Y483426D02*
X820028D01*
Y484268D02*
X829972D01*
Y485111D02*
X820028D01*
Y485953D02*
X829972D01*
Y486796D02*
X820028D01*
Y487638D02*
X829972D01*
Y488481D02*
X820028D01*
Y489323D02*
X829972D01*
Y490166D02*
X820028D01*
X830953Y470918D02*
Y460973D01*
Y470918D02*
X839913D01*
Y460973D01*
X830953D01*
Y461816D02*
X839913D01*
Y462658D02*
X830953D01*
Y463501D02*
X839913D01*
Y464343D02*
X830953D01*
Y465186D02*
X839913D01*
Y466028D02*
X830953D01*
Y466871D02*
X839913D01*
Y467713D02*
X830953D01*
Y468556D02*
X839913D01*
Y469398D02*
X830953D01*
Y470241D02*
X839913D01*
X850638Y470918D02*
Y460973D01*
Y470918D02*
X859598D01*
Y460973D01*
X850638D01*
Y461816D02*
X859598D01*
Y462658D02*
X850638D01*
Y463501D02*
X859598D01*
Y464343D02*
X850638D01*
Y465186D02*
X859598D01*
Y466028D02*
X850638D01*
Y466871D02*
X859598D01*
Y467713D02*
X850638D01*
Y468556D02*
X859598D01*
Y469398D02*
X850638D01*
Y470241D02*
X859598D01*
G54D22*
X870236Y470906D02*
Y460985D01*
Y470906D02*
X879370D01*
Y460985D01*
X870236D01*
Y461843D02*
X879370D01*
Y462701D02*
X870236D01*
Y463560D02*
X879370D01*
Y464418D02*
X870236D01*
Y465276D02*
X879370D01*
Y466134D02*
X870236D01*
Y466993D02*
X879370D01*
Y467851D02*
X870236D01*
Y468709D02*
X879370D01*
Y469567D02*
X870236D01*
Y470426D02*
X879370D01*
G54D23*
X674378Y194882D02*
X678378D01*
G54D24*
X661953Y209307D02*
X690803D01*
X661953Y180457D02*
X690803D01*
G54D23*
X674378Y159449D02*
X678378D01*
G54D24*
X661953Y173874D02*
X690803D01*
X661953Y145024D02*
X690803D01*
G54D25*
X36408Y480316D02*
X49158D01*
G54D26*
X20983Y496241D02*
X64583D01*
X20983Y464391D02*
X64583D01*
G54D25*
X36408Y448819D02*
X49158D01*
G54D26*
X20983Y464744D02*
X64583D01*
X20983Y432894D02*
X64583D01*
G54D25*
X36408Y417323D02*
X49158D01*
G54D26*
X20983Y433248D02*
X64583D01*
X20983Y401398D02*
X64583D01*
G54D25*
X36408Y385827D02*
X49158D01*
G54D26*
X20983Y401752D02*
X64583D01*
X20983Y369902D02*
X64583D01*
G54D25*
X36408Y354331D02*
X49158D01*
G54D26*
X20983Y370256D02*
X64583D01*
X20983Y338406D02*
X64583D01*
G54D25*
X36408Y322835D02*
X49158D01*
G54D26*
X20983Y338760D02*
X64583D01*
X20983Y306910D02*
X64583D01*
G54D25*
X36408Y291339D02*
X49158D01*
G54D26*
X20983Y307264D02*
X64583D01*
X20983Y275414D02*
X64583D01*
G54D25*
X36408Y259843D02*
X49158D01*
G54D26*
X20983Y275768D02*
X64583D01*
X20983Y243918D02*
X64583D01*
G54D25*
X36408Y228347D02*
X49158D01*
G54D26*
X20983Y244272D02*
X64583D01*
X20983Y212422D02*
X64583D01*
G54D25*
X36408Y196851D02*
X49158D01*
G54D26*
X20983Y212776D02*
X64583D01*
X20983Y180926D02*
X64583D01*
G54D25*
X36408Y165355D02*
X49158D01*
G54D26*
X20983Y181280D02*
X64583D01*
X20983Y149430D02*
X64583D01*
G54D25*
X36408Y133859D02*
X49158D01*
G54D26*
X20983Y149784D02*
X64583D01*
X20983Y117934D02*
X64583D01*
G54D25*
X91996Y95988D02*
Y108738D01*
G54D26*
X76071Y80563D02*
Y124163D01*
X107921Y80563D02*
Y124163D01*
G54D25*
X123492Y95988D02*
Y108738D01*
G54D26*
X107567Y80563D02*
Y124163D01*
X139417Y80563D02*
Y124163D01*
G54D25*
X154988Y95988D02*
Y108738D01*
G54D26*
X139063Y80563D02*
Y124163D01*
X170913Y80563D02*
Y124163D01*
G54D25*
X186484Y95988D02*
Y108738D01*
G54D26*
X170559Y80563D02*
Y124163D01*
X202409Y80563D02*
Y124163D01*
G54D25*
X217980Y95988D02*
Y108738D01*
G54D26*
X202055Y80563D02*
Y124163D01*
X233905Y80563D02*
Y124163D01*
G54D25*
X249476Y95988D02*
Y108738D01*
G54D26*
X233551Y80563D02*
Y124163D01*
X265401Y80563D02*
Y124163D01*
G54D25*
X280972Y95988D02*
Y108738D01*
G54D26*
X265047Y80563D02*
Y124163D01*
X296897Y80563D02*
Y124163D01*
G54D25*
X312468Y95988D02*
Y108738D01*
G54D26*
X296543Y80563D02*
Y124163D01*
X328393Y80563D02*
Y124163D01*
G54D25*
X343965Y95988D02*
Y108738D01*
G54D26*
X328040Y80563D02*
Y124163D01*
X359890Y80563D02*
Y124163D01*
G54D25*
X375461Y95988D02*
Y108738D01*
G54D26*
X359536Y80563D02*
Y124163D01*
X391386Y80563D02*
Y124163D01*
G54D25*
X406957Y95988D02*
Y108738D01*
G54D26*
X391032Y80563D02*
Y124163D01*
X422882Y80563D02*
Y124163D01*
G54D25*
X438453Y95988D02*
Y108738D01*
G54D26*
X422528Y80563D02*
Y124163D01*
X454378Y80563D02*
Y124163D01*
G54D25*
X481290Y133859D02*
X494040D01*
G54D26*
X465865Y149784D02*
X509465D01*
X465865Y117934D02*
X509465D01*
G54D25*
X481290Y165355D02*
X494040D01*
G54D26*
X465865Y181280D02*
X509465D01*
X465865Y149430D02*
X509465D01*
G54D25*
X481290Y196851D02*
X494040D01*
G54D26*
X465865Y212776D02*
X509465D01*
X465865Y180926D02*
X509465D01*
G54D25*
X481290Y228347D02*
X494040D01*
G54D26*
X465865Y244272D02*
X509465D01*
X465865Y212422D02*
X509465D01*
G54D25*
X481290Y259843D02*
X494040D01*
G54D26*
X465865Y275768D02*
X509465D01*
X465865Y243918D02*
X509465D01*
G54D25*
X481290Y291339D02*
X494040D01*
G54D26*
X465865Y307264D02*
X509465D01*
X465865Y275414D02*
X509465D01*
G54D25*
X481290Y322835D02*
X494040D01*
G54D26*
X465865Y338760D02*
X509465D01*
X465865Y306910D02*
X509465D01*
G54D25*
X481290Y354331D02*
X494040D01*
G54D26*
X465865Y370256D02*
X509465D01*
X465865Y338406D02*
X509465D01*
G54D25*
X481290Y385827D02*
X494040D01*
G54D26*
X465865Y401752D02*
X509465D01*
X465865Y369902D02*
X509465D01*
G54D25*
X481290Y417323D02*
X494040D01*
G54D26*
X465865Y433248D02*
X509465D01*
X465865Y401398D02*
X509465D01*
G54D25*
X481290Y448819D02*
X494040D01*
G54D26*
X465865Y464744D02*
X509465D01*
X465865Y432894D02*
X509465D01*
G54D25*
X481290Y480316D02*
X494040D01*
G54D26*
X465865Y496241D02*
X509465D01*
X465865Y464391D02*
X509465D01*
G54D25*
X438453Y505437D02*
Y518187D01*
G54D26*
X422528Y490012D02*
Y533612D01*
X454378Y490012D02*
Y533612D01*
G54D25*
X406957Y505437D02*
Y518187D01*
G54D26*
X391032Y490012D02*
Y533612D01*
X422882Y490012D02*
Y533612D01*
G54D25*
X375461Y505437D02*
Y518187D01*
G54D26*
X359536Y490012D02*
Y533612D01*
X391386Y490012D02*
Y533612D01*
G54D25*
X343965Y505437D02*
Y518187D01*
G54D26*
X328040Y490012D02*
Y533612D01*
X359890Y490012D02*
Y533612D01*
G54D25*
X312468Y505437D02*
Y518187D01*
G54D26*
X296543Y490012D02*
Y533612D01*
X328393Y490012D02*
Y533612D01*
G54D25*
X280972Y505437D02*
Y518187D01*
G54D26*
X265047Y490012D02*
Y533612D01*
X296897Y490012D02*
Y533612D01*
G54D25*
X249476Y505437D02*
Y518187D01*
G54D26*
X233551Y490012D02*
Y533612D01*
X265401Y490012D02*
Y533612D01*
G54D25*
X217980Y505437D02*
Y518187D01*
G54D26*
X202055Y490012D02*
Y533612D01*
X233905Y490012D02*
Y533612D01*
G54D25*
X186484Y505437D02*
Y518187D01*
G54D26*
X170559Y490012D02*
Y533612D01*
X202409Y490012D02*
Y533612D01*
G54D25*
X154988Y505437D02*
Y518187D01*
G54D26*
X139063Y490012D02*
Y533612D01*
X170913Y490012D02*
Y533612D01*
G54D25*
X123492Y505437D02*
Y518187D01*
G54D26*
X107567Y490012D02*
Y533612D01*
X139417Y490012D02*
Y533612D01*
G54D25*
X91996Y505437D02*
Y518187D01*
G54D26*
X76071Y490012D02*
Y533612D01*
X107921Y490012D02*
Y533612D01*
G54D27*
X172673Y397638D02*
X176673D01*
G54D24*
X138623Y433688D02*
X210723D01*
X138623Y361588D02*
X210723D01*
G54D27*
X263224Y397638D02*
X267224D01*
G54D24*
X229174Y433688D02*
X301274D01*
X229174Y361588D02*
X301274D01*
G54D27*
X353776Y397638D02*
X357776D01*
G54D24*
X319726Y433688D02*
X391826D01*
X319726Y361588D02*
X391826D01*
G54D27*
X172673Y307087D02*
X176673D01*
G54D24*
X138623Y343137D02*
X210723D01*
X138623Y271037D02*
X210723D01*
G54D27*
X263224Y307087D02*
X267224D01*
G54D24*
X229174Y343137D02*
X301274D01*
X229174Y271037D02*
X301274D01*
G54D27*
X353776Y307087D02*
X357776D01*
G54D24*
X319726Y343137D02*
X391826D01*
X319726Y271037D02*
X391826D01*
G54D27*
X172673Y216536D02*
X176673D01*
G54D24*
X138623Y252586D02*
X210723D01*
X138623Y180486D02*
X210723D01*
G54D27*
X263224Y216536D02*
X267224D01*
G54D24*
X229174Y252586D02*
X301274D01*
X229174Y180486D02*
X301274D01*
G54D27*
X353776Y216536D02*
X357776D01*
G54D24*
X319726Y252586D02*
X391826D01*
X319726Y180486D02*
X391826D01*
G54D28*
X844488Y205119D03*
X923228D03*
G54D29*
X57874Y101575D03*
G54D28*
X923228Y313386D03*
X844488D03*
G54D23*
X627134Y159449D02*
X631134D01*
G54D24*
X614709Y173874D02*
X643559D01*
X614709Y145024D02*
X643559D01*
G54D23*
X627134Y194882D02*
X631134D01*
G54D24*
X614709Y209307D02*
X643559D01*
X614709Y180457D02*
X643559D01*
G54D30*
X885619Y133071D02*
X902869D01*
G54D31*
X868569Y150871D02*
X919919D01*
X868569Y115271D02*
X919919D01*
G54D30*
X885619Y74016D02*
X902869D01*
G54D31*
X868569Y91816D02*
X919919D01*
X868569Y56216D02*
X919919D01*
G54D23*
X760598Y169292D02*
X764598D01*
G54D24*
X748173Y183717D02*
X777023D01*
X748173Y154867D02*
X777023D01*
G54D23*
X760598Y133859D02*
X764598D01*
G54D24*
X748173Y148284D02*
X777023D01*
X748173Y119434D02*
X777023D01*
G54D23*
X722016Y169292D02*
X726016D01*
G54D24*
X709591Y183717D02*
X738441D01*
X709591Y154867D02*
X738441D01*
G54D23*
X722016Y133859D02*
X726016D01*
G54D24*
X709591Y148284D02*
X738441D01*
X709591Y119434D02*
X738441D01*
G54D32*
X39370Y27560D03*
X159449D03*
G54D33*
X781502Y296851D02*
X787002D01*
G54D31*
X770452Y308651D02*
X798052D01*
X770452Y285051D02*
X798052D01*
G54D33*
X781502Y322441D02*
X787002D01*
G54D31*
X770452Y334241D02*
X798052D01*
X770452Y310641D02*
X798052D01*
G54D33*
X781502Y348032D02*
X787002D01*
G54D31*
X770452Y359832D02*
X798052D01*
X770452Y336232D02*
X798052D01*
G54D33*
X781502Y373623D02*
X787002D01*
G54D31*
X770452Y385423D02*
X798052D01*
X770452Y361823D02*
X798052D01*
G54D33*
X781502Y399213D02*
X787002D01*
G54D31*
X770452Y411013D02*
X798052D01*
X770452Y387413D02*
X798052D01*
G54D33*
X781502Y424804D02*
X787002D01*
G54D31*
X770452Y436604D02*
X798052D01*
X770452Y413004D02*
X798052D01*
G54D33*
X781502Y450394D02*
X787002D01*
G54D31*
X770452Y462194D02*
X798052D01*
X770452Y438594D02*
X798052D01*
G54D33*
X781502Y475985D02*
X787002D01*
G54D31*
X770452Y487785D02*
X798052D01*
X770452Y464185D02*
X798052D01*
G54D33*
X781502Y501575D02*
X787002D01*
G54D31*
X770452Y513375D02*
X798052D01*
X770452Y489775D02*
X798052D01*
G54D33*
X762598Y520479D02*
Y525979D01*
G54D31*
X750798Y509429D02*
Y537029D01*
X774398Y509429D02*
Y537029D01*
G54D33*
X737008Y520479D02*
Y525979D01*
G54D31*
X725208Y509429D02*
Y537029D01*
X748808Y509429D02*
Y537029D01*
G54D33*
X711417Y520479D02*
Y525979D01*
G54D31*
X699617Y509429D02*
Y537029D01*
X723217Y509429D02*
Y537029D01*
G54D33*
X683858Y520479D02*
Y525979D01*
G54D31*
X672058Y509429D02*
Y537029D01*
X695658Y509429D02*
Y537029D01*
G54D33*
X660236Y520479D02*
Y525979D01*
G54D31*
X648436Y509429D02*
Y537029D01*
X672036Y509429D02*
Y537029D01*
G54D33*
X634646Y520479D02*
Y525979D01*
G54D31*
X622846Y509429D02*
Y537029D01*
X646446Y509429D02*
Y537029D01*
G54D33*
X609055Y520479D02*
Y525979D01*
G54D31*
X597255Y509429D02*
Y537029D01*
X620855Y509429D02*
Y537029D01*
G54D33*
X583465Y520479D02*
Y525979D01*
G54D31*
X571665Y509429D02*
Y537029D01*
X595265Y509429D02*
Y537029D01*
G54D33*
X557874Y520479D02*
Y525979D01*
G54D31*
X546074Y509429D02*
Y537029D01*
X569674Y509429D02*
Y537029D01*
G54D33*
X533470Y501575D02*
X538970D01*
G54D31*
X522420Y513375D02*
X550020D01*
X522420Y489775D02*
X550020D01*
G54D33*
X533470Y475985D02*
X538970D01*
G54D31*
X522420Y487785D02*
X550020D01*
X522420Y464185D02*
X550020D01*
G54D33*
X533470Y450394D02*
X538970D01*
G54D31*
X522420Y462194D02*
X550020D01*
X522420Y438594D02*
X550020D01*
G54D33*
X533470Y424804D02*
X538970D01*
G54D31*
X522420Y436604D02*
X550020D01*
X522420Y413004D02*
X550020D01*
G54D33*
X533470Y399213D02*
X538970D01*
G54D31*
X522420Y411013D02*
X550020D01*
X522420Y387413D02*
X550020D01*
G54D33*
X533470Y373623D02*
X538970D01*
G54D31*
X522420Y385423D02*
X550020D01*
X522420Y361823D02*
X550020D01*
G54D33*
X533470Y348032D02*
X538970D01*
G54D31*
X522420Y359832D02*
X550020D01*
X522420Y336232D02*
X550020D01*
G54D33*
X533470Y322441D02*
X538970D01*
G54D31*
X522420Y334241D02*
X550020D01*
X522420Y310641D02*
X550020D01*
G54D33*
X533470Y296851D02*
X538970D01*
G54D31*
X522420Y308651D02*
X550020D01*
X522420Y285051D02*
X550020D01*
G54D33*
X557874Y272447D02*
Y277947D01*
G54D31*
X546074Y261397D02*
Y288997D01*
X569674Y261397D02*
Y288997D01*
G54D33*
X583465Y272447D02*
Y277947D01*
G54D31*
X571665Y261397D02*
Y288997D01*
X595265Y261397D02*
Y288997D01*
G54D33*
X609055Y272447D02*
Y277947D01*
G54D31*
X597255Y261397D02*
Y288997D01*
X620855Y261397D02*
Y288997D01*
G54D33*
X634646Y272447D02*
Y277947D01*
G54D31*
X622846Y261397D02*
Y288997D01*
X646446Y261397D02*
Y288997D01*
G54D33*
X660236Y272447D02*
Y277947D01*
G54D31*
X648436Y261397D02*
Y288997D01*
X672036Y261397D02*
Y288997D01*
G54D33*
X685827Y272447D02*
Y277947D01*
G54D31*
X674027Y261397D02*
Y288997D01*
X697627Y261397D02*
Y288997D01*
G54D33*
X711417Y272447D02*
Y277947D01*
G54D31*
X699617Y261397D02*
Y288997D01*
X723217Y261397D02*
Y288997D01*
G54D33*
X735039Y272447D02*
Y277947D01*
G54D31*
X723239Y261397D02*
Y288997D01*
X746839Y261397D02*
Y288997D01*
G54D33*
X762598Y272447D02*
Y277947D01*
G54D31*
X750798Y261397D02*
Y288997D01*
X774398Y261397D02*
Y288997D01*
G54D23*
X658236Y399213D02*
X662236D01*
G54D24*
X645811Y413638D02*
X674661D01*
X645811Y384788D02*
X674661D01*
G54D23*
X658236Y348032D02*
X662236D01*
G54D24*
X645811Y362457D02*
X674661D01*
X645811Y333607D02*
X674661D01*
G54D23*
X709417Y348032D02*
X713417D01*
G54D24*
X696992Y362457D02*
X725842D01*
X696992Y333607D02*
X725842D01*
G54D23*
X709417Y399213D02*
X713417D01*
G54D24*
X696992Y413638D02*
X725842D01*
X696992Y384788D02*
X725842D01*
G54D23*
X709417Y450394D02*
X713417D01*
G54D24*
X696992Y464819D02*
X725842D01*
X696992Y435969D02*
X725842D01*
G54D23*
X658236Y450394D02*
X662236D01*
G54D24*
X645811Y464819D02*
X674661D01*
X645811Y435969D02*
X674661D01*
G54D23*
X607055Y450394D02*
X611055D01*
G54D24*
X594630Y464819D02*
X623480D01*
X594630Y435969D02*
X623480D01*
G54D34*
X609252Y129528D02*
X620276D01*
X609252Y109843D02*
X620276D01*
X609252Y90158D02*
X620276D01*
X609252Y70473D02*
X620276D01*
X686023D02*
X697047D01*
X686023Y90158D02*
X697047D01*
X686023Y109843D02*
X697047D01*
X686023Y129528D02*
X697047D01*
G54D35*
X653150Y91626D02*
Y108376D01*
G54D26*
X631350Y70326D02*
Y129676D01*
X674950Y70326D02*
Y129676D01*
G54D25*
X676378Y159449D03*
G54D36*
X686023Y109843D02*
X697047D01*
X609252Y90158D02*
X620276D01*
X686023D02*
X697047D01*
X686023Y129528D02*
X697047D01*
G54D37*
X568898Y141733D03*
Y125985D03*
X553150D03*
Y141733D03*
X766535Y70867D03*
X750787D03*
X735039D03*
X719291D03*
X766535Y86615D03*
X750787D03*
X735039D03*
X719291D03*
X766535Y102363D03*
X750787D03*
X735039D03*
X719291D03*
G54D38*
X858858Y427166D03*
Y407481D03*
Y387796D03*
X842126Y417323D03*
Y397638D03*
X825394Y427166D03*
Y407481D03*
Y387796D03*
G54D39*
X554134Y71851D03*
Y85630D03*
X567913D03*
Y71851D03*
G54D40*
X902953Y404379D02*
Y410284D01*
X882874Y404379D02*
Y410284D01*
X903740Y429331D02*
Y435237D01*
X883661Y429331D02*
Y435237D01*
X903197Y382875D02*
Y388780D01*
X883118Y382875D02*
Y388780D01*
G54D41*
X883953Y361961D02*
Y365898D01*
X903638Y361961D02*
Y365898D01*
G54D42*
X3937Y39371D02*
X4087Y35938D01*
X4535Y32536D01*
X5280Y29182D01*
X6311Y25906D01*
X7626Y22733D01*
X9213Y19686D01*
X11055Y16788D01*
X13150Y14064D01*
X15468Y11532D01*
X18000Y9213D01*
X20724Y7119D01*
X23622Y5276D01*
X26669Y3690D01*
X29843Y2375D01*
X33118Y1343D01*
X36472Y599D01*
X39874Y150D01*
X43307Y1D01*
X897638D01*
X901071Y150D01*
X904472Y599D01*
X907827Y1343D01*
X911102Y2375D01*
X914276Y3690D01*
X917323Y5276D01*
X920220Y7119D01*
X922945Y9213D01*
X925476Y11532D01*
X927795Y14064D01*
X929890Y16788D01*
X931732Y19686D01*
X933319Y22733D01*
X934634Y25906D01*
X935665Y29182D01*
X936409Y32536D01*
X936858Y35938D01*
X937008Y39371D01*
Y78741D01*
X937083Y80457D01*
X937307Y82158D01*
X937677Y83835D01*
X938197Y85473D01*
X938850Y87060D01*
X939646Y88583D01*
X940567Y90032D01*
X941614Y91394D01*
X942772Y92662D01*
X944039Y93819D01*
X945402Y94867D01*
X946850Y95788D01*
X948374Y96583D01*
X949961Y97237D01*
X951598Y97756D01*
X953276Y98127D01*
X954976Y98351D01*
X956693Y98426D01*
X957378Y98457D01*
X958059Y98544D01*
X958732Y98693D01*
X959386Y98902D01*
X960020Y99162D01*
X960630Y99481D01*
X961209Y99851D01*
X961756Y100268D01*
X962260Y100733D01*
X962724Y101237D01*
X963142Y101784D01*
X963512Y102363D01*
X963831Y102973D01*
X964091Y103607D01*
X964299Y104260D01*
X964449Y104934D01*
X964535Y105615D01*
X964567Y106300D01*
Y448819D01*
X964551Y449162D01*
X964508Y449504D01*
X964433Y449839D01*
X964331Y450166D01*
X964197Y450485D01*
X964039Y450788D01*
X963854Y451079D01*
X963646Y451351D01*
X963413Y451603D01*
X963161Y451835D01*
X962890Y452044D01*
X962598Y452229D01*
X962295Y452386D01*
X961976Y452520D01*
X961650Y452623D01*
X961315Y452697D01*
X960972Y452741D01*
X960630Y452756D01*
X958913Y452831D01*
X957213Y453056D01*
X955535Y453426D01*
X953898Y453945D01*
X952311Y454599D01*
X950787Y455394D01*
X949339Y456316D01*
X947976Y457363D01*
X946709Y458520D01*
X945551Y459788D01*
X944504Y461150D01*
X943583Y462599D01*
X942787Y464123D01*
X942134Y465709D01*
X941614Y467347D01*
X941244Y469024D01*
X941020Y470725D01*
X940945Y472441D01*
Y511812D01*
X940795Y515245D01*
X940346Y518646D01*
X939602Y522001D01*
X938571Y525276D01*
X937256Y528449D01*
X935669Y531497D01*
X933827Y534394D01*
X931732Y537119D01*
X929413Y539650D01*
X926882Y541969D01*
X924157Y544064D01*
X921260Y545906D01*
X918213Y547493D01*
X915039Y548808D01*
X911764Y549839D01*
X908409Y550583D01*
X905008Y551032D01*
X901575Y551182D01*
X43307D01*
X39874Y551032D01*
X36472Y550583D01*
X33118Y549839D01*
X29843Y548808D01*
X26669Y547493D01*
X23622Y545906D01*
X20724Y544064D01*
X18000Y541969D01*
X15468Y539650D01*
X13150Y537119D01*
X11055Y534394D01*
X9213Y531497D01*
X7626Y528449D01*
X6311Y525276D01*
X5280Y522001D01*
X4535Y518646D01*
X4087Y515245D01*
X3937Y511812D01*
Y39371D01*
%LPD*%
G75*
X3937Y39371D02*
G54D10*
X31496Y1149607D02*
X31504Y1149780D01*
X31528Y1149953D01*
X31567Y1150123D01*
X31618Y1150288D01*
X31685Y1150449D01*
X31768Y1150603D01*
X31862Y1150749D01*
X31968Y1150886D01*
X32087Y1151012D01*
X32217Y1151130D01*
X32358Y1151233D01*
X32504Y1151327D01*
X32661Y1151402D01*
X32823Y1151469D01*
X32992Y1151516D01*
X33161Y1151552D01*
X33335Y1151571D01*
X33508Y1151575D01*
X33681Y1151564D01*
X33854Y1151536D01*
X34024Y1151493D01*
X34189Y1151438D01*
X34346Y1151367D01*
X34500Y1151280D01*
X34642Y1151186D01*
X34776Y1151075D01*
X34902Y1150953D01*
X35016Y1150819D01*
X35118Y1150678D01*
X35205Y1150528D01*
X35280Y1150371D01*
X35339Y1150205D01*
X35386Y1150040D01*
X35417Y1149867D01*
X35433Y1149693D01*
Y1149520D01*
X35417Y1149347D01*
X35386Y1149174D01*
X35339Y1149008D01*
X35280Y1148843D01*
X35205Y1148686D01*
X35118Y1148536D01*
X35016Y1148394D01*
X34902Y1148260D01*
X34776Y1148138D01*
X34642Y1148028D01*
X34500Y1147934D01*
X34346Y1147847D01*
X34189Y1147776D01*
X34024Y1147721D01*
X33854Y1147678D01*
X33681Y1147650D01*
X33508Y1147638D01*
X33335Y1147642D01*
X33161Y1147662D01*
X32992Y1147697D01*
X32823Y1147745D01*
X32661Y1147812D01*
X32504Y1147886D01*
X32358Y1147981D01*
X32217Y1148083D01*
X32087Y1148201D01*
X31968Y1148327D01*
X31862Y1148465D01*
X31768Y1148611D01*
X31685Y1148764D01*
X31618Y1148926D01*
X31567Y1149091D01*
X31528Y1149260D01*
X31504Y1149434D01*
X31496Y1149607D01*
G54D11*
X672441Y820867D02*
X680315D01*
X672441Y793308D02*
X680315D01*
G54D12*
X684252Y789371D02*
Y824804D01*
X668504D02*
Y789371D01*
G54D13*
X513256Y1167323D02*
X17193D01*
X513256D02*
Y706693D01*
X17193D01*
Y1167323D01*
G54D11*
X892913Y1037253D03*
X893701Y1062205D03*
X893157Y1015749D03*
G54D12*
X580709Y744095D02*
X541339D01*
X580709D02*
Y771654D01*
Y783465D01*
X568898D01*
X541339D01*
Y744095D01*
X580709Y771654D02*
X568898Y783465D01*
G54D11*
X625197Y793308D02*
X633071D01*
X625197Y820867D02*
X633071D01*
G54D12*
X621260Y824804D02*
Y789371D01*
X637008D02*
Y824804D01*
G54D14*
X780276Y686615D03*
G54D12*
X869685Y1062008D02*
Y1069882D01*
Y1062008D02*
Y1004922D01*
X814567D01*
Y1069882D01*
X861811D01*
X869685D01*
G54D14*
X874606Y1074804D03*
G54D11*
X884402Y759056D02*
X904087D01*
X884402Y707875D02*
X904087D01*
G54D12*
X908024Y703938D02*
Y762993D01*
X880465D02*
Y703938D01*
G54D11*
X758661Y795276D02*
X766535D01*
X758661Y767717D02*
X766535D01*
G54D12*
X770472Y763780D02*
Y799213D01*
X754724D02*
Y763780D01*
G54D11*
X720079Y795276D02*
X727953D01*
X720079Y767717D02*
X727953D01*
G54D12*
X731890Y763780D02*
Y799213D01*
X716142D02*
Y763780D01*
G54D14*
X541929Y689213D03*
G54D13*
X888583Y1166536D02*
X895669D01*
Y1150788D01*
Y1101182D02*
Y1085434D01*
X888583D01*
X821654D02*
X814567D01*
Y1101182D01*
Y1166536D02*
X821654D01*
X814567D02*
Y1150788D01*
G54D14*
X903543Y1076772D03*
G54D15*
X593937Y784839D03*
G54D16*
X775873Y887869D02*
X518970D01*
X775873D02*
X801503Y913498D01*
Y1170400D01*
X518970D01*
Y887869D01*
G54D17*
X543496Y691129D02*
Y726195D01*
X578551D01*
Y691129D01*
X543496D01*
G54D18*
X778069Y689255D02*
Y702895D01*
Y689255D02*
X764805D01*
X707758D02*
Y702895D01*
Y689255D02*
X721022D01*
X707758Y730177D02*
Y743817D01*
X721022D01*
X778069D02*
Y730177D01*
Y743817D02*
X764805D01*
%LPC*%
G75*
X764805Y743817D02*
G54D19*
X957087Y857087D02*
Y812993D01*
X810630D01*
Y857087D01*
X957087D01*
Y823465D02*
X810630D01*
Y833938D02*
X957087D01*
Y844410D02*
X810630D01*
Y854882D02*
X957087D01*
X810630Y921260D02*
Y965355D01*
X957087D01*
Y921260D01*
X810630D01*
Y931733D02*
X957087D01*
Y942205D02*
X810630D01*
Y952678D02*
X957087D01*
Y963150D02*
X810630D01*
G54D20*
X852697Y708071D02*
Y693898D01*
X798689D01*
Y708071D01*
X852697D01*
Y702875D02*
X798689D01*
X852697Y758859D02*
Y773032D01*
Y758859D02*
X798689D01*
Y773032D01*
X852697D01*
Y767835D02*
X798689D01*
G54D21*
X880264Y1111662D02*
Y1120623D01*
X890209D01*
Y1111662D01*
X880264D01*
Y1112504D02*
X890209D01*
Y1113347D02*
X880264D01*
Y1114190D02*
X890209D01*
Y1115032D02*
X880264D01*
Y1115875D02*
X890209D01*
Y1116717D02*
X880264D01*
Y1117560D02*
X890209D01*
Y1118402D02*
X880264D01*
Y1119245D02*
X890209D01*
Y1120087D02*
X880264D01*
Y1131347D02*
Y1140308D01*
X890209D01*
Y1131347D01*
X880264D01*
Y1132190D02*
X890209D01*
Y1133032D02*
X880264D01*
Y1133875D02*
X890209D01*
Y1134717D02*
X880264D01*
Y1135560D02*
X890209D01*
Y1136402D02*
X880264D01*
Y1137245D02*
X890209D01*
Y1138087D02*
X880264D01*
Y1138930D02*
X890209D01*
Y1139772D02*
X880264D01*
X870323Y1151130D02*
Y1161075D01*
X879283D01*
Y1151130D01*
X870323D01*
Y1151973D02*
X879283D01*
Y1152816D02*
X870323D01*
Y1153658D02*
X879283D01*
Y1154501D02*
X870323D01*
Y1155343D02*
X879283D01*
Y1156186D02*
X870323D01*
Y1157028D02*
X879283D01*
Y1157871D02*
X870323D01*
Y1158713D02*
X879283D01*
Y1159556D02*
X870323D01*
Y1160398D02*
X879283D01*
X850638Y1161075D02*
Y1151130D01*
Y1161075D02*
X859598D01*
Y1151130D01*
X850638D01*
Y1151973D02*
X859598D01*
Y1152816D02*
X850638D01*
Y1153658D02*
X859598D01*
Y1154501D02*
X850638D01*
Y1155343D02*
X859598D01*
Y1156186D02*
X850638D01*
Y1157028D02*
X859598D01*
Y1157871D02*
X850638D01*
Y1158713D02*
X859598D01*
Y1159556D02*
X850638D01*
Y1160398D02*
X859598D01*
X830953Y1161075D02*
Y1151130D01*
Y1161075D02*
X839913D01*
Y1151130D01*
X830953D01*
Y1151973D02*
X839913D01*
Y1152816D02*
X830953D01*
Y1153658D02*
X839913D01*
Y1154501D02*
X830953D01*
Y1155343D02*
X839913D01*
Y1156186D02*
X830953D01*
Y1157028D02*
X839913D01*
Y1157871D02*
X830953D01*
Y1158713D02*
X839913D01*
Y1159556D02*
X830953D01*
Y1160398D02*
X839913D01*
X820028Y1140308D02*
Y1131347D01*
Y1140308D02*
X829972D01*
Y1131347D01*
X820028D01*
Y1132190D02*
X829972D01*
Y1133032D02*
X820028D01*
Y1133875D02*
X829972D01*
Y1134717D02*
X820028D01*
Y1135560D02*
X829972D01*
Y1136402D02*
X820028D01*
Y1137245D02*
X829972D01*
Y1138087D02*
X820028D01*
Y1138930D02*
X829972D01*
Y1139772D02*
X820028D01*
Y1120623D02*
Y1111662D01*
Y1120623D02*
X829972D01*
Y1111662D01*
X820028D01*
Y1112504D02*
X829972D01*
Y1113347D02*
X820028D01*
Y1114190D02*
X829972D01*
Y1115032D02*
X820028D01*
Y1115875D02*
X829972D01*
Y1116717D02*
X820028D01*
Y1117560D02*
X829972D01*
Y1118402D02*
X820028D01*
Y1119245D02*
X829972D01*
Y1120087D02*
X820028D01*
X830953Y1100839D02*
Y1090894D01*
Y1100839D02*
X839913D01*
Y1090894D01*
X830953D01*
Y1091737D02*
X839913D01*
Y1092579D02*
X830953D01*
Y1093422D02*
X839913D01*
Y1094264D02*
X830953D01*
Y1095107D02*
X839913D01*
Y1095949D02*
X830953D01*
Y1096792D02*
X839913D01*
Y1097634D02*
X830953D01*
Y1098477D02*
X839913D01*
Y1099319D02*
X830953D01*
Y1100162D02*
X839913D01*
X850638Y1100839D02*
Y1090894D01*
Y1100839D02*
X859598D01*
Y1090894D01*
X850638D01*
Y1091737D02*
X859598D01*
Y1092579D02*
X850638D01*
Y1093422D02*
X859598D01*
Y1094264D02*
X850638D01*
Y1095107D02*
X859598D01*
Y1095949D02*
X850638D01*
Y1096792D02*
X859598D01*
Y1097634D02*
X850638D01*
Y1098477D02*
X859598D01*
Y1099319D02*
X850638D01*
Y1100162D02*
X859598D01*
G54D22*
X870236Y1100827D02*
Y1090906D01*
Y1100827D02*
X879370D01*
Y1090906D01*
X870236D01*
Y1091764D02*
X879370D01*
Y1092623D02*
X870236D01*
Y1093481D02*
X879370D01*
Y1094339D02*
X870236D01*
Y1095197D02*
X879370D01*
Y1096056D02*
X870236D01*
Y1096914D02*
X879370D01*
Y1097772D02*
X870236D01*
Y1098630D02*
X879370D01*
Y1099489D02*
X870236D01*
Y1100347D02*
X879370D01*
G54D23*
X674378Y824804D02*
X678378D01*
G54D24*
X661953Y839229D02*
X690803D01*
X661953Y810379D02*
X690803D01*
G54D23*
X674378Y789371D02*
X678378D01*
G54D24*
X661953Y803796D02*
X690803D01*
X661953Y774946D02*
X690803D01*
G54D25*
X36408Y1110237D02*
X49158D01*
G54D26*
X20983Y1126162D02*
X64583D01*
X20983Y1094312D02*
X64583D01*
G54D25*
X36408Y1078741D02*
X49158D01*
G54D26*
X20983Y1094666D02*
X64583D01*
X20983Y1062816D02*
X64583D01*
G54D25*
X36408Y1047245D02*
X49158D01*
G54D26*
X20983Y1063170D02*
X64583D01*
X20983Y1031320D02*
X64583D01*
G54D25*
X36408Y1015749D02*
X49158D01*
G54D26*
X20983Y1031674D02*
X64583D01*
X20983Y999824D02*
X64583D01*
G54D25*
X36408Y984253D02*
X49158D01*
G54D26*
X20983Y1000178D02*
X64583D01*
X20983Y968328D02*
X64583D01*
G54D25*
X36408Y952756D02*
X49158D01*
G54D26*
X20983Y968681D02*
X64583D01*
X20983Y936831D02*
X64583D01*
G54D25*
X36408Y921260D02*
X49158D01*
G54D26*
X20983Y937185D02*
X64583D01*
X20983Y905335D02*
X64583D01*
G54D25*
X36408Y889764D02*
X49158D01*
G54D26*
X20983Y905689D02*
X64583D01*
X20983Y873839D02*
X64583D01*
G54D25*
X36408Y858268D02*
X49158D01*
G54D26*
X20983Y874193D02*
X64583D01*
X20983Y842343D02*
X64583D01*
G54D25*
X36408Y826772D02*
X49158D01*
G54D26*
X20983Y842697D02*
X64583D01*
X20983Y810847D02*
X64583D01*
G54D25*
X36408Y795276D02*
X49158D01*
G54D26*
X20983Y811201D02*
X64583D01*
X20983Y779351D02*
X64583D01*
G54D25*
X36408Y763780D02*
X49158D01*
G54D26*
X20983Y779705D02*
X64583D01*
X20983Y747855D02*
X64583D01*
G54D25*
X91996Y725909D02*
Y738659D01*
G54D26*
X76071Y710484D02*
Y754084D01*
X107921Y710484D02*
Y754084D01*
G54D25*
X123492Y725909D02*
Y738659D01*
G54D26*
X107567Y710484D02*
Y754084D01*
X139417Y710484D02*
Y754084D01*
G54D25*
X154988Y725909D02*
Y738659D01*
G54D26*
X139063Y710484D02*
Y754084D01*
X170913Y710484D02*
Y754084D01*
G54D25*
X186484Y725909D02*
Y738659D01*
G54D26*
X170559Y710484D02*
Y754084D01*
X202409Y710484D02*
Y754084D01*
G54D25*
X217980Y725909D02*
Y738659D01*
G54D26*
X202055Y710484D02*
Y754084D01*
X233905Y710484D02*
Y754084D01*
G54D25*
X249476Y725909D02*
Y738659D01*
G54D26*
X233551Y710484D02*
Y754084D01*
X265401Y710484D02*
Y754084D01*
G54D25*
X280972Y725909D02*
Y738659D01*
G54D26*
X265047Y710484D02*
Y754084D01*
X296897Y710484D02*
Y754084D01*
G54D25*
X312468Y725909D02*
Y738659D01*
G54D26*
X296543Y710484D02*
Y754084D01*
X328393Y710484D02*
Y754084D01*
G54D25*
X343965Y725909D02*
Y738659D01*
G54D26*
X328040Y710484D02*
Y754084D01*
X359890Y710484D02*
Y754084D01*
G54D25*
X375461Y725909D02*
Y738659D01*
G54D26*
X359536Y710484D02*
Y754084D01*
X391386Y710484D02*
Y754084D01*
G54D25*
X406957Y725909D02*
Y738659D01*
G54D26*
X391032Y710484D02*
Y754084D01*
X422882Y710484D02*
Y754084D01*
G54D25*
X438453Y725909D02*
Y738659D01*
G54D26*
X422528Y710484D02*
Y754084D01*
X454378Y710484D02*
Y754084D01*
G54D25*
X481290Y763780D02*
X494040D01*
G54D26*
X465865Y779705D02*
X509465D01*
X465865Y747855D02*
X509465D01*
G54D25*
X481290Y795276D02*
X494040D01*
G54D26*
X465865Y811201D02*
X509465D01*
X465865Y779351D02*
X509465D01*
G54D25*
X481290Y826772D02*
X494040D01*
G54D26*
X465865Y842697D02*
X509465D01*
X465865Y810847D02*
X509465D01*
G54D25*
X481290Y858268D02*
X494040D01*
G54D26*
X465865Y874193D02*
X509465D01*
X465865Y842343D02*
X509465D01*
G54D25*
X481290Y889764D02*
X494040D01*
G54D26*
X465865Y905689D02*
X509465D01*
X465865Y873839D02*
X509465D01*
G54D25*
X481290Y921260D02*
X494040D01*
G54D26*
X465865Y937185D02*
X509465D01*
X465865Y905335D02*
X509465D01*
G54D25*
X481290Y952756D02*
X494040D01*
G54D26*
X465865Y968681D02*
X509465D01*
X465865Y936831D02*
X509465D01*
G54D25*
X481290Y984253D02*
X494040D01*
G54D26*
X465865Y1000178D02*
X509465D01*
X465865Y968328D02*
X509465D01*
G54D25*
X481290Y1015749D02*
X494040D01*
G54D26*
X465865Y1031674D02*
X509465D01*
X465865Y999824D02*
X509465D01*
G54D25*
X481290Y1047245D02*
X494040D01*
G54D26*
X465865Y1063170D02*
X509465D01*
X465865Y1031320D02*
X509465D01*
G54D25*
X481290Y1078741D02*
X494040D01*
G54D26*
X465865Y1094666D02*
X509465D01*
X465865Y1062816D02*
X509465D01*
G54D25*
X481290Y1110237D02*
X494040D01*
G54D26*
X465865Y1126162D02*
X509465D01*
X465865Y1094312D02*
X509465D01*
G54D25*
X438453Y1135358D02*
Y1148108D01*
G54D26*
X422528Y1119933D02*
Y1163533D01*
X454378Y1119933D02*
Y1163533D01*
G54D25*
X406957Y1135358D02*
Y1148108D01*
G54D26*
X391032Y1119933D02*
Y1163533D01*
X422882Y1119933D02*
Y1163533D01*
G54D25*
X375461Y1135358D02*
Y1148108D01*
G54D26*
X359536Y1119933D02*
Y1163533D01*
X391386Y1119933D02*
Y1163533D01*
G54D25*
X343965Y1135358D02*
Y1148108D01*
G54D26*
X328040Y1119933D02*
Y1163533D01*
X359890Y1119933D02*
Y1163533D01*
G54D25*
X312468Y1135358D02*
Y1148108D01*
G54D26*
X296543Y1119933D02*
Y1163533D01*
X328393Y1119933D02*
Y1163533D01*
G54D25*
X280972Y1135358D02*
Y1148108D01*
G54D26*
X265047Y1119933D02*
Y1163533D01*
X296897Y1119933D02*
Y1163533D01*
G54D25*
X249476Y1135358D02*
Y1148108D01*
G54D26*
X233551Y1119933D02*
Y1163533D01*
X265401Y1119933D02*
Y1163533D01*
G54D25*
X217980Y1135358D02*
Y1148108D01*
G54D26*
X202055Y1119933D02*
Y1163533D01*
X233905Y1119933D02*
Y1163533D01*
G54D25*
X186484Y1135358D02*
Y1148108D01*
G54D26*
X170559Y1119933D02*
Y1163533D01*
X202409Y1119933D02*
Y1163533D01*
G54D25*
X154988Y1135358D02*
Y1148108D01*
G54D26*
X139063Y1119933D02*
Y1163533D01*
X170913Y1119933D02*
Y1163533D01*
G54D25*
X123492Y1135358D02*
Y1148108D01*
G54D26*
X107567Y1119933D02*
Y1163533D01*
X139417Y1119933D02*
Y1163533D01*
G54D25*
X91996Y1135358D02*
Y1148108D01*
G54D26*
X76071Y1119933D02*
Y1163533D01*
X107921Y1119933D02*
Y1163533D01*
G54D27*
X172673Y1027560D02*
X176673D01*
G54D24*
X138623Y1063610D02*
X210723D01*
X138623Y991510D02*
X210723D01*
G54D27*
X263224Y1027560D02*
X267224D01*
G54D24*
X229174Y1063610D02*
X301274D01*
X229174Y991510D02*
X301274D01*
G54D27*
X353776Y1027560D02*
X357776D01*
G54D24*
X319726Y1063610D02*
X391826D01*
X319726Y991510D02*
X391826D01*
G54D27*
X172673Y937008D02*
X176673D01*
G54D24*
X138623Y973058D02*
X210723D01*
X138623Y900958D02*
X210723D01*
G54D27*
X263224Y937008D02*
X267224D01*
G54D24*
X229174Y973058D02*
X301274D01*
X229174Y900958D02*
X301274D01*
G54D27*
X353776Y937008D02*
X357776D01*
G54D24*
X319726Y973058D02*
X391826D01*
X319726Y900958D02*
X391826D01*
G54D27*
X172673Y846457D02*
X176673D01*
G54D24*
X138623Y882507D02*
X210723D01*
X138623Y810407D02*
X210723D01*
G54D27*
X263224Y846457D02*
X267224D01*
G54D24*
X229174Y882507D02*
X301274D01*
X229174Y810407D02*
X301274D01*
G54D27*
X353776Y846457D02*
X357776D01*
G54D24*
X319726Y882507D02*
X391826D01*
X319726Y810407D02*
X391826D01*
G54D28*
X844488Y835040D03*
X923228D03*
G54D29*
X57874Y731497D03*
G54D28*
X923228Y943308D03*
X844488D03*
G54D23*
X627134Y789371D02*
X631134D01*
G54D24*
X614709Y803796D02*
X643559D01*
X614709Y774946D02*
X643559D01*
G54D23*
X627134Y824804D02*
X631134D01*
G54D24*
X614709Y839229D02*
X643559D01*
X614709Y810379D02*
X643559D01*
G54D30*
X885619Y762993D02*
X902869D01*
G54D31*
X868569Y780793D02*
X919919D01*
X868569Y745193D02*
X919919D01*
G54D30*
X885619Y703938D02*
X902869D01*
G54D31*
X868569Y721738D02*
X919919D01*
X868569Y686138D02*
X919919D01*
G54D23*
X760598Y799213D02*
X764598D01*
G54D24*
X748173Y813638D02*
X777023D01*
X748173Y784788D02*
X777023D01*
G54D23*
X760598Y763780D02*
X764598D01*
G54D24*
X748173Y778205D02*
X777023D01*
X748173Y749355D02*
X777023D01*
G54D23*
X722016Y799213D02*
X726016D01*
G54D24*
X709591Y813638D02*
X738441D01*
X709591Y784788D02*
X738441D01*
G54D23*
X722016Y763780D02*
X726016D01*
G54D24*
X709591Y778205D02*
X738441D01*
X709591Y749355D02*
X738441D01*
G54D32*
X39370Y657481D03*
X159449D03*
G54D33*
X781502Y926772D02*
X787002D01*
G54D31*
X770452Y938572D02*
X798052D01*
X770452Y914972D02*
X798052D01*
G54D33*
X781502Y952363D02*
X787002D01*
G54D31*
X770452Y964163D02*
X798052D01*
X770452Y940563D02*
X798052D01*
G54D33*
X781502Y977953D02*
X787002D01*
G54D31*
X770452Y989753D02*
X798052D01*
X770452Y966153D02*
X798052D01*
G54D33*
X781502Y1003544D02*
X787002D01*
G54D31*
X770452Y1015344D02*
X798052D01*
X770452Y991744D02*
X798052D01*
G54D33*
X781502Y1029134D02*
X787002D01*
G54D31*
X770452Y1040934D02*
X798052D01*
X770452Y1017334D02*
X798052D01*
G54D33*
X781502Y1054725D02*
X787002D01*
G54D31*
X770452Y1066525D02*
X798052D01*
X770452Y1042925D02*
X798052D01*
G54D33*
X781502Y1080316D02*
X787002D01*
G54D31*
X770452Y1092116D02*
X798052D01*
X770452Y1068516D02*
X798052D01*
G54D33*
X781502Y1105906D02*
X787002D01*
G54D31*
X770452Y1117706D02*
X798052D01*
X770452Y1094106D02*
X798052D01*
G54D33*
X781502Y1131497D02*
X787002D01*
G54D31*
X770452Y1143297D02*
X798052D01*
X770452Y1119697D02*
X798052D01*
G54D33*
X762598Y1150400D02*
Y1155900D01*
G54D31*
X750798Y1139350D02*
Y1166950D01*
X774398Y1139350D02*
Y1166950D01*
G54D33*
X737008Y1150400D02*
Y1155900D01*
G54D31*
X725208Y1139350D02*
Y1166950D01*
X748808Y1139350D02*
Y1166950D01*
G54D33*
X711417Y1150400D02*
Y1155900D01*
G54D31*
X699617Y1139350D02*
Y1166950D01*
X723217Y1139350D02*
Y1166950D01*
G54D33*
X683858Y1150400D02*
Y1155900D01*
G54D31*
X672058Y1139350D02*
Y1166950D01*
X695658Y1139350D02*
Y1166950D01*
G54D33*
X660236Y1150400D02*
Y1155900D01*
G54D31*
X648436Y1139350D02*
Y1166950D01*
X672036Y1139350D02*
Y1166950D01*
G54D33*
X634646Y1150400D02*
Y1155900D01*
G54D31*
X622846Y1139350D02*
Y1166950D01*
X646446Y1139350D02*
Y1166950D01*
G54D33*
X609055Y1150400D02*
Y1155900D01*
G54D31*
X597255Y1139350D02*
Y1166950D01*
X620855Y1139350D02*
Y1166950D01*
G54D33*
X583465Y1150400D02*
Y1155900D01*
G54D31*
X571665Y1139350D02*
Y1166950D01*
X595265Y1139350D02*
Y1166950D01*
G54D33*
X557874Y1150400D02*
Y1155900D01*
G54D31*
X546074Y1139350D02*
Y1166950D01*
X569674Y1139350D02*
Y1166950D01*
G54D33*
X533470Y1131497D02*
X538970D01*
G54D31*
X522420Y1143297D02*
X550020D01*
X522420Y1119697D02*
X550020D01*
G54D33*
X533470Y1105906D02*
X538970D01*
G54D31*
X522420Y1117706D02*
X550020D01*
X522420Y1094106D02*
X550020D01*
G54D33*
X533470Y1080316D02*
X538970D01*
G54D31*
X522420Y1092116D02*
X550020D01*
X522420Y1068516D02*
X550020D01*
G54D33*
X533470Y1054725D02*
X538970D01*
G54D31*
X522420Y1066525D02*
X550020D01*
X522420Y1042925D02*
X550020D01*
G54D33*
X533470Y1029134D02*
X538970D01*
G54D31*
X522420Y1040934D02*
X550020D01*
X522420Y1017334D02*
X550020D01*
G54D33*
X533470Y1003544D02*
X538970D01*
G54D31*
X522420Y1015344D02*
X550020D01*
X522420Y991744D02*
X550020D01*
G54D33*
X533470Y977953D02*
X538970D01*
G54D31*
X522420Y989753D02*
X550020D01*
X522420Y966153D02*
X550020D01*
G54D33*
X533470Y952363D02*
X538970D01*
G54D31*
X522420Y964163D02*
X550020D01*
X522420Y940563D02*
X550020D01*
G54D33*
X533470Y926772D02*
X538970D01*
G54D31*
X522420Y938572D02*
X550020D01*
X522420Y914972D02*
X550020D01*
G54D33*
X557874Y902369D02*
Y907869D01*
G54D31*
X546074Y891319D02*
Y918919D01*
X569674Y891319D02*
Y918919D01*
G54D33*
X583465Y902369D02*
Y907869D01*
G54D31*
X571665Y891319D02*
Y918919D01*
X595265Y891319D02*
Y918919D01*
G54D33*
X609055Y902369D02*
Y907869D01*
G54D31*
X597255Y891319D02*
Y918919D01*
X620855Y891319D02*
Y918919D01*
G54D33*
X634646Y902369D02*
Y907869D01*
G54D31*
X622846Y891319D02*
Y918919D01*
X646446Y891319D02*
Y918919D01*
G54D33*
X660236Y902369D02*
Y907869D01*
G54D31*
X648436Y891319D02*
Y918919D01*
X672036Y891319D02*
Y918919D01*
G54D33*
X685827Y902369D02*
Y907869D01*
G54D31*
X674027Y891319D02*
Y918919D01*
X697627Y891319D02*
Y918919D01*
G54D33*
X711417Y902369D02*
Y907869D01*
G54D31*
X699617Y891319D02*
Y918919D01*
X723217Y891319D02*
Y918919D01*
G54D33*
X735039Y902369D02*
Y907869D01*
G54D31*
X723239Y891319D02*
Y918919D01*
X746839Y891319D02*
Y918919D01*
G54D33*
X762598Y902369D02*
Y907869D01*
G54D31*
X750798Y891319D02*
Y918919D01*
X774398Y891319D02*
Y918919D01*
G54D23*
X658236Y1029134D02*
X662236D01*
G54D24*
X645811Y1043559D02*
X674661D01*
X645811Y1014709D02*
X674661D01*
G54D23*
X658236Y977953D02*
X662236D01*
G54D24*
X645811Y992378D02*
X674661D01*
X645811Y963528D02*
X674661D01*
G54D23*
X709417Y977953D02*
X713417D01*
G54D24*
X696992Y992378D02*
X725842D01*
X696992Y963528D02*
X725842D01*
G54D23*
X709417Y1029134D02*
X713417D01*
G54D24*
X696992Y1043559D02*
X725842D01*
X696992Y1014709D02*
X725842D01*
G54D23*
X709417Y1080316D02*
X713417D01*
G54D24*
X696992Y1094741D02*
X725842D01*
X696992Y1065891D02*
X725842D01*
G54D23*
X658236Y1080316D02*
X662236D01*
G54D24*
X645811Y1094741D02*
X674661D01*
X645811Y1065891D02*
X674661D01*
G54D23*
X607055Y1080316D02*
X611055D01*
G54D24*
X594630Y1094741D02*
X623480D01*
X594630Y1065891D02*
X623480D01*
G54D34*
X609252Y759449D02*
X620276D01*
X609252Y739764D02*
X620276D01*
X609252Y720079D02*
X620276D01*
X609252Y700394D02*
X620276D01*
X686023D02*
X697047D01*
X686023Y720079D02*
X697047D01*
X686023Y739764D02*
X697047D01*
X686023Y759449D02*
X697047D01*
G54D35*
X653150Y721547D02*
Y738297D01*
G54D26*
X631350Y700247D02*
Y759597D01*
X674950Y700247D02*
Y759597D01*
G54D25*
X676378Y789371D03*
G54D36*
X686023Y739764D02*
X697047D01*
X609252Y720079D02*
X620276D01*
X686023D02*
X697047D01*
X686023Y759449D02*
X697047D01*
G54D37*
X568898Y771654D03*
Y755906D03*
X553150D03*
Y771654D03*
X766535Y700788D03*
X750787D03*
X735039D03*
X719291D03*
X766535Y716536D03*
X750787D03*
X735039D03*
X719291D03*
X766535Y732284D03*
X750787D03*
X735039D03*
X719291D03*
G54D38*
X858858Y1057087D03*
Y1037402D03*
Y1017717D03*
X842126Y1047245D03*
Y1027560D03*
X825394Y1057087D03*
Y1037402D03*
Y1017717D03*
G54D39*
X554134Y701772D03*
Y715552D03*
X567913D03*
Y701772D03*
G54D40*
X902953Y1034300D02*
Y1040205D01*
X882874Y1034300D02*
Y1040205D01*
X903740Y1059253D02*
Y1065158D01*
X883661Y1059253D02*
Y1065158D01*
X903197Y1012796D02*
Y1018701D01*
X883118Y1012796D02*
Y1018701D01*
G54D41*
X883953Y991882D02*
Y995819D01*
X903638Y991882D02*
Y995819D01*
G54D42*
X3937Y669292D02*
X4087Y665859D01*
X4535Y662457D01*
X5280Y659103D01*
X6311Y655827D01*
X7626Y652654D01*
X9213Y649607D01*
X11055Y646709D01*
X13150Y643985D01*
X15468Y641453D01*
X18000Y639134D01*
X20724Y637040D01*
X23622Y635197D01*
X26669Y633611D01*
X29843Y632296D01*
X33118Y631264D01*
X36472Y630520D01*
X39874Y630071D01*
X43307Y629922D01*
X897638D01*
X901071Y630071D01*
X904472Y630520D01*
X907827Y631264D01*
X911102Y632296D01*
X914276Y633611D01*
X917323Y635197D01*
X920220Y637040D01*
X922945Y639134D01*
X925476Y641453D01*
X927795Y643985D01*
X929890Y646709D01*
X931732Y649607D01*
X933319Y652654D01*
X934634Y655827D01*
X935665Y659103D01*
X936409Y662457D01*
X936858Y665859D01*
X937008Y669292D01*
Y708662D01*
X937083Y710379D01*
X937307Y712079D01*
X937677Y713756D01*
X938197Y715394D01*
X938850Y716981D01*
X939646Y718504D01*
X940567Y719953D01*
X941614Y721316D01*
X942772Y722583D01*
X944039Y723741D01*
X945402Y724788D01*
X946850Y725709D01*
X948374Y726504D01*
X949961Y727158D01*
X951598Y727678D01*
X953276Y728048D01*
X954976Y728272D01*
X956693Y728347D01*
X957378Y728379D01*
X958059Y728465D01*
X958732Y728615D01*
X959386Y728823D01*
X960020Y729083D01*
X960630Y729402D01*
X961209Y729772D01*
X961756Y730190D01*
X962260Y730654D01*
X962724Y731158D01*
X963142Y731705D01*
X963512Y732284D01*
X963831Y732894D01*
X964091Y733528D01*
X964299Y734182D01*
X964449Y734855D01*
X964535Y735536D01*
X964567Y736221D01*
Y1078741D01*
X964551Y1079083D01*
X964508Y1079426D01*
X964433Y1079760D01*
X964331Y1080087D01*
X964197Y1080406D01*
X964039Y1080709D01*
X963854Y1081001D01*
X963646Y1081272D01*
X963413Y1081524D01*
X963161Y1081756D01*
X962890Y1081965D01*
X962598Y1082150D01*
X962295Y1082308D01*
X961976Y1082441D01*
X961650Y1082544D01*
X961315Y1082619D01*
X960972Y1082662D01*
X960630Y1082678D01*
X958913Y1082753D01*
X957213Y1082977D01*
X955535Y1083347D01*
X953898Y1083867D01*
X952311Y1084520D01*
X950787Y1085316D01*
X949339Y1086237D01*
X947976Y1087284D01*
X946709Y1088441D01*
X945551Y1089709D01*
X944504Y1091071D01*
X943583Y1092520D01*
X942787Y1094044D01*
X942134Y1095630D01*
X941614Y1097268D01*
X941244Y1098945D01*
X941020Y1100646D01*
X940945Y1102363D01*
Y1141733D01*
X940795Y1145166D01*
X940346Y1148567D01*
X939602Y1151922D01*
X938571Y1155197D01*
X937256Y1158371D01*
X935669Y1161418D01*
X933827Y1164316D01*
X931732Y1167040D01*
X929413Y1169571D01*
X926882Y1171890D01*
X924157Y1173985D01*
X921260Y1175827D01*
X918213Y1177414D01*
X915039Y1178729D01*
X911764Y1179760D01*
X908409Y1180504D01*
X905008Y1180953D01*
X901575Y1181103D01*
X43307D01*
X39874Y1180953D01*
X36472Y1180504D01*
X33118Y1179760D01*
X29843Y1178729D01*
X26669Y1177414D01*
X23622Y1175827D01*
X20724Y1173985D01*
X18000Y1171890D01*
X15468Y1169571D01*
X13150Y1167040D01*
X11055Y1164316D01*
X9213Y1161418D01*
X7626Y1158371D01*
X6311Y1155197D01*
X5280Y1151922D01*
X4535Y1148567D01*
X4087Y1145166D01*
X3937Y1141733D01*
Y669292D01*
%LPD*%
G75*
X3937Y669292D02*
G54D10*
X1070866Y519686D02*
X1070874Y519859D01*
X1070898Y520032D01*
X1070937Y520201D01*
X1070988Y520367D01*
X1071055Y520528D01*
X1071138Y520682D01*
X1071232Y520827D01*
X1071339Y520965D01*
X1071457Y521091D01*
X1071587Y521209D01*
X1071728Y521312D01*
X1071874Y521406D01*
X1072031Y521481D01*
X1072193Y521548D01*
X1072362Y521595D01*
X1072531Y521630D01*
X1072705Y521650D01*
X1072878Y521654D01*
X1073051Y521642D01*
X1073224Y521615D01*
X1073394Y521571D01*
X1073559Y521516D01*
X1073717Y521445D01*
X1073870Y521359D01*
X1074012Y521264D01*
X1074146Y521154D01*
X1074272Y521032D01*
X1074386Y520898D01*
X1074488Y520756D01*
X1074575Y520607D01*
X1074650Y520449D01*
X1074709Y520284D01*
X1074756Y520119D01*
X1074787Y519945D01*
X1074803Y519772D01*
Y519599D01*
X1074787Y519426D01*
X1074756Y519253D01*
X1074709Y519087D01*
X1074650Y518922D01*
X1074575Y518764D01*
X1074488Y518615D01*
X1074386Y518473D01*
X1074272Y518339D01*
X1074146Y518217D01*
X1074012Y518107D01*
X1073870Y518012D01*
X1073717Y517926D01*
X1073559Y517855D01*
X1073394Y517800D01*
X1073224Y517756D01*
X1073051Y517729D01*
X1072878Y517717D01*
X1072705Y517721D01*
X1072531Y517741D01*
X1072362Y517776D01*
X1072193Y517823D01*
X1072031Y517890D01*
X1071874Y517965D01*
X1071728Y518060D01*
X1071587Y518162D01*
X1071457Y518280D01*
X1071339Y518406D01*
X1071232Y518544D01*
X1071138Y518690D01*
X1071055Y518843D01*
X1070988Y519004D01*
X1070937Y519170D01*
X1070898Y519339D01*
X1070874Y519512D01*
X1070866Y519686D01*
G54D11*
X1711811Y190945D02*
X1719685D01*
X1711811Y163386D02*
X1719685D01*
G54D12*
X1723622Y159449D02*
Y194882D01*
X1707874D02*
Y159449D01*
G54D13*
X1552626Y537402D02*
X1056563D01*
X1552626D02*
Y76772D01*
X1056563D01*
Y537402D01*
G54D11*
X1932283Y407331D03*
X1933071Y432284D03*
X1932528Y385827D03*
G54D12*
X1620079Y114174D02*
X1580709D01*
X1620079D02*
Y141733D01*
Y153544D01*
X1608268D01*
X1580709D01*
Y114174D01*
X1620079Y141733D02*
X1608268Y153544D01*
G54D11*
X1664567Y163386D02*
X1672441D01*
X1664567Y190945D02*
X1672441D01*
G54D12*
X1660630Y194882D02*
Y159449D01*
X1676378D02*
Y194882D01*
G54D14*
X1819646Y56693D03*
G54D12*
X1909055Y432087D02*
Y439961D01*
Y432087D02*
Y375001D01*
X1853937D01*
Y439961D01*
X1901181D01*
X1909055D01*
G54D14*
X1913976Y444882D03*
G54D11*
X1923772Y129134D02*
X1943457D01*
X1923772Y77953D02*
X1943457D01*
G54D12*
X1947394Y74016D02*
Y133071D01*
X1919835D02*
Y74016D01*
G54D11*
X1798031Y165355D02*
X1805906D01*
X1798031Y137796D02*
X1805906D01*
G54D12*
X1809843Y133859D02*
Y169292D01*
X1794094D02*
Y133859D01*
G54D11*
X1759449Y165355D02*
X1767323D01*
X1759449Y137796D02*
X1767323D01*
G54D12*
X1771260Y133859D02*
Y169292D01*
X1755512D02*
Y133859D01*
G54D14*
X1581299Y59292D03*
G54D13*
X1927953Y536615D02*
X1935039D01*
Y520867D01*
Y471260D02*
Y455512D01*
X1927953D01*
X1861024D02*
X1853937D01*
Y471260D01*
Y536615D02*
X1861024D01*
X1853937D02*
Y520867D01*
G54D14*
X1942913Y446851D03*
G54D15*
X1633307Y154918D03*
G54D16*
X1815243Y257947D02*
X1558340D01*
X1815243D02*
X1840873Y283577D01*
Y540479D01*
X1558340D01*
Y257947D01*
G54D17*
X1582867Y61207D02*
Y96274D01*
X1617921D01*
Y61207D01*
X1582867D01*
G54D18*
X1817439Y59333D02*
Y72974D01*
Y59333D02*
X1804175D01*
X1747128D02*
Y72974D01*
Y59333D02*
X1760392D01*
X1747128Y100255D02*
Y113896D01*
X1760392D01*
X1817439D02*
Y100255D01*
Y113896D02*
X1804175D01*
%LPC*%
G75*
X1804175Y113896D02*
G54D19*
X1996457Y227166D02*
Y183071D01*
X1850000D01*
Y227166D01*
X1996457D01*
Y193544D02*
X1850000D01*
Y204016D02*
X1996457D01*
Y214489D02*
X1850000D01*
Y224961D02*
X1996457D01*
X1850000Y291339D02*
Y335434D01*
X1996457D01*
Y291339D01*
X1850000D01*
Y301812D02*
X1996457D01*
Y312284D02*
X1850000D01*
Y322756D02*
X1996457D01*
Y333229D02*
X1850000D01*
G54D20*
X1892067Y78150D02*
Y63977D01*
X1838059D01*
Y78150D01*
X1892067D01*
Y72953D02*
X1838059D01*
X1892067Y128938D02*
Y143111D01*
Y128938D02*
X1838059D01*
Y143111D01*
X1892067D01*
Y137914D02*
X1838059D01*
G54D21*
X1919634Y481741D02*
Y490701D01*
X1929579D01*
Y481741D01*
X1919634D01*
Y482583D02*
X1929579D01*
Y483426D02*
X1919634D01*
Y484268D02*
X1929579D01*
Y485111D02*
X1919634D01*
Y485953D02*
X1929579D01*
Y486796D02*
X1919634D01*
Y487638D02*
X1929579D01*
Y488481D02*
X1919634D01*
Y489323D02*
X1929579D01*
Y490166D02*
X1919634D01*
Y501426D02*
Y510386D01*
X1929579D01*
Y501426D01*
X1919634D01*
Y502268D02*
X1929579D01*
Y503111D02*
X1919634D01*
Y503953D02*
X1929579D01*
Y504796D02*
X1919634D01*
Y505638D02*
X1929579D01*
Y506481D02*
X1919634D01*
Y507323D02*
X1929579D01*
Y508166D02*
X1919634D01*
Y509008D02*
X1929579D01*
Y509851D02*
X1919634D01*
X1909693Y521209D02*
Y531154D01*
X1918654D01*
Y521209D01*
X1909693D01*
Y522052D02*
X1918654D01*
Y522894D02*
X1909693D01*
Y523737D02*
X1918654D01*
Y524579D02*
X1909693D01*
Y525422D02*
X1918654D01*
Y526264D02*
X1909693D01*
Y527107D02*
X1918654D01*
Y527949D02*
X1909693D01*
Y528792D02*
X1918654D01*
Y529634D02*
X1909693D01*
Y530477D02*
X1918654D01*
X1890008Y531154D02*
Y521209D01*
Y531154D02*
X1898968D01*
Y521209D01*
X1890008D01*
Y522052D02*
X1898968D01*
Y522894D02*
X1890008D01*
Y523737D02*
X1898968D01*
Y524579D02*
X1890008D01*
Y525422D02*
X1898968D01*
Y526264D02*
X1890008D01*
Y527107D02*
X1898968D01*
Y527949D02*
X1890008D01*
Y528792D02*
X1898968D01*
Y529634D02*
X1890008D01*
Y530477D02*
X1898968D01*
X1870323Y531154D02*
Y521209D01*
Y531154D02*
X1879283D01*
Y521209D01*
X1870323D01*
Y522052D02*
X1879283D01*
Y522894D02*
X1870323D01*
Y523737D02*
X1879283D01*
Y524579D02*
X1870323D01*
Y525422D02*
X1879283D01*
Y526264D02*
X1870323D01*
Y527107D02*
X1879283D01*
Y527949D02*
X1870323D01*
Y528792D02*
X1879283D01*
Y529634D02*
X1870323D01*
Y530477D02*
X1879283D01*
X1859398Y510386D02*
Y501426D01*
Y510386D02*
X1869343D01*
Y501426D01*
X1859398D01*
Y502268D02*
X1869343D01*
Y503111D02*
X1859398D01*
Y503953D02*
X1869343D01*
Y504796D02*
X1859398D01*
Y505638D02*
X1869343D01*
Y506481D02*
X1859398D01*
Y507323D02*
X1869343D01*
Y508166D02*
X1859398D01*
Y509008D02*
X1869343D01*
Y509851D02*
X1859398D01*
Y490701D02*
Y481741D01*
Y490701D02*
X1869343D01*
Y481741D01*
X1859398D01*
Y482583D02*
X1869343D01*
Y483426D02*
X1859398D01*
Y484268D02*
X1869343D01*
Y485111D02*
X1859398D01*
Y485953D02*
X1869343D01*
Y486796D02*
X1859398D01*
Y487638D02*
X1869343D01*
Y488481D02*
X1859398D01*
Y489323D02*
X1869343D01*
Y490166D02*
X1859398D01*
X1870323Y470918D02*
Y460973D01*
Y470918D02*
X1879283D01*
Y460973D01*
X1870323D01*
Y461816D02*
X1879283D01*
Y462658D02*
X1870323D01*
Y463501D02*
X1879283D01*
Y464343D02*
X1870323D01*
Y465186D02*
X1879283D01*
Y466028D02*
X1870323D01*
Y466871D02*
X1879283D01*
Y467713D02*
X1870323D01*
Y468556D02*
X1879283D01*
Y469398D02*
X1870323D01*
Y470241D02*
X1879283D01*
X1890008Y470918D02*
Y460973D01*
Y470918D02*
X1898968D01*
Y460973D01*
X1890008D01*
Y461816D02*
X1898968D01*
Y462658D02*
X1890008D01*
Y463501D02*
X1898968D01*
Y464343D02*
X1890008D01*
Y465186D02*
X1898968D01*
Y466028D02*
X1890008D01*
Y466871D02*
X1898968D01*
Y467713D02*
X1890008D01*
Y468556D02*
X1898968D01*
Y469398D02*
X1890008D01*
Y470241D02*
X1898968D01*
G54D22*
X1909606Y470906D02*
Y460985D01*
Y470906D02*
X1918740D01*
Y460985D01*
X1909606D01*
Y461843D02*
X1918740D01*
Y462701D02*
X1909606D01*
Y463560D02*
X1918740D01*
Y464418D02*
X1909606D01*
Y465276D02*
X1918740D01*
Y466134D02*
X1909606D01*
Y466993D02*
X1918740D01*
Y467851D02*
X1909606D01*
Y468709D02*
X1918740D01*
Y469567D02*
X1909606D01*
Y470426D02*
X1918740D01*
G54D23*
X1713748Y194882D02*
X1717748D01*
G54D24*
X1701323Y209307D02*
X1730173D01*
X1701323Y180457D02*
X1730173D01*
G54D23*
X1713748Y159449D02*
X1717748D01*
G54D24*
X1701323Y173874D02*
X1730173D01*
X1701323Y145024D02*
X1730173D01*
G54D25*
X1075779Y480316D02*
X1088529D01*
G54D26*
X1060354Y496241D02*
X1103954D01*
X1060354Y464391D02*
X1103954D01*
G54D25*
X1075779Y448819D02*
X1088529D01*
G54D26*
X1060354Y464744D02*
X1103954D01*
X1060354Y432894D02*
X1103954D01*
G54D25*
X1075779Y417323D02*
X1088529D01*
G54D26*
X1060354Y433248D02*
X1103954D01*
X1060354Y401398D02*
X1103954D01*
G54D25*
X1075779Y385827D02*
X1088529D01*
G54D26*
X1060354Y401752D02*
X1103954D01*
X1060354Y369902D02*
X1103954D01*
G54D25*
X1075779Y354331D02*
X1088529D01*
G54D26*
X1060354Y370256D02*
X1103954D01*
X1060354Y338406D02*
X1103954D01*
G54D25*
X1075779Y322835D02*
X1088529D01*
G54D26*
X1060354Y338760D02*
X1103954D01*
X1060354Y306910D02*
X1103954D01*
G54D25*
X1075779Y291339D02*
X1088529D01*
G54D26*
X1060354Y307264D02*
X1103954D01*
X1060354Y275414D02*
X1103954D01*
G54D25*
X1075779Y259843D02*
X1088529D01*
G54D26*
X1060354Y275768D02*
X1103954D01*
X1060354Y243918D02*
X1103954D01*
G54D25*
X1075779Y228347D02*
X1088529D01*
G54D26*
X1060354Y244272D02*
X1103954D01*
X1060354Y212422D02*
X1103954D01*
G54D25*
X1075779Y196851D02*
X1088529D01*
G54D26*
X1060354Y212776D02*
X1103954D01*
X1060354Y180926D02*
X1103954D01*
G54D25*
X1075779Y165355D02*
X1088529D01*
G54D26*
X1060354Y181280D02*
X1103954D01*
X1060354Y149430D02*
X1103954D01*
G54D25*
X1075779Y133859D02*
X1088529D01*
G54D26*
X1060354Y149784D02*
X1103954D01*
X1060354Y117934D02*
X1103954D01*
G54D25*
X1131366Y95988D02*
Y108738D01*
G54D26*
X1115441Y80563D02*
Y124163D01*
X1147291Y80563D02*
Y124163D01*
G54D25*
X1162862Y95988D02*
Y108738D01*
G54D26*
X1146937Y80563D02*
Y124163D01*
X1178787Y80563D02*
Y124163D01*
G54D25*
X1194358Y95988D02*
Y108738D01*
G54D26*
X1178433Y80563D02*
Y124163D01*
X1210283Y80563D02*
Y124163D01*
G54D25*
X1225854Y95988D02*
Y108738D01*
G54D26*
X1209929Y80563D02*
Y124163D01*
X1241779Y80563D02*
Y124163D01*
G54D25*
X1257350Y95988D02*
Y108738D01*
G54D26*
X1241425Y80563D02*
Y124163D01*
X1273275Y80563D02*
Y124163D01*
G54D25*
X1288846Y95988D02*
Y108738D01*
G54D26*
X1272921Y80563D02*
Y124163D01*
X1304771Y80563D02*
Y124163D01*
G54D25*
X1320343Y95988D02*
Y108738D01*
G54D26*
X1304418Y80563D02*
Y124163D01*
X1336268Y80563D02*
Y124163D01*
G54D25*
X1351839Y95988D02*
Y108738D01*
G54D26*
X1335914Y80563D02*
Y124163D01*
X1367764Y80563D02*
Y124163D01*
G54D25*
X1383335Y95988D02*
Y108738D01*
G54D26*
X1367410Y80563D02*
Y124163D01*
X1399260Y80563D02*
Y124163D01*
G54D25*
X1414831Y95988D02*
Y108738D01*
G54D26*
X1398906Y80563D02*
Y124163D01*
X1430756Y80563D02*
Y124163D01*
G54D25*
X1446327Y95988D02*
Y108738D01*
G54D26*
X1430402Y80563D02*
Y124163D01*
X1462252Y80563D02*
Y124163D01*
G54D25*
X1477823Y95988D02*
Y108738D01*
G54D26*
X1461898Y80563D02*
Y124163D01*
X1493748Y80563D02*
Y124163D01*
G54D25*
X1520660Y133859D02*
X1533410D01*
G54D26*
X1505235Y149784D02*
X1548835D01*
X1505235Y117934D02*
X1548835D01*
G54D25*
X1520660Y165355D02*
X1533410D01*
G54D26*
X1505235Y181280D02*
X1548835D01*
X1505235Y149430D02*
X1548835D01*
G54D25*
X1520660Y196851D02*
X1533410D01*
G54D26*
X1505235Y212776D02*
X1548835D01*
X1505235Y180926D02*
X1548835D01*
G54D25*
X1520660Y228347D02*
X1533410D01*
G54D26*
X1505235Y244272D02*
X1548835D01*
X1505235Y212422D02*
X1548835D01*
G54D25*
X1520660Y259843D02*
X1533410D01*
G54D26*
X1505235Y275768D02*
X1548835D01*
X1505235Y243918D02*
X1548835D01*
G54D25*
X1520660Y291339D02*
X1533410D01*
G54D26*
X1505235Y307264D02*
X1548835D01*
X1505235Y275414D02*
X1548835D01*
G54D25*
X1520660Y322835D02*
X1533410D01*
G54D26*
X1505235Y338760D02*
X1548835D01*
X1505235Y306910D02*
X1548835D01*
G54D25*
X1520660Y354331D02*
X1533410D01*
G54D26*
X1505235Y370256D02*
X1548835D01*
X1505235Y338406D02*
X1548835D01*
G54D25*
X1520660Y385827D02*
X1533410D01*
G54D26*
X1505235Y401752D02*
X1548835D01*
X1505235Y369902D02*
X1548835D01*
G54D25*
X1520660Y417323D02*
X1533410D01*
G54D26*
X1505235Y433248D02*
X1548835D01*
X1505235Y401398D02*
X1548835D01*
G54D25*
X1520660Y448819D02*
X1533410D01*
G54D26*
X1505235Y464744D02*
X1548835D01*
X1505235Y432894D02*
X1548835D01*
G54D25*
X1520660Y480316D02*
X1533410D01*
G54D26*
X1505235Y496241D02*
X1548835D01*
X1505235Y464391D02*
X1548835D01*
G54D25*
X1477823Y505437D02*
Y518187D01*
G54D26*
X1461898Y490012D02*
Y533612D01*
X1493748Y490012D02*
Y533612D01*
G54D25*
X1446327Y505437D02*
Y518187D01*
G54D26*
X1430402Y490012D02*
Y533612D01*
X1462252Y490012D02*
Y533612D01*
G54D25*
X1414831Y505437D02*
Y518187D01*
G54D26*
X1398906Y490012D02*
Y533612D01*
X1430756Y490012D02*
Y533612D01*
G54D25*
X1383335Y505437D02*
Y518187D01*
G54D26*
X1367410Y490012D02*
Y533612D01*
X1399260Y490012D02*
Y533612D01*
G54D25*
X1351839Y505437D02*
Y518187D01*
G54D26*
X1335914Y490012D02*
Y533612D01*
X1367764Y490012D02*
Y533612D01*
G54D25*
X1320343Y505437D02*
Y518187D01*
G54D26*
X1304418Y490012D02*
Y533612D01*
X1336268Y490012D02*
Y533612D01*
G54D25*
X1288846Y505437D02*
Y518187D01*
G54D26*
X1272921Y490012D02*
Y533612D01*
X1304771Y490012D02*
Y533612D01*
G54D25*
X1257350Y505437D02*
Y518187D01*
G54D26*
X1241425Y490012D02*
Y533612D01*
X1273275Y490012D02*
Y533612D01*
G54D25*
X1225854Y505437D02*
Y518187D01*
G54D26*
X1209929Y490012D02*
Y533612D01*
X1241779Y490012D02*
Y533612D01*
G54D25*
X1194358Y505437D02*
Y518187D01*
G54D26*
X1178433Y490012D02*
Y533612D01*
X1210283Y490012D02*
Y533612D01*
G54D25*
X1162862Y505437D02*
Y518187D01*
G54D26*
X1146937Y490012D02*
Y533612D01*
X1178787Y490012D02*
Y533612D01*
G54D25*
X1131366Y505437D02*
Y518187D01*
G54D26*
X1115441Y490012D02*
Y533612D01*
X1147291Y490012D02*
Y533612D01*
G54D27*
X1212043Y397638D02*
X1216043D01*
G54D24*
X1177993Y433688D02*
X1250093D01*
X1177993Y361588D02*
X1250093D01*
G54D27*
X1302594Y397638D02*
X1306594D01*
G54D24*
X1268544Y433688D02*
X1340644D01*
X1268544Y361588D02*
X1340644D01*
G54D27*
X1393146Y397638D02*
X1397146D01*
G54D24*
X1359096Y433688D02*
X1431196D01*
X1359096Y361588D02*
X1431196D01*
G54D27*
X1212043Y307087D02*
X1216043D01*
G54D24*
X1177993Y343137D02*
X1250093D01*
X1177993Y271037D02*
X1250093D01*
G54D27*
X1302594Y307087D02*
X1306594D01*
G54D24*
X1268544Y343137D02*
X1340644D01*
X1268544Y271037D02*
X1340644D01*
G54D27*
X1393146Y307087D02*
X1397146D01*
G54D24*
X1359096Y343137D02*
X1431196D01*
X1359096Y271037D02*
X1431196D01*
G54D27*
X1212043Y216536D02*
X1216043D01*
G54D24*
X1177993Y252586D02*
X1250093D01*
X1177993Y180486D02*
X1250093D01*
G54D27*
X1302594Y216536D02*
X1306594D01*
G54D24*
X1268544Y252586D02*
X1340644D01*
X1268544Y180486D02*
X1340644D01*
G54D27*
X1393146Y216536D02*
X1397146D01*
G54D24*
X1359096Y252586D02*
X1431196D01*
X1359096Y180486D02*
X1431196D01*
G54D28*
X1883858Y205119D03*
X1962598D03*
G54D29*
X1097244Y101575D03*
G54D28*
X1962598Y313386D03*
X1883858D03*
G54D23*
X1666504Y159449D02*
X1670504D01*
G54D24*
X1654079Y173874D02*
X1682929D01*
X1654079Y145024D02*
X1682929D01*
G54D23*
X1666504Y194882D02*
X1670504D01*
G54D24*
X1654079Y209307D02*
X1682929D01*
X1654079Y180457D02*
X1682929D01*
G54D30*
X1924989Y133071D02*
X1942239D01*
G54D31*
X1907939Y150871D02*
X1959289D01*
X1907939Y115271D02*
X1959289D01*
G54D30*
X1924989Y74016D02*
X1942239D01*
G54D31*
X1907939Y91816D02*
X1959289D01*
X1907939Y56216D02*
X1959289D01*
G54D23*
X1799968Y169292D02*
X1803968D01*
G54D24*
X1787543Y183717D02*
X1816393D01*
X1787543Y154867D02*
X1816393D01*
G54D23*
X1799968Y133859D02*
X1803968D01*
G54D24*
X1787543Y148284D02*
X1816393D01*
X1787543Y119434D02*
X1816393D01*
G54D23*
X1761386Y169292D02*
X1765386D01*
G54D24*
X1748961Y183717D02*
X1777811D01*
X1748961Y154867D02*
X1777811D01*
G54D23*
X1761386Y133859D02*
X1765386D01*
G54D24*
X1748961Y148284D02*
X1777811D01*
X1748961Y119434D02*
X1777811D01*
G54D32*
X1078740Y27560D03*
X1198819D03*
G54D33*
X1820872Y296851D02*
X1826372D01*
G54D31*
X1809822Y308651D02*
X1837422D01*
X1809822Y285051D02*
X1837422D01*
G54D33*
X1820872Y322441D02*
X1826372D01*
G54D31*
X1809822Y334241D02*
X1837422D01*
X1809822Y310641D02*
X1837422D01*
G54D33*
X1820872Y348032D02*
X1826372D01*
G54D31*
X1809822Y359832D02*
X1837422D01*
X1809822Y336232D02*
X1837422D01*
G54D33*
X1820872Y373623D02*
X1826372D01*
G54D31*
X1809822Y385423D02*
X1837422D01*
X1809822Y361823D02*
X1837422D01*
G54D33*
X1820872Y399213D02*
X1826372D01*
G54D31*
X1809822Y411013D02*
X1837422D01*
X1809822Y387413D02*
X1837422D01*
G54D33*
X1820872Y424804D02*
X1826372D01*
G54D31*
X1809822Y436604D02*
X1837422D01*
X1809822Y413004D02*
X1837422D01*
G54D33*
X1820872Y450394D02*
X1826372D01*
G54D31*
X1809822Y462194D02*
X1837422D01*
X1809822Y438594D02*
X1837422D01*
G54D33*
X1820872Y475985D02*
X1826372D01*
G54D31*
X1809822Y487785D02*
X1837422D01*
X1809822Y464185D02*
X1837422D01*
G54D33*
X1820872Y501575D02*
X1826372D01*
G54D31*
X1809822Y513375D02*
X1837422D01*
X1809822Y489775D02*
X1837422D01*
G54D33*
X1801968Y520479D02*
Y525979D01*
G54D31*
X1790168Y509429D02*
Y537029D01*
X1813768Y509429D02*
Y537029D01*
G54D33*
X1776378Y520479D02*
Y525979D01*
G54D31*
X1764578Y509429D02*
Y537029D01*
X1788178Y509429D02*
Y537029D01*
G54D33*
X1750787Y520479D02*
Y525979D01*
G54D31*
X1738987Y509429D02*
Y537029D01*
X1762587Y509429D02*
Y537029D01*
G54D33*
X1723228Y520479D02*
Y525979D01*
G54D31*
X1711428Y509429D02*
Y537029D01*
X1735028Y509429D02*
Y537029D01*
G54D33*
X1699606Y520479D02*
Y525979D01*
G54D31*
X1687806Y509429D02*
Y537029D01*
X1711406Y509429D02*
Y537029D01*
G54D33*
X1674016Y520479D02*
Y525979D01*
G54D31*
X1662216Y509429D02*
Y537029D01*
X1685816Y509429D02*
Y537029D01*
G54D33*
X1648425Y520479D02*
Y525979D01*
G54D31*
X1636625Y509429D02*
Y537029D01*
X1660225Y509429D02*
Y537029D01*
G54D33*
X1622835Y520479D02*
Y525979D01*
G54D31*
X1611035Y509429D02*
Y537029D01*
X1634635Y509429D02*
Y537029D01*
G54D33*
X1597244Y520479D02*
Y525979D01*
G54D31*
X1585444Y509429D02*
Y537029D01*
X1609044Y509429D02*
Y537029D01*
G54D33*
X1572841Y501575D02*
X1578341D01*
G54D31*
X1561791Y513375D02*
X1589391D01*
X1561791Y489775D02*
X1589391D01*
G54D33*
X1572841Y475985D02*
X1578341D01*
G54D31*
X1561791Y487785D02*
X1589391D01*
X1561791Y464185D02*
X1589391D01*
G54D33*
X1572841Y450394D02*
X1578341D01*
G54D31*
X1561791Y462194D02*
X1589391D01*
X1561791Y438594D02*
X1589391D01*
G54D33*
X1572841Y424804D02*
X1578341D01*
G54D31*
X1561791Y436604D02*
X1589391D01*
X1561791Y413004D02*
X1589391D01*
G54D33*
X1572841Y399213D02*
X1578341D01*
G54D31*
X1561791Y411013D02*
X1589391D01*
X1561791Y387413D02*
X1589391D01*
G54D33*
X1572841Y373623D02*
X1578341D01*
G54D31*
X1561791Y385423D02*
X1589391D01*
X1561791Y361823D02*
X1589391D01*
G54D33*
X1572841Y348032D02*
X1578341D01*
G54D31*
X1561791Y359832D02*
X1589391D01*
X1561791Y336232D02*
X1589391D01*
G54D33*
X1572841Y322441D02*
X1578341D01*
G54D31*
X1561791Y334241D02*
X1589391D01*
X1561791Y310641D02*
X1589391D01*
G54D33*
X1572841Y296851D02*
X1578341D01*
G54D31*
X1561791Y308651D02*
X1589391D01*
X1561791Y285051D02*
X1589391D01*
G54D33*
X1597244Y272447D02*
Y277947D01*
G54D31*
X1585444Y261397D02*
Y288997D01*
X1609044Y261397D02*
Y288997D01*
G54D33*
X1622835Y272447D02*
Y277947D01*
G54D31*
X1611035Y261397D02*
Y288997D01*
X1634635Y261397D02*
Y288997D01*
G54D33*
X1648425Y272447D02*
Y277947D01*
G54D31*
X1636625Y261397D02*
Y288997D01*
X1660225Y261397D02*
Y288997D01*
G54D33*
X1674016Y272447D02*
Y277947D01*
G54D31*
X1662216Y261397D02*
Y288997D01*
X1685816Y261397D02*
Y288997D01*
G54D33*
X1699606Y272447D02*
Y277947D01*
G54D31*
X1687806Y261397D02*
Y288997D01*
X1711406Y261397D02*
Y288997D01*
G54D33*
X1725197Y272447D02*
Y277947D01*
G54D31*
X1713397Y261397D02*
Y288997D01*
X1736997Y261397D02*
Y288997D01*
G54D33*
X1750787Y272447D02*
Y277947D01*
G54D31*
X1738987Y261397D02*
Y288997D01*
X1762587Y261397D02*
Y288997D01*
G54D33*
X1774409Y272447D02*
Y277947D01*
G54D31*
X1762609Y261397D02*
Y288997D01*
X1786209Y261397D02*
Y288997D01*
G54D33*
X1801968Y272447D02*
Y277947D01*
G54D31*
X1790168Y261397D02*
Y288997D01*
X1813768Y261397D02*
Y288997D01*
G54D23*
X1697606Y399213D02*
X1701606D01*
G54D24*
X1685181Y413638D02*
X1714031D01*
X1685181Y384788D02*
X1714031D01*
G54D23*
X1697606Y348032D02*
X1701606D01*
G54D24*
X1685181Y362457D02*
X1714031D01*
X1685181Y333607D02*
X1714031D01*
G54D23*
X1748787Y348032D02*
X1752787D01*
G54D24*
X1736362Y362457D02*
X1765212D01*
X1736362Y333607D02*
X1765212D01*
G54D23*
X1748787Y399213D02*
X1752787D01*
G54D24*
X1736362Y413638D02*
X1765212D01*
X1736362Y384788D02*
X1765212D01*
G54D23*
X1748787Y450394D02*
X1752787D01*
G54D24*
X1736362Y464819D02*
X1765212D01*
X1736362Y435969D02*
X1765212D01*
G54D23*
X1697606Y450394D02*
X1701606D01*
G54D24*
X1685181Y464819D02*
X1714031D01*
X1685181Y435969D02*
X1714031D01*
G54D23*
X1646425Y450394D02*
X1650425D01*
G54D24*
X1634000Y464819D02*
X1662850D01*
X1634000Y435969D02*
X1662850D01*
G54D34*
X1648622Y129528D02*
X1659646D01*
X1648622Y109843D02*
X1659646D01*
X1648622Y90158D02*
X1659646D01*
X1648622Y70473D02*
X1659646D01*
X1725393D02*
X1736418D01*
X1725393Y90158D02*
X1736418D01*
X1725393Y109843D02*
X1736418D01*
X1725393Y129528D02*
X1736418D01*
G54D35*
X1692520Y91626D02*
Y108376D01*
G54D26*
X1670720Y70326D02*
Y129676D01*
X1714320Y70326D02*
Y129676D01*
G54D25*
X1715748Y159449D03*
G54D36*
X1725393Y109843D02*
X1736418D01*
X1648622Y90158D02*
X1659646D01*
X1725393D02*
X1736418D01*
X1725393Y129528D02*
X1736418D01*
G54D37*
X1608268Y141733D03*
Y125985D03*
X1592520D03*
Y141733D03*
X1805906Y70867D03*
X1790157D03*
X1774409D03*
X1758661D03*
X1805906Y86615D03*
X1790157D03*
X1774409D03*
X1758661D03*
X1805906Y102363D03*
X1790157D03*
X1774409D03*
X1758661D03*
G54D38*
X1898228Y427166D03*
Y407481D03*
Y387796D03*
X1881496Y417323D03*
Y397638D03*
X1864764Y427166D03*
Y407481D03*
Y387796D03*
G54D39*
X1593504Y71851D03*
Y85630D03*
X1607283D03*
Y71851D03*
G54D40*
X1942323Y404379D02*
Y410284D01*
X1922244Y404379D02*
Y410284D01*
X1943110Y429331D02*
Y435237D01*
X1923031Y429331D02*
Y435237D01*
X1942567Y382875D02*
Y388780D01*
X1922488Y382875D02*
Y388780D01*
G54D41*
X1923323Y361961D02*
Y365898D01*
X1943008Y361961D02*
Y365898D01*
G54D42*
X1043307Y39371D02*
X1043457Y35938D01*
X1043906Y32536D01*
X1044650Y29182D01*
X1045681Y25906D01*
X1046996Y22733D01*
X1048583Y19686D01*
X1050425Y16788D01*
X1052520Y14064D01*
X1054839Y11532D01*
X1057370Y9213D01*
X1060094Y7119D01*
X1062992Y5276D01*
X1066039Y3690D01*
X1069213Y2375D01*
X1072488Y1343D01*
X1075843Y599D01*
X1079244Y150D01*
X1082677Y1D01*
X1937008D01*
X1940441Y150D01*
X1943843Y599D01*
X1947197Y1343D01*
X1950472Y2375D01*
X1953646Y3690D01*
X1956693Y5276D01*
X1959591Y7119D01*
X1962315Y9213D01*
X1964846Y11532D01*
X1967165Y14064D01*
X1969260Y16788D01*
X1971102Y19686D01*
X1972689Y22733D01*
X1974004Y25906D01*
X1975035Y29182D01*
X1975780Y32536D01*
X1976228Y35938D01*
X1976378Y39371D01*
Y78741D01*
X1976453Y80457D01*
X1976677Y82158D01*
X1977047Y83835D01*
X1977567Y85473D01*
X1978220Y87060D01*
X1979016Y88583D01*
X1979937Y90032D01*
X1980984Y91394D01*
X1982142Y92662D01*
X1983409Y93819D01*
X1984772Y94867D01*
X1986220Y95788D01*
X1987744Y96583D01*
X1989331Y97237D01*
X1990968Y97756D01*
X1992646Y98127D01*
X1994346Y98351D01*
X1996063Y98426D01*
X1996748Y98457D01*
X1997429Y98544D01*
X1998102Y98693D01*
X1998756Y98902D01*
X1999390Y99162D01*
X2000000Y99481D01*
X2000579Y99851D01*
X2001126Y100268D01*
X2001630Y100733D01*
X2002094Y101237D01*
X2002512Y101784D01*
X2002882Y102363D01*
X2003201Y102973D01*
X2003461Y103607D01*
X2003669Y104260D01*
X2003819Y104934D01*
X2003906Y105615D01*
X2003937Y106300D01*
Y448819D01*
X2003921Y449162D01*
X2003878Y449504D01*
X2003803Y449839D01*
X2003701Y450166D01*
X2003567Y450485D01*
X2003409Y450788D01*
X2003224Y451079D01*
X2003016Y451351D01*
X2002783Y451603D01*
X2002531Y451835D01*
X2002260Y452044D01*
X2001968Y452229D01*
X2001665Y452386D01*
X2001346Y452520D01*
X2001020Y452623D01*
X2000685Y452697D01*
X2000343Y452741D01*
X2000000Y452756D01*
X1998283Y452831D01*
X1996583Y453056D01*
X1994906Y453426D01*
X1993268Y453945D01*
X1991681Y454599D01*
X1990157Y455394D01*
X1988709Y456316D01*
X1987346Y457363D01*
X1986079Y458520D01*
X1984921Y459788D01*
X1983874Y461150D01*
X1982953Y462599D01*
X1982157Y464123D01*
X1981504Y465709D01*
X1980984Y467347D01*
X1980614Y469024D01*
X1980390Y470725D01*
X1980315Y472441D01*
Y511812D01*
X1980165Y515245D01*
X1979717Y518646D01*
X1978972Y522001D01*
X1977941Y525276D01*
X1976626Y528449D01*
X1975039Y531497D01*
X1973197Y534394D01*
X1971102Y537119D01*
X1968783Y539650D01*
X1966252Y541969D01*
X1963528Y544064D01*
X1960630Y545906D01*
X1957583Y547493D01*
X1954409Y548808D01*
X1951134Y549839D01*
X1947780Y550583D01*
X1944378Y551032D01*
X1940945Y551182D01*
X1082677D01*
X1079244Y551032D01*
X1075843Y550583D01*
X1072488Y549839D01*
X1069213Y548808D01*
X1066039Y547493D01*
X1062992Y545906D01*
X1060094Y544064D01*
X1057370Y541969D01*
X1054839Y539650D01*
X1052520Y537119D01*
X1050425Y534394D01*
X1048583Y531497D01*
X1046996Y528449D01*
X1045681Y525276D01*
X1044650Y522001D01*
X1043906Y518646D01*
X1043457Y515245D01*
X1043307Y511812D01*
Y39371D01*
%LPD*%
G75*
X1043307Y39371D02*
G54D10*
X1070866Y1149607D02*
X1070874Y1149780D01*
X1070898Y1149953D01*
X1070937Y1150123D01*
X1070988Y1150288D01*
X1071055Y1150449D01*
X1071138Y1150603D01*
X1071232Y1150749D01*
X1071339Y1150886D01*
X1071457Y1151012D01*
X1071587Y1151130D01*
X1071728Y1151233D01*
X1071874Y1151327D01*
X1072031Y1151402D01*
X1072193Y1151469D01*
X1072362Y1151516D01*
X1072531Y1151552D01*
X1072705Y1151571D01*
X1072878Y1151575D01*
X1073051Y1151564D01*
X1073224Y1151536D01*
X1073394Y1151493D01*
X1073559Y1151438D01*
X1073717Y1151367D01*
X1073870Y1151280D01*
X1074012Y1151186D01*
X1074146Y1151075D01*
X1074272Y1150953D01*
X1074386Y1150819D01*
X1074488Y1150678D01*
X1074575Y1150528D01*
X1074650Y1150371D01*
X1074709Y1150205D01*
X1074756Y1150040D01*
X1074787Y1149867D01*
X1074803Y1149693D01*
Y1149520D01*
X1074787Y1149347D01*
X1074756Y1149174D01*
X1074709Y1149008D01*
X1074650Y1148843D01*
X1074575Y1148686D01*
X1074488Y1148536D01*
X1074386Y1148394D01*
X1074272Y1148260D01*
X1074146Y1148138D01*
X1074012Y1148028D01*
X1073870Y1147934D01*
X1073717Y1147847D01*
X1073559Y1147776D01*
X1073394Y1147721D01*
X1073224Y1147678D01*
X1073051Y1147650D01*
X1072878Y1147638D01*
X1072705Y1147642D01*
X1072531Y1147662D01*
X1072362Y1147697D01*
X1072193Y1147745D01*
X1072031Y1147812D01*
X1071874Y1147886D01*
X1071728Y1147981D01*
X1071587Y1148083D01*
X1071457Y1148201D01*
X1071339Y1148327D01*
X1071232Y1148465D01*
X1071138Y1148611D01*
X1071055Y1148764D01*
X1070988Y1148926D01*
X1070937Y1149091D01*
X1070898Y1149260D01*
X1070874Y1149434D01*
X1070866Y1149607D01*
G54D11*
X1711811Y820867D02*
X1719685D01*
X1711811Y793308D02*
X1719685D01*
G54D12*
X1723622Y789371D02*
Y824804D01*
X1707874D02*
Y789371D01*
G54D13*
X1552626Y1167323D02*
X1056563D01*
X1552626D02*
Y706693D01*
X1056563D01*
Y1167323D01*
G54D11*
X1932283Y1037253D03*
X1933071Y1062205D03*
X1932528Y1015749D03*
G54D12*
X1620079Y744095D02*
X1580709D01*
X1620079D02*
Y771654D01*
Y783465D01*
X1608268D01*
X1580709D01*
Y744095D01*
X1620079Y771654D02*
X1608268Y783465D01*
G54D11*
X1664567Y793308D02*
X1672441D01*
X1664567Y820867D02*
X1672441D01*
G54D12*
X1660630Y824804D02*
Y789371D01*
X1676378D02*
Y824804D01*
G54D14*
X1819646Y686615D03*
G54D12*
X1909055Y1062008D02*
Y1069882D01*
Y1062008D02*
Y1004922D01*
X1853937D01*
Y1069882D01*
X1901181D01*
X1909055D01*
G54D14*
X1913976Y1074804D03*
G54D11*
X1923772Y759056D02*
X1943457D01*
X1923772Y707875D02*
X1943457D01*
G54D12*
X1947394Y703938D02*
Y762993D01*
X1919835D02*
Y703938D01*
G54D11*
X1798031Y795276D02*
X1805906D01*
X1798031Y767717D02*
X1805906D01*
G54D12*
X1809843Y763780D02*
Y799213D01*
X1794094D02*
Y763780D01*
G54D11*
X1759449Y795276D02*
X1767323D01*
X1759449Y767717D02*
X1767323D01*
G54D12*
X1771260Y763780D02*
Y799213D01*
X1755512D02*
Y763780D01*
G54D14*
X1581299Y689213D03*
G54D13*
X1927953Y1166536D02*
X1935039D01*
Y1150788D01*
Y1101182D02*
Y1085434D01*
X1927953D01*
X1861024D02*
X1853937D01*
Y1101182D01*
Y1166536D02*
X1861024D01*
X1853937D02*
Y1150788D01*
G54D14*
X1942913Y1076772D03*
G54D15*
X1633307Y784839D03*
G54D16*
X1815243Y887869D02*
X1558340D01*
X1815243D02*
X1840873Y913498D01*
Y1170400D01*
X1558340D01*
Y887869D01*
G54D17*
X1582867Y691129D02*
Y726195D01*
X1617921D01*
Y691129D01*
X1582867D01*
G54D18*
X1817439Y689255D02*
Y702895D01*
Y689255D02*
X1804175D01*
X1747128D02*
Y702895D01*
Y689255D02*
X1760392D01*
X1747128Y730177D02*
Y743817D01*
X1760392D01*
X1817439D02*
Y730177D01*
Y743817D02*
X1804175D01*
%LPC*%
G75*
X1804175Y743817D02*
G54D19*
X1996457Y857087D02*
Y812993D01*
X1850000D01*
Y857087D01*
X1996457D01*
Y823465D02*
X1850000D01*
Y833938D02*
X1996457D01*
Y844410D02*
X1850000D01*
Y854882D02*
X1996457D01*
X1850000Y921260D02*
Y965355D01*
X1996457D01*
Y921260D01*
X1850000D01*
Y931733D02*
X1996457D01*
Y942205D02*
X1850000D01*
Y952678D02*
X1996457D01*
Y963150D02*
X1850000D01*
G54D20*
X1892067Y708071D02*
Y693898D01*
X1838059D01*
Y708071D01*
X1892067D01*
Y702875D02*
X1838059D01*
X1892067Y758859D02*
Y773032D01*
Y758859D02*
X1838059D01*
Y773032D01*
X1892067D01*
Y767835D02*
X1838059D01*
G54D21*
X1919634Y1111662D02*
Y1120623D01*
X1929579D01*
Y1111662D01*
X1919634D01*
Y1112504D02*
X1929579D01*
Y1113347D02*
X1919634D01*
Y1114190D02*
X1929579D01*
Y1115032D02*
X1919634D01*
Y1115875D02*
X1929579D01*
Y1116717D02*
X1919634D01*
Y1117560D02*
X1929579D01*
Y1118402D02*
X1919634D01*
Y1119245D02*
X1929579D01*
Y1120087D02*
X1919634D01*
Y1131347D02*
Y1140308D01*
X1929579D01*
Y1131347D01*
X1919634D01*
Y1132190D02*
X1929579D01*
Y1133032D02*
X1919634D01*
Y1133875D02*
X1929579D01*
Y1134717D02*
X1919634D01*
Y1135560D02*
X1929579D01*
Y1136402D02*
X1919634D01*
Y1137245D02*
X1929579D01*
Y1138087D02*
X1919634D01*
Y1138930D02*
X1929579D01*
Y1139772D02*
X1919634D01*
X1909693Y1151130D02*
Y1161075D01*
X1918654D01*
Y1151130D01*
X1909693D01*
Y1151973D02*
X1918654D01*
Y1152816D02*
X1909693D01*
Y1153658D02*
X1918654D01*
Y1154501D02*
X1909693D01*
Y1155343D02*
X1918654D01*
Y1156186D02*
X1909693D01*
Y1157028D02*
X1918654D01*
Y1157871D02*
X1909693D01*
Y1158713D02*
X1918654D01*
Y1159556D02*
X1909693D01*
Y1160398D02*
X1918654D01*
X1890008Y1161075D02*
Y1151130D01*
Y1161075D02*
X1898968D01*
Y1151130D01*
X1890008D01*
Y1151973D02*
X1898968D01*
Y1152816D02*
X1890008D01*
Y1153658D02*
X1898968D01*
Y1154501D02*
X1890008D01*
Y1155343D02*
X1898968D01*
Y1156186D02*
X1890008D01*
Y1157028D02*
X1898968D01*
Y1157871D02*
X1890008D01*
Y1158713D02*
X1898968D01*
Y1159556D02*
X1890008D01*
Y1160398D02*
X1898968D01*
X1870323Y1161075D02*
Y1151130D01*
Y1161075D02*
X1879283D01*
Y1151130D01*
X1870323D01*
Y1151973D02*
X1879283D01*
Y1152816D02*
X1870323D01*
Y1153658D02*
X1879283D01*
Y1154501D02*
X1870323D01*
Y1155343D02*
X1879283D01*
Y1156186D02*
X1870323D01*
Y1157028D02*
X1879283D01*
Y1157871D02*
X1870323D01*
Y1158713D02*
X1879283D01*
Y1159556D02*
X1870323D01*
Y1160398D02*
X1879283D01*
X1859398Y1140308D02*
Y1131347D01*
Y1140308D02*
X1869343D01*
Y1131347D01*
X1859398D01*
Y1132190D02*
X1869343D01*
Y1133032D02*
X1859398D01*
Y1133875D02*
X1869343D01*
Y1134717D02*
X1859398D01*
Y1135560D02*
X1869343D01*
Y1136402D02*
X1859398D01*
Y1137245D02*
X1869343D01*
Y1138087D02*
X1859398D01*
Y1138930D02*
X1869343D01*
Y1139772D02*
X1859398D01*
Y1120623D02*
Y1111662D01*
Y1120623D02*
X1869343D01*
Y1111662D01*
X1859398D01*
Y1112504D02*
X1869343D01*
Y1113347D02*
X1859398D01*
Y1114190D02*
X1869343D01*
Y1115032D02*
X1859398D01*
Y1115875D02*
X1869343D01*
Y1116717D02*
X1859398D01*
Y1117560D02*
X1869343D01*
Y1118402D02*
X1859398D01*
Y1119245D02*
X1869343D01*
Y1120087D02*
X1859398D01*
X1870323Y1100839D02*
Y1090894D01*
Y1100839D02*
X1879283D01*
Y1090894D01*
X1870323D01*
Y1091737D02*
X1879283D01*
Y1092579D02*
X1870323D01*
Y1093422D02*
X1879283D01*
Y1094264D02*
X1870323D01*
Y1095107D02*
X1879283D01*
Y1095949D02*
X1870323D01*
Y1096792D02*
X1879283D01*
Y1097634D02*
X1870323D01*
Y1098477D02*
X1879283D01*
Y1099319D02*
X1870323D01*
Y1100162D02*
X1879283D01*
X1890008Y1100839D02*
Y1090894D01*
Y1100839D02*
X1898968D01*
Y1090894D01*
X1890008D01*
Y1091737D02*
X1898968D01*
Y1092579D02*
X1890008D01*
Y1093422D02*
X1898968D01*
Y1094264D02*
X1890008D01*
Y1095107D02*
X1898968D01*
Y1095949D02*
X1890008D01*
Y1096792D02*
X1898968D01*
Y1097634D02*
X1890008D01*
Y1098477D02*
X1898968D01*
Y1099319D02*
X1890008D01*
Y1100162D02*
X1898968D01*
G54D22*
X1909606Y1100827D02*
Y1090906D01*
Y1100827D02*
X1918740D01*
Y1090906D01*
X1909606D01*
Y1091764D02*
X1918740D01*
Y1092623D02*
X1909606D01*
Y1093481D02*
X1918740D01*
Y1094339D02*
X1909606D01*
Y1095197D02*
X1918740D01*
Y1096056D02*
X1909606D01*
Y1096914D02*
X1918740D01*
Y1097772D02*
X1909606D01*
Y1098630D02*
X1918740D01*
Y1099489D02*
X1909606D01*
Y1100347D02*
X1918740D01*
G54D23*
X1713748Y824804D02*
X1717748D01*
G54D24*
X1701323Y839229D02*
X1730173D01*
X1701323Y810379D02*
X1730173D01*
G54D23*
X1713748Y789371D02*
X1717748D01*
G54D24*
X1701323Y803796D02*
X1730173D01*
X1701323Y774946D02*
X1730173D01*
G54D25*
X1075779Y1110237D02*
X1088529D01*
G54D26*
X1060354Y1126162D02*
X1103954D01*
X1060354Y1094312D02*
X1103954D01*
G54D25*
X1075779Y1078741D02*
X1088529D01*
G54D26*
X1060354Y1094666D02*
X1103954D01*
X1060354Y1062816D02*
X1103954D01*
G54D25*
X1075779Y1047245D02*
X1088529D01*
G54D26*
X1060354Y1063170D02*
X1103954D01*
X1060354Y1031320D02*
X1103954D01*
G54D25*
X1075779Y1015749D02*
X1088529D01*
G54D26*
X1060354Y1031674D02*
X1103954D01*
X1060354Y999824D02*
X1103954D01*
G54D25*
X1075779Y984253D02*
X1088529D01*
G54D26*
X1060354Y1000178D02*
X1103954D01*
X1060354Y968328D02*
X1103954D01*
G54D25*
X1075779Y952756D02*
X1088529D01*
G54D26*
X1060354Y968681D02*
X1103954D01*
X1060354Y936831D02*
X1103954D01*
G54D25*
X1075779Y921260D02*
X1088529D01*
G54D26*
X1060354Y937185D02*
X1103954D01*
X1060354Y905335D02*
X1103954D01*
G54D25*
X1075779Y889764D02*
X1088529D01*
G54D26*
X1060354Y905689D02*
X1103954D01*
X1060354Y873839D02*
X1103954D01*
G54D25*
X1075779Y858268D02*
X1088529D01*
G54D26*
X1060354Y874193D02*
X1103954D01*
X1060354Y842343D02*
X1103954D01*
G54D25*
X1075779Y826772D02*
X1088529D01*
G54D26*
X1060354Y842697D02*
X1103954D01*
X1060354Y810847D02*
X1103954D01*
G54D25*
X1075779Y795276D02*
X1088529D01*
G54D26*
X1060354Y811201D02*
X1103954D01*
X1060354Y779351D02*
X1103954D01*
G54D25*
X1075779Y763780D02*
X1088529D01*
G54D26*
X1060354Y779705D02*
X1103954D01*
X1060354Y747855D02*
X1103954D01*
G54D25*
X1131366Y725909D02*
Y738659D01*
G54D26*
X1115441Y710484D02*
Y754084D01*
X1147291Y710484D02*
Y754084D01*
G54D25*
X1162862Y725909D02*
Y738659D01*
G54D26*
X1146937Y710484D02*
Y754084D01*
X1178787Y710484D02*
Y754084D01*
G54D25*
X1194358Y725909D02*
Y738659D01*
G54D26*
X1178433Y710484D02*
Y754084D01*
X1210283Y710484D02*
Y754084D01*
G54D25*
X1225854Y725909D02*
Y738659D01*
G54D26*
X1209929Y710484D02*
Y754084D01*
X1241779Y710484D02*
Y754084D01*
G54D25*
X1257350Y725909D02*
Y738659D01*
G54D26*
X1241425Y710484D02*
Y754084D01*
X1273275Y710484D02*
Y754084D01*
G54D25*
X1288846Y725909D02*
Y738659D01*
G54D26*
X1272921Y710484D02*
Y754084D01*
X1304771Y710484D02*
Y754084D01*
G54D25*
X1320343Y725909D02*
Y738659D01*
G54D26*
X1304418Y710484D02*
Y754084D01*
X1336268Y710484D02*
Y754084D01*
G54D25*
X1351839Y725909D02*
Y738659D01*
G54D26*
X1335914Y710484D02*
Y754084D01*
X1367764Y710484D02*
Y754084D01*
G54D25*
X1383335Y725909D02*
Y738659D01*
G54D26*
X1367410Y710484D02*
Y754084D01*
X1399260Y710484D02*
Y754084D01*
G54D25*
X1414831Y725909D02*
Y738659D01*
G54D26*
X1398906Y710484D02*
Y754084D01*
X1430756Y710484D02*
Y754084D01*
G54D25*
X1446327Y725909D02*
Y738659D01*
G54D26*
X1430402Y710484D02*
Y754084D01*
X1462252Y710484D02*
Y754084D01*
G54D25*
X1477823Y725909D02*
Y738659D01*
G54D26*
X1461898Y710484D02*
Y754084D01*
X1493748Y710484D02*
Y754084D01*
G54D25*
X1520660Y763780D02*
X1533410D01*
G54D26*
X1505235Y779705D02*
X1548835D01*
X1505235Y747855D02*
X1548835D01*
G54D25*
X1520660Y795276D02*
X1533410D01*
G54D26*
X1505235Y811201D02*
X1548835D01*
X1505235Y779351D02*
X1548835D01*
G54D25*
X1520660Y826772D02*
X1533410D01*
G54D26*
X1505235Y842697D02*
X1548835D01*
X1505235Y810847D02*
X1548835D01*
G54D25*
X1520660Y858268D02*
X1533410D01*
G54D26*
X1505235Y874193D02*
X1548835D01*
X1505235Y842343D02*
X1548835D01*
G54D25*
X1520660Y889764D02*
X1533410D01*
G54D26*
X1505235Y905689D02*
X1548835D01*
X1505235Y873839D02*
X1548835D01*
G54D25*
X1520660Y921260D02*
X1533410D01*
G54D26*
X1505235Y937185D02*
X1548835D01*
X1505235Y905335D02*
X1548835D01*
G54D25*
X1520660Y952756D02*
X1533410D01*
G54D26*
X1505235Y968681D02*
X1548835D01*
X1505235Y936831D02*
X1548835D01*
G54D25*
X1520660Y984253D02*
X1533410D01*
G54D26*
X1505235Y1000178D02*
X1548835D01*
X1505235Y968328D02*
X1548835D01*
G54D25*
X1520660Y1015749D02*
X1533410D01*
G54D26*
X1505235Y1031674D02*
X1548835D01*
X1505235Y999824D02*
X1548835D01*
G54D25*
X1520660Y1047245D02*
X1533410D01*
G54D26*
X1505235Y1063170D02*
X1548835D01*
X1505235Y1031320D02*
X1548835D01*
G54D25*
X1520660Y1078741D02*
X1533410D01*
G54D26*
X1505235Y1094666D02*
X1548835D01*
X1505235Y1062816D02*
X1548835D01*
G54D25*
X1520660Y1110237D02*
X1533410D01*
G54D26*
X1505235Y1126162D02*
X1548835D01*
X1505235Y1094312D02*
X1548835D01*
G54D25*
X1477823Y1135358D02*
Y1148108D01*
G54D26*
X1461898Y1119933D02*
Y1163533D01*
X1493748Y1119933D02*
Y1163533D01*
G54D25*
X1446327Y1135358D02*
Y1148108D01*
G54D26*
X1430402Y1119933D02*
Y1163533D01*
X1462252Y1119933D02*
Y1163533D01*
G54D25*
X1414831Y1135358D02*
Y1148108D01*
G54D26*
X1398906Y1119933D02*
Y1163533D01*
X1430756Y1119933D02*
Y1163533D01*
G54D25*
X1383335Y1135358D02*
Y1148108D01*
G54D26*
X1367410Y1119933D02*
Y1163533D01*
X1399260Y1119933D02*
Y1163533D01*
G54D25*
X1351839Y1135358D02*
Y1148108D01*
G54D26*
X1335914Y1119933D02*
Y1163533D01*
X1367764Y1119933D02*
Y1163533D01*
G54D25*
X1320343Y1135358D02*
Y1148108D01*
G54D26*
X1304418Y1119933D02*
Y1163533D01*
X1336268Y1119933D02*
Y1163533D01*
G54D25*
X1288846Y1135358D02*
Y1148108D01*
G54D26*
X1272921Y1119933D02*
Y1163533D01*
X1304771Y1119933D02*
Y1163533D01*
G54D25*
X1257350Y1135358D02*
Y1148108D01*
G54D26*
X1241425Y1119933D02*
Y1163533D01*
X1273275Y1119933D02*
Y1163533D01*
G54D25*
X1225854Y1135358D02*
Y1148108D01*
G54D26*
X1209929Y1119933D02*
Y1163533D01*
X1241779Y1119933D02*
Y1163533D01*
G54D25*
X1194358Y1135358D02*
Y1148108D01*
G54D26*
X1178433Y1119933D02*
Y1163533D01*
X1210283Y1119933D02*
Y1163533D01*
G54D25*
X1162862Y1135358D02*
Y1148108D01*
G54D26*
X1146937Y1119933D02*
Y1163533D01*
X1178787Y1119933D02*
Y1163533D01*
G54D25*
X1131366Y1135358D02*
Y1148108D01*
G54D26*
X1115441Y1119933D02*
Y1163533D01*
X1147291Y1119933D02*
Y1163533D01*
G54D27*
X1212043Y1027560D02*
X1216043D01*
G54D24*
X1177993Y1063610D02*
X1250093D01*
X1177993Y991510D02*
X1250093D01*
G54D27*
X1302594Y1027560D02*
X1306594D01*
G54D24*
X1268544Y1063610D02*
X1340644D01*
X1268544Y991510D02*
X1340644D01*
G54D27*
X1393146Y1027560D02*
X1397146D01*
G54D24*
X1359096Y1063610D02*
X1431196D01*
X1359096Y991510D02*
X1431196D01*
G54D27*
X1212043Y937008D02*
X1216043D01*
G54D24*
X1177993Y973058D02*
X1250093D01*
X1177993Y900958D02*
X1250093D01*
G54D27*
X1302594Y937008D02*
X1306594D01*
G54D24*
X1268544Y973058D02*
X1340644D01*
X1268544Y900958D02*
X1340644D01*
G54D27*
X1393146Y937008D02*
X1397146D01*
G54D24*
X1359096Y973058D02*
X1431196D01*
X1359096Y900958D02*
X1431196D01*
G54D27*
X1212043Y846457D02*
X1216043D01*
G54D24*
X1177993Y882507D02*
X1250093D01*
X1177993Y810407D02*
X1250093D01*
G54D27*
X1302594Y846457D02*
X1306594D01*
G54D24*
X1268544Y882507D02*
X1340644D01*
X1268544Y810407D02*
X1340644D01*
G54D27*
X1393146Y846457D02*
X1397146D01*
G54D24*
X1359096Y882507D02*
X1431196D01*
X1359096Y810407D02*
X1431196D01*
G54D28*
X1883858Y835040D03*
X1962598D03*
G54D29*
X1097244Y731497D03*
G54D28*
X1962598Y943308D03*
X1883858D03*
G54D23*
X1666504Y789371D02*
X1670504D01*
G54D24*
X1654079Y803796D02*
X1682929D01*
X1654079Y774946D02*
X1682929D01*
G54D23*
X1666504Y824804D02*
X1670504D01*
G54D24*
X1654079Y839229D02*
X1682929D01*
X1654079Y810379D02*
X1682929D01*
G54D30*
X1924989Y762993D02*
X1942239D01*
G54D31*
X1907939Y780793D02*
X1959289D01*
X1907939Y745193D02*
X1959289D01*
G54D30*
X1924989Y703938D02*
X1942239D01*
G54D31*
X1907939Y721738D02*
X1959289D01*
X1907939Y686138D02*
X1959289D01*
G54D23*
X1799968Y799213D02*
X1803968D01*
G54D24*
X1787543Y813638D02*
X1816393D01*
X1787543Y784788D02*
X1816393D01*
G54D23*
X1799968Y763780D02*
X1803968D01*
G54D24*
X1787543Y778205D02*
X1816393D01*
X1787543Y749355D02*
X1816393D01*
G54D23*
X1761386Y799213D02*
X1765386D01*
G54D24*
X1748961Y813638D02*
X1777811D01*
X1748961Y784788D02*
X1777811D01*
G54D23*
X1761386Y763780D02*
X1765386D01*
G54D24*
X1748961Y778205D02*
X1777811D01*
X1748961Y749355D02*
X1777811D01*
G54D32*
X1078740Y657481D03*
X1198819D03*
G54D33*
X1820872Y926772D02*
X1826372D01*
G54D31*
X1809822Y938572D02*
X1837422D01*
X1809822Y914972D02*
X1837422D01*
G54D33*
X1820872Y952363D02*
X1826372D01*
G54D31*
X1809822Y964163D02*
X1837422D01*
X1809822Y940563D02*
X1837422D01*
G54D33*
X1820872Y977953D02*
X1826372D01*
G54D31*
X1809822Y989753D02*
X1837422D01*
X1809822Y966153D02*
X1837422D01*
G54D33*
X1820872Y1003544D02*
X1826372D01*
G54D31*
X1809822Y1015344D02*
X1837422D01*
X1809822Y991744D02*
X1837422D01*
G54D33*
X1820872Y1029134D02*
X1826372D01*
G54D31*
X1809822Y1040934D02*
X1837422D01*
X1809822Y1017334D02*
X1837422D01*
G54D33*
X1820872Y1054725D02*
X1826372D01*
G54D31*
X1809822Y1066525D02*
X1837422D01*
X1809822Y1042925D02*
X1837422D01*
G54D33*
X1820872Y1080316D02*
X1826372D01*
G54D31*
X1809822Y1092116D02*
X1837422D01*
X1809822Y1068516D02*
X1837422D01*
G54D33*
X1820872Y1105906D02*
X1826372D01*
G54D31*
X1809822Y1117706D02*
X1837422D01*
X1809822Y1094106D02*
X1837422D01*
G54D33*
X1820872Y1131497D02*
X1826372D01*
G54D31*
X1809822Y1143297D02*
X1837422D01*
X1809822Y1119697D02*
X1837422D01*
G54D33*
X1801968Y1150400D02*
Y1155900D01*
G54D31*
X1790168Y1139350D02*
Y1166950D01*
X1813768Y1139350D02*
Y1166950D01*
G54D33*
X1776378Y1150400D02*
Y1155900D01*
G54D31*
X1764578Y1139350D02*
Y1166950D01*
X1788178Y1139350D02*
Y1166950D01*
G54D33*
X1750787Y1150400D02*
Y1155900D01*
G54D31*
X1738987Y1139350D02*
Y1166950D01*
X1762587Y1139350D02*
Y1166950D01*
G54D33*
X1723228Y1150400D02*
Y1155900D01*
G54D31*
X1711428Y1139350D02*
Y1166950D01*
X1735028Y1139350D02*
Y1166950D01*
G54D33*
X1699606Y1150400D02*
Y1155900D01*
G54D31*
X1687806Y1139350D02*
Y1166950D01*
X1711406Y1139350D02*
Y1166950D01*
G54D33*
X1674016Y1150400D02*
Y1155900D01*
G54D31*
X1662216Y1139350D02*
Y1166950D01*
X1685816Y1139350D02*
Y1166950D01*
G54D33*
X1648425Y1150400D02*
Y1155900D01*
G54D31*
X1636625Y1139350D02*
Y1166950D01*
X1660225Y1139350D02*
Y1166950D01*
G54D33*
X1622835Y1150400D02*
Y1155900D01*
G54D31*
X1611035Y1139350D02*
Y1166950D01*
X1634635Y1139350D02*
Y1166950D01*
G54D33*
X1597244Y1150400D02*
Y1155900D01*
G54D31*
X1585444Y1139350D02*
Y1166950D01*
X1609044Y1139350D02*
Y1166950D01*
G54D33*
X1572841Y1131497D02*
X1578341D01*
G54D31*
X1561791Y1143297D02*
X1589391D01*
X1561791Y1119697D02*
X1589391D01*
G54D33*
X1572841Y1105906D02*
X1578341D01*
G54D31*
X1561791Y1117706D02*
X1589391D01*
X1561791Y1094106D02*
X1589391D01*
G54D33*
X1572841Y1080316D02*
X1578341D01*
G54D31*
X1561791Y1092116D02*
X1589391D01*
X1561791Y1068516D02*
X1589391D01*
G54D33*
X1572841Y1054725D02*
X1578341D01*
G54D31*
X1561791Y1066525D02*
X1589391D01*
X1561791Y1042925D02*
X1589391D01*
G54D33*
X1572841Y1029134D02*
X1578341D01*
G54D31*
X1561791Y1040934D02*
X1589391D01*
X1561791Y1017334D02*
X1589391D01*
G54D33*
X1572841Y1003544D02*
X1578341D01*
G54D31*
X1561791Y1015344D02*
X1589391D01*
X1561791Y991744D02*
X1589391D01*
G54D33*
X1572841Y977953D02*
X1578341D01*
G54D31*
X1561791Y989753D02*
X1589391D01*
X1561791Y966153D02*
X1589391D01*
G54D33*
X1572841Y952363D02*
X1578341D01*
G54D31*
X1561791Y964163D02*
X1589391D01*
X1561791Y940563D02*
X1589391D01*
G54D33*
X1572841Y926772D02*
X1578341D01*
G54D31*
X1561791Y938572D02*
X1589391D01*
X1561791Y914972D02*
X1589391D01*
G54D33*
X1597244Y902369D02*
Y907869D01*
G54D31*
X1585444Y891319D02*
Y918919D01*
X1609044Y891319D02*
Y918919D01*
G54D33*
X1622835Y902369D02*
Y907869D01*
G54D31*
X1611035Y891319D02*
Y918919D01*
X1634635Y891319D02*
Y918919D01*
G54D33*
X1648425Y902369D02*
Y907869D01*
G54D31*
X1636625Y891319D02*
Y918919D01*
X1660225Y891319D02*
Y918919D01*
G54D33*
X1674016Y902369D02*
Y907869D01*
G54D31*
X1662216Y891319D02*
Y918919D01*
X1685816Y891319D02*
Y918919D01*
G54D33*
X1699606Y902369D02*
Y907869D01*
G54D31*
X1687806Y891319D02*
Y918919D01*
X1711406Y891319D02*
Y918919D01*
G54D33*
X1725197Y902369D02*
Y907869D01*
G54D31*
X1713397Y891319D02*
Y918919D01*
X1736997Y891319D02*
Y918919D01*
G54D33*
X1750787Y902369D02*
Y907869D01*
G54D31*
X1738987Y891319D02*
Y918919D01*
X1762587Y891319D02*
Y918919D01*
G54D33*
X1774409Y902369D02*
Y907869D01*
G54D31*
X1762609Y891319D02*
Y918919D01*
X1786209Y891319D02*
Y918919D01*
G54D33*
X1801968Y902369D02*
Y907869D01*
G54D31*
X1790168Y891319D02*
Y918919D01*
X1813768Y891319D02*
Y918919D01*
G54D23*
X1697606Y1029134D02*
X1701606D01*
G54D24*
X1685181Y1043559D02*
X1714031D01*
X1685181Y1014709D02*
X1714031D01*
G54D23*
X1697606Y977953D02*
X1701606D01*
G54D24*
X1685181Y992378D02*
X1714031D01*
X1685181Y963528D02*
X1714031D01*
G54D23*
X1748787Y977953D02*
X1752787D01*
G54D24*
X1736362Y992378D02*
X1765212D01*
X1736362Y963528D02*
X1765212D01*
G54D23*
X1748787Y1029134D02*
X1752787D01*
G54D24*
X1736362Y1043559D02*
X1765212D01*
X1736362Y1014709D02*
X1765212D01*
G54D23*
X1748787Y1080316D02*
X1752787D01*
G54D24*
X1736362Y1094741D02*
X1765212D01*
X1736362Y1065891D02*
X1765212D01*
G54D23*
X1697606Y1080316D02*
X1701606D01*
G54D24*
X1685181Y1094741D02*
X1714031D01*
X1685181Y1065891D02*
X1714031D01*
G54D23*
X1646425Y1080316D02*
X1650425D01*
G54D24*
X1634000Y1094741D02*
X1662850D01*
X1634000Y1065891D02*
X1662850D01*
G54D34*
X1648622Y759449D02*
X1659646D01*
X1648622Y739764D02*
X1659646D01*
X1648622Y720079D02*
X1659646D01*
X1648622Y700394D02*
X1659646D01*
X1725393D02*
X1736418D01*
X1725393Y720079D02*
X1736418D01*
X1725393Y739764D02*
X1736418D01*
X1725393Y759449D02*
X1736418D01*
G54D35*
X1692520Y721547D02*
Y738297D01*
G54D26*
X1670720Y700247D02*
Y759597D01*
X1714320Y700247D02*
Y759597D01*
G54D25*
X1715748Y789371D03*
G54D36*
X1725393Y739764D02*
X1736418D01*
X1648622Y720079D02*
X1659646D01*
X1725393D02*
X1736418D01*
X1725393Y759449D02*
X1736418D01*
G54D37*
X1608268Y771654D03*
Y755906D03*
X1592520D03*
Y771654D03*
X1805906Y700788D03*
X1790157D03*
X1774409D03*
X1758661D03*
X1805906Y716536D03*
X1790157D03*
X1774409D03*
X1758661D03*
X1805906Y732284D03*
X1790157D03*
X1774409D03*
X1758661D03*
G54D38*
X1898228Y1057087D03*
Y1037402D03*
Y1017717D03*
X1881496Y1047245D03*
Y1027560D03*
X1864764Y1057087D03*
Y1037402D03*
Y1017717D03*
G54D39*
X1593504Y701772D03*
Y715552D03*
X1607283D03*
Y701772D03*
G54D40*
X1942323Y1034300D02*
Y1040205D01*
X1922244Y1034300D02*
Y1040205D01*
X1943110Y1059253D02*
Y1065158D01*
X1923031Y1059253D02*
Y1065158D01*
X1942567Y1012796D02*
Y1018701D01*
X1922488Y1012796D02*
Y1018701D01*
G54D41*
X1923323Y991882D02*
Y995819D01*
X1943008Y991882D02*
Y995819D01*
G54D42*
X1043307Y669292D02*
X1043457Y665859D01*
X1043906Y662457D01*
X1044650Y659103D01*
X1045681Y655827D01*
X1046996Y652654D01*
X1048583Y649607D01*
X1050425Y646709D01*
X1052520Y643985D01*
X1054839Y641453D01*
X1057370Y639134D01*
X1060094Y637040D01*
X1062992Y635197D01*
X1066039Y633611D01*
X1069213Y632296D01*
X1072488Y631264D01*
X1075843Y630520D01*
X1079244Y630071D01*
X1082677Y629922D01*
X1937008D01*
X1940441Y630071D01*
X1943843Y630520D01*
X1947197Y631264D01*
X1950472Y632296D01*
X1953646Y633611D01*
X1956693Y635197D01*
X1959591Y637040D01*
X1962315Y639134D01*
X1964846Y641453D01*
X1967165Y643985D01*
X1969260Y646709D01*
X1971102Y649607D01*
X1972689Y652654D01*
X1974004Y655827D01*
X1975035Y659103D01*
X1975780Y662457D01*
X1976228Y665859D01*
X1976378Y669292D01*
Y708662D01*
X1976453Y710379D01*
X1976677Y712079D01*
X1977047Y713756D01*
X1977567Y715394D01*
X1978220Y716981D01*
X1979016Y718504D01*
X1979937Y719953D01*
X1980984Y721316D01*
X1982142Y722583D01*
X1983409Y723741D01*
X1984772Y724788D01*
X1986220Y725709D01*
X1987744Y726504D01*
X1989331Y727158D01*
X1990968Y727678D01*
X1992646Y728048D01*
X1994346Y728272D01*
X1996063Y728347D01*
X1996748Y728379D01*
X1997429Y728465D01*
X1998102Y728615D01*
X1998756Y728823D01*
X1999390Y729083D01*
X2000000Y729402D01*
X2000579Y729772D01*
X2001126Y730190D01*
X2001630Y730654D01*
X2002094Y731158D01*
X2002512Y731705D01*
X2002882Y732284D01*
X2003201Y732894D01*
X2003461Y733528D01*
X2003669Y734182D01*
X2003819Y734855D01*
X2003906Y735536D01*
X2003937Y736221D01*
Y1078741D01*
X2003921Y1079083D01*
X2003878Y1079426D01*
X2003803Y1079760D01*
X2003701Y1080087D01*
X2003567Y1080406D01*
X2003409Y1080709D01*
X2003224Y1081001D01*
X2003016Y1081272D01*
X2002783Y1081524D01*
X2002531Y1081756D01*
X2002260Y1081965D01*
X2001968Y1082150D01*
X2001665Y1082308D01*
X2001346Y1082441D01*
X2001020Y1082544D01*
X2000685Y1082619D01*
X2000343Y1082662D01*
X2000000Y1082678D01*
X1998283Y1082753D01*
X1996583Y1082977D01*
X1994906Y1083347D01*
X1993268Y1083867D01*
X1991681Y1084520D01*
X1990157Y1085316D01*
X1988709Y1086237D01*
X1987346Y1087284D01*
X1986079Y1088441D01*
X1984921Y1089709D01*
X1983874Y1091071D01*
X1982953Y1092520D01*
X1982157Y1094044D01*
X1981504Y1095630D01*
X1980984Y1097268D01*
X1980614Y1098945D01*
X1980390Y1100646D01*
X1980315Y1102363D01*
Y1141733D01*
X1980165Y1145166D01*
X1979717Y1148567D01*
X1978972Y1151922D01*
X1977941Y1155197D01*
X1976626Y1158371D01*
X1975039Y1161418D01*
X1973197Y1164316D01*
X1971102Y1167040D01*
X1968783Y1169571D01*
X1966252Y1171890D01*
X1963528Y1173985D01*
X1960630Y1175827D01*
X1957583Y1177414D01*
X1954409Y1178729D01*
X1951134Y1179760D01*
X1947780Y1180504D01*
X1944378Y1180953D01*
X1940945Y1181103D01*
X1082677D01*
X1079244Y1180953D01*
X1075843Y1180504D01*
X1072488Y1179760D01*
X1069213Y1178729D01*
X1066039Y1177414D01*
X1062992Y1175827D01*
X1060094Y1173985D01*
X1057370Y1171890D01*
X1054839Y1169571D01*
X1052520Y1167040D01*
X1050425Y1164316D01*
X1048583Y1161418D01*
X1046996Y1158371D01*
X1045681Y1155197D01*
X1044650Y1151922D01*
X1043906Y1148567D01*
X1043457Y1145166D01*
X1043307Y1141733D01*
Y669292D01*
M02*
