*
%FSLAX26Y26*%
%MOIN*%
%ADD10C,0.014900*%
%ADD11C,0.011000*%
%ADD12C,0.013000*%
%ADD13C,0.015900*%
%ADD14C,0.001975*%
%ADD15C,0.001300*%
%ADD16C,0.002550*%
%ADD17C,0.015748*%
%ADD18C,0.035433*%
%IPPOS*%
%LNl2.gbr*%
%LPD*%
G75*
G54D10*
X735039Y70867D03*
G54D11*
Y98032D02*
Y70867D01*
Y98032D02*
X703543Y129528D01*
X433417Y111812D02*
X379173Y166056D01*
Y379567D01*
X441287Y441682D01*
X827126Y411111D02*
X835913Y402323D01*
X848339D01*
X853102Y407087D01*
X902709D01*
X827126Y425434D02*
X825394Y427166D01*
X827126Y425434D02*
Y411111D01*
X902709Y407087D02*
X902953Y407331D01*
X918740Y426071D02*
Y493615D01*
X891449Y520906D01*
X860394D01*
X855118Y526182D01*
X902953Y410284D02*
Y407331D01*
Y410284D02*
X918740Y426071D01*
X825394Y427166D02*
X799953D01*
X792827Y420040D02*
X483551D01*
X461909Y441682D01*
X792827Y420040D02*
X799953Y427166D01*
X461909Y441682D02*
X441287D01*
X598031Y129528D02*
X691535D01*
X598031D02*
X580315Y111812D01*
X433417D01*
X691535Y129528D02*
X703543D01*
X711394Y78764D02*
X719291Y70867D01*
X711394Y78764D02*
Y92647D01*
X698979Y105062D01*
X698932D01*
X693200Y110794D01*
X412461Y437146D02*
X364173Y388859D01*
X412461Y437146D02*
X416004Y440690D01*
X364173Y388859D02*
Y157481D01*
X842126Y417323D02*
X857087Y432284D01*
X903740D01*
Y487402D01*
X885236Y505906D01*
X435039Y458977D02*
X416752Y440690D01*
X416004D01*
X364173Y157481D02*
X425197Y96457D01*
X603543Y109843D02*
X691535D01*
X603543D02*
X590157Y96457D01*
X425197D01*
X793740Y442166D02*
X831606D01*
X842126Y431646D01*
Y417323D01*
X472126Y458977D02*
X435039D01*
X472126D02*
X495709Y435394D01*
X786968D01*
X793740Y442166D01*
X634646Y503127D02*
X565331D01*
X301575Y407481D02*
Y185827D01*
X545303Y483099D02*
X565331Y503127D01*
X545303Y483099D02*
X528319D01*
X504331Y507087D01*
X401181D01*
X301575Y407481D01*
X260236Y144489D02*
X301575Y185827D01*
X609193Y486359D02*
X576122D01*
X319291Y403985D02*
Y172048D01*
X557862Y468099D02*
X576122Y486359D01*
X557862Y468099D02*
X520091D01*
X496496Y491693D01*
X407000D01*
X319291Y403985D01*
X291732Y144489D02*
X319291Y172048D01*
G54D12*
X283858Y449213D02*
X307087Y472441D01*
X283858Y449213D02*
X270079D01*
X249213Y470079D01*
X176583D01*
X106299Y399796D01*
X260630Y487402D02*
X275591Y472441D01*
X260630Y487402D02*
X156693D01*
X106299Y437008D01*
G54D11*
X536220Y450394D02*
X508661D01*
X410929Y474410D02*
X342520Y406001D01*
Y145670D01*
X409843Y78347D01*
X602953D01*
X614764Y90158D01*
X484646Y474410D02*
X410929D01*
X484646D02*
X508661Y450394D01*
X588189Y402756D02*
X803937D01*
X821260Y385434D01*
X882677D01*
X789055Y384567D02*
X809055Y364567D01*
X471602Y384567D02*
X454988Y401182D01*
X471602Y384567D02*
X789055D01*
X883315Y364567D02*
X883953Y363930D01*
X883315Y364567D02*
X809055D01*
X377165Y511024D02*
X389370Y523229D01*
X655512D01*
X659843Y518898D02*
Y503520D01*
Y518898D02*
X655512Y523229D01*
G54D10*
X719291Y70867D03*
G54D13*
X691535Y109843D03*
X842126Y417323D03*
X903740Y432284D03*
X412480Y437127D03*
X634646Y503111D03*
X260236Y144489D03*
X609173Y486339D03*
X291732Y144489D03*
X307087Y472441D03*
X106299Y399804D03*
X275591Y472441D03*
X106299Y437008D03*
X614764Y90158D03*
X536220Y450394D03*
X588189Y402756D03*
X882677Y385434D03*
X455000Y401182D03*
X883937Y363938D03*
X377165Y511024D03*
X659843Y503504D03*
X855118Y526182D03*
X885236Y505906D03*
X441299Y441693D03*
X902953Y407323D03*
X825394Y427166D03*
X691535Y129528D03*
%LPC*%
G75*
X691535Y129528D02*
G54D14*
X727733Y66779D02*
Y74954D01*
X726597D02*
Y66779D01*
G36*
X833715Y416509D02*
G02X834162Y416219I-455J-1191D01*
G01X841022Y409360D01*
G02X841312Y408913I-902J-902D01*
G02X833715Y416509I814J8411D01*
G37*
G36*
X836608Y410923D02*
G01X847643D01*
G02X842126Y408873I-5518J6400D01*
G02X836608Y410923I-0J8450D01*
G37*
G36*
X842940Y408913D02*
G02X843230Y409360I1191J-455D01*
G01X850090Y416219D01*
G02X850537Y416509I903J-902D01*
G02X842940Y408913I-8410J815D01*
G37*
G54D15*
X850588Y416048D02*
G01X843988Y408971D01*
G36*
X833676Y417323D02*
G02X835610Y422704I8450J1D01*
G02X835726Y422173I-1159J-531D01*
G01Y412473D01*
G02X835610Y411943I-1275J1D01*
G02X833676Y417323I6516J5380D01*
G37*
G36*
X910140Y427434D02*
G01Y437134D01*
G02X910256Y437664I1275J-1D01*
G02X912190Y432284I-6516J-5380D01*
G02X910256Y426904I-8450J-0D01*
G02X910140Y427434I1159J531D01*
G37*
G36*
X886051Y514317D02*
G02X893647Y506720I-814J-8411D01*
G02X893200Y507010I455J1191D01*
G01X886340Y513870D01*
G02X886051Y514317I903J901D01*
G37*
G36*
X879856Y512422D02*
G02X885236Y514356I5380J-6516D01*
G02X890617Y512422I1J-8450D01*
G02X890086Y512306I-531J1159D01*
G01X880386D01*
G02X879856Y512422I1J1275D01*
G37*
G36*
X904555Y423873D02*
G02X904844Y424320I1192J-454D01*
G01X911704Y431180D01*
G02X912151Y431470I903J-901D01*
G02X904555Y423873I-8411J814D01*
G37*
G36*
X820013Y433682D02*
G02X825394Y435616I5380J-6516D01*
G02X830774Y433682I0J-8450D01*
G02X830244Y433566I-531J1159D01*
G01X820544D01*
G02X820013Y433682I0J1275D01*
G37*
G36*
X826208Y435577D02*
G02X833804Y427980I-815J-8410D01*
G02X833357Y428270I455J1191D01*
G01X826498Y435130D01*
G02X826208Y435577I902J903D01*
G37*
G54D16*
X541070Y442719D02*
G01X531371D01*
G54D17*
X3937Y39371D02*
X4087Y35938D01*
X4535Y32536D01*
X5280Y29182D01*
X6311Y25906D01*
X7626Y22733D01*
X9213Y19686D01*
X11055Y16788D01*
X13150Y14064D01*
X15468Y11532D01*
X18000Y9213D01*
X20724Y7119D01*
X23622Y5276D01*
X26669Y3690D01*
X29843Y2375D01*
X33118Y1343D01*
X36472Y599D01*
X39874Y150D01*
X43307Y1D01*
X897638D01*
X901071Y150D01*
X904472Y599D01*
X907827Y1343D01*
X911102Y2375D01*
X914276Y3690D01*
X917323Y5276D01*
X920220Y7119D01*
X922945Y9213D01*
X925476Y11532D01*
X927795Y14064D01*
X929890Y16788D01*
X931732Y19686D01*
X933319Y22733D01*
X934634Y25906D01*
X935665Y29182D01*
X936409Y32536D01*
X936858Y35938D01*
X937008Y39371D01*
Y78741D01*
X937083Y80457D01*
X937307Y82158D01*
X937677Y83835D01*
X938197Y85473D01*
X938850Y87060D01*
X939646Y88583D01*
X940567Y90032D01*
X941614Y91394D01*
X942772Y92662D01*
X944039Y93819D01*
X945402Y94867D01*
X946850Y95788D01*
X948374Y96583D01*
X949961Y97237D01*
X951598Y97756D01*
X953276Y98127D01*
X954976Y98351D01*
X956693Y98426D01*
X957378Y98457D01*
X958059Y98544D01*
X958732Y98693D01*
X959386Y98902D01*
X960020Y99162D01*
X960630Y99481D01*
X961209Y99851D01*
X961756Y100268D01*
X962260Y100733D01*
X962724Y101237D01*
X963142Y101784D01*
X963512Y102363D01*
X963831Y102973D01*
X964091Y103607D01*
X964299Y104260D01*
X964449Y104934D01*
X964535Y105615D01*
X964567Y106300D01*
Y448819D01*
X964551Y449162D01*
X964508Y449504D01*
X964433Y449839D01*
X964331Y450166D01*
X964197Y450485D01*
X964039Y450788D01*
X963854Y451079D01*
X963646Y451351D01*
X963413Y451603D01*
X963161Y451835D01*
X962890Y452044D01*
X962598Y452229D01*
X962295Y452386D01*
X961976Y452520D01*
X961650Y452623D01*
X961315Y452697D01*
X960972Y452741D01*
X960630Y452756D01*
X958913Y452831D01*
X957213Y453056D01*
X955535Y453426D01*
X953898Y453945D01*
X952311Y454599D01*
X950787Y455394D01*
X949339Y456316D01*
X947976Y457363D01*
X946709Y458520D01*
X945551Y459788D01*
X944504Y461150D01*
X943583Y462599D01*
X942787Y464123D01*
X942134Y465709D01*
X941614Y467347D01*
X941244Y469024D01*
X941020Y470725D01*
X940945Y472441D01*
Y511812D01*
X940795Y515245D01*
X940346Y518646D01*
X939602Y522001D01*
X938571Y525276D01*
X937256Y528449D01*
X935669Y531497D01*
X933827Y534394D01*
X931732Y537119D01*
X929413Y539650D01*
X926882Y541969D01*
X924157Y544064D01*
X921260Y545906D01*
X918213Y547493D01*
X915039Y548808D01*
X911764Y549839D01*
X908409Y550583D01*
X905008Y551032D01*
X901575Y551182D01*
X43307D01*
X39874Y551032D01*
X36472Y550583D01*
X33118Y549839D01*
X29843Y548808D01*
X26669Y547493D01*
X23622Y545906D01*
X20724Y544064D01*
X18000Y541969D01*
X15468Y539650D01*
X13150Y537119D01*
X11055Y534394D01*
X9213Y531497D01*
X7626Y528449D01*
X6311Y525276D01*
X5280Y522001D01*
X4535Y518646D01*
X4087Y515245D01*
X3937Y511812D01*
Y39371D01*
X-3343Y1D02*
X968204D01*
X964567Y-13511D02*
Y542672D01*
X956047Y551182D02*
X4761D01*
X3937Y552802D02*
Y2698D01*
G54D18*
X124433Y559831D03*
X157898D03*
X191362D03*
X224827D03*
X258291D03*
X669616D03*
X703080D03*
X736545D03*
X770009D03*
X803474D03*
X124433Y-8580D03*
X157898D03*
X191362D03*
X224827D03*
X258291D03*
X669616D03*
X703080D03*
X736545D03*
X770009D03*
X803474D03*
%LPD*%
G75*
X803474Y-8580D02*
G54D10*
X735039Y700788D03*
G54D11*
Y727953D02*
Y700788D01*
Y727953D02*
X703543Y759449D01*
X433417Y741733D02*
X379173Y795977D01*
Y1009489D01*
X441287Y1071603D01*
X827126Y1041032D02*
X835913Y1032245D01*
X848339D01*
X853102Y1037008D01*
X902709D01*
X827126Y1055355D02*
X825394Y1057087D01*
X827126Y1055355D02*
Y1041032D01*
X902709Y1037008D02*
X902953Y1037253D01*
X918740Y1055993D02*
Y1123536D01*
X891449Y1150827D01*
X860394D01*
X855118Y1156103D01*
X902953Y1040205D02*
Y1037253D01*
Y1040205D02*
X918740Y1055993D01*
X825394Y1057087D02*
X799953D01*
X792827Y1049961D02*
X483551D01*
X461909Y1071603D01*
X792827Y1049961D02*
X799953Y1057087D01*
X461909Y1071603D02*
X441287D01*
X598031Y759449D02*
X691535D01*
X598031D02*
X580315Y741733D01*
X433417D01*
X691535Y759449D02*
X703543D01*
X711394Y708686D02*
X719291Y700788D01*
X711394Y708686D02*
Y722569D01*
X698979Y734983D01*
X698932D01*
X693200Y740715D01*
X412461Y1067067D02*
X364173Y1018780D01*
X412461Y1067067D02*
X416004Y1070611D01*
X364173Y1018780D02*
Y787402D01*
X842126Y1047245D02*
X857087Y1062205D01*
X903740D01*
Y1117323D01*
X885236Y1135827D01*
X435039Y1088898D02*
X416752Y1070611D01*
X416004D01*
X364173Y787402D02*
X425197Y726379D01*
X603543Y739764D02*
X691535D01*
X603543D02*
X590157Y726379D01*
X425197D01*
X793740Y1072087D02*
X831606D01*
X842126Y1061567D01*
Y1047245D01*
X472126Y1088898D02*
X435039D01*
X472126D02*
X495709Y1065316D01*
X786968D01*
X793740Y1072087D01*
X634646Y1133048D02*
X565331D01*
X301575Y1037402D02*
Y815749D01*
X545303Y1113020D02*
X565331Y1133048D01*
X545303Y1113020D02*
X528319D01*
X504331Y1137008D01*
X401181D01*
X301575Y1037402D01*
X260236Y774410D02*
X301575Y815749D01*
X609193Y1116280D02*
X576122D01*
X319291Y1033906D02*
Y801969D01*
X557862Y1098020D02*
X576122Y1116280D01*
X557862Y1098020D02*
X520091D01*
X496496Y1121615D01*
X407000D01*
X319291Y1033906D01*
X291732Y774410D02*
X319291Y801969D01*
G54D12*
X283858Y1079134D02*
X307087Y1102363D01*
X283858Y1079134D02*
X270079D01*
X249213Y1100001D01*
X176583D01*
X106299Y1029717D01*
X260630Y1117323D02*
X275591Y1102363D01*
X260630Y1117323D02*
X156693D01*
X106299Y1066930D01*
G54D11*
X536220Y1080316D02*
X508661D01*
X410929Y1104331D02*
X342520Y1035922D01*
Y775591D01*
X409843Y708268D01*
X602953D01*
X614764Y720079D01*
X484646Y1104331D02*
X410929D01*
X484646D02*
X508661Y1080316D01*
X588189Y1032678D02*
X803937D01*
X821260Y1015355D01*
X882677D01*
X789055Y1014489D02*
X809055Y994489D01*
X471602Y1014489D02*
X454988Y1031103D01*
X471602Y1014489D02*
X789055D01*
X883315Y994489D02*
X883953Y993851D01*
X883315Y994489D02*
X809055D01*
X377165Y1140945D02*
X389370Y1153150D01*
X655512D01*
X659843Y1148819D02*
Y1133441D01*
Y1148819D02*
X655512Y1153150D01*
G54D10*
X719291Y700788D03*
G54D13*
X691535Y739764D03*
X842126Y1047245D03*
X903740Y1062205D03*
X412480Y1067048D03*
X634646Y1133032D03*
X260236Y774410D03*
X609173Y1116260D03*
X291732Y774410D03*
X307087Y1102363D03*
X106299Y1029725D03*
X275591Y1102363D03*
X106299Y1066930D03*
X614764Y720079D03*
X536220Y1080316D03*
X588189Y1032678D03*
X882677Y1015355D03*
X455000Y1031103D03*
X883937Y993859D03*
X377165Y1140945D03*
X659843Y1133426D03*
X855118Y1156103D03*
X885236Y1135827D03*
X441299Y1071615D03*
X902953Y1037245D03*
X825394Y1057087D03*
X691535Y759449D03*
%LPC*%
G75*
X691535Y759449D02*
G54D14*
X727733Y696700D02*
Y704875D01*
X726597D02*
Y696700D01*
G36*
X833715Y1046430D02*
G02X834162Y1046141I-454J-1192D01*
G01X841022Y1039281D01*
G02X841312Y1038834I-902J-903D01*
G02X833715Y1046430I814J8411D01*
G37*
G36*
X836608Y1040845D02*
G01X847643D01*
G02X842126Y1038795I-5518J6400D01*
G02X836608Y1040845I-0J8450D01*
G37*
G36*
X842940Y1038834D02*
G02X843230Y1039281I1191J-455D01*
G01X850090Y1046141D01*
G02X850537Y1046430I901J-903D01*
G02X842940Y1038834I-8410J815D01*
G37*
G54D15*
X850588Y1045969D02*
G01X843988Y1038892D01*
G36*
X833676Y1047245D02*
G02X835610Y1052625I8450J-0D01*
G02X835726Y1052095I-1159J-531D01*
G01Y1042395D01*
G02X835610Y1041864I-1275J0D01*
G02X833676Y1047245I6516J5380D01*
G37*
G36*
X910140Y1057355D02*
G01Y1067055D01*
G02X910256Y1067586I1275J-0D01*
G02X912190Y1062205I-6516J-5380D01*
G02X910256Y1056825I-8450J-0D01*
G02X910140Y1057355I1159J531D01*
G37*
G36*
X886051Y1144238D02*
G02X893647Y1136642I-814J-8411D01*
G02X893200Y1136931I454J1192D01*
G01X886340Y1143791D01*
G02X886051Y1144238I903J901D01*
G37*
G36*
X879856Y1142343D02*
G02X885236Y1144277I5380J-6516D01*
G02X890617Y1142343I1J-8450D01*
G02X890086Y1142227I-531J1159D01*
G01X880386D01*
G02X879856Y1142343I1J1275D01*
G37*
G36*
X904555Y1053795D02*
G02X904844Y1054242I1192J-454D01*
G01X911704Y1061101D01*
G02X912151Y1061391I903J-902D01*
G02X904555Y1053795I-8410J815D01*
G37*
G36*
X820013Y1063603D02*
G02X825394Y1065537I5380J-6516D01*
G02X830774Y1063603I0J-8450D01*
G02X830244Y1063487I-531J1159D01*
G01X820544D01*
G02X820013Y1063603I0J1275D01*
G37*
G36*
X826208Y1065498D02*
G02X833804Y1057902I-814J-8411D01*
G02X833357Y1058191I454J1192D01*
G01X826498Y1065051D01*
G02X826208Y1065498I901J903D01*
G37*
G54D16*
X541070Y1072641D02*
G01X531371D01*
G54D17*
X3937Y669292D02*
X4087Y665859D01*
X4535Y662457D01*
X5280Y659103D01*
X6311Y655827D01*
X7626Y652654D01*
X9213Y649607D01*
X11055Y646709D01*
X13150Y643985D01*
X15468Y641453D01*
X18000Y639134D01*
X20724Y637040D01*
X23622Y635197D01*
X26669Y633611D01*
X29843Y632296D01*
X33118Y631264D01*
X36472Y630520D01*
X39874Y630071D01*
X43307Y629922D01*
X897638D01*
X901071Y630071D01*
X904472Y630520D01*
X907827Y631264D01*
X911102Y632296D01*
X914276Y633611D01*
X917323Y635197D01*
X920220Y637040D01*
X922945Y639134D01*
X925476Y641453D01*
X927795Y643985D01*
X929890Y646709D01*
X931732Y649607D01*
X933319Y652654D01*
X934634Y655827D01*
X935665Y659103D01*
X936409Y662457D01*
X936858Y665859D01*
X937008Y669292D01*
Y708662D01*
X937083Y710379D01*
X937307Y712079D01*
X937677Y713756D01*
X938197Y715394D01*
X938850Y716981D01*
X939646Y718504D01*
X940567Y719953D01*
X941614Y721316D01*
X942772Y722583D01*
X944039Y723741D01*
X945402Y724788D01*
X946850Y725709D01*
X948374Y726504D01*
X949961Y727158D01*
X951598Y727678D01*
X953276Y728048D01*
X954976Y728272D01*
X956693Y728347D01*
X957378Y728379D01*
X958059Y728465D01*
X958732Y728615D01*
X959386Y728823D01*
X960020Y729083D01*
X960630Y729402D01*
X961209Y729772D01*
X961756Y730190D01*
X962260Y730654D01*
X962724Y731158D01*
X963142Y731705D01*
X963512Y732284D01*
X963831Y732894D01*
X964091Y733528D01*
X964299Y734182D01*
X964449Y734855D01*
X964535Y735536D01*
X964567Y736221D01*
Y1078741D01*
X964551Y1079083D01*
X964508Y1079426D01*
X964433Y1079760D01*
X964331Y1080087D01*
X964197Y1080406D01*
X964039Y1080709D01*
X963854Y1081001D01*
X963646Y1081272D01*
X963413Y1081524D01*
X963161Y1081756D01*
X962890Y1081965D01*
X962598Y1082150D01*
X962295Y1082308D01*
X961976Y1082441D01*
X961650Y1082544D01*
X961315Y1082619D01*
X960972Y1082662D01*
X960630Y1082678D01*
X958913Y1082753D01*
X957213Y1082977D01*
X955535Y1083347D01*
X953898Y1083867D01*
X952311Y1084520D01*
X950787Y1085316D01*
X949339Y1086237D01*
X947976Y1087284D01*
X946709Y1088441D01*
X945551Y1089709D01*
X944504Y1091071D01*
X943583Y1092520D01*
X942787Y1094044D01*
X942134Y1095630D01*
X941614Y1097268D01*
X941244Y1098945D01*
X941020Y1100646D01*
X940945Y1102363D01*
Y1141733D01*
X940795Y1145166D01*
X940346Y1148567D01*
X939602Y1151922D01*
X938571Y1155197D01*
X937256Y1158371D01*
X935669Y1161418D01*
X933827Y1164316D01*
X931732Y1167040D01*
X929413Y1169571D01*
X926882Y1171890D01*
X924157Y1173985D01*
X921260Y1175827D01*
X918213Y1177414D01*
X915039Y1178729D01*
X911764Y1179760D01*
X908409Y1180504D01*
X905008Y1180953D01*
X901575Y1181103D01*
X43307D01*
X39874Y1180953D01*
X36472Y1180504D01*
X33118Y1179760D01*
X29843Y1178729D01*
X26669Y1177414D01*
X23622Y1175827D01*
X20724Y1173985D01*
X18000Y1171890D01*
X15468Y1169571D01*
X13150Y1167040D01*
X11055Y1164316D01*
X9213Y1161418D01*
X7626Y1158371D01*
X6311Y1155197D01*
X5280Y1151922D01*
X4535Y1148567D01*
X4087Y1145166D01*
X3937Y1141733D01*
Y669292D01*
X-3343Y629922D02*
X968204D01*
X964567Y616410D02*
Y1172593D01*
X956047Y1181103D02*
X4761D01*
X3937Y1182724D02*
Y632619D01*
G54D18*
X124433Y1189752D03*
X157898D03*
X191362D03*
X224827D03*
X258291D03*
X669616D03*
X703080D03*
X736545D03*
X770009D03*
X803474D03*
X124433Y621341D03*
X157898D03*
X191362D03*
X224827D03*
X258291D03*
X669616D03*
X703080D03*
X736545D03*
X770009D03*
X803474D03*
%LPD*%
G75*
X803474Y621341D02*
G54D10*
X1774409Y70867D03*
G54D11*
Y98032D02*
Y70867D01*
Y98032D02*
X1742913Y129528D01*
X1472787Y111812D02*
X1418543Y166056D01*
Y379567D01*
X1480657Y441682D01*
X1866496Y411111D02*
X1875283Y402323D01*
X1887709D01*
X1892472Y407087D01*
X1942079D01*
X1866496Y425434D02*
X1864764Y427166D01*
X1866496Y425434D02*
Y411111D01*
X1942079Y407087D02*
X1942323Y407331D01*
X1958110Y426071D02*
Y493615D01*
X1930819Y520906D01*
X1899764D01*
X1894488Y526182D01*
X1942323Y410284D02*
Y407331D01*
Y410284D02*
X1958110Y426071D01*
X1864764Y427166D02*
X1839323D01*
X1832197Y420040D02*
X1522921D01*
X1501280Y441682D01*
X1832197Y420040D02*
X1839323Y427166D01*
X1501280Y441682D02*
X1480657D01*
X1637402Y129528D02*
X1730906D01*
X1637402D02*
X1619685Y111812D01*
X1472787D01*
X1730906Y129528D02*
X1742913D01*
X1750764Y78764D02*
X1758661Y70867D01*
X1750764Y78764D02*
Y92647D01*
X1738349Y105062D01*
X1738302D01*
X1732570Y110794D01*
X1451831Y437146D02*
X1403543Y388859D01*
X1451831Y437146D02*
X1455374Y440690D01*
X1403543Y388859D02*
Y157481D01*
X1881496Y417323D02*
X1896457Y432284D01*
X1943110D01*
Y487402D01*
X1924606Y505906D01*
X1474409Y458977D02*
X1456122Y440690D01*
X1455374D01*
X1403543Y157481D02*
X1464567Y96457D01*
X1642913Y109843D02*
X1730906D01*
X1642913D02*
X1629528Y96457D01*
X1464567D01*
X1833110Y442166D02*
X1870976D01*
X1881496Y431646D01*
Y417323D01*
X1511496Y458977D02*
X1474409D01*
X1511496D02*
X1535079Y435394D01*
X1826339D01*
X1833110Y442166D01*
X1674016Y503127D02*
X1604701D01*
X1340945Y407481D02*
Y185827D01*
X1584673Y483099D02*
X1604701Y503127D01*
X1584673Y483099D02*
X1567689D01*
X1543701Y507087D01*
X1440551D01*
X1340945Y407481D01*
X1299606Y144489D02*
X1340945Y185827D01*
X1648563Y486359D02*
X1615492D01*
X1358661Y403985D02*
Y172048D01*
X1597232Y468099D02*
X1615492Y486359D01*
X1597232Y468099D02*
X1559461D01*
X1535866Y491693D01*
X1446370D01*
X1358661Y403985D01*
X1331102Y144489D02*
X1358661Y172048D01*
G54D12*
X1323228Y449213D02*
X1346457Y472441D01*
X1323228Y449213D02*
X1309449D01*
X1288583Y470079D01*
X1215953D01*
X1145669Y399796D01*
X1300000Y487402D02*
X1314961Y472441D01*
X1300000Y487402D02*
X1196063D01*
X1145669Y437008D01*
G54D11*
X1575591Y450394D02*
X1548031D01*
X1450299Y474410D02*
X1381890Y406001D01*
Y145670D01*
X1449213Y78347D01*
X1642323D01*
X1654134Y90158D01*
X1524016Y474410D02*
X1450299D01*
X1524016D02*
X1548031Y450394D01*
X1627559Y402756D02*
X1843307D01*
X1860630Y385434D01*
X1922047D01*
X1828425Y384567D02*
X1848425Y364567D01*
X1510972Y384567D02*
X1494358Y401182D01*
X1510972Y384567D02*
X1828425D01*
X1922685Y364567D02*
X1923323Y363930D01*
X1922685Y364567D02*
X1848425D01*
X1416535Y511024D02*
X1428740Y523229D01*
X1694882D01*
X1699213Y518898D02*
Y503520D01*
Y518898D02*
X1694882Y523229D01*
G54D10*
X1758661Y70867D03*
G54D13*
X1730906Y109843D03*
X1881496Y417323D03*
X1943110Y432284D03*
X1451850Y437127D03*
X1674016Y503111D03*
X1299606Y144489D03*
X1648543Y486339D03*
X1331102Y144489D03*
X1346457Y472441D03*
X1145669Y399804D03*
X1314961Y472441D03*
X1145669Y437008D03*
X1654134Y90158D03*
X1575591Y450394D03*
X1627559Y402756D03*
X1922047Y385434D03*
X1494370Y401182D03*
X1923307Y363938D03*
X1416535Y511024D03*
X1699213Y503504D03*
X1894488Y526182D03*
X1924606Y505906D03*
X1480669Y441693D03*
X1942323Y407323D03*
X1864764Y427166D03*
X1730906Y129528D03*
%LPC*%
G75*
X1730906Y129528D02*
G54D14*
X1767103Y66779D02*
Y74954D01*
X1765968D02*
Y66779D01*
G36*
X1873085Y416509D02*
G02X1873532Y416219I-455J-1191D01*
G01X1880392Y409360D01*
G02X1880682Y408913I-902J-902D01*
G02X1873085Y416509I814J8411D01*
G37*
G36*
X1875979Y410923D02*
G01X1887014D01*
G02X1881496Y408873I-5518J6400D01*
G02X1875979Y410923I0J8450D01*
G37*
G36*
X1882310Y408913D02*
G02X1882600Y409360I1191J-455D01*
G01X1889460Y416219D01*
G02X1889907Y416509I903J-901D01*
G02X1882310Y408913I-8411J814D01*
G37*
G54D15*
X1889958Y416048D02*
G01X1883358Y408971D01*
G36*
X1873046Y417323D02*
G02X1874980Y422704I8450J1D01*
G02X1875096Y422173I-1159J-531D01*
G01Y412473D01*
G02X1874980Y411943I-1275J1D01*
G02X1873046Y417323I6516J5380D01*
G37*
G36*
X1949510Y427434D02*
G01Y437134D01*
G02X1949626Y437664I1275J-1D01*
G02X1951560Y432284I-6516J-5380D01*
G02X1949626Y426904I-8450J0D01*
G02X1949510Y427434I1159J531D01*
G37*
G36*
X1925421Y514317D02*
G02X1933017Y506720I-814J-8411D01*
G02X1932570Y507010I455J1191D01*
G01X1925710Y513870D01*
G02X1925421Y514317I903J901D01*
G37*
G36*
X1919226Y512422D02*
G02X1924606Y514356I5380J-6516D01*
G02X1929987Y512422I1J-8450D01*
G02X1929456Y512306I-531J1159D01*
G01X1919756D01*
G02X1919226Y512422I1J1275D01*
G37*
G36*
X1943925Y423873D02*
G02X1944214Y424320I1192J-454D01*
G01X1951074Y431180D01*
G02X1951521Y431470I903J-901D01*
G02X1943925Y423873I-8411J814D01*
G37*
G36*
X1859383Y433682D02*
G02X1864764Y435616I5380J-6516D01*
G02X1870144Y433682I0J-8450D01*
G02X1869614Y433566I-531J1159D01*
G01X1859914D01*
G02X1859383Y433682I0J1275D01*
G37*
G36*
X1865578Y435577D02*
G02X1873174Y427980I-815J-8411D01*
G02X1872727Y428270I455J1191D01*
G01X1865868Y435130D01*
G02X1865578Y435577I902J902D01*
G37*
G54D16*
X1580440Y442719D02*
G01X1570741D01*
G54D17*
X1043307Y39371D02*
X1043457Y35938D01*
X1043906Y32536D01*
X1044650Y29182D01*
X1045681Y25906D01*
X1046996Y22733D01*
X1048583Y19686D01*
X1050425Y16788D01*
X1052520Y14064D01*
X1054839Y11532D01*
X1057370Y9213D01*
X1060094Y7119D01*
X1062992Y5276D01*
X1066039Y3690D01*
X1069213Y2375D01*
X1072488Y1343D01*
X1075843Y599D01*
X1079244Y150D01*
X1082677Y1D01*
X1937008D01*
X1940441Y150D01*
X1943843Y599D01*
X1947197Y1343D01*
X1950472Y2375D01*
X1953646Y3690D01*
X1956693Y5276D01*
X1959591Y7119D01*
X1962315Y9213D01*
X1964846Y11532D01*
X1967165Y14064D01*
X1969260Y16788D01*
X1971102Y19686D01*
X1972689Y22733D01*
X1974004Y25906D01*
X1975035Y29182D01*
X1975780Y32536D01*
X1976228Y35938D01*
X1976378Y39371D01*
Y78741D01*
X1976453Y80457D01*
X1976677Y82158D01*
X1977047Y83835D01*
X1977567Y85473D01*
X1978220Y87060D01*
X1979016Y88583D01*
X1979937Y90032D01*
X1980984Y91394D01*
X1982142Y92662D01*
X1983409Y93819D01*
X1984772Y94867D01*
X1986220Y95788D01*
X1987744Y96583D01*
X1989331Y97237D01*
X1990968Y97756D01*
X1992646Y98127D01*
X1994346Y98351D01*
X1996063Y98426D01*
X1996748Y98457D01*
X1997429Y98544D01*
X1998102Y98693D01*
X1998756Y98902D01*
X1999390Y99162D01*
X2000000Y99481D01*
X2000579Y99851D01*
X2001126Y100268D01*
X2001630Y100733D01*
X2002094Y101237D01*
X2002512Y101784D01*
X2002882Y102363D01*
X2003201Y102973D01*
X2003461Y103607D01*
X2003669Y104260D01*
X2003819Y104934D01*
X2003906Y105615D01*
X2003937Y106300D01*
Y448819D01*
X2003921Y449162D01*
X2003878Y449504D01*
X2003803Y449839D01*
X2003701Y450166D01*
X2003567Y450485D01*
X2003409Y450788D01*
X2003224Y451079D01*
X2003016Y451351D01*
X2002783Y451603D01*
X2002531Y451835D01*
X2002260Y452044D01*
X2001968Y452229D01*
X2001665Y452386D01*
X2001346Y452520D01*
X2001020Y452623D01*
X2000685Y452697D01*
X2000343Y452741D01*
X2000000Y452756D01*
X1998283Y452831D01*
X1996583Y453056D01*
X1994906Y453426D01*
X1993268Y453945D01*
X1991681Y454599D01*
X1990157Y455394D01*
X1988709Y456316D01*
X1987346Y457363D01*
X1986079Y458520D01*
X1984921Y459788D01*
X1983874Y461150D01*
X1982953Y462599D01*
X1982157Y464123D01*
X1981504Y465709D01*
X1980984Y467347D01*
X1980614Y469024D01*
X1980390Y470725D01*
X1980315Y472441D01*
Y511812D01*
X1980165Y515245D01*
X1979717Y518646D01*
X1978972Y522001D01*
X1977941Y525276D01*
X1976626Y528449D01*
X1975039Y531497D01*
X1973197Y534394D01*
X1971102Y537119D01*
X1968783Y539650D01*
X1966252Y541969D01*
X1963528Y544064D01*
X1960630Y545906D01*
X1957583Y547493D01*
X1954409Y548808D01*
X1951134Y549839D01*
X1947780Y550583D01*
X1944378Y551032D01*
X1940945Y551182D01*
X1082677D01*
X1079244Y551032D01*
X1075843Y550583D01*
X1072488Y549839D01*
X1069213Y548808D01*
X1066039Y547493D01*
X1062992Y545906D01*
X1060094Y544064D01*
X1057370Y541969D01*
X1054839Y539650D01*
X1052520Y537119D01*
X1050425Y534394D01*
X1048583Y531497D01*
X1046996Y528449D01*
X1045681Y525276D01*
X1044650Y522001D01*
X1043906Y518646D01*
X1043457Y515245D01*
X1043307Y511812D01*
Y39371D01*
X1036027Y1D02*
X2007574D01*
X2003937Y-13511D02*
Y542672D01*
X1995417Y551182D02*
X1044131D01*
X1043307Y552802D02*
Y2698D01*
G54D18*
X1163803Y559831D03*
X1197268D03*
X1230732D03*
X1264197D03*
X1297661D03*
X1708986D03*
X1742450D03*
X1775915D03*
X1809379D03*
X1842844D03*
X1163803Y-8580D03*
X1197268D03*
X1230732D03*
X1264197D03*
X1297661D03*
X1708986D03*
X1742450D03*
X1775915D03*
X1809379D03*
X1842844D03*
%LPD*%
G75*
X1842844Y-8580D02*
G54D10*
X1774409Y700788D03*
G54D11*
Y727953D02*
Y700788D01*
Y727953D02*
X1742913Y759449D01*
X1472787Y741733D02*
X1418543Y795977D01*
Y1009489D01*
X1480657Y1071603D01*
X1866496Y1041032D02*
X1875283Y1032245D01*
X1887709D01*
X1892472Y1037008D01*
X1942079D01*
X1866496Y1055355D02*
X1864764Y1057087D01*
X1866496Y1055355D02*
Y1041032D01*
X1942079Y1037008D02*
X1942323Y1037253D01*
X1958110Y1055993D02*
Y1123536D01*
X1930819Y1150827D01*
X1899764D01*
X1894488Y1156103D01*
X1942323Y1040205D02*
Y1037253D01*
Y1040205D02*
X1958110Y1055993D01*
X1864764Y1057087D02*
X1839323D01*
X1832197Y1049961D02*
X1522921D01*
X1501280Y1071603D01*
X1832197Y1049961D02*
X1839323Y1057087D01*
X1501280Y1071603D02*
X1480657D01*
X1637402Y759449D02*
X1730906D01*
X1637402D02*
X1619685Y741733D01*
X1472787D01*
X1730906Y759449D02*
X1742913D01*
X1750764Y708686D02*
X1758661Y700788D01*
X1750764Y708686D02*
Y722569D01*
X1738349Y734983D01*
X1738302D01*
X1732570Y740715D01*
X1451831Y1067067D02*
X1403543Y1018780D01*
X1451831Y1067067D02*
X1455374Y1070611D01*
X1403543Y1018780D02*
Y787402D01*
X1881496Y1047245D02*
X1896457Y1062205D01*
X1943110D01*
Y1117323D01*
X1924606Y1135827D01*
X1474409Y1088898D02*
X1456122Y1070611D01*
X1455374D01*
X1403543Y787402D02*
X1464567Y726379D01*
X1642913Y739764D02*
X1730906D01*
X1642913D02*
X1629528Y726379D01*
X1464567D01*
X1833110Y1072087D02*
X1870976D01*
X1881496Y1061567D01*
Y1047245D01*
X1511496Y1088898D02*
X1474409D01*
X1511496D02*
X1535079Y1065316D01*
X1826339D01*
X1833110Y1072087D01*
X1674016Y1133048D02*
X1604701D01*
X1340945Y1037402D02*
Y815749D01*
X1584673Y1113020D02*
X1604701Y1133048D01*
X1584673Y1113020D02*
X1567689D01*
X1543701Y1137008D01*
X1440551D01*
X1340945Y1037402D01*
X1299606Y774410D02*
X1340945Y815749D01*
X1648563Y1116280D02*
X1615492D01*
X1358661Y1033906D02*
Y801969D01*
X1597232Y1098020D02*
X1615492Y1116280D01*
X1597232Y1098020D02*
X1559461D01*
X1535866Y1121615D01*
X1446370D01*
X1358661Y1033906D01*
X1331102Y774410D02*
X1358661Y801969D01*
G54D12*
X1323228Y1079134D02*
X1346457Y1102363D01*
X1323228Y1079134D02*
X1309449D01*
X1288583Y1100001D01*
X1215953D01*
X1145669Y1029717D01*
X1300000Y1117323D02*
X1314961Y1102363D01*
X1300000Y1117323D02*
X1196063D01*
X1145669Y1066930D01*
G54D11*
X1575591Y1080316D02*
X1548031D01*
X1450299Y1104331D02*
X1381890Y1035922D01*
Y775591D01*
X1449213Y708268D01*
X1642323D01*
X1654134Y720079D01*
X1524016Y1104331D02*
X1450299D01*
X1524016D02*
X1548031Y1080316D01*
X1627559Y1032678D02*
X1843307D01*
X1860630Y1015355D01*
X1922047D01*
X1828425Y1014489D02*
X1848425Y994489D01*
X1510972Y1014489D02*
X1494358Y1031103D01*
X1510972Y1014489D02*
X1828425D01*
X1922685Y994489D02*
X1923323Y993851D01*
X1922685Y994489D02*
X1848425D01*
X1416535Y1140945D02*
X1428740Y1153150D01*
X1694882D01*
X1699213Y1148819D02*
Y1133441D01*
Y1148819D02*
X1694882Y1153150D01*
G54D10*
X1758661Y700788D03*
G54D13*
X1730906Y739764D03*
X1881496Y1047245D03*
X1943110Y1062205D03*
X1451850Y1067048D03*
X1674016Y1133032D03*
X1299606Y774410D03*
X1648543Y1116260D03*
X1331102Y774410D03*
X1346457Y1102363D03*
X1145669Y1029725D03*
X1314961Y1102363D03*
X1145669Y1066930D03*
X1654134Y720079D03*
X1575591Y1080316D03*
X1627559Y1032678D03*
X1922047Y1015355D03*
X1494370Y1031103D03*
X1923307Y993859D03*
X1416535Y1140945D03*
X1699213Y1133426D03*
X1894488Y1156103D03*
X1924606Y1135827D03*
X1480669Y1071615D03*
X1942323Y1037245D03*
X1864764Y1057087D03*
X1730906Y759449D03*
%LPC*%
G75*
X1730906Y759449D02*
G54D14*
X1767103Y696700D02*
Y704875D01*
X1765968D02*
Y696700D01*
G36*
X1873085Y1046430D02*
G02X1873532Y1046141I-454J-1192D01*
G01X1880392Y1039281D01*
G02X1880682Y1038834I-902J-903D01*
G02X1873085Y1046430I814J8411D01*
G37*
G36*
X1875979Y1040845D02*
G01X1887014D01*
G02X1881496Y1038795I-5518J6400D01*
G02X1875979Y1040845I0J8450D01*
G37*
G36*
X1882310Y1038834D02*
G02X1882600Y1039281I1191J-455D01*
G01X1889460Y1046141D01*
G02X1889907Y1046430I901J-903D01*
G02X1882310Y1038834I-8410J815D01*
G37*
G54D15*
X1889958Y1045969D02*
G01X1883358Y1038892D01*
G36*
X1873046Y1047245D02*
G02X1874980Y1052625I8450J-0D01*
G02X1875096Y1052095I-1159J-531D01*
G01Y1042395D01*
G02X1874980Y1041864I-1275J0D01*
G02X1873046Y1047245I6516J5380D01*
G37*
G36*
X1949510Y1057355D02*
G01Y1067055D01*
G02X1949626Y1067586I1275J-0D01*
G02X1951560Y1062205I-6516J-5380D01*
G02X1949626Y1056825I-8450J0D01*
G02X1949510Y1057355I1159J531D01*
G37*
G36*
X1925421Y1144238D02*
G02X1933017Y1136642I-814J-8411D01*
G02X1932570Y1136931I454J1192D01*
G01X1925710Y1143791D01*
G02X1925421Y1144238I903J901D01*
G37*
G36*
X1919226Y1142343D02*
G02X1924606Y1144277I5380J-6516D01*
G02X1929987Y1142343I1J-8450D01*
G02X1929456Y1142227I-531J1159D01*
G01X1919756D01*
G02X1919226Y1142343I1J1275D01*
G37*
G36*
X1943925Y1053795D02*
G02X1944214Y1054242I1192J-454D01*
G01X1951074Y1061101D01*
G02X1951521Y1061391I903J-902D01*
G02X1943925Y1053795I-8410J814D01*
G37*
G36*
X1859383Y1063603D02*
G02X1864764Y1065537I5380J-6516D01*
G02X1870144Y1063603I0J-8450D01*
G02X1869614Y1063487I-531J1159D01*
G01X1859914D01*
G02X1859383Y1063603I0J1275D01*
G37*
G36*
X1865578Y1065498D02*
G02X1873174Y1057902I-815J-8411D01*
G02X1872727Y1058191I454J1192D01*
G01X1865868Y1065051D01*
G02X1865578Y1065498I902J902D01*
G37*
G54D16*
X1580440Y1072641D02*
G01X1570741D01*
G54D17*
X1043307Y669292D02*
X1043457Y665859D01*
X1043906Y662457D01*
X1044650Y659103D01*
X1045681Y655827D01*
X1046996Y652654D01*
X1048583Y649607D01*
X1050425Y646709D01*
X1052520Y643985D01*
X1054839Y641453D01*
X1057370Y639134D01*
X1060094Y637040D01*
X1062992Y635197D01*
X1066039Y633611D01*
X1069213Y632296D01*
X1072488Y631264D01*
X1075843Y630520D01*
X1079244Y630071D01*
X1082677Y629922D01*
X1937008D01*
X1940441Y630071D01*
X1943843Y630520D01*
X1947197Y631264D01*
X1950472Y632296D01*
X1953646Y633611D01*
X1956693Y635197D01*
X1959591Y637040D01*
X1962315Y639134D01*
X1964846Y641453D01*
X1967165Y643985D01*
X1969260Y646709D01*
X1971102Y649607D01*
X1972689Y652654D01*
X1974004Y655827D01*
X1975035Y659103D01*
X1975780Y662457D01*
X1976228Y665859D01*
X1976378Y669292D01*
Y708662D01*
X1976453Y710379D01*
X1976677Y712079D01*
X1977047Y713756D01*
X1977567Y715394D01*
X1978220Y716981D01*
X1979016Y718504D01*
X1979937Y719953D01*
X1980984Y721316D01*
X1982142Y722583D01*
X1983409Y723741D01*
X1984772Y724788D01*
X1986220Y725709D01*
X1987744Y726504D01*
X1989331Y727158D01*
X1990968Y727678D01*
X1992646Y728048D01*
X1994346Y728272D01*
X1996063Y728347D01*
X1996748Y728379D01*
X1997429Y728465D01*
X1998102Y728615D01*
X1998756Y728823D01*
X1999390Y729083D01*
X2000000Y729402D01*
X2000579Y729772D01*
X2001126Y730190D01*
X2001630Y730654D01*
X2002094Y731158D01*
X2002512Y731705D01*
X2002882Y732284D01*
X2003201Y732894D01*
X2003461Y733528D01*
X2003669Y734182D01*
X2003819Y734855D01*
X2003906Y735536D01*
X2003937Y736221D01*
Y1078741D01*
X2003921Y1079083D01*
X2003878Y1079426D01*
X2003803Y1079760D01*
X2003701Y1080087D01*
X2003567Y1080406D01*
X2003409Y1080709D01*
X2003224Y1081001D01*
X2003016Y1081272D01*
X2002783Y1081524D01*
X2002531Y1081756D01*
X2002260Y1081965D01*
X2001968Y1082150D01*
X2001665Y1082308D01*
X2001346Y1082441D01*
X2001020Y1082544D01*
X2000685Y1082619D01*
X2000343Y1082662D01*
X2000000Y1082678D01*
X1998283Y1082753D01*
X1996583Y1082977D01*
X1994906Y1083347D01*
X1993268Y1083867D01*
X1991681Y1084520D01*
X1990157Y1085316D01*
X1988709Y1086237D01*
X1987346Y1087284D01*
X1986079Y1088441D01*
X1984921Y1089709D01*
X1983874Y1091071D01*
X1982953Y1092520D01*
X1982157Y1094044D01*
X1981504Y1095630D01*
X1980984Y1097268D01*
X1980614Y1098945D01*
X1980390Y1100646D01*
X1980315Y1102363D01*
Y1141733D01*
X1980165Y1145166D01*
X1979717Y1148567D01*
X1978972Y1151922D01*
X1977941Y1155197D01*
X1976626Y1158371D01*
X1975039Y1161418D01*
X1973197Y1164316D01*
X1971102Y1167040D01*
X1968783Y1169571D01*
X1966252Y1171890D01*
X1963528Y1173985D01*
X1960630Y1175827D01*
X1957583Y1177414D01*
X1954409Y1178729D01*
X1951134Y1179760D01*
X1947780Y1180504D01*
X1944378Y1180953D01*
X1940945Y1181103D01*
X1082677D01*
X1079244Y1180953D01*
X1075843Y1180504D01*
X1072488Y1179760D01*
X1069213Y1178729D01*
X1066039Y1177414D01*
X1062992Y1175827D01*
X1060094Y1173985D01*
X1057370Y1171890D01*
X1054839Y1169571D01*
X1052520Y1167040D01*
X1050425Y1164316D01*
X1048583Y1161418D01*
X1046996Y1158371D01*
X1045681Y1155197D01*
X1044650Y1151922D01*
X1043906Y1148567D01*
X1043457Y1145166D01*
X1043307Y1141733D01*
Y669292D01*
X1036027Y629922D02*
X2007574D01*
X2003937Y616410D02*
Y1172593D01*
X1995417Y1181103D02*
X1044131D01*
X1043307Y1182724D02*
Y632619D01*
G54D18*
X1163803Y1189752D03*
X1197268D03*
X1230732D03*
X1264197D03*
X1297661D03*
X1708986D03*
X1742450D03*
X1775915D03*
X1809379D03*
X1842844D03*
X1163803Y621341D03*
X1197268D03*
X1230732D03*
X1264197D03*
X1297661D03*
X1708986D03*
X1742450D03*
X1775915D03*
X1809379D03*
X1842844D03*
%LPD*%
G75*
X1842844Y621341D02*
G36*
X32937Y-196850D02*
Y-107740D01*
X169852D01*
G02X171104Y-113466I0J-3000D01*
G03X171104Y-240864I29684J-63699D01*
G02X169852Y-246590I-1252J-2726D01*
G01X82677D01*
G02X32937Y-196850I0J49740D01*
G37*
G36*
Y1377953D02*
G02X82677Y1427693I49740J0D01*
G01X366702D01*
G02X367954Y1421967I0J-3000D01*
G03X367954Y1294569I29684J-63699D01*
G02X366702Y1288843I-1252J-2726D01*
G01X32937D01*
Y1377953D01*
G37*
G36*
X230471Y-240864D02*
G03X230471Y-113466I-29684J63699D01*
G02X231723Y-107740I1252J2726D01*
G01X335442D01*
G02X337501Y-112930I8J-3000D01*
G03X337501Y-241400I60137J-64235D01*
G02X335442Y-246590I-2050J-2190D01*
G01X231723D01*
G02X230471Y-240864I0J3000D01*
G37*
G36*
X427321Y1294569D02*
G03X427321Y1421967I-29684J63699D01*
G02X428573Y1427693I1252J2726D01*
G01X532293D01*
G02X534351Y1422503I8J-3000D01*
G03X534351Y1294033I60137J-64235D01*
G02X532293Y1288843I-2050J-2190D01*
G01X428573D01*
G02X427321Y1294569I0J3000D01*
G37*
G36*
X457775Y-112930D02*
G02X459833Y-107740I2050J2190D01*
G01X952567D01*
Y-246590D01*
X459833D01*
G02X457775Y-241400I-8J3000D01*
G03X457775Y-112930I-60137J64235D01*
G37*
G36*
X654625Y1422503D02*
G02X656684Y1427693I2050J2190D01*
G01X952567D01*
Y1288843D01*
X656684D01*
G02X654625Y1294033I-8J3000D01*
G03X654625Y1422503I-60137J64235D01*
G37*
G36*
X976567Y-107740D02*
G01X1031307D01*
Y-246590D01*
X976567D01*
Y-107740D01*
G37*
G36*
Y1427693D02*
X1031307D01*
Y1288843D01*
X976567D01*
Y1427693D01*
G37*
G36*
X1055307Y-107740D02*
X1548041D01*
G02X1550099Y-112930I8J-3000D01*
G03X1550099Y-241400I60137J-64235D01*
G02X1548041Y-246590I-2050J-2190D01*
G01X1055307D01*
Y-107740D01*
G37*
G36*
Y1427693D02*
X1548041D01*
G02X1550099Y1422503I8J-3000D01*
G03X1550099Y1294033I60137J-64235D01*
G02X1548041Y1288843I-2050J-2190D01*
G01X1055307D01*
Y1427693D01*
G37*
G36*
X1670373Y-112930D02*
G02X1672432Y-107740I2050J2190D01*
G01X1776151D01*
G02X1777403Y-113466I0J-3000D01*
G03X1777403Y-240864I29684J-63699D01*
G02X1776151Y-246590I-1252J-2726D01*
G01X1672432D01*
G02X1670373Y-241400I-8J3000D01*
G03X1670373Y-112930I-60137J64235D01*
G37*
G36*
Y1422503D02*
G02X1672432Y1427693I2050J2190D01*
G01X1776151D01*
G02X1777403Y1421967I0J-3000D01*
G03X1777403Y1294569I29684J-63699D01*
G02X1776151Y1288843I-1252J-2726D01*
G01X1672432D01*
G02X1670373Y1294033I-8J3000D01*
G03X1670373Y1422503I-60137J64235D01*
G37*
G36*
X1836770Y-240864D02*
G03X1836770Y-113466I-29684J63699D01*
G02X1838022Y-107740I1252J2726D01*
G01X1974937D01*
Y-196850D01*
G02X1925197Y-246590I-49740J0D01*
G01X1838022D01*
G02X1836770Y-240864I0J3000D01*
G37*
G36*
Y1294569D02*
G03X1836770Y1421967I-29684J63699D01*
G02X1838022Y1427693I1252J2726D01*
G01X1925197D01*
G02X1974937Y1377953I0J-49740D01*
G01Y1288843D01*
X1838022D01*
G02X1836770Y1294569I0J3000D01*
G37*
M02*
