*
%FSLAX26Y26*%
%MOIN*%
%ADD10C,0.038717*%
%ADD11C,0.041000*%
%ADD12C,0.013000*%
%ADD13C,0.011000*%
%ADD14C,0.015900*%
%ADD15C,0.001825*%
%ADD16C,0.001600*%
%ADD17C,0.015748*%
%ADD18C,0.005000*%
%ADD19C,0.035433*%
%IPPOS*%
%LNl3.gbr*%
%LPD*%
G75*
G54D10*
X57874Y101575D03*
G54D11*
X159449Y27560D03*
G54D12*
X724886Y102363D02*
X750787D01*
X724886D02*
X697728Y75205D01*
X648811D01*
X633858Y90158D01*
X614764D01*
X200929Y69040D02*
X159449Y27560D01*
X611996Y90158D02*
X614764D01*
X611996D02*
X590878Y69040D01*
X200929D01*
X468110Y524016D02*
X807480D01*
X825000Y506497D01*
Y505906D01*
X468110Y524016D02*
X387008Y442914D01*
X449213Y102363D02*
X559055D01*
X449213D02*
X405906Y145670D01*
Y351575D01*
Y404331D01*
X387008Y423229D01*
Y442914D01*
X676378Y159449D02*
X616142D01*
X559055Y102363D01*
X560236Y141733D02*
X568898D01*
X560236D02*
X538583Y120079D01*
X462669D02*
X426449Y156300D01*
X462669Y120079D02*
X538583D01*
X536220Y501575D02*
X525201D01*
X426449Y402823D01*
Y156300D01*
G54D13*
X352756Y101575D02*
X57874D01*
X352756D02*
X369291Y85040D01*
X584252D01*
X766535Y86615D02*
Y111812D01*
X642693Y143481D02*
X584252Y85040D01*
X642693Y143481D02*
X734866D01*
X766535Y111812D01*
G54D14*
X750787Y102363D03*
X614764Y90158D03*
X825000Y505906D03*
X405906Y351575D03*
X676378Y159449D03*
X568898Y141733D03*
X536220Y501575D03*
X766535Y86615D03*
%LPC*%
G75*
X766535Y86615D02*
G54D15*
X758848Y106022D02*
Y98704D01*
G54D16*
X679570Y151281D02*
X673186D01*
G54D17*
X3937Y39371D02*
X4087Y35938D01*
X4535Y32536D01*
X5280Y29182D01*
X6311Y25906D01*
X7626Y22733D01*
X9213Y19686D01*
X11055Y16788D01*
X13150Y14064D01*
X15468Y11532D01*
X18000Y9213D01*
X20724Y7119D01*
X23622Y5276D01*
X26669Y3690D01*
X29843Y2375D01*
X33118Y1343D01*
X36472Y599D01*
X39874Y150D01*
X43307Y1D01*
X897638D01*
X901071Y150D01*
X904472Y599D01*
X907827Y1343D01*
X911102Y2375D01*
X914276Y3690D01*
X917323Y5276D01*
X920220Y7119D01*
X922945Y9213D01*
X925476Y11532D01*
X927795Y14064D01*
X929890Y16788D01*
X931732Y19686D01*
X933319Y22733D01*
X934634Y25906D01*
X935665Y29182D01*
X936409Y32536D01*
X936858Y35938D01*
X937008Y39371D01*
Y78741D01*
X937083Y80457D01*
X937307Y82158D01*
X937677Y83835D01*
X938197Y85473D01*
X938850Y87060D01*
X939646Y88583D01*
X940567Y90032D01*
X941614Y91394D01*
X942772Y92662D01*
X944039Y93819D01*
X945402Y94867D01*
X946850Y95788D01*
X948374Y96583D01*
X949961Y97237D01*
X951598Y97756D01*
X953276Y98127D01*
X954976Y98351D01*
X956693Y98426D01*
X957378Y98457D01*
X958059Y98544D01*
X958732Y98693D01*
X959386Y98902D01*
X960020Y99162D01*
X960630Y99481D01*
X961209Y99851D01*
X961756Y100268D01*
X962260Y100733D01*
X962724Y101237D01*
X963142Y101784D01*
X963512Y102363D01*
X963831Y102973D01*
X964091Y103607D01*
X964299Y104260D01*
X964449Y104934D01*
X964535Y105615D01*
X964567Y106300D01*
Y448819D01*
X964551Y449162D01*
X964508Y449504D01*
X964433Y449839D01*
X964331Y450166D01*
X964197Y450485D01*
X964039Y450788D01*
X963854Y451079D01*
X963646Y451351D01*
X963413Y451603D01*
X963161Y451835D01*
X962890Y452044D01*
X962598Y452229D01*
X962295Y452386D01*
X961976Y452520D01*
X961650Y452623D01*
X961315Y452697D01*
X960972Y452741D01*
X960630Y452756D01*
X958913Y452831D01*
X957213Y453056D01*
X955535Y453426D01*
X953898Y453945D01*
X952311Y454599D01*
X950787Y455394D01*
X949339Y456316D01*
X947976Y457363D01*
X946709Y458520D01*
X945551Y459788D01*
X944504Y461150D01*
X943583Y462599D01*
X942787Y464123D01*
X942134Y465709D01*
X941614Y467347D01*
X941244Y469024D01*
X941020Y470725D01*
X940945Y472441D01*
Y511812D01*
X940795Y515245D01*
X940346Y518646D01*
X939602Y522001D01*
X938571Y525276D01*
X937256Y528449D01*
X935669Y531497D01*
X933827Y534394D01*
X931732Y537119D01*
X929413Y539650D01*
X926882Y541969D01*
X924157Y544064D01*
X921260Y545906D01*
X918213Y547493D01*
X915039Y548808D01*
X911764Y549839D01*
X908409Y550583D01*
X905008Y551032D01*
X901575Y551182D01*
X43307D01*
X39874Y551032D01*
X36472Y550583D01*
X33118Y549839D01*
X29843Y548808D01*
X26669Y547493D01*
X23622Y545906D01*
X20724Y544064D01*
X18000Y541969D01*
X15468Y539650D01*
X13150Y537119D01*
X11055Y534394D01*
X9213Y531497D01*
X7626Y528449D01*
X6311Y525276D01*
X5280Y522001D01*
X4535Y518646D01*
X4087Y515245D01*
X3937Y511812D01*
Y39371D01*
G54D18*
X758044Y92394D02*
Y80654D01*
G54D17*
X-3343Y1D02*
X968204D01*
X964567Y-13511D02*
Y542672D01*
X956047Y551182D02*
X4761D01*
X3937Y552802D02*
Y2698D01*
G54D19*
X124433Y559831D03*
X157898D03*
X191362D03*
X224827D03*
X258291D03*
X669616D03*
X703080D03*
X736545D03*
X770009D03*
X803474D03*
X124433Y-8580D03*
X157898D03*
X191362D03*
X224827D03*
X258291D03*
X669616D03*
X703080D03*
X736545D03*
X770009D03*
X803474D03*
%LPD*%
G75*
X803474Y-8580D02*
G54D10*
X57874Y731497D03*
G54D11*
X159449Y657481D03*
G54D12*
X724886Y732284D02*
X750787D01*
X724886D02*
X697728Y705127D01*
X648811D01*
X633858Y720079D01*
X614764D01*
X200929Y698961D02*
X159449Y657481D01*
X611996Y720079D02*
X614764D01*
X611996D02*
X590878Y698961D01*
X200929D01*
X468110Y1153938D02*
X807480D01*
X825000Y1136418D01*
Y1135827D01*
X468110Y1153938D02*
X387008Y1072835D01*
X449213Y732284D02*
X559055D01*
X449213D02*
X405906Y775591D01*
Y981497D01*
Y1034253D01*
X387008Y1053150D01*
Y1072835D01*
X676378Y789371D02*
X616142D01*
X559055Y732284D01*
X560236Y771654D02*
X568898D01*
X560236D02*
X538583Y750001D01*
X462669D02*
X426449Y786221D01*
X462669Y750001D02*
X538583D01*
X536220Y1131497D02*
X525201D01*
X426449Y1032745D01*
Y786221D01*
G54D13*
X352756Y731497D02*
X57874D01*
X352756D02*
X369291Y714961D01*
X584252D01*
X766535Y716536D02*
Y741733D01*
X642693Y773402D02*
X584252Y714961D01*
X642693Y773402D02*
X734866D01*
X766535Y741733D01*
G54D14*
X750787Y732284D03*
X614764Y720079D03*
X825000Y1135827D03*
X405906Y981497D03*
X676378Y789371D03*
X568898Y771654D03*
X536220Y1131497D03*
X766535Y716536D03*
%LPC*%
G75*
X766535Y716536D02*
G54D15*
X758848Y735943D02*
Y728625D01*
G54D16*
X679570Y781202D02*
X673186D01*
G54D17*
X3937Y669292D02*
X4087Y665859D01*
X4535Y662457D01*
X5280Y659103D01*
X6311Y655827D01*
X7626Y652654D01*
X9213Y649607D01*
X11055Y646709D01*
X13150Y643985D01*
X15468Y641453D01*
X18000Y639134D01*
X20724Y637040D01*
X23622Y635197D01*
X26669Y633611D01*
X29843Y632296D01*
X33118Y631264D01*
X36472Y630520D01*
X39874Y630071D01*
X43307Y629922D01*
X897638D01*
X901071Y630071D01*
X904472Y630520D01*
X907827Y631264D01*
X911102Y632296D01*
X914276Y633611D01*
X917323Y635197D01*
X920220Y637040D01*
X922945Y639134D01*
X925476Y641453D01*
X927795Y643985D01*
X929890Y646709D01*
X931732Y649607D01*
X933319Y652654D01*
X934634Y655827D01*
X935665Y659103D01*
X936409Y662457D01*
X936858Y665859D01*
X937008Y669292D01*
Y708662D01*
X937083Y710379D01*
X937307Y712079D01*
X937677Y713756D01*
X938197Y715394D01*
X938850Y716981D01*
X939646Y718504D01*
X940567Y719953D01*
X941614Y721316D01*
X942772Y722583D01*
X944039Y723741D01*
X945402Y724788D01*
X946850Y725709D01*
X948374Y726504D01*
X949961Y727158D01*
X951598Y727678D01*
X953276Y728048D01*
X954976Y728272D01*
X956693Y728347D01*
X957378Y728379D01*
X958059Y728465D01*
X958732Y728615D01*
X959386Y728823D01*
X960020Y729083D01*
X960630Y729402D01*
X961209Y729772D01*
X961756Y730190D01*
X962260Y730654D01*
X962724Y731158D01*
X963142Y731705D01*
X963512Y732284D01*
X963831Y732894D01*
X964091Y733528D01*
X964299Y734182D01*
X964449Y734855D01*
X964535Y735536D01*
X964567Y736221D01*
Y1078741D01*
X964551Y1079083D01*
X964508Y1079426D01*
X964433Y1079760D01*
X964331Y1080087D01*
X964197Y1080406D01*
X964039Y1080709D01*
X963854Y1081001D01*
X963646Y1081272D01*
X963413Y1081524D01*
X963161Y1081756D01*
X962890Y1081965D01*
X962598Y1082150D01*
X962295Y1082308D01*
X961976Y1082441D01*
X961650Y1082544D01*
X961315Y1082619D01*
X960972Y1082662D01*
X960630Y1082678D01*
X958913Y1082753D01*
X957213Y1082977D01*
X955535Y1083347D01*
X953898Y1083867D01*
X952311Y1084520D01*
X950787Y1085316D01*
X949339Y1086237D01*
X947976Y1087284D01*
X946709Y1088441D01*
X945551Y1089709D01*
X944504Y1091071D01*
X943583Y1092520D01*
X942787Y1094044D01*
X942134Y1095630D01*
X941614Y1097268D01*
X941244Y1098945D01*
X941020Y1100646D01*
X940945Y1102363D01*
Y1141733D01*
X940795Y1145166D01*
X940346Y1148567D01*
X939602Y1151922D01*
X938571Y1155197D01*
X937256Y1158371D01*
X935669Y1161418D01*
X933827Y1164316D01*
X931732Y1167040D01*
X929413Y1169571D01*
X926882Y1171890D01*
X924157Y1173985D01*
X921260Y1175827D01*
X918213Y1177414D01*
X915039Y1178729D01*
X911764Y1179760D01*
X908409Y1180504D01*
X905008Y1180953D01*
X901575Y1181103D01*
X43307D01*
X39874Y1180953D01*
X36472Y1180504D01*
X33118Y1179760D01*
X29843Y1178729D01*
X26669Y1177414D01*
X23622Y1175827D01*
X20724Y1173985D01*
X18000Y1171890D01*
X15468Y1169571D01*
X13150Y1167040D01*
X11055Y1164316D01*
X9213Y1161418D01*
X7626Y1158371D01*
X6311Y1155197D01*
X5280Y1151922D01*
X4535Y1148567D01*
X4087Y1145166D01*
X3937Y1141733D01*
Y669292D01*
G54D18*
X758044Y722316D02*
Y710576D01*
G54D17*
X-3343Y629922D02*
X968204D01*
X964567Y616410D02*
Y1172593D01*
X956047Y1181103D02*
X4761D01*
X3937Y1182724D02*
Y632619D01*
G54D19*
X124433Y1189752D03*
X157898D03*
X191362D03*
X224827D03*
X258291D03*
X669616D03*
X703080D03*
X736545D03*
X770009D03*
X803474D03*
X124433Y621341D03*
X157898D03*
X191362D03*
X224827D03*
X258291D03*
X669616D03*
X703080D03*
X736545D03*
X770009D03*
X803474D03*
%LPD*%
G75*
X803474Y621341D02*
G54D10*
X1097244Y101575D03*
G54D11*
X1198819Y27560D03*
G54D12*
X1764256Y102363D02*
X1790157D01*
X1764256D02*
X1737098Y75205D01*
X1688181D01*
X1673228Y90158D01*
X1654134D01*
X1240299Y69040D02*
X1198819Y27560D01*
X1651366Y90158D02*
X1654134D01*
X1651366D02*
X1630248Y69040D01*
X1240299D01*
X1507480Y524016D02*
X1846850D01*
X1864370Y506497D01*
Y505906D01*
X1507480Y524016D02*
X1426378Y442914D01*
X1488583Y102363D02*
X1598425D01*
X1488583D02*
X1445276Y145670D01*
Y351575D01*
Y404331D01*
X1426378Y423229D01*
Y442914D01*
X1715748Y159449D02*
X1655512D01*
X1598425Y102363D01*
X1599606Y141733D02*
X1608268D01*
X1599606D02*
X1577953Y120079D01*
X1502039D02*
X1465819Y156300D01*
X1502039Y120079D02*
X1577953D01*
X1575591Y501575D02*
X1564571D01*
X1465819Y402823D01*
Y156300D01*
G54D13*
X1392126Y101575D02*
X1097244D01*
X1392126D02*
X1408661Y85040D01*
X1623622D01*
X1805906Y86615D02*
Y111812D01*
X1682063Y143481D02*
X1623622Y85040D01*
X1682063Y143481D02*
X1774236D01*
X1805906Y111812D01*
G54D14*
X1790157Y102363D03*
X1654134Y90158D03*
X1864370Y505906D03*
X1445276Y351575D03*
X1715748Y159449D03*
X1608268Y141733D03*
X1575591Y501575D03*
X1805906Y86615D03*
%LPC*%
G75*
X1805906Y86615D02*
G54D15*
X1798218Y106022D02*
Y98704D01*
G54D16*
X1718940Y151281D02*
X1712556D01*
G54D17*
X1043307Y39371D02*
X1043457Y35938D01*
X1043906Y32536D01*
X1044650Y29182D01*
X1045681Y25906D01*
X1046996Y22733D01*
X1048583Y19686D01*
X1050425Y16788D01*
X1052520Y14064D01*
X1054839Y11532D01*
X1057370Y9213D01*
X1060094Y7119D01*
X1062992Y5276D01*
X1066039Y3690D01*
X1069213Y2375D01*
X1072488Y1343D01*
X1075843Y599D01*
X1079244Y150D01*
X1082677Y1D01*
X1937008D01*
X1940441Y150D01*
X1943843Y599D01*
X1947197Y1343D01*
X1950472Y2375D01*
X1953646Y3690D01*
X1956693Y5276D01*
X1959591Y7119D01*
X1962315Y9213D01*
X1964846Y11532D01*
X1967165Y14064D01*
X1969260Y16788D01*
X1971102Y19686D01*
X1972689Y22733D01*
X1974004Y25906D01*
X1975035Y29182D01*
X1975780Y32536D01*
X1976228Y35938D01*
X1976378Y39371D01*
Y78741D01*
X1976453Y80457D01*
X1976677Y82158D01*
X1977047Y83835D01*
X1977567Y85473D01*
X1978220Y87060D01*
X1979016Y88583D01*
X1979937Y90032D01*
X1980984Y91394D01*
X1982142Y92662D01*
X1983409Y93819D01*
X1984772Y94867D01*
X1986220Y95788D01*
X1987744Y96583D01*
X1989331Y97237D01*
X1990968Y97756D01*
X1992646Y98127D01*
X1994346Y98351D01*
X1996063Y98426D01*
X1996748Y98457D01*
X1997429Y98544D01*
X1998102Y98693D01*
X1998756Y98902D01*
X1999390Y99162D01*
X2000000Y99481D01*
X2000579Y99851D01*
X2001126Y100268D01*
X2001630Y100733D01*
X2002094Y101237D01*
X2002512Y101784D01*
X2002882Y102363D01*
X2003201Y102973D01*
X2003461Y103607D01*
X2003669Y104260D01*
X2003819Y104934D01*
X2003906Y105615D01*
X2003937Y106300D01*
Y448819D01*
X2003921Y449162D01*
X2003878Y449504D01*
X2003803Y449839D01*
X2003701Y450166D01*
X2003567Y450485D01*
X2003409Y450788D01*
X2003224Y451079D01*
X2003016Y451351D01*
X2002783Y451603D01*
X2002531Y451835D01*
X2002260Y452044D01*
X2001968Y452229D01*
X2001665Y452386D01*
X2001346Y452520D01*
X2001020Y452623D01*
X2000685Y452697D01*
X2000343Y452741D01*
X2000000Y452756D01*
X1998283Y452831D01*
X1996583Y453056D01*
X1994906Y453426D01*
X1993268Y453945D01*
X1991681Y454599D01*
X1990157Y455394D01*
X1988709Y456316D01*
X1987346Y457363D01*
X1986079Y458520D01*
X1984921Y459788D01*
X1983874Y461150D01*
X1982953Y462599D01*
X1982157Y464123D01*
X1981504Y465709D01*
X1980984Y467347D01*
X1980614Y469024D01*
X1980390Y470725D01*
X1980315Y472441D01*
Y511812D01*
X1980165Y515245D01*
X1979717Y518646D01*
X1978972Y522001D01*
X1977941Y525276D01*
X1976626Y528449D01*
X1975039Y531497D01*
X1973197Y534394D01*
X1971102Y537119D01*
X1968783Y539650D01*
X1966252Y541969D01*
X1963528Y544064D01*
X1960630Y545906D01*
X1957583Y547493D01*
X1954409Y548808D01*
X1951134Y549839D01*
X1947780Y550583D01*
X1944378Y551032D01*
X1940945Y551182D01*
X1082677D01*
X1079244Y551032D01*
X1075843Y550583D01*
X1072488Y549839D01*
X1069213Y548808D01*
X1066039Y547493D01*
X1062992Y545906D01*
X1060094Y544064D01*
X1057370Y541969D01*
X1054839Y539650D01*
X1052520Y537119D01*
X1050425Y534394D01*
X1048583Y531497D01*
X1046996Y528449D01*
X1045681Y525276D01*
X1044650Y522001D01*
X1043906Y518646D01*
X1043457Y515245D01*
X1043307Y511812D01*
Y39371D01*
G54D18*
X1797414Y92394D02*
Y80654D01*
G54D17*
X1036027Y1D02*
X2007574D01*
X2003937Y-13511D02*
Y542672D01*
X1995417Y551182D02*
X1044131D01*
X1043307Y552802D02*
Y2698D01*
G54D19*
X1163803Y559831D03*
X1197268D03*
X1230732D03*
X1264197D03*
X1297661D03*
X1708986D03*
X1742450D03*
X1775915D03*
X1809379D03*
X1842844D03*
X1163803Y-8580D03*
X1197268D03*
X1230732D03*
X1264197D03*
X1297661D03*
X1708986D03*
X1742450D03*
X1775915D03*
X1809379D03*
X1842844D03*
%LPD*%
G75*
X1842844Y-8580D02*
G54D10*
X1097244Y731497D03*
G54D11*
X1198819Y657481D03*
G54D12*
X1764256Y732284D02*
X1790157D01*
X1764256D02*
X1737098Y705127D01*
X1688181D01*
X1673228Y720079D01*
X1654134D01*
X1240299Y698961D02*
X1198819Y657481D01*
X1651366Y720079D02*
X1654134D01*
X1651366D02*
X1630248Y698961D01*
X1240299D01*
X1507480Y1153938D02*
X1846850D01*
X1864370Y1136418D01*
Y1135827D01*
X1507480Y1153938D02*
X1426378Y1072835D01*
X1488583Y732284D02*
X1598425D01*
X1488583D02*
X1445276Y775591D01*
Y981497D01*
Y1034253D01*
X1426378Y1053150D01*
Y1072835D01*
X1715748Y789371D02*
X1655512D01*
X1598425Y732284D01*
X1599606Y771654D02*
X1608268D01*
X1599606D02*
X1577953Y750001D01*
X1502039D02*
X1465819Y786221D01*
X1502039Y750001D02*
X1577953D01*
X1575591Y1131497D02*
X1564571D01*
X1465819Y1032745D01*
Y786221D01*
G54D13*
X1392126Y731497D02*
X1097244D01*
X1392126D02*
X1408661Y714961D01*
X1623622D01*
X1805906Y716536D02*
Y741733D01*
X1682063Y773402D02*
X1623622Y714961D01*
X1682063Y773402D02*
X1774236D01*
X1805906Y741733D01*
G54D14*
X1790157Y732284D03*
X1654134Y720079D03*
X1864370Y1135827D03*
X1445276Y981497D03*
X1715748Y789371D03*
X1608268Y771654D03*
X1575591Y1131497D03*
X1805906Y716536D03*
%LPC*%
G75*
X1805906Y716536D02*
G54D15*
X1798218Y735943D02*
Y728625D01*
G54D16*
X1718940Y781202D02*
X1712556D01*
G54D17*
X1043307Y669292D02*
X1043457Y665859D01*
X1043906Y662457D01*
X1044650Y659103D01*
X1045681Y655827D01*
X1046996Y652654D01*
X1048583Y649607D01*
X1050425Y646709D01*
X1052520Y643985D01*
X1054839Y641453D01*
X1057370Y639134D01*
X1060094Y637040D01*
X1062992Y635197D01*
X1066039Y633611D01*
X1069213Y632296D01*
X1072488Y631264D01*
X1075843Y630520D01*
X1079244Y630071D01*
X1082677Y629922D01*
X1937008D01*
X1940441Y630071D01*
X1943843Y630520D01*
X1947197Y631264D01*
X1950472Y632296D01*
X1953646Y633611D01*
X1956693Y635197D01*
X1959591Y637040D01*
X1962315Y639134D01*
X1964846Y641453D01*
X1967165Y643985D01*
X1969260Y646709D01*
X1971102Y649607D01*
X1972689Y652654D01*
X1974004Y655827D01*
X1975035Y659103D01*
X1975780Y662457D01*
X1976228Y665859D01*
X1976378Y669292D01*
Y708662D01*
X1976453Y710379D01*
X1976677Y712079D01*
X1977047Y713756D01*
X1977567Y715394D01*
X1978220Y716981D01*
X1979016Y718504D01*
X1979937Y719953D01*
X1980984Y721316D01*
X1982142Y722583D01*
X1983409Y723741D01*
X1984772Y724788D01*
X1986220Y725709D01*
X1987744Y726504D01*
X1989331Y727158D01*
X1990968Y727678D01*
X1992646Y728048D01*
X1994346Y728272D01*
X1996063Y728347D01*
X1996748Y728379D01*
X1997429Y728465D01*
X1998102Y728615D01*
X1998756Y728823D01*
X1999390Y729083D01*
X2000000Y729402D01*
X2000579Y729772D01*
X2001126Y730190D01*
X2001630Y730654D01*
X2002094Y731158D01*
X2002512Y731705D01*
X2002882Y732284D01*
X2003201Y732894D01*
X2003461Y733528D01*
X2003669Y734182D01*
X2003819Y734855D01*
X2003906Y735536D01*
X2003937Y736221D01*
Y1078741D01*
X2003921Y1079083D01*
X2003878Y1079426D01*
X2003803Y1079760D01*
X2003701Y1080087D01*
X2003567Y1080406D01*
X2003409Y1080709D01*
X2003224Y1081001D01*
X2003016Y1081272D01*
X2002783Y1081524D01*
X2002531Y1081756D01*
X2002260Y1081965D01*
X2001968Y1082150D01*
X2001665Y1082308D01*
X2001346Y1082441D01*
X2001020Y1082544D01*
X2000685Y1082619D01*
X2000343Y1082662D01*
X2000000Y1082678D01*
X1998283Y1082753D01*
X1996583Y1082977D01*
X1994906Y1083347D01*
X1993268Y1083867D01*
X1991681Y1084520D01*
X1990157Y1085316D01*
X1988709Y1086237D01*
X1987346Y1087284D01*
X1986079Y1088441D01*
X1984921Y1089709D01*
X1983874Y1091071D01*
X1982953Y1092520D01*
X1982157Y1094044D01*
X1981504Y1095630D01*
X1980984Y1097268D01*
X1980614Y1098945D01*
X1980390Y1100646D01*
X1980315Y1102363D01*
Y1141733D01*
X1980165Y1145166D01*
X1979717Y1148567D01*
X1978972Y1151922D01*
X1977941Y1155197D01*
X1976626Y1158371D01*
X1975039Y1161418D01*
X1973197Y1164316D01*
X1971102Y1167040D01*
X1968783Y1169571D01*
X1966252Y1171890D01*
X1963528Y1173985D01*
X1960630Y1175827D01*
X1957583Y1177414D01*
X1954409Y1178729D01*
X1951134Y1179760D01*
X1947780Y1180504D01*
X1944378Y1180953D01*
X1940945Y1181103D01*
X1082677D01*
X1079244Y1180953D01*
X1075843Y1180504D01*
X1072488Y1179760D01*
X1069213Y1178729D01*
X1066039Y1177414D01*
X1062992Y1175827D01*
X1060094Y1173985D01*
X1057370Y1171890D01*
X1054839Y1169571D01*
X1052520Y1167040D01*
X1050425Y1164316D01*
X1048583Y1161418D01*
X1046996Y1158371D01*
X1045681Y1155197D01*
X1044650Y1151922D01*
X1043906Y1148567D01*
X1043457Y1145166D01*
X1043307Y1141733D01*
Y669292D01*
G54D18*
X1797414Y722316D02*
Y710576D01*
G54D17*
X1036027Y629922D02*
X2007574D01*
X2003937Y616410D02*
Y1172593D01*
X1995417Y1181103D02*
X1044131D01*
X1043307Y1182724D02*
Y632619D01*
G54D19*
X1163803Y1189752D03*
X1197268D03*
X1230732D03*
X1264197D03*
X1297661D03*
X1708986D03*
X1742450D03*
X1775915D03*
X1809379D03*
X1842844D03*
X1163803Y621341D03*
X1197268D03*
X1230732D03*
X1264197D03*
X1297661D03*
X1708986D03*
X1742450D03*
X1775915D03*
X1809379D03*
X1842844D03*
%LPD*%
G75*
X1842844Y621341D02*
G36*
X32937Y-196850D02*
Y-107740D01*
X169852D01*
G02X171104Y-113466I0J-3000D01*
G03X171104Y-240864I29684J-63699D01*
G02X169852Y-246590I-1252J-2726D01*
G01X82677D01*
G02X32937Y-196850I0J49740D01*
G37*
G36*
Y1377953D02*
G02X82677Y1427693I49740J0D01*
G01X366702D01*
G02X367954Y1421967I0J-3000D01*
G03X367954Y1294569I29684J-63699D01*
G02X366702Y1288843I-1252J-2726D01*
G01X32937D01*
Y1377953D01*
G37*
G36*
X230471Y-240864D02*
G03X230471Y-113466I-29684J63699D01*
G02X231723Y-107740I1252J2726D01*
G01X335442D01*
G02X337501Y-112930I8J-3000D01*
G03X337501Y-241400I60137J-64235D01*
G02X335442Y-246590I-2050J-2190D01*
G01X231723D01*
G02X230471Y-240864I0J3000D01*
G37*
G36*
X427321Y1294569D02*
G03X427321Y1421967I-29684J63699D01*
G02X428573Y1427693I1252J2726D01*
G01X532293D01*
G02X534351Y1422503I8J-3000D01*
G03X534351Y1294033I60137J-64235D01*
G02X532293Y1288843I-2050J-2190D01*
G01X428573D01*
G02X427321Y1294569I0J3000D01*
G37*
G36*
X457775Y-112930D02*
G02X459833Y-107740I2050J2190D01*
G01X952567D01*
Y-246590D01*
X459833D01*
G02X457775Y-241400I-8J3000D01*
G03X457775Y-112930I-60137J64235D01*
G37*
G36*
X654625Y1422503D02*
G02X656684Y1427693I2050J2190D01*
G01X952567D01*
Y1288843D01*
X656684D01*
G02X654625Y1294033I-8J3000D01*
G03X654625Y1422503I-60137J64235D01*
G37*
G36*
X976567Y-107740D02*
G01X1031307D01*
Y-246590D01*
X976567D01*
Y-107740D01*
G37*
G36*
Y1427693D02*
X1031307D01*
Y1288843D01*
X976567D01*
Y1427693D01*
G37*
G36*
X1055307Y-107740D02*
X1548041D01*
G02X1550099Y-112930I8J-3000D01*
G03X1550099Y-241400I60137J-64235D01*
G02X1548041Y-246590I-2050J-2190D01*
G01X1055307D01*
Y-107740D01*
G37*
G36*
Y1427693D02*
X1548041D01*
G02X1550099Y1422503I8J-3000D01*
G03X1550099Y1294033I60137J-64235D01*
G02X1548041Y1288843I-2050J-2190D01*
G01X1055307D01*
Y1427693D01*
G37*
G36*
X1670373Y-112930D02*
G02X1672432Y-107740I2050J2190D01*
G01X1776151D01*
G02X1777403Y-113466I0J-3000D01*
G03X1777403Y-240864I29684J-63699D01*
G02X1776151Y-246590I-1252J-2726D01*
G01X1672432D01*
G02X1670373Y-241400I-8J3000D01*
G03X1670373Y-112930I-60137J64235D01*
G37*
G36*
Y1422503D02*
G02X1672432Y1427693I2050J2190D01*
G01X1776151D01*
G02X1777403Y1421967I0J-3000D01*
G03X1777403Y1294569I29684J-63699D01*
G02X1776151Y1288843I-1252J-2726D01*
G01X1672432D01*
G02X1670373Y1294033I-8J3000D01*
G03X1670373Y1422503I-60137J64235D01*
G37*
G36*
X1836770Y-240864D02*
G03X1836770Y-113466I-29684J63699D01*
G02X1838022Y-107740I1252J2726D01*
G01X1974937D01*
Y-196850D01*
G02X1925197Y-246590I-49740J0D01*
G01X1838022D01*
G02X1836770Y-240864I0J3000D01*
G37*
G36*
Y1294569D02*
G03X1836770Y1421967I-29684J63699D01*
G02X1838022Y1427693I1252J2726D01*
G01X1925197D01*
G02X1974937Y1377953I0J-49740D01*
G01Y1288843D01*
X1838022D01*
G02X1836770Y1294569I0J3000D01*
G37*
M02*
