M48
;GenerationSoftware,Autodesk,EAGLE,9.6.2*%
;CreationDate,2021-06-01T15:12:26Z*%
FMAT,2
ICI,OFF
METRIC,TZ,000.000
T4C0.200
T3C0.450
T2C0.508
T1C0.600
%
G90
M71
T1
X26800Y10700
X28800Y10700
X28800Y5700
X26800Y5700
T2
X-100Y3200
X-100Y4470
X-100Y5740
X-100Y13400
X-100Y7050
X-100Y8320
X-100Y9590
X-100Y10860
X-100Y12130
X16300Y800
X16250Y15550
T3
X1250Y8300
X2200Y3200
T4
X12650Y6300
X15650Y7500
X17650Y7500
X19650Y7300
X21650Y6800
X23650Y6700
X19650Y5450
X17650Y5700
X15650Y5700
X21650Y4950
X25650Y7000
X27650Y7000
X27650Y4400
X25650Y4400
X27650Y9400
X25650Y9400
X22650Y6700
X24550Y6700
X20650Y7100
X18650Y7500
X16650Y7500
X18650Y5600
X20650Y5150
X16650Y5700
X22750Y4900
X23750Y4900
X14750Y7500
X14750Y5700
X26650Y7000
X26650Y4400
X28650Y4400
X28650Y7000
X28650Y9400
X26650Y9400
X26650Y12000
X27650Y12000
X28650Y12000
X29650Y9400
X29650Y7000
X29650Y12000
X29650Y4400
X23650Y10300
X22550Y12000
X22950Y11100
X24650Y9800
X25650Y12000
X23650Y8300
X24250Y12800
X22350Y12800
X10250Y14300
X4100Y13800
X2100Y15800
X14400Y15800
X19500Y14500
X21700Y14500
X25000Y14350
X25150Y2950
X22800Y1900
X4450Y8300
X9750Y400
X8050Y2550
X12800Y13750
X2800Y1100
X12350Y12850
X2800Y1750
X7650Y5750
X16750Y5000
X17850Y5000
X8600Y5750
X9150Y14450
X8400Y14450
X10050Y3000
X20606Y3290
X1050Y3150
X10100Y1959
X5287Y755
X15800Y3050
X24368Y2290
X7100Y13750
X11850Y12100
X21700Y3300
X11050Y5750
X6700Y1150
X9300Y1050
X13790Y4626
X10050Y3650
X12750Y2300
X11700Y2300
X6650Y3900
X15200Y5200
X22454Y2400
X23900Y3300
X14900Y14450
X12650Y10300
X12650Y8300
X27650Y8300
X25650Y8300
X21650Y8300
X19650Y8300
X17650Y8300
X15650Y8300
X15650Y10300
X17650Y10300
X19650Y10300
X21650Y10300
X21650Y12300
X19650Y12300
X17650Y12300
X15650Y12300
X24650Y12000
M30