M48
;GenerationSoftware,Autodesk,EAGLE,9.6.2*%
;CreationDate,2020-11-25T11:44:57Z*%
FMAT,2
ICI,OFF
METRIC,TZ,000.000
T3C0.200
T2C0.600
T1C1.016
%
G90
M71
T1
X8650Y16610
X11190Y16610
X13730Y16610
X16270Y16610
X18810Y16610
X21350Y16610
X23890Y16610
X3000Y1500
X3000Y14890
T2
X32215Y6660
X30215Y6660
T3
X1150Y3460
X1150Y1460
X18350Y1260
X24950Y1260
X14150Y13460
X12350Y15160
X1510Y5400
X3850Y5940
X3270Y4800
X2650Y4800
X2010Y5000
X2650Y5940
X8050Y14360
X18990Y12640
X21390Y12640
X24990Y7040
X18850Y2760
X4590Y8760
X3850Y4800
X1150Y5860
X23170Y15180
X27950Y7860
X29450Y7860
X30950Y7860
X32450Y7860
X32450Y5360
X30950Y5360
X29450Y5360
X27950Y4360
X29450Y9360
X30950Y9360
X32250Y9160
X32250Y4060
X30950Y3860
X29450Y3860
X1150Y11460
X27950Y10860
X27950Y2860
X27950Y12360
X27950Y13860
X27950Y15360
X27950Y1360
X23840Y13450
X14750Y1350
X11190Y920
X23090Y12890
X14750Y2050
X9960Y1380
X20980Y4683
X9280Y9690
X12130Y12370
X9370Y13390
X8150Y8520
X9300Y10950
X14530Y11770
X16650Y10230
X24980Y10240
X15150Y3350
X25000Y12372
X23920Y15140
X20210Y5438
X9400Y12380
X9960Y8800
X9970Y11700
X13040Y5540
X8220Y10290
X10280Y3930
X17200Y900
X22870Y5200
X8080Y4300
X2950Y3060
X3250Y5940
X3150Y11460
X3150Y13460
X1150Y13460
X1150Y15460
X8200Y11340
X8170Y9160
X17320Y6120
X13690Y11830
X27950Y9360
M30