G04 ================== begin FILE IDENTIFICATION RECORD ==================*
G04 Layout Name:  LAUNCHXL-CC1350.brd*
G04 Film Name:    LAUNCHXL-CC1350_soldmask_top*
G04 File Format:  Gerber RS274X*
G04 File Origin:  Cadence Allegro 16.6-S019*
G04 Origin Date:  Tue Nov 22 14:35:08 2016*
G04 *
G04 Layer:  PACKAGE GEOMETRY/SOLDERMASK_TOP*
G04 Layer:  VIA CLASS/SOLDERMASK_TOP*
G04 Layer:  PIN/SOLDERMASK_TOP*
G04 Layer:  BOARD GEOMETRY/OUTLINE*
G04 *
G04 Offset:    (0.000 0.000)*
G04 Mirror:    No*
G04 Mode:      Positive*
G04 Rotation:  0*
G04 FullContactRelief:  No*
G04 UndefLineWidth:     0.099*
G04 ================== end FILE IDENTIFICATION RECORD ====================*
%FSLAX44Y44*MOMM*%
%IR0*IPPOS*OFA0.00000B0.00000*MIA0B0*SFA1.00000B1.00000*%
%AMMACRO40*
4,1,44,-.099,.249,
.099,.249,
.116392,.247829,
.133317,.243655,
.149259,.236606,
.163736,.226896,
.176306,.214819,
.186588,.200743,
.19427,.185095,
.199118,.168352,
.200985,.15102,
.201,.15,
.201,-.15,
.19931,-.167349,
.194633,-.184142,
.187112,-.199867,
.176974,-.214047,
.164527,-.226252,
.150151,-.236109,
.134281,-.243321,
.1174,-.247667,
.10002,-.249015,
.099,-.249,
-.099,-.249,
-.116392,-.247829,
-.133317,-.243655,
-.149259,-.236606,
-.163736,-.226896,
-.176306,-.214819,
-.186588,-.200743,
-.19427,-.185095,
-.199118,-.168352,
-.200985,-.15102,
-.201,-.15,
-.201,.15,
-.19931,.167349,
-.194633,.184142,
-.187112,.199867,
-.176974,.214047,
-.164527,.226252,
-.150151,.236109,
-.134281,.243321,
-.1174,.247667,
-.10002,.249015,
-.099,.249,
0.0*
%
%ADD40MACRO40*%
%AMMACRO33*
4,1,45,.238,-.238,
.316,-.161,
.339938,-.13213,
.358736,-.099709,
.371619,-.064516,
.378196,-.02762,
.378265,.009857,
.371825,.046776,
.359073,.082017,
.340394,.114507,
.316358,.143261,
.316,.144,
.144,.316,
.115142,.33995,
.082719,.358745,
.047525,.371625,
.010629,.378197,
-.026848,.378263,
-.063767,.37182,
-.099006,.359064,
-.131495,.340383,
-.160246,.316343,
-.161,.316,
-.316,.161,
-.339938,.13213,
-.358736,.099709,
-.371619,.064516,
-.378196,.02762,
-.378265,-.009857,
-.371825,-.046776,
-.359073,-.082017,
-.340394,-.114507,
-.316358,-.143261,
-.316,-.144,
-.144,-.316,
-.115142,-.33995,
-.082719,-.358745,
-.047525,-.371625,
-.010629,-.378197,
.026848,-.378263,
.063767,-.37182,
.099006,-.359064,
.131495,-.340383,
.160246,-.316343,
.161,-.316,
.238,-.238,
0.0*
%
%ADD33MACRO33*%
%AMMACRO20*
4,1,41,.337,0.0,
.337,.11,
.333734,.147334,
.324034,.183534,
.308195,.2175,
.2867,.248199,
.260199,.2747,
.2295,.296195,
.195534,.312034,
.159334,.321734,
.122,.325,
-.122,.325,
-.159334,.321734,
-.195534,.312034,
-.2295,.296195,
-.260199,.2747,
-.2867,.248199,
-.308195,.2175,
-.324034,.183534,
-.333734,.147334,
-.337,.11,
-.337,-.11,
-.333734,-.147334,
-.324034,-.183534,
-.308195,-.2175,
-.2867,-.248199,
-.260199,-.2747,
-.2295,-.296195,
-.195534,-.312034,
-.159334,-.321734,
-.122,-.325,
.122,-.325,
.159334,-.321734,
.195534,-.312034,
.2295,-.296195,
.260199,-.2747,
.2867,-.248199,
.308195,-.2175,
.324034,-.183534,
.333734,-.147334,
.337,-.11,
.337,0.0,
0.0*
%
%ADD20MACRO20*%
%AMMACRO47*
4,1,40,.975,-.287,
.975,.287,
.970608,.336864,
.957625,.385207,
.936443,.430561,
.907708,.471548,
.872292,.506923,
.831272,.53561,
.785893,.556739,
.737534,.569666,
.688,.574,
-.688,.574,
-.737864,.569608,
-.786207,.556625,
-.831561,.535443,
-.872548,.506708,
-.907923,.471292,
-.93661,.430272,
-.957739,.384893,
-.970666,.336534,
-.975,.287,
-.975,-.287,
-.970608,-.336864,
-.957625,-.385207,
-.936443,-.430561,
-.907708,-.471548,
-.872292,-.506923,
-.831272,-.53561,
-.785893,-.556739,
-.737534,-.569666,
-.688,-.574,
.688,-.574,
.737864,-.569608,
.786207,-.556625,
.831561,-.535443,
.872548,-.506708,
.907923,-.471292,
.93661,-.430272,
.957739,-.384893,
.970666,-.336534,
.975,-.287,
0.0*
%
%ADD47MACRO47*%
%AMMACRO25*
4,1,41,0.0,-.337,
.11,-.337,
.147334,-.333734,
.183534,-.324034,
.2175,-.308195,
.248199,-.2867,
.2747,-.260199,
.296195,-.2295,
.312034,-.195534,
.321734,-.159334,
.325,-.122,
.325,.122,
.321734,.159334,
.312034,.195534,
.296195,.2295,
.2747,.260199,
.248199,.2867,
.2175,.308195,
.183534,.324034,
.147334,.333734,
.11,.337,
-.11,.337,
-.147334,.333734,
-.183534,.324034,
-.2175,.308195,
-.248199,.2867,
-.2747,.260199,
-.296195,.2295,
-.312034,.195534,
-.321734,.159334,
-.325,.122,
-.325,-.122,
-.321734,-.159334,
-.312034,-.195534,
-.296195,-.2295,
-.2747,-.260199,
-.248199,-.2867,
-.2175,-.308195,
-.183534,-.324034,
-.147334,-.333734,
-.11,-.337,
0.0,-.337,
0.0*
%
%ADD25MACRO25*%
%AMMACRO32*
4,1,41,.45,0.0,
.45,.244,
.446797,.279833,
.43742,.314566,
.422154,.347143,
.401463,.376574,
.375976,.401965,
.346467,.422544,
.313833,.437687,
.279065,.446932,
.244,.45,
-.244,.45,
-.279833,.446797,
-.314566,.43742,
-.347143,.422154,
-.376574,.401463,
-.401965,.375976,
-.422544,.346467,
-.437687,.313833,
-.446932,.279065,
-.45,.244,
-.45,-.244,
-.446797,-.279833,
-.43742,-.314566,
-.422154,-.347143,
-.401463,-.376574,
-.375976,-.401965,
-.346467,-.422544,
-.313833,-.437687,
-.279065,-.446932,
-.244,-.45,
.244,-.45,
.279833,-.446797,
.314566,-.43742,
.347143,-.422154,
.376574,-.401463,
.401965,-.375976,
.422544,-.346467,
.437687,-.313833,
.446932,-.279065,
.45,-.244,
.45,0.0,
0.0*
%
%ADD32MACRO32*%
%AMMACRO63*
4,1,41,.283,-.283,
.429,-.137,
.44772,-.114284,
.462394,-.088791,
.472417,-.061136,
.477487,-.032161,
.477448,-.002746,
.472301,.026215,
.462204,.053843,
.447462,.079298,
.429,.102,
.102,.429,
.079135,.447576,
.053663,.462288,
.026023,.472353,
-.002944,.477465,
-.032359,.47747,
-.061328,.472366,
-.088971,.46231,
-.114447,.447606,
-.137,.429,
-.429,.137,
-.44772,.114284,
-.462394,.088791,
-.472417,.061136,
-.477487,.032161,
-.477448,.002746,
-.472301,-.026215,
-.462204,-.053843,
-.447462,-.079298,
-.429,-.102,
-.102,-.429,
-.079135,-.447576,
-.053663,-.462288,
-.026023,-.472353,
.002944,-.477465,
.032359,-.47747,
.061328,-.472366,
.088971,-.46231,
.114447,-.447606,
.137,-.429,
.283,-.283,
0.0*
%
%ADD63MACRO63*%
%AMMACRO70*
4,1,45,0.0,-.4,
.206,-.4,
.235307,-.39748,
.263731,-.389909,
.290408,-.377517,
.314529,-.360681,
.335359,-.339912,
.352267,-.315842,
.364738,-.289201,
.372393,-.260799,
.375,-.2315,
.375,-.231,
.375,.231,
.37248,.260307,
.364909,.288731,
.352517,.315408,
.335681,.339529,
.314912,.360359,
.290842,.377267,
.264201,.389738,
.235799,.397393,
.2065,.4,
.206,.4,
-.206,.4,
-.235307,.39748,
-.263731,.389909,
-.290408,.377517,
-.314529,.360681,
-.335359,.339912,
-.352267,.315842,
-.364738,.289201,
-.372393,.260799,
-.375,.2315,
-.375,.231,
-.375,-.231,
-.37248,-.260307,
-.364909,-.288731,
-.352517,-.315408,
-.335681,-.339529,
-.314912,-.360359,
-.290842,-.377267,
-.264201,-.389738,
-.235799,-.397393,
-.2065,-.4,
-.206,-.4,
0.0,-.4,
0.0*
%
%ADD70MACRO70*%
%ADD73O,.701X2.2*%
%ADD17C,1.1*%
%ADD23O,1.651X.3*%
%ADD24O,.3X1.651*%
%ADD12C,1.42*%
%ADD10C,3.401*%
%ADD13C,1.8*%
%ADD36O,1.049X.551*%
%ADD51R,1.15X1.15*%
%ADD49R,1.85X.45*%
%ADD67R,5.4X5.4*%
%ADD30C,3.95*%
%AMMACRO37*
4,1,41,.5,0.0,
.5,.075,
.498861,.088024,
.495477,.100652,
.489952,.1125,
.482453,.123209,
.473209,.132453,
.4625,.139952,
.450652,.145477,
.438024,.148861,
.425,.15,
-.425,.15,
-.438024,.148861,
-.450652,.145477,
-.4625,.139952,
-.473209,.132453,
-.482453,.123209,
-.489952,.1125,
-.495477,.100652,
-.498861,.088024,
-.5,.075,
-.5,-.075,
-.498861,-.088024,
-.495477,-.100652,
-.489952,-.1125,
-.482453,-.123209,
-.473209,-.132453,
-.4625,-.139952,
-.450652,-.145477,
-.438024,-.148861,
-.425,-.15,
.425,-.15,
.438024,-.148861,
.450652,-.145477,
.4625,-.139952,
.473209,-.132453,
.482453,-.123209,
.489952,-.1125,
.495477,-.100652,
.498861,-.088024,
.5,-.075,
.5,0.0,
0.0*
%
%ADD37MACRO37*%
%AMMACRO75*
4,1,22,.45,-.2,
.45,.2,
-.35,.2,
-.367365,.198481,
-.384202,.193969,
-.4,.186603,
-.414279,.176604,
-.426604,.164279,
-.436603,.15,
-.443969,.134202,
-.448481,.117365,
-.45,.1,
-.45,-.1,
-.448481,-.117365,
-.443969,-.134202,
-.436603,-.15,
-.426604,-.164279,
-.414279,-.176604,
-.4,-.186603,
-.384202,-.193969,
-.367365,-.198481,
-.35,-.2,
.45,-.2,
0.0*
%
%ADD75MACRO75*%
%AMMACRO76*
4,1,22,-.2,-.45,
.2,-.45,
.2,.35,
.198481,.367365,
.193969,.384202,
.186603,.4,
.176604,.414279,
.164279,.426604,
.15,.436603,
.134202,.443969,
.117365,.448481,
.1,.45,
-.1,.45,
-.117365,.448481,
-.134202,.443969,
-.15,.436603,
-.164279,.426604,
-.176604,.414279,
-.186603,.4,
-.193969,.384202,
-.198481,.367365,
-.2,.35,
-.2,-.45,
0.0*
%
%ADD76MACRO76*%
%ADD29C,1.199*%
%ADD16C,1.849*%
%AMMACRO45*
4,1,41,0.0,.725,
-.225,.725,
-.277094,.720442,
-.327606,.706908,
-.375,.684808,
-.417836,.654813,
-.454813,.617836,
-.484808,.575,
-.506908,.527606,
-.520442,.477094,
-.525,.425,
-.525,-.425,
-.520442,-.477094,
-.506908,-.527606,
-.484808,-.575,
-.454813,-.617836,
-.417836,-.654813,
-.375,-.684808,
-.327606,-.706908,
-.277094,-.720442,
-.225,-.725,
.225,-.725,
.277094,-.720442,
.327606,-.706908,
.375,-.684808,
.417836,-.654813,
.454813,-.617836,
.484808,-.575,
.506908,-.527606,
.520442,-.477094,
.525,-.425,
.525,.425,
.520442,.477094,
.506908,.527606,
.484808,.575,
.454813,.617836,
.417836,.654813,
.375,.684808,
.327606,.706908,
.277094,.720442,
.225,.725,
0.0,.725,
0.0*
%
%ADD45MACRO45*%
%AMMACRO18*
4,1,41,-.725,0.0,
-.725,-.225,
-.720442,-.277094,
-.706908,-.327606,
-.684808,-.375,
-.654813,-.417836,
-.617836,-.454813,
-.575,-.484808,
-.527606,-.506908,
-.477094,-.520442,
-.425,-.525,
.425,-.525,
.477094,-.520442,
.527606,-.506908,
.575,-.484808,
.617836,-.454813,
.654813,-.417836,
.684808,-.375,
.706908,-.327606,
.720442,-.277094,
.725,-.225,
.725,.225,
.720442,.277094,
.706908,.327606,
.684808,.375,
.654813,.417836,
.617836,.454813,
.575,.484808,
.527606,.506908,
.477094,.520442,
.425,.525,
-.425,.525,
-.477094,.520442,
-.527606,.506908,
-.575,.484808,
-.617836,.454813,
-.654813,.417836,
-.684808,.375,
-.706908,.327606,
-.720442,.277094,
-.725,.225,
-.725,0.0,
0.0*
%
%ADD18MACRO18*%
%AMMACRO53*
4,1,41,-.225,0.0,
-.225,-.05,
-.223481,-.067365,
-.218969,-.084202,
-.211603,-.1,
-.201604,-.114279,
-.189279,-.126604,
-.175,-.136603,
-.159202,-.143969,
-.142365,-.148481,
-.125,-.15,
.125,-.15,
.142365,-.148481,
.159202,-.143969,
.175,-.136603,
.189279,-.126604,
.201604,-.114279,
.211603,-.1,
.218969,-.084202,
.223481,-.067365,
.225,-.05,
.225,.05,
.223481,.067365,
.218969,.084202,
.211603,.1,
.201604,.114279,
.189279,.126604,
.175,.136603,
.159202,.143969,
.142365,.148481,
.125,.15,
-.125,.15,
-.142365,.148481,
-.159202,.143969,
-.175,.136603,
-.189279,.126604,
-.201604,.114279,
-.211603,.1,
-.218969,.084202,
-.223481,.067365,
-.225,.05,
-.225,0.0,
0.0*
%
%ADD53MACRO53*%
%AMMACRO81*
4,1,41,0.0,.775,
-.288,.775,
-.337916,.770545,
-.386301,.757491,
-.431683,.736232,
-.472684,.707416,
-.508059,.671918,
-.536732,.630817,
-.557833,.585361,
-.570719,.536931,
-.575,.488,
-.575,-.488,
-.570545,-.537916,
-.557491,-.586301,
-.536232,-.631683,
-.507416,-.672684,
-.471918,-.708059,
-.430817,-.736732,
-.385361,-.757833,
-.336931,-.770719,
-.288,-.775,
.288,-.775,
.337916,-.770545,
.386301,-.757491,
.431683,-.736232,
.472684,-.707416,
.508059,-.671918,
.536732,-.630817,
.557833,-.585361,
.570719,-.536931,
.575,-.488,
.575,.488,
.570545,.537916,
.557491,.586301,
.536232,.631683,
.507416,.672684,
.471918,.708059,
.430817,.736732,
.385361,.757833,
.336931,.770719,
.288,.775,
0.0,.775,
0.0*
%
%ADD81MACRO81*%
%AMMACRO46*
4,1,41,-.775,0.0,
-.775,-.288,
-.770545,-.337916,
-.757491,-.386301,
-.736232,-.431683,
-.707416,-.472684,
-.671918,-.508059,
-.630817,-.536732,
-.585361,-.557833,
-.536931,-.570719,
-.488,-.575,
.488,-.575,
.537916,-.570545,
.586301,-.557491,
.631683,-.536232,
.672684,-.507416,
.708059,-.471918,
.736732,-.430817,
.757833,-.385361,
.770719,-.336931,
.775,-.288,
.775,.288,
.770545,.337916,
.757491,.386301,
.736232,.431683,
.707416,.472684,
.671918,.508059,
.630817,.536732,
.585361,.557833,
.536931,.570719,
.488,.575,
-.488,.575,
-.537916,.570545,
-.586301,.557491,
-.631683,.536232,
-.672684,.507416,
-.708059,.471918,
-.736732,.430817,
-.757833,.385361,
-.770719,.336931,
-.775,.288,
-.775,0.0,
0.0*
%
%ADD46MACRO46*%
%AMMACRO69*
4,1,45,.525,0.0,
.525,.187,
.521099,.23259,
.50934,.27681,
.490082,.318317,
.463908,.355849,
.431615,.388265,
.394183,.414582,
.35275,.433998,
.308575,.445925,
.263,.45,
.262,.45,
-.262,.45,
-.30759,.446099,
-.35181,.43434,
-.393317,.415082,
-.430849,.388908,
-.463265,.356615,
-.489582,.319183,
-.508998,.27775,
-.520925,.233575,
-.525,.188,
-.525,.187,
-.525,-.187,
-.521099,-.23259,
-.50934,-.27681,
-.490082,-.318317,
-.463908,-.355849,
-.431615,-.388265,
-.394183,-.414582,
-.35275,-.433998,
-.308575,-.445925,
-.263,-.45,
-.262,-.45,
.262,-.45,
.30759,-.446099,
.35181,-.43434,
.393317,-.415082,
.430849,-.388908,
.463265,-.356615,
.489582,-.319183,
.508998,-.27775,
.520925,-.233575,
.525,-.188,
.525,-.187,
.525,0.0,
0.0*
%
%ADD69MACRO69*%
%AMMACRO60*
4,1,15,-.375,.925,
.375,.925,
.375,-.925,
-.375,-.925,
-.375,-.458,
-.301926,-.377235,
-.243988,-.285008,
-.202944,-.184121,
-.180043,-.07764,
-.17598,.031201,
-.190879,.139093,
-.224287,.242759,
-.275188,.339049,
-.342037,.425037,
-.375,.458,
-.375,.925,
0.0*
%
%ADD60MACRO60*%
%AMMACRO56*
4,1,15,-.925,-.375,
-.925,.375,
.925,.375,
.925,-.375,
.458,-.375,
.377235,-.301926,
.285008,-.243988,
.184121,-.202944,
.07764,-.180043,
-.031201,-.17598,
-.139093,-.190879,
-.242759,-.224287,
-.339049,-.275188,
-.425037,-.342037,
-.458,-.375,
-.925,-.375,
0.0*
%
%ADD56MACRO56*%
%AMMACRO38*
4,1,41,0.0,.375,
-.05,.375,
-.067365,.373481,
-.084202,.368969,
-.1,.361603,
-.114279,.351604,
-.126604,.339279,
-.136603,.325,
-.143969,.309202,
-.148481,.292365,
-.15,.275,
-.15,-.275,
-.148481,-.292365,
-.143969,-.309202,
-.136603,-.325,
-.126604,-.339279,
-.114279,-.351604,
-.1,-.361603,
-.084202,-.368969,
-.067365,-.373481,
-.05,-.375,
.05,-.375,
.067365,-.373481,
.084202,-.368969,
.1,-.361603,
.114279,-.351604,
.126604,-.339279,
.136603,-.325,
.143969,-.309202,
.148481,-.292365,
.15,-.275,
.15,.275,
.148481,.292365,
.143969,.309202,
.136603,.325,
.126604,.339279,
.114279,.351604,
.1,.361603,
.084202,.368969,
.067365,.373481,
.05,.375,
0.0,.375,
0.0*
%
%ADD38MACRO38*%
%AMMACRO35*
4,1,45,0.0,.701,
-.312,.701,
-.361916,.696546,
-.410301,.683492,
-.455683,.662235,
-.496685,.63342,
-.53206,.597922,
-.560734,.556821,
-.581835,.511366,
-.594722,.462937,
-.599003,.413006,
-.599,.412,
-.599,-.412,
-.594893,-.461946,
-.582175,-.51042,
-.561233,-.555949,
-.532704,-.59715,
-.497453,-.632771,
-.456552,-.661729,
-.411244,-.683145,
-.362906,-.696368,
-.313006,-.700997,
-.312,-.701,
.312,-.701,
.361916,-.696546,
.410301,-.683492,
.455683,-.662235,
.496685,-.63342,
.53206,-.597922,
.560734,-.556821,
.581835,-.511366,
.594722,-.462937,
.599003,-.413006,
.599,-.412,
.599,.412,
.594893,.461946,
.582175,.51042,
.561233,.555949,
.532704,.59715,
.497453,.632771,
.456552,.661729,
.411244,.683145,
.362906,.696368,
.313006,.700997,
.312,.701,
0.0,.701,
0.0*
%
%ADD35MACRO35*%
%AMMACRO79*
4,1,45,-.574,0.0,
-.574,-.274,
-.57017,-.321783,
-.5581,-.368174,
-.538158,-.411765,
-.510949,-.451231,
-.477301,-.485372,
-.438235,-.513152,
-.394939,-.533726,
-.348728,-.546469,
-.301006,-.550995,
-.3,-.551,
.3,-.551,
.347738,-.54665,
.393995,-.534075,
.437367,-.51366,
.476534,-.486023,
.510307,-.452005,
.53766,-.412639,
.557761,-.369122,
.57,-.322775,
.574005,-.275006,
.574,-.274,
.574,.274,
.57017,.321783,
.5581,.368174,
.538158,.411765,
.510949,.451231,
.477301,.485372,
.438235,.513152,
.394939,.533726,
.348728,.546469,
.301006,.550995,
.3,.551,
-.3,.551,
-.347738,.54665,
-.393995,.534075,
-.437367,.51366,
-.476534,.486023,
-.510307,.452005,
-.53766,.412639,
-.557761,.369122,
-.57,.322775,
-.574005,.275006,
-.574,.274,
-.574,0.0,
0.0*
%
%ADD79MACRO79*%
%AMMACRO48*
4,1,45,0.0,.574,
-.274,.574,
-.321783,.57017,
-.368174,.5581,
-.411765,.538158,
-.451231,.510949,
-.485372,.477301,
-.513152,.438235,
-.533726,.394939,
-.546469,.348728,
-.550995,.301006,
-.551,.3,
-.551,-.3,
-.54665,-.347738,
-.534075,-.393995,
-.51366,-.437367,
-.486023,-.476534,
-.452005,-.510307,
-.412639,-.53766,
-.369122,-.557761,
-.322775,-.57,
-.275006,-.574005,
-.274,-.574,
.274,-.574,
.321783,-.57017,
.368174,-.5581,
.411765,-.538158,
.451231,-.510949,
.485372,-.477301,
.513152,-.438235,
.533726,-.394939,
.546469,-.348728,
.550995,-.301006,
.551,-.3,
.551,.3,
.54665,.347738,
.534075,.393995,
.51366,.437367,
.486023,.476534,
.452005,.510307,
.412639,.53766,
.369122,.557761,
.322775,.57,
.275006,.574005,
.274,.574,
0.0,.574,
0.0*
%
%ADD48MACRO48*%
%AMMACRO41*
4,1,44,0.0,-.75,
.112,-.75,
.140225,-.747618,
.167608,-.740371,
.193317,-.728479,
.21657,-.712304,
.236661,-.692336,
.252979,-.669183,
.265029,-.643548,
.272444,-.61621,
.275,-.588,
.275,.588,
.272444,.61621,
.265029,.643548,
.252979,.669183,
.236661,.692336,
.21657,.712304,
.193317,.728479,
.167608,.740371,
.140225,.747618,
.112,.75,
.112,.75,
-.112,.75,
-.140225,.747618,
-.167608,.740371,
-.193317,.728479,
-.21657,.712304,
-.236661,.692336,
-.252979,.669183,
-.265029,.643548,
-.272444,.61621,
-.275,.588,
-.275,.588,
-.275,-.588,
-.272444,-.61621,
-.265029,-.643548,
-.252979,-.669183,
-.236661,-.692336,
-.21657,-.712304,
-.193317,-.728479,
-.167608,-.740371,
-.140225,-.747618,
-.112,-.75,
-.112,-.75,
0.0,-.75,
0.0*
%
%ADD41MACRO41*%
%AMMACRO61*
4,1,41,0.0,.325,
-.1,.325,
-.130388,.322341,
-.159854,.314446,
-.1875,.301554,
-.212488,.284058,
-.234058,.262488,
-.251554,.2375,
-.264446,.209854,
-.272341,.180388,
-.275,.15,
-.275,-.15,
-.272341,-.180388,
-.264446,-.209854,
-.251554,-.2375,
-.234058,-.262488,
-.212488,-.284058,
-.1875,-.301554,
-.159854,-.314446,
-.130388,-.322341,
-.1,-.325,
.1,-.325,
.130388,-.322341,
.159854,-.314446,
.1875,-.301554,
.212488,-.284058,
.234058,-.262488,
.251554,-.2375,
.264446,-.209854,
.272341,-.180388,
.275,-.15,
.275,.15,
.272341,.180388,
.264446,.209854,
.251554,.2375,
.234058,.262488,
.212488,.284058,
.1875,.301554,
.159854,.314446,
.130388,.322341,
.1,.325,
0.0,.325,
0.0*
%
%ADD61MACRO61*%
%AMMACRO72*
4,1,41,.526,0.0,
.526,.226,
.522345,.265108,
.511955,.302987,
.495145,.338486,
.472426,.370527,
.444488,.398137,
.412181,.420475,
.376485,.436864,
.338486,.446805,
.3,.45,
-.3,.45,
-.339139,.446693,
-.377109,.43664,
-.412756,.420146,
-.444998,.397713,
-.472854,.370022,
-.495479,.337914,
-.512184,.302365,
-.522463,.264456,
-.526,.226,
-.526,-.226,
-.522345,-.265108,
-.511955,-.302987,
-.495145,-.338486,
-.472426,-.370527,
-.444488,-.398137,
-.412181,-.420475,
-.376485,-.436864,
-.338486,-.446805,
-.3,-.45,
.3,-.45,
.339139,-.446693,
.377109,-.43664,
.412756,-.420146,
.444998,-.397713,
.472854,-.370022,
.495479,-.337914,
.512184,-.302365,
.522463,-.264456,
.526,-.226,
.526,0.0,
0.0*
%
%ADD72MACRO72*%
%AMMACRO27*
4,1,41,0.0,.775,
-.356,.775,
-.411422,.770312,
-.465188,.756071,
-.515664,.73271,
-.561317,.700939,
-.600759,.661724,
-.632792,.616254,
-.656443,.565914,
-.670993,.51223,
-.676,.457,
-.676,-.457,
-.670965,-.512391,
-.656387,-.566067,
-.63271,-.616396,
-.600654,-.661849,
-.561191,-.701044,
-.515522,-.732792,
-.465034,-.756127,
-.411261,-.77034,
-.356,-.775,
.356,-.775,
.411422,-.770312,
.465188,-.756071,
.515664,-.73271,
.561317,-.700939,
.600759,-.661724,
.632792,-.616254,
.656443,-.565914,
.670993,-.51223,
.676,-.457,
.676,.457,
.670965,.512391,
.656387,.566067,
.63271,.616396,
.600654,.661849,
.561191,.701044,
.515522,.732792,
.465034,.756127,
.411261,.77034,
.356,.775,
0.0,.775,
0.0*
%
%ADD27MACRO27*%
%AMMACRO34*
4,1,45,-.238,.238,
-.316,.161,
-.339938,.13213,
-.358736,.099709,
-.371619,.064516,
-.378196,.02762,
-.378265,-.009857,
-.371825,-.046776,
-.359073,-.082017,
-.340394,-.114507,
-.316358,-.143261,
-.316,-.144,
-.144,-.316,
-.115142,-.33995,
-.082719,-.358745,
-.047525,-.371625,
-.010629,-.378197,
.026848,-.378263,
.063767,-.37182,
.099006,-.359064,
.131495,-.340383,
.160246,-.316343,
.161,-.316,
.316,-.161,
.339938,-.13213,
.358736,-.099709,
.371619,-.064516,
.378196,-.02762,
.378265,.009857,
.371825,.046776,
.359073,.082017,
.340394,.114507,
.316358,.143261,
.316,.144,
.144,.316,
.115142,.33995,
.082719,.358745,
.047525,.371625,
.010629,.378197,
-.026848,.378263,
-.063767,.37182,
-.099006,.359064,
-.131495,.340383,
-.160246,.316343,
-.161,.316,
-.238,.238,
0.0*
%
%ADD34MACRO34*%
%AMMACRO26*
4,1,41,0.0,.337,
-.11,.337,
-.147334,.333734,
-.183534,.324034,
-.2175,.308195,
-.248199,.2867,
-.2747,.260199,
-.296195,.2295,
-.312034,.195534,
-.321734,.159334,
-.325,.122,
-.325,-.122,
-.321734,-.159334,
-.312034,-.195534,
-.296195,-.2295,
-.2747,-.260199,
-.248199,-.2867,
-.2175,-.308195,
-.183534,-.324034,
-.147334,-.333734,
-.11,-.337,
.11,-.337,
.147334,-.333734,
.183534,-.324034,
.2175,-.308195,
.248199,-.2867,
.2747,-.260199,
.296195,-.2295,
.312034,-.195534,
.321734,-.159334,
.325,-.122,
.325,.122,
.321734,.159334,
.312034,.195534,
.296195,.2295,
.2747,.260199,
.248199,.2867,
.2175,.308195,
.183534,.324034,
.147334,.333734,
.11,.337,
0.0,.337,
0.0*
%
%ADD26MACRO26*%
%AMMACRO21*
4,1,41,-.337,0.0,
-.337,-.11,
-.333734,-.147334,
-.324034,-.183534,
-.308195,-.2175,
-.2867,-.248199,
-.260199,-.2747,
-.2295,-.296195,
-.195534,-.312034,
-.159334,-.321734,
-.122,-.325,
.122,-.325,
.159334,-.321734,
.195534,-.312034,
.2295,-.296195,
.260199,-.2747,
.2867,-.248199,
.308195,-.2175,
.324034,-.183534,
.333734,-.147334,
.337,-.11,
.337,.11,
.333734,.147334,
.324034,.183534,
.308195,.2175,
.2867,.248199,
.260199,.2747,
.2295,.296195,
.195534,.312034,
.159334,.321734,
.122,.325,
-.122,.325,
-.159334,.321734,
-.195534,.312034,
-.2295,.296195,
-.260199,.2747,
-.2867,.248199,
-.308195,.2175,
-.324034,.183534,
-.333734,.147334,
-.337,.11,
-.337,0.0,
0.0*
%
%ADD21MACRO21*%
%AMMACRO15*
4,1,45,.238,.238,
.161,.316,
.13213,.339938,
.099709,.358736,
.064516,.371619,
.02762,.378196,
-.009857,.378265,
-.046776,.371825,
-.082017,.359073,
-.114507,.340394,
-.143261,.316358,
-.144,.316,
-.316,.144,
-.33995,.115142,
-.358745,.082719,
-.371625,.047525,
-.378197,.010629,
-.378263,-.026848,
-.37182,-.063767,
-.359064,-.099006,
-.340383,-.131495,
-.316343,-.160246,
-.316,-.161,
-.161,-.316,
-.13213,-.339938,
-.099709,-.358736,
-.064516,-.371619,
-.02762,-.378196,
.009857,-.378265,
.046776,-.371825,
.082017,-.359073,
.114507,-.340394,
.143261,-.316358,
.144,-.316,
.316,-.144,
.33995,-.115142,
.358745,-.082719,
.371625,-.047525,
.378197,-.010629,
.378263,.026848,
.37182,.063767,
.359064,.099006,
.340383,.131495,
.316343,.160246,
.316,.161,
.238,.238,
0.0*
%
%ADD15MACRO15*%
%AMMACRO14*
4,1,45,-.238,-.238,
-.161,-.316,
-.13213,-.339938,
-.099709,-.358736,
-.064516,-.371619,
-.02762,-.378196,
.009857,-.378265,
.046776,-.371825,
.082017,-.359073,
.114507,-.340394,
.143261,-.316358,
.144,-.316,
.316,-.144,
.33995,-.115142,
.358745,-.082719,
.371625,-.047525,
.378197,-.010629,
.378263,.026848,
.37182,.063767,
.359064,.099006,
.340383,.131495,
.316343,.160246,
.316,.161,
.161,.316,
.13213,.339938,
.099709,.358736,
.064516,.371619,
.02762,.378196,
-.009857,.378265,
-.046776,.371825,
-.082017,.359073,
-.114507,.340394,
-.143261,.316358,
-.144,.316,
-.316,.144,
-.33995,.115142,
-.358745,.082719,
-.371625,.047525,
-.378197,.010629,
-.378263,-.026848,
-.37182,-.063767,
-.359064,-.099006,
-.340383,-.131495,
-.316343,-.160246,
-.316,-.161,
-.238,-.238,
0.0*
%
%ADD14MACRO14*%
%AMMACRO42*
4,1,41,-.425,0.0,
-.425,-.1,
-.423481,-.117365,
-.418969,-.134202,
-.411603,-.15,
-.401604,-.164279,
-.389279,-.176604,
-.375,-.186603,
-.359202,-.193969,
-.342365,-.198481,
-.325,-.2,
.325,-.2,
.342365,-.198481,
.359202,-.193969,
.375,-.186603,
.389279,-.176604,
.401604,-.164279,
.411603,-.15,
.418969,-.134202,
.423481,-.117365,
.425,-.1,
.425,.1,
.423481,.117365,
.418969,.134202,
.411603,.15,
.401604,.164279,
.389279,.176604,
.375,.186603,
.359202,.193969,
.342365,.198481,
.325,.2,
-.325,.2,
-.342365,.198481,
-.359202,.193969,
-.375,.186603,
-.389279,.176604,
-.401604,.164279,
-.411603,.15,
-.418969,.134202,
-.423481,.117365,
-.425,.1,
-.425,0.0,
0.0*
%
%ADD42MACRO42*%
%AMMACRO22*
4,1,41,-.45,0.0,
-.45,-.244,
-.446797,-.279833,
-.43742,-.314566,
-.422154,-.347143,
-.401463,-.376574,
-.375976,-.401965,
-.346467,-.422544,
-.313833,-.437687,
-.279065,-.446932,
-.244,-.45,
.244,-.45,
.279833,-.446797,
.314566,-.43742,
.347143,-.422154,
.376574,-.401463,
.401965,-.375976,
.422544,-.346467,
.437687,-.313833,
.446932,-.279065,
.45,-.244,
.45,.244,
.446797,.279833,
.43742,.314566,
.422154,.347143,
.401463,.376574,
.375976,.401965,
.346467,.422544,
.313833,.437687,
.279065,.446932,
.244,.45,
-.244,.45,
-.279833,.446797,
-.314566,.43742,
-.347143,.422154,
-.376574,.401463,
-.401965,.375976,
-.422544,.346467,
-.437687,.313833,
-.446932,.279065,
-.45,.244,
-.45,0.0,
0.0*
%
%ADD22MACRO22*%
%AMMACRO71*
4,1,45,0.0,.4,
-.206,.4,
-.235307,.39748,
-.263731,.389909,
-.290408,.377517,
-.314529,.360681,
-.335359,.339912,
-.352267,.315842,
-.364738,.289201,
-.372393,.260799,
-.375,.2315,
-.375,.231,
-.375,-.231,
-.37248,-.260307,
-.364909,-.288731,
-.352517,-.315408,
-.335681,-.339529,
-.314912,-.360359,
-.290842,-.377267,
-.264201,-.389738,
-.235799,-.397393,
-.2065,-.4,
-.206,-.4,
.206,-.4,
.235307,-.39748,
.263731,-.389909,
.290408,-.377517,
.314529,-.360681,
.335359,-.339912,
.352267,-.315842,
.364738,-.289201,
.372393,-.260799,
.375,-.2315,
.375,-.231,
.375,.231,
.37248,.260307,
.364909,.288731,
.352517,.315408,
.335681,.339529,
.314912,.360359,
.290842,.377267,
.264201,.389738,
.235799,.397393,
.2065,.4,
.206,.4,
0.0,.4,
0.0*
%
%ADD71MACRO71*%
%AMMACRO62*
4,1,41,-.283,-.283,
-.137,-.429,
-.114284,-.44772,
-.088791,-.462394,
-.061136,-.472417,
-.032161,-.477487,
-.002746,-.477448,
.026215,-.472301,
.053843,-.462204,
.079298,-.447462,
.102,-.429,
.429,-.102,
.447576,-.079135,
.462288,-.053663,
.472353,-.026023,
.477465,.002944,
.47747,.032359,
.472366,.061328,
.46231,.088971,
.447606,.114447,
.429,.137,
.137,.429,
.114284,.44772,
.088791,.462394,
.061136,.472417,
.032161,.477487,
.002746,.477448,
-.026215,.472301,
-.053843,.462204,
-.079298,.447462,
-.102,.429,
-.429,.102,
-.447576,.079135,
-.462288,.053663,
-.472353,.026023,
-.477465,-.002944,
-.47747,-.032359,
-.472366,-.061328,
-.46231,-.088971,
-.447606,-.114447,
-.429,-.137,
-.283,-.283,
0.0*
%
%ADD62MACRO62*%
%ADD31O,1.55X2.25*%
%ADD43R,1.8X2.65*%
%ADD11C,.55*%
%AMMACRO77*
4,1,22,.2,.45,
-.2,.45,
-.2,-.35,
-.198481,-.367365,
-.193969,-.384202,
-.186603,-.4,
-.176604,-.414279,
-.164279,-.426604,
-.15,-.436603,
-.134202,-.443969,
-.117365,-.448481,
-.1,-.45,
.1,-.45,
.117365,-.448481,
.134202,-.443969,
.15,-.436603,
.164279,-.426604,
.176604,-.414279,
.186603,-.4,
.193969,-.384202,
.198481,-.367365,
.2,-.35,
.2,.45,
0.0*
%
%ADD77MACRO77*%
%AMMACRO74*
4,1,22,-.45,.2,
-.45,-.2,
.35,-.2,
.367365,-.198481,
.384202,-.193969,
.4,-.186603,
.414279,-.176604,
.426604,-.164279,
.436603,-.15,
.443969,-.134202,
.448481,-.117365,
.45,-.1,
.45,.1,
.448481,.117365,
.443969,.134202,
.436603,.15,
.426604,.164279,
.414279,.176604,
.4,.186603,
.384202,.193969,
.367365,.198481,
.35,.2,
-.45,.2,
0.0*
%
%ADD74MACRO74*%
%AMMACRO52*
4,1,41,0.0,-.2,
.075,-.2,
.088024,-.198861,
.100652,-.195477,
.1125,-.189952,
.123209,-.182453,
.132453,-.173209,
.139952,-.1625,
.145477,-.150652,
.148861,-.138024,
.15,-.125,
.15,.125,
.148861,.138024,
.145477,.150652,
.139952,.1625,
.132453,.173209,
.123209,.182453,
.1125,.189952,
.100652,.195477,
.088024,.198861,
.075,.2,
-.075,.2,
-.088024,.198861,
-.100652,.195477,
-.1125,.189952,
-.123209,.182453,
-.132453,.173209,
-.139952,.1625,
-.145477,.150652,
-.148861,.138024,
-.15,.125,
-.15,-.125,
-.148861,-.138024,
-.145477,-.150652,
-.139952,-.1625,
-.132453,-.173209,
-.123209,-.182453,
-.1125,-.189952,
-.100652,-.195477,
-.088024,-.198861,
-.075,-.2,
0.0,-.2,
0.0*
%
%ADD52MACRO52*%
%AMMACRO68*
4,1,45,0.0,.525,
-.187,.525,
-.23259,.521099,
-.27681,.50934,
-.318317,.490082,
-.355849,.463908,
-.388265,.431615,
-.414582,.394183,
-.433998,.35275,
-.445925,.308575,
-.45,.263,
-.45,.262,
-.45,-.262,
-.446099,-.30759,
-.43434,-.35181,
-.415082,-.393317,
-.388908,-.430849,
-.356615,-.463265,
-.319183,-.489582,
-.27775,-.508998,
-.233575,-.520925,
-.188,-.525,
-.187,-.525,
.187,-.525,
.23259,-.521099,
.27681,-.50934,
.318317,-.490082,
.355849,-.463908,
.388265,-.431615,
.414582,-.394183,
.433998,-.35275,
.445925,-.308575,
.45,-.263,
.45,-.262,
.45,.262,
.446099,.30759,
.43434,.35181,
.415082,.393317,
.388908,.430849,
.356615,.463265,
.319183,.489582,
.27775,.508998,
.233575,.520925,
.188,.525,
.187,.525,
0.0,.525,
0.0*
%
%ADD68MACRO68*%
%AMMACRO80*
4,1,41,.725,0.0,
.725,.225,
.720442,.277094,
.706908,.327606,
.684808,.375,
.654813,.417836,
.617836,.454813,
.575,.484808,
.527606,.506908,
.477094,.520442,
.425,.525,
-.425,.525,
-.477094,.520442,
-.527606,.506908,
-.575,.484808,
-.617836,.454813,
-.654813,.417836,
-.684808,.375,
-.706908,.327606,
-.720442,.277094,
-.725,.225,
-.725,-.225,
-.720442,-.277094,
-.706908,-.327606,
-.684808,-.375,
-.654813,-.417836,
-.617836,-.454813,
-.575,-.484808,
-.527606,-.506908,
-.477094,-.520442,
-.425,-.525,
.425,-.525,
.477094,-.520442,
.527606,-.506908,
.575,-.484808,
.617836,-.454813,
.654813,-.417836,
.684808,-.375,
.706908,-.327606,
.720442,-.277094,
.725,-.225,
.725,0.0,
0.0*
%
%ADD80MACRO80*%
%AMMACRO28*
4,1,43,0.0,-1.1,
.362,-1.1,
.433637,-1.09382,
.503113,-1.075294,
.568317,-1.044985,
.627267,-1.003815,
.678172,-.953033,
.719485,-.894183,
.749952,-.829053,
.768646,-.759622,
.775,-.688,
.775,.688,
.768646,.759622,
.749952,.829053,
.719485,.894183,
.678172,.953033,
.627267,1.003815,
.568317,1.044985,
.503113,1.075294,
.433637,1.09382,
.362,1.1,
-.362,1.1,
-.433637,1.09382,
-.503113,1.075294,
-.568317,1.044985,
-.627267,1.003815,
-.678172,.953033,
-.719485,.894183,
-.749952,.829053,
-.768646,.759622,
-.775,.688,
-.775,.688,
-.775,-.688,
-.768646,-.759622,
-.749952,-.829053,
-.719485,-.894183,
-.678172,-.953033,
-.627267,-1.003815,
-.568317,-1.044985,
-.503113,-1.075294,
-.433637,-1.09382,
-.362,-1.1,
0.0,-1.1,
0.0*
%
%ADD28MACRO28*%
%AMMACRO54*
4,1,41,.225,0.0,
.225,.05,
.223481,.067365,
.218969,.084202,
.211603,.1,
.201604,.114279,
.189279,.126604,
.175,.136603,
.159202,.143969,
.142365,.148481,
.125,.15,
-.125,.15,
-.142365,.148481,
-.159202,.143969,
-.175,.136603,
-.189279,.126604,
-.201604,.114279,
-.211603,.1,
-.218969,.084202,
-.223481,.067365,
-.225,.05,
-.225,-.05,
-.223481,-.067365,
-.218969,-.084202,
-.211603,-.1,
-.201604,-.114279,
-.189279,-.126604,
-.175,-.136603,
-.159202,-.143969,
-.142365,-.148481,
-.125,-.15,
.125,-.15,
.142365,-.148481,
.159202,-.143969,
.175,-.136603,
.189279,-.126604,
.201604,-.114279,
.211603,-.1,
.218969,-.084202,
.223481,-.067365,
.225,-.05,
.225,0.0,
0.0*
%
%ADD54MACRO54*%
%AMMACRO55*
4,1,41,0.0,-.225,
.05,-.225,
.067365,-.223481,
.084202,-.218969,
.1,-.211603,
.114279,-.201604,
.126604,-.189279,
.136603,-.175,
.143969,-.159202,
.148481,-.142365,
.15,-.125,
.15,.125,
.148481,.142365,
.143969,.159202,
.136603,.175,
.126604,.189279,
.114279,.201604,
.1,.211603,
.084202,.218969,
.067365,.223481,
.05,.225,
-.05,.225,
-.067365,.223481,
-.084202,.218969,
-.1,.211603,
-.114279,.201604,
-.126604,.189279,
-.136603,.175,
-.143969,.159202,
-.148481,.142365,
-.15,.125,
-.15,-.125,
-.148481,-.142365,
-.143969,-.159202,
-.136603,-.175,
-.126604,-.189279,
-.114279,-.201604,
-.1,-.211603,
-.084202,-.218969,
-.067365,-.223481,
-.05,-.225,
0.0,-.225,
0.0*
%
%ADD55MACRO55*%
%AMMACRO44*
4,1,41,0.0,-1.025,
.35,-1.025,
.4238,-1.018543,
.495359,-.999369,
.5625,-.968061,
.623185,-.925569,
.675569,-.873185,
.718061,-.8125,
.749369,-.745359,
.768543,-.6738,
.775,-.6,
.775,.6,
.768543,.6738,
.749369,.745359,
.718061,.8125,
.675569,.873185,
.623185,.925569,
.5625,.968061,
.495359,.999369,
.4238,1.018543,
.35,1.025,
-.35,1.025,
-.4238,1.018543,
-.495359,.999369,
-.5625,.968061,
-.623185,.925569,
-.675569,.873185,
-.718061,.8125,
-.749369,.745359,
-.768543,.6738,
-.775,.6,
-.775,-.6,
-.768543,-.6738,
-.749369,-.745359,
-.718061,-.8125,
-.675569,-.873185,
-.623185,-.925569,
-.5625,-.968061,
-.495359,-.999369,
-.4238,-1.018543,
-.35,-1.025,
0.0,-1.025,
0.0*
%
%ADD44MACRO44*%
%AMMACRO19*
4,1,41,0.0,-.775,
.288,-.775,
.337916,-.770545,
.386301,-.757491,
.431683,-.736232,
.472684,-.707416,
.508059,-.671918,
.536732,-.630817,
.557833,-.585361,
.570719,-.536931,
.575,-.488,
.575,.488,
.570545,.537916,
.557491,.586301,
.536232,.631683,
.507416,.672684,
.471918,.708059,
.430817,.736732,
.385361,.757833,
.336931,.770719,
.288,.775,
-.288,.775,
-.337916,.770545,
-.386301,.757491,
-.431683,.736232,
-.472684,.707416,
-.508059,.671918,
-.536732,.630817,
-.557833,.585361,
-.570719,.536931,
-.575,.488,
-.575,-.488,
-.570545,-.537916,
-.557491,-.586301,
-.536232,-.631683,
-.507416,-.672684,
-.471918,-.708059,
-.430817,-.736732,
-.385361,-.757833,
-.336931,-.770719,
-.288,-.775,
0.0,-.775,
0.0*
%
%ADD19MACRO19*%
%AMMACRO57*
4,1,15,.925,.375,
.925,-.375,
-.925,-.375,
-.925,.375,
-.458,.375,
-.377235,.301926,
-.285008,.243988,
-.184121,.202944,
-.07764,.180043,
.031201,.17598,
.139093,.190879,
.242759,.224287,
.339049,.275188,
.425037,.342037,
.458,.375,
.925,.375,
0.0*
%
%ADD57MACRO57*%
%AMMACRO50*
4,1,41,0.0,-.275,
.075,-.275,
.096706,-.273101,
.117753,-.267462,
.1375,-.258253,
.155348,-.245756,
.170756,-.230348,
.183253,-.2125,
.192462,-.192753,
.198101,-.171706,
.2,-.15,
.2,.15,
.198101,.171706,
.192462,.192753,
.183253,.2125,
.170756,.230348,
.155348,.245756,
.1375,.258253,
.117753,.267462,
.096706,.273101,
.075,.275,
-.075,.275,
-.096706,.273101,
-.117753,.267462,
-.1375,.258253,
-.155348,.245756,
-.170756,.230348,
-.183253,.2125,
-.192462,.192753,
-.198101,.171706,
-.2,.15,
-.2,-.15,
-.198101,-.171706,
-.192462,-.192753,
-.183253,-.2125,
-.170756,-.230348,
-.155348,-.245756,
-.1375,-.258253,
-.117753,-.267462,
-.096706,-.273101,
-.075,-.275,
0.0,-.275,
0.0*
%
%ADD50MACRO50*%
%AMMACRO39*
4,1,41,.375,0.0,
.375,.05,
.373481,.067365,
.368969,.084202,
.361603,.1,
.351604,.114279,
.339279,.126604,
.325,.136603,
.309202,.143969,
.292365,.148481,
.275,.15,
-.275,.15,
-.292365,.148481,
-.309202,.143969,
-.325,.136603,
-.339279,.126604,
-.351604,.114279,
-.361603,.1,
-.368969,.084202,
-.373481,.067365,
-.375,.05,
-.375,-.05,
-.373481,-.067365,
-.368969,-.084202,
-.361603,-.1,
-.351604,-.114279,
-.339279,-.126604,
-.325,-.136603,
-.309202,-.143969,
-.292365,-.148481,
-.275,-.15,
.275,-.15,
.292365,-.148481,
.309202,-.143969,
.325,-.136603,
.339279,-.126604,
.351604,-.114279,
.361603,-.1,
.368969,-.084202,
.373481,-.067365,
.375,-.05,
.375,0.0,
0.0*
%
%ADD39MACRO39*%
%AMMACRO64*
4,1,44,.749,.274,
.749,-.274,
.74517,-.321783,
.7331,-.368174,
.713158,-.411765,
.68595,-.451231,
.652301,-.485372,
.613236,-.513152,
.56994,-.533726,
.523729,-.546469,
.476007,-.550995,
.475,-.551,
-.475,-.551,
-.522738,-.54665,
-.568995,-.534076,
-.612366,-.51366,
-.651534,-.486024,
-.685307,-.452006,
-.712659,-.41264,
-.732761,-.369122,
-.745,-.322775,
-.749005,-.275007,
-.749,-.274,
-.749,.274,
-.74517,.321783,
-.7331,.368174,
-.713158,.411765,
-.68595,.451231,
-.652301,.485372,
-.613236,.513152,
-.56994,.533726,
-.523729,.546469,
-.476007,.550995,
-.475,.551,
.475,.551,
.522738,.54665,
.568995,.534076,
.612366,.51366,
.651534,.486024,
.685307,.452006,
.712659,.41264,
.732761,.369122,
.745,.322775,
.749005,.275007,
.749,.274,
0.0*
%
%ADD64MACRO64*%
%AMMACRO59*
4,1,15,.375,-.925,
-.375,-.925,
-.375,.925,
.375,.925,
.375,.458,
.301926,.377235,
.243988,.285008,
.202944,.184121,
.180043,.07764,
.17598,-.031201,
.190879,-.139093,
.224287,-.242759,
.275188,-.339049,
.342037,-.425037,
.375,-.458,
.375,-.925,
0.0*
%
%ADD59MACRO59*%
%AMMACRO78*
4,1,45,.574,0.0,
.574,.274,
.57017,.321783,
.5581,.368174,
.538158,.411765,
.510949,.451231,
.477301,.485372,
.438235,.513152,
.394939,.533726,
.348728,.546469,
.301006,.550995,
.3,.551,
-.3,.551,
-.347738,.54665,
-.393995,.534075,
-.437367,.51366,
-.476534,.486023,
-.510307,.452005,
-.53766,.412639,
-.557761,.369122,
-.57,.322775,
-.574005,.275006,
-.574,.274,
-.574,-.274,
-.57017,-.321783,
-.5581,-.368174,
-.538158,-.411765,
-.510949,-.451231,
-.477301,-.485372,
-.438235,-.513152,
-.394939,-.533726,
-.348728,-.546469,
-.301006,-.550995,
-.3,-.551,
.3,-.551,
.347738,-.54665,
.393995,-.534075,
.437367,-.51366,
.476534,-.486023,
.510307,-.452005,
.53766,-.412639,
.557761,-.369122,
.57,-.322775,
.574005,-.275006,
.574,-.274,
.574,0.0,
0.0*
%
%ADD78MACRO78*%
%ADD65O,.899X.399*%
%AMMACRO58*
4,1,41,.325,0.0,
.325,.1,
.322341,.130388,
.314446,.159854,
.301554,.1875,
.284058,.212488,
.262488,.234058,
.2375,.251554,
.209854,.264446,
.180388,.272341,
.15,.275,
-.15,.275,
-.180388,.272341,
-.209854,.264446,
-.2375,.251554,
-.262488,.234058,
-.284058,.212488,
-.301554,.1875,
-.314446,.159854,
-.322341,.130388,
-.325,.1,
-.325,-.1,
-.322341,-.130388,
-.314446,-.159854,
-.301554,-.1875,
-.284058,-.212488,
-.262488,-.234058,
-.2375,-.251554,
-.209854,-.264446,
-.180388,-.272341,
-.15,-.275,
.15,-.275,
.180388,-.272341,
.209854,-.264446,
.2375,-.251554,
.262488,-.234058,
.284058,-.212488,
.301554,-.1875,
.314446,-.159854,
.322341,-.130388,
.325,-.1,
.325,0.0,
0.0*
%
%ADD58MACRO58*%
%ADD66O,.399X.899*%
%ADD82C,.099*%
G75*
%LPD*%
G75*
G36*
G01X2010000Y2551000D02*
X2005000Y2573000D01*
X2005010Y2601000D01*
X2095000D01*
Y2551000D01*
X2010000D01*
G37*
G54D10*
X2025000Y2025000D03*
X2333000Y2030000D03*
X2483000D03*
X2558000Y2025000D03*
G54D11*
X2076010Y2011800D03*
X2056010Y2061790D03*
Y2011800D03*
X2076010Y2061790D03*
X2236010D03*
X2096010Y2011800D03*
Y2061790D03*
X2116010Y2011800D03*
Y2061790D03*
X2136010Y2011800D03*
Y2061790D03*
X2156010Y2011800D03*
Y2061790D03*
X2176010Y2011800D03*
Y2061790D03*
X2196010Y2011800D03*
Y2061790D03*
X2216010Y2011800D03*
X2236010D03*
X2216010Y2061790D03*
X2256000Y2011800D03*
G54D20*
X2051000Y2487000D03*
X2043760Y2616000D03*
Y2625000D03*
X2013760Y2686000D03*
Y2695000D03*
X2069760Y2616000D03*
X2013760Y2704000D03*
X2069760Y2625000D03*
X2079000Y2850000D03*
X2247000Y2162000D03*
X2218000Y2253000D03*
X2241760Y2288000D03*
X2237760Y2320000D03*
X2236760Y2308000D03*
X2208000Y2588000D03*
X2099000Y2625000D03*
Y2616000D03*
X2155000Y2624000D03*
X2192000Y2809000D03*
X2209760Y2748000D03*
Y2784000D03*
X2211000Y2757000D03*
Y2766000D03*
X2209760Y2775000D03*
X2142760Y2809000D03*
Y2819000D03*
X2162000D03*
X2117000Y2829000D03*
X2122000Y2873000D03*
X2162000Y2809000D03*
X2174760Y2903000D03*
X2374760Y2221000D03*
X2391000Y2139000D03*
X2266000Y2162000D03*
X2368760Y2263000D03*
X2343000Y2345000D03*
X2342000Y2297000D03*
X2348000Y2587000D03*
X2423000Y2563000D03*
G54D21*
X2060240Y2487000D03*
X2053000Y2616000D03*
Y2625000D03*
X2023000Y2686000D03*
Y2695000D03*
X2079000Y2616000D03*
X2023000Y2704000D03*
X2079000Y2625000D03*
X2088240Y2850000D03*
X2227240Y2253000D03*
X2251000Y2288000D03*
X2247000Y2320000D03*
X2246000Y2308000D03*
X2217240Y2588000D03*
X2108240Y2625000D03*
Y2616000D03*
X2164240Y2624000D03*
X2201240Y2809000D03*
X2219000Y2748000D03*
Y2784000D03*
X2220240Y2757000D03*
Y2766000D03*
X2219000Y2775000D03*
X2152000Y2809000D03*
Y2819000D03*
X2171240D03*
X2126240Y2829000D03*
X2131240Y2873000D03*
X2171240Y2809000D03*
X2184000Y2903000D03*
X2384000Y2221000D03*
X2400240Y2139000D03*
X2275240Y2162000D03*
X2256240D03*
X2378000Y2263000D03*
X2352240Y2345000D03*
X2351240Y2297000D03*
X2357240Y2587000D03*
X2432240Y2563000D03*
G54D30*
X2025000Y2927000D03*
X2558000D03*
G54D12*
X2014000Y2191000D03*
X2566000Y2189000D03*
X2508000Y2926000D03*
G54D31*
X2074500Y2926500D03*
X2153500D03*
G54D22*
X2010000Y2651990D03*
Y2667000D03*
X2022000Y2651990D03*
Y2667000D03*
G54D13*
X2089230Y2216000D03*
Y2241400D03*
X2063830Y2216000D03*
Y2241400D03*
X2064000Y2165000D03*
Y2139600D03*
Y2114200D03*
X2089230Y2266800D03*
Y2292200D03*
Y2317600D03*
Y2343000D03*
Y2368400D03*
Y2393800D03*
Y2419200D03*
X2063830Y2266800D03*
Y2292200D03*
Y2317600D03*
Y2343000D03*
Y2368400D03*
Y2393800D03*
Y2419200D03*
X2089230Y2444600D03*
X2063830D03*
X2180400Y2240000D03*
X2155000D03*
X2180400Y2265400D03*
X2155000D03*
X2114630Y2546200D03*
X2140030D03*
X2165430D03*
X2190830D03*
X2216230D03*
X2241630D03*
X2114630Y2571600D03*
X2140030D03*
X2165430D03*
X2190830D03*
X2216230D03*
X2241630D03*
X2267030Y2546200D03*
X2292430D03*
X2317830D03*
X2343230D03*
X2368630D03*
X2267030Y2571600D03*
X2292430D03*
X2317830D03*
X2343230D03*
X2368630D03*
X2521230Y2216000D03*
Y2241400D03*
X2495830Y2216000D03*
Y2241400D03*
X2521000Y2165000D03*
Y2139600D03*
Y2114200D03*
X2521230Y2266800D03*
Y2292200D03*
Y2317600D03*
Y2343000D03*
Y2368400D03*
Y2393800D03*
Y2419200D03*
X2495830Y2266800D03*
Y2292200D03*
Y2317600D03*
Y2343000D03*
Y2368400D03*
Y2393800D03*
Y2419200D03*
X2521230Y2444600D03*
X2495830D03*
X2499000Y2546200D03*
Y2571600D03*
Y2597000D03*
G54D40*
X2113010Y2881890D03*
X2108000D03*
X2103000D03*
X2113010Y2876000D03*
X2108000D03*
X2103000D03*
G54D50*
X2387000Y2231000D03*
X2382000D03*
X2377000D03*
X2372000D03*
X2387000Y2255000D03*
X2382000D03*
X2377000D03*
X2372000D03*
G54D14*
X2040000Y2193000D03*
X2034000Y2199000D03*
X2202000Y2177000D03*
X2220000Y2195000D03*
X2246000Y2215000D03*
X2228530Y2170530D03*
X2239000Y2222000D03*
X2289300Y2234300D03*
X2368530Y2163530D03*
X2317000Y2201000D03*
X2355530Y2162530D03*
X2289530Y2221530D03*
X2343000Y2188000D03*
G54D41*
X2127000Y2900000D03*
X2120500D03*
X2114000D03*
X2107500D03*
X2101000D03*
G54D23*
X2037990Y2654010D03*
Y2658000D03*
Y2662010D03*
Y2666000D03*
Y2669990D03*
Y2674000D03*
Y2677990D03*
Y2682000D03*
Y2685990D03*
Y2690000D03*
Y2693990D03*
Y2698000D03*
Y2701990D03*
Y2706000D03*
Y2709990D03*
Y2714010D03*
Y2717990D03*
Y2722010D03*
Y2726000D03*
Y2730010D03*
Y2734000D03*
Y2738010D03*
Y2742000D03*
Y2746010D03*
Y2750000D03*
Y2754010D03*
Y2758000D03*
Y2762010D03*
Y2766000D03*
Y2769990D03*
Y2774000D03*
Y2777990D03*
X2191990Y2738010D03*
Y2734000D03*
Y2730010D03*
Y2726000D03*
Y2722010D03*
Y2717990D03*
Y2714010D03*
Y2709990D03*
Y2706000D03*
Y2701990D03*
Y2698000D03*
Y2693990D03*
Y2690000D03*
Y2685990D03*
Y2682000D03*
Y2677990D03*
Y2674000D03*
Y2669990D03*
Y2666000D03*
Y2662010D03*
Y2658000D03*
Y2654010D03*
Y2777990D03*
Y2774000D03*
Y2769990D03*
Y2766000D03*
Y2762010D03*
Y2758000D03*
Y2754010D03*
Y2750000D03*
Y2746010D03*
Y2742000D03*
G54D32*
X2117600Y2167280D03*
Y2152270D03*
X2142600Y2167280D03*
Y2152270D03*
G54D42*
X2147000Y2841500D03*
Y2848000D03*
Y2854500D03*
Y2861000D03*
X2117000Y2841500D03*
Y2848000D03*
Y2854500D03*
Y2861000D03*
G54D15*
X2033470Y2186470D03*
X2027470Y2192470D03*
X2195470Y2170470D03*
X2213470Y2188470D03*
X2239470Y2208470D03*
X2222000Y2164000D03*
X2232470Y2215470D03*
X2282770Y2227770D03*
X2362000Y2157000D03*
X2310470Y2194470D03*
X2349000Y2156000D03*
X2283000Y2215000D03*
X2336470Y2181470D03*
G54D60*
X2388000Y2192500D03*
G54D51*
X2256000Y2151000D03*
G54D24*
X2085000Y2639000D03*
X2080990D03*
X2077000D03*
X2072990D03*
X2069000D03*
X2064990D03*
X2061000D03*
X2056990D03*
X2053000D03*
Y2793000D03*
X2056990D03*
X2061000D03*
X2064990D03*
X2069000D03*
X2072990D03*
X2077000D03*
X2080990D03*
X2085000D03*
X2177000Y2639000D03*
X2172990D03*
X2169000D03*
X2164990D03*
X2161000D03*
X2156990D03*
X2153000D03*
X2149010D03*
X2145000D03*
X2141010D03*
X2137000D03*
X2133010D03*
X2129000D03*
X2125010D03*
X2121000D03*
X2117010D03*
X2113000D03*
X2109010D03*
X2104990D03*
X2101010D03*
X2096990D03*
X2093000D03*
X2088990D03*
Y2793000D03*
X2093000D03*
X2096990D03*
X2101010D03*
X2104990D03*
X2109010D03*
X2113000D03*
X2117010D03*
X2121000D03*
X2125010D03*
X2129000D03*
X2133010D03*
X2137000D03*
X2141010D03*
X2145000D03*
X2149010D03*
X2153000D03*
X2156990D03*
X2161000D03*
X2164990D03*
X2169000D03*
X2172990D03*
X2177000D03*
G54D33*
X2238000Y2235000D03*
X2222000Y2164000D03*
X2201470Y2189530D03*
X2226000Y2201000D03*
X2252470Y2221530D03*
X2245470Y2241530D03*
X2303000Y2222000D03*
X2361470Y2156530D03*
X2258470Y2228530D03*
G54D52*
X2273000Y2248750D03*
X2269000D03*
X2273000Y2238750D03*
X2269000D03*
G54D43*
X2132000Y2851250D03*
G54D34*
X2244530Y2228470D03*
X2228530Y2157470D03*
X2208000Y2183000D03*
X2232530Y2194470D03*
X2252000Y2235000D03*
X2309530Y2215470D03*
X2368000Y2150000D03*
X2259000Y2215000D03*
X2265000Y2222000D03*
G54D61*
X2380000Y2202000D03*
Y2183000D03*
G54D16*
X2030000Y2576000D03*
G54D70*
X2285800Y2274000D03*
X2276000D03*
G54D25*
X2089000Y2625000D03*
X2010000Y2642000D03*
X2022000D03*
X2023000Y2724240D03*
X2056000Y2821240D03*
X2038000Y2802000D03*
X2024000Y2760000D03*
X2047000Y2802240D03*
X2142600Y2188510D03*
X2117600D03*
X2238000Y2162000D03*
X2206000Y2164000D03*
X2227000Y2253240D03*
Y2262240D03*
X2249000Y2371240D03*
X2240000D03*
X2213000Y2683000D03*
X2217000Y2726000D03*
X2251000Y2611000D03*
Y2628240D03*
X2211000Y2611000D03*
Y2628240D03*
X2207000Y2726000D03*
X2157000Y2849000D03*
X2176000Y2849240D03*
X2157000Y2890240D03*
X2183000Y2818240D03*
X2102000Y2834240D03*
X2166000Y2849000D03*
X2366000Y2231000D03*
X2340000Y2240240D03*
X2342000Y2365240D03*
X2255000Y2265000D03*
X2276000D03*
X2266000D03*
X2287000D03*
X2340000Y2259000D03*
X2270000Y2386240D03*
X2364000Y2255000D03*
X2291000Y2611000D03*
Y2628240D03*
X2537000Y2478000D03*
X2469000Y2580240D03*
G54D44*
X2123380Y2926500D03*
X2104620D03*
G54D80*
X2547000Y2529750D03*
Y2487750D03*
G54D62*
X2330930Y2187070D03*
X2324000Y2194000D03*
X2349930Y2168070D03*
X2343000Y2175000D03*
X2302930Y2208070D03*
X2296000Y2215000D03*
G54D71*
X2256200Y2274000D03*
X2266000D03*
G54D26*
X2089000Y2615760D03*
X2010000Y2632760D03*
X2022000D03*
X2023000Y2715000D03*
X2056000Y2812000D03*
X2038000Y2792760D03*
X2024000Y2750760D03*
X2047000Y2793000D03*
X2227000Y2244000D03*
X2142600Y2179270D03*
X2117600D03*
X2238000Y2152760D03*
X2206000Y2154760D03*
X2227000Y2253000D03*
X2249000Y2362000D03*
X2240000D03*
X2213000Y2673760D03*
X2217000Y2716760D03*
X2251000Y2601760D03*
Y2619000D03*
X2211000Y2601760D03*
Y2619000D03*
X2207000Y2716760D03*
X2157000Y2839760D03*
X2176000Y2840000D03*
X2157000Y2881000D03*
X2183000Y2809000D03*
X2102000Y2825000D03*
X2166000Y2839760D03*
X2366000Y2221760D03*
X2340000Y2249760D03*
Y2231000D03*
X2364000Y2245760D03*
X2342000Y2356000D03*
X2255000Y2255760D03*
X2276000D03*
X2266000D03*
X2287000D03*
X2270000Y2377000D03*
X2291000Y2601760D03*
Y2619000D03*
X2537000Y2468760D03*
X2469000Y2571000D03*
G54D35*
X2202700Y2282000D03*
Y2304300D03*
X2220000D03*
Y2282000D03*
G54D53*
X2277750Y2243750D03*
G54D17*
X2026000Y2496710D03*
Y2519710D03*
X2192710Y2928000D03*
X2215710D03*
X2559000Y2520290D03*
Y2497290D03*
G54D54*
X2264250Y2243750D03*
G54D27*
X2073010Y2815000D03*
Y2837000D03*
X2090000D03*
Y2815000D03*
G54D72*
X2267000Y2449000D03*
Y2435000D03*
G54D81*
X2565000Y2542500D03*
Y2475000D03*
G54D18*
X2038000Y2487250D03*
Y2529250D03*
G54D45*
X2183250Y2916000D03*
X2225250D03*
G54D36*
X2121000Y2610000D03*
Y2616500D03*
Y2623000D03*
X2143000D03*
Y2610000D03*
G54D63*
X2303430Y2235430D03*
X2296500Y2228500D03*
G54D82*
G01X2014620Y2000000D02*
X2570380D01*
G03X2585000Y2014620I0J14620D01*
G01Y2445000D01*
G03X2574000Y2476500I-50602J0D01*
G02X2563000Y2508000I39602J31500D01*
G02X2574000Y2539500I50602J0D01*
G03X2585000Y2571000I-39602J31500D01*
G01Y2938380D01*
G03X2570380Y2953000I-14620J0D01*
G01X2158000D01*
Y2941000D01*
X2142000D01*
Y2920000D01*
X2133000D01*
Y2941000D01*
X2095000D01*
Y2920000D01*
X2086000D01*
Y2941000D01*
X2070000D01*
Y2953000D01*
X2014620D01*
G03X2000000Y2938380I0J-14620D01*
G01Y2571000D01*
G03X2011000Y2539500I50602J0D01*
G02X2022000Y2508000I-39602J-31500D01*
G02X2011000Y2476500I-50602J0D01*
G03X2000000Y2445000I39602J-31500D01*
G01Y2014620D01*
G03X2014620Y2000000I14620J0D01*
G54D64*
X2284000Y2395000D03*
Y2379000D03*
G54D19*
X2020000Y2474500D03*
Y2542000D03*
G54D55*
X2265000Y2248500D03*
X2277000D03*
Y2239000D03*
X2265000D03*
G54D28*
X2089380Y2903500D03*
X2138620D03*
G54D46*
X2170500Y2934000D03*
X2238000D03*
G54D37*
X2200000Y2607000D03*
X2240000D03*
X2280000D03*
G54D73*
X2406200Y2579000D03*
X2406000Y2541000D03*
Y2495000D03*
X2406200Y2625000D03*
X2418900Y2579000D03*
X2431600D03*
X2444300D03*
X2457000D03*
X2456800Y2541000D03*
X2444100D03*
X2431400D03*
X2418700D03*
X2456800Y2495000D03*
X2444100D03*
X2431400D03*
X2418700D03*
X2418900Y2625000D03*
X2431600D03*
X2444300D03*
X2457000D03*
G54D65*
X2261760Y2298240D03*
Y2303240D03*
Y2308250D03*
Y2313250D03*
Y2318250D03*
Y2323260D03*
Y2328260D03*
Y2333240D03*
Y2338240D03*
Y2343250D03*
Y2348250D03*
Y2353260D03*
X2331260D03*
Y2348250D03*
Y2343250D03*
Y2338240D03*
Y2333240D03*
Y2328260D03*
Y2323260D03*
Y2318250D03*
Y2313250D03*
Y2308250D03*
Y2303240D03*
Y2298240D03*
G54D74*
X2394500Y2515500D03*
X2394000Y2599000D03*
Y2604000D03*
Y2609000D03*
G54D38*
X2199100Y2600750D03*
X2195100D03*
X2191100D03*
X2187100D03*
Y2625250D03*
X2191100D03*
X2195100D03*
X2199100D03*
X2239100Y2600750D03*
X2235100D03*
X2231100D03*
X2227100D03*
Y2625250D03*
X2231100D03*
X2235100D03*
X2239100D03*
X2279100Y2600750D03*
X2275100D03*
X2271100D03*
X2267100D03*
Y2625250D03*
X2271100D03*
X2275100D03*
X2279100D03*
G54D56*
X2273500Y2196000D03*
G54D29*
X2037500Y2885500D03*
X2017200D03*
X2027350Y2809300D03*
G54D47*
X2325000Y2233000D03*
Y2257990D03*
G54D66*
X2269000Y2360490D03*
X2274000D03*
X2279010D03*
X2284010D03*
X2288990D03*
X2293990D03*
X2299000D03*
X2304000D03*
X2309000D03*
X2314010D03*
X2319010D03*
X2323990D03*
Y2291000D03*
X2319010D03*
X2314010D03*
X2309000D03*
X2304000D03*
X2299000D03*
X2293990D03*
X2288990D03*
X2284010D03*
X2279010D03*
X2274000D03*
X2269000D03*
G54D39*
X2184950Y2607000D03*
Y2611000D03*
Y2615000D03*
Y2619000D03*
X2201250D03*
Y2615000D03*
Y2611000D03*
X2224950Y2607000D03*
Y2611000D03*
Y2615000D03*
Y2619000D03*
X2241250D03*
Y2615000D03*
Y2611000D03*
X2264950Y2607000D03*
Y2611000D03*
Y2615000D03*
Y2619000D03*
X2281250D03*
Y2615000D03*
Y2611000D03*
G54D57*
X2273500Y2180000D03*
G54D48*
X2416000Y2216000D03*
Y2241000D03*
Y2267000D03*
Y2292000D03*
X2432000Y2216000D03*
Y2241000D03*
Y2267000D03*
Y2292000D03*
G54D75*
X2379500Y2515500D03*
X2379000Y2599000D03*
Y2604000D03*
Y2609000D03*
G54D58*
X2283000Y2188000D03*
X2264000D03*
G54D76*
X2392000Y2523000D03*
X2387000D03*
X2382000D03*
X2386500Y2611500D03*
G54D67*
X2296510Y2325750D03*
G54D49*
X2379500Y2243000D03*
G54D59*
X2372000Y2192500D03*
G54D68*
X2270000Y2408000D03*
X2284000D03*
G54D77*
X2392000Y2508000D03*
X2387000D03*
X2382000D03*
X2386500Y2596500D03*
G54D78*
X2439000Y2460000D03*
Y2444000D03*
G54D69*
X2259000Y2392000D03*
Y2378000D03*
G54D79*
X2423000Y2444000D03*
Y2460000D03*
M02*
