G04 ================== begin FILE IDENTIFICATION RECORD ==================*
G04 Layout Name:  LAUNCHXL-CC1350.brd*
G04 Film Name:    LAUNCHXL-CC1350_drill*
G04 File Format:  Gerber RS274X*
G04 File Origin:  Cadence Allegro 16.6-S019*
G04 Origin Date:  Tue Nov 22 14:35:08 2016*
G04 *
G04 Layer:  BOARD GEOMETRY/DIMENSION*
G04 Layer:  MANUFACTURING/XSECTION_CHART*
G04 Layer:  MANUFACTURING/NCLEGEND-1-4*
G04 Layer:  BOARD GEOMETRY/OUTLINE*
G04 *
G04 Offset:    (0.000 0.000)*
G04 Mirror:    No*
G04 Mode:      Positive*
G04 Rotation:  0*
G04 FullContactRelief:  No*
G04 UndefLineWidth:     0.099*
G04 ================== end FILE IDENTIFICATION RECORD ====================*
%FSLAX44Y44*MOMM*%
%IR0*IPPOS*OFA0.00000B0.00000*MIA0B0*SFA1.00000B1.00000*%
%AMMACRO18*
1,1,.099,-.3,-.35*
20,1,.099,-.3,-.35,-.3,.35,0.0*
1,1,.099,-.3,.35*
20,1,.099,-.3,.35,-.295442,.402094,0.0*
1,1,.099,-.295442,.402094*
20,1,.099,-.295442,.402094,-.281908,.452606,0.0*
1,1,.099,-.281908,.452606*
20,1,.099,-.281908,.452606,-.259808,.5,0.0*
1,1,.099,-.259808,.5*
20,1,.099,-.259808,.5,-.229813,.542836,0.0*
1,1,.099,-.229813,.542836*
20,1,.099,-.229813,.542836,-.192836,.579813,0.0*
1,1,.099,-.192836,.579813*
20,1,.099,-.192836,.579813,-.15,.609808,0.0*
1,1,.099,-.15,.609808*
20,1,.099,-.15,.609808,-.102606,.631908,0.0*
1,1,.099,-.102606,.631908*
20,1,.099,-.102606,.631908,-.052094,.645442,0.0*
1,1,.099,-.052094,.645442*
20,1,.099,-.052094,.645442,0.0,.65,0.0*
1,1,.099,0.0,.65*
20,1,.099,0.0,.65,.052094,.645442,0.0*
1,1,.099,.052094,.645442*
20,1,.099,.052094,.645442,.102606,.631908,0.0*
1,1,.099,.102606,.631908*
20,1,.099,.102606,.631908,.15,.609808,0.0*
1,1,.099,.15,.609808*
20,1,.099,.15,.609808,.192836,.579813,0.0*
1,1,.099,.192836,.579813*
20,1,.099,.192836,.579813,.229813,.542836,0.0*
1,1,.099,.229813,.542836*
20,1,.099,.229813,.542836,.259808,.5,0.0*
1,1,.099,.259808,.5*
20,1,.099,.259808,.5,.281908,.452606,0.0*
1,1,.099,.281908,.452606*
20,1,.099,.281908,.452606,.295442,.402094,0.0*
1,1,.099,.295442,.402094*
20,1,.099,.295442,.402094,.3,.35,0.0*
1,1,.099,.3,.35*
20,1,.099,.3,.35,.3,-.35,0.0*
1,1,.099,.3,-.35*
20,1,.099,.3,-.35,.295442,-.402094,0.0*
1,1,.099,.295442,-.402094*
20,1,.099,.295442,-.402094,.281908,-.452606,0.0*
1,1,.099,.281908,-.452606*
20,1,.099,.281908,-.452606,.259808,-.5,0.0*
1,1,.099,.259808,-.5*
20,1,.099,.259808,-.5,.229813,-.542836,0.0*
1,1,.099,.229813,-.542836*
20,1,.099,.229813,-.542836,.192836,-.579813,0.0*
1,1,.099,.192836,-.579813*
20,1,.099,.192836,-.579813,.15,-.609808,0.0*
1,1,.099,.15,-.609808*
20,1,.099,.15,-.609808,.102606,-.631908,0.0*
1,1,.099,.102606,-.631908*
20,1,.099,.102606,-.631908,.052094,-.645442,0.0*
1,1,.099,.052094,-.645442*
20,1,.099,.052094,-.645442,0.0,-.65,0.0*
1,1,.099,0.0,-.65*
20,1,.099,0.0,-.65,-.052094,-.645442,0.0*
1,1,.099,-.052094,-.645442*
20,1,.099,-.052094,-.645442,-.102606,-.631908,0.0*
1,1,.099,-.102606,-.631908*
20,1,.099,-.102606,-.631908,-.15,-.609808,0.0*
1,1,.099,-.15,-.609808*
20,1,.099,-.15,-.609808,-.192836,-.579813,0.0*
1,1,.099,-.192836,-.579813*
20,1,.099,-.192836,-.579813,-.229813,-.542836,0.0*
1,1,.099,-.229813,-.542836*
20,1,.099,-.229813,-.542836,-.259808,-.5,0.0*
1,1,.099,-.259808,-.5*
20,1,.099,-.259808,-.5,-.281908,-.452606,0.0*
1,1,.099,-.281908,-.452606*
20,1,.099,-.281908,-.452606,-.295442,-.402094,0.0*
1,1,.099,-.295442,-.402094*
20,1,.099,-.295442,-.402094,-.3,-.35,0.0*
1,1,.099,-.3,-.35*
%
%ADD18MACRO18*%
%AMMACRO17*
1,1,.099,0.0,.1005*
20,1,.099,0.0,.1005,.1005,-.1005,0.0*
1,1,.099,.1005,-.1005*
20,1,.099,.1005,-.1005,-.1005,-.1005,0.0*
1,1,.099,-.1005,-.1005*
20,1,.099,-.1005,-.1005,0.0,.1005,0.0*
1,1,.099,0.0,.1005*
1,1,.099,-.05,.05*
20,1,.099,-.05,.05,-.027,-.05,0.0*
1,1,.099,-.027,-.05*
20,1,.099,-.027,-.05,0.0,.05,0.0*
1,1,.099,0.0,.05*
20,1,.099,0.0,.05,.027,-.05,0.0*
1,1,.099,.027,-.05*
20,1,.099,.027,-.05,.05,.05,0.0*
1,1,.099,.05,.05*
%
%ADD17MACRO17*%
%AMMACRO14*
1,1,.099,.25,0.0*
20,1,.099,.25,0.0,.246202,-.043412,0.0*
1,1,.099,.246202,-.043412*
20,1,.099,.246202,-.043412,.234923,-.085505,0.0*
1,1,.099,.234923,-.085505*
20,1,.099,.234923,-.085505,.216506,-.125,0.0*
1,1,.099,.216506,-.125*
20,1,.099,.216506,-.125,.191511,-.160697,0.0*
1,1,.099,.191511,-.160697*
20,1,.099,.191511,-.160697,.160697,-.191511,0.0*
1,1,.099,.160697,-.191511*
20,1,.099,.160697,-.191511,.125,-.216506,0.0*
1,1,.099,.125,-.216506*
20,1,.099,.125,-.216506,.085505,-.234923,0.0*
1,1,.099,.085505,-.234923*
20,1,.099,.085505,-.234923,.043412,-.246202,0.0*
1,1,.099,.043412,-.246202*
20,1,.099,.043412,-.246202,0.0,-.25,0.0*
1,1,.099,0.0,-.25*
20,1,.099,0.0,-.25,-.043412,-.246202,0.0*
1,1,.099,-.043412,-.246202*
20,1,.099,-.043412,-.246202,-.085505,-.234923,0.0*
1,1,.099,-.085505,-.234923*
20,1,.099,-.085505,-.234923,-.125,-.216506,0.0*
1,1,.099,-.125,-.216506*
20,1,.099,-.125,-.216506,-.160697,-.191511,0.0*
1,1,.099,-.160697,-.191511*
20,1,.099,-.160697,-.191511,-.191511,-.160697,0.0*
1,1,.099,-.191511,-.160697*
20,1,.099,-.191511,-.160697,-.216506,-.125,0.0*
1,1,.099,-.216506,-.125*
20,1,.099,-.216506,-.125,-.234923,-.085505,0.0*
1,1,.099,-.234923,-.085505*
20,1,.099,-.234923,-.085505,-.246202,-.043412,0.0*
1,1,.099,-.246202,-.043412*
20,1,.099,-.246202,-.043412,-.25,0.0,0.0*
1,1,.099,-.25,0.0*
20,1,.099,-.25,0.0,-.246202,.043412,0.0*
1,1,.099,-.246202,.043412*
20,1,.099,-.246202,.043412,-.234923,.085505,0.0*
1,1,.099,-.234923,.085505*
20,1,.099,-.234923,.085505,-.216506,.125,0.0*
1,1,.099,-.216506,.125*
20,1,.099,-.216506,.125,-.191511,.160697,0.0*
1,1,.099,-.191511,.160697*
20,1,.099,-.191511,.160697,-.160697,.191511,0.0*
1,1,.099,-.160697,.191511*
20,1,.099,-.160697,.191511,-.125,.216506,0.0*
1,1,.099,-.125,.216506*
20,1,.099,-.125,.216506,-.085505,.234923,0.0*
1,1,.099,-.085505,.234923*
20,1,.099,-.085505,.234923,-.043412,.246202,0.0*
1,1,.099,-.043412,.246202*
20,1,.099,-.043412,.246202,0.0,.25,0.0*
1,1,.099,0.0,.25*
20,1,.099,0.0,.25,.043412,.246202,0.0*
1,1,.099,.043412,.246202*
20,1,.099,.043412,.246202,.085505,.234923,0.0*
1,1,.099,.085505,.234923*
20,1,.099,.085505,.234923,.125,.216506,0.0*
1,1,.099,.125,.216506*
20,1,.099,.125,.216506,.160697,.191511,0.0*
1,1,.099,.160697,.191511*
20,1,.099,.160697,.191511,.191511,.160697,0.0*
1,1,.099,.191511,.160697*
20,1,.099,.191511,.160697,.216506,.125,0.0*
1,1,.099,.216506,.125*
20,1,.099,.216506,.125,.234923,.085505,0.0*
1,1,.099,.234923,.085505*
20,1,.099,.234923,.085505,.246202,.043412,0.0*
1,1,.099,.246202,.043412*
20,1,.099,.246202,.043412,.25,0.0,0.0*
1,1,.099,.25,0.0*
1,1,.099,.125,0.0*
20,1,.099,.125,0.0,-.125,0.0,0.0*
1,1,.099,-.125,0.0*
1,1,.099,0.0,.125*
20,1,.099,0.0,.125,0.0,-.125,0.0*
1,1,.099,0.0,-.125*
%
%ADD14MACRO14*%
%AMMACRO19*
1,1,.099,.635,0.0*
20,1,.099,.635,0.0,.625353,-.110267,0.0*
1,1,.099,.625353,-.110267*
20,1,.099,.625353,-.110267,.596705,-.217183,0.0*
1,1,.099,.596705,-.217183*
20,1,.099,.596705,-.217183,.549926,-.3175,0.0*
1,1,.099,.549926,-.3175*
20,1,.099,.549926,-.3175,.486438,-.40817,0.0*
1,1,.099,.486438,-.40817*
20,1,.099,.486438,-.40817,.40817,-.486438,0.0*
1,1,.099,.40817,-.486438*
20,1,.099,.40817,-.486438,.3175,-.549926,0.0*
1,1,.099,.3175,-.549926*
20,1,.099,.3175,-.549926,.217183,-.596705,0.0*
1,1,.099,.217183,-.596705*
20,1,.099,.217183,-.596705,.110267,-.625353,0.0*
1,1,.099,.110267,-.625353*
20,1,.099,.110267,-.625353,0.0,-.635,0.0*
1,1,.099,0.0,-.635*
20,1,.099,0.0,-.635,-.110267,-.625353,0.0*
1,1,.099,-.110267,-.625353*
20,1,.099,-.110267,-.625353,-.217183,-.596705,0.0*
1,1,.099,-.217183,-.596705*
20,1,.099,-.217183,-.596705,-.3175,-.549926,0.0*
1,1,.099,-.3175,-.549926*
20,1,.099,-.3175,-.549926,-.40817,-.486438,0.0*
1,1,.099,-.40817,-.486438*
20,1,.099,-.40817,-.486438,-.486438,-.40817,0.0*
1,1,.099,-.486438,-.40817*
20,1,.099,-.486438,-.40817,-.549926,-.3175,0.0*
1,1,.099,-.549926,-.3175*
20,1,.099,-.549926,-.3175,-.596705,-.217183,0.0*
1,1,.099,-.596705,-.217183*
20,1,.099,-.596705,-.217183,-.625353,-.110267,0.0*
1,1,.099,-.625353,-.110267*
20,1,.099,-.625353,-.110267,-.635,0.0,0.0*
1,1,.099,-.635,0.0*
20,1,.099,-.635,0.0,-.625353,.110267,0.0*
1,1,.099,-.625353,.110267*
20,1,.099,-.625353,.110267,-.596705,.217183,0.0*
1,1,.099,-.596705,.217183*
20,1,.099,-.596705,.217183,-.549926,.3175,0.0*
1,1,.099,-.549926,.3175*
20,1,.099,-.549926,.3175,-.486438,.40817,0.0*
1,1,.099,-.486438,.40817*
20,1,.099,-.486438,.40817,-.40817,.486438,0.0*
1,1,.099,-.40817,.486438*
20,1,.099,-.40817,.486438,-.3175,.549926,0.0*
1,1,.099,-.3175,.549926*
20,1,.099,-.3175,.549926,-.217183,.596705,0.0*
1,1,.099,-.217183,.596705*
20,1,.099,-.217183,.596705,-.110267,.625353,0.0*
1,1,.099,-.110267,.625353*
20,1,.099,-.110267,.625353,0.0,.635,0.0*
1,1,.099,0.0,.635*
20,1,.099,0.0,.635,.110267,.625353,0.0*
1,1,.099,.110267,.625353*
20,1,.099,.110267,.625353,.217183,.596705,0.0*
1,1,.099,.217183,.596705*
20,1,.099,.217183,.596705,.3175,.549926,0.0*
1,1,.099,.3175,.549926*
20,1,.099,.3175,.549926,.40817,.486438,0.0*
1,1,.099,.40817,.486438*
20,1,.099,.40817,.486438,.486438,.40817,0.0*
1,1,.099,.486438,.40817*
20,1,.099,.486438,.40817,.549926,.3175,0.0*
1,1,.099,.549926,.3175*
20,1,.099,.549926,.3175,.596705,.217183,0.0*
1,1,.099,.596705,.217183*
20,1,.099,.596705,.217183,.625353,.110267,0.0*
1,1,.099,.625353,.110267*
20,1,.099,.625353,.110267,.635,0.0,0.0*
1,1,.099,.635,0.0*
1,1,.099,.3175,0.0*
20,1,.099,.3175,0.0,-.3175,0.0,0.0*
1,1,.099,-.3175,0.0*
1,1,.099,0.0,.3175*
20,1,.099,0.0,.3175,0.0,-.3175,0.0*
1,1,.099,0.0,-.3175*
%
%ADD19MACRO19*%
%AMMACRO12*
1,1,.099,.1,0.0*
20,1,.099,.1,0.0,0.0,-.1,0.0*
1,1,.099,0.0,-.1*
20,1,.099,0.0,-.1,-.1,0.0,0.0*
1,1,.099,-.1,0.0*
20,1,.099,-.1,0.0,0.0,.1,0.0*
1,1,.099,0.0,.1*
20,1,.099,0.0,.1,.1,0.0,0.0*
1,1,.099,.1,0.0*
1,1,.099,.01,0.0*
20,1,.099,.01,0.0,.043,0.0,0.0*
1,1,.099,.043,0.0*
20,1,.099,.043,0.0,.043,-.03,0.0*
1,1,.099,.043,-.03*
20,1,.099,.043,-.03,.033,-.04,0.0*
1,1,.099,.033,-.04*
20,1,.099,.033,-.04,.022,-.047,0.0*
1,1,.099,.022,-.047*
20,1,.099,.022,-.047,.005,-.05,0.0*
1,1,.099,.005,-.05*
20,1,.099,.005,-.05,-.012,-.047,0.0*
1,1,.099,-.012,-.047*
20,1,.099,-.012,-.047,-.023,-.04,0.0*
1,1,.099,-.023,-.04*
20,1,.099,-.023,-.04,-.033,-.03,0.0*
1,1,.099,-.033,-.03*
20,1,.099,-.033,-.03,-.04,-.018,0.0*
1,1,.099,-.04,-.018*
20,1,.099,-.04,-.018,-.043,-.005,0.0*
1,1,.099,-.043,-.005*
20,1,.099,-.043,-.005,-.043,.007,0.0*
1,1,.099,-.043,.007*
20,1,.099,-.043,.007,-.04,.017,0.0*
1,1,.099,-.04,.017*
20,1,.099,-.04,.017,-.033,.028,0.0*
1,1,.099,-.033,.028*
20,1,.099,-.033,.028,-.023,.038,0.0*
1,1,.099,-.023,.038*
20,1,.099,-.023,.038,-.013,.045,0.0*
1,1,.099,-.013,.045*
20,1,.099,-.013,.045,0.0,.05,0.0*
1,1,.099,0.0,.05*
20,1,.099,0.0,.05,.012,.05,0.0*
1,1,.099,.012,.05*
20,1,.099,.012,.05,.025,.047,0.0*
1,1,.099,.025,.047*
20,1,.099,.025,.047,.035,.04,0.0*
1,1,.099,.035,.04*
%
%ADD12MACRO12*%
%AMMACRO13*
1,1,.099,.55,0.0*
20,1,.099,.55,0.0,.275,.476314,0.0*
1,1,.099,.275,.476314*
20,1,.099,.275,.476314,-.275,.476314,0.0*
1,1,.099,-.275,.476314*
20,1,.099,-.275,.476314,-.55,0.0,0.0*
1,1,.099,-.55,0.0*
20,1,.099,-.55,0.0,-.275,-.476314,0.0*
1,1,.099,-.275,-.476314*
20,1,.099,-.275,-.476314,.275,-.476314,0.0*
1,1,.099,.275,-.476314*
20,1,.099,.275,-.476314,.55,0.0,0.0*
1,1,.099,.55,0.0*
1,1,.099,-.504,-.275*
20,1,.099,-.504,-.275,-.275,.275,0.0*
1,1,.099,-.275,.275*
20,1,.099,-.275,.275,-.046,-.275,0.0*
1,1,.099,-.046,-.275*
1,1,.099,-.128,-.083*
20,1,.099,-.128,-.083,-.422,-.083,0.0*
1,1,.099,-.422,-.083*
1,1,.099,.459,-.275*
20,1,.099,.459,-.275,.093,-.275,0.0*
1,1,.099,.093,-.275*
20,1,.099,.093,-.275,.093,.275,0.0*
1,1,.099,.093,.275*
20,1,.099,.093,.275,.459,.275,0.0*
1,1,.099,.459,.275*
1,1,.099,.313,.009*
20,1,.099,.313,.009,.093,.009,0.0*
1,1,.099,.093,.009*
%
%ADD13MACRO13*%
%AMMACRO16*
1,1,.099,.1005,0.0*
20,1,.099,.1005,0.0,-.1005,0.0,0.0*
1,1,.099,-.1005,0.0*
1,1,.099,0.0,.1005*
20,1,.099,0.0,.1005,0.0,-.1005,0.0*
1,1,.099,0.0,-.1005*
1,1,.099,.013,.1*
20,1,.099,.013,.1,.013,.028,0.0*
1,1,.099,.013,.028*
20,1,.099,.013,.028,.02,.013,0.0*
1,1,.099,.02,.013*
20,1,.099,.02,.013,.033,.003,0.0*
1,1,.099,.033,.003*
20,1,.099,.033,.003,.05,0.0,0.0*
1,1,.099,.05,0.0*
20,1,.099,.05,0.0,.067,.003,0.0*
1,1,.099,.067,.003*
20,1,.099,.067,.003,.08,.013,0.0*
1,1,.099,.08,.013*
20,1,.099,.08,.013,.087,.028,0.0*
1,1,.099,.087,.028*
20,1,.099,.087,.028,.087,.1,0.0*
1,1,.099,.087,.1*
%
%ADD16MACRO16*%
%AMMACRO11*
1,1,.099,0.0,.1005*
20,1,.099,0.0,.1005,.1005,-.1005,0.0*
1,1,.099,.1005,-.1005*
20,1,.099,.1005,-.1005,-.1005,-.1005,0.0*
1,1,.099,-.1005,-.1005*
20,1,.099,-.1005,-.1005,0.0,.1005,0.0*
1,1,.099,0.0,.1005*
1,1,.099,-.013,.042*
20,1,.099,-.013,.042,-.023,.047,0.0*
1,1,.099,-.023,.047*
20,1,.099,-.023,.047,-.035,.05,0.0*
1,1,.099,-.035,.05*
20,1,.099,-.035,.05,-.048,.05,0.0*
1,1,.099,-.048,.05*
20,1,.099,-.048,.05,-.063,.045,0.0*
1,1,.099,-.063,.045*
20,1,.099,-.063,.045,-.075,.037,0.0*
1,1,.099,-.075,.037*
20,1,.099,-.075,.037,-.083,.027,0.0*
1,1,.099,-.083,.027*
20,1,.099,-.083,.027,-.09,.01,0.0*
1,1,.099,-.09,.01*
20,1,.099,-.09,.01,-.092,-.005,0.0*
1,1,.099,-.092,-.005*
20,1,.099,-.092,-.005,-.088,-.02,0.0*
1,1,.099,-.088,-.02*
20,1,.099,-.088,-.02,-.083,-.03,0.0*
1,1,.099,-.083,-.03*
20,1,.099,-.083,-.03,-.073,-.04,0.0*
1,1,.099,-.073,-.04*
20,1,.099,-.073,-.04,-.062,-.047,0.0*
1,1,.099,-.062,-.047*
20,1,.099,-.062,-.047,-.05,-.05,0.0*
1,1,.099,-.05,-.05*
20,1,.099,-.05,-.05,-.038,-.05,0.0*
1,1,.099,-.038,-.05*
20,1,.099,-.038,-.05,-.027,-.047,0.0*
1,1,.099,-.027,-.047*
20,1,.099,-.027,-.047,-.017,-.042,0.0*
1,1,.099,-.017,-.042*
20,1,.099,-.017,-.042,-.008,-.035,0.0*
1,1,.099,-.008,-.035*
1,1,.099,.088,.042*
20,1,.099,.088,.042,.078,.047,0.0*
1,1,.099,.078,.047*
20,1,.099,.078,.047,.066,.05,0.0*
1,1,.099,.066,.05*
20,1,.099,.066,.05,.053,.05,0.0*
1,1,.099,.053,.05*
20,1,.099,.053,.05,.038,.045,0.0*
1,1,.099,.038,.045*
20,1,.099,.038,.045,.026,.037,0.0*
1,1,.099,.026,.037*
20,1,.099,.026,.037,.018,.027,0.0*
1,1,.099,.018,.027*
20,1,.099,.018,.027,.011,.01,0.0*
1,1,.099,.011,.01*
20,1,.099,.011,.01,.009,-.005,0.0*
1,1,.099,.009,-.005*
20,1,.099,.009,-.005,.013,-.02,0.0*
1,1,.099,.013,-.02*
20,1,.099,.013,-.02,.018,-.03,0.0*
1,1,.099,.018,-.03*
20,1,.099,.018,-.03,.028,-.04,0.0*
1,1,.099,.028,-.04*
20,1,.099,.028,-.04,.039,-.047,0.0*
1,1,.099,.039,-.047*
20,1,.099,.039,-.047,.051,-.05,0.0*
1,1,.099,.051,-.05*
20,1,.099,.051,-.05,.063,-.05,0.0*
1,1,.099,.063,-.05*
20,1,.099,.063,-.05,.074,-.047,0.0*
1,1,.099,.074,-.047*
20,1,.099,.074,-.047,.084,-.042,0.0*
1,1,.099,.084,-.042*
20,1,.099,.084,-.042,.093,-.035,0.0*
1,1,.099,.093,-.035*
%
%ADD11MACRO11*%
%AMMACRO10*
1,1,.099,0.0,1.45*
20,1,.099,0.0,1.45,1.45,-1.45,0.0*
1,1,.099,1.45,-1.45*
20,1,.099,1.45,-1.45,-1.45,-1.45,0.0*
1,1,.099,-1.45,-1.45*
20,1,.099,-1.45,-1.45,0.0,1.45,0.0*
1,1,.099,0.0,1.45*
1,1,.099,-.193,.604*
20,1,.099,-.193,.604,-.338,.677,0.0*
1,1,.099,-.338,.677*
20,1,.099,-.338,.677,-.507,.725,0.0*
1,1,.099,-.507,.725*
20,1,.099,-.507,.725,-.701,.725,0.0*
1,1,.099,-.701,.725*
20,1,.099,-.701,.725,-.918,.652,0.0*
1,1,.099,-.918,.652*
20,1,.099,-.918,.652,-1.087,.532,0.0*
1,1,.099,-1.087,.532*
20,1,.099,-1.087,.532,-1.208,.387,0.0*
1,1,.099,-1.208,.387*
20,1,.099,-1.208,.387,-1.305,.145,0.0*
1,1,.099,-1.305,.145*
20,1,.099,-1.305,.145,-1.329,-.073,0.0*
1,1,.099,-1.329,-.073*
20,1,.099,-1.329,-.073,-1.281,-.29,0.0*
1,1,.099,-1.281,-.29*
20,1,.099,-1.281,-.29,-1.208,-.435,0.0*
1,1,.099,-1.208,-.435*
20,1,.099,-1.208,-.435,-1.063,-.58,0.0*
1,1,.099,-1.063,-.58*
20,1,.099,-1.063,-.58,-.894,-.677,0.0*
1,1,.099,-.894,-.677*
20,1,.099,-.894,-.677,-.725,-.725,0.0*
1,1,.099,-.725,-.725*
20,1,.099,-.725,-.725,-.556,-.725,0.0*
1,1,.099,-.556,-.725*
20,1,.099,-.556,-.725,-.387,-.677,0.0*
1,1,.099,-.387,-.677*
20,1,.099,-.387,-.677,-.242,-.604,0.0*
1,1,.099,-.242,-.604*
20,1,.099,-.242,-.604,-.121,-.508,0.0*
1,1,.099,-.121,-.508*
1,1,.099,1.258,.604*
20,1,.099,1.258,.604,1.113,.677,0.0*
1,1,.099,1.113,.677*
20,1,.099,1.113,.677,.944,.725,0.0*
1,1,.099,.944,.725*
20,1,.099,.944,.725,.75,.725,0.0*
1,1,.099,.75,.725*
20,1,.099,.75,.725,.533,.652,0.0*
1,1,.099,.533,.652*
20,1,.099,.533,.652,.364,.532,0.0*
1,1,.099,.364,.532*
20,1,.099,.364,.532,.243,.387,0.0*
1,1,.099,.243,.387*
20,1,.099,.243,.387,.146,.145,0.0*
1,1,.099,.146,.145*
20,1,.099,.146,.145,.122,-.073,0.0*
1,1,.099,.122,-.073*
20,1,.099,.122,-.073,.17,-.29,0.0*
1,1,.099,.17,-.29*
20,1,.099,.17,-.29,.243,-.435,0.0*
1,1,.099,.243,-.435*
20,1,.099,.243,-.435,.388,-.58,0.0*
1,1,.099,.388,-.58*
20,1,.099,.388,-.58,.557,-.677,0.0*
1,1,.099,.557,-.677*
20,1,.099,.557,-.677,.726,-.725,0.0*
1,1,.099,.726,-.725*
20,1,.099,.726,-.725,.895,-.725,0.0*
1,1,.099,.895,-.725*
20,1,.099,.895,-.725,1.064,-.677,0.0*
1,1,.099,1.064,-.677*
20,1,.099,1.064,-.677,1.209,-.604,0.0*
1,1,.099,1.209,-.604*
20,1,.099,1.209,-.604,1.33,-.508,0.0*
1,1,.099,1.33,-.508*
%
%ADD10MACRO10*%
%AMMACRO15*
1,1,.099,0.0,.4495*
20,1,.099,0.0,.4495,.078055,.442671,0.0*
1,1,.099,.078055,.442671*
20,1,.099,.078055,.442671,.153738,.422392,0.0*
1,1,.099,.153738,.422392*
20,1,.099,.153738,.422392,.22475,.389278,0.0*
1,1,.099,.22475,.389278*
20,1,.099,.22475,.389278,.288933,.344337,0.0*
1,1,.099,.288933,.344337*
20,1,.099,.288933,.344337,.344337,.288933,0.0*
1,1,.099,.344337,.288933*
20,1,.099,.344337,.288933,.389278,.22475,0.0*
1,1,.099,.389278,.22475*
20,1,.099,.389278,.22475,.422392,.153738,0.0*
1,1,.099,.422392,.153738*
20,1,.099,.422392,.153738,.442671,.078055,0.0*
1,1,.099,.442671,.078055*
20,1,.099,.442671,.078055,.4495,0.0,0.0*
1,1,.099,.4495,0.0*
20,1,.099,.4495,0.0,.442671,-.078055,0.0*
1,1,.099,.442671,-.078055*
20,1,.099,.442671,-.078055,.422392,-.153738,0.0*
1,1,.099,.422392,-.153738*
20,1,.099,.422392,-.153738,.389278,-.22475,0.0*
1,1,.099,.389278,-.22475*
20,1,.099,.389278,-.22475,.344337,-.288933,0.0*
1,1,.099,.344337,-.288933*
20,1,.099,.344337,-.288933,.288933,-.344337,0.0*
1,1,.099,.288933,-.344337*
20,1,.099,.288933,-.344337,.22475,-.389278,0.0*
1,1,.099,.22475,-.389278*
20,1,.099,.22475,-.389278,.153738,-.422392,0.0*
1,1,.099,.153738,-.422392*
20,1,.099,.153738,-.422392,.078055,-.442671,0.0*
1,1,.099,.078055,-.442671*
20,1,.099,.078055,-.442671,0.0,-.4495,0.0*
1,1,.099,0.0,-.4495*
20,1,.099,0.0,-.4495,-.078055,-.442671,0.0*
1,1,.099,-.078055,-.442671*
20,1,.099,-.078055,-.442671,-.153738,-.422392,0.0*
1,1,.099,-.153738,-.422392*
20,1,.099,-.153738,-.422392,-.22475,-.389278,0.0*
1,1,.099,-.22475,-.389278*
20,1,.099,-.22475,-.389278,-.288933,-.344337,0.0*
1,1,.099,-.288933,-.344337*
20,1,.099,-.288933,-.344337,-.344337,-.288933,0.0*
1,1,.099,-.344337,-.288933*
20,1,.099,-.344337,-.288933,-.389278,-.22475,0.0*
1,1,.099,-.389278,-.22475*
20,1,.099,-.389278,-.22475,-.422392,-.153738,0.0*
1,1,.099,-.422392,-.153738*
20,1,.099,-.422392,-.153738,-.442671,-.078055,0.0*
1,1,.099,-.442671,-.078055*
20,1,.099,-.442671,-.078055,-.4495,0.0,0.0*
1,1,.099,-.4495,0.0*
20,1,.099,-.4495,0.0,-.442671,.078055,0.0*
1,1,.099,-.442671,.078055*
20,1,.099,-.442671,.078055,-.422392,.153738,0.0*
1,1,.099,-.422392,.153738*
20,1,.099,-.422392,.153738,-.389278,.22475,0.0*
1,1,.099,-.389278,.22475*
20,1,.099,-.389278,.22475,-.344337,.288933,0.0*
1,1,.099,-.344337,.288933*
20,1,.099,-.344337,.288933,-.288933,.344337,0.0*
1,1,.099,-.288933,.344337*
20,1,.099,-.288933,.344337,-.22475,.389278,0.0*
1,1,.099,-.22475,.389278*
20,1,.099,-.22475,.389278,-.153738,.422392,0.0*
1,1,.099,-.153738,.422392*
20,1,.099,-.153738,.422392,-.078055,.442671,0.0*
1,1,.099,-.078055,.442671*
20,1,.099,-.078055,.442671,0.0,.4495,0.0*
1,1,.099,0.0,.4495*
1,1,.099,-.412,-.224*
20,1,.099,-.412,-.224,-.225,.225,0.0*
1,1,.099,-.225,.225*
20,1,.099,-.225,.225,-.037,-.224,0.0*
1,1,.099,-.037,-.224*
1,1,.099,-.105,-.067*
20,1,.099,-.105,-.067,-.344,-.067,0.0*
1,1,.099,-.344,-.067*
1,1,.099,.038,-.224*
20,1,.099,.038,-.224,.225,.225,0.0*
1,1,.099,.225,.225*
20,1,.099,.225,.225,.413,-.224,0.0*
1,1,.099,.413,-.224*
1,1,.099,.345,-.067*
20,1,.099,.345,-.067,.106,-.067,0.0*
1,1,.099,.106,-.067*
%
%ADD15MACRO15*%
%ADD20C,.099*%
G75*
%LPD*%
G75*
G36*
G01X1999580Y3166490D02*
Y3227740D01*
X2202780D01*
Y3166490D01*
X1999580D01*
G37*
G36*
G01Y3258360D02*
Y3319610D01*
X2202780D01*
Y3258360D01*
X1999580D01*
G37*
G36*
G01Y3513860D02*
Y3575110D01*
X2202780D01*
Y3513860D01*
X1999580D01*
G37*
G36*
G01Y3605730D02*
Y3666980D01*
X2202780D01*
Y3605730D01*
X1999580D01*
G37*
G54D10*
X2097150Y1326220D03*
X2025000Y2927000D03*
X2558000D03*
G54D20*
G01X1983000Y1005060D02*
Y1926500D01*
X3211100D01*
Y1005060D01*
X1983000D01*
G01Y1076430D02*
X3211100D01*
G01X1983000Y1219170D02*
X3211100D01*
G01X1983000Y1147800D02*
X3211100D01*
G01X1983000Y1433280D02*
X3211100D01*
G01X1983000Y1361910D02*
X3211100D01*
G01X1983000Y1290540D02*
X3211100D01*
G01X1983000Y1576020D02*
X3211100D01*
G01X1983000Y1504650D02*
X3211100D01*
G01X2010940Y1742510D02*
Y1774260D01*
X2025900D01*
G01X2020390Y1758910D02*
X2010940D01*
G01X2045190Y1774260D02*
X2054630D01*
G01X2049910D02*
Y1742510D01*
G01X2045190D02*
X2054630D01*
G01X2083760Y1758380D02*
X2091640D01*
Y1748860D01*
X2089270Y1745680D01*
X2086520Y1743570D01*
X2082580Y1742510D01*
X2078640Y1743570D01*
X2075890Y1745680D01*
X2073530Y1748860D01*
X2071950Y1752560D01*
X2071160Y1756800D01*
Y1760500D01*
X2071950Y1763680D01*
X2073530Y1767380D01*
X2075890Y1770560D01*
X2078250Y1772670D01*
X2081400Y1774260D01*
X2084160D01*
X2087300Y1773200D01*
X2089670Y1771080D01*
G01X2104230Y1774260D02*
Y1751510D01*
X2105800Y1746740D01*
X2108950Y1743570D01*
X2112890Y1742510D01*
X2116830Y1743570D01*
X2119980Y1746740D01*
X2121550Y1751510D01*
Y1774260D01*
G01X2136510Y1742510D02*
Y1774260D01*
X2146350D01*
X2149500Y1772670D01*
X2151470Y1770560D01*
X2152250Y1766320D01*
X2151470Y1762090D01*
X2149100Y1759440D01*
X2146350Y1757860D01*
X2136510D01*
G01X2146350D02*
X2152250Y1742510D01*
G01X2183740D02*
X2168000D01*
Y1774260D01*
X2183740D01*
G01X2177440Y1758910D02*
X2168000D01*
G01X1983000Y1718760D02*
X3211100D01*
G01X1983000Y1647390D02*
X3211100D01*
G01X1983000Y1861500D02*
X3211100D01*
G01X1983000Y1790130D02*
X3211100D01*
G01X2014620Y2000000D02*
X2570380D01*
G03X2585000Y2014620I0J14620D01*
G01Y2445000D01*
G03X2574000Y2476500I-50602J0D01*
G02X2563000Y2508000I39602J31500D01*
G02X2574000Y2539500I50602J0D01*
G03X2585000Y2571000I-39602J31500D01*
G01Y2938380D01*
G03X2570380Y2953000I-14620J0D01*
G01X2158000D01*
Y2941000D01*
X2142000D01*
Y2920000D01*
X2133000D01*
Y2941000D01*
X2095000D01*
Y2920000D01*
X2086000D01*
Y2941000D01*
X2070000D01*
Y2953000D01*
X2014620D01*
G03X2000000Y2938380I0J-14620D01*
G01Y2571000D01*
G03X2011000Y2539500I50602J0D01*
G02X2022000Y2508000I-39602J-31500D01*
G02X2011000Y2476500I-50602J0D01*
G03X2000000Y2445000I39602J-31500D01*
G01Y2014620D01*
G03X2014620Y2000000I14620J0D01*
G01X2000000Y2816520D02*
Y3039000D01*
G01X2291000Y3014000D02*
X2000000D01*
G01X2040000Y3020250D02*
X2000000Y3014000D01*
X2040000Y3007750D01*
Y3020250D01*
G01X1999580Y3319610D02*
Y3513860D01*
X2202780D01*
Y3319610D01*
X1999580D01*
G01Y3227740D02*
Y3258360D01*
X2202780D01*
Y3227740D01*
X1999580D01*
G01Y3575110D02*
Y3605730D01*
X2202780D01*
Y3575110D01*
X1999580D01*
G01X2021890Y3829080D02*
Y3860830D01*
X2029760D01*
X2032910Y3859240D01*
X2035270Y3857130D01*
X2037240Y3853950D01*
X2038820Y3850250D01*
X2039210Y3844950D01*
X2038820Y3839660D01*
X2037240Y3835960D01*
X2035270Y3832780D01*
X2032910Y3830670D01*
X2029760Y3829080D01*
X2021890D01*
G01X2069910D02*
X2054170D01*
Y3860830D01*
X2069910D01*
G01X2063610Y3845480D02*
X2054170D01*
G01X2085260Y3833310D02*
X2088410Y3830670D01*
X2091960Y3829080D01*
X2095100D01*
X2098250Y3830670D01*
X2100620Y3833310D01*
X2101800Y3837020D01*
X2101010Y3840720D01*
X2099040Y3843900D01*
X2095500Y3846010D01*
X2090770Y3847070D01*
X2088020Y3849190D01*
X2086840Y3852890D01*
X2087630Y3856600D01*
X2089590Y3859240D01*
X2092350Y3860830D01*
X2095100D01*
X2097860Y3859770D01*
X2100220Y3857130D01*
G01X2120300Y3860830D02*
X2129740D01*
G01X2125020D02*
Y3829080D01*
G01X2120300D02*
X2129740D01*
G01X2158870Y3844950D02*
X2166750D01*
Y3835430D01*
X2164380Y3832250D01*
X2161630Y3830140D01*
X2157690Y3829080D01*
X2153750Y3830140D01*
X2151000Y3832250D01*
X2148640Y3835430D01*
X2147060Y3839130D01*
X2146270Y3843370D01*
Y3847070D01*
X2147060Y3850250D01*
X2148640Y3853950D01*
X2151000Y3857130D01*
X2153360Y3859240D01*
X2156510Y3860830D01*
X2159270D01*
X2162410Y3859770D01*
X2164780Y3857650D01*
G01X2178950Y3829080D02*
Y3860830D01*
X2197050Y3829080D01*
Y3860830D01*
G01X2259640Y3858180D02*
X2257280Y3859770D01*
X2254520Y3860830D01*
X2251370D01*
X2247830Y3859240D01*
X2245080Y3856600D01*
X2243110Y3853420D01*
X2241530Y3848130D01*
X2241140Y3843370D01*
X2241930Y3838600D01*
X2243110Y3835430D01*
X2245470Y3832250D01*
X2248220Y3830140D01*
X2250980Y3829080D01*
X2253740D01*
X2256490Y3830140D01*
X2258850Y3831730D01*
X2260820Y3833840D01*
G01X2274600Y3829080D02*
Y3860830D01*
X2284440D01*
X2287590Y3859240D01*
X2289560Y3857130D01*
X2290340Y3852890D01*
X2289560Y3848660D01*
X2287190Y3846010D01*
X2284440Y3844430D01*
X2274600D01*
G01X2284440D02*
X2290340Y3829080D01*
G01X2313960D02*
X2310810Y3829610D01*
X2308060Y3831730D01*
X2305690Y3834900D01*
X2304120Y3838600D01*
X2303330Y3842840D01*
Y3847070D01*
X2304120Y3851310D01*
X2305690Y3855010D01*
X2308060Y3858180D01*
X2310810Y3860300D01*
X2313960Y3860830D01*
X2317110Y3860300D01*
X2319860Y3858180D01*
X2322230Y3855010D01*
X2323800Y3851310D01*
X2324590Y3847070D01*
Y3842840D01*
X2323800Y3838600D01*
X2322230Y3834900D01*
X2319860Y3831730D01*
X2317110Y3829610D01*
X2313960Y3829080D01*
G01X2337180Y3833310D02*
X2340330Y3830670D01*
X2343880Y3829080D01*
X2347020D01*
X2350170Y3830670D01*
X2352540Y3833310D01*
X2353720Y3837020D01*
X2352930Y3840720D01*
X2350960Y3843900D01*
X2347420Y3846010D01*
X2342690Y3847070D01*
X2339940Y3849190D01*
X2338760Y3852890D01*
X2339550Y3856600D01*
X2341510Y3859240D01*
X2344270Y3860830D01*
X2347020D01*
X2349780Y3859770D01*
X2352140Y3857130D01*
G01X2368670Y3833310D02*
X2371820Y3830670D01*
X2375370Y3829080D01*
X2378510D01*
X2381660Y3830670D01*
X2384030Y3833310D01*
X2385210Y3837020D01*
X2384420Y3840720D01*
X2382450Y3843900D01*
X2378910Y3846010D01*
X2374180Y3847070D01*
X2371430Y3849190D01*
X2370250Y3852890D01*
X2371040Y3856600D01*
X2373000Y3859240D01*
X2375760Y3860830D01*
X2378510D01*
X2381270Y3859770D01*
X2383630Y3857130D01*
G01X2431650Y3833310D02*
X2434800Y3830670D01*
X2438350Y3829080D01*
X2441490D01*
X2444640Y3830670D01*
X2447010Y3833310D01*
X2448190Y3837020D01*
X2447400Y3840720D01*
X2445430Y3843900D01*
X2441890Y3846010D01*
X2437160Y3847070D01*
X2434410Y3849190D01*
X2433230Y3852890D01*
X2434020Y3856600D01*
X2435980Y3859240D01*
X2438740Y3860830D01*
X2441490D01*
X2444250Y3859770D01*
X2446610Y3857130D01*
G01X2479280Y3829080D02*
X2463540D01*
Y3860830D01*
X2479280D01*
G01X2472980Y3845480D02*
X2463540D01*
G01X2511560Y3858180D02*
X2509200Y3859770D01*
X2506440Y3860830D01*
X2503290D01*
X2499750Y3859240D01*
X2497000Y3856600D01*
X2495030Y3853420D01*
X2493450Y3848130D01*
X2493060Y3843370D01*
X2493850Y3838600D01*
X2495030Y3835430D01*
X2497390Y3832250D01*
X2500140Y3830140D01*
X2502900Y3829080D01*
X2505660D01*
X2508410Y3830140D01*
X2510770Y3831730D01*
X2512740Y3833840D01*
G01X2534390Y3860830D02*
Y3829080D01*
G01X2525340Y3860830D02*
X2543440D01*
G01X2561160D02*
X2570600D01*
G01X2565880D02*
Y3829080D01*
G01X2561160D02*
X2570600D01*
G01X2597370D02*
X2594220Y3829610D01*
X2591470Y3831730D01*
X2589100Y3834900D01*
X2587530Y3838600D01*
X2586740Y3842840D01*
Y3847070D01*
X2587530Y3851310D01*
X2589100Y3855010D01*
X2591470Y3858180D01*
X2594220Y3860300D01*
X2597370Y3860830D01*
X2600520Y3860300D01*
X2603270Y3858180D01*
X2605640Y3855010D01*
X2607210Y3851310D01*
X2608000Y3847070D01*
Y3842840D01*
X2607210Y3838600D01*
X2605640Y3834900D01*
X2603270Y3831730D01*
X2600520Y3829610D01*
X2597370Y3829080D01*
G01X2619810D02*
Y3860830D01*
X2637910Y3829080D01*
Y3860830D01*
G01X2700500Y3858180D02*
X2698140Y3859770D01*
X2695380Y3860830D01*
X2692230D01*
X2688690Y3859240D01*
X2685940Y3856600D01*
X2683970Y3853420D01*
X2682390Y3848130D01*
X2682000Y3843370D01*
X2682790Y3838600D01*
X2683970Y3835430D01*
X2686330Y3832250D01*
X2689080Y3830140D01*
X2691840Y3829080D01*
X2694600D01*
X2697350Y3830140D01*
X2699710Y3831730D01*
X2701680Y3833840D01*
G01X2715060Y3829080D02*
Y3860830D01*
G01X2731600D02*
Y3829080D01*
G01Y3844950D02*
X2715060D01*
G01X2744980Y3829080D02*
X2754820Y3860830D01*
X2764660Y3829080D01*
G01X2761120Y3840190D02*
X2748520D01*
G01X2778440Y3829080D02*
Y3860830D01*
X2788280D01*
X2791430Y3859240D01*
X2793400Y3857130D01*
X2794180Y3852890D01*
X2793400Y3848660D01*
X2791030Y3846010D01*
X2788280Y3844430D01*
X2778440D01*
G01X2788280D02*
X2794180Y3829080D01*
G01X2817800Y3860830D02*
Y3829080D01*
G01X2808750Y3860830D02*
X2826850D01*
G01X2003000Y3818500D02*
X2026620D01*
G01X2034490D02*
X2058110D01*
G01X2065980D02*
X2089600D01*
G01X2097470D02*
X2121090D01*
G01X2128960D02*
X2152580D01*
G01X2160450D02*
X2184070D01*
G01X2191940D02*
X2215560D01*
G01X2223430D02*
X2247050D01*
G01X2254920D02*
X2278540D01*
G01X2286410D02*
X2310030D01*
G01X2317900D02*
X2341520D01*
G01X2349390D02*
X2373010D01*
G01X2380880D02*
X2404500D01*
G01X2412370D02*
X2435990D01*
G01X2443860D02*
X2467480D01*
G01X2475350D02*
X2498970D01*
G01X2506840D02*
X2530460D01*
G01X2538330D02*
X2561950D01*
G01X2569820D02*
X2593440D01*
G01X2601310D02*
X2624930D01*
G01X2632800D02*
X2656420D01*
G01X2664290D02*
X2687910D01*
G01X2695780D02*
X2719400D01*
G01X2727270D02*
X2750890D01*
G01X2758760D02*
X2782380D01*
G01X2790250D02*
X2813870D01*
G01X2821740D02*
X2845360D01*
G01X2093530Y3797330D02*
Y3765580D01*
G01X2084480Y3797330D02*
X2102580D01*
G01X2125020Y3765580D02*
X2121870Y3766110D01*
X2119120Y3768230D01*
X2116750Y3771400D01*
X2115180Y3775100D01*
X2114390Y3779340D01*
Y3783570D01*
X2115180Y3787810D01*
X2116750Y3791510D01*
X2119120Y3794680D01*
X2121870Y3796800D01*
X2125020Y3797330D01*
X2128170Y3796800D01*
X2130920Y3794680D01*
X2133290Y3791510D01*
X2134860Y3787810D01*
X2135650Y3783570D01*
Y3779340D01*
X2134860Y3775100D01*
X2133290Y3771400D01*
X2130920Y3768230D01*
X2128170Y3766110D01*
X2125020Y3765580D01*
G01X2156510Y3797330D02*
Y3765580D01*
G01X2147460Y3797330D02*
X2165560D01*
G01X2178160Y3765580D02*
X2188000Y3797330D01*
X2197840Y3765580D01*
G01X2194300Y3776690D02*
X2181700D01*
G01X2211620Y3797330D02*
Y3765580D01*
X2227360D01*
G01X2282470Y3797330D02*
Y3765580D01*
G01X2273420Y3797330D02*
X2291520D01*
G01X2305690Y3765580D02*
Y3797330D01*
G01X2322230D02*
Y3765580D01*
G01Y3781450D02*
X2305690D01*
G01X2340730Y3797330D02*
X2350170D01*
G01X2345450D02*
Y3765580D01*
G01X2340730D02*
X2350170D01*
G01X2385600Y3794680D02*
X2383240Y3796270D01*
X2380480Y3797330D01*
X2377330D01*
X2373790Y3795740D01*
X2371040Y3793100D01*
X2369070Y3789920D01*
X2367490Y3784630D01*
X2367100Y3779870D01*
X2367890Y3775100D01*
X2369070Y3771930D01*
X2371430Y3768750D01*
X2374180Y3766640D01*
X2376940Y3765580D01*
X2379700D01*
X2382450Y3766640D01*
X2384810Y3768230D01*
X2386780Y3770340D01*
G01X2399770Y3765580D02*
Y3797330D01*
G01X2414730D02*
X2399770Y3777750D01*
G01X2417090Y3765580D02*
X2406460Y3786750D01*
G01X2430870Y3765580D02*
Y3797330D01*
X2448970Y3765580D01*
Y3797330D01*
G01X2479280Y3765580D02*
X2463540D01*
Y3797330D01*
X2479280D01*
G01X2472980Y3781980D02*
X2463540D01*
G01X2494630Y3769810D02*
X2497780Y3767170D01*
X2501330Y3765580D01*
X2504470D01*
X2507620Y3767170D01*
X2509990Y3769810D01*
X2511170Y3773520D01*
X2510380Y3777220D01*
X2508410Y3780400D01*
X2504870Y3782510D01*
X2500140Y3783570D01*
X2497390Y3785690D01*
X2496210Y3789390D01*
X2497000Y3793100D01*
X2498960Y3795740D01*
X2501720Y3797330D01*
X2504470D01*
X2507230Y3796270D01*
X2509590Y3793630D01*
G01X2526120Y3769810D02*
X2529270Y3767170D01*
X2532820Y3765580D01*
X2535960D01*
X2539110Y3767170D01*
X2541480Y3769810D01*
X2542660Y3773520D01*
X2541870Y3777220D01*
X2539900Y3780400D01*
X2536360Y3782510D01*
X2531630Y3783570D01*
X2528880Y3785690D01*
X2527700Y3789390D01*
X2528490Y3793100D01*
X2530450Y3795740D01*
X2533210Y3797330D01*
X2535960D01*
X2538720Y3796270D01*
X2541080Y3793630D01*
G01X2597370Y3765580D02*
Y3797330D01*
X2592650Y3790980D01*
G01Y3765580D02*
X2602090D01*
G01X2628860Y3764520D02*
X2628070Y3765050D01*
Y3766110D01*
X2628860Y3766640D01*
X2629650Y3766110D01*
Y3765050D01*
X2628860Y3764520D01*
G01X2652870Y3778810D02*
X2655630Y3782510D01*
X2657990Y3784630D01*
X2661140Y3785690D01*
X2663890Y3784630D01*
X2665860Y3782510D01*
X2667440Y3779340D01*
X2667830Y3775630D01*
X2667440Y3772460D01*
X2665860Y3769280D01*
X2663500Y3766640D01*
X2660740Y3765580D01*
X2657590Y3766640D01*
X2654840Y3769810D01*
X2653260Y3774580D01*
X2652870Y3779870D01*
X2653660Y3786750D01*
X2654840Y3790450D01*
X2656810Y3794150D01*
X2659560Y3796800D01*
X2662320Y3797330D01*
X2665070Y3796270D01*
X2667040Y3793630D01*
G01X2713090Y3765580D02*
Y3797330D01*
X2723330Y3770870D01*
X2733570Y3797330D01*
Y3765580D01*
G01X2744580D02*
Y3797330D01*
X2754820Y3770870D01*
X2765060Y3797330D01*
Y3765580D01*
G01X2211300Y1790130D02*
Y1005060D01*
G01X2194760Y1878880D02*
Y1910630D01*
X2202630D01*
X2205780Y1909040D01*
X2208140Y1906930D01*
X2210110Y1903750D01*
X2211690Y1900050D01*
X2212080Y1894750D01*
X2211690Y1889460D01*
X2210110Y1885760D01*
X2208140Y1882580D01*
X2205780Y1880470D01*
X2202630Y1878880D01*
X2194760D01*
G01X2227040D02*
Y1910630D01*
X2236880D01*
X2240030Y1909040D01*
X2242000Y1906930D01*
X2242780Y1902690D01*
X2242000Y1898460D01*
X2239630Y1895810D01*
X2236880Y1894230D01*
X2227040D01*
G01X2236880D02*
X2242780Y1878880D01*
G01X2261680Y1910630D02*
X2271120D01*
G01X2266400D02*
Y1878880D01*
G01X2261680D02*
X2271120D01*
G01X2290020Y1910630D02*
Y1878880D01*
X2305760D01*
G01X2321510Y1910630D02*
Y1878880D01*
X2337250D01*
G01X2401020Y1907980D02*
X2398660Y1909570D01*
X2395900Y1910630D01*
X2392750D01*
X2389210Y1909040D01*
X2386460Y1906400D01*
X2384490Y1903220D01*
X2382910Y1897930D01*
X2382520Y1893170D01*
X2383310Y1888400D01*
X2384490Y1885230D01*
X2386850Y1882050D01*
X2389600Y1879940D01*
X2392360Y1878880D01*
X2395120D01*
X2397870Y1879940D01*
X2400230Y1881530D01*
X2402200Y1883640D01*
G01X2415580Y1878880D02*
Y1910630D01*
G01X2432120D02*
Y1878880D01*
G01Y1894750D02*
X2415580D01*
G01X2445500Y1878880D02*
X2455340Y1910630D01*
X2465180Y1878880D01*
G01X2461640Y1889990D02*
X2449040D01*
G01X2478960Y1878880D02*
Y1910630D01*
X2488800D01*
X2491950Y1909040D01*
X2493920Y1906930D01*
X2494700Y1902690D01*
X2493920Y1898460D01*
X2491550Y1895810D01*
X2488800Y1894230D01*
X2478960D01*
G01X2488800D02*
X2494700Y1878880D01*
G01X2518320Y1910630D02*
Y1878880D01*
G01X2509270Y1910630D02*
X2527370D01*
G01X2549810Y1877820D02*
X2549020Y1878350D01*
Y1879410D01*
X2549810Y1879940D01*
X2550600Y1879410D01*
Y1878350D01*
X2549810Y1877820D01*
G01Y1892110D02*
X2549020Y1892640D01*
Y1893700D01*
X2549810Y1894230D01*
X2550600Y1893700D01*
Y1892640D01*
X2549810Y1892110D01*
G01X2612790Y1910630D02*
Y1878880D01*
G01X2603740Y1910630D02*
X2621840D01*
G01X2644280Y1878880D02*
X2641130Y1879410D01*
X2638380Y1881530D01*
X2636010Y1884700D01*
X2634440Y1888400D01*
X2633650Y1892640D01*
Y1896870D01*
X2634440Y1901110D01*
X2636010Y1904810D01*
X2638380Y1907980D01*
X2641130Y1910100D01*
X2644280Y1910630D01*
X2647430Y1910100D01*
X2650180Y1907980D01*
X2652550Y1904810D01*
X2654120Y1901110D01*
X2654910Y1896870D01*
Y1892640D01*
X2654120Y1888400D01*
X2652550Y1884700D01*
X2650180Y1881530D01*
X2647430Y1879410D01*
X2644280Y1878880D01*
G01X2667900D02*
Y1910630D01*
X2677340D01*
X2680490Y1909040D01*
X2682860Y1905340D01*
X2683640Y1901110D01*
X2682860Y1896870D01*
X2680890Y1893700D01*
X2677340Y1892110D01*
X2667900D01*
G01X2738750Y1910630D02*
Y1878880D01*
G01X2733240Y1900050D02*
X2744260D01*
G01X2770240Y1878880D02*
X2767880Y1879410D01*
X2765520Y1881530D01*
X2763940Y1885230D01*
X2763150Y1889460D01*
X2763940Y1893700D01*
X2765520Y1897400D01*
X2767880Y1899520D01*
X2770240Y1900050D01*
X2772600Y1899520D01*
X2774960Y1897400D01*
X2776540Y1893700D01*
X2776930Y1889460D01*
X2776540Y1885230D01*
X2774960Y1881530D01*
X2772600Y1879410D01*
X2770240Y1878880D01*
G01X2836370Y1895810D02*
X2837940Y1897400D01*
X2839120Y1900050D01*
X2839910Y1903750D01*
X2839120Y1906930D01*
X2837550Y1909040D01*
X2834790Y1910630D01*
X2824170D01*
Y1878880D01*
X2837160D01*
X2839910Y1881000D01*
X2841490Y1884170D01*
X2842270Y1887880D01*
X2841490Y1891580D01*
X2839120Y1894750D01*
X2836370Y1895810D01*
X2824170D01*
G01X2864710Y1878880D02*
X2861560Y1879410D01*
X2858810Y1881530D01*
X2856440Y1884700D01*
X2854870Y1888400D01*
X2854080Y1892640D01*
Y1896870D01*
X2854870Y1901110D01*
X2856440Y1904810D01*
X2858810Y1907980D01*
X2861560Y1910100D01*
X2864710Y1910630D01*
X2867860Y1910100D01*
X2870610Y1907980D01*
X2872980Y1904810D01*
X2874550Y1901110D01*
X2875340Y1896870D01*
Y1892640D01*
X2874550Y1888400D01*
X2872980Y1884700D01*
X2870610Y1881530D01*
X2867860Y1879410D01*
X2864710Y1878880D01*
G01X2896200Y1910630D02*
Y1878880D01*
G01X2887150Y1910630D02*
X2905250D01*
G01X2927690D02*
Y1878880D01*
G01X2918640Y1910630D02*
X2936740D01*
G01X2959180Y1878880D02*
X2956030Y1879410D01*
X2953280Y1881530D01*
X2950910Y1884700D01*
X2949340Y1888400D01*
X2948550Y1892640D01*
Y1896870D01*
X2949340Y1901110D01*
X2950910Y1904810D01*
X2953280Y1907980D01*
X2956030Y1910100D01*
X2959180Y1910630D01*
X2962330Y1910100D01*
X2965080Y1907980D01*
X2967450Y1904810D01*
X2969020Y1901110D01*
X2969810Y1896870D01*
Y1892640D01*
X2969020Y1888400D01*
X2967450Y1884700D01*
X2965080Y1881530D01*
X2962330Y1879410D01*
X2959180Y1878880D01*
G01X2980430D02*
Y1910630D01*
X2990670Y1884170D01*
X3000910Y1910630D01*
Y1878880D01*
G01X2162090Y1813880D02*
X2171930Y1845630D01*
X2181770Y1813880D01*
G01X2178230Y1824990D02*
X2165630D01*
G01X2195550Y1845630D02*
Y1813880D01*
X2211290D01*
G01X2227040Y1845630D02*
Y1813880D01*
X2242780D01*
G01X2289230Y1845630D02*
Y1822880D01*
X2290800Y1818110D01*
X2293950Y1814940D01*
X2297890Y1813880D01*
X2301830Y1814940D01*
X2304980Y1818110D01*
X2306550Y1822880D01*
Y1845630D01*
G01X2320330Y1813880D02*
Y1845630D01*
X2338430Y1813880D01*
Y1845630D01*
G01X2356150D02*
X2365590D01*
G01X2360870D02*
Y1813880D01*
G01X2356150D02*
X2365590D01*
G01X2392360Y1845630D02*
Y1813880D01*
G01X2383310Y1845630D02*
X2401410D01*
G01X2415580Y1818110D02*
X2418730Y1815470D01*
X2422280Y1813880D01*
X2425420D01*
X2428570Y1815470D01*
X2430940Y1818110D01*
X2432120Y1821820D01*
X2431330Y1825520D01*
X2429360Y1828700D01*
X2425820Y1830810D01*
X2421090Y1831870D01*
X2418340Y1833990D01*
X2417160Y1837690D01*
X2417950Y1841400D01*
X2419910Y1844040D01*
X2422670Y1845630D01*
X2425420D01*
X2428180Y1844570D01*
X2430540Y1841930D01*
G01X2476990Y1813880D02*
X2486830Y1845630D01*
X2496670Y1813880D01*
G01X2493130Y1824990D02*
X2480530D01*
G01X2510450Y1813880D02*
Y1845630D01*
X2520290D01*
X2523440Y1844040D01*
X2525410Y1841930D01*
X2526190Y1837690D01*
X2525410Y1833460D01*
X2523040Y1830810D01*
X2520290Y1829230D01*
X2510450D01*
G01X2520290D02*
X2526190Y1813880D01*
G01X2557680D02*
X2541940D01*
Y1845630D01*
X2557680D01*
G01X2551380Y1830280D02*
X2541940D01*
G01X2608070Y1845630D02*
X2617510D01*
G01X2612790D02*
Y1813880D01*
G01X2608070D02*
X2617510D01*
G01X2635230D02*
Y1845630D01*
X2653330Y1813880D01*
Y1845630D01*
G01X2697020Y1813880D02*
Y1845630D01*
X2707260Y1819170D01*
X2717500Y1845630D01*
Y1813880D01*
G01X2734030Y1845630D02*
X2743470D01*
G01X2738750D02*
Y1813880D01*
G01X2734030D02*
X2743470D01*
G01X2762370Y1845630D02*
Y1813880D01*
X2778110D01*
G01X2793860Y1845630D02*
Y1813880D01*
X2809600D01*
G01X2828500Y1845630D02*
X2837940D01*
G01X2833220D02*
Y1813880D01*
G01X2828500D02*
X2837940D01*
G01X2854470D02*
Y1845630D01*
X2864710Y1819170D01*
X2874950Y1845630D01*
Y1813880D01*
G01X2904070D02*
X2888330D01*
Y1845630D01*
X2904070D01*
G01X2897770Y1830280D02*
X2888330D01*
G01X2927690Y1845630D02*
Y1813880D01*
G01X2918640Y1845630D02*
X2936740D01*
G01X2967050Y1813880D02*
X2951310D01*
Y1845630D01*
X2967050D01*
G01X2960750Y1830280D02*
X2951310D01*
G01X2982800Y1813880D02*
Y1845630D01*
X2992640D01*
X2995790Y1844040D01*
X2997760Y1841930D01*
X2998540Y1837690D01*
X2997760Y1833460D01*
X2995390Y1830810D01*
X2992640Y1829230D01*
X2982800D01*
G01X2992640D02*
X2998540Y1813880D01*
G01X3013890Y1818110D02*
X3017040Y1815470D01*
X3020590Y1813880D01*
X3023730D01*
X3026880Y1815470D01*
X3029250Y1818110D01*
X3030430Y1821820D01*
X3029640Y1825520D01*
X3027670Y1828700D01*
X3024130Y1830810D01*
X3019400Y1831870D01*
X3016650Y1833990D01*
X3015470Y1837690D01*
X3016260Y1841400D01*
X3018220Y1844040D01*
X3020980Y1845630D01*
X3023730D01*
X3026490Y1844570D01*
X3028850Y1841930D01*
G01X2235100Y3034630D02*
X2237460Y3031990D01*
X2240220Y3030400D01*
X2243760Y3029870D01*
X2247300Y3030930D01*
X2250060Y3033040D01*
X2252030Y3036750D01*
X2252420Y3040980D01*
X2251630Y3045220D01*
X2249660Y3047860D01*
X2246910Y3049980D01*
X2244150Y3050510D01*
X2241400Y3049980D01*
X2237860Y3047860D01*
X2239040Y3061620D01*
X2249660D01*
G01X2275250Y3029870D02*
X2278010Y3030400D01*
X2281150Y3031990D01*
X2283120Y3034630D01*
X2283910Y3038340D01*
X2283120Y3042040D01*
X2280760Y3045220D01*
X2277220Y3046800D01*
X2273280D01*
X2270920Y3047860D01*
X2268950Y3050510D01*
X2268160Y3054210D01*
X2269350Y3057920D01*
X2272100Y3060560D01*
X2275250Y3061620D01*
X2278400Y3060560D01*
X2281150Y3057920D01*
X2282340Y3054210D01*
X2281550Y3050510D01*
X2279580Y3047860D01*
X2277220Y3046800D01*
X2273280D01*
X2269740Y3045220D01*
X2267380Y3042040D01*
X2266590Y3038340D01*
X2267380Y3034630D01*
X2269350Y3031990D01*
X2272490Y3030400D01*
X2275250Y3029870D01*
G01X2306740Y3028810D02*
X2305950Y3029340D01*
Y3030400D01*
X2306740Y3030930D01*
X2307530Y3030400D01*
Y3029340D01*
X2306740Y3028810D01*
G01X2329570Y3034630D02*
X2331930Y3031990D01*
X2334690Y3030400D01*
X2338230Y3029870D01*
X2341770Y3030930D01*
X2344530Y3033040D01*
X2346500Y3036750D01*
X2346890Y3040980D01*
X2346100Y3045220D01*
X2344130Y3047860D01*
X2341380Y3049980D01*
X2338620Y3050510D01*
X2335870Y3049980D01*
X2332330Y3047860D01*
X2333510Y3061620D01*
X2344130D01*
G01X2300400Y3214970D02*
X2317720Y3238260D01*
G01X2309060Y3242490D02*
Y3210740D01*
G01X2317720Y3214970D02*
X2300400Y3238260D01*
G01X2297250Y3226610D02*
X2320870D01*
G01X2394870Y3216030D02*
Y3247780D01*
X2402740D01*
X2405890Y3246190D01*
X2408250Y3244080D01*
X2410220Y3240900D01*
X2411800Y3237200D01*
X2412190Y3231900D01*
X2411800Y3226610D01*
X2410220Y3222910D01*
X2408250Y3219730D01*
X2405890Y3217620D01*
X2402740Y3216030D01*
X2394870D01*
G01X2430300Y3247780D02*
X2439740D01*
G01X2435020D02*
Y3216030D01*
G01X2430300D02*
X2439740D01*
G01X2474380D02*
X2458640D01*
Y3247780D01*
X2474380D01*
G01X2468080Y3232430D02*
X2458640D01*
G01X2490130Y3247780D02*
Y3216030D01*
X2505870D01*
G01X2537360D02*
X2521620D01*
Y3247780D01*
X2537360D01*
G01X2531060Y3232430D02*
X2521620D01*
G01X2569640Y3245130D02*
X2567280Y3246720D01*
X2564520Y3247780D01*
X2561370D01*
X2557830Y3246190D01*
X2555080Y3243550D01*
X2553110Y3240370D01*
X2551530Y3235080D01*
X2551140Y3230320D01*
X2551930Y3225550D01*
X2553110Y3222380D01*
X2555470Y3219200D01*
X2558220Y3217090D01*
X2560980Y3216030D01*
X2563740D01*
X2566490Y3217090D01*
X2568850Y3218680D01*
X2570820Y3220790D01*
G01X2592470Y3247780D02*
Y3216030D01*
G01X2583420Y3247780D02*
X2601520D01*
G01X2616090Y3216030D02*
Y3247780D01*
X2625930D01*
X2629080Y3246190D01*
X2631050Y3244080D01*
X2631830Y3239840D01*
X2631050Y3235610D01*
X2628680Y3232960D01*
X2625930Y3231380D01*
X2616090D01*
G01X2625930D02*
X2631830Y3216030D01*
G01X2650730Y3247780D02*
X2660170D01*
G01X2655450D02*
Y3216030D01*
G01X2650730D02*
X2660170D01*
G01X2695600Y3245130D02*
X2693240Y3246720D01*
X2690480Y3247780D01*
X2687330D01*
X2683790Y3246190D01*
X2681040Y3243550D01*
X2679070Y3240370D01*
X2677490Y3235080D01*
X2677100Y3230320D01*
X2677890Y3225550D01*
X2679070Y3222380D01*
X2681430Y3219200D01*
X2684180Y3217090D01*
X2686940Y3216030D01*
X2689700D01*
X2692450Y3217090D01*
X2694810Y3218680D01*
X2696780Y3220790D01*
G01X2744800Y3226610D02*
X2755040D01*
G01X2805420Y3216030D02*
Y3247780D01*
X2820380D01*
G01X2814870Y3232430D02*
X2805420D01*
G01X2836520Y3216030D02*
Y3247780D01*
X2846360D01*
X2849510Y3246190D01*
X2851480Y3244080D01*
X2852260Y3239840D01*
X2851480Y3235610D01*
X2849110Y3232960D01*
X2846360Y3231380D01*
X2836520D01*
G01X2846360D02*
X2852260Y3216030D01*
G01X2870760Y3226610D02*
X2881000D01*
G01X2912090Y3216030D02*
Y3247780D01*
X2897530Y3225030D01*
X2917210D01*
G01X2970350Y3247780D02*
X2967200Y3246720D01*
X2964840Y3244080D01*
X2963260Y3240900D01*
X2962080Y3236670D01*
X2961690Y3231900D01*
X2962080Y3227140D01*
X2963260Y3222910D01*
X2964840Y3219730D01*
X2967200Y3217090D01*
X2970350Y3216030D01*
X2973500Y3217090D01*
X2975860Y3219730D01*
X2977440Y3222910D01*
X2978620Y3227140D01*
X2979010Y3231900D01*
X2978620Y3236670D01*
X2977440Y3240900D01*
X2975860Y3244080D01*
X2973500Y3246720D01*
X2970350Y3247780D01*
G01X3001840Y3214970D02*
X3001050Y3215500D01*
Y3216560D01*
X3001840Y3217090D01*
X3002630Y3216560D01*
Y3215500D01*
X3001840Y3214970D01*
G01X3033330Y3216030D02*
Y3247780D01*
X3028610Y3241430D01*
G01Y3216030D02*
X3038050D01*
G01X3064030D02*
X3064820Y3222910D01*
X3066000Y3228730D01*
X3067580Y3234020D01*
X3069540Y3239840D01*
X3072690Y3247780D01*
X3056950D01*
G01X3087650Y3220790D02*
X3090010Y3218150D01*
X3092770Y3216560D01*
X3096310Y3216030D01*
X3099850Y3217090D01*
X3102610Y3219200D01*
X3104580Y3222910D01*
X3104970Y3227140D01*
X3104180Y3231380D01*
X3102210Y3234020D01*
X3099460Y3236140D01*
X3096700Y3236670D01*
X3093950Y3236140D01*
X3090410Y3234020D01*
X3091590Y3247780D01*
X3102210D01*
G01X3149050Y3216030D02*
Y3247780D01*
X3159290Y3221320D01*
X3169530Y3247780D01*
Y3216030D01*
G01X3180540D02*
Y3247780D01*
X3190780Y3221320D01*
X3201020Y3247780D01*
Y3216030D01*
G01X2238210Y3205450D02*
Y3173700D01*
X2253950D01*
G01X2282290D02*
Y3205450D01*
X2267730Y3182700D01*
X2287410D01*
G01X2309060Y3172640D02*
X2308270Y3173170D01*
Y3174230D01*
X2309060Y3174760D01*
X2309850Y3174230D01*
Y3173170D01*
X2309060Y3172640D01*
G01Y3186930D02*
X2308270Y3187460D01*
Y3188520D01*
X2309060Y3189050D01*
X2309850Y3188520D01*
Y3187460D01*
X2309060Y3186930D01*
G01X2375190Y3190630D02*
X2376760Y3192220D01*
X2377940Y3194870D01*
X2378730Y3198570D01*
X2377940Y3201750D01*
X2376370Y3203860D01*
X2373610Y3205450D01*
X2362990D01*
Y3173700D01*
X2375980D01*
X2378730Y3175820D01*
X2380310Y3178990D01*
X2381090Y3182700D01*
X2380310Y3186400D01*
X2377940Y3189570D01*
X2375190Y3190630D01*
X2362990D01*
G01X2403530Y3173700D02*
X2400380Y3174230D01*
X2397630Y3176350D01*
X2395260Y3179520D01*
X2393690Y3183220D01*
X2392900Y3187460D01*
Y3191690D01*
X2393690Y3195930D01*
X2395260Y3199630D01*
X2397630Y3202800D01*
X2400380Y3204920D01*
X2403530Y3205450D01*
X2406680Y3204920D01*
X2409430Y3202800D01*
X2411800Y3199630D01*
X2413370Y3195930D01*
X2414160Y3191690D01*
Y3187460D01*
X2413370Y3183220D01*
X2411800Y3179520D01*
X2409430Y3176350D01*
X2406680Y3174230D01*
X2403530Y3173700D01*
G01X2435020Y3205450D02*
Y3173700D01*
G01X2425970Y3205450D02*
X2444070D01*
G01X2466510D02*
Y3173700D01*
G01X2457460Y3205450D02*
X2475560D01*
G01X2498000Y3173700D02*
X2494850Y3174230D01*
X2492100Y3176350D01*
X2489730Y3179520D01*
X2488160Y3183220D01*
X2487370Y3187460D01*
Y3191690D01*
X2488160Y3195930D01*
X2489730Y3199630D01*
X2492100Y3202800D01*
X2494850Y3204920D01*
X2498000Y3205450D01*
X2501150Y3204920D01*
X2503900Y3202800D01*
X2506270Y3199630D01*
X2507840Y3195930D01*
X2508630Y3191690D01*
Y3187460D01*
X2507840Y3183220D01*
X2506270Y3179520D01*
X2503900Y3176350D01*
X2501150Y3174230D01*
X2498000Y3173700D01*
G01X2519250D02*
Y3205450D01*
X2529490Y3178990D01*
X2539730Y3205450D01*
Y3173700D01*
G01X2601130Y3202800D02*
X2598770Y3204390D01*
X2596010Y3205450D01*
X2592860D01*
X2589320Y3203860D01*
X2586570Y3201220D01*
X2584600Y3198040D01*
X2583020Y3192750D01*
X2582630Y3187990D01*
X2583420Y3183220D01*
X2584600Y3180050D01*
X2586960Y3176870D01*
X2589710Y3174760D01*
X2592470Y3173700D01*
X2595230D01*
X2597980Y3174760D01*
X2600340Y3176350D01*
X2602310Y3178460D01*
G01X2623960Y3173700D02*
X2620810Y3174230D01*
X2618060Y3176350D01*
X2615690Y3179520D01*
X2614120Y3183220D01*
X2613330Y3187460D01*
Y3191690D01*
X2614120Y3195930D01*
X2615690Y3199630D01*
X2618060Y3202800D01*
X2620810Y3204920D01*
X2623960Y3205450D01*
X2627110Y3204920D01*
X2629860Y3202800D01*
X2632230Y3199630D01*
X2633800Y3195930D01*
X2634590Y3191690D01*
Y3187460D01*
X2633800Y3183220D01*
X2632230Y3179520D01*
X2629860Y3176350D01*
X2627110Y3174230D01*
X2623960Y3173700D01*
G01X2646400D02*
Y3205450D01*
X2664500Y3173700D01*
Y3205450D01*
G01X2678280Y3173700D02*
Y3205450D01*
X2686150D01*
X2689300Y3203860D01*
X2691660Y3201750D01*
X2693630Y3198570D01*
X2695210Y3194870D01*
X2695600Y3189570D01*
X2695210Y3184280D01*
X2693630Y3180580D01*
X2691660Y3177400D01*
X2689300Y3175290D01*
X2686150Y3173700D01*
X2678280D01*
G01X2709770Y3205450D02*
Y3182700D01*
X2711340Y3177930D01*
X2714490Y3174760D01*
X2718430Y3173700D01*
X2722370Y3174760D01*
X2725520Y3177930D01*
X2727090Y3182700D01*
Y3205450D01*
G01X2758580Y3202800D02*
X2756220Y3204390D01*
X2753460Y3205450D01*
X2750310D01*
X2746770Y3203860D01*
X2744020Y3201220D01*
X2742050Y3198040D01*
X2740470Y3192750D01*
X2740080Y3187990D01*
X2740870Y3183220D01*
X2742050Y3180050D01*
X2744410Y3176870D01*
X2747160Y3174760D01*
X2749920Y3173700D01*
X2752680D01*
X2755430Y3174760D01*
X2757790Y3176350D01*
X2759760Y3178460D01*
G01X2781410Y3205450D02*
Y3173700D01*
G01X2772360Y3205450D02*
X2790460D01*
G01X2812900Y3173700D02*
X2809750Y3174230D01*
X2807000Y3176350D01*
X2804630Y3179520D01*
X2803060Y3183220D01*
X2802270Y3187460D01*
Y3191690D01*
X2803060Y3195930D01*
X2804630Y3199630D01*
X2807000Y3202800D01*
X2809750Y3204920D01*
X2812900Y3205450D01*
X2816050Y3204920D01*
X2818800Y3202800D01*
X2821170Y3199630D01*
X2822740Y3195930D01*
X2823530Y3191690D01*
Y3187460D01*
X2822740Y3183220D01*
X2821170Y3179520D01*
X2818800Y3176350D01*
X2816050Y3174230D01*
X2812900Y3173700D01*
G01X2836520D02*
Y3205450D01*
X2846360D01*
X2849510Y3203860D01*
X2851480Y3201750D01*
X2852260Y3197510D01*
X2851480Y3193280D01*
X2849110Y3190630D01*
X2846360Y3189050D01*
X2836520D01*
G01X2846360D02*
X2852260Y3173700D01*
G01X2902250Y3184280D02*
X2912490D01*
G01X2979010Y3202800D02*
X2976650Y3204390D01*
X2973890Y3205450D01*
X2970740D01*
X2967200Y3203860D01*
X2964450Y3201220D01*
X2962480Y3198040D01*
X2960900Y3192750D01*
X2960510Y3187990D01*
X2961300Y3183220D01*
X2962480Y3180050D01*
X2964840Y3176870D01*
X2967590Y3174760D01*
X2970350Y3173700D01*
X2973110D01*
X2975860Y3174760D01*
X2978220Y3176350D01*
X2980190Y3178460D01*
G01X3001840Y3173700D02*
X2998690Y3174230D01*
X2995940Y3176350D01*
X2993570Y3179520D01*
X2992000Y3183220D01*
X2991210Y3187460D01*
Y3191690D01*
X2992000Y3195930D01*
X2993570Y3199630D01*
X2995940Y3202800D01*
X2998690Y3204920D01*
X3001840Y3205450D01*
X3004990Y3204920D01*
X3007740Y3202800D01*
X3010110Y3199630D01*
X3011680Y3195930D01*
X3012470Y3191690D01*
Y3187460D01*
X3011680Y3183220D01*
X3010110Y3179520D01*
X3007740Y3176350D01*
X3004990Y3174230D01*
X3001840Y3173700D01*
G01X3025460D02*
Y3205450D01*
X3034900D01*
X3038050Y3203860D01*
X3040420Y3200160D01*
X3041200Y3195930D01*
X3040420Y3191690D01*
X3038450Y3188520D01*
X3034900Y3186930D01*
X3025460D01*
G01X3056950Y3173700D02*
Y3205450D01*
X3066390D01*
X3069540Y3203860D01*
X3071910Y3200160D01*
X3072690Y3195930D01*
X3071910Y3191690D01*
X3069940Y3188520D01*
X3066390Y3186930D01*
X3056950D01*
G01X3104180Y3173700D02*
X3088440D01*
Y3205450D01*
X3104180D01*
G01X3097880Y3190100D02*
X3088440D01*
G01X3119930Y3173700D02*
Y3205450D01*
X3129770D01*
X3132920Y3203860D01*
X3134890Y3201750D01*
X3135670Y3197510D01*
X3134890Y3193280D01*
X3132520Y3190630D01*
X3129770Y3189050D01*
X3119930D01*
G01X3129770D02*
X3135670Y3173700D01*
G01X3190780Y3205450D02*
X3187630Y3204390D01*
X3185270Y3201750D01*
X3183690Y3198570D01*
X3182510Y3194340D01*
X3182120Y3189570D01*
X3182510Y3184810D01*
X3183690Y3180580D01*
X3185270Y3177400D01*
X3187630Y3174760D01*
X3190780Y3173700D01*
X3193930Y3174760D01*
X3196290Y3177400D01*
X3197870Y3180580D01*
X3199050Y3184810D01*
X3199440Y3189570D01*
X3199050Y3194340D01*
X3197870Y3198570D01*
X3196290Y3201750D01*
X3193930Y3204390D01*
X3190780Y3205450D01*
G01X3222270Y3172640D02*
X3221480Y3173170D01*
Y3174230D01*
X3222270Y3174760D01*
X3223060Y3174230D01*
Y3173170D01*
X3222270Y3172640D01*
G01X3253760Y3205450D02*
X3250610Y3204390D01*
X3248250Y3201750D01*
X3246670Y3198570D01*
X3245490Y3194340D01*
X3245100Y3189570D01*
X3245490Y3184810D01*
X3246670Y3180580D01*
X3248250Y3177400D01*
X3250610Y3174760D01*
X3253760Y3173700D01*
X3256910Y3174760D01*
X3259270Y3177400D01*
X3260850Y3180580D01*
X3262030Y3184810D01*
X3262420Y3189570D01*
X3262030Y3194340D01*
X3260850Y3198570D01*
X3259270Y3201750D01*
X3256910Y3204390D01*
X3253760Y3205450D01*
G01X3276590Y3180050D02*
X3278950Y3176350D01*
X3282100Y3174230D01*
X3285640Y3173700D01*
X3288790Y3174230D01*
X3291940Y3176870D01*
X3293910Y3180050D01*
X3294300Y3183220D01*
X3293520Y3186930D01*
X3290760Y3189570D01*
X3288010Y3190630D01*
X3284460D01*
G01X3288010D02*
X3290370Y3192220D01*
X3292340Y3194870D01*
X3293120Y3198040D01*
X3292340Y3201220D01*
X3290370Y3203860D01*
X3286820Y3205450D01*
X3283280Y3204920D01*
X3279740Y3202800D01*
G01X3308080Y3178460D02*
X3310440Y3175820D01*
X3313200Y3174230D01*
X3316740Y3173700D01*
X3320280Y3174760D01*
X3323040Y3176870D01*
X3325010Y3180580D01*
X3325400Y3184810D01*
X3324610Y3189050D01*
X3322640Y3191690D01*
X3319890Y3193810D01*
X3317130Y3194340D01*
X3314380Y3193810D01*
X3310840Y3191690D01*
X3312020Y3205450D01*
X3322640D01*
G01X3369480Y3173700D02*
Y3205450D01*
X3379720Y3178990D01*
X3389960Y3205450D01*
Y3173700D01*
G01X3400970D02*
Y3205450D01*
X3411210Y3178990D01*
X3421450Y3205450D01*
Y3173700D01*
G01X2238210Y3309030D02*
Y3277280D01*
X2253950D01*
G01X2268910Y3283630D02*
X2271270Y3279930D01*
X2274420Y3277810D01*
X2277960Y3277280D01*
X2281110Y3277810D01*
X2284260Y3280450D01*
X2286230Y3283630D01*
X2286620Y3286800D01*
X2285840Y3290510D01*
X2283080Y3293150D01*
X2280330Y3294210D01*
X2276780D01*
G01X2280330D02*
X2282690Y3295800D01*
X2284660Y3298450D01*
X2285440Y3301620D01*
X2284660Y3304800D01*
X2282690Y3307440D01*
X2279140Y3309030D01*
X2275600Y3308500D01*
X2272060Y3306380D01*
G01X2309060Y3276220D02*
X2308270Y3276750D01*
Y3277810D01*
X2309060Y3278340D01*
X2309850Y3277810D01*
Y3276750D01*
X2309060Y3276220D01*
G01Y3290510D02*
X2308270Y3291040D01*
Y3292100D01*
X2309060Y3292630D01*
X2309850Y3292100D01*
Y3291040D01*
X2309060Y3290510D01*
G01X2364170Y3309030D02*
Y3277280D01*
X2379910D01*
G01X2394870Y3283630D02*
X2397230Y3279930D01*
X2400380Y3277810D01*
X2403920Y3277280D01*
X2407070Y3277810D01*
X2410220Y3280450D01*
X2412190Y3283630D01*
X2412580Y3286800D01*
X2411800Y3290510D01*
X2409040Y3293150D01*
X2406290Y3294210D01*
X2402740D01*
G01X2406290D02*
X2408650Y3295800D01*
X2410620Y3298450D01*
X2411400Y3301620D01*
X2410620Y3304800D01*
X2408650Y3307440D01*
X2405100Y3309030D01*
X2401560Y3308500D01*
X2398020Y3306380D01*
G01X2458640Y3277280D02*
Y3309030D01*
X2468080D01*
X2471230Y3307440D01*
X2473600Y3303740D01*
X2474380Y3299510D01*
X2473600Y3295270D01*
X2471630Y3292100D01*
X2468080Y3290510D01*
X2458640D01*
G01X2490130Y3309030D02*
Y3277280D01*
X2505870D01*
G01X2519650D02*
X2529490Y3309030D01*
X2539330Y3277280D01*
G01X2535790Y3288390D02*
X2523190D01*
G01X2551930Y3277280D02*
Y3309030D01*
X2570030Y3277280D01*
Y3309030D01*
G01X2600340Y3277280D02*
X2584600D01*
Y3309030D01*
X2600340D01*
G01X2594040Y3293680D02*
X2584600D01*
G01X2650330Y3287860D02*
X2660570D01*
G01X2727090Y3306380D02*
X2724730Y3307970D01*
X2721970Y3309030D01*
X2718820D01*
X2715280Y3307440D01*
X2712530Y3304800D01*
X2710560Y3301620D01*
X2708980Y3296330D01*
X2708590Y3291570D01*
X2709380Y3286800D01*
X2710560Y3283630D01*
X2712920Y3280450D01*
X2715670Y3278340D01*
X2718430Y3277280D01*
X2721190D01*
X2723940Y3278340D01*
X2726300Y3279930D01*
X2728270Y3282040D01*
G01X2749920Y3277280D02*
X2746770Y3277810D01*
X2744020Y3279930D01*
X2741650Y3283100D01*
X2740080Y3286800D01*
X2739290Y3291040D01*
Y3295270D01*
X2740080Y3299510D01*
X2741650Y3303210D01*
X2744020Y3306380D01*
X2746770Y3308500D01*
X2749920Y3309030D01*
X2753070Y3308500D01*
X2755820Y3306380D01*
X2758190Y3303210D01*
X2759760Y3299510D01*
X2760550Y3295270D01*
Y3291040D01*
X2759760Y3286800D01*
X2758190Y3283100D01*
X2755820Y3279930D01*
X2753070Y3277810D01*
X2749920Y3277280D01*
G01X2773540D02*
Y3309030D01*
X2782980D01*
X2786130Y3307440D01*
X2788500Y3303740D01*
X2789280Y3299510D01*
X2788500Y3295270D01*
X2786530Y3292100D01*
X2782980Y3290510D01*
X2773540D01*
G01X2805030Y3277280D02*
Y3309030D01*
X2814470D01*
X2817620Y3307440D01*
X2819990Y3303740D01*
X2820770Y3299510D01*
X2819990Y3295270D01*
X2818020Y3292100D01*
X2814470Y3290510D01*
X2805030D01*
G01X2852260Y3277280D02*
X2836520D01*
Y3309030D01*
X2852260D01*
G01X2845960Y3293680D02*
X2836520D01*
G01X2868010Y3277280D02*
Y3309030D01*
X2877850D01*
X2881000Y3307440D01*
X2882970Y3305330D01*
X2883750Y3301090D01*
X2882970Y3296860D01*
X2880600Y3294210D01*
X2877850Y3292630D01*
X2868010D01*
G01X2877850D02*
X2883750Y3277280D01*
G01X2938860Y3309030D02*
X2935710Y3307970D01*
X2933350Y3305330D01*
X2931770Y3302150D01*
X2930590Y3297920D01*
X2930200Y3293150D01*
X2930590Y3288390D01*
X2931770Y3284160D01*
X2933350Y3280980D01*
X2935710Y3278340D01*
X2938860Y3277280D01*
X2942010Y3278340D01*
X2944370Y3280980D01*
X2945950Y3284160D01*
X2947130Y3288390D01*
X2947520Y3293150D01*
X2947130Y3297920D01*
X2945950Y3302150D01*
X2944370Y3305330D01*
X2942010Y3307970D01*
X2938860Y3309030D01*
G01X2970350Y3276220D02*
X2969560Y3276750D01*
Y3277810D01*
X2970350Y3278340D01*
X2971140Y3277810D01*
Y3276750D01*
X2970350Y3276220D01*
G01X3001840Y3309030D02*
X2998690Y3307970D01*
X2996330Y3305330D01*
X2994750Y3302150D01*
X2993570Y3297920D01*
X2993180Y3293150D01*
X2993570Y3288390D01*
X2994750Y3284160D01*
X2996330Y3280980D01*
X2998690Y3278340D01*
X3001840Y3277280D01*
X3004990Y3278340D01*
X3007350Y3280980D01*
X3008930Y3284160D01*
X3010110Y3288390D01*
X3010500Y3293150D01*
X3010110Y3297920D01*
X3008930Y3302150D01*
X3007350Y3305330D01*
X3004990Y3307970D01*
X3001840Y3309030D01*
G01X3024670Y3283630D02*
X3027030Y3279930D01*
X3030180Y3277810D01*
X3033720Y3277280D01*
X3036870Y3277810D01*
X3040020Y3280450D01*
X3041990Y3283630D01*
X3042380Y3286800D01*
X3041600Y3290510D01*
X3038840Y3293150D01*
X3036090Y3294210D01*
X3032540D01*
G01X3036090D02*
X3038450Y3295800D01*
X3040420Y3298450D01*
X3041200Y3301620D01*
X3040420Y3304800D01*
X3038450Y3307440D01*
X3034900Y3309030D01*
X3031360Y3308500D01*
X3027820Y3306380D01*
G01X3056160Y3282040D02*
X3058520Y3279400D01*
X3061280Y3277810D01*
X3064820Y3277280D01*
X3068360Y3278340D01*
X3071120Y3280450D01*
X3073090Y3284160D01*
X3073480Y3288390D01*
X3072690Y3292630D01*
X3070720Y3295270D01*
X3067970Y3297390D01*
X3065210Y3297920D01*
X3062460Y3297390D01*
X3058920Y3295270D01*
X3060100Y3309030D01*
X3070720D01*
G01X3117560Y3277280D02*
Y3309030D01*
X3127800Y3282570D01*
X3138040Y3309030D01*
Y3277280D01*
G01X3149050D02*
Y3309030D01*
X3159290Y3282570D01*
X3169530Y3309030D01*
Y3277280D01*
G01X2238210Y3552820D02*
Y3521070D01*
X2253950D01*
G01X2270090Y3547530D02*
X2272450Y3550700D01*
X2275210Y3552290D01*
X2278360Y3552820D01*
X2282290Y3551760D01*
X2285050Y3549120D01*
X2285840Y3545940D01*
X2285440Y3542770D01*
X2283870Y3540120D01*
X2276000Y3534830D01*
X2272450Y3531120D01*
X2270090Y3525830D01*
X2269300Y3521070D01*
X2285840D01*
G01X2309060Y3520010D02*
X2308270Y3520540D01*
Y3521600D01*
X2309060Y3522130D01*
X2309850Y3521600D01*
Y3520540D01*
X2309060Y3520010D01*
G01Y3534300D02*
X2308270Y3534830D01*
Y3535890D01*
X2309060Y3536420D01*
X2309850Y3535890D01*
Y3534830D01*
X2309060Y3534300D01*
G01X2364170Y3552820D02*
Y3521070D01*
X2379910D01*
G01X2396050Y3547530D02*
X2398410Y3550700D01*
X2401170Y3552290D01*
X2404320Y3552820D01*
X2408250Y3551760D01*
X2411010Y3549120D01*
X2411800Y3545940D01*
X2411400Y3542770D01*
X2409830Y3540120D01*
X2401960Y3534830D01*
X2398410Y3531120D01*
X2396050Y3525830D01*
X2395260Y3521070D01*
X2411800D01*
G01X2458640D02*
Y3552820D01*
X2468080D01*
X2471230Y3551230D01*
X2473600Y3547530D01*
X2474380Y3543300D01*
X2473600Y3539060D01*
X2471630Y3535890D01*
X2468080Y3534300D01*
X2458640D01*
G01X2490130Y3552820D02*
Y3521070D01*
X2505870D01*
G01X2519650D02*
X2529490Y3552820D01*
X2539330Y3521070D01*
G01X2535790Y3532180D02*
X2523190D01*
G01X2551930Y3521070D02*
Y3552820D01*
X2570030Y3521070D01*
Y3552820D01*
G01X2600340Y3521070D02*
X2584600D01*
Y3552820D01*
X2600340D01*
G01X2594040Y3537470D02*
X2584600D01*
G01X2650330Y3531650D02*
X2660570D01*
G01X2727090Y3550170D02*
X2724730Y3551760D01*
X2721970Y3552820D01*
X2718820D01*
X2715280Y3551230D01*
X2712530Y3548590D01*
X2710560Y3545410D01*
X2708980Y3540120D01*
X2708590Y3535360D01*
X2709380Y3530590D01*
X2710560Y3527420D01*
X2712920Y3524240D01*
X2715670Y3522130D01*
X2718430Y3521070D01*
X2721190D01*
X2723940Y3522130D01*
X2726300Y3523720D01*
X2728270Y3525830D01*
G01X2749920Y3521070D02*
X2746770Y3521600D01*
X2744020Y3523720D01*
X2741650Y3526890D01*
X2740080Y3530590D01*
X2739290Y3534830D01*
Y3539060D01*
X2740080Y3543300D01*
X2741650Y3547000D01*
X2744020Y3550170D01*
X2746770Y3552290D01*
X2749920Y3552820D01*
X2753070Y3552290D01*
X2755820Y3550170D01*
X2758190Y3547000D01*
X2759760Y3543300D01*
X2760550Y3539060D01*
Y3534830D01*
X2759760Y3530590D01*
X2758190Y3526890D01*
X2755820Y3523720D01*
X2753070Y3521600D01*
X2749920Y3521070D01*
G01X2773540D02*
Y3552820D01*
X2782980D01*
X2786130Y3551230D01*
X2788500Y3547530D01*
X2789280Y3543300D01*
X2788500Y3539060D01*
X2786530Y3535890D01*
X2782980Y3534300D01*
X2773540D01*
G01X2805030Y3521070D02*
Y3552820D01*
X2814470D01*
X2817620Y3551230D01*
X2819990Y3547530D01*
X2820770Y3543300D01*
X2819990Y3539060D01*
X2818020Y3535890D01*
X2814470Y3534300D01*
X2805030D01*
G01X2852260Y3521070D02*
X2836520D01*
Y3552820D01*
X2852260D01*
G01X2845960Y3537470D02*
X2836520D01*
G01X2868010Y3521070D02*
Y3552820D01*
X2877850D01*
X2881000Y3551230D01*
X2882970Y3549120D01*
X2883750Y3544880D01*
X2882970Y3540650D01*
X2880600Y3538000D01*
X2877850Y3536420D01*
X2868010D01*
G01X2877850D02*
X2883750Y3521070D01*
G01X2938860Y3552820D02*
X2935710Y3551760D01*
X2933350Y3549120D01*
X2931770Y3545940D01*
X2930590Y3541710D01*
X2930200Y3536940D01*
X2930590Y3532180D01*
X2931770Y3527950D01*
X2933350Y3524770D01*
X2935710Y3522130D01*
X2938860Y3521070D01*
X2942010Y3522130D01*
X2944370Y3524770D01*
X2945950Y3527950D01*
X2947130Y3532180D01*
X2947520Y3536940D01*
X2947130Y3541710D01*
X2945950Y3545940D01*
X2944370Y3549120D01*
X2942010Y3551760D01*
X2938860Y3552820D01*
G01X2970350Y3520010D02*
X2969560Y3520540D01*
Y3521600D01*
X2970350Y3522130D01*
X2971140Y3521600D01*
Y3520540D01*
X2970350Y3520010D01*
G01X3001840Y3552820D02*
X2998690Y3551760D01*
X2996330Y3549120D01*
X2994750Y3545940D01*
X2993570Y3541710D01*
X2993180Y3536940D01*
X2993570Y3532180D01*
X2994750Y3527950D01*
X2996330Y3524770D01*
X2998690Y3522130D01*
X3001840Y3521070D01*
X3004990Y3522130D01*
X3007350Y3524770D01*
X3008930Y3527950D01*
X3010110Y3532180D01*
X3010500Y3536940D01*
X3010110Y3541710D01*
X3008930Y3545940D01*
X3007350Y3549120D01*
X3004990Y3551760D01*
X3001840Y3552820D01*
G01X3024670Y3527420D02*
X3027030Y3523720D01*
X3030180Y3521600D01*
X3033720Y3521070D01*
X3036870Y3521600D01*
X3040020Y3524240D01*
X3041990Y3527420D01*
X3042380Y3530590D01*
X3041600Y3534300D01*
X3038840Y3536940D01*
X3036090Y3538000D01*
X3032540D01*
G01X3036090D02*
X3038450Y3539590D01*
X3040420Y3542240D01*
X3041200Y3545410D01*
X3040420Y3548590D01*
X3038450Y3551230D01*
X3034900Y3552820D01*
X3031360Y3552290D01*
X3027820Y3550170D01*
G01X3056160Y3525830D02*
X3058520Y3523190D01*
X3061280Y3521600D01*
X3064820Y3521070D01*
X3068360Y3522130D01*
X3071120Y3524240D01*
X3073090Y3527950D01*
X3073480Y3532180D01*
X3072690Y3536420D01*
X3070720Y3539060D01*
X3067970Y3541180D01*
X3065210Y3541710D01*
X3062460Y3541180D01*
X3058920Y3539060D01*
X3060100Y3552820D01*
X3070720D01*
G01X3117560Y3521070D02*
Y3552820D01*
X3127800Y3526360D01*
X3138040Y3552820D01*
Y3521070D01*
G01X3149050D02*
Y3552820D01*
X3159290Y3526360D01*
X3169530Y3552820D01*
Y3521070D01*
G01X2300400Y3415680D02*
X2317720Y3438970D01*
G01X2309060Y3443200D02*
Y3411450D01*
G01X2317720Y3415680D02*
X2300400Y3438970D01*
G01X2297250Y3427320D02*
X2320870D01*
G01X2394870Y3416740D02*
Y3448490D01*
X2402740D01*
X2405890Y3446900D01*
X2408250Y3444790D01*
X2410220Y3441610D01*
X2411800Y3437910D01*
X2412190Y3432610D01*
X2411800Y3427320D01*
X2410220Y3423620D01*
X2408250Y3420440D01*
X2405890Y3418330D01*
X2402740Y3416740D01*
X2394870D01*
G01X2430300Y3448490D02*
X2439740D01*
G01X2435020D02*
Y3416740D01*
G01X2430300D02*
X2439740D01*
G01X2474380D02*
X2458640D01*
Y3448490D01*
X2474380D01*
G01X2468080Y3433140D02*
X2458640D01*
G01X2490130Y3448490D02*
Y3416740D01*
X2505870D01*
G01X2537360D02*
X2521620D01*
Y3448490D01*
X2537360D01*
G01X2531060Y3433140D02*
X2521620D01*
G01X2569640Y3445840D02*
X2567280Y3447430D01*
X2564520Y3448490D01*
X2561370D01*
X2557830Y3446900D01*
X2555080Y3444260D01*
X2553110Y3441080D01*
X2551530Y3435790D01*
X2551140Y3431030D01*
X2551930Y3426260D01*
X2553110Y3423090D01*
X2555470Y3419910D01*
X2558220Y3417800D01*
X2560980Y3416740D01*
X2563740D01*
X2566490Y3417800D01*
X2568850Y3419390D01*
X2570820Y3421500D01*
G01X2592470Y3448490D02*
Y3416740D01*
G01X2583420Y3448490D02*
X2601520D01*
G01X2616090Y3416740D02*
Y3448490D01*
X2625930D01*
X2629080Y3446900D01*
X2631050Y3444790D01*
X2631830Y3440550D01*
X2631050Y3436320D01*
X2628680Y3433670D01*
X2625930Y3432090D01*
X2616090D01*
G01X2625930D02*
X2631830Y3416740D01*
G01X2650730Y3448490D02*
X2660170D01*
G01X2655450D02*
Y3416740D01*
G01X2650730D02*
X2660170D01*
G01X2695600Y3445840D02*
X2693240Y3447430D01*
X2690480Y3448490D01*
X2687330D01*
X2683790Y3446900D01*
X2681040Y3444260D01*
X2679070Y3441080D01*
X2677490Y3435790D01*
X2677100Y3431030D01*
X2677890Y3426260D01*
X2679070Y3423090D01*
X2681430Y3419910D01*
X2684180Y3417800D01*
X2686940Y3416740D01*
X2689700D01*
X2692450Y3417800D01*
X2694810Y3419390D01*
X2696780Y3421500D01*
G01X2744800Y3427320D02*
X2755040D01*
G01X2805420Y3416740D02*
Y3448490D01*
X2820380D01*
G01X2814870Y3433140D02*
X2805420D01*
G01X2836520Y3416740D02*
Y3448490D01*
X2846360D01*
X2849510Y3446900D01*
X2851480Y3444790D01*
X2852260Y3440550D01*
X2851480Y3436320D01*
X2849110Y3433670D01*
X2846360Y3432090D01*
X2836520D01*
G01X2846360D02*
X2852260Y3416740D01*
G01X2870760Y3427320D02*
X2881000D01*
G01X2912090Y3416740D02*
Y3448490D01*
X2897530Y3425740D01*
X2917210D01*
G01X2970350Y3416740D02*
Y3448490D01*
X2965630Y3442140D01*
G01Y3416740D02*
X2975070D01*
G01X3001840Y3415680D02*
X3001050Y3416210D01*
Y3417270D01*
X3001840Y3417800D01*
X3002630Y3417270D01*
Y3416210D01*
X3001840Y3415680D01*
G01X3033330Y3416740D02*
Y3448490D01*
X3028610Y3442140D01*
G01Y3416740D02*
X3038050D01*
G01X3064820D02*
Y3448490D01*
X3060100Y3442140D01*
G01Y3416740D02*
X3069540D01*
G01X3117560D02*
Y3448490D01*
X3127800Y3422030D01*
X3138040Y3448490D01*
Y3416740D01*
G01X3149050D02*
Y3448490D01*
X3159290Y3422030D01*
X3169530Y3448490D01*
Y3416740D01*
G01X2238210Y3656400D02*
Y3624650D01*
X2253950D01*
G01X2277570D02*
Y3656400D01*
X2272850Y3650050D01*
G01Y3624650D02*
X2282290D01*
G01X2309060Y3623590D02*
X2308270Y3624120D01*
Y3625180D01*
X2309060Y3625710D01*
X2309850Y3625180D01*
Y3624120D01*
X2309060Y3623590D01*
G01Y3637880D02*
X2308270Y3638410D01*
Y3639470D01*
X2309060Y3640000D01*
X2309850Y3639470D01*
Y3638410D01*
X2309060Y3637880D01*
G01X2372040Y3656400D02*
Y3624650D01*
G01X2362990Y3656400D02*
X2381090D01*
G01X2403530Y3624650D02*
X2400380Y3625180D01*
X2397630Y3627300D01*
X2395260Y3630470D01*
X2393690Y3634170D01*
X2392900Y3638410D01*
Y3642640D01*
X2393690Y3646880D01*
X2395260Y3650580D01*
X2397630Y3653750D01*
X2400380Y3655870D01*
X2403530Y3656400D01*
X2406680Y3655870D01*
X2409430Y3653750D01*
X2411800Y3650580D01*
X2413370Y3646880D01*
X2414160Y3642640D01*
Y3638410D01*
X2413370Y3634170D01*
X2411800Y3630470D01*
X2409430Y3627300D01*
X2406680Y3625180D01*
X2403530Y3624650D01*
G01X2427150D02*
Y3656400D01*
X2436590D01*
X2439740Y3654810D01*
X2442110Y3651110D01*
X2442890Y3646880D01*
X2442110Y3642640D01*
X2440140Y3639470D01*
X2436590Y3637880D01*
X2427150D01*
G01X2506660Y3653750D02*
X2504300Y3655340D01*
X2501540Y3656400D01*
X2498390D01*
X2494850Y3654810D01*
X2492100Y3652170D01*
X2490130Y3648990D01*
X2488550Y3643700D01*
X2488160Y3638940D01*
X2488950Y3634170D01*
X2490130Y3631000D01*
X2492490Y3627820D01*
X2495240Y3625710D01*
X2498000Y3624650D01*
X2500760D01*
X2503510Y3625710D01*
X2505870Y3627300D01*
X2507840Y3629410D01*
G01X2529490Y3624650D02*
X2526340Y3625180D01*
X2523590Y3627300D01*
X2521220Y3630470D01*
X2519650Y3634170D01*
X2518860Y3638410D01*
Y3642640D01*
X2519650Y3646880D01*
X2521220Y3650580D01*
X2523590Y3653750D01*
X2526340Y3655870D01*
X2529490Y3656400D01*
X2532640Y3655870D01*
X2535390Y3653750D01*
X2537760Y3650580D01*
X2539330Y3646880D01*
X2540120Y3642640D01*
Y3638410D01*
X2539330Y3634170D01*
X2537760Y3630470D01*
X2535390Y3627300D01*
X2532640Y3625180D01*
X2529490Y3624650D01*
G01X2551930D02*
Y3656400D01*
X2570030Y3624650D01*
Y3656400D01*
G01X2583810Y3624650D02*
Y3656400D01*
X2591680D01*
X2594830Y3654810D01*
X2597190Y3652700D01*
X2599160Y3649520D01*
X2600740Y3645820D01*
X2601130Y3640520D01*
X2600740Y3635230D01*
X2599160Y3631530D01*
X2597190Y3628350D01*
X2594830Y3626240D01*
X2591680Y3624650D01*
X2583810D01*
G01X2615300Y3656400D02*
Y3633650D01*
X2616870Y3628880D01*
X2620020Y3625710D01*
X2623960Y3624650D01*
X2627900Y3625710D01*
X2631050Y3628880D01*
X2632620Y3633650D01*
Y3656400D01*
G01X2664110Y3653750D02*
X2661750Y3655340D01*
X2658990Y3656400D01*
X2655840D01*
X2652300Y3654810D01*
X2649550Y3652170D01*
X2647580Y3648990D01*
X2646000Y3643700D01*
X2645610Y3638940D01*
X2646400Y3634170D01*
X2647580Y3631000D01*
X2649940Y3627820D01*
X2652690Y3625710D01*
X2655450Y3624650D01*
X2658210D01*
X2660960Y3625710D01*
X2663320Y3627300D01*
X2665290Y3629410D01*
G01X2686940Y3656400D02*
Y3624650D01*
G01X2677890Y3656400D02*
X2695990D01*
G01X2718430Y3624650D02*
X2715280Y3625180D01*
X2712530Y3627300D01*
X2710160Y3630470D01*
X2708590Y3634170D01*
X2707800Y3638410D01*
Y3642640D01*
X2708590Y3646880D01*
X2710160Y3650580D01*
X2712530Y3653750D01*
X2715280Y3655870D01*
X2718430Y3656400D01*
X2721580Y3655870D01*
X2724330Y3653750D01*
X2726700Y3650580D01*
X2728270Y3646880D01*
X2729060Y3642640D01*
Y3638410D01*
X2728270Y3634170D01*
X2726700Y3630470D01*
X2724330Y3627300D01*
X2721580Y3625180D01*
X2718430Y3624650D01*
G01X2742050D02*
Y3656400D01*
X2751890D01*
X2755040Y3654810D01*
X2757010Y3652700D01*
X2757790Y3648460D01*
X2757010Y3644230D01*
X2754640Y3641580D01*
X2751890Y3640000D01*
X2742050D01*
G01X2751890D02*
X2757790Y3624650D01*
G01X2807780Y3635230D02*
X2818020D01*
G01X2884540Y3653750D02*
X2882180Y3655340D01*
X2879420Y3656400D01*
X2876270D01*
X2872730Y3654810D01*
X2869980Y3652170D01*
X2868010Y3648990D01*
X2866430Y3643700D01*
X2866040Y3638940D01*
X2866830Y3634170D01*
X2868010Y3631000D01*
X2870370Y3627820D01*
X2873120Y3625710D01*
X2875880Y3624650D01*
X2878640D01*
X2881390Y3625710D01*
X2883750Y3627300D01*
X2885720Y3629410D01*
G01X2907370Y3624650D02*
X2904220Y3625180D01*
X2901470Y3627300D01*
X2899100Y3630470D01*
X2897530Y3634170D01*
X2896740Y3638410D01*
Y3642640D01*
X2897530Y3646880D01*
X2899100Y3650580D01*
X2901470Y3653750D01*
X2904220Y3655870D01*
X2907370Y3656400D01*
X2910520Y3655870D01*
X2913270Y3653750D01*
X2915640Y3650580D01*
X2917210Y3646880D01*
X2918000Y3642640D01*
Y3638410D01*
X2917210Y3634170D01*
X2915640Y3630470D01*
X2913270Y3627300D01*
X2910520Y3625180D01*
X2907370Y3624650D01*
G01X2930990D02*
Y3656400D01*
X2940430D01*
X2943580Y3654810D01*
X2945950Y3651110D01*
X2946730Y3646880D01*
X2945950Y3642640D01*
X2943980Y3639470D01*
X2940430Y3637880D01*
X2930990D01*
G01X2962480Y3624650D02*
Y3656400D01*
X2971920D01*
X2975070Y3654810D01*
X2977440Y3651110D01*
X2978220Y3646880D01*
X2977440Y3642640D01*
X2975470Y3639470D01*
X2971920Y3637880D01*
X2962480D01*
G01X3009710Y3624650D02*
X2993970D01*
Y3656400D01*
X3009710D01*
G01X3003410Y3641050D02*
X2993970D01*
G01X3025460Y3624650D02*
Y3656400D01*
X3035300D01*
X3038450Y3654810D01*
X3040420Y3652700D01*
X3041200Y3648460D01*
X3040420Y3644230D01*
X3038050Y3641580D01*
X3035300Y3640000D01*
X3025460D01*
G01X3035300D02*
X3041200Y3624650D01*
G01X3096310Y3656400D02*
X3093160Y3655340D01*
X3090800Y3652700D01*
X3089220Y3649520D01*
X3088040Y3645290D01*
X3087650Y3640520D01*
X3088040Y3635760D01*
X3089220Y3631530D01*
X3090800Y3628350D01*
X3093160Y3625710D01*
X3096310Y3624650D01*
X3099460Y3625710D01*
X3101820Y3628350D01*
X3103400Y3631530D01*
X3104580Y3635760D01*
X3104970Y3640520D01*
X3104580Y3645290D01*
X3103400Y3649520D01*
X3101820Y3652700D01*
X3099460Y3655340D01*
X3096310Y3656400D01*
G01X3127800Y3623590D02*
X3127010Y3624120D01*
Y3625180D01*
X3127800Y3625710D01*
X3128590Y3625180D01*
Y3624120D01*
X3127800Y3623590D01*
G01X3159290Y3656400D02*
X3156140Y3655340D01*
X3153780Y3652700D01*
X3152200Y3649520D01*
X3151020Y3645290D01*
X3150630Y3640520D01*
X3151020Y3635760D01*
X3152200Y3631530D01*
X3153780Y3628350D01*
X3156140Y3625710D01*
X3159290Y3624650D01*
X3162440Y3625710D01*
X3164800Y3628350D01*
X3166380Y3631530D01*
X3167560Y3635760D01*
X3167950Y3640520D01*
X3167560Y3645290D01*
X3166380Y3649520D01*
X3164800Y3652700D01*
X3162440Y3655340D01*
X3159290Y3656400D01*
G01X3182120Y3631000D02*
X3184480Y3627300D01*
X3187630Y3625180D01*
X3191170Y3624650D01*
X3194320Y3625180D01*
X3197470Y3627820D01*
X3199440Y3631000D01*
X3199830Y3634170D01*
X3199050Y3637880D01*
X3196290Y3640520D01*
X3193540Y3641580D01*
X3189990D01*
G01X3193540D02*
X3195900Y3643170D01*
X3197870Y3645820D01*
X3198650Y3648990D01*
X3197870Y3652170D01*
X3195900Y3654810D01*
X3192350Y3656400D01*
X3188810Y3655870D01*
X3185270Y3653750D01*
G01X3213610Y3629410D02*
X3215970Y3626770D01*
X3218730Y3625180D01*
X3222270Y3624650D01*
X3225810Y3625710D01*
X3228570Y3627820D01*
X3230540Y3631530D01*
X3230930Y3635760D01*
X3230140Y3640000D01*
X3228170Y3642640D01*
X3225420Y3644760D01*
X3222660Y3645290D01*
X3219910Y3644760D01*
X3216370Y3642640D01*
X3217550Y3656400D01*
X3228170D01*
G01X3275010Y3624650D02*
Y3656400D01*
X3285250Y3629940D01*
X3295490Y3656400D01*
Y3624650D01*
G01X3306500D02*
Y3656400D01*
X3316740Y3629940D01*
X3326980Y3656400D01*
Y3624650D01*
G01X2300400Y3562340D02*
X2317720Y3585630D01*
G01X2309060Y3589860D02*
Y3558110D01*
G01X2317720Y3562340D02*
X2300400Y3585630D01*
G01X2297250Y3573980D02*
X2320870D01*
G01X2394870Y3563400D02*
Y3595150D01*
X2402740D01*
X2405890Y3593560D01*
X2408250Y3591450D01*
X2410220Y3588270D01*
X2411800Y3584570D01*
X2412190Y3579270D01*
X2411800Y3573980D01*
X2410220Y3570280D01*
X2408250Y3567100D01*
X2405890Y3564990D01*
X2402740Y3563400D01*
X2394870D01*
G01X2430300Y3595150D02*
X2439740D01*
G01X2435020D02*
Y3563400D01*
G01X2430300D02*
X2439740D01*
G01X2474380D02*
X2458640D01*
Y3595150D01*
X2474380D01*
G01X2468080Y3579800D02*
X2458640D01*
G01X2490130Y3595150D02*
Y3563400D01*
X2505870D01*
G01X2537360D02*
X2521620D01*
Y3595150D01*
X2537360D01*
G01X2531060Y3579800D02*
X2521620D01*
G01X2569640Y3592500D02*
X2567280Y3594090D01*
X2564520Y3595150D01*
X2561370D01*
X2557830Y3593560D01*
X2555080Y3590920D01*
X2553110Y3587740D01*
X2551530Y3582450D01*
X2551140Y3577690D01*
X2551930Y3572920D01*
X2553110Y3569750D01*
X2555470Y3566570D01*
X2558220Y3564460D01*
X2560980Y3563400D01*
X2563740D01*
X2566490Y3564460D01*
X2568850Y3566050D01*
X2570820Y3568160D01*
G01X2592470Y3595150D02*
Y3563400D01*
G01X2583420Y3595150D02*
X2601520D01*
G01X2616090Y3563400D02*
Y3595150D01*
X2625930D01*
X2629080Y3593560D01*
X2631050Y3591450D01*
X2631830Y3587210D01*
X2631050Y3582980D01*
X2628680Y3580330D01*
X2625930Y3578750D01*
X2616090D01*
G01X2625930D02*
X2631830Y3563400D01*
G01X2650730Y3595150D02*
X2660170D01*
G01X2655450D02*
Y3563400D01*
G01X2650730D02*
X2660170D01*
G01X2695600Y3592500D02*
X2693240Y3594090D01*
X2690480Y3595150D01*
X2687330D01*
X2683790Y3593560D01*
X2681040Y3590920D01*
X2679070Y3587740D01*
X2677490Y3582450D01*
X2677100Y3577690D01*
X2677890Y3572920D01*
X2679070Y3569750D01*
X2681430Y3566570D01*
X2684180Y3564460D01*
X2686940Y3563400D01*
X2689700D01*
X2692450Y3564460D01*
X2694810Y3566050D01*
X2696780Y3568160D01*
G01X2744800Y3573980D02*
X2755040D01*
G01X2805420Y3563400D02*
Y3595150D01*
X2820380D01*
G01X2814870Y3579800D02*
X2805420D01*
G01X2836520Y3563400D02*
Y3595150D01*
X2846360D01*
X2849510Y3593560D01*
X2851480Y3591450D01*
X2852260Y3587210D01*
X2851480Y3582980D01*
X2849110Y3580330D01*
X2846360Y3578750D01*
X2836520D01*
G01X2846360D02*
X2852260Y3563400D01*
G01X2870760Y3573980D02*
X2881000D01*
G01X2912090Y3563400D02*
Y3595150D01*
X2897530Y3572400D01*
X2917210D01*
G01X2970350Y3595150D02*
X2967200Y3594090D01*
X2964840Y3591450D01*
X2963260Y3588270D01*
X2962080Y3584040D01*
X2961690Y3579270D01*
X2962080Y3574510D01*
X2963260Y3570280D01*
X2964840Y3567100D01*
X2967200Y3564460D01*
X2970350Y3563400D01*
X2973500Y3564460D01*
X2975860Y3567100D01*
X2977440Y3570280D01*
X2978620Y3574510D01*
X2979010Y3579270D01*
X2978620Y3584040D01*
X2977440Y3588270D01*
X2975860Y3591450D01*
X2973500Y3594090D01*
X2970350Y3595150D01*
G01X3001840Y3562340D02*
X3001050Y3562870D01*
Y3563930D01*
X3001840Y3564460D01*
X3002630Y3563930D01*
Y3562870D01*
X3001840Y3562340D01*
G01X3033330Y3563400D02*
Y3595150D01*
X3028610Y3588800D01*
G01Y3563400D02*
X3038050D01*
G01X3064030D02*
X3064820Y3570280D01*
X3066000Y3576100D01*
X3067580Y3581390D01*
X3069540Y3587210D01*
X3072690Y3595150D01*
X3056950D01*
G01X3087650Y3568160D02*
X3090010Y3565520D01*
X3092770Y3563930D01*
X3096310Y3563400D01*
X3099850Y3564460D01*
X3102610Y3566570D01*
X3104580Y3570280D01*
X3104970Y3574510D01*
X3104180Y3578750D01*
X3102210Y3581390D01*
X3099460Y3583510D01*
X3096700Y3584040D01*
X3093950Y3583510D01*
X3090410Y3581390D01*
X3091590Y3595150D01*
X3102210D01*
G01X3149050Y3563400D02*
Y3595150D01*
X3159290Y3568690D01*
X3169530Y3595150D01*
Y3563400D01*
G01X3180540D02*
Y3595150D01*
X3190780Y3568690D01*
X3201020Y3595150D01*
Y3563400D01*
G01X2411260Y1102590D02*
X2413620Y1098890D01*
X2416770Y1096770D01*
X2420310Y1096240D01*
X2423460Y1096770D01*
X2426610Y1099410D01*
X2428580Y1102590D01*
X2428970Y1105760D01*
X2428190Y1109470D01*
X2425430Y1112110D01*
X2422680Y1113170D01*
X2419130D01*
G01X2422680D02*
X2425040Y1114760D01*
X2427010Y1117410D01*
X2427790Y1120580D01*
X2427010Y1123760D01*
X2425040Y1126400D01*
X2421490Y1127990D01*
X2417950Y1127460D01*
X2414410Y1125340D01*
G01X2451410Y1095180D02*
X2450620Y1095710D01*
Y1096770D01*
X2451410Y1097300D01*
X2452200Y1096770D01*
Y1095710D01*
X2451410Y1095180D01*
G01X2475420Y1122700D02*
X2477780Y1125870D01*
X2480540Y1127460D01*
X2483690Y1127990D01*
X2487620Y1126930D01*
X2490380Y1124290D01*
X2491170Y1121110D01*
X2490770Y1117940D01*
X2489200Y1115290D01*
X2481330Y1110000D01*
X2477780Y1106290D01*
X2475420Y1101000D01*
X2474630Y1096240D01*
X2491170D01*
G01X2356940Y1024870D02*
Y1056620D01*
X2352220Y1050270D01*
G01Y1024870D02*
X2361660D01*
G01X2388430Y1023810D02*
X2387640Y1024340D01*
Y1025400D01*
X2388430Y1025930D01*
X2389220Y1025400D01*
Y1024340D01*
X2388430Y1023810D01*
G01X2411260Y1031220D02*
X2413620Y1027520D01*
X2416770Y1025400D01*
X2420310Y1024870D01*
X2423460Y1025400D01*
X2426610Y1028040D01*
X2428580Y1031220D01*
X2428970Y1034390D01*
X2428190Y1038100D01*
X2425430Y1040740D01*
X2422680Y1041800D01*
X2419130D01*
G01X2422680D02*
X2425040Y1043390D01*
X2427010Y1046040D01*
X2427790Y1049210D01*
X2427010Y1052390D01*
X2425040Y1055030D01*
X2421490Y1056620D01*
X2417950Y1056090D01*
X2414410Y1053970D01*
G01X2445510Y1046040D02*
X2457310Y1024870D01*
G01Y1046040D02*
X2445510Y1024870D01*
G01X2482900Y1056620D02*
X2479750Y1055560D01*
X2477390Y1052920D01*
X2475810Y1049740D01*
X2474630Y1045510D01*
X2474240Y1040740D01*
X2474630Y1035980D01*
X2475810Y1031750D01*
X2477390Y1028570D01*
X2479750Y1025930D01*
X2482900Y1024870D01*
X2486050Y1025930D01*
X2488410Y1028570D01*
X2489990Y1031750D01*
X2491170Y1035980D01*
X2491560Y1040740D01*
X2491170Y1045510D01*
X2489990Y1049740D01*
X2488410Y1052920D01*
X2486050Y1055560D01*
X2482900Y1056620D01*
G01X2514390Y1023810D02*
X2513600Y1024340D01*
Y1025400D01*
X2514390Y1025930D01*
X2515180Y1025400D01*
Y1024340D01*
X2514390Y1023810D01*
G01X2538400Y1038100D02*
X2541160Y1041800D01*
X2543520Y1043920D01*
X2546670Y1044980D01*
X2549420Y1043920D01*
X2551390Y1041800D01*
X2552970Y1038630D01*
X2553360Y1034920D01*
X2552970Y1031750D01*
X2551390Y1028570D01*
X2549030Y1025930D01*
X2546270Y1024870D01*
X2543120Y1025930D01*
X2540370Y1029100D01*
X2538790Y1033870D01*
X2538400Y1039160D01*
X2539190Y1046040D01*
X2540370Y1049740D01*
X2542340Y1053440D01*
X2545090Y1056090D01*
X2547850Y1056620D01*
X2550600Y1055560D01*
X2552570Y1052920D01*
G01X2388430Y1270730D02*
X2385280Y1269670D01*
X2382920Y1267030D01*
X2381340Y1263850D01*
X2380160Y1259620D01*
X2379770Y1254850D01*
X2380160Y1250090D01*
X2381340Y1245860D01*
X2382920Y1242680D01*
X2385280Y1240040D01*
X2388430Y1238980D01*
X2391580Y1240040D01*
X2393940Y1242680D01*
X2395520Y1245860D01*
X2396700Y1250090D01*
X2397090Y1254850D01*
X2396700Y1259620D01*
X2395520Y1263850D01*
X2393940Y1267030D01*
X2391580Y1269670D01*
X2388430Y1270730D01*
G01X2419920Y1237920D02*
X2419130Y1238450D01*
Y1239510D01*
X2419920Y1240040D01*
X2420710Y1239510D01*
Y1238450D01*
X2419920Y1237920D01*
G01X2451410Y1238980D02*
X2454170Y1239510D01*
X2457310Y1241100D01*
X2459280Y1243740D01*
X2460070Y1247450D01*
X2459280Y1251150D01*
X2456920Y1254330D01*
X2453380Y1255910D01*
X2449440D01*
X2447080Y1256970D01*
X2445110Y1259620D01*
X2444320Y1263320D01*
X2445510Y1267030D01*
X2448260Y1269670D01*
X2451410Y1270730D01*
X2454560Y1269670D01*
X2457310Y1267030D01*
X2458500Y1263320D01*
X2457710Y1259620D01*
X2455740Y1256970D01*
X2453380Y1255910D01*
X2449440D01*
X2445900Y1254330D01*
X2443540Y1251150D01*
X2442750Y1247450D01*
X2443540Y1243740D01*
X2445510Y1241100D01*
X2448650Y1239510D01*
X2451410Y1238980D01*
G01X2476210Y1242680D02*
X2478960Y1240040D01*
X2482110Y1238980D01*
X2485260Y1240040D01*
X2488020Y1243210D01*
X2489990Y1247980D01*
X2490770Y1252740D01*
Y1258560D01*
X2489990Y1263320D01*
X2488020Y1267550D01*
X2485660Y1269670D01*
X2482900Y1270730D01*
X2479750Y1269670D01*
X2477390Y1267550D01*
X2475810Y1264380D01*
X2475030Y1260150D01*
X2475810Y1256440D01*
X2477780Y1252740D01*
X2480140Y1250620D01*
X2482900Y1250090D01*
X2486050Y1251150D01*
X2488410Y1253800D01*
X2490770Y1258560D01*
G01X2507700Y1242680D02*
X2510450Y1240040D01*
X2513600Y1238980D01*
X2516750Y1240040D01*
X2519510Y1243210D01*
X2521480Y1247980D01*
X2522260Y1252740D01*
Y1258560D01*
X2521480Y1263320D01*
X2519510Y1267550D01*
X2517150Y1269670D01*
X2514390Y1270730D01*
X2511240Y1269670D01*
X2508880Y1267550D01*
X2507300Y1264380D01*
X2506520Y1260150D01*
X2507300Y1256440D01*
X2509270Y1252740D01*
X2511630Y1250620D01*
X2514390Y1250090D01*
X2517540Y1251150D01*
X2519900Y1253800D01*
X2522260Y1258560D01*
G01X2388430Y1167610D02*
Y1199360D01*
X2383710Y1193010D01*
G01Y1167610D02*
X2393150D01*
G01X2419920Y1166550D02*
X2419130Y1167080D01*
Y1168140D01*
X2419920Y1168670D01*
X2420710Y1168140D01*
Y1167080D01*
X2419920Y1166550D01*
G01X2451410Y1199360D02*
X2448260Y1198300D01*
X2445900Y1195660D01*
X2444320Y1192480D01*
X2443140Y1188250D01*
X2442750Y1183480D01*
X2443140Y1178720D01*
X2444320Y1174490D01*
X2445900Y1171310D01*
X2448260Y1168670D01*
X2451410Y1167610D01*
X2454560Y1168670D01*
X2456920Y1171310D01*
X2458500Y1174490D01*
X2459680Y1178720D01*
X2460070Y1183480D01*
X2459680Y1188250D01*
X2458500Y1192480D01*
X2456920Y1195660D01*
X2454560Y1198300D01*
X2451410Y1199360D01*
G01X2482900D02*
X2479750Y1198300D01*
X2477390Y1195660D01*
X2475810Y1192480D01*
X2474630Y1188250D01*
X2474240Y1183480D01*
X2474630Y1178720D01*
X2475810Y1174490D01*
X2477390Y1171310D01*
X2479750Y1168670D01*
X2482900Y1167610D01*
X2486050Y1168670D01*
X2488410Y1171310D01*
X2489990Y1174490D01*
X2491170Y1178720D01*
X2491560Y1183480D01*
X2491170Y1188250D01*
X2489990Y1192480D01*
X2488410Y1195660D01*
X2486050Y1198300D01*
X2482900Y1199360D01*
G01X2514390Y1167610D02*
Y1199360D01*
X2509670Y1193010D01*
G01Y1167610D02*
X2519110D01*
G01X2419920Y1381720D02*
Y1413470D01*
X2415200Y1407120D01*
G01Y1381720D02*
X2424640D01*
G01X2451410Y1380660D02*
X2450620Y1381190D01*
Y1382250D01*
X2451410Y1382780D01*
X2452200Y1382250D01*
Y1381190D01*
X2451410Y1380660D01*
G01X2482900Y1381720D02*
Y1413470D01*
X2478180Y1407120D01*
G01Y1381720D02*
X2487620D01*
G01X2411260Y1316700D02*
X2413620Y1313000D01*
X2416770Y1310880D01*
X2420310Y1310350D01*
X2423460Y1310880D01*
X2426610Y1313520D01*
X2428580Y1316700D01*
X2428970Y1319870D01*
X2428190Y1323580D01*
X2425430Y1326220D01*
X2422680Y1327280D01*
X2419130D01*
G01X2422680D02*
X2425040Y1328870D01*
X2427010Y1331520D01*
X2427790Y1334690D01*
X2427010Y1337870D01*
X2425040Y1340510D01*
X2421490Y1342100D01*
X2417950Y1341570D01*
X2414410Y1339450D01*
G01X2451410Y1309290D02*
X2450620Y1309820D01*
Y1310880D01*
X2451410Y1311410D01*
X2452200Y1310880D01*
Y1309820D01*
X2451410Y1309290D01*
G01X2475420Y1336810D02*
X2477780Y1339980D01*
X2480540Y1341570D01*
X2483690Y1342100D01*
X2487620Y1341040D01*
X2490380Y1338400D01*
X2491170Y1335220D01*
X2490770Y1332050D01*
X2489200Y1329400D01*
X2481330Y1324110D01*
X2477780Y1320400D01*
X2475420Y1315110D01*
X2474630Y1310350D01*
X2491170D01*
G01X2388430Y1627580D02*
X2385280Y1626520D01*
X2382920Y1623880D01*
X2381340Y1620700D01*
X2380160Y1616470D01*
X2379770Y1611700D01*
X2380160Y1606940D01*
X2381340Y1602710D01*
X2382920Y1599530D01*
X2385280Y1596890D01*
X2388430Y1595830D01*
X2391580Y1596890D01*
X2393940Y1599530D01*
X2395520Y1602710D01*
X2396700Y1606940D01*
X2397090Y1611700D01*
X2396700Y1616470D01*
X2395520Y1620700D01*
X2393940Y1623880D01*
X2391580Y1626520D01*
X2388430Y1627580D01*
G01X2419920Y1594770D02*
X2419130Y1595300D01*
Y1596360D01*
X2419920Y1596890D01*
X2420710Y1596360D01*
Y1595300D01*
X2419920Y1594770D01*
G01X2443930Y1622290D02*
X2446290Y1625460D01*
X2449050Y1627050D01*
X2452200Y1627580D01*
X2456130Y1626520D01*
X2458890Y1623880D01*
X2459680Y1620700D01*
X2459280Y1617530D01*
X2457710Y1614880D01*
X2449840Y1609590D01*
X2446290Y1605880D01*
X2443930Y1600590D01*
X2443140Y1595830D01*
X2459680D01*
G01X2482900Y1627580D02*
X2479750Y1626520D01*
X2477390Y1623880D01*
X2475810Y1620700D01*
X2474630Y1616470D01*
X2474240Y1611700D01*
X2474630Y1606940D01*
X2475810Y1602710D01*
X2477390Y1599530D01*
X2479750Y1596890D01*
X2482900Y1595830D01*
X2486050Y1596890D01*
X2488410Y1599530D01*
X2489990Y1602710D01*
X2491170Y1606940D01*
X2491560Y1611700D01*
X2491170Y1616470D01*
X2489990Y1620700D01*
X2488410Y1623880D01*
X2486050Y1626520D01*
X2482900Y1627580D01*
G01X2514390Y1595830D02*
Y1627580D01*
X2509670Y1621230D01*
G01Y1595830D02*
X2519110D01*
G01X2419920Y1556210D02*
X2416770Y1555150D01*
X2414410Y1552510D01*
X2412830Y1549330D01*
X2411650Y1545100D01*
X2411260Y1540330D01*
X2411650Y1535570D01*
X2412830Y1531340D01*
X2414410Y1528160D01*
X2416770Y1525520D01*
X2419920Y1524460D01*
X2423070Y1525520D01*
X2425430Y1528160D01*
X2427010Y1531340D01*
X2428190Y1535570D01*
X2428580Y1540330D01*
X2428190Y1545100D01*
X2427010Y1549330D01*
X2425430Y1552510D01*
X2423070Y1555150D01*
X2419920Y1556210D01*
G01X2451410Y1523400D02*
X2450620Y1523930D01*
Y1524990D01*
X2451410Y1525520D01*
X2452200Y1524990D01*
Y1523930D01*
X2451410Y1523400D01*
G01X2487620Y1524460D02*
Y1556210D01*
X2473060Y1533460D01*
X2492740D01*
G01X2404170Y1453090D02*
Y1484840D01*
X2399450Y1478490D01*
G01Y1453090D02*
X2408890D01*
G01X2435660Y1452030D02*
X2434870Y1452560D01*
Y1453620D01*
X2435660Y1454150D01*
X2436450Y1453620D01*
Y1452560D01*
X2435660Y1452030D01*
G01X2467150Y1484840D02*
X2464000Y1483780D01*
X2461640Y1481140D01*
X2460060Y1477960D01*
X2458880Y1473730D01*
X2458490Y1468960D01*
X2458880Y1464200D01*
X2460060Y1459970D01*
X2461640Y1456790D01*
X2464000Y1454150D01*
X2467150Y1453090D01*
X2470300Y1454150D01*
X2472660Y1456790D01*
X2474240Y1459970D01*
X2475420Y1464200D01*
X2475810Y1468960D01*
X2475420Y1473730D01*
X2474240Y1477960D01*
X2472660Y1481140D01*
X2470300Y1483780D01*
X2467150Y1484840D01*
G01X2489980Y1457850D02*
X2492340Y1455210D01*
X2495100Y1453620D01*
X2498640Y1453090D01*
X2502180Y1454150D01*
X2504940Y1456260D01*
X2506910Y1459970D01*
X2507300Y1464200D01*
X2506510Y1468440D01*
X2504540Y1471080D01*
X2501790Y1473200D01*
X2499030Y1473730D01*
X2496280Y1473200D01*
X2492740Y1471080D01*
X2493920Y1484840D01*
X2504540D01*
G01X2395900Y1746740D02*
X2399050Y1744100D01*
X2402600Y1742510D01*
X2405740D01*
X2408890Y1744100D01*
X2411260Y1746740D01*
X2412440Y1750450D01*
X2411650Y1754150D01*
X2409680Y1757330D01*
X2406140Y1759440D01*
X2401410Y1760500D01*
X2398660Y1762620D01*
X2397480Y1766320D01*
X2398270Y1770030D01*
X2400230Y1772670D01*
X2402990Y1774260D01*
X2405740D01*
X2408500Y1773200D01*
X2410860Y1770560D01*
G01X2430940Y1774260D02*
X2440380D01*
G01X2435660D02*
Y1742510D01*
G01X2430940D02*
X2440380D01*
G01X2459670Y1774260D02*
X2474630D01*
X2459670Y1742510D01*
X2474630D01*
G01X2506510D02*
X2490770D01*
Y1774260D01*
X2506510D01*
G01X2500210Y1758910D02*
X2490770D01*
G01X2419920Y1698950D02*
X2416770Y1697890D01*
X2414410Y1695250D01*
X2412830Y1692070D01*
X2411650Y1687840D01*
X2411260Y1683070D01*
X2411650Y1678310D01*
X2412830Y1674080D01*
X2414410Y1670900D01*
X2416770Y1668260D01*
X2419920Y1667200D01*
X2423070Y1668260D01*
X2425430Y1670900D01*
X2427010Y1674080D01*
X2428190Y1678310D01*
X2428580Y1683070D01*
X2428190Y1687840D01*
X2427010Y1692070D01*
X2425430Y1695250D01*
X2423070Y1697890D01*
X2419920Y1698950D01*
G01X2451410Y1666140D02*
X2450620Y1666670D01*
Y1667730D01*
X2451410Y1668260D01*
X2452200Y1667730D01*
Y1666670D01*
X2451410Y1666140D01*
G01X2475420Y1693660D02*
X2477780Y1696830D01*
X2480540Y1698420D01*
X2483690Y1698950D01*
X2487620Y1697890D01*
X2490380Y1695250D01*
X2491170Y1692070D01*
X2490770Y1688900D01*
X2489200Y1686250D01*
X2481330Y1680960D01*
X2477780Y1677250D01*
X2475420Y1671960D01*
X2474630Y1667200D01*
X2491170D01*
G01X2291000Y3014000D02*
X2585000D01*
G01X2399840Y2953000D02*
X2742000D01*
G01X2425150Y2000000D02*
X2742000D01*
G01X2545000Y3007750D02*
X2585000Y3014000D01*
X2545000Y3020250D01*
Y3007750D01*
G01X2702140Y1096240D02*
Y1127990D01*
X2720240Y1096240D01*
Y1127990D01*
G01X2742680Y1096240D02*
X2739530Y1096770D01*
X2736780Y1098890D01*
X2734410Y1102060D01*
X2732840Y1105760D01*
X2732050Y1110000D01*
Y1114230D01*
X2732840Y1118470D01*
X2734410Y1122170D01*
X2736780Y1125340D01*
X2739530Y1127460D01*
X2742680Y1127990D01*
X2745830Y1127460D01*
X2748580Y1125340D01*
X2750950Y1122170D01*
X2752520Y1118470D01*
X2753310Y1114230D01*
Y1110000D01*
X2752520Y1105760D01*
X2750950Y1102060D01*
X2748580Y1098890D01*
X2745830Y1096770D01*
X2742680Y1096240D01*
G01X2765120D02*
Y1127990D01*
X2783220Y1096240D01*
Y1127990D01*
G01X2800540Y1106820D02*
X2810780D01*
G01X2829280Y1096240D02*
Y1127990D01*
X2838720D01*
X2841870Y1126400D01*
X2844240Y1122700D01*
X2845020Y1118470D01*
X2844240Y1114230D01*
X2842270Y1111060D01*
X2838720Y1109470D01*
X2829280D01*
G01X2860770Y1127990D02*
Y1096240D01*
X2876510D01*
G01X2890290D02*
X2900130Y1127990D01*
X2909970Y1096240D01*
G01X2906430Y1107350D02*
X2893830D01*
G01X2931620Y1127990D02*
Y1096240D01*
G01X2922570Y1127990D02*
X2940670D01*
G01X2970980Y1096240D02*
X2955240D01*
Y1127990D01*
X2970980D01*
G01X2964680Y1112640D02*
X2955240D01*
G01X2985940Y1096240D02*
Y1127990D01*
X2993810D01*
X2996960Y1126400D01*
X2999320Y1124290D01*
X3001290Y1121110D01*
X3002870Y1117410D01*
X3003260Y1112110D01*
X3002870Y1106820D01*
X3001290Y1103120D01*
X2999320Y1099940D01*
X2996960Y1097830D01*
X2993810Y1096240D01*
X2985940D01*
G01X2691520Y1790130D02*
Y1005060D01*
G01X2702140Y1238980D02*
Y1270730D01*
X2720240Y1238980D01*
Y1270730D01*
G01X2742680Y1238980D02*
X2739530Y1239510D01*
X2736780Y1241630D01*
X2734410Y1244800D01*
X2732840Y1248500D01*
X2732050Y1252740D01*
Y1256970D01*
X2732840Y1261210D01*
X2734410Y1264910D01*
X2736780Y1268080D01*
X2739530Y1270200D01*
X2742680Y1270730D01*
X2745830Y1270200D01*
X2748580Y1268080D01*
X2750950Y1264910D01*
X2752520Y1261210D01*
X2753310Y1256970D01*
Y1252740D01*
X2752520Y1248500D01*
X2750950Y1244800D01*
X2748580Y1241630D01*
X2745830Y1239510D01*
X2742680Y1238980D01*
G01X2765120D02*
Y1270730D01*
X2783220Y1238980D01*
Y1270730D01*
G01X2800540Y1249560D02*
X2810780D01*
G01X2829280Y1238980D02*
Y1270730D01*
X2838720D01*
X2841870Y1269140D01*
X2844240Y1265440D01*
X2845020Y1261210D01*
X2844240Y1256970D01*
X2842270Y1253800D01*
X2838720Y1252210D01*
X2829280D01*
G01X2860770Y1270730D02*
Y1238980D01*
X2876510D01*
G01X2890290D02*
X2900130Y1270730D01*
X2909970Y1238980D01*
G01X2906430Y1250090D02*
X2893830D01*
G01X2931620Y1270730D02*
Y1238980D01*
G01X2922570Y1270730D02*
X2940670D01*
G01X2970980Y1238980D02*
X2955240D01*
Y1270730D01*
X2970980D01*
G01X2964680Y1255380D02*
X2955240D01*
G01X2985940Y1238980D02*
Y1270730D01*
X2993810D01*
X2996960Y1269140D01*
X2999320Y1267030D01*
X3001290Y1263850D01*
X3002870Y1260150D01*
X3003260Y1254850D01*
X3002870Y1249560D01*
X3001290Y1245860D01*
X2999320Y1242680D01*
X2996960Y1240570D01*
X2993810Y1238980D01*
X2985940D01*
G01X2702140Y1167610D02*
Y1199360D01*
X2720240Y1167610D01*
Y1199360D01*
G01X2742680Y1167610D02*
X2739530Y1168140D01*
X2736780Y1170260D01*
X2734410Y1173430D01*
X2732840Y1177130D01*
X2732050Y1181370D01*
Y1185600D01*
X2732840Y1189840D01*
X2734410Y1193540D01*
X2736780Y1196710D01*
X2739530Y1198830D01*
X2742680Y1199360D01*
X2745830Y1198830D01*
X2748580Y1196710D01*
X2750950Y1193540D01*
X2752520Y1189840D01*
X2753310Y1185600D01*
Y1181370D01*
X2752520Y1177130D01*
X2750950Y1173430D01*
X2748580Y1170260D01*
X2745830Y1168140D01*
X2742680Y1167610D01*
G01X2765120D02*
Y1199360D01*
X2783220Y1167610D01*
Y1199360D01*
G01X2800540Y1178190D02*
X2810780D01*
G01X2829280Y1167610D02*
Y1199360D01*
X2838720D01*
X2841870Y1197770D01*
X2844240Y1194070D01*
X2845020Y1189840D01*
X2844240Y1185600D01*
X2842270Y1182430D01*
X2838720Y1180840D01*
X2829280D01*
G01X2860770Y1199360D02*
Y1167610D01*
X2876510D01*
G01X2890290D02*
X2900130Y1199360D01*
X2909970Y1167610D01*
G01X2906430Y1178720D02*
X2893830D01*
G01X2931620Y1199360D02*
Y1167610D01*
G01X2922570Y1199360D02*
X2940670D01*
G01X2970980Y1167610D02*
X2955240D01*
Y1199360D01*
X2970980D01*
G01X2964680Y1184010D02*
X2955240D01*
G01X2985940Y1167610D02*
Y1199360D01*
X2993810D01*
X2996960Y1197770D01*
X2999320Y1195660D01*
X3001290Y1192480D01*
X3002870Y1188780D01*
X3003260Y1183480D01*
X3002870Y1178190D01*
X3001290Y1174490D01*
X2999320Y1171310D01*
X2996960Y1169200D01*
X2993810Y1167610D01*
X2985940D01*
G01X2717000Y2515000D02*
Y2000000D01*
G01X2710750Y2040000D02*
X2717000Y2000000D01*
X2723250Y2040000D01*
X2710750D01*
G01X2697430Y2461070D02*
X2700070Y2463820D01*
X2701130Y2466970D01*
X2700070Y2470120D01*
X2696900Y2472880D01*
X2692130Y2474850D01*
X2687370Y2475630D01*
X2681550D01*
X2676790Y2474850D01*
X2672560Y2472880D01*
X2670440Y2470520D01*
X2669380Y2467760D01*
X2670440Y2464610D01*
X2672560Y2462250D01*
X2675730Y2460670D01*
X2679960Y2459890D01*
X2683670Y2460670D01*
X2687370Y2462640D01*
X2689490Y2465000D01*
X2690020Y2467760D01*
X2688960Y2470910D01*
X2686310Y2473270D01*
X2681550Y2475630D01*
G01X2696370Y2490590D02*
X2699010Y2492950D01*
X2700600Y2495710D01*
X2701130Y2499250D01*
X2700070Y2502790D01*
X2697960Y2505550D01*
X2694250Y2507520D01*
X2690020Y2507910D01*
X2685780Y2507120D01*
X2683140Y2505150D01*
X2681020Y2502400D01*
X2680490Y2499640D01*
X2681020Y2496890D01*
X2683140Y2493350D01*
X2669380Y2494530D01*
Y2505150D01*
G01X2702190Y2530740D02*
X2701660Y2529950D01*
X2700600D01*
X2700070Y2530740D01*
X2700600Y2531530D01*
X2701660D01*
X2702190Y2530740D01*
G01X2694780Y2553570D02*
X2698480Y2555930D01*
X2700600Y2559080D01*
X2701130Y2562620D01*
X2700600Y2565770D01*
X2697960Y2568920D01*
X2694780Y2570890D01*
X2691610Y2571280D01*
X2687900Y2570500D01*
X2685260Y2567740D01*
X2684200Y2564990D01*
Y2561440D01*
G01Y2564990D02*
X2682610Y2567350D01*
X2679960Y2569320D01*
X2676790Y2570100D01*
X2673610Y2569320D01*
X2670970Y2567350D01*
X2669380Y2563800D01*
X2669910Y2560260D01*
X2672030Y2556720D01*
G01X2717000Y2515000D02*
Y2953000D01*
G01X2585000Y2798020D02*
Y3039000D01*
G01X2723250Y2913000D02*
X2717000Y2953000D01*
X2710750Y2913000D01*
X2723250D01*
G01X2766300Y1024870D02*
Y1056620D01*
X2775740D01*
X2778890Y1055030D01*
X2781260Y1051330D01*
X2782040Y1047100D01*
X2781260Y1042860D01*
X2779290Y1039690D01*
X2775740Y1038100D01*
X2766300D01*
G01X2797790Y1056620D02*
Y1024870D01*
X2813530D01*
G01X2827310D02*
X2837150Y1056620D01*
X2846990Y1024870D01*
G01X2843450Y1035980D02*
X2830850D01*
G01X2868640Y1056620D02*
Y1024870D01*
G01X2859590Y1056620D02*
X2877690D01*
G01X2908000Y1024870D02*
X2892260D01*
Y1056620D01*
X2908000D01*
G01X2901700Y1041270D02*
X2892260D01*
G01X2922960Y1024870D02*
Y1056620D01*
X2930830D01*
X2933980Y1055030D01*
X2936340Y1052920D01*
X2938310Y1049740D01*
X2939890Y1046040D01*
X2940280Y1040740D01*
X2939890Y1035450D01*
X2938310Y1031750D01*
X2936340Y1028570D01*
X2933980Y1026460D01*
X2930830Y1024870D01*
X2922960D01*
G01X2766300Y1381720D02*
Y1413470D01*
X2775740D01*
X2778890Y1411880D01*
X2781260Y1408180D01*
X2782040Y1403950D01*
X2781260Y1399710D01*
X2779290Y1396540D01*
X2775740Y1394950D01*
X2766300D01*
G01X2797790Y1413470D02*
Y1381720D01*
X2813530D01*
G01X2827310D02*
X2837150Y1413470D01*
X2846990Y1381720D01*
G01X2843450Y1392830D02*
X2830850D01*
G01X2868640Y1413470D02*
Y1381720D01*
G01X2859590Y1413470D02*
X2877690D01*
G01X2908000Y1381720D02*
X2892260D01*
Y1413470D01*
X2908000D01*
G01X2901700Y1398120D02*
X2892260D01*
G01X2922960Y1381720D02*
Y1413470D01*
X2930830D01*
X2933980Y1411880D01*
X2936340Y1409770D01*
X2938310Y1406590D01*
X2939890Y1402890D01*
X2940280Y1397590D01*
X2939890Y1392300D01*
X2938310Y1388600D01*
X2936340Y1385420D01*
X2933980Y1383310D01*
X2930830Y1381720D01*
X2922960D01*
G01X2766300Y1310350D02*
Y1342100D01*
X2775740D01*
X2778890Y1340510D01*
X2781260Y1336810D01*
X2782040Y1332580D01*
X2781260Y1328340D01*
X2779290Y1325170D01*
X2775740Y1323580D01*
X2766300D01*
G01X2797790Y1342100D02*
Y1310350D01*
X2813530D01*
G01X2827310D02*
X2837150Y1342100D01*
X2846990Y1310350D01*
G01X2843450Y1321460D02*
X2830850D01*
G01X2868640Y1342100D02*
Y1310350D01*
G01X2859590Y1342100D02*
X2877690D01*
G01X2908000Y1310350D02*
X2892260D01*
Y1342100D01*
X2908000D01*
G01X2901700Y1326750D02*
X2892260D01*
G01X2922960Y1310350D02*
Y1342100D01*
X2930830D01*
X2933980Y1340510D01*
X2936340Y1338400D01*
X2938310Y1335220D01*
X2939890Y1331520D01*
X2940280Y1326220D01*
X2939890Y1320930D01*
X2938310Y1317230D01*
X2936340Y1314050D01*
X2933980Y1311940D01*
X2930830Y1310350D01*
X2922960D01*
G01X2766300Y1595830D02*
Y1627580D01*
X2775740D01*
X2778890Y1625990D01*
X2781260Y1622290D01*
X2782040Y1618060D01*
X2781260Y1613820D01*
X2779290Y1610650D01*
X2775740Y1609060D01*
X2766300D01*
G01X2797790Y1627580D02*
Y1595830D01*
X2813530D01*
G01X2827310D02*
X2837150Y1627580D01*
X2846990Y1595830D01*
G01X2843450Y1606940D02*
X2830850D01*
G01X2868640Y1627580D02*
Y1595830D01*
G01X2859590Y1627580D02*
X2877690D01*
G01X2908000Y1595830D02*
X2892260D01*
Y1627580D01*
X2908000D01*
G01X2901700Y1612230D02*
X2892260D01*
G01X2922960Y1595830D02*
Y1627580D01*
X2930830D01*
X2933980Y1625990D01*
X2936340Y1623880D01*
X2938310Y1620700D01*
X2939890Y1617000D01*
X2940280Y1611700D01*
X2939890Y1606410D01*
X2938310Y1602710D01*
X2936340Y1599530D01*
X2933980Y1597420D01*
X2930830Y1595830D01*
X2922960D01*
G01X2766300Y1524460D02*
Y1556210D01*
X2775740D01*
X2778890Y1554620D01*
X2781260Y1550920D01*
X2782040Y1546690D01*
X2781260Y1542450D01*
X2779290Y1539280D01*
X2775740Y1537690D01*
X2766300D01*
G01X2797790Y1556210D02*
Y1524460D01*
X2813530D01*
G01X2827310D02*
X2837150Y1556210D01*
X2846990Y1524460D01*
G01X2843450Y1535570D02*
X2830850D01*
G01X2868640Y1556210D02*
Y1524460D01*
G01X2859590Y1556210D02*
X2877690D01*
G01X2908000Y1524460D02*
X2892260D01*
Y1556210D01*
X2908000D01*
G01X2901700Y1540860D02*
X2892260D01*
G01X2922960Y1524460D02*
Y1556210D01*
X2930830D01*
X2933980Y1554620D01*
X2936340Y1552510D01*
X2938310Y1549330D01*
X2939890Y1545630D01*
X2940280Y1540330D01*
X2939890Y1535040D01*
X2938310Y1531340D01*
X2936340Y1528160D01*
X2933980Y1526050D01*
X2930830Y1524460D01*
X2922960D01*
G01X2766300Y1453090D02*
Y1484840D01*
X2775740D01*
X2778890Y1483250D01*
X2781260Y1479550D01*
X2782040Y1475320D01*
X2781260Y1471080D01*
X2779290Y1467910D01*
X2775740Y1466320D01*
X2766300D01*
G01X2797790Y1484840D02*
Y1453090D01*
X2813530D01*
G01X2827310D02*
X2837150Y1484840D01*
X2846990Y1453090D01*
G01X2843450Y1464200D02*
X2830850D01*
G01X2868640Y1484840D02*
Y1453090D01*
G01X2859590Y1484840D02*
X2877690D01*
G01X2908000Y1453090D02*
X2892260D01*
Y1484840D01*
X2908000D01*
G01X2901700Y1469490D02*
X2892260D01*
G01X2922960Y1453090D02*
Y1484840D01*
X2930830D01*
X2933980Y1483250D01*
X2936340Y1481140D01*
X2938310Y1477960D01*
X2939890Y1474260D01*
X2940280Y1468960D01*
X2939890Y1463670D01*
X2938310Y1459970D01*
X2936340Y1456790D01*
X2933980Y1454680D01*
X2930830Y1453090D01*
X2922960D01*
G01X2766300Y1742510D02*
Y1774260D01*
X2775740D01*
X2778890Y1772670D01*
X2781260Y1768970D01*
X2782040Y1764740D01*
X2781260Y1760500D01*
X2779290Y1757330D01*
X2775740Y1755740D01*
X2766300D01*
G01X2797790Y1774260D02*
Y1742510D01*
X2813530D01*
G01X2827310D02*
X2837150Y1774260D01*
X2846990Y1742510D01*
G01X2843450Y1753620D02*
X2830850D01*
G01X2868640Y1774260D02*
Y1742510D01*
G01X2859590Y1774260D02*
X2877690D01*
G01X2908000Y1742510D02*
X2892260D01*
Y1774260D01*
X2908000D01*
G01X2901700Y1758910D02*
X2892260D01*
G01X2922960Y1742510D02*
Y1774260D01*
X2930830D01*
X2933980Y1772670D01*
X2936340Y1770560D01*
X2938310Y1767380D01*
X2939890Y1763680D01*
X2940280Y1758380D01*
X2939890Y1753090D01*
X2938310Y1749390D01*
X2936340Y1746210D01*
X2933980Y1744100D01*
X2930830Y1742510D01*
X2922960D01*
G01X2766300Y1667200D02*
Y1698950D01*
X2775740D01*
X2778890Y1697360D01*
X2781260Y1693660D01*
X2782040Y1689430D01*
X2781260Y1685190D01*
X2779290Y1682020D01*
X2775740Y1680430D01*
X2766300D01*
G01X2797790Y1698950D02*
Y1667200D01*
X2813530D01*
G01X2827310D02*
X2837150Y1698950D01*
X2846990Y1667200D01*
G01X2843450Y1678310D02*
X2830850D01*
G01X2868640Y1698950D02*
Y1667200D01*
G01X2859590Y1698950D02*
X2877690D01*
G01X2908000Y1667200D02*
X2892260D01*
Y1698950D01*
X2908000D01*
G01X2901700Y1683600D02*
X2892260D01*
G01X2922960Y1667200D02*
Y1698950D01*
X2930830D01*
X2933980Y1697360D01*
X2936340Y1695250D01*
X2938310Y1692070D01*
X2939890Y1688370D01*
X2940280Y1683070D01*
X2939890Y1677780D01*
X2938310Y1674080D01*
X2936340Y1670900D01*
X2933980Y1668790D01*
X2930830Y1667200D01*
X2922960D01*
G01X3014290Y1790130D02*
Y1005060D01*
G01X3117420Y1096240D02*
Y1127990D01*
X3102860Y1105240D01*
X3122540D01*
G01X3105220Y1051330D02*
X3107580Y1054500D01*
X3110340Y1056090D01*
X3113490Y1056620D01*
X3117420Y1055560D01*
X3120180Y1052920D01*
X3120970Y1049740D01*
X3120570Y1046570D01*
X3119000Y1043920D01*
X3111130Y1038630D01*
X3107580Y1034920D01*
X3105220Y1029630D01*
X3104430Y1024870D01*
X3120970D01*
G01X3105220Y1252210D02*
X3107980Y1255910D01*
X3110340Y1258030D01*
X3113490Y1259090D01*
X3116240Y1258030D01*
X3118210Y1255910D01*
X3119790Y1252740D01*
X3120180Y1249030D01*
X3119790Y1245860D01*
X3118210Y1242680D01*
X3115850Y1240040D01*
X3113090Y1238980D01*
X3109940Y1240040D01*
X3107190Y1243210D01*
X3105610Y1247980D01*
X3105220Y1253270D01*
X3106010Y1260150D01*
X3107190Y1263850D01*
X3109160Y1267550D01*
X3111910Y1270200D01*
X3114670Y1270730D01*
X3117420Y1269670D01*
X3119390Y1267030D01*
G01X3104040Y1173960D02*
X3106400Y1170260D01*
X3109550Y1168140D01*
X3113090Y1167610D01*
X3116240Y1168140D01*
X3119390Y1170780D01*
X3121360Y1173960D01*
X3121750Y1177130D01*
X3120970Y1180840D01*
X3118210Y1183480D01*
X3115460Y1184540D01*
X3111910D01*
G01X3115460D02*
X3117820Y1186130D01*
X3119790Y1188780D01*
X3120570Y1191950D01*
X3119790Y1195130D01*
X3117820Y1197770D01*
X3114270Y1199360D01*
X3110730Y1198830D01*
X3107190Y1196710D01*
G01X3112700Y1381720D02*
Y1413470D01*
X3107980Y1407120D01*
G01Y1381720D02*
X3117420D01*
G01X3105220Y1336810D02*
X3107580Y1339980D01*
X3110340Y1341570D01*
X3113490Y1342100D01*
X3117420Y1341040D01*
X3120180Y1338400D01*
X3120970Y1335220D01*
X3120570Y1332050D01*
X3119000Y1329400D01*
X3111130Y1324110D01*
X3107580Y1320400D01*
X3105220Y1315110D01*
X3104430Y1310350D01*
X3120970D01*
G01X3089470Y1622290D02*
X3091830Y1625460D01*
X3094590Y1627050D01*
X3097740Y1627580D01*
X3101670Y1626520D01*
X3104430Y1623880D01*
X3105220Y1620700D01*
X3104820Y1617530D01*
X3103250Y1614880D01*
X3095380Y1609590D01*
X3091830Y1605880D01*
X3089470Y1600590D01*
X3088680Y1595830D01*
X3105220D01*
G01X3128440D02*
X3131200Y1596360D01*
X3134340Y1597950D01*
X3136310Y1600590D01*
X3137100Y1604300D01*
X3136310Y1608000D01*
X3133950Y1611180D01*
X3130410Y1612760D01*
X3126470D01*
X3124110Y1613820D01*
X3122140Y1616470D01*
X3121350Y1620170D01*
X3122540Y1623880D01*
X3125290Y1626520D01*
X3128440Y1627580D01*
X3131590Y1626520D01*
X3134340Y1623880D01*
X3135530Y1620170D01*
X3134740Y1616470D01*
X3132770Y1613820D01*
X3130410Y1612760D01*
X3126470D01*
X3122930Y1611180D01*
X3120570Y1608000D01*
X3119780Y1604300D01*
X3120570Y1600590D01*
X3122540Y1597950D01*
X3125680Y1596360D01*
X3128440Y1595830D01*
G01X3089470Y1550920D02*
X3091830Y1554090D01*
X3094590Y1555680D01*
X3097740Y1556210D01*
X3101670Y1555150D01*
X3104430Y1552510D01*
X3105220Y1549330D01*
X3104820Y1546160D01*
X3103250Y1543510D01*
X3095380Y1538220D01*
X3091830Y1534510D01*
X3089470Y1529220D01*
X3088680Y1524460D01*
X3105220D01*
G01X3128440D02*
Y1556210D01*
X3123720Y1549860D01*
G01Y1524460D02*
X3133160D01*
G01X3096160Y1453090D02*
X3096950Y1459970D01*
X3098130Y1465790D01*
X3099710Y1471080D01*
X3101670Y1476900D01*
X3104820Y1484840D01*
X3089080D01*
G01X3119780Y1457850D02*
X3122140Y1455210D01*
X3124900Y1453620D01*
X3128440Y1453090D01*
X3131980Y1454150D01*
X3134740Y1456260D01*
X3136710Y1459970D01*
X3137100Y1464200D01*
X3136310Y1468440D01*
X3134340Y1471080D01*
X3131590Y1473200D01*
X3128830Y1473730D01*
X3126080Y1473200D01*
X3122540Y1471080D01*
X3123720Y1484840D01*
X3134340D01*
G01X3081210Y1742510D02*
X3078060Y1743040D01*
X3075310Y1745160D01*
X3072940Y1748330D01*
X3071370Y1752030D01*
X3070580Y1756270D01*
Y1760500D01*
X3071370Y1764740D01*
X3072940Y1768440D01*
X3075310Y1771610D01*
X3078060Y1773730D01*
X3081210Y1774260D01*
X3084360Y1773730D01*
X3087110Y1771610D01*
X3089480Y1768440D01*
X3091050Y1764740D01*
X3091840Y1760500D01*
Y1756270D01*
X3091050Y1752030D01*
X3089480Y1748330D01*
X3087110Y1745160D01*
X3084360Y1743040D01*
X3081210Y1742510D01*
G01X3084360Y1750980D02*
X3089080Y1742510D01*
G01X3112700Y1774260D02*
Y1742510D01*
G01X3103650Y1774260D02*
X3121750D01*
G01X3144190Y1742510D02*
Y1756800D01*
X3136320Y1774260D01*
G01X3152060D02*
X3144190Y1756800D01*
G01X3072550Y1671960D02*
X3074910Y1669320D01*
X3077670Y1667730D01*
X3081210Y1667200D01*
X3084750Y1668260D01*
X3087510Y1670370D01*
X3089480Y1674080D01*
X3089870Y1678310D01*
X3089080Y1682550D01*
X3087110Y1685190D01*
X3084360Y1687310D01*
X3081600Y1687840D01*
X3078850Y1687310D01*
X3075310Y1685190D01*
X3076490Y1698950D01*
X3087110D01*
G01X3112700D02*
X3109550Y1697890D01*
X3107190Y1695250D01*
X3105610Y1692070D01*
X3104430Y1687840D01*
X3104040Y1683070D01*
X3104430Y1678310D01*
X3105610Y1674080D01*
X3107190Y1670900D01*
X3109550Y1668260D01*
X3112700Y1667200D01*
X3115850Y1668260D01*
X3118210Y1670900D01*
X3119790Y1674080D01*
X3120970Y1678310D01*
X3121360Y1683070D01*
X3120970Y1687840D01*
X3119790Y1692070D01*
X3118210Y1695250D01*
X3115850Y1697890D01*
X3112700Y1698950D01*
G01X3135530Y1671960D02*
X3137890Y1669320D01*
X3140650Y1667730D01*
X3144190Y1667200D01*
X3147730Y1668260D01*
X3150490Y1670370D01*
X3152460Y1674080D01*
X3152850Y1678310D01*
X3152060Y1682550D01*
X3150090Y1685190D01*
X3147340Y1687310D01*
X3144580Y1687840D01*
X3141830Y1687310D01*
X3138290Y1685190D01*
X3139470Y1698950D01*
X3150090D01*
G54D11*
X2025000Y2025000D03*
X2097150Y1112120D03*
X2333000Y2030000D03*
X2483000D03*
X2558000Y2025000D03*
G54D12*
X2076010Y2011800D03*
X2056010Y2061790D03*
Y2011800D03*
X2076010Y2061790D03*
X2097150Y1540340D03*
X2236010Y2061790D03*
X2096010Y2011800D03*
Y2061790D03*
X2116010Y2011800D03*
Y2061790D03*
X2136010Y2011800D03*
Y2061790D03*
X2156010Y2011800D03*
Y2061790D03*
X2176010Y2011800D03*
Y2061790D03*
X2196010Y2011800D03*
Y2061790D03*
X2216010Y2011800D03*
X2236010D03*
X2216010Y2061790D03*
X2256000Y2011800D03*
G54D13*
X2089230Y2216000D03*
Y2241400D03*
X2063830Y2216000D03*
Y2241400D03*
X2064000Y2165000D03*
Y2139600D03*
Y2114200D03*
X2089230Y2266800D03*
Y2292200D03*
Y2317600D03*
Y2343000D03*
Y2368400D03*
Y2393800D03*
Y2419200D03*
X2063830Y2266800D03*
Y2292200D03*
Y2317600D03*
Y2343000D03*
Y2368400D03*
Y2393800D03*
Y2419200D03*
X2089230Y2444600D03*
X2063830D03*
X2097150Y1468960D03*
X2180400Y2240000D03*
X2155000D03*
X2180400Y2265400D03*
X2155000D03*
X2114630Y2546200D03*
X2140030D03*
X2165430D03*
X2190830D03*
X2216230D03*
X2241630D03*
X2114630Y2571600D03*
X2140030D03*
X2165430D03*
X2190830D03*
X2216230D03*
X2241630D03*
X2267030Y2546200D03*
X2292430D03*
X2317830D03*
X2343230D03*
X2368630D03*
X2267030Y2571600D03*
X2292430D03*
X2317830D03*
X2343230D03*
X2368630D03*
X2521230Y2216000D03*
Y2241400D03*
X2495830Y2216000D03*
Y2241400D03*
X2521000Y2165000D03*
Y2139600D03*
Y2114200D03*
X2521230Y2266800D03*
Y2292200D03*
Y2317600D03*
Y2343000D03*
Y2368400D03*
Y2393800D03*
Y2419200D03*
X2495830Y2266800D03*
Y2292200D03*
Y2317600D03*
Y2343000D03*
Y2368400D03*
Y2393800D03*
Y2419200D03*
X2521230Y2444600D03*
X2495830D03*
X2499000Y2546200D03*
Y2571600D03*
Y2597000D03*
G54D14*
X2063000Y2190000D03*
X2014000Y2231000D03*
X2019000Y2177000D03*
X2015000Y2149000D03*
X2044000Y2148000D03*
X2080000Y2149000D03*
X2025000Y2168000D03*
X2043000Y2227000D03*
X2027500Y2180500D03*
X2017000Y2410000D03*
X2014000Y2280000D03*
X2026000Y2532000D03*
X2014000Y2459000D03*
X2071000Y2606000D03*
X2045000D03*
X2051000Y2713000D03*
X2016000Y2725000D03*
X2014000Y2710000D03*
X2016000Y2676000D03*
X2064000Y2620000D03*
X2036000Y2617000D03*
X2046000Y2630960D03*
X2089000Y2610990D03*
X2016530Y2715000D03*
X2027370Y2677990D03*
X2047000Y2810000D03*
X2042000Y2816000D03*
X2033700Y2834700D03*
X2021000Y2847400D03*
Y2872800D03*
X2075000Y2826000D03*
X2023000Y2744000D03*
X2034000Y2873000D03*
X2033750Y2847000D03*
X2021000Y2860000D03*
Y2835000D03*
X2035000Y2821000D03*
X2053000Y2855000D03*
X2068250D03*
X2026000Y2793000D03*
X2020000Y2824000D03*
X2017530Y2760000D03*
X2076000Y2804000D03*
X2087000Y2869000D03*
X2077000Y2893000D03*
X2073000Y2906000D03*
X2097150Y1683080D03*
X2243310Y2247690D03*
X2238000Y2243000D03*
X2136000Y2231000D03*
X2190000Y2230000D03*
Y2251000D03*
X2243000Y2148000D03*
X2153000Y2149000D03*
X2106000D03*
X2090000D03*
X2220000Y2211000D03*
X2228000Y2226000D03*
X2219000Y2180000D03*
Y2173000D03*
X2248000Y2171000D03*
X2246170Y2195960D03*
X2241000Y2193000D03*
X2234000Y2185000D03*
X2230000Y2180000D03*
X2224000Y2176000D03*
X2164000Y2149000D03*
X2197000Y2148000D03*
X2219000Y2149000D03*
X2226000Y2150000D03*
X2212000Y2173000D03*
X2183300Y2148000D03*
X2178000Y2153000D03*
X2173700Y2158300D03*
X2133000Y2199000D03*
X2136000Y2214000D03*
X2173000Y2219000D03*
X2098000Y2149000D03*
X2128000D03*
X2171000D03*
X2244000Y2153000D03*
X2214000Y2156000D03*
X2166500Y2206000D03*
Y2190000D03*
X2220000Y2219000D03*
X2196500Y2194500D03*
X2171000Y2167000D03*
X2195000Y2184000D03*
X2151000Y2198000D03*
X2177500Y2187000D03*
X2163000Y2177000D03*
X2160000Y2207000D03*
Y2189000D03*
X2237000Y2190000D03*
X2221000Y2155000D03*
X2201000Y2244000D03*
Y2216000D03*
X2206000Y2148000D03*
X2184000Y2172000D03*
X2198000Y2156000D03*
X2188000Y2162000D03*
X2233000Y2230000D03*
X2109000Y2178000D03*
X2195000Y2220000D03*
X2227000Y2188000D03*
X2192000Y2151000D03*
X2213000Y2203000D03*
X2158000Y2170000D03*
X2221000Y2238000D03*
X2241000Y2197000D03*
X2174000Y2175000D03*
X2232170Y2151040D03*
X2162000Y2157000D03*
X2100000Y2167000D03*
X2129000Y2174000D03*
X2128300Y2155870D03*
X2191000Y2178000D03*
X2225000Y2182000D03*
X2210000Y2225000D03*
X2105000Y2192000D03*
X2092000D03*
X2118300Y2222870D03*
X2207000Y2195000D03*
X2248000Y2203000D03*
X2232000Y2237000D03*
X2234000Y2260000D03*
X2194000D03*
X2133000Y2279000D03*
X2232000Y2267000D03*
X2245500Y2257250D03*
X2202000Y2387000D03*
X2111000Y2256000D03*
X2126000Y2293000D03*
X2138000Y2322000D03*
X2164000Y2326000D03*
X2210000D03*
X2169000Y2293000D03*
X2127000Y2270000D03*
X2147000Y2295000D03*
X2168000Y2413000D03*
X2221000Y2371000D03*
X2142000Y2387000D03*
X2134000Y2414000D03*
X2237000Y2330000D03*
X2233000Y2326000D03*
X2237020Y2388000D03*
X2140000Y2305000D03*
X2159000Y2308000D03*
X2241500Y2277000D03*
X2208010Y2265010D03*
X2243000Y2266000D03*
X2236000Y2281000D03*
X2237000Y2288000D03*
X2235000Y2303000D03*
X2229000Y2308000D03*
X2207000Y2291000D03*
X2244000Y2327000D03*
Y2381000D03*
X2212000Y2252000D03*
X2231000Y2316000D03*
X2249930Y2270860D03*
X2113000Y2335000D03*
X2117000Y2371000D03*
X2235000Y2252000D03*
X2112000Y2571000D03*
X2178000Y2530000D03*
X2207000Y2536000D03*
X2205000Y2485000D03*
X2179000Y2475000D03*
X2115000Y2460000D03*
X2099000Y2542000D03*
X2241000Y2418000D03*
X2241630Y2488000D03*
X2236000Y2495000D03*
X2215000Y2497000D03*
X2128000Y2623000D03*
X2231000Y2612000D03*
Y2618000D03*
X2193000D03*
X2208000Y2594000D03*
X2251000Y2596000D03*
X2207000Y2639000D03*
X2118000Y2652000D03*
X2213000Y2711000D03*
X2179000Y2713000D03*
X2251000Y2659000D03*
X2223000Y2692000D03*
X2090000Y2652000D03*
X2163000Y2618000D03*
X2113000Y2621000D03*
X2177000Y2614000D03*
X2193000Y2611000D03*
X2243000Y2637000D03*
X2222960Y2726000D03*
X2202610Y2709990D03*
X2207010Y2677010D03*
X2155000Y2618530D03*
X2114360Y2627000D03*
X2217000Y2619000D03*
X2235100Y2637000D03*
X2228000Y2657000D03*
X2207000Y2652000D03*
X2233000D03*
X2178000Y2607000D03*
X2235000Y2594000D03*
X2217000Y2611000D03*
X2186000Y2635000D03*
X2240000Y2632000D03*
X2207000Y2690000D03*
X2231000Y2870000D03*
X2104000Y2816000D03*
X2189000Y2842000D03*
X2179000Y2868000D03*
X2143000Y2826000D03*
X2176000Y2814000D03*
X2183000Y2824000D03*
X2145000Y2883000D03*
X2158000Y2874000D03*
X2138000Y2873000D03*
X2135000Y2882000D03*
X2100000Y2843000D03*
X2107000Y2853000D03*
X2180000Y2742000D03*
X2118000Y2780000D03*
X2173000D03*
X2101000Y2889000D03*
X2147000Y2865770D03*
X2122000Y2879000D03*
X2170990Y2826470D03*
X2219000Y2789960D03*
X2206010Y2809000D03*
X2117000Y2823040D03*
X2121000Y2803620D03*
X2226130Y2757000D03*
X2166000Y2855010D03*
X2108000Y2870000D03*
X2120500Y2889000D03*
X2114000D03*
X2094000Y2869000D03*
X2107500Y2889000D03*
X2152000Y2896000D03*
X2168000Y2918000D03*
X2247000Y2928000D03*
X2156000Y2905000D03*
X2169990Y2903000D03*
X2271000Y2217000D03*
X2251640Y2247000D03*
X2286000Y2179000D03*
Y2196000D03*
X2273000Y2203000D03*
X2282000Y2152000D03*
X2266000Y2149000D03*
X2338000Y2130000D03*
X2331000D03*
X2310000Y2131000D03*
X2286000Y2139000D03*
X2294000Y2131000D03*
X2264000Y2171000D03*
X2257000D03*
X2260000Y2180000D03*
X2253000Y2175000D03*
Y2197000D03*
X2407000Y2131000D03*
X2399000Y2146000D03*
X2350000Y2183000D03*
X2339000Y2195000D03*
X2302380Y2195300D03*
X2355000Y2151000D03*
X2344500Y2151500D03*
X2308000Y2231000D03*
X2298000Y2240000D03*
X2331000Y2214000D03*
X2348000Y2193000D03*
X2389000Y2168000D03*
X2334000Y2166000D03*
X2293000Y2172000D03*
X2286000Y2147000D03*
X2285000Y2131000D03*
X2301000D03*
X2323000Y2130000D03*
X2298000Y2183000D03*
X2324000Y2159000D03*
X2372000Y2180000D03*
X2254780Y2210780D03*
X2365000Y2193000D03*
X2380000Y2209000D03*
X2394000Y2212000D03*
X2372000Y2205000D03*
X2324000Y2171000D03*
X2398000Y2130000D03*
X2311000Y2171000D03*
X2315000Y2145000D03*
X2366520Y2137520D03*
X2368000Y2130000D03*
X2346000D03*
X2357000Y2138000D03*
X2271000Y2208000D03*
X2261000Y2197000D03*
X2278000Y2219000D03*
X2271000Y2226000D03*
X2271350Y2231650D03*
X2290000Y2188000D03*
X2316000Y2190000D03*
X2351000Y2214000D03*
X2292000Y2202000D03*
X2323000Y2152000D03*
X2365000Y2172000D03*
X2381040Y2159830D03*
X2410000Y2166000D03*
X2401000Y2154000D03*
X2262500Y2211500D03*
X2275000Y2153000D03*
X2283000Y2162000D03*
X2373000Y2238000D03*
X2357000Y2247000D03*
X2395000Y2193000D03*
X2388000Y2205000D03*
X2340000Y2214000D03*
X2273000Y2172000D03*
X2291000Y2245000D03*
X2287220Y2210780D03*
X2306000Y2190000D03*
X2407500Y2139000D03*
X2322000Y2222000D03*
X2297000Y2150000D03*
X2344000Y2162000D03*
X2335000Y2222000D03*
X2395000Y2162000D03*
X2343000Y2224000D03*
X2332000Y2247000D03*
X2388000Y2180000D03*
X2279000Y2211000D03*
X2303000Y2246000D03*
X2308000Y2239000D03*
X2296500Y2250000D03*
X2361000Y2218000D03*
X2286000Y2249000D03*
X2260500Y2248500D03*
X2295000Y2257000D03*
X2342000Y2405000D03*
X2259000Y2282000D03*
X2267000Y2398000D03*
X2272000D03*
Y2393000D03*
X2267000D03*
X2347960Y2362000D03*
X2336000Y2365000D03*
X2348170Y2339000D03*
X2358490Y2294490D03*
X2348000Y2302720D03*
X2349000Y2354000D03*
X2342000Y2302770D03*
X2252520Y2294480D03*
X2376000Y2405000D03*
Y2314000D03*
X2413000Y2323000D03*
X2374010Y2318990D03*
X2328240Y2382000D03*
X2407980Y2267000D03*
X2332000Y2369000D03*
X2323000Y2378000D03*
X2404000Y2262000D03*
X2320000Y2387000D03*
X2371330Y2306900D03*
X2412000Y2283500D03*
X2358000Y2255000D03*
X2407250Y2396000D03*
X2367500Y2356250D03*
X2413000Y2340270D03*
X2412620Y2329380D03*
X2367720Y2334710D03*
X2368900Y2348000D03*
X2413000Y2335000D03*
X2315250Y2394000D03*
X2311250Y2405000D03*
X2287000Y2271000D03*
X2305500Y2274500D03*
X2401000Y2518000D03*
X2289000Y2433000D03*
X2346000Y2424000D03*
X2342000Y2483000D03*
X2345000Y2467000D03*
X2268000Y2486000D03*
X2368000Y2500000D03*
X2371000Y2533000D03*
X2265000Y2425000D03*
X2374250Y2457000D03*
X2391000Y2487000D03*
X2290750Y2484000D03*
X2385420Y2498770D03*
X2377000Y2463000D03*
X2300000D03*
X2387000Y2535000D03*
X2345000Y2517020D03*
X2398000Y2523000D03*
X2392000Y2500000D03*
X2377640Y2484640D03*
X2289000Y2494000D03*
X2285000Y2499000D03*
X2374000Y2489000D03*
X2385000Y2442000D03*
X2380250Y2436000D03*
X2267000Y2458000D03*
X2372000Y2508000D03*
X2410000Y2431000D03*
X2311000Y2433000D03*
X2342520Y2508480D03*
X2307000Y2514000D03*
Y2508000D03*
X2348000Y2504230D03*
X2350000Y2499000D03*
X2306000Y2502000D03*
X2339000Y2517000D03*
X2317000Y2521000D03*
X2281000Y2468000D03*
X2405000Y2452000D03*
X2273000Y2612000D03*
Y2617270D03*
X2365000Y2606000D03*
X2394000Y2659000D03*
X2395000Y2594000D03*
X2378000Y2635000D03*
X2275000Y2642000D03*
X2302000Y2636000D03*
X2330000Y2608000D03*
X2314000Y2590000D03*
X2297000Y2601000D03*
X2285000Y2598000D03*
X2255000Y2633000D03*
X2283370Y2628000D03*
X2356000Y2636000D03*
X2396000Y2621000D03*
X2264520Y2597000D03*
X2257000Y2619000D03*
X2297000D03*
X2365000Y2590000D03*
X2367000Y2598000D03*
X2410000Y2609000D03*
X2297000Y2611000D03*
X2257000D03*
X2277000Y2587000D03*
X2402000Y2604000D03*
X2322000Y2921000D03*
X2482000Y2131000D03*
X2461000D03*
X2452000D03*
X2432000D03*
X2420000D03*
X2442000D03*
X2473000D03*
X2492000D03*
X2537000Y2143000D03*
X2556000Y2130000D03*
X2576000Y2143000D03*
X2435350Y2191350D03*
X2459000Y2230000D03*
X2416000Y2175000D03*
X2539000Y2234000D03*
X2510000Y2228000D03*
X2497000Y2162000D03*
X2459000Y2151000D03*
X2424000Y2161000D03*
X2438000Y2166000D03*
X2475000Y2177000D03*
X2557000Y2206000D03*
X2531000Y2187000D03*
X2569000Y2251000D03*
X2559000Y2242000D03*
X2478000Y2254000D03*
X2473000Y2362000D03*
X2475000Y2337000D03*
X2443000Y2385000D03*
X2571000Y2392000D03*
X2434000Y2279000D03*
X2540000Y2285000D03*
X2539000Y2350000D03*
X2425000Y2359000D03*
X2452000Y2312000D03*
X2425000Y2320000D03*
X2434000Y2257000D03*
X2417000Y2314000D03*
X2423000Y2253000D03*
X2416000Y2257250D03*
X2478000Y2298000D03*
X2564000Y2557000D03*
X2543000Y2539000D03*
X2458000Y2510000D03*
X2431000Y2512000D03*
X2421000Y2511000D03*
X2416000Y2561000D03*
X2473000Y2495000D03*
X2424000Y2416000D03*
X2471000Y2427000D03*
X2448000Y2448000D03*
X2480000Y2539000D03*
X2528000Y2518000D03*
X2576000Y2455000D03*
X2504000Y2466000D03*
X2533000Y2506000D03*
X2570000Y2719000D03*
X2510000Y2646000D03*
X2445000Y2659000D03*
X2461000Y2608000D03*
X2510000Y2899000D03*
X2569000Y2837000D03*
X2456000Y2932000D03*
G54D15*
X2030000Y2576000D03*
X2097150Y1397600D03*
G54D16*
X2026000Y2496710D03*
Y2519710D03*
X2097150Y1254860D03*
X2192710Y2928000D03*
X2215710D03*
X2559000Y2520290D03*
Y2497290D03*
G54D17*
X2037500Y2885500D03*
X2017200D03*
X2027350Y2809300D03*
X2097150Y1183480D03*
G54D18*
X2074500Y2926500D03*
X2097150Y1040740D03*
X2153500Y2926500D03*
G54D19*
X2097150Y1611700D03*
X2132000Y2851000D03*
Y2860000D03*
Y2842000D03*
X2276000Y2306000D03*
X2286000D03*
X2296000D03*
X2306000D03*
X2316000D03*
Y2316000D03*
X2306000D03*
X2296000D03*
X2286000D03*
X2276000D03*
X2316000Y2326000D03*
X2306000D03*
X2296000D03*
X2286000D03*
X2276000D03*
X2316000Y2336000D03*
X2306000D03*
X2296000D03*
X2286000D03*
X2276000D03*
X2316000Y2346000D03*
X2306000D03*
X2296000D03*
X2286000D03*
X2276000D03*
M02*
