G75*
%MOIN*%
%OFA0B0*%
%FSLAX25Y25*%
%IPPOS*%
%LPD*%
%AMOC8*
5,1,8,0,0,1.08239X$1,22.5*
%
%ADD10C,0.00400*%
%ADD11C,0.00500*%
%ADD12C,0.00800*%
D10*
X0028292Y0029315D02*
X0028693Y0028915D01*
X0029894Y0028915D01*
X0029894Y0031317D01*
X0028693Y0031317D01*
X0028292Y0030917D01*
X0028292Y0029315D01*
X0030870Y0028915D02*
X0032472Y0028915D01*
X0032472Y0031317D01*
X0030870Y0031317D01*
X0031671Y0030116D02*
X0032472Y0030116D01*
X0033449Y0028915D02*
X0035050Y0028915D01*
X0035050Y0031317D01*
X0035503Y0066815D02*
X0037105Y0066815D01*
X0036304Y0066815D02*
X0036304Y0069217D01*
X0037105Y0068416D01*
X0038081Y0068817D02*
X0038081Y0067215D01*
X0038482Y0066815D01*
X0039282Y0066815D01*
X0039683Y0067215D01*
X0038081Y0068817D01*
X0038482Y0069217D01*
X0039282Y0069217D01*
X0039683Y0068817D01*
X0039683Y0067215D01*
X0040571Y0067215D02*
X0040571Y0066815D01*
X0040972Y0066815D01*
X0040972Y0067215D01*
X0040571Y0067215D01*
X0041949Y0068416D02*
X0042749Y0066815D01*
X0043550Y0068416D01*
X0034526Y0068016D02*
X0034126Y0068416D01*
X0033325Y0068416D01*
X0032925Y0068016D01*
X0032925Y0066815D01*
X0034526Y0066815D02*
X0034526Y0069217D01*
X0038615Y0121715D02*
X0038615Y0124117D01*
X0037014Y0124117D01*
X0037815Y0122916D02*
X0038615Y0122916D01*
X0039592Y0124117D02*
X0041194Y0124117D01*
X0041194Y0121715D01*
X0039592Y0121715D01*
X0040393Y0122916D02*
X0041194Y0122916D01*
X0042170Y0122916D02*
X0042170Y0123717D01*
X0042571Y0124117D01*
X0043772Y0124117D01*
X0043772Y0121715D01*
X0043772Y0122516D02*
X0042571Y0122516D01*
X0042170Y0122916D01*
X0042971Y0122516D02*
X0042170Y0121715D01*
X0044749Y0121715D02*
X0044749Y0123316D01*
X0045549Y0124117D01*
X0046350Y0123316D01*
X0046350Y0121715D01*
X0046350Y0122916D02*
X0044749Y0122916D01*
D11*
X0048759Y0088567D02*
X0048759Y0085865D01*
X0049903Y0086315D02*
X0050354Y0086766D01*
X0051255Y0086766D01*
X0051705Y0087216D01*
X0051255Y0087666D01*
X0049903Y0087666D01*
X0048759Y0087216D02*
X0048308Y0087666D01*
X0047407Y0087666D01*
X0046957Y0087216D01*
X0046957Y0085865D01*
X0045812Y0086315D02*
X0045812Y0087216D01*
X0045362Y0087666D01*
X0044461Y0087666D01*
X0044010Y0087216D01*
X0044010Y0086315D01*
X0044461Y0085865D01*
X0045362Y0085865D01*
X0045812Y0086315D01*
X0042865Y0085865D02*
X0041514Y0085865D01*
X0041064Y0086315D01*
X0041064Y0087216D01*
X0041514Y0087666D01*
X0042865Y0087666D01*
X0042865Y0084964D01*
X0039919Y0084964D02*
X0039919Y0087666D01*
X0038568Y0087666D01*
X0038117Y0087216D01*
X0038117Y0086315D01*
X0038568Y0085865D01*
X0039919Y0085865D01*
X0036972Y0086315D02*
X0036972Y0087216D01*
X0036522Y0087666D01*
X0035621Y0087666D01*
X0035171Y0087216D01*
X0035171Y0086766D01*
X0036972Y0086766D01*
X0036972Y0086315D02*
X0036522Y0085865D01*
X0035621Y0085865D01*
X0034026Y0085865D02*
X0034026Y0087666D01*
X0034026Y0086766D02*
X0033125Y0087666D01*
X0032675Y0087666D01*
X0049903Y0086315D02*
X0050354Y0085865D01*
X0051705Y0085865D01*
X0052850Y0086315D02*
X0053300Y0086766D01*
X0054201Y0086766D01*
X0054652Y0087216D01*
X0054201Y0087666D01*
X0052850Y0087666D01*
X0052850Y0086315D02*
X0053300Y0085865D01*
X0054652Y0085865D01*
X0055797Y0085865D02*
X0055797Y0087216D01*
X0056247Y0087666D01*
X0057148Y0087666D01*
X0057148Y0086766D02*
X0055797Y0086766D01*
X0055797Y0085865D02*
X0057148Y0085865D01*
X0057598Y0086315D01*
X0057148Y0086766D01*
X0058702Y0087666D02*
X0059153Y0087666D01*
X0060053Y0086766D01*
X0060053Y0087666D02*
X0060053Y0085865D01*
X0061198Y0086315D02*
X0061198Y0087216D01*
X0062099Y0087216D01*
X0061198Y0086315D02*
X0061649Y0085865D01*
X0062550Y0085865D01*
X0063000Y0086315D01*
X0063000Y0088117D01*
X0062550Y0088567D01*
X0061649Y0088567D01*
X0061198Y0088117D01*
X0067450Y0075620D02*
X0067901Y0075170D01*
X0067901Y0074269D01*
X0068351Y0073818D01*
X0068802Y0074269D01*
X0068802Y0075620D01*
X0067450Y0075620D02*
X0067000Y0075170D01*
X0067000Y0073818D01*
X0067000Y0072755D02*
X0067450Y0072304D01*
X0069252Y0072304D01*
X0068802Y0071854D02*
X0068802Y0072755D01*
X0068802Y0070709D02*
X0068802Y0069358D01*
X0068351Y0068908D01*
X0067450Y0068908D01*
X0067000Y0069358D01*
X0067000Y0070709D01*
X0067000Y0067763D02*
X0068802Y0067763D01*
X0068802Y0065961D02*
X0067450Y0065961D01*
X0067000Y0066411D01*
X0067000Y0067763D01*
X0067000Y0064816D02*
X0067000Y0063465D01*
X0067450Y0063015D01*
X0068351Y0063015D01*
X0068802Y0063465D01*
X0068802Y0064816D01*
X0069702Y0064816D02*
X0067000Y0064816D01*
X0067450Y0061870D02*
X0068351Y0061870D01*
X0068802Y0061419D01*
X0068802Y0060518D01*
X0068351Y0060068D01*
X0067450Y0060068D01*
X0067000Y0060518D01*
X0067000Y0061419D01*
X0067450Y0061870D01*
X0068802Y0058964D02*
X0068802Y0058513D01*
X0067901Y0057613D01*
X0067000Y0057613D02*
X0068802Y0057613D01*
X0069252Y0056468D02*
X0068351Y0056468D01*
X0067901Y0056017D01*
X0067901Y0054666D01*
X0067000Y0054666D02*
X0069702Y0054666D01*
X0069702Y0056017D01*
X0069252Y0056468D01*
X0068802Y0050575D02*
X0066550Y0050575D01*
X0066099Y0050124D01*
X0066099Y0049674D01*
X0067000Y0049223D02*
X0067450Y0048773D01*
X0068802Y0048773D01*
X0068802Y0047669D02*
X0067901Y0046318D01*
X0067000Y0047669D01*
X0067000Y0046318D02*
X0069702Y0046318D01*
X0068802Y0045173D02*
X0068802Y0043821D01*
X0068351Y0043371D01*
X0067901Y0043821D01*
X0067901Y0044722D01*
X0067450Y0045173D01*
X0067000Y0044722D01*
X0067000Y0043371D01*
X0067901Y0042226D02*
X0067901Y0040425D01*
X0068351Y0040425D02*
X0067450Y0040425D01*
X0067000Y0040875D01*
X0067000Y0041776D01*
X0067901Y0042226D02*
X0068351Y0042226D01*
X0068802Y0041776D01*
X0068802Y0040875D01*
X0068351Y0040425D01*
X0068351Y0039280D02*
X0067901Y0038829D01*
X0067901Y0037478D01*
X0067000Y0037478D02*
X0069702Y0037478D01*
X0069702Y0038829D01*
X0069252Y0039280D01*
X0068351Y0039280D01*
X0067000Y0049223D02*
X0067000Y0050575D01*
X0055419Y0039990D02*
X0055419Y0036840D01*
X0051481Y0036840D01*
X0051088Y0036446D01*
X0051481Y0036840D02*
X0051481Y0039990D01*
X0055419Y0039990D01*
X0055812Y0032596D02*
X0051088Y0032596D01*
X0051088Y0030234D01*
X0055812Y0030234D01*
X0055812Y0032596D01*
D12*
X0027950Y0033165D02*
X0027950Y0039665D01*
X0027952Y0039725D01*
X0027957Y0039786D01*
X0027966Y0039845D01*
X0027979Y0039904D01*
X0027995Y0039963D01*
X0028015Y0040020D01*
X0028038Y0040075D01*
X0028065Y0040130D01*
X0028094Y0040182D01*
X0028127Y0040233D01*
X0028163Y0040282D01*
X0028201Y0040328D01*
X0028243Y0040372D01*
X0028287Y0040414D01*
X0028333Y0040452D01*
X0028382Y0040488D01*
X0028433Y0040521D01*
X0028485Y0040550D01*
X0028540Y0040577D01*
X0028595Y0040600D01*
X0028652Y0040620D01*
X0028711Y0040636D01*
X0028770Y0040649D01*
X0028829Y0040658D01*
X0028890Y0040663D01*
X0028950Y0040665D01*
X0027950Y0033165D02*
X0027952Y0033105D01*
X0027957Y0033044D01*
X0027966Y0032985D01*
X0027979Y0032926D01*
X0027995Y0032867D01*
X0028015Y0032810D01*
X0028038Y0032755D01*
X0028065Y0032700D01*
X0028094Y0032648D01*
X0028127Y0032597D01*
X0028163Y0032548D01*
X0028201Y0032502D01*
X0028243Y0032458D01*
X0028287Y0032416D01*
X0028333Y0032378D01*
X0028382Y0032342D01*
X0028433Y0032309D01*
X0028485Y0032280D01*
X0028540Y0032253D01*
X0028595Y0032230D01*
X0028652Y0032210D01*
X0028711Y0032194D01*
X0028770Y0032181D01*
X0028829Y0032172D01*
X0028890Y0032167D01*
X0028950Y0032165D01*
X0034950Y0032165D02*
X0035010Y0032167D01*
X0035071Y0032172D01*
X0035130Y0032181D01*
X0035189Y0032194D01*
X0035248Y0032210D01*
X0035305Y0032230D01*
X0035360Y0032253D01*
X0035415Y0032280D01*
X0035467Y0032309D01*
X0035518Y0032342D01*
X0035567Y0032378D01*
X0035613Y0032416D01*
X0035657Y0032458D01*
X0035699Y0032502D01*
X0035737Y0032548D01*
X0035773Y0032597D01*
X0035806Y0032648D01*
X0035835Y0032700D01*
X0035862Y0032755D01*
X0035885Y0032810D01*
X0035905Y0032867D01*
X0035921Y0032926D01*
X0035934Y0032985D01*
X0035943Y0033044D01*
X0035948Y0033105D01*
X0035950Y0033165D01*
X0035950Y0039665D01*
X0035948Y0039725D01*
X0035943Y0039786D01*
X0035934Y0039845D01*
X0035921Y0039904D01*
X0035905Y0039963D01*
X0035885Y0040020D01*
X0035862Y0040075D01*
X0035835Y0040130D01*
X0035806Y0040182D01*
X0035773Y0040233D01*
X0035737Y0040282D01*
X0035699Y0040328D01*
X0035657Y0040372D01*
X0035613Y0040414D01*
X0035567Y0040452D01*
X0035518Y0040488D01*
X0035467Y0040521D01*
X0035415Y0040550D01*
X0035360Y0040577D01*
X0035305Y0040600D01*
X0035248Y0040620D01*
X0035189Y0040636D01*
X0035130Y0040649D01*
X0035071Y0040658D01*
X0035010Y0040663D01*
X0034950Y0040665D01*
X0037650Y0125965D02*
X0037650Y0132465D01*
X0037652Y0132525D01*
X0037657Y0132586D01*
X0037666Y0132645D01*
X0037679Y0132704D01*
X0037695Y0132763D01*
X0037715Y0132820D01*
X0037738Y0132875D01*
X0037765Y0132930D01*
X0037794Y0132982D01*
X0037827Y0133033D01*
X0037863Y0133082D01*
X0037901Y0133128D01*
X0037943Y0133172D01*
X0037987Y0133214D01*
X0038033Y0133252D01*
X0038082Y0133288D01*
X0038133Y0133321D01*
X0038185Y0133350D01*
X0038240Y0133377D01*
X0038295Y0133400D01*
X0038352Y0133420D01*
X0038411Y0133436D01*
X0038470Y0133449D01*
X0038529Y0133458D01*
X0038590Y0133463D01*
X0038650Y0133465D01*
X0037650Y0125965D02*
X0037652Y0125905D01*
X0037657Y0125844D01*
X0037666Y0125785D01*
X0037679Y0125726D01*
X0037695Y0125667D01*
X0037715Y0125610D01*
X0037738Y0125555D01*
X0037765Y0125500D01*
X0037794Y0125448D01*
X0037827Y0125397D01*
X0037863Y0125348D01*
X0037901Y0125302D01*
X0037943Y0125258D01*
X0037987Y0125216D01*
X0038033Y0125178D01*
X0038082Y0125142D01*
X0038133Y0125109D01*
X0038185Y0125080D01*
X0038240Y0125053D01*
X0038295Y0125030D01*
X0038352Y0125010D01*
X0038411Y0124994D01*
X0038470Y0124981D01*
X0038529Y0124972D01*
X0038590Y0124967D01*
X0038650Y0124965D01*
X0044650Y0124965D02*
X0044710Y0124967D01*
X0044771Y0124972D01*
X0044830Y0124981D01*
X0044889Y0124994D01*
X0044948Y0125010D01*
X0045005Y0125030D01*
X0045060Y0125053D01*
X0045115Y0125080D01*
X0045167Y0125109D01*
X0045218Y0125142D01*
X0045267Y0125178D01*
X0045313Y0125216D01*
X0045357Y0125258D01*
X0045399Y0125302D01*
X0045437Y0125348D01*
X0045473Y0125397D01*
X0045506Y0125448D01*
X0045535Y0125500D01*
X0045562Y0125555D01*
X0045585Y0125610D01*
X0045605Y0125667D01*
X0045621Y0125726D01*
X0045634Y0125785D01*
X0045643Y0125844D01*
X0045648Y0125905D01*
X0045650Y0125965D01*
X0045650Y0132465D01*
X0045648Y0132525D01*
X0045643Y0132586D01*
X0045634Y0132645D01*
X0045621Y0132704D01*
X0045605Y0132763D01*
X0045585Y0132820D01*
X0045562Y0132875D01*
X0045535Y0132930D01*
X0045506Y0132982D01*
X0045473Y0133033D01*
X0045437Y0133082D01*
X0045399Y0133128D01*
X0045357Y0133172D01*
X0045313Y0133214D01*
X0045267Y0133252D01*
X0045218Y0133288D01*
X0045167Y0133321D01*
X0045115Y0133350D01*
X0045060Y0133377D01*
X0045005Y0133400D01*
X0044948Y0133420D01*
X0044889Y0133436D01*
X0044830Y0133449D01*
X0044771Y0133458D01*
X0044710Y0133463D01*
X0044650Y0133465D01*
M02*
