G75*
%MOIN*%
%OFA0B0*%
%FSLAX25Y25*%
%IPPOS*%
%LPD*%
%AMOC8*
5,1,8,0,0,1.08239X$1,22.5*
%
%ADD10C,0.00400*%
%ADD11C,0.00500*%
%ADD12C,0.00100*%
%ADD13C,0.01600*%
%ADD14R,0.02800X0.01600*%
%ADD15R,0.01600X0.02800*%
%ADD16R,0.00100X0.00100*%
%ADD17R,0.00300X0.00100*%
%ADD18R,0.00400X0.00100*%
%ADD19R,0.00200X0.00100*%
%ADD20R,0.00500X0.00100*%
%ADD21R,0.00600X0.00100*%
%ADD22R,0.00800X0.00100*%
%ADD23R,0.00700X0.00100*%
%ADD24R,0.00900X0.00100*%
%ADD25R,0.01200X0.00100*%
%ADD26R,0.01100X0.00100*%
%ADD27R,0.01000X0.00100*%
%ADD28R,0.02200X0.00100*%
%ADD29R,0.03200X0.00100*%
%ADD30R,0.02500X0.00100*%
%ADD31R,0.01600X0.00100*%
%ADD32R,0.02400X0.00100*%
%ADD33R,0.01800X0.00100*%
%ADD34R,0.01400X0.00100*%
%ADD35R,0.02300X0.00100*%
%ADD36R,0.01300X0.00100*%
%ADD37R,0.04200X0.00100*%
%ADD38R,0.03000X0.00100*%
%ADD39R,0.03300X0.00100*%
%ADD40R,0.01700X0.00100*%
%ADD41R,0.01500X0.00100*%
%ADD42R,0.02100X0.00100*%
%ADD43R,0.02700X0.00100*%
%ADD44R,0.05200X0.00100*%
%ADD45R,0.03400X0.00100*%
%ADD46R,0.03600X0.00100*%
%ADD47R,0.02800X0.00100*%
%ADD48R,0.02900X0.00100*%
%ADD49R,0.02000X0.00100*%
%ADD50R,0.03100X0.00100*%
D10*
X0026848Y0008615D02*
X0028449Y0008615D01*
X0029250Y0009416D01*
X0028449Y0010216D01*
X0026848Y0010216D01*
X0026848Y0011193D02*
X0026848Y0011994D01*
X0026848Y0011593D02*
X0029250Y0011593D01*
X0029250Y0011193D02*
X0029250Y0011994D01*
X0029250Y0012912D02*
X0026848Y0012912D01*
X0029250Y0014513D01*
X0026848Y0014513D01*
X0027248Y0018615D02*
X0028850Y0018615D01*
X0029250Y0019015D01*
X0029250Y0019816D01*
X0028850Y0020216D01*
X0028049Y0020216D01*
X0028049Y0019416D01*
X0027248Y0020216D02*
X0026848Y0019816D01*
X0026848Y0019015D01*
X0027248Y0018615D01*
X0026848Y0021193D02*
X0029250Y0022795D01*
X0026848Y0022795D01*
X0026848Y0023771D02*
X0026848Y0024972D01*
X0027248Y0025373D01*
X0028850Y0025373D01*
X0029250Y0024972D01*
X0029250Y0023771D01*
X0026848Y0023771D01*
X0026848Y0021193D02*
X0029250Y0021193D01*
X0028850Y0028615D02*
X0029250Y0029015D01*
X0029250Y0029816D01*
X0028850Y0030216D01*
X0028449Y0030216D01*
X0028049Y0029816D01*
X0028049Y0029416D01*
X0028049Y0029816D02*
X0027649Y0030216D01*
X0027248Y0030216D01*
X0026848Y0029816D01*
X0026848Y0029015D01*
X0027248Y0028615D01*
X0026848Y0031193D02*
X0028449Y0031193D01*
X0029250Y0031994D01*
X0028449Y0032795D01*
X0026848Y0032795D01*
X0027248Y0033771D02*
X0026848Y0034172D01*
X0026848Y0034972D01*
X0027248Y0035373D01*
X0027649Y0035373D01*
X0028049Y0034972D01*
X0028449Y0035373D01*
X0028850Y0035373D01*
X0029250Y0034972D01*
X0029250Y0034172D01*
X0028850Y0033771D01*
X0028049Y0034572D02*
X0028049Y0034972D01*
X0028049Y0037115D02*
X0028049Y0038716D01*
X0027649Y0038716D02*
X0029250Y0038716D01*
X0029250Y0039693D02*
X0026848Y0039693D01*
X0026848Y0040894D01*
X0027248Y0041295D01*
X0028049Y0041295D01*
X0028449Y0040894D01*
X0028449Y0039693D01*
X0028449Y0040494D02*
X0029250Y0041295D01*
X0029250Y0042271D02*
X0026848Y0042271D01*
X0026848Y0043873D01*
X0026848Y0044850D02*
X0026848Y0046451D01*
X0028049Y0045650D02*
X0028049Y0044850D01*
X0029250Y0044850D02*
X0026848Y0044850D01*
X0028049Y0043072D02*
X0028049Y0042271D01*
X0029250Y0042271D02*
X0029250Y0043873D01*
X0027649Y0038716D02*
X0026848Y0037916D01*
X0027649Y0037115D01*
X0029250Y0037115D01*
X0029250Y0049615D02*
X0027649Y0049615D01*
X0026848Y0050416D01*
X0027649Y0051216D01*
X0029250Y0051216D01*
X0028049Y0051216D02*
X0028049Y0049615D01*
X0028049Y0052193D02*
X0028049Y0053795D01*
X0029250Y0053394D02*
X0026848Y0053394D01*
X0028049Y0052193D01*
X0028049Y0059815D02*
X0028049Y0061416D01*
X0027649Y0061416D02*
X0029250Y0061416D01*
X0028850Y0062393D02*
X0029250Y0062793D01*
X0029250Y0063594D01*
X0028850Y0063995D01*
X0028449Y0063995D01*
X0028049Y0063594D01*
X0028049Y0063194D01*
X0028049Y0063594D02*
X0027649Y0063995D01*
X0027248Y0063995D01*
X0026848Y0063594D01*
X0026848Y0062793D01*
X0027248Y0062393D01*
X0027649Y0061416D02*
X0026848Y0060616D01*
X0027649Y0059815D01*
X0029250Y0059815D01*
X0029250Y0069515D02*
X0027649Y0069515D01*
X0026848Y0070316D01*
X0027649Y0071116D01*
X0029250Y0071116D01*
X0029250Y0072093D02*
X0027649Y0073695D01*
X0027248Y0073695D01*
X0026848Y0073294D01*
X0026848Y0072493D01*
X0027248Y0072093D01*
X0028049Y0071116D02*
X0028049Y0069515D01*
X0029250Y0072093D02*
X0029250Y0073695D01*
X0028550Y0075615D02*
X0026949Y0075615D01*
X0026148Y0076416D01*
X0026949Y0077216D01*
X0028550Y0077216D01*
X0028550Y0078193D02*
X0028550Y0079795D01*
X0028550Y0078994D02*
X0026148Y0078994D01*
X0026949Y0078193D01*
X0027349Y0077216D02*
X0027349Y0075615D01*
X0027349Y0085215D02*
X0027349Y0086816D01*
X0026949Y0086816D02*
X0028550Y0086816D01*
X0028150Y0087793D02*
X0026548Y0089395D01*
X0028150Y0089395D01*
X0028550Y0088994D01*
X0028550Y0088193D01*
X0028150Y0087793D01*
X0026548Y0087793D01*
X0026148Y0088193D01*
X0026148Y0088994D01*
X0026548Y0089395D01*
X0026949Y0086816D02*
X0026148Y0086016D01*
X0026949Y0085215D01*
X0028550Y0085215D01*
X0028150Y0093915D02*
X0028550Y0094315D01*
X0028550Y0095116D01*
X0028150Y0095516D01*
X0027749Y0095516D01*
X0027349Y0095116D01*
X0027349Y0094315D01*
X0026949Y0093915D01*
X0026548Y0093915D01*
X0026148Y0094315D01*
X0026148Y0095116D01*
X0026548Y0095516D01*
X0026148Y0096493D02*
X0026148Y0097694D01*
X0026548Y0098095D01*
X0028150Y0098095D01*
X0028550Y0097694D01*
X0028550Y0096493D01*
X0026148Y0096493D01*
X0026949Y0099071D02*
X0026148Y0099872D01*
X0026949Y0100673D01*
X0028550Y0100673D01*
X0027349Y0100673D02*
X0027349Y0099071D01*
X0026949Y0099071D02*
X0028550Y0099071D01*
X0028150Y0104715D02*
X0028550Y0105115D01*
X0028550Y0105916D01*
X0028150Y0106316D01*
X0027749Y0106316D01*
X0027349Y0105916D01*
X0027349Y0105115D01*
X0026949Y0104715D01*
X0026548Y0104715D01*
X0026148Y0105115D01*
X0026148Y0105916D01*
X0026548Y0106316D01*
X0026548Y0107293D02*
X0028150Y0107293D01*
X0028550Y0107693D01*
X0028550Y0108494D01*
X0028150Y0108895D01*
X0028550Y0109871D02*
X0028550Y0111473D01*
X0028550Y0109871D02*
X0026148Y0109871D01*
X0026548Y0108895D02*
X0026148Y0108494D01*
X0026148Y0107693D01*
X0026548Y0107293D01*
X0026949Y0115315D02*
X0026148Y0116116D01*
X0028550Y0116116D01*
X0028550Y0116916D02*
X0028550Y0115315D01*
X0028150Y0117893D02*
X0028550Y0118293D01*
X0028550Y0119094D01*
X0028150Y0119495D01*
X0027749Y0119495D01*
X0027349Y0119094D01*
X0027349Y0118694D01*
X0027349Y0119094D02*
X0026949Y0119495D01*
X0026548Y0119495D01*
X0026148Y0119094D01*
X0026148Y0118293D01*
X0026548Y0117893D01*
X0075848Y0117693D02*
X0076248Y0117293D01*
X0075848Y0117693D02*
X0075848Y0118494D01*
X0076248Y0118895D01*
X0076649Y0118895D01*
X0078250Y0117293D01*
X0078250Y0118895D01*
X0078250Y0116316D02*
X0078250Y0114715D01*
X0078250Y0115516D02*
X0075848Y0115516D01*
X0076649Y0114715D01*
X0078250Y0108895D02*
X0078250Y0107293D01*
X0078250Y0108094D02*
X0075848Y0108094D01*
X0076649Y0107293D01*
X0078250Y0106316D02*
X0078250Y0104715D01*
X0078250Y0105516D02*
X0075848Y0105516D01*
X0076649Y0104715D01*
X0076248Y0098895D02*
X0075848Y0098494D01*
X0075848Y0097693D01*
X0076248Y0097293D01*
X0077850Y0097293D01*
X0076248Y0098895D01*
X0077850Y0098895D01*
X0078250Y0098494D01*
X0078250Y0097693D01*
X0077850Y0097293D01*
X0078250Y0096316D02*
X0078250Y0094715D01*
X0078250Y0095516D02*
X0075848Y0095516D01*
X0076649Y0094715D01*
X0077049Y0089216D02*
X0077049Y0088015D01*
X0076649Y0087615D01*
X0076248Y0087615D01*
X0075848Y0088015D01*
X0075848Y0088816D01*
X0076248Y0089216D01*
X0077850Y0089216D01*
X0078250Y0088816D01*
X0078250Y0088015D01*
X0077850Y0087615D01*
X0077850Y0079316D02*
X0078250Y0078916D01*
X0078250Y0078115D01*
X0077850Y0077715D01*
X0077449Y0077715D01*
X0077049Y0078115D01*
X0077049Y0078916D01*
X0077449Y0079316D01*
X0077850Y0079316D01*
X0077049Y0078916D02*
X0076649Y0079316D01*
X0076248Y0079316D01*
X0075848Y0078916D01*
X0075848Y0078115D01*
X0076248Y0077715D01*
X0076649Y0077715D01*
X0077049Y0078115D01*
X0077050Y0072216D02*
X0077450Y0071816D01*
X0077450Y0071015D01*
X0077050Y0070615D01*
X0076249Y0070615D02*
X0075849Y0071416D01*
X0075849Y0071816D01*
X0076249Y0072216D01*
X0077050Y0072216D01*
X0076249Y0070615D02*
X0075048Y0070615D01*
X0075048Y0072216D01*
X0076249Y0062216D02*
X0076249Y0060615D01*
X0075048Y0061816D01*
X0077450Y0061816D01*
X0077050Y0052316D02*
X0077450Y0051916D01*
X0077450Y0051115D01*
X0077050Y0050715D01*
X0076249Y0051516D02*
X0076249Y0051916D01*
X0076649Y0052316D01*
X0077050Y0052316D01*
X0076249Y0051916D02*
X0075849Y0052316D01*
X0075448Y0052316D01*
X0075048Y0051916D01*
X0075048Y0051115D01*
X0075448Y0050715D01*
X0075448Y0042916D02*
X0075048Y0042516D01*
X0075048Y0041715D01*
X0075448Y0041315D01*
X0075448Y0042916D02*
X0075849Y0042916D01*
X0077450Y0041315D01*
X0077450Y0042916D01*
X0077450Y0031916D02*
X0077450Y0030315D01*
X0077450Y0031116D02*
X0075048Y0031116D01*
X0075849Y0030315D01*
X0075448Y0022216D02*
X0077050Y0020615D01*
X0077450Y0021015D01*
X0077450Y0021816D01*
X0077050Y0022216D01*
X0075448Y0022216D01*
X0075048Y0021816D01*
X0075048Y0021015D01*
X0075448Y0020615D01*
X0077050Y0020615D01*
X0077350Y0014873D02*
X0075748Y0014873D01*
X0075348Y0014472D01*
X0075348Y0013271D01*
X0077750Y0013271D01*
X0077750Y0014472D01*
X0077350Y0014873D01*
X0077750Y0012295D02*
X0075348Y0012295D01*
X0075348Y0010693D02*
X0077750Y0012295D01*
X0077750Y0010693D02*
X0075348Y0010693D01*
X0075748Y0009716D02*
X0075348Y0009316D01*
X0075348Y0008515D01*
X0075748Y0008115D01*
X0077350Y0008115D01*
X0077750Y0008515D01*
X0077750Y0009316D01*
X0077350Y0009716D01*
X0076549Y0009716D01*
X0076549Y0008916D01*
X0065986Y0024417D02*
X0064385Y0024417D01*
X0065185Y0024417D02*
X0065185Y0022015D01*
X0063408Y0022415D02*
X0063408Y0024017D01*
X0063007Y0024417D01*
X0062207Y0024417D01*
X0061806Y0024017D01*
X0061806Y0022415D01*
X0062207Y0022015D01*
X0063007Y0022015D01*
X0063408Y0022415D01*
X0060830Y0022415D02*
X0060830Y0024017D01*
X0060429Y0024417D01*
X0059629Y0024417D01*
X0059228Y0024017D01*
X0059228Y0022415D01*
X0059629Y0022015D01*
X0060429Y0022015D01*
X0060830Y0022415D01*
X0058251Y0022415D02*
X0057851Y0022015D01*
X0056650Y0022015D01*
X0056650Y0024417D01*
X0057851Y0024417D01*
X0058251Y0024017D01*
X0058251Y0023616D01*
X0057851Y0023216D01*
X0056650Y0023216D01*
X0057851Y0023216D02*
X0058251Y0022816D01*
X0058251Y0022415D01*
X0046585Y0025215D02*
X0038850Y0025215D01*
X0039050Y0024417D02*
X0040251Y0024417D01*
X0040651Y0024017D01*
X0040651Y0023216D01*
X0040251Y0022816D01*
X0039050Y0022816D01*
X0039851Y0022816D02*
X0040651Y0022015D01*
X0041628Y0022415D02*
X0042029Y0022015D01*
X0042829Y0022015D01*
X0043230Y0022415D01*
X0043230Y0022816D01*
X0042829Y0023216D01*
X0042029Y0023216D01*
X0041628Y0023616D01*
X0041628Y0024017D01*
X0042029Y0024417D01*
X0042829Y0024417D01*
X0043230Y0024017D01*
X0044206Y0024417D02*
X0045808Y0024417D01*
X0045007Y0024417D02*
X0045007Y0022015D01*
X0039050Y0022015D02*
X0039050Y0024417D01*
D11*
X0037076Y0032187D02*
X0037078Y0032212D01*
X0037084Y0032236D01*
X0037093Y0032258D01*
X0037106Y0032279D01*
X0037122Y0032298D01*
X0037141Y0032314D01*
X0037162Y0032327D01*
X0037184Y0032336D01*
X0037208Y0032342D01*
X0037233Y0032344D01*
X0037258Y0032342D01*
X0037282Y0032336D01*
X0037304Y0032327D01*
X0037325Y0032314D01*
X0037344Y0032298D01*
X0037360Y0032279D01*
X0037373Y0032258D01*
X0037382Y0032236D01*
X0037388Y0032212D01*
X0037390Y0032187D01*
X0037388Y0032162D01*
X0037382Y0032138D01*
X0037373Y0032116D01*
X0037360Y0032095D01*
X0037344Y0032076D01*
X0037325Y0032060D01*
X0037304Y0032047D01*
X0037282Y0032038D01*
X0037258Y0032032D01*
X0037233Y0032030D01*
X0037208Y0032032D01*
X0037184Y0032038D01*
X0037162Y0032047D01*
X0037141Y0032060D01*
X0037122Y0032076D01*
X0037106Y0032095D01*
X0037093Y0032116D01*
X0037084Y0032138D01*
X0037078Y0032162D01*
X0037076Y0032187D01*
X0037391Y0032383D02*
X0037391Y0038407D01*
X0042548Y0038407D01*
X0042548Y0032383D01*
X0037391Y0032383D01*
X0034328Y0037361D02*
X0031572Y0037361D01*
X0032950Y0037400D02*
X0032950Y0038030D01*
X0031049Y0048365D02*
X0031049Y0050166D01*
X0031101Y0056115D02*
X0031101Y0057917D01*
X0030200Y0057016D02*
X0032002Y0057016D01*
X0029169Y0074412D02*
X0075231Y0074412D01*
X0075231Y0124018D01*
X0029169Y0124018D01*
X0029169Y0074412D01*
X0045084Y0037765D02*
X0046816Y0037765D01*
X0046816Y0036765D02*
X0045084Y0036765D01*
X0048915Y0020911D02*
X0048915Y0007919D01*
X0031985Y0007919D01*
X0031985Y0020911D01*
X0048915Y0020911D01*
X0055485Y0020911D02*
X0055485Y0007919D01*
X0072415Y0007919D01*
X0072415Y0020911D01*
X0055485Y0020911D01*
X0022204Y0126837D02*
X0022204Y0129593D01*
X0022165Y0128215D02*
X0021535Y0128215D01*
X0074698Y0146049D02*
X0075181Y0145565D01*
X0075665Y0145565D01*
X0076149Y0146049D01*
X0076149Y0147016D01*
X0076633Y0147500D01*
X0077116Y0147500D01*
X0077600Y0147016D01*
X0077600Y0146049D01*
X0077116Y0145565D01*
X0075181Y0147500D02*
X0074698Y0147016D01*
X0074698Y0146049D01*
X0074698Y0148696D02*
X0074698Y0150631D01*
X0074698Y0149663D02*
X0077600Y0149663D01*
X0077600Y0151826D02*
X0074698Y0151826D01*
X0075665Y0152794D01*
X0074698Y0153761D01*
X0077600Y0153761D01*
X0077116Y0154957D02*
X0077600Y0155441D01*
X0077600Y0156408D01*
X0077116Y0156892D01*
X0076633Y0156892D01*
X0076149Y0156408D01*
X0076149Y0155924D01*
X0076149Y0156408D02*
X0075665Y0156892D01*
X0075181Y0156892D01*
X0074698Y0156408D01*
X0074698Y0155441D01*
X0075181Y0154957D01*
X0075181Y0158088D02*
X0074698Y0158571D01*
X0074698Y0159539D01*
X0075181Y0160023D01*
X0075665Y0160023D01*
X0077600Y0158088D01*
X0077600Y0160023D01*
X0077600Y0161218D02*
X0077600Y0163153D01*
X0077116Y0164349D02*
X0077600Y0164833D01*
X0077600Y0165800D01*
X0077116Y0166284D01*
X0075181Y0166284D01*
X0077116Y0164349D01*
X0075181Y0164349D01*
X0074698Y0164833D01*
X0074698Y0165800D01*
X0075181Y0166284D01*
X0075181Y0167480D02*
X0074698Y0167963D01*
X0074698Y0168931D01*
X0075181Y0169415D01*
X0075665Y0169415D01*
X0076149Y0168931D01*
X0076149Y0167963D01*
X0075665Y0167480D01*
X0075181Y0167480D01*
X0076149Y0167963D02*
X0076633Y0167480D01*
X0077116Y0167480D01*
X0077600Y0167963D01*
X0077600Y0168931D01*
X0077116Y0169415D01*
X0076633Y0169415D01*
X0076149Y0168931D01*
X0075181Y0170610D02*
X0074698Y0171094D01*
X0074698Y0172062D01*
X0075181Y0172545D01*
X0075665Y0172545D01*
X0077600Y0170610D01*
X0077600Y0172545D01*
X0079798Y0173741D02*
X0079798Y0175192D01*
X0080281Y0175676D01*
X0081249Y0175676D01*
X0081733Y0175192D01*
X0081733Y0173741D01*
X0082700Y0173741D02*
X0079798Y0173741D01*
X0081249Y0172545D02*
X0080765Y0172062D01*
X0080765Y0171094D01*
X0081249Y0170610D01*
X0082216Y0170610D01*
X0082700Y0171094D01*
X0082700Y0172062D01*
X0082216Y0172545D01*
X0081249Y0172545D01*
X0081733Y0174708D02*
X0082700Y0175676D01*
X0082216Y0176872D02*
X0081733Y0177355D01*
X0081733Y0178807D01*
X0081249Y0178807D02*
X0082700Y0178807D01*
X0082700Y0177355D01*
X0082216Y0176872D01*
X0080765Y0177355D02*
X0080765Y0178323D01*
X0081249Y0178807D01*
X0082700Y0169415D02*
X0082700Y0167480D01*
X0079798Y0167480D01*
X0079798Y0163153D02*
X0080281Y0162186D01*
X0081249Y0161218D01*
X0081249Y0162670D01*
X0081733Y0163153D01*
X0082216Y0163153D01*
X0082700Y0162670D01*
X0082700Y0161702D01*
X0082216Y0161218D01*
X0081249Y0161218D01*
X0080281Y0160023D02*
X0079798Y0160023D01*
X0079798Y0158088D01*
X0080281Y0156892D02*
X0079798Y0156408D01*
X0079798Y0155441D01*
X0080281Y0154957D01*
X0080281Y0156892D02*
X0080765Y0156892D01*
X0082700Y0154957D01*
X0082700Y0156892D01*
X0082700Y0158088D02*
X0082216Y0158088D01*
X0080281Y0160023D01*
X0077600Y0161218D02*
X0074698Y0161218D01*
X0079798Y0152794D02*
X0082700Y0152794D01*
X0082700Y0153761D02*
X0082700Y0151826D01*
X0082700Y0150631D02*
X0079798Y0148696D01*
X0080281Y0147500D02*
X0079798Y0147016D01*
X0079798Y0146049D01*
X0080281Y0145565D01*
X0080765Y0145565D01*
X0081249Y0146049D01*
X0081249Y0147016D01*
X0081733Y0147500D01*
X0082216Y0147500D01*
X0082700Y0147016D01*
X0082700Y0146049D01*
X0082216Y0145565D01*
X0082700Y0148696D02*
X0079798Y0150631D01*
X0080765Y0151826D02*
X0079798Y0152794D01*
X0076332Y0139233D02*
X0086568Y0139233D01*
X0086568Y0128997D01*
X0076332Y0128997D01*
X0076332Y0139233D01*
D12*
X0009050Y0159215D02*
X0009054Y0159534D01*
X0009066Y0159853D01*
X0009085Y0160171D01*
X0009113Y0160489D01*
X0009148Y0160806D01*
X0009191Y0161122D01*
X0009241Y0161438D01*
X0009300Y0161751D01*
X0009366Y0162063D01*
X0009440Y0162374D01*
X0009521Y0162682D01*
X0009610Y0162989D01*
X0009706Y0163293D01*
X0009810Y0163595D01*
X0009921Y0163894D01*
X0010040Y0164190D01*
X0010165Y0164483D01*
X0010298Y0164773D01*
X0010438Y0165060D01*
X0010585Y0165343D01*
X0010739Y0165623D01*
X0010900Y0165898D01*
X0011067Y0166170D01*
X0011241Y0166437D01*
X0011421Y0166701D01*
X0011608Y0166959D01*
X0011801Y0167213D01*
X0012001Y0167462D01*
X0012206Y0167706D01*
X0012418Y0167945D01*
X0012635Y0168179D01*
X0012858Y0168407D01*
X0013086Y0168630D01*
X0013320Y0168847D01*
X0013559Y0169059D01*
X0013803Y0169264D01*
X0014052Y0169464D01*
X0014306Y0169657D01*
X0014564Y0169844D01*
X0014828Y0170024D01*
X0015095Y0170198D01*
X0015367Y0170365D01*
X0015642Y0170526D01*
X0015922Y0170680D01*
X0016205Y0170827D01*
X0016492Y0170967D01*
X0016782Y0171100D01*
X0017075Y0171225D01*
X0017371Y0171344D01*
X0017670Y0171455D01*
X0017972Y0171559D01*
X0018276Y0171655D01*
X0018583Y0171744D01*
X0018891Y0171825D01*
X0019202Y0171899D01*
X0019514Y0171965D01*
X0019827Y0172024D01*
X0020143Y0172074D01*
X0020459Y0172117D01*
X0020776Y0172152D01*
X0021094Y0172180D01*
X0021412Y0172199D01*
X0021731Y0172211D01*
X0022050Y0172215D01*
X0022369Y0172211D01*
X0022688Y0172199D01*
X0023006Y0172180D01*
X0023324Y0172152D01*
X0023641Y0172117D01*
X0023957Y0172074D01*
X0024273Y0172024D01*
X0024586Y0171965D01*
X0024898Y0171899D01*
X0025209Y0171825D01*
X0025517Y0171744D01*
X0025824Y0171655D01*
X0026128Y0171559D01*
X0026430Y0171455D01*
X0026729Y0171344D01*
X0027025Y0171225D01*
X0027318Y0171100D01*
X0027608Y0170967D01*
X0027895Y0170827D01*
X0028178Y0170680D01*
X0028458Y0170526D01*
X0028733Y0170365D01*
X0029005Y0170198D01*
X0029272Y0170024D01*
X0029536Y0169844D01*
X0029794Y0169657D01*
X0030048Y0169464D01*
X0030297Y0169264D01*
X0030541Y0169059D01*
X0030780Y0168847D01*
X0031014Y0168630D01*
X0031242Y0168407D01*
X0031465Y0168179D01*
X0031682Y0167945D01*
X0031894Y0167706D01*
X0032099Y0167462D01*
X0032299Y0167213D01*
X0032492Y0166959D01*
X0032679Y0166701D01*
X0032859Y0166437D01*
X0033033Y0166170D01*
X0033200Y0165898D01*
X0033361Y0165623D01*
X0033515Y0165343D01*
X0033662Y0165060D01*
X0033802Y0164773D01*
X0033935Y0164483D01*
X0034060Y0164190D01*
X0034179Y0163894D01*
X0034290Y0163595D01*
X0034394Y0163293D01*
X0034490Y0162989D01*
X0034579Y0162682D01*
X0034660Y0162374D01*
X0034734Y0162063D01*
X0034800Y0161751D01*
X0034859Y0161438D01*
X0034909Y0161122D01*
X0034952Y0160806D01*
X0034987Y0160489D01*
X0035015Y0160171D01*
X0035034Y0159853D01*
X0035046Y0159534D01*
X0035050Y0159215D01*
X0035046Y0158896D01*
X0035034Y0158577D01*
X0035015Y0158259D01*
X0034987Y0157941D01*
X0034952Y0157624D01*
X0034909Y0157308D01*
X0034859Y0156992D01*
X0034800Y0156679D01*
X0034734Y0156367D01*
X0034660Y0156056D01*
X0034579Y0155748D01*
X0034490Y0155441D01*
X0034394Y0155137D01*
X0034290Y0154835D01*
X0034179Y0154536D01*
X0034060Y0154240D01*
X0033935Y0153947D01*
X0033802Y0153657D01*
X0033662Y0153370D01*
X0033515Y0153087D01*
X0033361Y0152807D01*
X0033200Y0152532D01*
X0033033Y0152260D01*
X0032859Y0151993D01*
X0032679Y0151729D01*
X0032492Y0151471D01*
X0032299Y0151217D01*
X0032099Y0150968D01*
X0031894Y0150724D01*
X0031682Y0150485D01*
X0031465Y0150251D01*
X0031242Y0150023D01*
X0031014Y0149800D01*
X0030780Y0149583D01*
X0030541Y0149371D01*
X0030297Y0149166D01*
X0030048Y0148966D01*
X0029794Y0148773D01*
X0029536Y0148586D01*
X0029272Y0148406D01*
X0029005Y0148232D01*
X0028733Y0148065D01*
X0028458Y0147904D01*
X0028178Y0147750D01*
X0027895Y0147603D01*
X0027608Y0147463D01*
X0027318Y0147330D01*
X0027025Y0147205D01*
X0026729Y0147086D01*
X0026430Y0146975D01*
X0026128Y0146871D01*
X0025824Y0146775D01*
X0025517Y0146686D01*
X0025209Y0146605D01*
X0024898Y0146531D01*
X0024586Y0146465D01*
X0024273Y0146406D01*
X0023957Y0146356D01*
X0023641Y0146313D01*
X0023324Y0146278D01*
X0023006Y0146250D01*
X0022688Y0146231D01*
X0022369Y0146219D01*
X0022050Y0146215D01*
X0021731Y0146219D01*
X0021412Y0146231D01*
X0021094Y0146250D01*
X0020776Y0146278D01*
X0020459Y0146313D01*
X0020143Y0146356D01*
X0019827Y0146406D01*
X0019514Y0146465D01*
X0019202Y0146531D01*
X0018891Y0146605D01*
X0018583Y0146686D01*
X0018276Y0146775D01*
X0017972Y0146871D01*
X0017670Y0146975D01*
X0017371Y0147086D01*
X0017075Y0147205D01*
X0016782Y0147330D01*
X0016492Y0147463D01*
X0016205Y0147603D01*
X0015922Y0147750D01*
X0015642Y0147904D01*
X0015367Y0148065D01*
X0015095Y0148232D01*
X0014828Y0148406D01*
X0014564Y0148586D01*
X0014306Y0148773D01*
X0014052Y0148966D01*
X0013803Y0149166D01*
X0013559Y0149371D01*
X0013320Y0149583D01*
X0013086Y0149800D01*
X0012858Y0150023D01*
X0012635Y0150251D01*
X0012418Y0150485D01*
X0012206Y0150724D01*
X0012001Y0150968D01*
X0011801Y0151217D01*
X0011608Y0151471D01*
X0011421Y0151729D01*
X0011241Y0151993D01*
X0011067Y0152260D01*
X0010900Y0152532D01*
X0010739Y0152807D01*
X0010585Y0153087D01*
X0010438Y0153370D01*
X0010298Y0153657D01*
X0010165Y0153947D01*
X0010040Y0154240D01*
X0009921Y0154536D01*
X0009810Y0154835D01*
X0009706Y0155137D01*
X0009610Y0155441D01*
X0009521Y0155748D01*
X0009440Y0156056D01*
X0009366Y0156367D01*
X0009300Y0156679D01*
X0009241Y0156992D01*
X0009191Y0157308D01*
X0009148Y0157624D01*
X0009113Y0157941D01*
X0009085Y0158259D01*
X0009066Y0158577D01*
X0009054Y0158896D01*
X0009050Y0159215D01*
X0014050Y0159215D02*
X0014052Y0159411D01*
X0014060Y0159608D01*
X0014072Y0159804D01*
X0014089Y0159999D01*
X0014110Y0160194D01*
X0014137Y0160389D01*
X0014168Y0160583D01*
X0014204Y0160776D01*
X0014244Y0160968D01*
X0014290Y0161159D01*
X0014340Y0161349D01*
X0014394Y0161537D01*
X0014454Y0161724D01*
X0014518Y0161910D01*
X0014586Y0162094D01*
X0014659Y0162276D01*
X0014736Y0162457D01*
X0014818Y0162635D01*
X0014904Y0162812D01*
X0014995Y0162986D01*
X0015089Y0163158D01*
X0015188Y0163328D01*
X0015291Y0163495D01*
X0015398Y0163660D01*
X0015509Y0163821D01*
X0015624Y0163981D01*
X0015743Y0164137D01*
X0015866Y0164290D01*
X0015992Y0164440D01*
X0016122Y0164587D01*
X0016256Y0164731D01*
X0016393Y0164872D01*
X0016534Y0165009D01*
X0016678Y0165143D01*
X0016825Y0165273D01*
X0016975Y0165399D01*
X0017128Y0165522D01*
X0017284Y0165641D01*
X0017444Y0165756D01*
X0017605Y0165867D01*
X0017770Y0165974D01*
X0017937Y0166077D01*
X0018107Y0166176D01*
X0018279Y0166270D01*
X0018453Y0166361D01*
X0018630Y0166447D01*
X0018808Y0166529D01*
X0018989Y0166606D01*
X0019171Y0166679D01*
X0019355Y0166747D01*
X0019541Y0166811D01*
X0019728Y0166871D01*
X0019916Y0166925D01*
X0020106Y0166975D01*
X0020297Y0167021D01*
X0020489Y0167061D01*
X0020682Y0167097D01*
X0020876Y0167128D01*
X0021071Y0167155D01*
X0021266Y0167176D01*
X0021461Y0167193D01*
X0021657Y0167205D01*
X0021854Y0167213D01*
X0022050Y0167215D01*
X0022246Y0167213D01*
X0022443Y0167205D01*
X0022639Y0167193D01*
X0022834Y0167176D01*
X0023029Y0167155D01*
X0023224Y0167128D01*
X0023418Y0167097D01*
X0023611Y0167061D01*
X0023803Y0167021D01*
X0023994Y0166975D01*
X0024184Y0166925D01*
X0024372Y0166871D01*
X0024559Y0166811D01*
X0024745Y0166747D01*
X0024929Y0166679D01*
X0025111Y0166606D01*
X0025292Y0166529D01*
X0025470Y0166447D01*
X0025647Y0166361D01*
X0025821Y0166270D01*
X0025993Y0166176D01*
X0026163Y0166077D01*
X0026330Y0165974D01*
X0026495Y0165867D01*
X0026656Y0165756D01*
X0026816Y0165641D01*
X0026972Y0165522D01*
X0027125Y0165399D01*
X0027275Y0165273D01*
X0027422Y0165143D01*
X0027566Y0165009D01*
X0027707Y0164872D01*
X0027844Y0164731D01*
X0027978Y0164587D01*
X0028108Y0164440D01*
X0028234Y0164290D01*
X0028357Y0164137D01*
X0028476Y0163981D01*
X0028591Y0163821D01*
X0028702Y0163660D01*
X0028809Y0163495D01*
X0028912Y0163328D01*
X0029011Y0163158D01*
X0029105Y0162986D01*
X0029196Y0162812D01*
X0029282Y0162635D01*
X0029364Y0162457D01*
X0029441Y0162276D01*
X0029514Y0162094D01*
X0029582Y0161910D01*
X0029646Y0161724D01*
X0029706Y0161537D01*
X0029760Y0161349D01*
X0029810Y0161159D01*
X0029856Y0160968D01*
X0029896Y0160776D01*
X0029932Y0160583D01*
X0029963Y0160389D01*
X0029990Y0160194D01*
X0030011Y0159999D01*
X0030028Y0159804D01*
X0030040Y0159608D01*
X0030048Y0159411D01*
X0030050Y0159215D01*
X0030048Y0159019D01*
X0030040Y0158822D01*
X0030028Y0158626D01*
X0030011Y0158431D01*
X0029990Y0158236D01*
X0029963Y0158041D01*
X0029932Y0157847D01*
X0029896Y0157654D01*
X0029856Y0157462D01*
X0029810Y0157271D01*
X0029760Y0157081D01*
X0029706Y0156893D01*
X0029646Y0156706D01*
X0029582Y0156520D01*
X0029514Y0156336D01*
X0029441Y0156154D01*
X0029364Y0155973D01*
X0029282Y0155795D01*
X0029196Y0155618D01*
X0029105Y0155444D01*
X0029011Y0155272D01*
X0028912Y0155102D01*
X0028809Y0154935D01*
X0028702Y0154770D01*
X0028591Y0154609D01*
X0028476Y0154449D01*
X0028357Y0154293D01*
X0028234Y0154140D01*
X0028108Y0153990D01*
X0027978Y0153843D01*
X0027844Y0153699D01*
X0027707Y0153558D01*
X0027566Y0153421D01*
X0027422Y0153287D01*
X0027275Y0153157D01*
X0027125Y0153031D01*
X0026972Y0152908D01*
X0026816Y0152789D01*
X0026656Y0152674D01*
X0026495Y0152563D01*
X0026330Y0152456D01*
X0026163Y0152353D01*
X0025993Y0152254D01*
X0025821Y0152160D01*
X0025647Y0152069D01*
X0025470Y0151983D01*
X0025292Y0151901D01*
X0025111Y0151824D01*
X0024929Y0151751D01*
X0024745Y0151683D01*
X0024559Y0151619D01*
X0024372Y0151559D01*
X0024184Y0151505D01*
X0023994Y0151455D01*
X0023803Y0151409D01*
X0023611Y0151369D01*
X0023418Y0151333D01*
X0023224Y0151302D01*
X0023029Y0151275D01*
X0022834Y0151254D01*
X0022639Y0151237D01*
X0022443Y0151225D01*
X0022246Y0151217D01*
X0022050Y0151215D01*
X0021854Y0151217D01*
X0021657Y0151225D01*
X0021461Y0151237D01*
X0021266Y0151254D01*
X0021071Y0151275D01*
X0020876Y0151302D01*
X0020682Y0151333D01*
X0020489Y0151369D01*
X0020297Y0151409D01*
X0020106Y0151455D01*
X0019916Y0151505D01*
X0019728Y0151559D01*
X0019541Y0151619D01*
X0019355Y0151683D01*
X0019171Y0151751D01*
X0018989Y0151824D01*
X0018808Y0151901D01*
X0018630Y0151983D01*
X0018453Y0152069D01*
X0018279Y0152160D01*
X0018107Y0152254D01*
X0017937Y0152353D01*
X0017770Y0152456D01*
X0017605Y0152563D01*
X0017444Y0152674D01*
X0017284Y0152789D01*
X0017128Y0152908D01*
X0016975Y0153031D01*
X0016825Y0153157D01*
X0016678Y0153287D01*
X0016534Y0153421D01*
X0016393Y0153558D01*
X0016256Y0153699D01*
X0016122Y0153843D01*
X0015992Y0153990D01*
X0015866Y0154140D01*
X0015743Y0154293D01*
X0015624Y0154449D01*
X0015509Y0154609D01*
X0015398Y0154770D01*
X0015291Y0154935D01*
X0015188Y0155102D01*
X0015089Y0155272D01*
X0014995Y0155444D01*
X0014904Y0155618D01*
X0014818Y0155795D01*
X0014736Y0155973D01*
X0014659Y0156154D01*
X0014586Y0156336D01*
X0014518Y0156520D01*
X0014454Y0156706D01*
X0014394Y0156893D01*
X0014340Y0157081D01*
X0014290Y0157271D01*
X0014244Y0157462D01*
X0014204Y0157654D01*
X0014168Y0157847D01*
X0014137Y0158041D01*
X0014110Y0158236D01*
X0014089Y0158431D01*
X0014072Y0158626D01*
X0014060Y0158822D01*
X0014052Y0159019D01*
X0014050Y0159215D01*
X0017050Y0159215D02*
X0017052Y0159356D01*
X0017058Y0159497D01*
X0017068Y0159637D01*
X0017082Y0159777D01*
X0017100Y0159917D01*
X0017121Y0160056D01*
X0017147Y0160195D01*
X0017176Y0160333D01*
X0017210Y0160469D01*
X0017247Y0160605D01*
X0017288Y0160740D01*
X0017333Y0160874D01*
X0017382Y0161006D01*
X0017434Y0161137D01*
X0017490Y0161266D01*
X0017550Y0161393D01*
X0017613Y0161519D01*
X0017679Y0161643D01*
X0017750Y0161766D01*
X0017823Y0161886D01*
X0017900Y0162004D01*
X0017980Y0162120D01*
X0018064Y0162233D01*
X0018150Y0162344D01*
X0018240Y0162453D01*
X0018333Y0162559D01*
X0018428Y0162662D01*
X0018527Y0162763D01*
X0018628Y0162861D01*
X0018732Y0162956D01*
X0018839Y0163048D01*
X0018948Y0163137D01*
X0019060Y0163222D01*
X0019174Y0163305D01*
X0019290Y0163385D01*
X0019409Y0163461D01*
X0019530Y0163533D01*
X0019652Y0163603D01*
X0019777Y0163668D01*
X0019903Y0163731D01*
X0020031Y0163789D01*
X0020161Y0163844D01*
X0020292Y0163896D01*
X0020425Y0163943D01*
X0020559Y0163987D01*
X0020694Y0164028D01*
X0020830Y0164064D01*
X0020967Y0164096D01*
X0021105Y0164125D01*
X0021243Y0164150D01*
X0021383Y0164170D01*
X0021523Y0164187D01*
X0021663Y0164200D01*
X0021804Y0164209D01*
X0021944Y0164214D01*
X0022085Y0164215D01*
X0022226Y0164212D01*
X0022367Y0164205D01*
X0022507Y0164194D01*
X0022647Y0164179D01*
X0022787Y0164160D01*
X0022926Y0164138D01*
X0023064Y0164111D01*
X0023202Y0164081D01*
X0023338Y0164046D01*
X0023474Y0164008D01*
X0023608Y0163966D01*
X0023742Y0163920D01*
X0023874Y0163871D01*
X0024004Y0163817D01*
X0024133Y0163760D01*
X0024260Y0163700D01*
X0024386Y0163636D01*
X0024509Y0163568D01*
X0024631Y0163497D01*
X0024751Y0163423D01*
X0024868Y0163345D01*
X0024983Y0163264D01*
X0025096Y0163180D01*
X0025207Y0163093D01*
X0025315Y0163002D01*
X0025420Y0162909D01*
X0025523Y0162812D01*
X0025623Y0162713D01*
X0025720Y0162611D01*
X0025814Y0162506D01*
X0025905Y0162399D01*
X0025993Y0162289D01*
X0026078Y0162177D01*
X0026160Y0162062D01*
X0026239Y0161945D01*
X0026314Y0161826D01*
X0026386Y0161705D01*
X0026454Y0161582D01*
X0026519Y0161457D01*
X0026581Y0161330D01*
X0026638Y0161201D01*
X0026693Y0161071D01*
X0026743Y0160940D01*
X0026790Y0160807D01*
X0026833Y0160673D01*
X0026872Y0160537D01*
X0026907Y0160401D01*
X0026939Y0160264D01*
X0026966Y0160126D01*
X0026990Y0159987D01*
X0027010Y0159847D01*
X0027026Y0159707D01*
X0027038Y0159567D01*
X0027046Y0159426D01*
X0027050Y0159285D01*
X0027050Y0159145D01*
X0027046Y0159004D01*
X0027038Y0158863D01*
X0027026Y0158723D01*
X0027010Y0158583D01*
X0026990Y0158443D01*
X0026966Y0158304D01*
X0026939Y0158166D01*
X0026907Y0158029D01*
X0026872Y0157893D01*
X0026833Y0157757D01*
X0026790Y0157623D01*
X0026743Y0157490D01*
X0026693Y0157359D01*
X0026638Y0157229D01*
X0026581Y0157100D01*
X0026519Y0156973D01*
X0026454Y0156848D01*
X0026386Y0156725D01*
X0026314Y0156604D01*
X0026239Y0156485D01*
X0026160Y0156368D01*
X0026078Y0156253D01*
X0025993Y0156141D01*
X0025905Y0156031D01*
X0025814Y0155924D01*
X0025720Y0155819D01*
X0025623Y0155717D01*
X0025523Y0155618D01*
X0025420Y0155521D01*
X0025315Y0155428D01*
X0025207Y0155337D01*
X0025096Y0155250D01*
X0024983Y0155166D01*
X0024868Y0155085D01*
X0024751Y0155007D01*
X0024631Y0154933D01*
X0024509Y0154862D01*
X0024386Y0154794D01*
X0024260Y0154730D01*
X0024133Y0154670D01*
X0024004Y0154613D01*
X0023874Y0154559D01*
X0023742Y0154510D01*
X0023608Y0154464D01*
X0023474Y0154422D01*
X0023338Y0154384D01*
X0023202Y0154349D01*
X0023064Y0154319D01*
X0022926Y0154292D01*
X0022787Y0154270D01*
X0022647Y0154251D01*
X0022507Y0154236D01*
X0022367Y0154225D01*
X0022226Y0154218D01*
X0022085Y0154215D01*
X0021944Y0154216D01*
X0021804Y0154221D01*
X0021663Y0154230D01*
X0021523Y0154243D01*
X0021383Y0154260D01*
X0021243Y0154280D01*
X0021105Y0154305D01*
X0020967Y0154334D01*
X0020830Y0154366D01*
X0020694Y0154402D01*
X0020559Y0154443D01*
X0020425Y0154487D01*
X0020292Y0154534D01*
X0020161Y0154586D01*
X0020031Y0154641D01*
X0019903Y0154699D01*
X0019777Y0154762D01*
X0019652Y0154827D01*
X0019530Y0154897D01*
X0019409Y0154969D01*
X0019290Y0155045D01*
X0019174Y0155125D01*
X0019060Y0155208D01*
X0018948Y0155293D01*
X0018839Y0155382D01*
X0018732Y0155474D01*
X0018628Y0155569D01*
X0018527Y0155667D01*
X0018428Y0155768D01*
X0018333Y0155871D01*
X0018240Y0155977D01*
X0018150Y0156086D01*
X0018064Y0156197D01*
X0017980Y0156310D01*
X0017900Y0156426D01*
X0017823Y0156544D01*
X0017750Y0156664D01*
X0017679Y0156787D01*
X0017613Y0156911D01*
X0017550Y0157037D01*
X0017490Y0157164D01*
X0017434Y0157293D01*
X0017382Y0157424D01*
X0017333Y0157556D01*
X0017288Y0157690D01*
X0017247Y0157825D01*
X0017210Y0157961D01*
X0017176Y0158097D01*
X0017147Y0158235D01*
X0017121Y0158374D01*
X0017100Y0158513D01*
X0017082Y0158653D01*
X0017068Y0158793D01*
X0017058Y0158933D01*
X0017052Y0159074D01*
X0017050Y0159215D01*
X0019050Y0159215D02*
X0019052Y0159324D01*
X0019058Y0159433D01*
X0019068Y0159541D01*
X0019082Y0159649D01*
X0019099Y0159757D01*
X0019121Y0159864D01*
X0019146Y0159970D01*
X0019176Y0160074D01*
X0019209Y0160178D01*
X0019246Y0160281D01*
X0019286Y0160382D01*
X0019330Y0160481D01*
X0019378Y0160579D01*
X0019430Y0160676D01*
X0019484Y0160770D01*
X0019542Y0160862D01*
X0019604Y0160952D01*
X0019669Y0161039D01*
X0019736Y0161125D01*
X0019807Y0161208D01*
X0019881Y0161288D01*
X0019958Y0161365D01*
X0020037Y0161440D01*
X0020119Y0161511D01*
X0020204Y0161580D01*
X0020291Y0161645D01*
X0020380Y0161708D01*
X0020472Y0161766D01*
X0020566Y0161822D01*
X0020661Y0161874D01*
X0020759Y0161923D01*
X0020858Y0161968D01*
X0020959Y0162010D01*
X0021061Y0162047D01*
X0021164Y0162081D01*
X0021269Y0162112D01*
X0021375Y0162138D01*
X0021481Y0162161D01*
X0021589Y0162179D01*
X0021697Y0162194D01*
X0021805Y0162205D01*
X0021914Y0162212D01*
X0022023Y0162215D01*
X0022132Y0162214D01*
X0022241Y0162209D01*
X0022349Y0162200D01*
X0022457Y0162187D01*
X0022565Y0162170D01*
X0022672Y0162150D01*
X0022778Y0162125D01*
X0022883Y0162097D01*
X0022987Y0162065D01*
X0023090Y0162029D01*
X0023192Y0161989D01*
X0023292Y0161946D01*
X0023390Y0161899D01*
X0023487Y0161849D01*
X0023581Y0161795D01*
X0023674Y0161737D01*
X0023765Y0161677D01*
X0023853Y0161613D01*
X0023939Y0161546D01*
X0024022Y0161476D01*
X0024103Y0161403D01*
X0024181Y0161327D01*
X0024256Y0161248D01*
X0024329Y0161166D01*
X0024398Y0161082D01*
X0024464Y0160996D01*
X0024527Y0160907D01*
X0024587Y0160816D01*
X0024644Y0160723D01*
X0024697Y0160628D01*
X0024746Y0160531D01*
X0024792Y0160432D01*
X0024834Y0160332D01*
X0024873Y0160230D01*
X0024908Y0160126D01*
X0024939Y0160022D01*
X0024967Y0159917D01*
X0024990Y0159810D01*
X0025010Y0159703D01*
X0025026Y0159595D01*
X0025038Y0159487D01*
X0025046Y0159378D01*
X0025050Y0159269D01*
X0025050Y0159161D01*
X0025046Y0159052D01*
X0025038Y0158943D01*
X0025026Y0158835D01*
X0025010Y0158727D01*
X0024990Y0158620D01*
X0024967Y0158513D01*
X0024939Y0158408D01*
X0024908Y0158304D01*
X0024873Y0158200D01*
X0024834Y0158098D01*
X0024792Y0157998D01*
X0024746Y0157899D01*
X0024697Y0157802D01*
X0024644Y0157707D01*
X0024587Y0157614D01*
X0024527Y0157523D01*
X0024464Y0157434D01*
X0024398Y0157348D01*
X0024329Y0157264D01*
X0024256Y0157182D01*
X0024181Y0157103D01*
X0024103Y0157027D01*
X0024022Y0156954D01*
X0023939Y0156884D01*
X0023853Y0156817D01*
X0023765Y0156753D01*
X0023674Y0156693D01*
X0023581Y0156635D01*
X0023487Y0156581D01*
X0023390Y0156531D01*
X0023292Y0156484D01*
X0023192Y0156441D01*
X0023090Y0156401D01*
X0022987Y0156365D01*
X0022883Y0156333D01*
X0022778Y0156305D01*
X0022672Y0156280D01*
X0022565Y0156260D01*
X0022457Y0156243D01*
X0022349Y0156230D01*
X0022241Y0156221D01*
X0022132Y0156216D01*
X0022023Y0156215D01*
X0021914Y0156218D01*
X0021805Y0156225D01*
X0021697Y0156236D01*
X0021589Y0156251D01*
X0021481Y0156269D01*
X0021375Y0156292D01*
X0021269Y0156318D01*
X0021164Y0156349D01*
X0021061Y0156383D01*
X0020959Y0156420D01*
X0020858Y0156462D01*
X0020759Y0156507D01*
X0020661Y0156556D01*
X0020566Y0156608D01*
X0020472Y0156664D01*
X0020380Y0156722D01*
X0020291Y0156785D01*
X0020204Y0156850D01*
X0020119Y0156919D01*
X0020037Y0156990D01*
X0019958Y0157065D01*
X0019881Y0157142D01*
X0019807Y0157222D01*
X0019736Y0157305D01*
X0019669Y0157391D01*
X0019604Y0157478D01*
X0019542Y0157568D01*
X0019484Y0157660D01*
X0019430Y0157754D01*
X0019378Y0157851D01*
X0019330Y0157949D01*
X0019286Y0158048D01*
X0019246Y0158149D01*
X0019209Y0158252D01*
X0019176Y0158356D01*
X0019146Y0158460D01*
X0019121Y0158566D01*
X0019099Y0158673D01*
X0019082Y0158781D01*
X0019068Y0158889D01*
X0019058Y0158997D01*
X0019052Y0159106D01*
X0019050Y0159215D01*
X0020050Y0159215D02*
X0020052Y0159304D01*
X0020058Y0159393D01*
X0020068Y0159482D01*
X0020082Y0159570D01*
X0020099Y0159657D01*
X0020121Y0159743D01*
X0020147Y0159829D01*
X0020176Y0159913D01*
X0020209Y0159996D01*
X0020245Y0160077D01*
X0020286Y0160157D01*
X0020329Y0160234D01*
X0020376Y0160310D01*
X0020427Y0160383D01*
X0020480Y0160454D01*
X0020537Y0160523D01*
X0020597Y0160589D01*
X0020660Y0160653D01*
X0020725Y0160713D01*
X0020793Y0160771D01*
X0020864Y0160825D01*
X0020937Y0160876D01*
X0021012Y0160924D01*
X0021089Y0160969D01*
X0021168Y0161010D01*
X0021249Y0161047D01*
X0021331Y0161081D01*
X0021415Y0161112D01*
X0021500Y0161138D01*
X0021586Y0161161D01*
X0021673Y0161179D01*
X0021761Y0161194D01*
X0021850Y0161205D01*
X0021939Y0161212D01*
X0022028Y0161215D01*
X0022117Y0161214D01*
X0022206Y0161209D01*
X0022294Y0161200D01*
X0022383Y0161187D01*
X0022470Y0161170D01*
X0022557Y0161150D01*
X0022643Y0161125D01*
X0022727Y0161097D01*
X0022810Y0161065D01*
X0022892Y0161029D01*
X0022972Y0160990D01*
X0023050Y0160947D01*
X0023126Y0160901D01*
X0023200Y0160851D01*
X0023272Y0160798D01*
X0023341Y0160742D01*
X0023408Y0160683D01*
X0023472Y0160621D01*
X0023533Y0160557D01*
X0023592Y0160489D01*
X0023647Y0160419D01*
X0023699Y0160347D01*
X0023748Y0160272D01*
X0023793Y0160196D01*
X0023835Y0160117D01*
X0023873Y0160037D01*
X0023908Y0159955D01*
X0023939Y0159871D01*
X0023967Y0159786D01*
X0023990Y0159700D01*
X0024010Y0159613D01*
X0024026Y0159526D01*
X0024038Y0159437D01*
X0024046Y0159349D01*
X0024050Y0159260D01*
X0024050Y0159170D01*
X0024046Y0159081D01*
X0024038Y0158993D01*
X0024026Y0158904D01*
X0024010Y0158817D01*
X0023990Y0158730D01*
X0023967Y0158644D01*
X0023939Y0158559D01*
X0023908Y0158475D01*
X0023873Y0158393D01*
X0023835Y0158313D01*
X0023793Y0158234D01*
X0023748Y0158158D01*
X0023699Y0158083D01*
X0023647Y0158011D01*
X0023592Y0157941D01*
X0023533Y0157873D01*
X0023472Y0157809D01*
X0023408Y0157747D01*
X0023341Y0157688D01*
X0023272Y0157632D01*
X0023200Y0157579D01*
X0023126Y0157529D01*
X0023050Y0157483D01*
X0022972Y0157440D01*
X0022892Y0157401D01*
X0022810Y0157365D01*
X0022727Y0157333D01*
X0022643Y0157305D01*
X0022557Y0157280D01*
X0022470Y0157260D01*
X0022383Y0157243D01*
X0022294Y0157230D01*
X0022206Y0157221D01*
X0022117Y0157216D01*
X0022028Y0157215D01*
X0021939Y0157218D01*
X0021850Y0157225D01*
X0021761Y0157236D01*
X0021673Y0157251D01*
X0021586Y0157269D01*
X0021500Y0157292D01*
X0021415Y0157318D01*
X0021331Y0157349D01*
X0021249Y0157383D01*
X0021168Y0157420D01*
X0021089Y0157461D01*
X0021012Y0157506D01*
X0020937Y0157554D01*
X0020864Y0157605D01*
X0020793Y0157659D01*
X0020725Y0157717D01*
X0020660Y0157777D01*
X0020597Y0157841D01*
X0020537Y0157907D01*
X0020480Y0157976D01*
X0020427Y0158047D01*
X0020376Y0158120D01*
X0020329Y0158196D01*
X0020286Y0158273D01*
X0020245Y0158353D01*
X0020209Y0158434D01*
X0020176Y0158517D01*
X0020147Y0158601D01*
X0020121Y0158687D01*
X0020099Y0158773D01*
X0020082Y0158860D01*
X0020068Y0158948D01*
X0020058Y0159037D01*
X0020052Y0159126D01*
X0020050Y0159215D01*
X0021050Y0159215D02*
X0021052Y0159278D01*
X0021058Y0159340D01*
X0021068Y0159402D01*
X0021081Y0159464D01*
X0021099Y0159524D01*
X0021120Y0159583D01*
X0021145Y0159641D01*
X0021174Y0159697D01*
X0021206Y0159751D01*
X0021241Y0159803D01*
X0021279Y0159852D01*
X0021321Y0159900D01*
X0021365Y0159944D01*
X0021413Y0159986D01*
X0021462Y0160024D01*
X0021514Y0160059D01*
X0021568Y0160091D01*
X0021624Y0160120D01*
X0021682Y0160145D01*
X0021741Y0160166D01*
X0021801Y0160184D01*
X0021863Y0160197D01*
X0021925Y0160207D01*
X0021987Y0160213D01*
X0022050Y0160215D01*
X0022113Y0160213D01*
X0022175Y0160207D01*
X0022237Y0160197D01*
X0022299Y0160184D01*
X0022359Y0160166D01*
X0022418Y0160145D01*
X0022476Y0160120D01*
X0022532Y0160091D01*
X0022586Y0160059D01*
X0022638Y0160024D01*
X0022687Y0159986D01*
X0022735Y0159944D01*
X0022779Y0159900D01*
X0022821Y0159852D01*
X0022859Y0159803D01*
X0022894Y0159751D01*
X0022926Y0159697D01*
X0022955Y0159641D01*
X0022980Y0159583D01*
X0023001Y0159524D01*
X0023019Y0159464D01*
X0023032Y0159402D01*
X0023042Y0159340D01*
X0023048Y0159278D01*
X0023050Y0159215D01*
X0023048Y0159152D01*
X0023042Y0159090D01*
X0023032Y0159028D01*
X0023019Y0158966D01*
X0023001Y0158906D01*
X0022980Y0158847D01*
X0022955Y0158789D01*
X0022926Y0158733D01*
X0022894Y0158679D01*
X0022859Y0158627D01*
X0022821Y0158578D01*
X0022779Y0158530D01*
X0022735Y0158486D01*
X0022687Y0158444D01*
X0022638Y0158406D01*
X0022586Y0158371D01*
X0022532Y0158339D01*
X0022476Y0158310D01*
X0022418Y0158285D01*
X0022359Y0158264D01*
X0022299Y0158246D01*
X0022237Y0158233D01*
X0022175Y0158223D01*
X0022113Y0158217D01*
X0022050Y0158215D01*
X0021987Y0158217D01*
X0021925Y0158223D01*
X0021863Y0158233D01*
X0021801Y0158246D01*
X0021741Y0158264D01*
X0021682Y0158285D01*
X0021624Y0158310D01*
X0021568Y0158339D01*
X0021514Y0158371D01*
X0021462Y0158406D01*
X0021413Y0158444D01*
X0021365Y0158486D01*
X0021321Y0158530D01*
X0021279Y0158578D01*
X0021241Y0158627D01*
X0021206Y0158679D01*
X0021174Y0158733D01*
X0021145Y0158789D01*
X0021120Y0158847D01*
X0021099Y0158906D01*
X0021081Y0158966D01*
X0021068Y0159028D01*
X0021058Y0159090D01*
X0021052Y0159152D01*
X0021050Y0159215D01*
X0001050Y0159315D02*
X0001056Y0159830D01*
X0001075Y0160345D01*
X0001107Y0160860D01*
X0001151Y0161373D01*
X0001208Y0161886D01*
X0001277Y0162396D01*
X0001359Y0162905D01*
X0001454Y0163412D01*
X0001560Y0163916D01*
X0001679Y0164418D01*
X0001811Y0164916D01*
X0001954Y0165411D01*
X0002110Y0165902D01*
X0002278Y0166390D01*
X0002457Y0166873D01*
X0002649Y0167351D01*
X0002852Y0167825D01*
X0003066Y0168294D01*
X0003292Y0168757D01*
X0003530Y0169214D01*
X0003778Y0169666D01*
X0004038Y0170111D01*
X0004308Y0170550D01*
X0004589Y0170982D01*
X0004881Y0171407D01*
X0005183Y0171825D01*
X0005495Y0172235D01*
X0005817Y0172637D01*
X0006149Y0173032D01*
X0006490Y0173418D01*
X0006841Y0173795D01*
X0007201Y0174164D01*
X0007570Y0174524D01*
X0007947Y0174875D01*
X0008333Y0175216D01*
X0008728Y0175548D01*
X0009130Y0175870D01*
X0009540Y0176182D01*
X0009958Y0176484D01*
X0010383Y0176776D01*
X0010815Y0177057D01*
X0011254Y0177327D01*
X0011699Y0177587D01*
X0012151Y0177835D01*
X0012608Y0178073D01*
X0013071Y0178299D01*
X0013540Y0178513D01*
X0014014Y0178716D01*
X0014492Y0178908D01*
X0014975Y0179087D01*
X0015463Y0179255D01*
X0015954Y0179411D01*
X0016449Y0179554D01*
X0016947Y0179686D01*
X0017449Y0179805D01*
X0017953Y0179911D01*
X0018460Y0180006D01*
X0018969Y0180088D01*
X0019479Y0180157D01*
X0019992Y0180214D01*
X0020505Y0180258D01*
X0021020Y0180290D01*
X0021535Y0180309D01*
X0022050Y0180315D01*
X0022565Y0180309D01*
X0023080Y0180290D01*
X0023595Y0180258D01*
X0024108Y0180214D01*
X0024621Y0180157D01*
X0025131Y0180088D01*
X0025640Y0180006D01*
X0026147Y0179911D01*
X0026651Y0179805D01*
X0027153Y0179686D01*
X0027651Y0179554D01*
X0028146Y0179411D01*
X0028637Y0179255D01*
X0029125Y0179087D01*
X0029608Y0178908D01*
X0030086Y0178716D01*
X0030560Y0178513D01*
X0031029Y0178299D01*
X0031492Y0178073D01*
X0031949Y0177835D01*
X0032401Y0177587D01*
X0032846Y0177327D01*
X0033285Y0177057D01*
X0033717Y0176776D01*
X0034142Y0176484D01*
X0034560Y0176182D01*
X0034970Y0175870D01*
X0035372Y0175548D01*
X0035767Y0175216D01*
X0036153Y0174875D01*
X0036530Y0174524D01*
X0036899Y0174164D01*
X0037259Y0173795D01*
X0037610Y0173418D01*
X0037951Y0173032D01*
X0038283Y0172637D01*
X0038605Y0172235D01*
X0038917Y0171825D01*
X0039219Y0171407D01*
X0039511Y0170982D01*
X0039792Y0170550D01*
X0040062Y0170111D01*
X0040322Y0169666D01*
X0040570Y0169214D01*
X0040808Y0168757D01*
X0041034Y0168294D01*
X0041248Y0167825D01*
X0041451Y0167351D01*
X0041643Y0166873D01*
X0041822Y0166390D01*
X0041990Y0165902D01*
X0042146Y0165411D01*
X0042289Y0164916D01*
X0042421Y0164418D01*
X0042540Y0163916D01*
X0042646Y0163412D01*
X0042741Y0162905D01*
X0042823Y0162396D01*
X0042892Y0161886D01*
X0042949Y0161373D01*
X0042993Y0160860D01*
X0043025Y0160345D01*
X0043044Y0159830D01*
X0043050Y0159315D01*
X0043044Y0158800D01*
X0043025Y0158285D01*
X0042993Y0157770D01*
X0042949Y0157257D01*
X0042892Y0156744D01*
X0042823Y0156234D01*
X0042741Y0155725D01*
X0042646Y0155218D01*
X0042540Y0154714D01*
X0042421Y0154212D01*
X0042289Y0153714D01*
X0042146Y0153219D01*
X0041990Y0152728D01*
X0041822Y0152240D01*
X0041643Y0151757D01*
X0041451Y0151279D01*
X0041248Y0150805D01*
X0041034Y0150336D01*
X0040808Y0149873D01*
X0040570Y0149416D01*
X0040322Y0148964D01*
X0040062Y0148519D01*
X0039792Y0148080D01*
X0039511Y0147648D01*
X0039219Y0147223D01*
X0038917Y0146805D01*
X0038605Y0146395D01*
X0038283Y0145993D01*
X0037951Y0145598D01*
X0037610Y0145212D01*
X0037259Y0144835D01*
X0036899Y0144466D01*
X0036530Y0144106D01*
X0036153Y0143755D01*
X0035767Y0143414D01*
X0035372Y0143082D01*
X0034970Y0142760D01*
X0034560Y0142448D01*
X0034142Y0142146D01*
X0033717Y0141854D01*
X0033285Y0141573D01*
X0032846Y0141303D01*
X0032401Y0141043D01*
X0031949Y0140795D01*
X0031492Y0140557D01*
X0031029Y0140331D01*
X0030560Y0140117D01*
X0030086Y0139914D01*
X0029608Y0139722D01*
X0029125Y0139543D01*
X0028637Y0139375D01*
X0028146Y0139219D01*
X0027651Y0139076D01*
X0027153Y0138944D01*
X0026651Y0138825D01*
X0026147Y0138719D01*
X0025640Y0138624D01*
X0025131Y0138542D01*
X0024621Y0138473D01*
X0024108Y0138416D01*
X0023595Y0138372D01*
X0023080Y0138340D01*
X0022565Y0138321D01*
X0022050Y0138315D01*
X0021535Y0138321D01*
X0021020Y0138340D01*
X0020505Y0138372D01*
X0019992Y0138416D01*
X0019479Y0138473D01*
X0018969Y0138542D01*
X0018460Y0138624D01*
X0017953Y0138719D01*
X0017449Y0138825D01*
X0016947Y0138944D01*
X0016449Y0139076D01*
X0015954Y0139219D01*
X0015463Y0139375D01*
X0014975Y0139543D01*
X0014492Y0139722D01*
X0014014Y0139914D01*
X0013540Y0140117D01*
X0013071Y0140331D01*
X0012608Y0140557D01*
X0012151Y0140795D01*
X0011699Y0141043D01*
X0011254Y0141303D01*
X0010815Y0141573D01*
X0010383Y0141854D01*
X0009958Y0142146D01*
X0009540Y0142448D01*
X0009130Y0142760D01*
X0008728Y0143082D01*
X0008333Y0143414D01*
X0007947Y0143755D01*
X0007570Y0144106D01*
X0007201Y0144466D01*
X0006841Y0144835D01*
X0006490Y0145212D01*
X0006149Y0145598D01*
X0005817Y0145993D01*
X0005495Y0146395D01*
X0005183Y0146805D01*
X0004881Y0147223D01*
X0004589Y0147648D01*
X0004308Y0148080D01*
X0004038Y0148519D01*
X0003778Y0148964D01*
X0003530Y0149416D01*
X0003292Y0149873D01*
X0003066Y0150336D01*
X0002852Y0150805D01*
X0002649Y0151279D01*
X0002457Y0151757D01*
X0002278Y0152240D01*
X0002110Y0152728D01*
X0001954Y0153219D01*
X0001811Y0153714D01*
X0001679Y0154212D01*
X0001560Y0154714D01*
X0001454Y0155218D01*
X0001359Y0155725D01*
X0001277Y0156234D01*
X0001208Y0156744D01*
X0001151Y0157257D01*
X0001107Y0157770D01*
X0001075Y0158285D01*
X0001056Y0158800D01*
X0001050Y0159315D01*
D13*
X0045350Y0131735D02*
X0045350Y0131495D01*
X0045350Y0127035D02*
X0045350Y0126795D01*
X0066280Y0133215D02*
X0066520Y0133215D01*
X0054550Y0071435D02*
X0054550Y0071195D01*
X0054550Y0066835D02*
X0054550Y0066595D01*
X0054550Y0062235D02*
X0054550Y0061995D01*
X0047250Y0066595D02*
X0047250Y0066835D01*
X0047250Y0071195D02*
X0047250Y0071435D01*
X0039950Y0071435D02*
X0039950Y0071195D01*
X0039950Y0066835D02*
X0039950Y0066595D01*
X0039950Y0041535D02*
X0039950Y0041295D01*
X0039950Y0029535D02*
X0039950Y0029295D01*
X0034450Y0024035D02*
X0034450Y0023795D01*
D14*
X0032950Y0030415D03*
D15*
X0069950Y0023915D03*
X0022050Y0132415D03*
D16*
X0027150Y0143615D03*
X0027650Y0144315D03*
X0027550Y0144415D03*
X0028250Y0145715D03*
X0028250Y0145815D03*
X0028450Y0146215D03*
X0028550Y0146415D03*
X0028550Y0146515D03*
X0028550Y0146615D03*
X0028650Y0146715D03*
X0028650Y0146815D03*
X0028650Y0146915D03*
X0028650Y0147015D03*
X0028750Y0147215D03*
X0028750Y0147315D03*
X0028850Y0147615D03*
X0028950Y0147915D03*
X0029050Y0148215D03*
X0029050Y0148315D03*
X0029150Y0148415D03*
X0029250Y0148615D03*
X0029550Y0148115D03*
X0029550Y0148015D03*
X0029450Y0147815D03*
X0029450Y0147715D03*
X0029350Y0147415D03*
X0029250Y0147115D03*
X0029250Y0147015D03*
X0029150Y0146715D03*
X0029150Y0146615D03*
X0029150Y0146515D03*
X0030350Y0148115D03*
X0030950Y0147915D03*
X0029950Y0148715D03*
X0029950Y0148815D03*
X0029750Y0149415D03*
X0029650Y0149615D03*
X0029650Y0149715D03*
X0029550Y0149815D03*
X0029650Y0150615D03*
X0028850Y0150715D03*
X0028250Y0150515D03*
X0027150Y0150015D03*
X0027050Y0149815D03*
X0026950Y0149615D03*
X0026850Y0149515D03*
X0026750Y0149315D03*
X0026650Y0149215D03*
X0026650Y0149115D03*
X0026550Y0148915D03*
X0025550Y0148415D03*
X0025550Y0148315D03*
X0025150Y0148615D03*
X0025050Y0148215D03*
X0024050Y0148315D03*
X0027150Y0151315D03*
X0027150Y0151415D03*
X0027050Y0151515D03*
X0026950Y0151715D03*
X0027250Y0151215D03*
X0027150Y0152515D03*
X0026750Y0153215D03*
X0026550Y0153515D03*
X0026350Y0153415D03*
X0027050Y0153815D03*
X0027050Y0153915D03*
X0027050Y0154015D03*
X0027050Y0154115D03*
X0027050Y0154215D03*
X0027150Y0154615D03*
X0027150Y0154715D03*
X0027150Y0154815D03*
X0027250Y0154915D03*
X0027050Y0155115D03*
X0026950Y0155015D03*
X0026850Y0154815D03*
X0027150Y0155315D03*
X0027250Y0155415D03*
X0026050Y0154615D03*
X0024750Y0154815D03*
X0024150Y0155515D03*
X0023250Y0156115D03*
X0021950Y0156815D03*
X0021950Y0156915D03*
X0021050Y0157215D03*
X0020150Y0158215D03*
X0022550Y0158415D03*
X0022550Y0158515D03*
X0022650Y0158315D03*
X0022650Y0158215D03*
X0022750Y0158115D03*
X0022850Y0158015D03*
X0022950Y0157915D03*
X0027150Y0153615D03*
X0027150Y0153515D03*
X0028750Y0154415D03*
X0028750Y0154515D03*
X0028650Y0154615D03*
X0028850Y0154315D03*
X0029050Y0153815D03*
X0029050Y0153715D03*
X0029050Y0153615D03*
X0029050Y0153515D03*
X0029050Y0153415D03*
X0029050Y0153315D03*
X0029050Y0153215D03*
X0029050Y0153115D03*
X0029050Y0153015D03*
X0029050Y0152915D03*
X0030350Y0153015D03*
X0030350Y0153115D03*
X0030250Y0153915D03*
X0030250Y0154015D03*
X0030250Y0154115D03*
X0030250Y0154215D03*
X0030250Y0154315D03*
X0030250Y0154415D03*
X0030250Y0154515D03*
X0032650Y0155115D03*
X0035650Y0153315D03*
X0035550Y0152515D03*
X0035350Y0152015D03*
X0035250Y0151815D03*
X0035150Y0151615D03*
X0035150Y0151515D03*
X0036550Y0150715D03*
X0036350Y0150215D03*
X0036250Y0150115D03*
X0036250Y0150015D03*
X0036150Y0149915D03*
X0036150Y0149815D03*
X0036150Y0149715D03*
X0036150Y0149615D03*
X0036750Y0149615D03*
X0036750Y0149715D03*
X0036850Y0149815D03*
X0037050Y0149915D03*
X0037550Y0150315D03*
X0037550Y0150415D03*
X0038250Y0150615D03*
X0038250Y0150715D03*
X0038250Y0150815D03*
X0039350Y0151315D03*
X0039450Y0151615D03*
X0039850Y0152315D03*
X0039950Y0152415D03*
X0041050Y0149615D03*
X0041050Y0149515D03*
X0041050Y0149415D03*
X0041050Y0149315D03*
X0041550Y0148415D03*
X0041550Y0148315D03*
X0041550Y0148215D03*
X0041550Y0148115D03*
X0041650Y0147715D03*
X0041650Y0147615D03*
X0042150Y0147615D03*
X0042150Y0147715D03*
X0042150Y0147815D03*
X0042150Y0147915D03*
X0042150Y0148015D03*
X0042150Y0148115D03*
X0042250Y0147315D03*
X0042250Y0147215D03*
X0042250Y0147115D03*
X0042250Y0147015D03*
X0042250Y0146915D03*
X0042250Y0146815D03*
X0042350Y0146415D03*
X0042350Y0146315D03*
X0042450Y0145815D03*
X0042650Y0145215D03*
X0042550Y0144615D03*
X0043350Y0144015D03*
X0043950Y0143815D03*
X0044550Y0143115D03*
X0041750Y0146115D03*
X0041750Y0146215D03*
X0041650Y0146615D03*
X0041650Y0146715D03*
X0041650Y0146815D03*
X0043350Y0149015D03*
X0043350Y0149115D03*
X0043150Y0149615D03*
X0043150Y0149715D03*
X0043250Y0149815D03*
X0043250Y0149915D03*
X0043350Y0150015D03*
X0043350Y0150115D03*
X0043350Y0150215D03*
X0043450Y0150315D03*
X0043450Y0150415D03*
X0043550Y0150715D03*
X0043550Y0150815D03*
X0043550Y0150915D03*
X0044250Y0152115D03*
X0044950Y0151215D03*
X0044950Y0151115D03*
X0044950Y0151015D03*
X0044950Y0150915D03*
X0044950Y0150815D03*
X0044850Y0150415D03*
X0044850Y0150315D03*
X0044750Y0150115D03*
X0044750Y0150015D03*
X0044650Y0149915D03*
X0044650Y0149815D03*
X0044550Y0149715D03*
X0044850Y0149415D03*
X0044950Y0149215D03*
X0044950Y0149115D03*
X0046650Y0149215D03*
X0046650Y0149315D03*
X0046650Y0149415D03*
X0046550Y0150215D03*
X0046550Y0150315D03*
X0046650Y0150515D03*
X0046650Y0150615D03*
X0046650Y0150715D03*
X0046650Y0150815D03*
X0046550Y0152315D03*
X0045850Y0152215D03*
X0045250Y0152715D03*
X0045250Y0153915D03*
X0045450Y0154215D03*
X0045550Y0154315D03*
X0045650Y0154415D03*
X0045950Y0154815D03*
X0046050Y0154915D03*
X0046750Y0155315D03*
X0046750Y0155415D03*
X0048050Y0154115D03*
X0049050Y0153315D03*
X0049750Y0153115D03*
X0050250Y0153815D03*
X0050250Y0153915D03*
X0050250Y0154215D03*
X0050850Y0154215D03*
X0050850Y0154115D03*
X0050850Y0153815D03*
X0050750Y0153115D03*
X0050750Y0153015D03*
X0050750Y0152915D03*
X0050750Y0152815D03*
X0050750Y0152415D03*
X0050750Y0151915D03*
X0050750Y0151415D03*
X0050750Y0151315D03*
X0050750Y0150715D03*
X0049550Y0150715D03*
X0049550Y0150815D03*
X0049550Y0150915D03*
X0049550Y0151015D03*
X0049650Y0151315D03*
X0049650Y0151415D03*
X0049550Y0150615D03*
X0049450Y0150515D03*
X0049350Y0150315D03*
X0049650Y0150015D03*
X0049650Y0149915D03*
X0049750Y0149815D03*
X0049750Y0149715D03*
X0048350Y0149515D03*
X0048250Y0149815D03*
X0048050Y0150415D03*
X0048150Y0150515D03*
X0048150Y0150615D03*
X0048150Y0150715D03*
X0048150Y0150815D03*
X0048150Y0150915D03*
X0048150Y0151015D03*
X0048150Y0151115D03*
X0052050Y0150415D03*
X0052150Y0150615D03*
X0052150Y0150715D03*
X0052150Y0150815D03*
X0052150Y0150915D03*
X0052150Y0151015D03*
X0052150Y0151115D03*
X0052150Y0151215D03*
X0052150Y0151315D03*
X0052150Y0151415D03*
X0052150Y0151515D03*
X0052150Y0151615D03*
X0052150Y0151715D03*
X0052150Y0151815D03*
X0052050Y0152715D03*
X0051550Y0153515D03*
X0050950Y0154715D03*
X0050350Y0155015D03*
X0050350Y0155115D03*
X0050450Y0155615D03*
X0050450Y0155715D03*
X0050450Y0155815D03*
X0050450Y0155915D03*
X0050550Y0156115D03*
X0050550Y0156215D03*
X0050550Y0156315D03*
X0050550Y0156415D03*
X0050550Y0156515D03*
X0050550Y0156615D03*
X0050650Y0157115D03*
X0050650Y0157215D03*
X0050650Y0157315D03*
X0050650Y0157415D03*
X0050650Y0157515D03*
X0050750Y0157815D03*
X0050750Y0157915D03*
X0050750Y0158015D03*
X0050750Y0158115D03*
X0050750Y0158215D03*
X0050750Y0158315D03*
X0051250Y0158615D03*
X0051250Y0158715D03*
X0051250Y0158815D03*
X0051250Y0158915D03*
X0051350Y0158315D03*
X0051350Y0157515D03*
X0051350Y0157415D03*
X0051250Y0157115D03*
X0051250Y0157015D03*
X0051250Y0156915D03*
X0051250Y0156815D03*
X0051150Y0156615D03*
X0051150Y0156515D03*
X0051150Y0156415D03*
X0051150Y0156315D03*
X0051150Y0156215D03*
X0051150Y0156115D03*
X0051150Y0156015D03*
X0051050Y0155915D03*
X0051050Y0155815D03*
X0051050Y0155715D03*
X0051050Y0155615D03*
X0051050Y0155515D03*
X0051050Y0155415D03*
X0053850Y0154315D03*
X0053850Y0153815D03*
X0053850Y0152115D03*
X0053850Y0152015D03*
X0054050Y0151715D03*
X0054050Y0151615D03*
X0054150Y0151415D03*
X0054250Y0151215D03*
X0054350Y0151115D03*
X0053950Y0150615D03*
X0055350Y0150315D03*
X0055350Y0152015D03*
X0054750Y0152015D03*
X0054650Y0152115D03*
X0055650Y0153015D03*
X0055750Y0153115D03*
X0052250Y0150015D03*
X0050250Y0146815D03*
X0049850Y0146915D03*
X0049850Y0147015D03*
X0049750Y0145815D03*
X0050950Y0145915D03*
X0052650Y0146115D03*
X0053750Y0146015D03*
X0053750Y0145415D03*
X0054150Y0145415D03*
X0045050Y0156215D03*
X0045150Y0156315D03*
X0044850Y0156115D03*
X0044650Y0156015D03*
X0043450Y0156615D03*
X0043550Y0156915D03*
X0043550Y0157015D03*
X0043650Y0157215D03*
X0043650Y0157315D03*
X0043650Y0157415D03*
X0043750Y0157715D03*
X0043750Y0157815D03*
X0043850Y0158115D03*
X0044050Y0158615D03*
X0044150Y0158815D03*
X0044150Y0158915D03*
X0044250Y0159015D03*
X0044350Y0159215D03*
X0044550Y0159515D03*
X0044650Y0159615D03*
X0044750Y0159715D03*
X0045050Y0160015D03*
X0045150Y0160115D03*
X0045250Y0160215D03*
X0045350Y0160315D03*
X0045450Y0160415D03*
X0045550Y0160515D03*
X0045650Y0160615D03*
X0045950Y0160615D03*
X0045950Y0161215D03*
X0045950Y0161315D03*
X0046350Y0161915D03*
X0046250Y0162015D03*
X0045450Y0161915D03*
X0045350Y0162015D03*
X0044750Y0162115D03*
X0044650Y0162015D03*
X0044650Y0161915D03*
X0044550Y0161815D03*
X0044150Y0161215D03*
X0044050Y0161015D03*
X0043950Y0160815D03*
X0043850Y0160615D03*
X0043850Y0160515D03*
X0043750Y0160215D03*
X0043750Y0160115D03*
X0043650Y0160015D03*
X0043650Y0159915D03*
X0043550Y0159715D03*
X0043250Y0159215D03*
X0043150Y0159115D03*
X0043050Y0158915D03*
X0042750Y0158615D03*
X0042650Y0158415D03*
X0042350Y0158115D03*
X0042250Y0158015D03*
X0042150Y0157815D03*
X0042050Y0157715D03*
X0041950Y0157615D03*
X0041850Y0157515D03*
X0041750Y0157415D03*
X0041650Y0157315D03*
X0041550Y0157115D03*
X0041150Y0156715D03*
X0041050Y0156615D03*
X0040950Y0156515D03*
X0036550Y0152715D03*
X0034950Y0149515D03*
X0033550Y0149715D03*
X0033450Y0149515D03*
X0033350Y0149415D03*
X0032750Y0149315D03*
X0032650Y0149515D03*
X0030650Y0150415D03*
X0030650Y0150515D03*
X0042150Y0149515D03*
X0046450Y0157515D03*
X0048250Y0158815D03*
X0048550Y0159115D03*
X0048650Y0159215D03*
X0048750Y0159315D03*
X0049050Y0159615D03*
X0050350Y0159515D03*
X0050350Y0160015D03*
X0050650Y0159115D03*
D17*
X0050550Y0158915D03*
X0050550Y0159415D03*
X0050850Y0159515D03*
X0050950Y0159415D03*
X0051050Y0159315D03*
X0049850Y0160215D03*
X0049650Y0160115D03*
X0049550Y0160015D03*
X0049250Y0157915D03*
X0049150Y0157815D03*
X0048950Y0157715D03*
X0048750Y0157615D03*
X0048550Y0157515D03*
X0048450Y0157415D03*
X0048350Y0157315D03*
X0048250Y0157215D03*
X0047450Y0158015D03*
X0047550Y0158115D03*
X0047750Y0158315D03*
X0047850Y0158415D03*
X0047950Y0158515D03*
X0046950Y0157615D03*
X0046850Y0157515D03*
X0046450Y0157215D03*
X0046350Y0157115D03*
X0046150Y0157015D03*
X0046050Y0156915D03*
X0045750Y0156715D03*
X0046750Y0155715D03*
X0046850Y0155815D03*
X0046950Y0155915D03*
X0046650Y0155615D03*
X0046450Y0155415D03*
X0046350Y0155215D03*
X0045750Y0154515D03*
X0045250Y0153815D03*
X0044750Y0153215D03*
X0044650Y0153015D03*
X0044550Y0152915D03*
X0044350Y0152615D03*
X0044050Y0152315D03*
X0043950Y0152215D03*
X0043750Y0152015D03*
X0043550Y0151815D03*
X0044950Y0151415D03*
X0045250Y0152615D03*
X0046650Y0151615D03*
X0044450Y0149615D03*
X0043250Y0149315D03*
X0042050Y0148715D03*
X0042150Y0148515D03*
X0041350Y0148915D03*
X0040750Y0148915D03*
X0039750Y0149115D03*
X0039250Y0150715D03*
X0039250Y0150815D03*
X0039250Y0150915D03*
X0039250Y0151015D03*
X0039450Y0151815D03*
X0040250Y0152815D03*
X0040450Y0153015D03*
X0040550Y0153115D03*
X0040650Y0153215D03*
X0040750Y0153315D03*
X0040850Y0153415D03*
X0040950Y0153515D03*
X0041250Y0153715D03*
X0041350Y0153815D03*
X0041450Y0153915D03*
X0041550Y0154015D03*
X0041850Y0154215D03*
X0041950Y0154315D03*
X0042150Y0154415D03*
X0042250Y0154515D03*
X0042750Y0154815D03*
X0042950Y0154915D03*
X0043150Y0155015D03*
X0043450Y0155215D03*
X0043050Y0155615D03*
X0045850Y0160815D03*
X0045850Y0160915D03*
X0045350Y0162115D03*
X0045350Y0162315D03*
X0044950Y0162315D03*
X0049450Y0154015D03*
X0050150Y0154115D03*
X0050950Y0154415D03*
X0051050Y0154915D03*
X0051450Y0154015D03*
X0050850Y0153615D03*
X0050150Y0153115D03*
X0050850Y0152615D03*
X0050850Y0152515D03*
X0049550Y0151815D03*
X0049050Y0153215D03*
X0050150Y0149515D03*
X0050850Y0149315D03*
X0050850Y0149215D03*
X0050750Y0148715D03*
X0050750Y0148515D03*
X0050050Y0148215D03*
X0050650Y0147615D03*
X0050550Y0147515D03*
X0050550Y0147415D03*
X0050550Y0147315D03*
X0050550Y0147215D03*
X0050550Y0147115D03*
X0050650Y0146915D03*
X0050750Y0146515D03*
X0050750Y0146015D03*
X0050250Y0146015D03*
X0050150Y0146215D03*
X0049750Y0146215D03*
X0049850Y0146715D03*
X0050250Y0146715D03*
X0051350Y0146315D03*
X0051350Y0146115D03*
X0051450Y0145815D03*
X0051950Y0146015D03*
X0052350Y0149715D03*
X0050850Y0149815D03*
X0050850Y0149915D03*
X0050850Y0150015D03*
X0050850Y0150315D03*
X0050750Y0150515D03*
X0048450Y0149315D03*
X0044650Y0143215D03*
X0043950Y0144015D03*
X0043050Y0144515D03*
X0042850Y0144615D03*
X0042750Y0144715D03*
X0042750Y0144815D03*
X0042550Y0144315D03*
X0042050Y0144915D03*
X0041650Y0149515D03*
X0041550Y0149615D03*
X0037950Y0152315D03*
X0037750Y0152415D03*
X0037350Y0150715D03*
X0036550Y0150515D03*
X0036550Y0148815D03*
X0035150Y0149315D03*
X0034750Y0149715D03*
X0034650Y0150815D03*
X0034750Y0150915D03*
X0034850Y0151015D03*
X0034950Y0151215D03*
X0035650Y0152815D03*
X0035850Y0153515D03*
X0035850Y0153615D03*
X0035950Y0153715D03*
X0036650Y0154615D03*
X0036750Y0154715D03*
X0037450Y0154815D03*
X0037250Y0155415D03*
X0033650Y0149815D03*
X0032350Y0149215D03*
X0031950Y0149815D03*
X0031850Y0149915D03*
X0031450Y0150115D03*
X0031350Y0150515D03*
X0031250Y0150615D03*
X0030650Y0149815D03*
X0030650Y0149715D03*
X0030650Y0149615D03*
X0030650Y0149515D03*
X0028850Y0149915D03*
X0028450Y0149915D03*
X0027750Y0150115D03*
X0027650Y0149915D03*
X0027550Y0149715D03*
X0027450Y0149515D03*
X0027350Y0149315D03*
X0027250Y0149115D03*
X0027150Y0148915D03*
X0027050Y0148715D03*
X0026950Y0148615D03*
X0026450Y0148615D03*
X0025650Y0148515D03*
X0025050Y0148515D03*
X0025050Y0148415D03*
X0024150Y0148815D03*
X0027750Y0150615D03*
X0027850Y0150515D03*
X0028250Y0152015D03*
X0028450Y0152215D03*
X0027850Y0152315D03*
X0027550Y0152615D03*
X0027450Y0152715D03*
X0027450Y0152815D03*
X0027350Y0152915D03*
X0027250Y0153115D03*
X0027150Y0153315D03*
X0026650Y0152715D03*
X0026650Y0152615D03*
X0026450Y0153915D03*
X0026450Y0154015D03*
X0025950Y0154815D03*
X0025850Y0154915D03*
X0025750Y0155015D03*
X0025650Y0155215D03*
X0025550Y0155315D03*
X0025450Y0155415D03*
X0025050Y0155915D03*
X0024950Y0156015D03*
X0024650Y0156315D03*
X0024550Y0156415D03*
X0024250Y0156615D03*
X0024150Y0156715D03*
X0023950Y0156915D03*
X0023350Y0156015D03*
X0023250Y0155815D03*
X0023050Y0155915D03*
X0022850Y0156015D03*
X0022350Y0156315D03*
X0022050Y0156515D03*
X0021850Y0156615D03*
X0021750Y0156715D03*
X0020750Y0157715D03*
X0020350Y0158015D03*
X0020250Y0158115D03*
X0022350Y0158915D03*
X0022450Y0158715D03*
X0023750Y0155515D03*
X0024150Y0155215D03*
X0025050Y0154615D03*
X0027450Y0155115D03*
X0028050Y0155115D03*
X0030150Y0155415D03*
X0030450Y0152415D03*
X0030750Y0151615D03*
X0030750Y0151515D03*
X0029050Y0146115D03*
X0028950Y0145715D03*
X0028950Y0145615D03*
X0028850Y0145315D03*
X0028150Y0145115D03*
X0027950Y0144615D03*
X0027450Y0144615D03*
X0054250Y0153215D03*
X0054750Y0153215D03*
X0055550Y0152915D03*
X0055950Y0152315D03*
X0055950Y0152215D03*
X0056550Y0151515D03*
X0055150Y0150515D03*
D18*
X0055700Y0149815D03*
X0056300Y0150215D03*
X0056500Y0150315D03*
X0056400Y0151415D03*
X0056600Y0151615D03*
X0054800Y0152315D03*
X0054900Y0153915D03*
X0052400Y0149615D03*
X0050900Y0149715D03*
X0050900Y0150215D03*
X0050800Y0148615D03*
X0050600Y0147015D03*
X0050300Y0146115D03*
X0051400Y0146215D03*
X0051900Y0145615D03*
X0053800Y0145915D03*
X0050900Y0153415D03*
X0050200Y0154915D03*
X0050500Y0158715D03*
X0050500Y0158815D03*
X0046600Y0157415D03*
X0046500Y0157315D03*
X0046600Y0155515D03*
X0045000Y0153515D03*
X0044300Y0152515D03*
X0043900Y0152115D03*
X0042200Y0150615D03*
X0041200Y0149915D03*
X0041100Y0149115D03*
X0039200Y0150615D03*
X0038300Y0152215D03*
X0037500Y0152515D03*
X0036100Y0153815D03*
X0036300Y0154115D03*
X0036400Y0154215D03*
X0036500Y0154315D03*
X0036500Y0154415D03*
X0036600Y0154515D03*
X0036900Y0154815D03*
X0037000Y0155615D03*
X0038700Y0155115D03*
X0040300Y0152915D03*
X0042400Y0154615D03*
X0042600Y0154715D03*
X0043300Y0155115D03*
X0043600Y0155315D03*
X0043700Y0155415D03*
X0045800Y0160715D03*
X0045900Y0162115D03*
X0045100Y0162415D03*
X0047100Y0149915D03*
X0044900Y0148815D03*
X0043500Y0144315D03*
X0043900Y0144115D03*
X0044000Y0143915D03*
X0043300Y0143915D03*
X0042400Y0144415D03*
X0044700Y0143515D03*
X0044700Y0143415D03*
X0044700Y0143315D03*
X0037100Y0148715D03*
X0035300Y0149215D03*
X0034600Y0149815D03*
X0034600Y0150715D03*
X0032900Y0149115D03*
X0030800Y0151315D03*
X0030800Y0151415D03*
X0030400Y0150315D03*
X0030400Y0150215D03*
X0030600Y0149915D03*
X0030600Y0149315D03*
X0029600Y0149115D03*
X0029600Y0149015D03*
X0029100Y0149415D03*
X0029000Y0149515D03*
X0028900Y0149615D03*
X0028000Y0150315D03*
X0028000Y0150415D03*
X0028000Y0152215D03*
X0026700Y0152515D03*
X0026700Y0152815D03*
X0026400Y0153815D03*
X0026400Y0154115D03*
X0025900Y0154015D03*
X0025800Y0154115D03*
X0025700Y0155115D03*
X0025400Y0155515D03*
X0025300Y0155615D03*
X0025200Y0155715D03*
X0025100Y0155815D03*
X0024900Y0156115D03*
X0024800Y0156215D03*
X0024100Y0156815D03*
X0023900Y0157015D03*
X0023600Y0157315D03*
X0023200Y0157715D03*
X0022200Y0156415D03*
X0022700Y0156115D03*
X0023600Y0155615D03*
X0024100Y0155315D03*
X0024400Y0155115D03*
X0027700Y0155715D03*
X0029600Y0155715D03*
X0029800Y0155615D03*
X0032400Y0155415D03*
X0033500Y0155115D03*
X0028600Y0145115D03*
X0027700Y0144815D03*
X0024100Y0148515D03*
X0024100Y0148715D03*
D19*
X0024100Y0148415D03*
X0025000Y0148315D03*
X0025500Y0148215D03*
X0026500Y0148715D03*
X0026500Y0148815D03*
X0026600Y0149015D03*
X0027100Y0148815D03*
X0027200Y0149015D03*
X0027300Y0149215D03*
X0027400Y0149415D03*
X0027500Y0149615D03*
X0027600Y0149815D03*
X0027700Y0150015D03*
X0028200Y0150115D03*
X0028300Y0150015D03*
X0028800Y0150415D03*
X0028800Y0150515D03*
X0028900Y0150315D03*
X0029000Y0150215D03*
X0029000Y0150115D03*
X0029500Y0149915D03*
X0029700Y0149515D03*
X0030100Y0149515D03*
X0030100Y0149615D03*
X0030100Y0149715D03*
X0030200Y0149815D03*
X0030200Y0149915D03*
X0030100Y0149415D03*
X0029900Y0148615D03*
X0029600Y0148215D03*
X0029500Y0147915D03*
X0029400Y0147615D03*
X0029400Y0147515D03*
X0029300Y0147315D03*
X0029300Y0147215D03*
X0029200Y0146915D03*
X0029200Y0146815D03*
X0029100Y0146415D03*
X0029100Y0146315D03*
X0029100Y0146215D03*
X0029000Y0146015D03*
X0029000Y0145915D03*
X0029000Y0145815D03*
X0028900Y0145515D03*
X0028900Y0145415D03*
X0028600Y0145015D03*
X0028500Y0144915D03*
X0028200Y0145315D03*
X0028200Y0145415D03*
X0028200Y0145515D03*
X0028200Y0145615D03*
X0027900Y0145015D03*
X0027700Y0144915D03*
X0027500Y0144715D03*
X0027500Y0144515D03*
X0027900Y0144515D03*
X0027100Y0143715D03*
X0027000Y0143815D03*
X0026800Y0144115D03*
X0026600Y0143815D03*
X0026600Y0143715D03*
X0028700Y0147115D03*
X0028800Y0147415D03*
X0028800Y0147515D03*
X0028900Y0147715D03*
X0028900Y0147815D03*
X0029000Y0148015D03*
X0029000Y0148115D03*
X0029200Y0148515D03*
X0029300Y0148715D03*
X0029400Y0148815D03*
X0030300Y0148215D03*
X0030400Y0150415D03*
X0030400Y0150515D03*
X0031400Y0150215D03*
X0032200Y0149415D03*
X0032300Y0149315D03*
X0032400Y0149115D03*
X0032400Y0149015D03*
X0032800Y0149015D03*
X0033200Y0149315D03*
X0033500Y0149615D03*
X0032500Y0149615D03*
X0030700Y0151715D03*
X0030700Y0151815D03*
X0030600Y0151915D03*
X0030600Y0152015D03*
X0030600Y0152115D03*
X0030500Y0152215D03*
X0030500Y0152315D03*
X0030400Y0152515D03*
X0030400Y0152615D03*
X0030400Y0152715D03*
X0030400Y0152815D03*
X0030400Y0152915D03*
X0030300Y0153215D03*
X0030300Y0153315D03*
X0030300Y0153415D03*
X0030300Y0153515D03*
X0030300Y0153615D03*
X0030300Y0153715D03*
X0030300Y0153815D03*
X0030200Y0154615D03*
X0030200Y0154715D03*
X0030200Y0154815D03*
X0030200Y0154915D03*
X0030200Y0155015D03*
X0030200Y0155115D03*
X0030200Y0155215D03*
X0030200Y0155315D03*
X0028900Y0154215D03*
X0028900Y0154115D03*
X0029000Y0154015D03*
X0029000Y0153915D03*
X0029000Y0152815D03*
X0028900Y0152715D03*
X0028900Y0152615D03*
X0028800Y0152515D03*
X0028700Y0152415D03*
X0028600Y0152315D03*
X0027800Y0152415D03*
X0027700Y0152515D03*
X0027300Y0153015D03*
X0027200Y0153215D03*
X0027100Y0153415D03*
X0027100Y0153715D03*
X0026500Y0153215D03*
X0026400Y0153315D03*
X0026300Y0153515D03*
X0026000Y0153815D03*
X0025900Y0153915D03*
X0025500Y0154215D03*
X0025400Y0154315D03*
X0025300Y0154415D03*
X0025200Y0154515D03*
X0024900Y0154715D03*
X0024600Y0154915D03*
X0024500Y0155015D03*
X0024500Y0155215D03*
X0026000Y0154715D03*
X0026100Y0154515D03*
X0026700Y0154515D03*
X0026700Y0154615D03*
X0026800Y0154715D03*
X0026900Y0154915D03*
X0027100Y0155215D03*
X0027300Y0155015D03*
X0027400Y0155515D03*
X0027500Y0155615D03*
X0028300Y0155015D03*
X0026700Y0152215D03*
X0026700Y0152115D03*
X0026800Y0152015D03*
X0026800Y0151915D03*
X0026900Y0151815D03*
X0027000Y0151615D03*
X0027300Y0151115D03*
X0027400Y0151015D03*
X0027500Y0150915D03*
X0027600Y0150815D03*
X0027700Y0150715D03*
X0022800Y0156315D03*
X0021600Y0156815D03*
X0021500Y0156915D03*
X0021300Y0157015D03*
X0021200Y0157115D03*
X0021000Y0157315D03*
X0020900Y0157415D03*
X0020700Y0157515D03*
X0020700Y0157615D03*
X0020400Y0157915D03*
X0022200Y0159115D03*
X0022200Y0159215D03*
X0022300Y0159015D03*
X0022400Y0158815D03*
X0022500Y0158615D03*
X0023000Y0157815D03*
X0035700Y0153415D03*
X0035700Y0153215D03*
X0035600Y0152715D03*
X0035600Y0152615D03*
X0035500Y0152415D03*
X0035500Y0152315D03*
X0035400Y0152215D03*
X0035400Y0152115D03*
X0035300Y0151915D03*
X0035200Y0151715D03*
X0035100Y0151415D03*
X0035000Y0151315D03*
X0034900Y0151115D03*
X0034800Y0149615D03*
X0035100Y0149415D03*
X0036200Y0149415D03*
X0036200Y0149515D03*
X0036300Y0149315D03*
X0036700Y0149315D03*
X0036700Y0149415D03*
X0036700Y0149515D03*
X0036400Y0150315D03*
X0036500Y0150415D03*
X0037500Y0150515D03*
X0037600Y0150215D03*
X0037600Y0150115D03*
X0038300Y0150515D03*
X0038400Y0150415D03*
X0038400Y0150315D03*
X0038500Y0150215D03*
X0039300Y0151215D03*
X0039400Y0151415D03*
X0039400Y0151515D03*
X0039500Y0151715D03*
X0039800Y0152215D03*
X0040000Y0152515D03*
X0040100Y0152615D03*
X0040200Y0152715D03*
X0041100Y0153615D03*
X0041700Y0154115D03*
X0043100Y0155715D03*
X0043100Y0155815D03*
X0043200Y0155915D03*
X0043200Y0156015D03*
X0043300Y0156115D03*
X0043300Y0156215D03*
X0043300Y0156315D03*
X0043400Y0156415D03*
X0043400Y0156515D03*
X0043500Y0156715D03*
X0043500Y0156815D03*
X0043600Y0157115D03*
X0043700Y0157515D03*
X0043700Y0157615D03*
X0043800Y0157915D03*
X0043800Y0158015D03*
X0043900Y0158215D03*
X0043900Y0158315D03*
X0044000Y0158415D03*
X0044000Y0158515D03*
X0044100Y0158715D03*
X0044300Y0159115D03*
X0044400Y0159315D03*
X0044500Y0159415D03*
X0043600Y0159815D03*
X0043500Y0159615D03*
X0043400Y0159515D03*
X0043400Y0159415D03*
X0043300Y0159315D03*
X0043100Y0159015D03*
X0042200Y0157915D03*
X0043900Y0160715D03*
X0044800Y0162215D03*
X0045100Y0162515D03*
X0045900Y0161115D03*
X0045900Y0161015D03*
X0048300Y0158915D03*
X0048400Y0159015D03*
X0048200Y0158715D03*
X0048100Y0158615D03*
X0047700Y0158215D03*
X0047300Y0157915D03*
X0047200Y0157815D03*
X0047100Y0157715D03*
X0047900Y0156915D03*
X0048000Y0157015D03*
X0048100Y0157115D03*
X0047800Y0156815D03*
X0047700Y0156715D03*
X0047600Y0156615D03*
X0047500Y0156515D03*
X0047400Y0156415D03*
X0047300Y0156315D03*
X0047200Y0156215D03*
X0047100Y0156115D03*
X0047000Y0156015D03*
X0046800Y0155215D03*
X0046400Y0155315D03*
X0046100Y0155015D03*
X0045900Y0154715D03*
X0045800Y0154615D03*
X0045400Y0154115D03*
X0045300Y0154015D03*
X0044900Y0153415D03*
X0044800Y0153315D03*
X0044700Y0153115D03*
X0044500Y0152815D03*
X0044400Y0152715D03*
X0044100Y0152415D03*
X0043600Y0151915D03*
X0043600Y0151115D03*
X0043600Y0151015D03*
X0043500Y0150615D03*
X0043500Y0150515D03*
X0043300Y0149215D03*
X0043400Y0148915D03*
X0043400Y0148815D03*
X0042100Y0148415D03*
X0042100Y0148315D03*
X0042100Y0148215D03*
X0041600Y0148015D03*
X0041600Y0147915D03*
X0041600Y0147815D03*
X0041600Y0147515D03*
X0041600Y0147415D03*
X0041600Y0147315D03*
X0041600Y0147215D03*
X0041600Y0147115D03*
X0041600Y0147015D03*
X0041600Y0146915D03*
X0041700Y0146515D03*
X0041700Y0146415D03*
X0041700Y0146315D03*
X0041800Y0146015D03*
X0041800Y0145915D03*
X0041800Y0145815D03*
X0041800Y0145715D03*
X0041900Y0145615D03*
X0041900Y0145515D03*
X0041900Y0145415D03*
X0041900Y0145315D03*
X0042000Y0145215D03*
X0042000Y0145115D03*
X0042000Y0145015D03*
X0042100Y0144815D03*
X0042200Y0144715D03*
X0042200Y0144615D03*
X0042700Y0144915D03*
X0042700Y0145015D03*
X0042700Y0145115D03*
X0042600Y0145315D03*
X0042600Y0145415D03*
X0042500Y0145515D03*
X0042500Y0145615D03*
X0042500Y0145715D03*
X0042400Y0145915D03*
X0042400Y0146015D03*
X0042400Y0146115D03*
X0042400Y0146215D03*
X0042300Y0146515D03*
X0042300Y0146615D03*
X0042300Y0146715D03*
X0042200Y0147415D03*
X0042200Y0147515D03*
X0041500Y0148515D03*
X0041400Y0148715D03*
X0041400Y0148815D03*
X0041100Y0149215D03*
X0040700Y0148815D03*
X0041800Y0149315D03*
X0041800Y0149415D03*
X0041900Y0149215D03*
X0041900Y0149115D03*
X0041900Y0149015D03*
X0042000Y0148915D03*
X0042000Y0148815D03*
X0044900Y0149315D03*
X0045000Y0149015D03*
X0045000Y0148915D03*
X0044900Y0150515D03*
X0044900Y0150615D03*
X0044900Y0150715D03*
X0045000Y0151315D03*
X0046700Y0151315D03*
X0046700Y0151415D03*
X0046700Y0151515D03*
X0046700Y0151215D03*
X0046700Y0151115D03*
X0046700Y0151015D03*
X0046700Y0150915D03*
X0046600Y0150415D03*
X0046500Y0149715D03*
X0046600Y0149615D03*
X0046600Y0149515D03*
X0046700Y0149115D03*
X0048000Y0150215D03*
X0048000Y0150315D03*
X0048200Y0149915D03*
X0048300Y0149715D03*
X0048300Y0149615D03*
X0048400Y0149415D03*
X0049200Y0150215D03*
X0049400Y0150415D03*
X0049600Y0151115D03*
X0049600Y0151215D03*
X0049600Y0151515D03*
X0049600Y0151615D03*
X0049600Y0151715D03*
X0050200Y0151715D03*
X0050200Y0151815D03*
X0050200Y0151615D03*
X0050200Y0151515D03*
X0050200Y0151415D03*
X0050200Y0151315D03*
X0050200Y0151215D03*
X0050200Y0151115D03*
X0050200Y0151015D03*
X0050200Y0150915D03*
X0050200Y0150815D03*
X0050200Y0150715D03*
X0050200Y0150615D03*
X0050200Y0150515D03*
X0050200Y0150415D03*
X0050200Y0150315D03*
X0050200Y0150215D03*
X0050200Y0150115D03*
X0050200Y0150015D03*
X0050200Y0149915D03*
X0050200Y0149815D03*
X0050200Y0149715D03*
X0050200Y0149615D03*
X0050100Y0149115D03*
X0050100Y0149015D03*
X0050100Y0148915D03*
X0050100Y0148815D03*
X0050100Y0148715D03*
X0050100Y0148615D03*
X0050100Y0148515D03*
X0050100Y0148415D03*
X0050100Y0148315D03*
X0050000Y0148115D03*
X0050000Y0148015D03*
X0050000Y0147915D03*
X0050000Y0147815D03*
X0050000Y0147715D03*
X0050000Y0147615D03*
X0049900Y0147515D03*
X0049900Y0147415D03*
X0049900Y0147315D03*
X0049900Y0147215D03*
X0049900Y0147115D03*
X0049800Y0146815D03*
X0049700Y0146115D03*
X0049700Y0146015D03*
X0049700Y0145915D03*
X0050600Y0146615D03*
X0050600Y0146715D03*
X0050600Y0146815D03*
X0051100Y0146415D03*
X0051300Y0146015D03*
X0051400Y0145915D03*
X0051600Y0145715D03*
X0051900Y0145915D03*
X0052000Y0145715D03*
X0050600Y0147715D03*
X0050600Y0147815D03*
X0050600Y0147915D03*
X0050700Y0148015D03*
X0050700Y0148115D03*
X0050700Y0148215D03*
X0050700Y0148315D03*
X0050700Y0148415D03*
X0050800Y0148815D03*
X0050800Y0148915D03*
X0050800Y0149015D03*
X0050800Y0149115D03*
X0050800Y0150415D03*
X0050800Y0150615D03*
X0050800Y0150815D03*
X0050800Y0150915D03*
X0050800Y0151015D03*
X0050800Y0151115D03*
X0050800Y0151215D03*
X0050800Y0151515D03*
X0050800Y0151615D03*
X0050800Y0151715D03*
X0050800Y0151815D03*
X0050800Y0152015D03*
X0050800Y0152315D03*
X0050800Y0152715D03*
X0050800Y0153215D03*
X0050800Y0153515D03*
X0050900Y0153715D03*
X0050900Y0154315D03*
X0050900Y0154515D03*
X0050900Y0154615D03*
X0051000Y0154815D03*
X0051000Y0155115D03*
X0051000Y0155215D03*
X0051000Y0155315D03*
X0050500Y0156015D03*
X0050600Y0156715D03*
X0050600Y0156815D03*
X0050600Y0156915D03*
X0050600Y0157015D03*
X0050700Y0157615D03*
X0050700Y0157715D03*
X0050700Y0158415D03*
X0050700Y0158515D03*
X0050200Y0158515D03*
X0050100Y0158415D03*
X0050000Y0158315D03*
X0049900Y0158215D03*
X0049700Y0158115D03*
X0049500Y0158015D03*
X0050600Y0159015D03*
X0050700Y0159215D03*
X0050700Y0159315D03*
X0050800Y0159615D03*
X0050700Y0159715D03*
X0050300Y0160115D03*
X0050200Y0160215D03*
X0050100Y0160415D03*
X0049400Y0159915D03*
X0049300Y0159815D03*
X0049200Y0159715D03*
X0048900Y0159515D03*
X0048800Y0159415D03*
X0051100Y0159215D03*
X0051200Y0159115D03*
X0051200Y0159015D03*
X0051300Y0158515D03*
X0051300Y0158415D03*
X0051400Y0158215D03*
X0051400Y0158115D03*
X0051400Y0158015D03*
X0051400Y0157915D03*
X0051400Y0157815D03*
X0051400Y0157715D03*
X0051400Y0157615D03*
X0051300Y0157315D03*
X0051300Y0157215D03*
X0051200Y0156715D03*
X0050300Y0154815D03*
X0050300Y0154715D03*
X0050300Y0154615D03*
X0050300Y0154415D03*
X0050300Y0154315D03*
X0050200Y0154015D03*
X0050200Y0153715D03*
X0050200Y0153615D03*
X0050200Y0153515D03*
X0050200Y0153415D03*
X0050200Y0153315D03*
X0050200Y0153215D03*
X0050200Y0153015D03*
X0050200Y0152915D03*
X0050200Y0152815D03*
X0050200Y0152715D03*
X0050200Y0152615D03*
X0050200Y0152515D03*
X0050200Y0152415D03*
X0050200Y0152315D03*
X0050200Y0152215D03*
X0050200Y0152115D03*
X0049100Y0152715D03*
X0048500Y0152715D03*
X0048200Y0151615D03*
X0048200Y0151515D03*
X0048200Y0151415D03*
X0048200Y0151315D03*
X0048200Y0151215D03*
X0046800Y0152715D03*
X0046500Y0152215D03*
X0045300Y0153015D03*
X0044100Y0155615D03*
X0045300Y0156415D03*
X0045400Y0156515D03*
X0045600Y0156615D03*
X0045900Y0156815D03*
X0051400Y0154415D03*
X0051400Y0154315D03*
X0051500Y0153415D03*
X0052100Y0152615D03*
X0052100Y0152015D03*
X0052100Y0151915D03*
X0052300Y0150115D03*
X0052300Y0149915D03*
X0052300Y0149815D03*
X0053700Y0150515D03*
X0055200Y0150415D03*
X0055500Y0150215D03*
X0055500Y0152315D03*
X0056100Y0152515D03*
X0056100Y0152615D03*
X0055800Y0153215D03*
X0055800Y0153315D03*
X0054800Y0153315D03*
X0054900Y0154015D03*
X0054700Y0152215D03*
X0053000Y0154715D03*
X0052300Y0154515D03*
X0044800Y0143615D03*
X0043200Y0144415D03*
X0043000Y0144015D03*
X0042800Y0144115D03*
X0042700Y0144215D03*
X0037700Y0148815D03*
X0037200Y0148815D03*
X0038900Y0151915D03*
X0038200Y0154915D03*
X0037000Y0155015D03*
D20*
X0038150Y0155015D03*
X0039050Y0153015D03*
X0039450Y0151915D03*
X0039250Y0150515D03*
X0039250Y0150415D03*
X0037550Y0149915D03*
X0036750Y0149115D03*
X0035450Y0149115D03*
X0034450Y0150615D03*
X0032650Y0150015D03*
X0032050Y0149715D03*
X0032050Y0149615D03*
X0031950Y0149515D03*
X0032550Y0148915D03*
X0032450Y0148815D03*
X0032250Y0148715D03*
X0032950Y0149215D03*
X0031550Y0150415D03*
X0030850Y0151215D03*
X0030450Y0150115D03*
X0030650Y0149415D03*
X0029650Y0148915D03*
X0029350Y0149315D03*
X0028750Y0149715D03*
X0029050Y0150015D03*
X0027950Y0150215D03*
X0026750Y0148415D03*
X0026650Y0148315D03*
X0026250Y0148215D03*
X0026850Y0144015D03*
X0026850Y0143915D03*
X0026750Y0152915D03*
X0026650Y0153115D03*
X0026350Y0153615D03*
X0026450Y0154215D03*
X0024450Y0156515D03*
X0023850Y0157115D03*
X0023750Y0157215D03*
X0023550Y0157415D03*
X0023450Y0157515D03*
X0023350Y0157615D03*
X0023450Y0155715D03*
X0035750Y0152915D03*
X0035850Y0153115D03*
X0036250Y0153915D03*
X0036950Y0152715D03*
X0037150Y0152615D03*
X0041250Y0149815D03*
X0041850Y0150415D03*
X0042050Y0150515D03*
X0042350Y0150715D03*
X0042450Y0150815D03*
X0042750Y0151015D03*
X0043150Y0149415D03*
X0045950Y0149715D03*
X0045150Y0153615D03*
X0050150Y0154515D03*
X0051150Y0155015D03*
X0051550Y0153615D03*
X0050950Y0153315D03*
X0052450Y0150215D03*
X0050950Y0149615D03*
X0053350Y0146115D03*
X0055450Y0149715D03*
X0055850Y0149915D03*
X0055750Y0150715D03*
X0054850Y0150715D03*
X0055950Y0152115D03*
X0055450Y0152815D03*
X0050450Y0158615D03*
X0050050Y0160315D03*
X0045450Y0162215D03*
X0042350Y0144515D03*
D21*
X0043600Y0144215D03*
X0041100Y0149015D03*
X0041300Y0149715D03*
X0041700Y0150315D03*
X0042600Y0150915D03*
X0042900Y0151115D03*
X0045300Y0149615D03*
X0045300Y0153715D03*
X0050000Y0149415D03*
X0051000Y0150115D03*
X0054600Y0150915D03*
X0055100Y0150615D03*
X0055900Y0150015D03*
X0055200Y0151615D03*
X0054000Y0154815D03*
X0054000Y0145515D03*
X0039300Y0150315D03*
X0036600Y0149215D03*
X0035700Y0149015D03*
X0034500Y0149915D03*
X0032000Y0150215D03*
X0030800Y0151115D03*
X0030500Y0150015D03*
X0030000Y0149315D03*
X0028700Y0149815D03*
X0026800Y0148515D03*
X0026900Y0152315D03*
X0026700Y0153015D03*
X0026300Y0153715D03*
X0026400Y0154315D03*
X0026400Y0154415D03*
X0027800Y0155215D03*
X0028200Y0152115D03*
X0032700Y0155315D03*
X0036300Y0154015D03*
X0028000Y0144715D03*
X0024000Y0155415D03*
D22*
X0028200Y0155815D03*
X0029200Y0155815D03*
X0030300Y0150615D03*
X0034300Y0150515D03*
X0036000Y0148915D03*
X0036800Y0152815D03*
X0037200Y0154915D03*
X0028500Y0145215D03*
X0048100Y0150115D03*
X0050100Y0146515D03*
X0050100Y0146415D03*
X0055400Y0151715D03*
X0055500Y0151815D03*
X0055800Y0152415D03*
X0056600Y0151815D03*
X0056800Y0150415D03*
D23*
X0056750Y0150715D03*
X0056650Y0151715D03*
X0055550Y0151915D03*
X0055350Y0151515D03*
X0055050Y0151215D03*
X0054650Y0150815D03*
X0055050Y0149615D03*
X0053150Y0154815D03*
X0053150Y0154915D03*
X0050050Y0146615D03*
X0049950Y0146315D03*
X0054050Y0145615D03*
X0046650Y0152615D03*
X0041550Y0150215D03*
X0037250Y0155115D03*
X0033750Y0149915D03*
X0031750Y0150015D03*
X0031650Y0150315D03*
X0030750Y0151015D03*
X0029250Y0150915D03*
X0026850Y0152415D03*
X0030150Y0155515D03*
X0024150Y0148615D03*
X0022650Y0156215D03*
D24*
X0030650Y0155615D03*
X0034450Y0155315D03*
X0038950Y0151115D03*
X0041050Y0150015D03*
X0037150Y0149015D03*
X0031850Y0148615D03*
X0030050Y0148315D03*
X0029650Y0149215D03*
X0047850Y0150015D03*
X0052050Y0146115D03*
X0052850Y0145915D03*
X0053950Y0145715D03*
X0055950Y0150115D03*
X0056750Y0150515D03*
X0056550Y0151915D03*
X0056050Y0152015D03*
X0055450Y0151415D03*
X0055150Y0152715D03*
D25*
X0054700Y0154715D03*
X0051300Y0149415D03*
X0053600Y0145815D03*
X0045900Y0148815D03*
D26*
X0043450Y0149515D03*
X0039550Y0150215D03*
X0035050Y0155415D03*
X0031250Y0155515D03*
X0028750Y0155915D03*
X0034150Y0150415D03*
X0025550Y0148115D03*
X0055350Y0154615D03*
D27*
X0055400Y0151315D03*
X0049800Y0152015D03*
X0043300Y0151315D03*
X0043200Y0151215D03*
X0039200Y0152015D03*
X0037000Y0150615D03*
X0030700Y0150915D03*
X0030100Y0148415D03*
D28*
X0030800Y0148515D03*
X0049100Y0149215D03*
D29*
X0040000Y0148615D03*
D30*
X0043250Y0148615D03*
X0049050Y0151915D03*
X0030050Y0150815D03*
D31*
X0038000Y0150015D03*
X0039900Y0148715D03*
X0056000Y0150915D03*
D32*
X0044400Y0148715D03*
X0038200Y0155215D03*
D33*
X0038100Y0148915D03*
X0054200Y0152515D03*
D34*
X0046800Y0155115D03*
X0046300Y0148915D03*
X0039100Y0152115D03*
X0034000Y0150315D03*
D35*
X0039450Y0149015D03*
X0044250Y0151515D03*
X0055450Y0151015D03*
D36*
X0055250Y0151115D03*
X0054650Y0152615D03*
X0053550Y0149415D03*
X0049650Y0149315D03*
X0047850Y0149115D03*
X0046950Y0149015D03*
X0043550Y0151415D03*
X0034050Y0150015D03*
D37*
X0052800Y0149515D03*
D38*
X0033200Y0150115D03*
D39*
X0040050Y0150115D03*
D40*
X0033850Y0150215D03*
X0033350Y0155215D03*
X0056150Y0150815D03*
D41*
X0056350Y0150615D03*
X0051450Y0152115D03*
X0036850Y0152915D03*
D42*
X0039350Y0155415D03*
X0030250Y0150715D03*
D43*
X0044550Y0151615D03*
D44*
X0045900Y0151715D03*
D45*
X0047500Y0151815D03*
D46*
X0052500Y0152215D03*
D47*
X0052900Y0152315D03*
D48*
X0053750Y0152415D03*
X0042550Y0155515D03*
D49*
X0036300Y0155515D03*
X0036500Y0153015D03*
D50*
X0038650Y0155315D03*
M02*
