%
M48
M72
T01C0.0100
T02C0.0276
T03C0.0400
%
T01
X3295Y4211
X4215Y6351
X4945Y6291
X3805Y8001
X3485Y8001
X3475Y9771
X3475Y10021
X3475Y10261
X3475Y10581
X3475Y10851
X3685Y10981
X3715Y11731
X3475Y11751
X3925Y11841
X4175Y11841
X4465Y11841
X4755Y11841
X5025Y12591
X5445Y12591
X5445Y13091
X5445Y13591
X4945Y13591
X5025Y13091
X4445Y13591
X4445Y14091
X3945Y14091
X3945Y13591
X3595Y13121
X3595Y12711
X2945Y12591
X2945Y13091
X2945Y13591
X3445Y13591
X3445Y14091
X2945Y14091
X2445Y14101
X2445Y13591
X1945Y13591
X1945Y14091
X4945Y14091
X5445Y14091
X5945Y14091
X5945Y13591
X5945Y13091
X6285Y13091
X6285Y13591
X6995Y13731
X6985Y13381
X6975Y12831
X6965Y12591
X7445Y12591
X7445Y12891
X7445Y13781
X7445Y14091
X6985Y14091
X5945Y12591
X6633Y11231
X6965Y11341
X6965Y11031
X6965Y10781
X6965Y10311
X6965Y10071
X6965Y9791
X6965Y9151
X6965Y8841
X6965Y8571
X6955Y8181
X6595Y8231
X7205Y7591
X7345Y7151
X7965Y8671
X6965Y11661
X5345Y4141
X5825Y2821
X7205Y2861
X7355Y1291
X4085Y1661
T02
X3605Y4908
X3605Y5695
T03
X2220Y1166
X2220Y2166
X2220Y3166
X2220Y4166
X2220Y5166
X2220Y6166
X2220Y7166
X2220Y8166
X2220Y9166
X2220Y10166
X2220Y11166
X2220Y12166
X8220Y12166
X8220Y11166
X8220Y10166
X8220Y9166
X8220Y8166
X8220Y7166
X8220Y6166
X8220Y5166
X8220Y4166
X8220Y3166
X8220Y2166
X8220Y1166
M30
