G75*
%MOIN*%
%OFA0B0*%
%FSLAX25Y25*%
%IPPOS*%
%LPD*%
%AMOC8*
5,1,8,0,0,1.08239X$1,22.5*
%
%ADD10C,0.07400*%
%ADD11R,0.01575X0.05315*%
%ADD12R,0.07087X0.07087*%
%ADD13R,0.09055X0.05118*%
%ADD14R,0.06299X0.06299*%
%ADD15R,0.01969X0.03543*%
%ADD16R,0.01575X0.01417*%
%ADD17R,0.01575X0.00787*%
%ADD18R,0.00787X0.02362*%
%ADD19C,0.05700*%
%ADD20C,0.00800*%
%ADD21R,0.05000X0.02500*%
%ADD22C,0.01000*%
%ADD23C,0.01800*%
%ADD24C,0.01600*%
D10*
X0022200Y0011665D03*
X0022200Y0021665D03*
X0022200Y0031665D03*
X0022200Y0041665D03*
X0022200Y0051665D03*
X0022200Y0061665D03*
X0022200Y0071665D03*
X0022200Y0081665D03*
X0022200Y0091665D03*
X0022200Y0101665D03*
X0022200Y0111665D03*
X0022200Y0121665D03*
X0082200Y0121665D03*
X0082200Y0111665D03*
X0082200Y0101665D03*
X0082200Y0091665D03*
X0082200Y0081665D03*
X0082200Y0071665D03*
X0082200Y0061665D03*
X0082200Y0051665D03*
X0082200Y0041665D03*
X0082200Y0031665D03*
X0082200Y0021665D03*
X0082200Y0011665D03*
D11*
X0057318Y0022557D03*
X0054759Y0022557D03*
X0052200Y0022557D03*
X0049641Y0022557D03*
X0047082Y0022557D03*
D12*
X0047672Y0012124D03*
X0056728Y0012124D03*
D13*
X0066964Y0012124D03*
X0037436Y0012124D03*
D14*
X0039602Y0021710D03*
X0064798Y0021710D03*
D15*
X0071285Y0023415D03*
X0075615Y0023415D03*
D16*
X0054631Y0029446D03*
X0052269Y0029446D03*
X0052269Y0033383D03*
X0054631Y0033383D03*
D17*
X0055419Y0037628D03*
X0055419Y0039202D03*
X0051481Y0039202D03*
X0051481Y0037628D03*
D18*
X0053450Y0038415D03*
D19*
X0036050Y0049078D03*
X0036050Y0056952D03*
D20*
X0031950Y0037915D02*
X0031950Y0034915D01*
X0039850Y0127115D02*
X0041650Y0127215D01*
X0041650Y0127715D02*
X0041650Y0130715D01*
D21*
X0041650Y0131215D03*
X0041650Y0127215D03*
X0031950Y0038415D03*
X0031950Y0034415D03*
D22*
X0018950Y0027844D02*
X0018950Y0015486D01*
X0019368Y0015904D01*
X0021205Y0016665D01*
X0023195Y0016665D01*
X0025032Y0015904D01*
X0026439Y0014497D01*
X0027200Y0012660D01*
X0027200Y0010670D01*
X0026439Y0008833D01*
X0026021Y0008415D01*
X0030200Y0008415D01*
X0030200Y0027415D01*
X0050400Y0027415D01*
X0050400Y0027981D01*
X0050181Y0028199D01*
X0050181Y0030694D01*
X0050903Y0031415D01*
X0050181Y0032136D01*
X0050181Y0034631D01*
X0050469Y0034918D01*
X0050469Y0035212D01*
X0050197Y0035934D01*
X0050156Y0035934D01*
X0049394Y0036695D01*
X0049394Y0040135D01*
X0049681Y0040422D01*
X0049681Y0060715D01*
X0048539Y0060715D01*
X0047250Y0062004D01*
X0047250Y0063826D01*
X0048539Y0065115D01*
X0049681Y0065115D01*
X0049681Y0065359D01*
X0043431Y0074515D01*
X0035404Y0074515D01*
X0034350Y0075569D01*
X0033050Y0076869D01*
X0033050Y0078704D01*
X0032650Y0079104D01*
X0032650Y0080926D01*
X0033939Y0082215D01*
X0035761Y0082215D01*
X0036450Y0081526D01*
X0037139Y0082215D01*
X0038961Y0082215D01*
X0039161Y0082015D01*
X0045787Y0082015D01*
X0045936Y0082119D01*
X0046511Y0082015D01*
X0047096Y0082015D01*
X0047224Y0081886D01*
X0047404Y0081854D01*
X0047737Y0081374D01*
X0048150Y0080961D01*
X0048150Y0080778D01*
X0056805Y0068305D01*
X0057218Y0067892D01*
X0057218Y0067710D01*
X0057322Y0067560D01*
X0057218Y0066985D01*
X0057218Y0040422D01*
X0057506Y0040135D01*
X0057506Y0036695D01*
X0056744Y0035934D01*
X0056703Y0035934D01*
X0056431Y0035212D01*
X0056431Y0034918D01*
X0056718Y0034631D01*
X0056718Y0032136D01*
X0055997Y0031415D01*
X0056718Y0030694D01*
X0056718Y0029795D01*
X0057339Y0030415D01*
X0059161Y0030415D01*
X0060450Y0029126D01*
X0060450Y0027415D01*
X0070139Y0027415D01*
X0069850Y0027704D01*
X0069850Y0029526D01*
X0071139Y0030815D01*
X0072961Y0030815D01*
X0074250Y0029526D01*
X0074250Y0027704D01*
X0073961Y0027415D01*
X0074200Y0027415D01*
X0074200Y0015115D01*
X0074461Y0015115D01*
X0075750Y0013826D01*
X0075750Y0012004D01*
X0074461Y0010715D01*
X0074200Y0010715D01*
X0074200Y0008415D01*
X0085450Y0008415D01*
X0085450Y0017844D01*
X0085032Y0017426D01*
X0083195Y0016665D01*
X0081205Y0016665D01*
X0079368Y0017426D01*
X0077961Y0018833D01*
X0077200Y0020670D01*
X0077200Y0022660D01*
X0077961Y0024497D01*
X0078272Y0024808D01*
X0074114Y0031906D01*
X0073750Y0032269D01*
X0073750Y0032526D01*
X0073620Y0032748D01*
X0073750Y0033246D01*
X0073750Y0069315D01*
X0072539Y0069315D01*
X0071250Y0070604D01*
X0071250Y0072426D01*
X0072250Y0073426D01*
X0072250Y0094169D01*
X0072204Y0094215D01*
X0065943Y0094215D01*
X0067636Y0092612D01*
X0068739Y0093715D01*
X0070561Y0093715D01*
X0071850Y0092426D01*
X0071850Y0090604D01*
X0071211Y0089965D01*
X0071850Y0089326D01*
X0071850Y0087504D01*
X0071411Y0087065D01*
X0071850Y0086626D01*
X0071850Y0084804D01*
X0070761Y0083715D01*
X0071750Y0082726D01*
X0071750Y0080904D01*
X0070461Y0079615D01*
X0068639Y0079615D01*
X0067500Y0080754D01*
X0066861Y0080115D01*
X0065039Y0080115D01*
X0063750Y0081404D01*
X0063750Y0083226D01*
X0064150Y0083626D01*
X0064150Y0088738D01*
X0053035Y0099215D01*
X0037334Y0099215D01*
X0036985Y0098905D01*
X0036828Y0098748D01*
X0036950Y0098626D01*
X0036950Y0096804D01*
X0035661Y0095515D01*
X0033839Y0095515D01*
X0032550Y0096804D01*
X0032550Y0098626D01*
X0032889Y0098965D01*
X0032550Y0099304D01*
X0032550Y0101126D01*
X0032839Y0101415D01*
X0032550Y0101704D01*
X0032550Y0103526D01*
X0033239Y0104215D01*
X0032550Y0104904D01*
X0032550Y0106726D01*
X0032989Y0107165D01*
X0032550Y0107604D01*
X0032550Y0109426D01*
X0033839Y0110715D01*
X0034650Y0110715D01*
X0034650Y0110726D01*
X0035939Y0112015D01*
X0037761Y0112015D01*
X0039050Y0110726D01*
X0039050Y0108904D01*
X0037761Y0107615D01*
X0036950Y0107615D01*
X0036950Y0107604D01*
X0036511Y0107165D01*
X0036950Y0106726D01*
X0036950Y0104904D01*
X0036461Y0104415D01*
X0053730Y0104415D01*
X0053728Y0104504D01*
X0053750Y0104528D01*
X0053750Y0108269D01*
X0047804Y0114215D01*
X0037704Y0114215D01*
X0036804Y0115115D01*
X0036239Y0115115D01*
X0035850Y0115504D01*
X0035661Y0115315D01*
X0033839Y0115315D01*
X0032550Y0116604D01*
X0032550Y0117275D01*
X0030750Y0115846D01*
X0030750Y0086439D01*
X0030769Y0085718D01*
X0030750Y0085698D01*
X0030750Y0085669D01*
X0030240Y0085159D01*
X0028950Y0083798D01*
X0028950Y0058233D01*
X0029032Y0057611D01*
X0028950Y0057504D01*
X0028950Y0057369D01*
X0028506Y0056926D01*
X0026510Y0054325D01*
X0027200Y0052660D01*
X0027200Y0050670D01*
X0026439Y0048833D01*
X0025032Y0047426D01*
X0023195Y0046665D01*
X0021205Y0046665D01*
X0019368Y0047426D01*
X0018950Y0047844D01*
X0018950Y0045486D01*
X0019368Y0045904D01*
X0021205Y0046665D01*
X0023195Y0046665D01*
X0025032Y0045904D01*
X0026439Y0044497D01*
X0027200Y0042660D01*
X0027200Y0040670D01*
X0026439Y0038833D01*
X0025032Y0037426D01*
X0023195Y0036665D01*
X0021205Y0036665D01*
X0019368Y0037426D01*
X0018950Y0037844D01*
X0018950Y0035486D01*
X0019368Y0035904D01*
X0021205Y0036665D01*
X0023195Y0036665D01*
X0025032Y0035904D01*
X0026439Y0034497D01*
X0027200Y0032660D01*
X0027200Y0030670D01*
X0026439Y0028833D01*
X0025032Y0027426D01*
X0023195Y0026665D01*
X0021205Y0026665D01*
X0019368Y0027426D01*
X0018950Y0027844D01*
X0018950Y0027384D02*
X0019470Y0027384D01*
X0018950Y0026385D02*
X0030200Y0026385D01*
X0030200Y0025387D02*
X0018950Y0025387D01*
X0018950Y0024388D02*
X0030200Y0024388D01*
X0030200Y0023390D02*
X0018950Y0023390D01*
X0018950Y0022391D02*
X0030200Y0022391D01*
X0030200Y0021393D02*
X0018950Y0021393D01*
X0018950Y0020394D02*
X0030200Y0020394D01*
X0030200Y0019396D02*
X0018950Y0019396D01*
X0018950Y0018397D02*
X0030200Y0018397D01*
X0030200Y0017399D02*
X0018950Y0017399D01*
X0018950Y0016400D02*
X0020566Y0016400D01*
X0023834Y0016400D02*
X0030200Y0016400D01*
X0030200Y0015402D02*
X0025534Y0015402D01*
X0026478Y0014403D02*
X0030200Y0014403D01*
X0030200Y0013405D02*
X0026891Y0013405D01*
X0027200Y0012406D02*
X0030200Y0012406D01*
X0030200Y0011408D02*
X0027200Y0011408D01*
X0027092Y0010409D02*
X0030200Y0010409D01*
X0030200Y0009410D02*
X0026678Y0009410D01*
X0032200Y0009410D02*
X0042629Y0009410D01*
X0042629Y0008415D02*
X0032200Y0008415D01*
X0032200Y0025415D01*
X0044782Y0025415D01*
X0044782Y0021604D01*
X0044794Y0021591D01*
X0044794Y0019278D01*
X0045673Y0018399D01*
X0058727Y0018399D01*
X0059605Y0019278D01*
X0059605Y0021591D01*
X0059618Y0021604D01*
X0059618Y0025415D01*
X0072200Y0025415D01*
X0072200Y0014953D01*
X0072191Y0014950D01*
X0071515Y0014274D01*
X0071150Y0013392D01*
X0071150Y0012438D01*
X0071515Y0011555D01*
X0072191Y0010880D01*
X0072200Y0010876D01*
X0072200Y0008415D01*
X0061771Y0008415D01*
X0061771Y0016288D01*
X0060892Y0017167D01*
X0052563Y0017167D01*
X0052200Y0016804D01*
X0051837Y0017167D01*
X0043508Y0017167D01*
X0043250Y0016909D01*
X0043250Y0017092D01*
X0042885Y0017974D01*
X0042209Y0018650D01*
X0041327Y0019015D01*
X0040373Y0019015D01*
X0039491Y0018650D01*
X0038815Y0017974D01*
X0038450Y0017092D01*
X0038450Y0016138D01*
X0038815Y0015255D01*
X0039491Y0014580D01*
X0040373Y0014215D01*
X0041327Y0014215D01*
X0042209Y0014580D01*
X0042629Y0015000D01*
X0042629Y0008415D01*
X0042629Y0010409D02*
X0032200Y0010409D01*
X0032200Y0011408D02*
X0042629Y0011408D01*
X0042629Y0012406D02*
X0032200Y0012406D01*
X0032200Y0013405D02*
X0042629Y0013405D01*
X0042629Y0014403D02*
X0041781Y0014403D01*
X0039919Y0014403D02*
X0032200Y0014403D01*
X0032200Y0015402D02*
X0038755Y0015402D01*
X0038450Y0016400D02*
X0032200Y0016400D01*
X0032200Y0017399D02*
X0038577Y0017399D01*
X0039238Y0018397D02*
X0032200Y0018397D01*
X0032200Y0019396D02*
X0044794Y0019396D01*
X0044794Y0020394D02*
X0032200Y0020394D01*
X0032200Y0021393D02*
X0044794Y0021393D01*
X0044782Y0022391D02*
X0032200Y0022391D01*
X0032200Y0023390D02*
X0044782Y0023390D01*
X0044782Y0024388D02*
X0032200Y0024388D01*
X0032200Y0025387D02*
X0044782Y0025387D01*
X0050181Y0028382D02*
X0025988Y0028382D01*
X0026666Y0029381D02*
X0050181Y0029381D01*
X0050181Y0030379D02*
X0027079Y0030379D01*
X0027200Y0031378D02*
X0050866Y0031378D01*
X0050181Y0032376D02*
X0027200Y0032376D01*
X0026904Y0033375D02*
X0031086Y0033375D01*
X0031246Y0033215D02*
X0032654Y0033215D01*
X0033650Y0034211D01*
X0033650Y0035865D01*
X0034988Y0035865D01*
X0035750Y0036626D01*
X0035750Y0040203D01*
X0034988Y0040965D01*
X0034911Y0040965D01*
X0035150Y0041204D01*
X0035150Y0043026D01*
X0033861Y0044315D01*
X0032039Y0044315D01*
X0030750Y0043026D01*
X0030750Y0041204D01*
X0030989Y0040965D01*
X0028912Y0040965D01*
X0028150Y0040203D01*
X0028150Y0036626D01*
X0028912Y0035865D01*
X0030250Y0035865D01*
X0030250Y0034211D01*
X0031246Y0033215D01*
X0030250Y0034373D02*
X0026490Y0034373D01*
X0025564Y0035372D02*
X0030250Y0035372D01*
X0028406Y0036370D02*
X0023906Y0036370D01*
X0024894Y0037369D02*
X0028150Y0037369D01*
X0028150Y0038367D02*
X0025973Y0038367D01*
X0026660Y0039366D02*
X0028150Y0039366D01*
X0028311Y0040364D02*
X0027073Y0040364D01*
X0027200Y0041363D02*
X0030750Y0041363D01*
X0030750Y0042361D02*
X0027200Y0042361D01*
X0026910Y0043360D02*
X0031084Y0043360D01*
X0032950Y0042115D02*
X0032950Y0039415D01*
X0031950Y0038415D01*
X0033650Y0035372D02*
X0050409Y0035372D01*
X0050181Y0034373D02*
X0033650Y0034373D01*
X0032814Y0033375D02*
X0050181Y0033375D01*
X0052269Y0033383D02*
X0052269Y0035540D01*
X0051481Y0037628D01*
X0051481Y0065915D01*
X0044381Y0076315D01*
X0036150Y0076315D01*
X0034850Y0077615D01*
X0034850Y0080015D01*
X0032650Y0080305D02*
X0028950Y0080305D01*
X0028950Y0081303D02*
X0033027Y0081303D01*
X0032650Y0079306D02*
X0028950Y0079306D01*
X0028950Y0078308D02*
X0033050Y0078308D01*
X0033050Y0077309D02*
X0028950Y0077309D01*
X0028950Y0076311D02*
X0033609Y0076311D01*
X0034607Y0075312D02*
X0028950Y0075312D01*
X0028950Y0074314D02*
X0043568Y0074314D01*
X0044250Y0073315D02*
X0028950Y0073315D01*
X0028950Y0072317D02*
X0044932Y0072317D01*
X0045613Y0071318D02*
X0028950Y0071318D01*
X0028950Y0070320D02*
X0046295Y0070320D01*
X0046977Y0069321D02*
X0028950Y0069321D01*
X0028950Y0068323D02*
X0047658Y0068323D01*
X0048340Y0067324D02*
X0028950Y0067324D01*
X0028950Y0066326D02*
X0049022Y0066326D01*
X0049681Y0065327D02*
X0043449Y0065327D01*
X0043061Y0065715D02*
X0041239Y0065715D01*
X0039950Y0064426D01*
X0039950Y0062604D01*
X0041239Y0061315D01*
X0043061Y0061315D01*
X0044350Y0062604D01*
X0044350Y0064426D01*
X0043061Y0065715D01*
X0044350Y0064329D02*
X0047752Y0064329D01*
X0047250Y0063330D02*
X0044350Y0063330D01*
X0044078Y0062332D02*
X0047250Y0062332D01*
X0047921Y0061333D02*
X0043079Y0061333D01*
X0041221Y0061333D02*
X0028950Y0061333D01*
X0028950Y0060335D02*
X0033564Y0060335D01*
X0033699Y0060470D02*
X0032532Y0059303D01*
X0031900Y0057777D01*
X0031900Y0056126D01*
X0032532Y0054601D01*
X0033699Y0053434D01*
X0035225Y0052802D01*
X0036875Y0052802D01*
X0038401Y0053434D01*
X0039568Y0054601D01*
X0040200Y0056126D01*
X0040200Y0057777D01*
X0039568Y0059303D01*
X0038401Y0060470D01*
X0036875Y0061102D01*
X0035225Y0061102D01*
X0033699Y0060470D01*
X0032565Y0059336D02*
X0028950Y0059336D01*
X0028950Y0058338D02*
X0032132Y0058338D01*
X0031900Y0057339D02*
X0028920Y0057339D01*
X0028057Y0056341D02*
X0031900Y0056341D01*
X0032225Y0055342D02*
X0027291Y0055342D01*
X0026525Y0054344D02*
X0032789Y0054344D01*
X0033914Y0053345D02*
X0026916Y0053345D01*
X0027200Y0052346D02*
X0049681Y0052346D01*
X0049681Y0051348D02*
X0027200Y0051348D01*
X0027067Y0050349D02*
X0049681Y0050349D01*
X0049681Y0049351D02*
X0026653Y0049351D01*
X0025959Y0048352D02*
X0049681Y0048352D01*
X0049681Y0047354D02*
X0024858Y0047354D01*
X0023942Y0046355D02*
X0049681Y0046355D01*
X0049681Y0045357D02*
X0025579Y0045357D01*
X0026496Y0044358D02*
X0049681Y0044358D01*
X0049681Y0043360D02*
X0034816Y0043360D01*
X0035150Y0042361D02*
X0049681Y0042361D01*
X0049681Y0041363D02*
X0035150Y0041363D01*
X0035589Y0040364D02*
X0049624Y0040364D01*
X0049394Y0039366D02*
X0035750Y0039366D01*
X0035750Y0038367D02*
X0049394Y0038367D01*
X0049394Y0037369D02*
X0035750Y0037369D01*
X0035494Y0036370D02*
X0049719Y0036370D01*
X0053450Y0040253D02*
X0053281Y0040422D01*
X0053281Y0065747D01*
X0053388Y0066314D01*
X0053281Y0066471D01*
X0053281Y0066661D01*
X0052873Y0067069D01*
X0046181Y0076871D01*
X0046181Y0077061D01*
X0045773Y0077469D01*
X0045448Y0077946D01*
X0045261Y0077981D01*
X0045127Y0078115D01*
X0044550Y0078115D01*
X0043982Y0078222D01*
X0043826Y0078115D01*
X0039261Y0078115D01*
X0039561Y0078415D01*
X0045408Y0078415D01*
X0053619Y0066583D01*
X0053619Y0040422D01*
X0053450Y0040253D01*
X0053339Y0040364D02*
X0053561Y0040364D01*
X0053619Y0041363D02*
X0053281Y0041363D01*
X0053450Y0041415D02*
X0053450Y0038415D01*
X0055419Y0037628D02*
X0055419Y0067146D01*
X0046350Y0080215D01*
X0038350Y0080215D01*
X0038050Y0080015D01*
X0039454Y0078308D02*
X0045483Y0078308D01*
X0045933Y0077309D02*
X0046175Y0077309D01*
X0046564Y0076311D02*
X0046868Y0076311D01*
X0047245Y0075312D02*
X0047561Y0075312D01*
X0047927Y0074314D02*
X0048254Y0074314D01*
X0048609Y0073315D02*
X0048947Y0073315D01*
X0049291Y0072317D02*
X0049640Y0072317D01*
X0049972Y0071318D02*
X0050333Y0071318D01*
X0050654Y0070320D02*
X0051026Y0070320D01*
X0051336Y0069321D02*
X0051718Y0069321D01*
X0052017Y0068323D02*
X0052411Y0068323D01*
X0052699Y0067324D02*
X0053104Y0067324D01*
X0053381Y0066326D02*
X0053619Y0066326D01*
X0053619Y0065327D02*
X0053281Y0065327D01*
X0053281Y0064329D02*
X0053619Y0064329D01*
X0053619Y0063330D02*
X0053281Y0063330D01*
X0053281Y0062332D02*
X0053619Y0062332D01*
X0053619Y0061333D02*
X0053281Y0061333D01*
X0053281Y0060335D02*
X0053619Y0060335D01*
X0053619Y0059336D02*
X0053281Y0059336D01*
X0053281Y0058338D02*
X0053619Y0058338D01*
X0053619Y0057339D02*
X0053281Y0057339D01*
X0053281Y0056341D02*
X0053619Y0056341D01*
X0053619Y0055342D02*
X0053281Y0055342D01*
X0053281Y0054344D02*
X0053619Y0054344D01*
X0053619Y0053345D02*
X0053281Y0053345D01*
X0053281Y0052346D02*
X0053619Y0052346D01*
X0053619Y0051348D02*
X0053281Y0051348D01*
X0053281Y0050349D02*
X0053619Y0050349D01*
X0053619Y0049351D02*
X0053281Y0049351D01*
X0053281Y0048352D02*
X0053619Y0048352D01*
X0053619Y0047354D02*
X0053281Y0047354D01*
X0053281Y0046355D02*
X0053619Y0046355D01*
X0053619Y0045357D02*
X0053281Y0045357D01*
X0053281Y0044358D02*
X0053619Y0044358D01*
X0053619Y0043360D02*
X0053281Y0043360D01*
X0053281Y0042361D02*
X0053619Y0042361D01*
X0057218Y0042361D02*
X0073750Y0042361D01*
X0073750Y0041363D02*
X0057218Y0041363D01*
X0057276Y0040364D02*
X0073750Y0040364D01*
X0073750Y0039366D02*
X0057506Y0039366D01*
X0057506Y0038367D02*
X0073750Y0038367D01*
X0073750Y0037369D02*
X0057506Y0037369D01*
X0057181Y0036370D02*
X0073750Y0036370D01*
X0073750Y0035372D02*
X0056491Y0035372D01*
X0056718Y0034373D02*
X0073750Y0034373D01*
X0073750Y0033375D02*
X0056718Y0033375D01*
X0056718Y0032376D02*
X0073750Y0032376D01*
X0074423Y0031378D02*
X0056034Y0031378D01*
X0056718Y0030379D02*
X0057303Y0030379D01*
X0054759Y0029319D02*
X0054631Y0029446D01*
X0054759Y0029319D02*
X0054759Y0022557D01*
X0052200Y0022557D02*
X0052200Y0029378D01*
X0052269Y0029446D01*
X0054631Y0033383D02*
X0054631Y0035540D01*
X0055419Y0037628D01*
X0057218Y0043360D02*
X0073750Y0043360D01*
X0073750Y0044358D02*
X0057218Y0044358D01*
X0057218Y0045357D02*
X0073750Y0045357D01*
X0073750Y0046355D02*
X0057218Y0046355D01*
X0057218Y0047354D02*
X0073750Y0047354D01*
X0073750Y0048352D02*
X0057218Y0048352D01*
X0057218Y0049351D02*
X0073750Y0049351D01*
X0073750Y0050349D02*
X0057218Y0050349D01*
X0057218Y0051348D02*
X0073750Y0051348D01*
X0073750Y0052346D02*
X0057218Y0052346D01*
X0057218Y0053345D02*
X0073750Y0053345D01*
X0073750Y0054344D02*
X0057218Y0054344D01*
X0057218Y0055342D02*
X0073750Y0055342D01*
X0073750Y0056341D02*
X0057218Y0056341D01*
X0057218Y0057339D02*
X0073750Y0057339D01*
X0073750Y0058338D02*
X0057218Y0058338D01*
X0057218Y0059336D02*
X0073750Y0059336D01*
X0073750Y0060335D02*
X0057218Y0060335D01*
X0057218Y0061333D02*
X0073750Y0061333D01*
X0073750Y0062332D02*
X0057218Y0062332D01*
X0057218Y0063330D02*
X0073750Y0063330D01*
X0073750Y0064329D02*
X0057218Y0064329D01*
X0057218Y0065327D02*
X0073750Y0065327D01*
X0073750Y0066326D02*
X0057218Y0066326D01*
X0057280Y0067324D02*
X0073750Y0067324D01*
X0073750Y0068323D02*
X0056793Y0068323D01*
X0056100Y0069321D02*
X0072533Y0069321D01*
X0071534Y0070320D02*
X0055407Y0070320D01*
X0054715Y0071318D02*
X0071250Y0071318D01*
X0071250Y0072317D02*
X0054022Y0072317D01*
X0053329Y0073315D02*
X0072139Y0073315D01*
X0072250Y0074314D02*
X0052636Y0074314D01*
X0051943Y0075312D02*
X0072250Y0075312D01*
X0072250Y0076311D02*
X0051250Y0076311D01*
X0050557Y0077309D02*
X0072250Y0077309D01*
X0072250Y0078308D02*
X0049864Y0078308D01*
X0049171Y0079306D02*
X0072250Y0079306D01*
X0072250Y0080305D02*
X0071151Y0080305D01*
X0071750Y0081303D02*
X0072250Y0081303D01*
X0072250Y0082302D02*
X0071750Y0082302D01*
X0072250Y0083300D02*
X0071176Y0083300D01*
X0071345Y0084299D02*
X0072250Y0084299D01*
X0072250Y0085297D02*
X0071850Y0085297D01*
X0071850Y0086296D02*
X0072250Y0086296D01*
X0072250Y0087294D02*
X0071641Y0087294D01*
X0071850Y0088293D02*
X0072250Y0088293D01*
X0072250Y0089291D02*
X0071850Y0089291D01*
X0071536Y0090290D02*
X0072250Y0090290D01*
X0072250Y0091288D02*
X0071850Y0091288D01*
X0071850Y0092287D02*
X0072250Y0092287D01*
X0072250Y0093285D02*
X0070991Y0093285D01*
X0072950Y0096015D02*
X0063850Y0096015D01*
X0055550Y0103815D01*
X0055550Y0109015D01*
X0048550Y0116015D01*
X0038450Y0116015D01*
X0037150Y0117315D01*
X0036101Y0115253D02*
X0030750Y0115253D01*
X0030750Y0114254D02*
X0037665Y0114254D01*
X0038518Y0111259D02*
X0050761Y0111259D01*
X0049762Y0112257D02*
X0030750Y0112257D01*
X0030750Y0111259D02*
X0035182Y0111259D01*
X0033384Y0110260D02*
X0030750Y0110260D01*
X0030750Y0109262D02*
X0032550Y0109262D01*
X0032550Y0108263D02*
X0030750Y0108263D01*
X0030750Y0107265D02*
X0032889Y0107265D01*
X0032550Y0106266D02*
X0030750Y0106266D01*
X0030750Y0105268D02*
X0032550Y0105268D01*
X0033185Y0104269D02*
X0030750Y0104269D01*
X0030750Y0103271D02*
X0032550Y0103271D01*
X0032550Y0102272D02*
X0030750Y0102272D01*
X0030750Y0101274D02*
X0032697Y0101274D01*
X0032550Y0100275D02*
X0030750Y0100275D01*
X0030750Y0099277D02*
X0032577Y0099277D01*
X0032550Y0098278D02*
X0030750Y0098278D01*
X0030750Y0097279D02*
X0032550Y0097279D01*
X0033073Y0096281D02*
X0030750Y0096281D01*
X0030750Y0095282D02*
X0057207Y0095282D01*
X0058267Y0094284D02*
X0030750Y0094284D01*
X0030750Y0093285D02*
X0059326Y0093285D01*
X0060385Y0092287D02*
X0030750Y0092287D01*
X0030750Y0091288D02*
X0061444Y0091288D01*
X0062504Y0090290D02*
X0030750Y0090290D01*
X0030750Y0089291D02*
X0063563Y0089291D01*
X0064150Y0088293D02*
X0030750Y0088293D01*
X0030750Y0087294D02*
X0064150Y0087294D01*
X0064150Y0086296D02*
X0030754Y0086296D01*
X0030378Y0085297D02*
X0064150Y0085297D01*
X0064150Y0084299D02*
X0029425Y0084299D01*
X0028950Y0083300D02*
X0063824Y0083300D01*
X0063750Y0082302D02*
X0028950Y0082302D01*
X0027150Y0084515D02*
X0028950Y0086415D01*
X0028950Y0116715D01*
X0032350Y0119415D01*
X0036850Y0119415D01*
X0037850Y0120315D01*
X0042750Y0120315D01*
X0044650Y0119215D01*
X0044650Y0118415D01*
X0045750Y0120415D02*
X0048450Y0120415D01*
X0049850Y0119315D01*
X0049850Y0117015D01*
X0057050Y0109915D01*
X0066250Y0109915D01*
X0067650Y0108515D01*
X0068950Y0108515D01*
X0069650Y0107815D01*
X0071212Y0106266D02*
X0080243Y0106266D01*
X0079368Y0105904D02*
X0081205Y0106665D01*
X0083195Y0106665D01*
X0085032Y0105904D01*
X0085450Y0105486D01*
X0085450Y0107844D01*
X0085032Y0107426D01*
X0083195Y0106665D01*
X0081205Y0106665D01*
X0079368Y0107426D01*
X0077961Y0108833D01*
X0077200Y0110670D01*
X0077200Y0112660D01*
X0077961Y0114497D01*
X0079368Y0115904D01*
X0081205Y0116665D01*
X0083195Y0116665D01*
X0085032Y0115904D01*
X0085450Y0115486D01*
X0085450Y0117844D01*
X0085032Y0117426D01*
X0083195Y0116665D01*
X0081205Y0116665D01*
X0079368Y0117426D01*
X0077961Y0118833D01*
X0077200Y0120670D01*
X0077200Y0122660D01*
X0077961Y0124497D01*
X0079368Y0125904D01*
X0081205Y0126665D01*
X0083195Y0126665D01*
X0085032Y0125904D01*
X0085450Y0125486D01*
X0085450Y0141415D01*
X0019050Y0141415D01*
X0019050Y0140687D01*
X0018950Y0140587D01*
X0018950Y0125486D01*
X0019368Y0125904D01*
X0021205Y0126665D01*
X0023195Y0126665D01*
X0025032Y0125904D01*
X0026439Y0124497D01*
X0027200Y0122660D01*
X0027200Y0120670D01*
X0026592Y0119202D01*
X0026604Y0119215D01*
X0026710Y0119215D01*
X0030442Y0122253D01*
X0030904Y0122715D01*
X0031010Y0122715D01*
X0031092Y0122782D01*
X0031742Y0122715D01*
X0035459Y0122715D01*
X0035911Y0123121D01*
X0036404Y0123615D01*
X0036459Y0123615D01*
X0036500Y0123652D01*
X0037197Y0123615D01*
X0043001Y0123615D01*
X0043479Y0123750D01*
X0043720Y0123615D01*
X0043996Y0123615D01*
X0044347Y0123264D01*
X0046220Y0122215D01*
X0048342Y0122215D01*
X0048976Y0122291D01*
X0049073Y0122215D01*
X0049196Y0122215D01*
X0049647Y0121764D01*
X0050473Y0121115D01*
X0050596Y0121115D01*
X0051047Y0120664D01*
X0051548Y0120270D01*
X0051563Y0120148D01*
X0051650Y0120061D01*
X0051650Y0119423D01*
X0051726Y0118789D01*
X0051650Y0118692D01*
X0051650Y0117768D01*
X0057788Y0111715D01*
X0066996Y0111715D01*
X0067467Y0111243D01*
X0068089Y0111865D01*
X0067450Y0112504D01*
X0067450Y0114326D01*
X0068139Y0115015D01*
X0067450Y0115704D01*
X0067450Y0117526D01*
X0068739Y0118815D01*
X0070561Y0118815D01*
X0071850Y0117526D01*
X0071850Y0115704D01*
X0071161Y0115015D01*
X0071850Y0114326D01*
X0071850Y0112504D01*
X0071211Y0111865D01*
X0071850Y0111226D01*
X0071850Y0109404D01*
X0071511Y0109065D01*
X0071850Y0108726D01*
X0071850Y0106904D01*
X0070561Y0105615D01*
X0068739Y0105615D01*
X0067639Y0106715D01*
X0066904Y0106715D01*
X0065850Y0107769D01*
X0065504Y0108115D01*
X0057350Y0108115D01*
X0057350Y0104593D01*
X0064563Y0097815D01*
X0067450Y0097815D01*
X0067450Y0098826D01*
X0067939Y0099315D01*
X0067450Y0099804D01*
X0067450Y0101626D01*
X0067739Y0101915D01*
X0067450Y0102204D01*
X0067450Y0104026D01*
X0068739Y0105315D01*
X0070561Y0105315D01*
X0071850Y0104026D01*
X0071850Y0102515D01*
X0073696Y0102515D01*
X0077796Y0098415D01*
X0078850Y0097361D01*
X0078850Y0095386D01*
X0079368Y0095904D01*
X0081205Y0096665D01*
X0083195Y0096665D01*
X0085032Y0095904D01*
X0085450Y0095486D01*
X0085450Y0097844D01*
X0085032Y0097426D01*
X0083195Y0096665D01*
X0081205Y0096665D01*
X0079368Y0097426D01*
X0077961Y0098833D01*
X0077200Y0100670D01*
X0077200Y0102660D01*
X0077961Y0104497D01*
X0079368Y0105904D01*
X0078732Y0105268D02*
X0070609Y0105268D01*
X0071607Y0104269D02*
X0077867Y0104269D01*
X0077453Y0103271D02*
X0071850Y0103271D01*
X0072950Y0100715D02*
X0069650Y0100715D01*
X0067450Y0100275D02*
X0061945Y0100275D01*
X0060883Y0101274D02*
X0067450Y0101274D01*
X0067450Y0102272D02*
X0059820Y0102272D01*
X0058758Y0103271D02*
X0067450Y0103271D01*
X0067693Y0104269D02*
X0057695Y0104269D01*
X0057350Y0105268D02*
X0068691Y0105268D01*
X0068088Y0106266D02*
X0057350Y0106266D01*
X0057350Y0107265D02*
X0066355Y0107265D01*
X0067452Y0111259D02*
X0067482Y0111259D01*
X0067697Y0112257D02*
X0057238Y0112257D01*
X0056226Y0113256D02*
X0067450Y0113256D01*
X0067450Y0114254D02*
X0055213Y0114254D01*
X0054201Y0115253D02*
X0067901Y0115253D01*
X0067450Y0116251D02*
X0053188Y0116251D01*
X0052175Y0117250D02*
X0067450Y0117250D01*
X0068172Y0118248D02*
X0051650Y0118248D01*
X0051671Y0119247D02*
X0077790Y0119247D01*
X0077376Y0120245D02*
X0051551Y0120245D01*
X0050309Y0121244D02*
X0077200Y0121244D01*
X0077200Y0122242D02*
X0049038Y0122242D01*
X0048570Y0122242D02*
X0046171Y0122242D01*
X0045750Y0120415D02*
X0043250Y0121815D01*
X0037150Y0121815D01*
X0036150Y0120915D01*
X0031650Y0120915D01*
X0027350Y0117415D01*
X0027350Y0087115D01*
X0022200Y0081765D01*
X0022200Y0081665D01*
X0027150Y0084515D02*
X0027150Y0058115D01*
X0022200Y0051665D01*
X0019542Y0047354D02*
X0018950Y0047354D01*
X0018950Y0046355D02*
X0020458Y0046355D01*
X0019506Y0037369D02*
X0018950Y0037369D01*
X0018950Y0036370D02*
X0020494Y0036370D01*
X0024930Y0027384D02*
X0030200Y0027384D01*
X0042462Y0018397D02*
X0072200Y0018397D01*
X0072200Y0017399D02*
X0043123Y0017399D01*
X0059605Y0019396D02*
X0072200Y0019396D01*
X0072200Y0020394D02*
X0059605Y0020394D01*
X0059605Y0021393D02*
X0072200Y0021393D01*
X0072200Y0022391D02*
X0059618Y0022391D01*
X0059618Y0023390D02*
X0072200Y0023390D01*
X0072200Y0024388D02*
X0059618Y0024388D01*
X0059618Y0025387D02*
X0072200Y0025387D01*
X0074200Y0025387D02*
X0077933Y0025387D01*
X0077916Y0024388D02*
X0074200Y0024388D01*
X0074200Y0023390D02*
X0077502Y0023390D01*
X0077200Y0022391D02*
X0074200Y0022391D01*
X0074200Y0021393D02*
X0077200Y0021393D01*
X0077314Y0020394D02*
X0074200Y0020394D01*
X0074200Y0019396D02*
X0077728Y0019396D01*
X0078397Y0018397D02*
X0074200Y0018397D01*
X0074200Y0017399D02*
X0079434Y0017399D01*
X0082200Y0021665D02*
X0075550Y0033015D01*
X0075550Y0095915D01*
X0073550Y0097915D01*
X0069650Y0097915D01*
X0067900Y0099277D02*
X0063008Y0099277D01*
X0064070Y0098278D02*
X0067450Y0098278D01*
X0066925Y0093285D02*
X0068309Y0093285D01*
X0067550Y0090215D02*
X0067550Y0083915D01*
X0069550Y0081815D01*
X0067949Y0080305D02*
X0067051Y0080305D01*
X0065950Y0082315D02*
X0065950Y0089515D01*
X0053750Y0101015D01*
X0036650Y0101015D01*
X0035750Y0100215D01*
X0034750Y0100215D01*
X0036950Y0098278D02*
X0054029Y0098278D01*
X0055089Y0097279D02*
X0036950Y0097279D01*
X0036427Y0096281D02*
X0056148Y0096281D01*
X0054450Y0102615D02*
X0067550Y0090215D01*
X0072950Y0096015D02*
X0074050Y0094915D01*
X0074050Y0072715D01*
X0073450Y0071515D01*
X0064849Y0080305D02*
X0048479Y0080305D01*
X0047807Y0081303D02*
X0063850Y0081303D01*
X0077050Y0096615D02*
X0077050Y0040215D01*
X0082200Y0031665D01*
X0076178Y0028382D02*
X0074250Y0028382D01*
X0074250Y0029381D02*
X0075593Y0029381D01*
X0075008Y0030379D02*
X0073397Y0030379D01*
X0070703Y0030379D02*
X0059197Y0030379D01*
X0060195Y0029381D02*
X0069850Y0029381D01*
X0069850Y0028382D02*
X0060450Y0028382D01*
X0061659Y0016400D02*
X0072200Y0016400D01*
X0072200Y0015402D02*
X0061771Y0015402D01*
X0061771Y0014403D02*
X0071644Y0014403D01*
X0071155Y0013405D02*
X0061771Y0013405D01*
X0061771Y0012406D02*
X0071163Y0012406D01*
X0071663Y0011408D02*
X0061771Y0011408D01*
X0061771Y0010409D02*
X0072200Y0010409D01*
X0072200Y0009410D02*
X0061771Y0009410D01*
X0074200Y0009410D02*
X0085450Y0009410D01*
X0085450Y0010409D02*
X0074200Y0010409D01*
X0075154Y0011408D02*
X0085450Y0011408D01*
X0085450Y0012406D02*
X0075750Y0012406D01*
X0075750Y0013405D02*
X0085450Y0013405D01*
X0085450Y0014403D02*
X0075173Y0014403D01*
X0074200Y0015402D02*
X0085450Y0015402D01*
X0085450Y0016400D02*
X0074200Y0016400D01*
X0074200Y0026385D02*
X0077348Y0026385D01*
X0076763Y0027384D02*
X0074200Y0027384D01*
X0084966Y0017399D02*
X0085450Y0017399D01*
X0049681Y0053345D02*
X0038186Y0053345D01*
X0039311Y0054344D02*
X0049681Y0054344D01*
X0049681Y0055342D02*
X0039875Y0055342D01*
X0040200Y0056341D02*
X0049681Y0056341D01*
X0049681Y0057339D02*
X0040200Y0057339D01*
X0039968Y0058338D02*
X0049681Y0058338D01*
X0049681Y0059336D02*
X0039535Y0059336D01*
X0038536Y0060335D02*
X0049681Y0060335D01*
X0040222Y0062332D02*
X0028950Y0062332D01*
X0028950Y0063330D02*
X0039950Y0063330D01*
X0039950Y0064329D02*
X0028950Y0064329D01*
X0028950Y0065327D02*
X0040851Y0065327D01*
X0034750Y0102615D02*
X0054450Y0102615D01*
X0053750Y0105268D02*
X0036950Y0105268D01*
X0036950Y0106266D02*
X0053750Y0106266D01*
X0053750Y0107265D02*
X0036611Y0107265D01*
X0038409Y0108263D02*
X0053750Y0108263D01*
X0052758Y0109262D02*
X0039050Y0109262D01*
X0039050Y0110260D02*
X0051759Y0110260D01*
X0048764Y0113256D02*
X0030750Y0113256D01*
X0031260Y0116251D02*
X0032902Y0116251D01*
X0032550Y0117250D02*
X0032518Y0117250D01*
X0029203Y0121244D02*
X0027200Y0121244D01*
X0027200Y0122242D02*
X0030429Y0122242D01*
X0027976Y0120245D02*
X0027024Y0120245D01*
X0026749Y0119247D02*
X0026610Y0119247D01*
X0026959Y0123241D02*
X0036030Y0123241D01*
X0036861Y0124915D02*
X0035039Y0124915D01*
X0033750Y0126204D01*
X0033750Y0128026D01*
X0034889Y0129165D01*
X0033750Y0130304D01*
X0033750Y0132126D01*
X0035039Y0133415D01*
X0036861Y0133415D01*
X0037261Y0133015D01*
X0037862Y0133015D01*
X0038612Y0133765D01*
X0044688Y0133765D01*
X0045450Y0133003D01*
X0045450Y0129426D01*
X0045238Y0129215D01*
X0045450Y0129003D01*
X0045450Y0125426D01*
X0044688Y0124665D01*
X0038612Y0124665D01*
X0037962Y0125315D01*
X0037261Y0125315D01*
X0036861Y0124915D01*
X0037184Y0125238D02*
X0038039Y0125238D01*
X0039850Y0127115D02*
X0035950Y0127115D01*
X0033750Y0127235D02*
X0018950Y0127235D01*
X0018950Y0128233D02*
X0033957Y0128233D01*
X0034822Y0129232D02*
X0018950Y0129232D01*
X0018950Y0130230D02*
X0033823Y0130230D01*
X0033750Y0131229D02*
X0018950Y0131229D01*
X0018950Y0132227D02*
X0033851Y0132227D01*
X0034850Y0133226D02*
X0018950Y0133226D01*
X0018950Y0134224D02*
X0085450Y0134224D01*
X0085450Y0133226D02*
X0045228Y0133226D01*
X0045450Y0132227D02*
X0085450Y0132227D01*
X0085450Y0131229D02*
X0045450Y0131229D01*
X0045450Y0130230D02*
X0085450Y0130230D01*
X0085450Y0129232D02*
X0045255Y0129232D01*
X0045450Y0128233D02*
X0085450Y0128233D01*
X0085450Y0127235D02*
X0045450Y0127235D01*
X0045450Y0126236D02*
X0080171Y0126236D01*
X0078702Y0125238D02*
X0045261Y0125238D01*
X0044388Y0123241D02*
X0077441Y0123241D01*
X0077854Y0124239D02*
X0026546Y0124239D01*
X0025698Y0125238D02*
X0034716Y0125238D01*
X0033750Y0126236D02*
X0024229Y0126236D01*
X0020171Y0126236D02*
X0018950Y0126236D01*
X0018950Y0135223D02*
X0085450Y0135223D01*
X0085450Y0136221D02*
X0018950Y0136221D01*
X0018950Y0137220D02*
X0085450Y0137220D01*
X0085450Y0138218D02*
X0018950Y0138218D01*
X0018950Y0139217D02*
X0085450Y0139217D01*
X0085450Y0140215D02*
X0018950Y0140215D01*
X0019050Y0141214D02*
X0085450Y0141214D01*
X0085450Y0126236D02*
X0084229Y0126236D01*
X0084606Y0117250D02*
X0085450Y0117250D01*
X0085450Y0116251D02*
X0084193Y0116251D01*
X0080207Y0116251D02*
X0071850Y0116251D01*
X0071850Y0117250D02*
X0079794Y0117250D01*
X0078546Y0118248D02*
X0071128Y0118248D01*
X0071399Y0115253D02*
X0078717Y0115253D01*
X0077861Y0114254D02*
X0071850Y0114254D01*
X0071850Y0113256D02*
X0077447Y0113256D01*
X0077200Y0112257D02*
X0071603Y0112257D01*
X0071818Y0111259D02*
X0077200Y0111259D01*
X0077370Y0110260D02*
X0071850Y0110260D01*
X0071708Y0109262D02*
X0077784Y0109262D01*
X0078531Y0108263D02*
X0071850Y0108263D01*
X0071850Y0107265D02*
X0079758Y0107265D01*
X0077200Y0102272D02*
X0073938Y0102272D01*
X0074937Y0101274D02*
X0077200Y0101274D01*
X0077364Y0100275D02*
X0075936Y0100275D01*
X0076934Y0099277D02*
X0077777Y0099277D01*
X0077933Y0098278D02*
X0078516Y0098278D01*
X0078850Y0097279D02*
X0079722Y0097279D01*
X0080278Y0096281D02*
X0078850Y0096281D01*
X0077050Y0096615D02*
X0072950Y0100715D01*
X0078850Y0087944D02*
X0079368Y0087426D01*
X0081205Y0086665D01*
X0079368Y0085904D01*
X0078850Y0085386D01*
X0078850Y0087944D01*
X0078850Y0087294D02*
X0079686Y0087294D01*
X0080314Y0086296D02*
X0078850Y0086296D01*
X0081205Y0086665D02*
X0083195Y0086665D01*
X0085032Y0085904D01*
X0085450Y0085486D01*
X0085450Y0087844D01*
X0085032Y0087426D01*
X0083195Y0086665D01*
X0081205Y0086665D01*
X0084086Y0086296D02*
X0085450Y0086296D01*
X0085450Y0087294D02*
X0084714Y0087294D01*
X0084122Y0096281D02*
X0085450Y0096281D01*
X0085450Y0097279D02*
X0084678Y0097279D01*
X0084157Y0106266D02*
X0085450Y0106266D01*
X0085450Y0107265D02*
X0084642Y0107265D01*
X0041650Y0131215D02*
X0035950Y0131215D01*
X0037050Y0133226D02*
X0038072Y0133226D01*
D23*
X0039450Y0135915D03*
X0039450Y0140915D03*
X0034450Y0140915D03*
X0029450Y0140915D03*
X0029450Y0135915D03*
X0029450Y0130915D03*
X0029450Y0125915D03*
X0035950Y0127115D03*
X0035950Y0131215D03*
X0034450Y0135915D03*
X0024450Y0135915D03*
X0024450Y0141015D03*
X0019450Y0140915D03*
X0019450Y0135915D03*
X0034750Y0117515D03*
X0037150Y0117315D03*
X0039250Y0118415D03*
X0041750Y0118415D03*
X0044650Y0118415D03*
X0047550Y0118415D03*
X0050250Y0125915D03*
X0054450Y0125915D03*
X0054450Y0130915D03*
X0054450Y0135915D03*
X0054450Y0140915D03*
X0049450Y0140915D03*
X0049450Y0135915D03*
X0050250Y0130915D03*
X0044450Y0135915D03*
X0044450Y0140915D03*
X0059450Y0140915D03*
X0059450Y0135915D03*
X0059450Y0130915D03*
X0062850Y0130915D03*
X0062850Y0135915D03*
X0069950Y0137315D03*
X0069850Y0133815D03*
X0069750Y0128315D03*
X0069650Y0125915D03*
X0074450Y0125915D03*
X0074450Y0128915D03*
X0074450Y0137815D03*
X0074450Y0140915D03*
X0069850Y0140915D03*
X0059450Y0125915D03*
X0066325Y0112315D03*
X0069650Y0113415D03*
X0069650Y0110315D03*
X0069650Y0107815D03*
X0069650Y0103115D03*
X0069650Y0100715D03*
X0069650Y0097915D03*
X0069650Y0091515D03*
X0069650Y0088415D03*
X0069650Y0085715D03*
X0069550Y0081815D03*
X0065950Y0082315D03*
X0072050Y0075915D03*
X0073450Y0071515D03*
X0079650Y0086715D03*
X0069650Y0116615D03*
X0038050Y0080015D03*
X0034850Y0080015D03*
X0034750Y0097715D03*
X0034750Y0100215D03*
X0034750Y0102615D03*
X0034750Y0105815D03*
X0034750Y0108515D03*
X0036850Y0109815D03*
X0042150Y0063515D03*
X0049450Y0062915D03*
X0053450Y0041415D03*
X0058250Y0028215D03*
X0072050Y0028615D03*
X0073550Y0012915D03*
X0040850Y0016615D03*
X0032950Y0042115D03*
D24*
X0036050Y0049078D02*
X0041187Y0049078D01*
X0043450Y0046615D01*
X0047082Y0042683D01*
X0047082Y0022557D01*
X0057318Y0022557D02*
X0057318Y0027283D01*
X0058250Y0028215D01*
M02*
