G04 EAGLE Gerber RS-274X export*
G75*
%MOMM*%
%FSLAX34Y34*%
%LPD*%
%INCopper Layer 15*%
%IPPOS*%
%AMOC8*
5,1,8,0,0,1.08239X$1,22.5*%
G01*
%ADD10C,1.524000*%
%ADD11C,1.108000*%
%ADD12C,0.454000*%
%ADD13C,0.304800*%
%ADD14C,0.254000*%


D10*
X30000Y148900D03*
X30000Y15000D03*
D11*
X302150Y66600D03*
X322150Y66600D03*
D10*
X238900Y166100D03*
X213500Y166100D03*
X188100Y166100D03*
X162700Y166100D03*
X137300Y166100D03*
X111900Y166100D03*
X86500Y166100D03*
D12*
X11500Y114600D03*
X136900Y118300D03*
X173200Y61200D03*
X81700Y91600D03*
X82000Y113400D03*
X11500Y154600D03*
X11500Y134600D03*
X31500Y134600D03*
X31500Y114600D03*
X32500Y59400D03*
X29500Y30600D03*
X11500Y34600D03*
X11500Y14600D03*
X183500Y12600D03*
X249500Y12600D03*
X141500Y134600D03*
X123500Y151600D03*
X15100Y54000D03*
X38500Y59400D03*
X32700Y48000D03*
X26500Y48000D03*
X20100Y50000D03*
X26500Y59400D03*
X80500Y143600D03*
X189900Y126400D03*
X213900Y126400D03*
X249900Y70400D03*
X188500Y27600D03*
X45900Y87600D03*
X38500Y48000D03*
X11500Y58600D03*
X231700Y151800D03*
X279500Y78600D03*
X294500Y78600D03*
X309500Y78600D03*
X324500Y78600D03*
X324500Y53600D03*
X309500Y53600D03*
X294500Y53600D03*
X279500Y43600D03*
X294500Y93600D03*
X309500Y93600D03*
X322500Y91600D03*
X322500Y40600D03*
X309500Y38600D03*
X294500Y38600D03*
X279500Y93600D03*
X279500Y108600D03*
X279500Y28600D03*
X279500Y123600D03*
X279500Y138600D03*
X279500Y153600D03*
X279500Y13600D03*
X238400Y134500D03*
X147500Y13500D03*
X111900Y9200D03*
X230900Y128900D03*
X147500Y20500D03*
X99600Y13800D03*
X209800Y46825D03*
X92800Y96900D03*
X121300Y123700D03*
X93700Y133900D03*
X81500Y85200D03*
D13*
X92900Y73800D01*
X96200Y73800D01*
X151500Y34500D02*
X151500Y33500D01*
X151500Y34500D02*
X145700Y40300D01*
D12*
X93000Y109500D03*
D13*
X100500Y109500D01*
X103736Y106264D01*
D12*
X145300Y117700D03*
D13*
X111900Y151000D02*
X111900Y166100D01*
D12*
X166500Y102300D03*
D14*
X249700Y102300D02*
X249800Y102400D01*
D13*
X249700Y102300D02*
X166500Y102300D01*
D12*
X249800Y102400D03*
D13*
X113264Y90864D02*
X96200Y73800D01*
X145200Y117700D02*
X145300Y117700D01*
X145200Y117700D02*
X134950Y127950D01*
X111900Y151000D01*
X134950Y127950D02*
X113264Y106264D01*
X103736Y106264D01*
X113264Y106264D02*
X113264Y90864D01*
X145700Y58428D01*
X145700Y40300D01*
D12*
X151500Y33500D03*
X250000Y123725D03*
X239200Y151400D03*
X202100Y54375D03*
X94000Y123800D03*
X99600Y88000D03*
X99700Y117000D03*
X130400Y55400D03*
X82200Y102900D03*
X102800Y39300D03*
D13*
X136598Y39300D02*
X166898Y9000D01*
X136598Y39300D02*
X102800Y39300D01*
D12*
X172000Y9000D03*
D13*
X166898Y9000D01*
D12*
X228700Y52000D03*
X80800Y43000D03*
M02*
