G04 EAGLE Gerber RS-274X export*
G75*
%MOMM*%
%FSLAX34Y34*%
%LPD*%
%INCopper Layer 2*%
%IPPOS*%
%AMOC8*
5,1,8,0,0,1.08239X$1,22.5*%
G01*
%ADD10C,1.524000*%
%ADD11C,1.108000*%
%ADD12C,0.454000*%

G36*
X280003Y2541D02*
X280003Y2541D01*
X280005Y2541D01*
X280166Y2552D01*
X280474Y2592D01*
X280483Y2595D01*
X280492Y2595D01*
X280636Y2635D01*
X280781Y2673D01*
X280789Y2677D01*
X280798Y2680D01*
X280943Y2751D01*
X281476Y3059D01*
X281550Y3115D01*
X281629Y3163D01*
X281676Y3211D01*
X281729Y3252D01*
X281787Y3324D01*
X281851Y3390D01*
X281916Y3487D01*
X281927Y3501D01*
X281930Y3509D01*
X281941Y3524D01*
X282249Y4057D01*
X282252Y4066D01*
X282258Y4073D01*
X282314Y4212D01*
X282372Y4351D01*
X282373Y4360D01*
X282377Y4368D01*
X282408Y4526D01*
X282448Y4834D01*
X282448Y4837D01*
X282449Y4839D01*
X282459Y5000D01*
X282459Y11070D01*
X284666Y17861D01*
X288863Y23637D01*
X294639Y27834D01*
X301430Y30041D01*
X315000Y30041D01*
X315022Y30043D01*
X315100Y30045D01*
X317632Y30244D01*
X317700Y30258D01*
X317769Y30262D01*
X317925Y30302D01*
X322742Y31867D01*
X322850Y31918D01*
X322960Y31962D01*
X323011Y31994D01*
X323030Y32003D01*
X323046Y32016D01*
X323096Y32048D01*
X327194Y35025D01*
X327281Y35106D01*
X327372Y35182D01*
X327411Y35229D01*
X327426Y35243D01*
X327437Y35260D01*
X327475Y35306D01*
X330452Y39404D01*
X330509Y39508D01*
X330573Y39608D01*
X330596Y39665D01*
X330605Y39683D01*
X330611Y39702D01*
X330633Y39758D01*
X332198Y44575D01*
X332211Y44643D01*
X332233Y44708D01*
X332256Y44868D01*
X332455Y47400D01*
X332454Y47422D01*
X332459Y47500D01*
X332459Y82500D01*
X332457Y82522D01*
X332455Y82600D01*
X332256Y85132D01*
X332242Y85200D01*
X332238Y85269D01*
X332198Y85425D01*
X330633Y90242D01*
X330582Y90350D01*
X330538Y90460D01*
X330506Y90511D01*
X330497Y90530D01*
X330484Y90546D01*
X330452Y90596D01*
X327475Y94694D01*
X327454Y94716D01*
X327442Y94735D01*
X327394Y94781D01*
X327318Y94872D01*
X327271Y94911D01*
X327257Y94926D01*
X327240Y94937D01*
X327194Y94975D01*
X323096Y97952D01*
X322992Y98009D01*
X322892Y98073D01*
X322835Y98096D01*
X322817Y98105D01*
X322798Y98111D01*
X322742Y98133D01*
X317925Y99698D01*
X317857Y99711D01*
X317792Y99733D01*
X317632Y99756D01*
X315100Y99955D01*
X315078Y99954D01*
X315000Y99959D01*
X301430Y99959D01*
X294639Y102166D01*
X288863Y106363D01*
X284666Y112139D01*
X282459Y118930D01*
X282459Y160000D01*
X282459Y160003D01*
X282459Y160005D01*
X282448Y160166D01*
X282408Y160474D01*
X282405Y160483D01*
X282405Y160492D01*
X282365Y160636D01*
X282327Y160781D01*
X282323Y160789D01*
X282320Y160798D01*
X282249Y160943D01*
X281941Y161476D01*
X281885Y161549D01*
X281837Y161629D01*
X281789Y161676D01*
X281748Y161729D01*
X281676Y161787D01*
X281610Y161851D01*
X281512Y161916D01*
X281499Y161927D01*
X281491Y161930D01*
X281476Y161941D01*
X280943Y162249D01*
X280934Y162252D01*
X280927Y162258D01*
X280788Y162314D01*
X280650Y162372D01*
X280640Y162373D01*
X280632Y162377D01*
X280474Y162408D01*
X280166Y162448D01*
X280163Y162448D01*
X280161Y162449D01*
X280000Y162459D01*
X251000Y162459D01*
X250882Y162444D01*
X250763Y162437D01*
X250725Y162424D01*
X250684Y162419D01*
X250574Y162376D01*
X250461Y162339D01*
X250426Y162317D01*
X250389Y162302D01*
X250293Y162233D01*
X250192Y162169D01*
X250164Y162139D01*
X250131Y162116D01*
X250056Y162024D01*
X249974Y161937D01*
X249954Y161902D01*
X249929Y161871D01*
X249878Y161763D01*
X249820Y161659D01*
X249810Y161619D01*
X249793Y161583D01*
X249771Y161466D01*
X249741Y161351D01*
X249737Y161291D01*
X249733Y161271D01*
X249735Y161250D01*
X249731Y161190D01*
X249731Y156066D01*
X248934Y155269D01*
X243402Y155269D01*
X243265Y155252D01*
X243126Y155239D01*
X243107Y155232D01*
X243087Y155229D01*
X242958Y155178D01*
X242827Y155131D01*
X242810Y155120D01*
X242791Y155112D01*
X242679Y155031D01*
X242564Y154953D01*
X242550Y154937D01*
X242534Y154926D01*
X242445Y154818D01*
X242353Y154714D01*
X242344Y154696D01*
X242331Y154681D01*
X242272Y154555D01*
X242208Y154431D01*
X242204Y154411D01*
X242195Y154393D01*
X242169Y154257D01*
X242139Y154121D01*
X242139Y154100D01*
X242136Y154081D01*
X242144Y153942D01*
X242148Y153803D01*
X242154Y153783D01*
X242155Y153763D01*
X242198Y153631D01*
X242237Y153497D01*
X242247Y153480D01*
X242253Y153461D01*
X242328Y153343D01*
X242398Y153223D01*
X242417Y153202D01*
X242424Y153192D01*
X242438Y153178D01*
X242505Y153103D01*
X242741Y152867D01*
X242741Y149933D01*
X240667Y147859D01*
X237733Y147859D01*
X235659Y149933D01*
X235659Y152867D01*
X235895Y153103D01*
X235980Y153212D01*
X236069Y153319D01*
X236078Y153338D01*
X236090Y153354D01*
X236146Y153482D01*
X236205Y153607D01*
X236208Y153627D01*
X236216Y153646D01*
X236238Y153784D01*
X236264Y153920D01*
X236263Y153940D01*
X236266Y153960D01*
X236253Y154099D01*
X236245Y154237D01*
X236238Y154256D01*
X236236Y154276D01*
X236189Y154408D01*
X236147Y154539D01*
X236136Y154557D01*
X236129Y154576D01*
X236051Y154691D01*
X235976Y154808D01*
X235962Y154822D01*
X235950Y154839D01*
X235846Y154931D01*
X235745Y155026D01*
X235727Y155036D01*
X235712Y155049D01*
X235588Y155112D01*
X235466Y155180D01*
X235447Y155185D01*
X235429Y155194D01*
X235293Y155224D01*
X235158Y155259D01*
X235130Y155261D01*
X235118Y155264D01*
X235098Y155263D01*
X234998Y155269D01*
X153066Y155269D01*
X151269Y157066D01*
X151269Y161190D01*
X151254Y161308D01*
X151247Y161427D01*
X151234Y161465D01*
X151229Y161506D01*
X151186Y161616D01*
X151149Y161729D01*
X151127Y161764D01*
X151112Y161801D01*
X151043Y161897D01*
X150979Y161998D01*
X150949Y162026D01*
X150926Y162059D01*
X150834Y162135D01*
X150747Y162216D01*
X150712Y162236D01*
X150681Y162261D01*
X150573Y162312D01*
X150469Y162370D01*
X150429Y162380D01*
X150393Y162397D01*
X150276Y162419D01*
X150161Y162449D01*
X150101Y162453D01*
X150081Y162457D01*
X150060Y162455D01*
X150000Y162459D01*
X144711Y162459D01*
X144647Y162451D01*
X144583Y162453D01*
X144490Y162431D01*
X144396Y162419D01*
X144336Y162396D01*
X144273Y162381D01*
X144188Y162337D01*
X144100Y162302D01*
X144048Y162265D01*
X143991Y162235D01*
X143920Y162172D01*
X143843Y162116D01*
X143801Y162066D01*
X143754Y162023D01*
X143656Y161895D01*
X143219Y161242D01*
X142158Y160181D01*
X140910Y159347D01*
X139839Y158903D01*
X139839Y161190D01*
X139824Y161308D01*
X139817Y161427D01*
X139804Y161465D01*
X139799Y161506D01*
X139756Y161616D01*
X139719Y161729D01*
X139697Y161764D01*
X139682Y161801D01*
X139612Y161897D01*
X139549Y161998D01*
X139519Y162026D01*
X139495Y162059D01*
X139404Y162135D01*
X139317Y162216D01*
X139282Y162236D01*
X139251Y162261D01*
X139143Y162312D01*
X139039Y162370D01*
X138999Y162380D01*
X138963Y162397D01*
X138846Y162419D01*
X138731Y162449D01*
X138670Y162453D01*
X138650Y162457D01*
X138630Y162455D01*
X138570Y162459D01*
X136030Y162459D01*
X135912Y162444D01*
X135793Y162437D01*
X135755Y162424D01*
X135714Y162419D01*
X135604Y162376D01*
X135491Y162339D01*
X135456Y162317D01*
X135419Y162302D01*
X135323Y162233D01*
X135222Y162169D01*
X135194Y162139D01*
X135161Y162116D01*
X135086Y162024D01*
X135004Y161937D01*
X134984Y161902D01*
X134959Y161871D01*
X134908Y161763D01*
X134850Y161659D01*
X134840Y161619D01*
X134823Y161583D01*
X134801Y161466D01*
X134771Y161351D01*
X134767Y161291D01*
X134763Y161271D01*
X134765Y161250D01*
X134761Y161190D01*
X134761Y158903D01*
X133690Y159347D01*
X132442Y160181D01*
X131381Y161242D01*
X130944Y161895D01*
X130902Y161944D01*
X130868Y161998D01*
X130798Y162063D01*
X130736Y162135D01*
X130683Y162172D01*
X130636Y162216D01*
X130553Y162262D01*
X130474Y162316D01*
X130414Y162339D01*
X130357Y162370D01*
X130265Y162393D01*
X130176Y162426D01*
X130112Y162433D01*
X130050Y162449D01*
X129889Y162459D01*
X125000Y162459D01*
X124882Y162444D01*
X124763Y162437D01*
X124725Y162424D01*
X124684Y162419D01*
X124574Y162376D01*
X124461Y162339D01*
X124426Y162317D01*
X124389Y162302D01*
X124293Y162233D01*
X124192Y162169D01*
X124164Y162139D01*
X124131Y162116D01*
X124056Y162024D01*
X123974Y161937D01*
X123954Y161902D01*
X123929Y161871D01*
X123878Y161763D01*
X123820Y161659D01*
X123810Y161619D01*
X123793Y161583D01*
X123771Y161466D01*
X123741Y161351D01*
X123737Y161291D01*
X123733Y161271D01*
X123735Y161250D01*
X123731Y161190D01*
X123731Y157066D01*
X121934Y155269D01*
X76066Y155269D01*
X75269Y156066D01*
X75269Y161190D01*
X75254Y161308D01*
X75247Y161427D01*
X75234Y161465D01*
X75229Y161506D01*
X75186Y161616D01*
X75149Y161729D01*
X75127Y161764D01*
X75112Y161801D01*
X75043Y161897D01*
X74979Y161998D01*
X74949Y162026D01*
X74926Y162059D01*
X74834Y162135D01*
X74747Y162216D01*
X74712Y162236D01*
X74681Y162261D01*
X74573Y162312D01*
X74469Y162370D01*
X74429Y162380D01*
X74393Y162397D01*
X74276Y162419D01*
X74161Y162449D01*
X74101Y162453D01*
X74081Y162457D01*
X74060Y162455D01*
X74000Y162459D01*
X5000Y162459D01*
X4998Y162459D01*
X4995Y162459D01*
X4834Y162448D01*
X4526Y162408D01*
X4517Y162405D01*
X4508Y162405D01*
X4364Y162365D01*
X4219Y162327D01*
X4211Y162323D01*
X4202Y162320D01*
X4057Y162249D01*
X3524Y161941D01*
X3450Y161885D01*
X3371Y161837D01*
X3324Y161789D01*
X3271Y161748D01*
X3213Y161676D01*
X3149Y161610D01*
X3084Y161513D01*
X3073Y161499D01*
X3070Y161491D01*
X3059Y161476D01*
X2751Y160943D01*
X2748Y160934D01*
X2742Y160927D01*
X2686Y160788D01*
X2628Y160649D01*
X2627Y160640D01*
X2623Y160632D01*
X2592Y160474D01*
X2552Y160166D01*
X2552Y160163D01*
X2551Y160161D01*
X2541Y160000D01*
X2541Y103000D01*
X2556Y102882D01*
X2563Y102763D01*
X2576Y102725D01*
X2581Y102684D01*
X2624Y102574D01*
X2661Y102461D01*
X2683Y102426D01*
X2698Y102389D01*
X2767Y102293D01*
X2831Y102192D01*
X2861Y102164D01*
X2884Y102131D01*
X2976Y102056D01*
X3063Y101974D01*
X3098Y101954D01*
X3129Y101929D01*
X3237Y101878D01*
X3341Y101820D01*
X3381Y101810D01*
X3417Y101793D01*
X3534Y101771D01*
X3649Y101741D01*
X3709Y101737D01*
X3729Y101733D01*
X3750Y101735D01*
X3810Y101731D01*
X41731Y101731D01*
X41731Y63269D01*
X3810Y63269D01*
X3692Y63254D01*
X3573Y63247D01*
X3535Y63234D01*
X3494Y63229D01*
X3384Y63186D01*
X3271Y63149D01*
X3236Y63127D01*
X3199Y63112D01*
X3103Y63042D01*
X3002Y62979D01*
X2974Y62949D01*
X2941Y62926D01*
X2865Y62834D01*
X2784Y62747D01*
X2764Y62712D01*
X2739Y62681D01*
X2688Y62573D01*
X2630Y62469D01*
X2620Y62429D01*
X2603Y62393D01*
X2581Y62276D01*
X2551Y62161D01*
X2547Y62100D01*
X2543Y62080D01*
X2545Y62060D01*
X2541Y62000D01*
X2541Y5000D01*
X2541Y4997D01*
X2541Y4995D01*
X2552Y4834D01*
X2592Y4526D01*
X2595Y4517D01*
X2595Y4508D01*
X2635Y4364D01*
X2673Y4219D01*
X2677Y4211D01*
X2680Y4202D01*
X2751Y4057D01*
X3059Y3524D01*
X3115Y3450D01*
X3163Y3371D01*
X3211Y3324D01*
X3252Y3271D01*
X3324Y3213D01*
X3390Y3149D01*
X3487Y3084D01*
X3501Y3073D01*
X3509Y3070D01*
X3524Y3059D01*
X4057Y2751D01*
X4066Y2748D01*
X4073Y2742D01*
X4212Y2686D01*
X4351Y2628D01*
X4360Y2627D01*
X4368Y2623D01*
X4526Y2592D01*
X4834Y2552D01*
X4837Y2552D01*
X4839Y2551D01*
X5000Y2541D01*
X280000Y2541D01*
X280003Y2541D01*
G37*
%LPC*%
G36*
X28231Y140009D02*
X28231Y140009D01*
X24964Y141363D01*
X22463Y143864D01*
X21109Y147131D01*
X21109Y150669D01*
X22463Y153936D01*
X24964Y156437D01*
X28231Y157791D01*
X31769Y157791D01*
X35036Y156437D01*
X37537Y153936D01*
X38891Y150669D01*
X38891Y147131D01*
X37537Y143864D01*
X35036Y141363D01*
X31769Y140009D01*
X28231Y140009D01*
G37*
%LPD*%
%LPC*%
G36*
X300795Y59789D02*
X300795Y59789D01*
X298292Y60826D01*
X296376Y62742D01*
X295339Y65245D01*
X295339Y67955D01*
X296376Y70458D01*
X298292Y72374D01*
X300795Y73411D01*
X303505Y73411D01*
X306008Y72374D01*
X307924Y70458D01*
X308961Y67955D01*
X308961Y65245D01*
X307924Y62742D01*
X306008Y60826D01*
X303505Y59789D01*
X300795Y59789D01*
G37*
%LPD*%
%LPC*%
G36*
X320795Y59789D02*
X320795Y59789D01*
X318292Y60826D01*
X316376Y62742D01*
X315339Y65245D01*
X315339Y67955D01*
X316376Y70458D01*
X318292Y72374D01*
X320795Y73411D01*
X323505Y73411D01*
X326008Y72374D01*
X327924Y70458D01*
X328961Y67955D01*
X328961Y65245D01*
X327924Y62742D01*
X326008Y60826D01*
X323505Y59789D01*
X320795Y59789D01*
G37*
%LPD*%
%LPC*%
G36*
X98233Y113459D02*
X98233Y113459D01*
X96159Y115533D01*
X96159Y118990D01*
X96144Y119108D01*
X96137Y119227D01*
X96124Y119265D01*
X96119Y119306D01*
X96076Y119416D01*
X96039Y119529D01*
X96017Y119564D01*
X96002Y119601D01*
X95933Y119697D01*
X95869Y119798D01*
X95839Y119826D01*
X95816Y119859D01*
X95724Y119935D01*
X95637Y120016D01*
X95602Y120036D01*
X95571Y120061D01*
X95463Y120112D01*
X95359Y120170D01*
X95319Y120180D01*
X95283Y120197D01*
X95166Y120219D01*
X95051Y120249D01*
X94991Y120253D01*
X94971Y120257D01*
X94950Y120255D01*
X94890Y120259D01*
X92533Y120259D01*
X90459Y122333D01*
X90459Y125267D01*
X92533Y127341D01*
X95467Y127341D01*
X97541Y125267D01*
X97541Y121810D01*
X97556Y121692D01*
X97563Y121573D01*
X97576Y121535D01*
X97581Y121494D01*
X97624Y121384D01*
X97661Y121271D01*
X97683Y121236D01*
X97698Y121199D01*
X97767Y121103D01*
X97831Y121002D01*
X97861Y120974D01*
X97884Y120941D01*
X97976Y120865D01*
X98063Y120784D01*
X98098Y120764D01*
X98129Y120739D01*
X98237Y120688D01*
X98341Y120630D01*
X98381Y120620D01*
X98417Y120603D01*
X98534Y120581D01*
X98649Y120551D01*
X98709Y120547D01*
X98729Y120543D01*
X98750Y120545D01*
X98810Y120541D01*
X101167Y120541D01*
X103241Y118467D01*
X103241Y115533D01*
X101167Y113459D01*
X98233Y113459D01*
G37*
%LPD*%
%LPC*%
G36*
X229433Y125359D02*
X229433Y125359D01*
X227359Y127433D01*
X227359Y130367D01*
X229433Y132441D01*
X232367Y132441D01*
X232693Y132115D01*
X232802Y132030D01*
X232909Y131941D01*
X232928Y131932D01*
X232944Y131920D01*
X233072Y131864D01*
X233197Y131805D01*
X233217Y131802D01*
X233236Y131794D01*
X233374Y131772D01*
X233510Y131746D01*
X233530Y131747D01*
X233550Y131744D01*
X233689Y131757D01*
X233827Y131765D01*
X233846Y131772D01*
X233866Y131773D01*
X233997Y131821D01*
X234129Y131863D01*
X234147Y131874D01*
X234166Y131881D01*
X234280Y131959D01*
X234398Y132034D01*
X234412Y132048D01*
X234429Y132060D01*
X234521Y132164D01*
X234616Y132265D01*
X234626Y132283D01*
X234639Y132298D01*
X234702Y132422D01*
X234770Y132544D01*
X234775Y132563D01*
X234784Y132581D01*
X234814Y132717D01*
X234849Y132852D01*
X234851Y132880D01*
X234854Y132892D01*
X234853Y132912D01*
X234859Y133012D01*
X234859Y135967D01*
X236933Y138041D01*
X239867Y138041D01*
X241941Y135967D01*
X241941Y133033D01*
X239867Y130959D01*
X236933Y130959D01*
X236607Y131285D01*
X236498Y131370D01*
X236391Y131459D01*
X236372Y131468D01*
X236356Y131480D01*
X236228Y131536D01*
X236103Y131595D01*
X236083Y131598D01*
X236064Y131606D01*
X235926Y131628D01*
X235790Y131654D01*
X235770Y131653D01*
X235750Y131656D01*
X235611Y131643D01*
X235473Y131635D01*
X235454Y131628D01*
X235434Y131627D01*
X235303Y131579D01*
X235171Y131537D01*
X235153Y131526D01*
X235134Y131519D01*
X235020Y131441D01*
X234902Y131366D01*
X234888Y131352D01*
X234871Y131340D01*
X234779Y131236D01*
X234684Y131135D01*
X234674Y131117D01*
X234661Y131102D01*
X234598Y130978D01*
X234530Y130856D01*
X234525Y130837D01*
X234516Y130819D01*
X234486Y130683D01*
X234451Y130548D01*
X234449Y130520D01*
X234446Y130508D01*
X234447Y130488D01*
X234441Y130388D01*
X234441Y127433D01*
X232367Y125359D01*
X229433Y125359D01*
G37*
%LPD*%
%LPC*%
G36*
X146033Y9959D02*
X146033Y9959D01*
X143959Y12033D01*
X143959Y14967D01*
X145095Y16102D01*
X145168Y16197D01*
X145247Y16286D01*
X145265Y16322D01*
X145290Y16354D01*
X145337Y16463D01*
X145392Y16569D01*
X145400Y16608D01*
X145416Y16646D01*
X145435Y16763D01*
X145461Y16879D01*
X145460Y16920D01*
X145466Y16960D01*
X145455Y17078D01*
X145452Y17197D01*
X145440Y17236D01*
X145436Y17276D01*
X145396Y17389D01*
X145363Y17503D01*
X145343Y17537D01*
X145329Y17576D01*
X145262Y17674D01*
X145202Y17777D01*
X145162Y17822D01*
X145150Y17839D01*
X145135Y17852D01*
X145095Y17897D01*
X143959Y19033D01*
X143959Y21967D01*
X146033Y24041D01*
X148967Y24041D01*
X151041Y21967D01*
X151041Y19033D01*
X149905Y17897D01*
X149832Y17803D01*
X149753Y17714D01*
X149735Y17678D01*
X149710Y17646D01*
X149662Y17537D01*
X149608Y17431D01*
X149600Y17392D01*
X149584Y17354D01*
X149565Y17237D01*
X149539Y17121D01*
X149540Y17080D01*
X149534Y17040D01*
X149545Y16922D01*
X149548Y16803D01*
X149560Y16764D01*
X149564Y16724D01*
X149604Y16612D01*
X149637Y16497D01*
X149657Y16462D01*
X149671Y16424D01*
X149738Y16326D01*
X149798Y16223D01*
X149838Y16178D01*
X149850Y16161D01*
X149865Y16148D01*
X149905Y16102D01*
X151041Y14967D01*
X151041Y12033D01*
X148967Y9959D01*
X146033Y9959D01*
G37*
%LPD*%
%LPC*%
G36*
X143833Y114159D02*
X143833Y114159D01*
X141759Y116233D01*
X141759Y119167D01*
X143833Y121241D01*
X146767Y121241D01*
X148841Y119167D01*
X148841Y116233D01*
X146767Y114159D01*
X143833Y114159D01*
G37*
%LPD*%
%LPC*%
G36*
X91533Y105959D02*
X91533Y105959D01*
X89459Y108033D01*
X89459Y110967D01*
X91533Y113041D01*
X94467Y113041D01*
X96541Y110967D01*
X96541Y108033D01*
X94467Y105959D01*
X91533Y105959D01*
G37*
%LPD*%
%LPC*%
G36*
X80733Y99359D02*
X80733Y99359D01*
X78659Y101433D01*
X78659Y104367D01*
X80733Y106441D01*
X83667Y106441D01*
X85741Y104367D01*
X85741Y101433D01*
X83667Y99359D01*
X80733Y99359D01*
G37*
%LPD*%
%LPC*%
G36*
X248333Y98859D02*
X248333Y98859D01*
X246259Y100933D01*
X246259Y103867D01*
X248333Y105941D01*
X251267Y105941D01*
X253341Y103867D01*
X253341Y100933D01*
X251267Y98859D01*
X248333Y98859D01*
G37*
%LPD*%
%LPC*%
G36*
X165033Y98759D02*
X165033Y98759D01*
X162959Y100833D01*
X162959Y103767D01*
X165033Y105841D01*
X167967Y105841D01*
X170041Y103767D01*
X170041Y100833D01*
X167967Y98759D01*
X165033Y98759D01*
G37*
%LPD*%
%LPC*%
G36*
X91333Y93359D02*
X91333Y93359D01*
X89259Y95433D01*
X89259Y98367D01*
X91333Y100441D01*
X94267Y100441D01*
X96341Y98367D01*
X96341Y95433D01*
X94267Y93359D01*
X91333Y93359D01*
G37*
%LPD*%
%LPC*%
G36*
X98133Y84459D02*
X98133Y84459D01*
X96059Y86533D01*
X96059Y89467D01*
X98133Y91541D01*
X101067Y91541D01*
X103141Y89467D01*
X103141Y86533D01*
X101067Y84459D01*
X98133Y84459D01*
G37*
%LPD*%
%LPC*%
G36*
X80033Y81659D02*
X80033Y81659D01*
X77959Y83733D01*
X77959Y86667D01*
X80033Y88741D01*
X82967Y88741D01*
X85041Y86667D01*
X85041Y83733D01*
X82967Y81659D01*
X80033Y81659D01*
G37*
%LPD*%
%LPC*%
G36*
X119833Y120159D02*
X119833Y120159D01*
X117759Y122233D01*
X117759Y125167D01*
X119833Y127241D01*
X122767Y127241D01*
X124841Y125167D01*
X124841Y122233D01*
X122767Y120159D01*
X119833Y120159D01*
G37*
%LPD*%
%LPC*%
G36*
X248533Y120184D02*
X248533Y120184D01*
X246459Y122258D01*
X246459Y125192D01*
X248533Y127266D01*
X251467Y127266D01*
X253541Y125192D01*
X253541Y122258D01*
X251467Y120184D01*
X248533Y120184D01*
G37*
%LPD*%
%LPC*%
G36*
X128933Y51859D02*
X128933Y51859D01*
X126859Y53933D01*
X126859Y56867D01*
X128933Y58941D01*
X131867Y58941D01*
X133941Y56867D01*
X133941Y53933D01*
X131867Y51859D01*
X128933Y51859D01*
G37*
%LPD*%
%LPC*%
G36*
X200633Y50834D02*
X200633Y50834D01*
X198559Y52908D01*
X198559Y55842D01*
X200633Y57916D01*
X203567Y57916D01*
X205641Y55842D01*
X205641Y52908D01*
X203567Y50834D01*
X200633Y50834D01*
G37*
%LPD*%
%LPC*%
G36*
X227233Y48459D02*
X227233Y48459D01*
X225159Y50533D01*
X225159Y53467D01*
X227233Y55541D01*
X230167Y55541D01*
X232241Y53467D01*
X232241Y50533D01*
X230167Y48459D01*
X227233Y48459D01*
G37*
%LPD*%
%LPC*%
G36*
X208333Y43284D02*
X208333Y43284D01*
X206259Y45358D01*
X206259Y48292D01*
X208333Y50366D01*
X211267Y50366D01*
X213341Y48292D01*
X213341Y45358D01*
X211267Y43284D01*
X208333Y43284D01*
G37*
%LPD*%
%LPC*%
G36*
X79333Y39459D02*
X79333Y39459D01*
X77259Y41533D01*
X77259Y44467D01*
X79333Y46541D01*
X82267Y46541D01*
X84341Y44467D01*
X84341Y41533D01*
X82267Y39459D01*
X79333Y39459D01*
G37*
%LPD*%
%LPC*%
G36*
X101333Y35759D02*
X101333Y35759D01*
X99259Y37833D01*
X99259Y40767D01*
X101333Y42841D01*
X104267Y42841D01*
X106341Y40767D01*
X106341Y37833D01*
X104267Y35759D01*
X101333Y35759D01*
G37*
%LPD*%
%LPC*%
G36*
X150033Y29959D02*
X150033Y29959D01*
X147959Y32033D01*
X147959Y34967D01*
X150033Y37041D01*
X152967Y37041D01*
X155041Y34967D01*
X155041Y32033D01*
X152967Y29959D01*
X150033Y29959D01*
G37*
%LPD*%
%LPC*%
G36*
X92233Y130359D02*
X92233Y130359D01*
X90159Y132433D01*
X90159Y135367D01*
X92233Y137441D01*
X95167Y137441D01*
X97241Y135367D01*
X97241Y132433D01*
X95167Y130359D01*
X92233Y130359D01*
G37*
%LPD*%
%LPC*%
G36*
X170533Y5459D02*
X170533Y5459D01*
X168459Y7533D01*
X168459Y10467D01*
X170533Y12541D01*
X173467Y12541D01*
X175541Y10467D01*
X175541Y7533D01*
X173467Y5459D01*
X170533Y5459D01*
G37*
%LPD*%
%LPC*%
G36*
X110433Y5659D02*
X110433Y5659D01*
X108359Y7733D01*
X108359Y10667D01*
X110433Y12741D01*
X113367Y12741D01*
X115441Y10667D01*
X115441Y7733D01*
X113367Y5659D01*
X110433Y5659D01*
G37*
%LPD*%
%LPC*%
G36*
X98133Y10259D02*
X98133Y10259D01*
X96059Y12333D01*
X96059Y15267D01*
X98133Y17341D01*
X101067Y17341D01*
X103141Y15267D01*
X103141Y12333D01*
X101067Y10259D01*
X98133Y10259D01*
G37*
%LPD*%
%LPC*%
G36*
X32539Y17539D02*
X32539Y17539D01*
X32539Y22197D01*
X33610Y21753D01*
X34858Y20919D01*
X35919Y19858D01*
X36753Y18610D01*
X37197Y17539D01*
X32539Y17539D01*
G37*
%LPD*%
%LPC*%
G36*
X22803Y17539D02*
X22803Y17539D01*
X23247Y18610D01*
X24081Y19858D01*
X25142Y20919D01*
X26390Y21753D01*
X27461Y22197D01*
X27461Y17539D01*
X22803Y17539D01*
G37*
%LPD*%
%LPC*%
G36*
X32539Y12461D02*
X32539Y12461D01*
X37197Y12461D01*
X36753Y11390D01*
X35919Y10142D01*
X34858Y9081D01*
X33610Y8247D01*
X32539Y7803D01*
X32539Y12461D01*
G37*
%LPD*%
%LPC*%
G36*
X26390Y8247D02*
X26390Y8247D01*
X25142Y9081D01*
X24081Y10142D01*
X23247Y11390D01*
X22803Y12461D01*
X27461Y12461D01*
X27461Y7803D01*
X26390Y8247D01*
G37*
%LPD*%
%LPC*%
G36*
X29999Y14999D02*
X29999Y14999D01*
X29999Y15001D01*
X30001Y15001D01*
X30001Y14999D01*
X29999Y14999D01*
G37*
%LPD*%
D10*
X30000Y148900D03*
X30000Y15000D03*
D11*
X302150Y66600D03*
X322150Y66600D03*
D10*
X238900Y166100D03*
X213500Y166100D03*
X188100Y166100D03*
X162700Y166100D03*
X137300Y166100D03*
X111900Y166100D03*
X86500Y166100D03*
D12*
X11500Y114600D03*
X136900Y118300D03*
X173200Y61200D03*
X81700Y91600D03*
X82000Y113400D03*
X11500Y154600D03*
X11500Y134600D03*
X31500Y134600D03*
X31500Y114600D03*
X32500Y59400D03*
X29500Y30600D03*
X11500Y34600D03*
X11500Y14600D03*
X183500Y12600D03*
X249500Y12600D03*
X141500Y134600D03*
X123500Y151600D03*
X15100Y54000D03*
X38500Y59400D03*
X32700Y48000D03*
X26500Y48000D03*
X20100Y50000D03*
X26500Y59400D03*
X80500Y143600D03*
X189900Y126400D03*
X213900Y126400D03*
X249900Y70400D03*
X188500Y27600D03*
X45900Y87600D03*
X38500Y48000D03*
X11500Y58600D03*
X231700Y151800D03*
X279500Y78600D03*
X294500Y78600D03*
X309500Y78600D03*
X324500Y78600D03*
X324500Y53600D03*
X309500Y53600D03*
X294500Y53600D03*
X279500Y43600D03*
X294500Y93600D03*
X309500Y93600D03*
X322500Y91600D03*
X322500Y40600D03*
X309500Y38600D03*
X294500Y38600D03*
X279500Y93600D03*
X279500Y108600D03*
X279500Y28600D03*
X279500Y123600D03*
X279500Y138600D03*
X279500Y153600D03*
X279500Y13600D03*
X238400Y134500D03*
X147500Y13500D03*
X111900Y9200D03*
X230900Y128900D03*
X147500Y20500D03*
X99600Y13800D03*
X209800Y46825D03*
X92800Y96900D03*
X121300Y123700D03*
X93700Y133900D03*
X81500Y85200D03*
X93000Y109500D03*
X145300Y117700D03*
X166500Y102300D03*
X249800Y102400D03*
X151500Y33500D03*
X250000Y123725D03*
X239200Y151400D03*
X202100Y54375D03*
X94000Y123800D03*
X99600Y88000D03*
X99700Y117000D03*
X130400Y55400D03*
X82200Y102900D03*
X102800Y39300D03*
X172000Y9000D03*
X228700Y52000D03*
X80800Y43000D03*
M02*
