G04 EAGLE Gerber RS-274X export*
G75*
%MOMM*%
%FSLAX34Y34*%
%LPD*%
%INTop Copper*%
%IPPOS*%
%AMOC8*
5,1,8,0,0,1.08239X$1,22.5*%
G01*
%ADD10R,0.250000X0.350000*%
%ADD11R,0.800000X0.500000*%
%ADD12R,0.500000X0.800000*%
%ADD13R,1.600000X1.600000*%
%ADD14R,0.630000X0.320000*%
%ADD15R,1.060000X1.560000*%
%ADD16C,1.676400*%
%ADD17R,0.280000X0.430000*%
%ADD18R,0.350000X0.250000*%
%ADD19R,0.430000X0.280000*%
%ADD20C,0.200000*%
%ADD21C,0.320000*%
%ADD22R,0.750000X2.540000*%
%ADD23R,1.600000X1.300000*%
%ADD24C,0.280000*%
%ADD25C,1.108000*%
%ADD26R,1.676400X1.676400*%
%ADD27C,0.250000*%
%ADD28R,1.800000X1.000000*%
%ADD29R,0.800000X1.800000*%
%ADD30R,1.600000X0.800000*%
%ADD31R,0.650000X0.800000*%
%ADD32C,0.230000*%
%ADD33C,0.254000*%
%ADD34C,0.454000*%
%ADD35C,0.152400*%
%ADD36C,0.304800*%
%ADD37C,0.203200*%

G36*
X280003Y2541D02*
X280003Y2541D01*
X280005Y2541D01*
X280166Y2552D01*
X280474Y2592D01*
X280483Y2595D01*
X280492Y2595D01*
X280636Y2635D01*
X280781Y2673D01*
X280789Y2677D01*
X280798Y2680D01*
X280943Y2751D01*
X281476Y3059D01*
X281550Y3115D01*
X281629Y3163D01*
X281676Y3211D01*
X281729Y3252D01*
X281787Y3324D01*
X281851Y3390D01*
X281916Y3487D01*
X281927Y3501D01*
X281930Y3509D01*
X281941Y3524D01*
X282249Y4057D01*
X282252Y4066D01*
X282258Y4073D01*
X282314Y4212D01*
X282372Y4351D01*
X282373Y4360D01*
X282377Y4368D01*
X282408Y4526D01*
X282448Y4834D01*
X282448Y4837D01*
X282449Y4839D01*
X282459Y5000D01*
X282459Y11070D01*
X284666Y17861D01*
X288863Y23637D01*
X294639Y27834D01*
X301430Y30041D01*
X315000Y30041D01*
X315022Y30043D01*
X315100Y30045D01*
X317632Y30244D01*
X317700Y30258D01*
X317769Y30262D01*
X317925Y30302D01*
X322742Y31867D01*
X322850Y31918D01*
X322960Y31962D01*
X323011Y31994D01*
X323030Y32003D01*
X323046Y32016D01*
X323096Y32048D01*
X327194Y35025D01*
X327281Y35106D01*
X327372Y35182D01*
X327411Y35229D01*
X327426Y35243D01*
X327437Y35260D01*
X327475Y35306D01*
X330452Y39404D01*
X330509Y39508D01*
X330573Y39608D01*
X330596Y39665D01*
X330605Y39683D01*
X330611Y39702D01*
X330633Y39758D01*
X332198Y44575D01*
X332211Y44643D01*
X332233Y44708D01*
X332256Y44868D01*
X332455Y47400D01*
X332454Y47422D01*
X332459Y47500D01*
X332459Y57060D01*
X332444Y57178D01*
X332437Y57297D01*
X332424Y57335D01*
X332419Y57376D01*
X332376Y57486D01*
X332339Y57599D01*
X332317Y57634D01*
X332302Y57671D01*
X332233Y57767D01*
X332169Y57868D01*
X332139Y57896D01*
X332116Y57929D01*
X332024Y58005D01*
X331937Y58086D01*
X331902Y58106D01*
X331871Y58131D01*
X331763Y58182D01*
X331659Y58240D01*
X331619Y58250D01*
X331583Y58267D01*
X331466Y58289D01*
X331351Y58319D01*
X331291Y58323D01*
X331271Y58327D01*
X331250Y58325D01*
X331190Y58329D01*
X292444Y58329D01*
X290879Y59894D01*
X290879Y63044D01*
X290864Y63162D01*
X290857Y63281D01*
X290844Y63319D01*
X290839Y63360D01*
X290796Y63470D01*
X290759Y63583D01*
X290737Y63618D01*
X290722Y63655D01*
X290653Y63751D01*
X290589Y63852D01*
X290559Y63880D01*
X290536Y63913D01*
X290444Y63989D01*
X290357Y64070D01*
X290322Y64090D01*
X290291Y64115D01*
X290183Y64166D01*
X290079Y64224D01*
X290039Y64234D01*
X290003Y64251D01*
X289886Y64273D01*
X289771Y64303D01*
X289711Y64307D01*
X289691Y64311D01*
X289670Y64309D01*
X289610Y64313D01*
X288000Y64313D01*
X287998Y64313D01*
X287995Y64313D01*
X287834Y64302D01*
X287564Y64267D01*
X287555Y64264D01*
X287546Y64264D01*
X287402Y64224D01*
X287257Y64186D01*
X287248Y64182D01*
X287239Y64179D01*
X287095Y64108D01*
X286627Y63837D01*
X286554Y63782D01*
X286475Y63734D01*
X286427Y63686D01*
X286374Y63645D01*
X286316Y63573D01*
X286252Y63507D01*
X286187Y63409D01*
X286176Y63396D01*
X286173Y63388D01*
X286163Y63373D01*
X285892Y62905D01*
X285889Y62896D01*
X285883Y62889D01*
X285827Y62750D01*
X285769Y62612D01*
X285768Y62602D01*
X285764Y62594D01*
X285733Y62436D01*
X285698Y62166D01*
X285698Y62163D01*
X285697Y62161D01*
X285687Y62000D01*
X285687Y59378D01*
X283064Y54836D01*
X278522Y52213D01*
X276903Y52213D01*
X276805Y52201D01*
X276706Y52198D01*
X276648Y52181D01*
X276588Y52173D01*
X276496Y52137D01*
X276401Y52109D01*
X276349Y52079D01*
X276292Y52056D01*
X276212Y51998D01*
X276127Y51948D01*
X276051Y51882D01*
X276035Y51870D01*
X276027Y51860D01*
X276006Y51842D01*
X274615Y50451D01*
X274597Y50427D01*
X274575Y50408D01*
X274500Y50302D01*
X274420Y50200D01*
X274409Y50172D01*
X274392Y50148D01*
X274346Y50027D01*
X274294Y49908D01*
X274289Y49878D01*
X274279Y49851D01*
X274265Y49722D01*
X274244Y49594D01*
X274247Y49564D01*
X274244Y49535D01*
X274262Y49406D01*
X274274Y49277D01*
X274284Y49249D01*
X274288Y49220D01*
X274340Y49068D01*
X274368Y49000D01*
X274368Y47769D01*
X270368Y47769D01*
X270367Y47769D01*
X266367Y47769D01*
X266367Y49000D01*
X266395Y49068D01*
X266402Y49096D01*
X266416Y49122D01*
X266444Y49248D01*
X266478Y49374D01*
X266479Y49404D01*
X266485Y49433D01*
X266481Y49562D01*
X266484Y49692D01*
X266477Y49721D01*
X266476Y49751D01*
X266440Y49875D01*
X266409Y50002D01*
X266396Y50028D01*
X266387Y50056D01*
X266321Y50168D01*
X266261Y50283D01*
X266241Y50305D01*
X266226Y50330D01*
X266119Y50451D01*
X265097Y51474D01*
X265097Y57526D01*
X266119Y58549D01*
X266138Y58573D01*
X266160Y58592D01*
X266235Y58698D01*
X266314Y58800D01*
X266326Y58828D01*
X266343Y58852D01*
X266389Y58973D01*
X266441Y59092D01*
X266445Y59122D01*
X266456Y59149D01*
X266470Y59278D01*
X266491Y59406D01*
X266488Y59436D01*
X266491Y59465D01*
X266473Y59594D01*
X266461Y59723D01*
X266451Y59751D01*
X266447Y59780D01*
X266395Y59932D01*
X266367Y60000D01*
X266367Y61231D01*
X270367Y61231D01*
X270368Y61231D01*
X274368Y61231D01*
X274368Y60000D01*
X274340Y59932D01*
X274332Y59904D01*
X274319Y59878D01*
X274291Y59751D01*
X274256Y59626D01*
X274256Y59596D01*
X274249Y59567D01*
X274253Y59438D01*
X274251Y59308D01*
X274258Y59279D01*
X274259Y59249D01*
X274295Y59125D01*
X274325Y58998D01*
X274339Y58972D01*
X274347Y58944D01*
X274413Y58832D01*
X274474Y58717D01*
X274494Y58695D01*
X274509Y58670D01*
X274615Y58549D01*
X275889Y57275D01*
X275907Y57261D01*
X275922Y57244D01*
X276033Y57164D01*
X276140Y57080D01*
X276161Y57071D01*
X276180Y57058D01*
X276307Y57008D01*
X276432Y56954D01*
X276455Y56950D01*
X276476Y56942D01*
X276611Y56926D01*
X276746Y56904D01*
X276769Y56906D01*
X276792Y56903D01*
X276952Y56914D01*
X277086Y56932D01*
X277095Y56934D01*
X277105Y56935D01*
X277249Y56975D01*
X277394Y57013D01*
X277402Y57017D01*
X277411Y57020D01*
X277555Y57091D01*
X279323Y58112D01*
X279397Y58168D01*
X279476Y58216D01*
X279523Y58264D01*
X279577Y58304D01*
X279634Y58377D01*
X279699Y58442D01*
X279764Y58540D01*
X279774Y58553D01*
X279778Y58561D01*
X279788Y58577D01*
X280809Y60345D01*
X280812Y60353D01*
X280818Y60361D01*
X280874Y60499D01*
X280932Y60638D01*
X280933Y60647D01*
X280937Y60656D01*
X280968Y60814D01*
X281102Y61834D01*
X281102Y61837D01*
X281103Y61839D01*
X281113Y62000D01*
X281113Y63845D01*
X282959Y67041D01*
X286155Y68887D01*
X289610Y68887D01*
X289728Y68902D01*
X289847Y68909D01*
X289885Y68922D01*
X289926Y68927D01*
X290036Y68970D01*
X290149Y69007D01*
X290184Y69029D01*
X290221Y69044D01*
X290317Y69113D01*
X290418Y69177D01*
X290446Y69207D01*
X290479Y69230D01*
X290555Y69322D01*
X290636Y69409D01*
X290656Y69444D01*
X290681Y69475D01*
X290732Y69583D01*
X290790Y69687D01*
X290800Y69727D01*
X290817Y69763D01*
X290839Y69880D01*
X290869Y69995D01*
X290873Y70055D01*
X290877Y70075D01*
X290875Y70096D01*
X290879Y70156D01*
X290879Y73306D01*
X292444Y74871D01*
X331190Y74871D01*
X331308Y74886D01*
X331427Y74893D01*
X331465Y74906D01*
X331506Y74911D01*
X331616Y74954D01*
X331729Y74991D01*
X331764Y75013D01*
X331801Y75028D01*
X331897Y75097D01*
X331998Y75161D01*
X332026Y75191D01*
X332059Y75214D01*
X332135Y75306D01*
X332216Y75393D01*
X332236Y75428D01*
X332261Y75459D01*
X332312Y75567D01*
X332370Y75671D01*
X332380Y75711D01*
X332397Y75747D01*
X332419Y75864D01*
X332449Y75979D01*
X332453Y76039D01*
X332457Y76059D01*
X332456Y76073D01*
X332457Y76077D01*
X332456Y76088D01*
X332459Y76140D01*
X332459Y82500D01*
X332457Y82522D01*
X332455Y82600D01*
X332256Y85132D01*
X332242Y85200D01*
X332238Y85269D01*
X332198Y85425D01*
X330633Y90242D01*
X330582Y90350D01*
X330538Y90460D01*
X330506Y90511D01*
X330497Y90530D01*
X330484Y90546D01*
X330452Y90596D01*
X327475Y94694D01*
X327454Y94716D01*
X327442Y94735D01*
X327394Y94781D01*
X327318Y94872D01*
X327271Y94911D01*
X327257Y94926D01*
X327240Y94937D01*
X327194Y94975D01*
X323096Y97952D01*
X322992Y98009D01*
X322892Y98073D01*
X322835Y98096D01*
X322817Y98105D01*
X322798Y98111D01*
X322742Y98133D01*
X317925Y99698D01*
X317857Y99711D01*
X317792Y99733D01*
X317632Y99756D01*
X315100Y99955D01*
X315078Y99954D01*
X315000Y99959D01*
X301430Y99959D01*
X294639Y102166D01*
X288863Y106363D01*
X284666Y112139D01*
X282459Y118930D01*
X282459Y160000D01*
X282459Y160003D01*
X282459Y160005D01*
X282448Y160166D01*
X282408Y160474D01*
X282405Y160483D01*
X282405Y160492D01*
X282365Y160636D01*
X282327Y160781D01*
X282323Y160789D01*
X282320Y160798D01*
X282249Y160943D01*
X281941Y161476D01*
X281885Y161549D01*
X281837Y161629D01*
X281789Y161676D01*
X281748Y161729D01*
X281676Y161787D01*
X281610Y161851D01*
X281512Y161916D01*
X281499Y161927D01*
X281491Y161930D01*
X281476Y161941D01*
X280943Y162249D01*
X280934Y162252D01*
X280927Y162258D01*
X280788Y162314D01*
X280650Y162372D01*
X280640Y162373D01*
X280632Y162377D01*
X280474Y162408D01*
X280166Y162448D01*
X280163Y162448D01*
X280161Y162449D01*
X280000Y162459D01*
X249822Y162459D01*
X249704Y162444D01*
X249585Y162437D01*
X249547Y162424D01*
X249506Y162419D01*
X249396Y162376D01*
X249283Y162339D01*
X249248Y162317D01*
X249211Y162302D01*
X249115Y162233D01*
X249014Y162169D01*
X248986Y162139D01*
X248953Y162116D01*
X248877Y162024D01*
X248796Y161937D01*
X248776Y161902D01*
X248751Y161871D01*
X248700Y161763D01*
X248642Y161659D01*
X248632Y161619D01*
X248615Y161583D01*
X248593Y161466D01*
X248563Y161351D01*
X248559Y161291D01*
X248555Y161271D01*
X248557Y161250D01*
X248553Y161190D01*
X248553Y157192D01*
X247829Y156467D01*
X247744Y156358D01*
X247655Y156251D01*
X247646Y156232D01*
X247634Y156216D01*
X247578Y156089D01*
X247519Y155963D01*
X247515Y155943D01*
X247507Y155924D01*
X247485Y155786D01*
X247459Y155650D01*
X247461Y155630D01*
X247457Y155610D01*
X247471Y155471D01*
X247479Y155333D01*
X247485Y155314D01*
X247487Y155294D01*
X247534Y155162D01*
X247577Y155031D01*
X247588Y155013D01*
X247595Y154994D01*
X247673Y154879D01*
X247747Y154762D01*
X247762Y154748D01*
X247773Y154731D01*
X247877Y154639D01*
X247979Y154544D01*
X247997Y154534D01*
X248012Y154521D01*
X248136Y154458D01*
X248257Y154390D01*
X248277Y154385D01*
X248295Y154376D01*
X248431Y154346D01*
X248565Y154311D01*
X248593Y154309D01*
X248605Y154306D01*
X248626Y154307D01*
X248631Y154307D01*
X248631Y152550D01*
X248631Y150799D01*
X248472Y150799D01*
X248374Y150787D01*
X248275Y150784D01*
X248217Y150767D01*
X248157Y150759D01*
X248065Y150723D01*
X247969Y150695D01*
X247917Y150665D01*
X247861Y150642D01*
X247781Y150584D01*
X247695Y150534D01*
X247620Y150468D01*
X247604Y150456D01*
X247596Y150446D01*
X247575Y150428D01*
X247085Y149938D01*
X246999Y149828D01*
X246911Y149721D01*
X246902Y149702D01*
X246890Y149686D01*
X246834Y149558D01*
X246775Y149433D01*
X246771Y149413D01*
X246763Y149394D01*
X246741Y149256D01*
X246715Y149120D01*
X246717Y149100D01*
X246713Y149080D01*
X246727Y148941D01*
X246735Y148803D01*
X246741Y148784D01*
X246743Y148764D01*
X246790Y148632D01*
X246833Y148501D01*
X246844Y148483D01*
X246851Y148464D01*
X246929Y148350D01*
X247003Y148232D01*
X247018Y148218D01*
X247029Y148201D01*
X247134Y148109D01*
X247235Y148014D01*
X247253Y148004D01*
X247268Y147991D01*
X247392Y147927D01*
X247513Y147860D01*
X247533Y147855D01*
X247551Y147846D01*
X247687Y147816D01*
X247821Y147781D01*
X247849Y147779D01*
X247861Y147776D01*
X247882Y147777D01*
X247982Y147771D01*
X252894Y147771D01*
X252970Y147695D01*
X253064Y147622D01*
X253153Y147543D01*
X253189Y147524D01*
X253221Y147500D01*
X253330Y147452D01*
X253436Y147398D01*
X253476Y147389D01*
X253513Y147373D01*
X253631Y147355D01*
X253747Y147329D01*
X253787Y147330D01*
X253827Y147323D01*
X253946Y147335D01*
X254065Y147338D01*
X254103Y147349D01*
X254144Y147353D01*
X254256Y147394D01*
X254370Y147427D01*
X254405Y147447D01*
X254443Y147461D01*
X254541Y147528D01*
X254644Y147588D01*
X254689Y147628D01*
X254706Y147639D01*
X254720Y147655D01*
X254765Y147695D01*
X254841Y147771D01*
X260894Y147771D01*
X261638Y147026D01*
X261638Y138310D01*
X261653Y138192D01*
X261660Y138073D01*
X261673Y138035D01*
X261678Y137994D01*
X261722Y137884D01*
X261758Y137771D01*
X261780Y137736D01*
X261795Y137699D01*
X261865Y137603D01*
X261929Y137502D01*
X261958Y137474D01*
X261982Y137441D01*
X262074Y137365D01*
X262160Y137284D01*
X262196Y137264D01*
X262227Y137239D01*
X262334Y137188D01*
X262439Y137130D01*
X262478Y137120D01*
X262514Y137103D01*
X262631Y137081D01*
X262747Y137051D01*
X262807Y137047D01*
X262827Y137043D01*
X262847Y137045D01*
X262907Y137041D01*
X264085Y137041D01*
X264183Y137053D01*
X264282Y137056D01*
X264341Y137073D01*
X264401Y137081D01*
X264493Y137117D01*
X264588Y137145D01*
X264640Y137175D01*
X264696Y137198D01*
X264776Y137256D01*
X264862Y137306D01*
X264937Y137372D01*
X264954Y137384D01*
X264962Y137394D01*
X264983Y137412D01*
X265841Y138271D01*
X274894Y138271D01*
X275638Y137526D01*
X275638Y131474D01*
X275562Y131397D01*
X275489Y131303D01*
X275410Y131214D01*
X275392Y131178D01*
X275367Y131146D01*
X275320Y131037D01*
X275266Y130931D01*
X275257Y130891D01*
X275241Y130854D01*
X275222Y130737D01*
X275196Y130621D01*
X275197Y130580D01*
X275191Y130540D01*
X275202Y130421D01*
X275206Y130303D01*
X275217Y130264D01*
X275221Y130224D01*
X275261Y130111D01*
X275294Y129997D01*
X275315Y129962D01*
X275328Y129924D01*
X275395Y129826D01*
X275456Y129723D01*
X275495Y129678D01*
X275507Y129661D01*
X275522Y129648D01*
X275562Y129602D01*
X275638Y129526D01*
X275638Y123474D01*
X275562Y123397D01*
X275489Y123303D01*
X275410Y123214D01*
X275392Y123178D01*
X275367Y123146D01*
X275320Y123037D01*
X275266Y122931D01*
X275257Y122891D01*
X275241Y122854D01*
X275222Y122737D01*
X275196Y122621D01*
X275197Y122580D01*
X275191Y122540D01*
X275202Y122421D01*
X275206Y122303D01*
X275217Y122264D01*
X275221Y122224D01*
X275261Y122111D01*
X275294Y121997D01*
X275315Y121962D01*
X275328Y121924D01*
X275395Y121826D01*
X275456Y121723D01*
X275495Y121678D01*
X275507Y121661D01*
X275522Y121648D01*
X275562Y121602D01*
X275638Y121526D01*
X275638Y115474D01*
X275562Y115397D01*
X275489Y115303D01*
X275410Y115214D01*
X275392Y115178D01*
X275367Y115146D01*
X275320Y115037D01*
X275266Y114931D01*
X275257Y114891D01*
X275241Y114854D01*
X275222Y114737D01*
X275196Y114621D01*
X275197Y114580D01*
X275191Y114540D01*
X275202Y114421D01*
X275206Y114303D01*
X275217Y114264D01*
X275221Y114224D01*
X275261Y114111D01*
X275294Y113997D01*
X275315Y113962D01*
X275328Y113924D01*
X275395Y113826D01*
X275456Y113723D01*
X275495Y113678D01*
X275507Y113661D01*
X275522Y113648D01*
X275562Y113602D01*
X275638Y113526D01*
X275638Y107474D01*
X275562Y107397D01*
X275489Y107303D01*
X275410Y107214D01*
X275392Y107178D01*
X275367Y107146D01*
X275320Y107037D01*
X275266Y106931D01*
X275257Y106891D01*
X275241Y106854D01*
X275222Y106737D01*
X275196Y106621D01*
X275197Y106580D01*
X275191Y106540D01*
X275202Y106421D01*
X275206Y106303D01*
X275217Y106264D01*
X275221Y106224D01*
X275261Y106111D01*
X275294Y105997D01*
X275315Y105962D01*
X275328Y105924D01*
X275395Y105826D01*
X275456Y105723D01*
X275495Y105678D01*
X275507Y105661D01*
X275522Y105648D01*
X275562Y105602D01*
X275638Y105526D01*
X275638Y99474D01*
X275562Y99397D01*
X275489Y99303D01*
X275410Y99214D01*
X275392Y99178D01*
X275367Y99146D01*
X275320Y99037D01*
X275266Y98931D01*
X275257Y98891D01*
X275241Y98854D01*
X275222Y98737D01*
X275196Y98621D01*
X275197Y98580D01*
X275191Y98540D01*
X275202Y98421D01*
X275206Y98303D01*
X275217Y98264D01*
X275221Y98224D01*
X275261Y98111D01*
X275294Y97997D01*
X275315Y97962D01*
X275328Y97924D01*
X275395Y97826D01*
X275456Y97723D01*
X275495Y97678D01*
X275507Y97661D01*
X275522Y97648D01*
X275562Y97602D01*
X275638Y97526D01*
X275638Y91474D01*
X275562Y91397D01*
X275489Y91303D01*
X275410Y91214D01*
X275392Y91178D01*
X275367Y91146D01*
X275320Y91037D01*
X275266Y90931D01*
X275257Y90891D01*
X275241Y90854D01*
X275222Y90737D01*
X275196Y90621D01*
X275197Y90580D01*
X275191Y90540D01*
X275202Y90421D01*
X275206Y90303D01*
X275217Y90264D01*
X275221Y90224D01*
X275261Y90111D01*
X275294Y89997D01*
X275315Y89962D01*
X275328Y89924D01*
X275395Y89826D01*
X275456Y89723D01*
X275495Y89678D01*
X275507Y89661D01*
X275522Y89648D01*
X275562Y89602D01*
X275638Y89526D01*
X275638Y83474D01*
X275562Y83397D01*
X275489Y83303D01*
X275410Y83214D01*
X275400Y83194D01*
X275392Y83184D01*
X275384Y83168D01*
X275367Y83146D01*
X275320Y83037D01*
X275266Y82931D01*
X275259Y82904D01*
X275256Y82896D01*
X275254Y82885D01*
X275241Y82854D01*
X275222Y82737D01*
X275196Y82621D01*
X275197Y82588D01*
X275196Y82584D01*
X275197Y82577D01*
X275191Y82540D01*
X275202Y82421D01*
X275206Y82303D01*
X275216Y82267D01*
X275217Y82264D01*
X275221Y82224D01*
X275261Y82111D01*
X275294Y81997D01*
X275315Y81962D01*
X275328Y81924D01*
X275395Y81826D01*
X275456Y81723D01*
X275495Y81678D01*
X275507Y81661D01*
X275522Y81648D01*
X275562Y81602D01*
X275638Y81526D01*
X275638Y75474D01*
X275562Y75397D01*
X275489Y75303D01*
X275410Y75214D01*
X275392Y75178D01*
X275367Y75146D01*
X275320Y75037D01*
X275266Y74931D01*
X275257Y74891D01*
X275241Y74854D01*
X275222Y74737D01*
X275196Y74621D01*
X275197Y74580D01*
X275191Y74540D01*
X275202Y74421D01*
X275206Y74303D01*
X275217Y74264D01*
X275221Y74224D01*
X275261Y74111D01*
X275294Y73997D01*
X275315Y73962D01*
X275328Y73924D01*
X275395Y73826D01*
X275456Y73723D01*
X275495Y73678D01*
X275507Y73661D01*
X275522Y73648D01*
X275562Y73602D01*
X275638Y73526D01*
X275638Y67474D01*
X274615Y66451D01*
X274597Y66427D01*
X274575Y66408D01*
X274500Y66302D01*
X274420Y66200D01*
X274409Y66173D01*
X274392Y66148D01*
X274346Y66027D01*
X274294Y65908D01*
X274289Y65879D01*
X274279Y65851D01*
X274265Y65722D01*
X274244Y65594D01*
X274247Y65564D01*
X274244Y65535D01*
X274262Y65406D01*
X274274Y65277D01*
X274284Y65249D01*
X274288Y65220D01*
X274340Y65068D01*
X274368Y65000D01*
X274368Y63769D01*
X270368Y63769D01*
X270367Y63769D01*
X266367Y63769D01*
X266367Y65000D01*
X266395Y65067D01*
X266402Y65096D01*
X266416Y65122D01*
X266444Y65249D01*
X266478Y65374D01*
X266479Y65404D01*
X266485Y65433D01*
X266482Y65563D01*
X266484Y65692D01*
X266477Y65721D01*
X266476Y65751D01*
X266440Y65876D01*
X266409Y66001D01*
X266396Y66028D01*
X266387Y66056D01*
X266321Y66168D01*
X266261Y66283D01*
X266241Y66305D01*
X266226Y66330D01*
X266119Y66451D01*
X265097Y67474D01*
X265097Y73526D01*
X265173Y73602D01*
X265246Y73697D01*
X265325Y73786D01*
X265343Y73822D01*
X265368Y73854D01*
X265415Y73963D01*
X265469Y74069D01*
X265478Y74109D01*
X265494Y74146D01*
X265513Y74263D01*
X265539Y74379D01*
X265538Y74420D01*
X265544Y74460D01*
X265533Y74578D01*
X265529Y74697D01*
X265518Y74736D01*
X265514Y74776D01*
X265474Y74889D01*
X265441Y75003D01*
X265420Y75037D01*
X265407Y75076D01*
X265340Y75174D01*
X265279Y75277D01*
X265239Y75322D01*
X265228Y75339D01*
X265213Y75352D01*
X265173Y75397D01*
X265097Y75474D01*
X265097Y81526D01*
X265173Y81602D01*
X265246Y81697D01*
X265325Y81786D01*
X265343Y81822D01*
X265368Y81854D01*
X265415Y81963D01*
X265469Y82069D01*
X265478Y82109D01*
X265494Y82146D01*
X265513Y82263D01*
X265539Y82379D01*
X265538Y82418D01*
X265538Y82423D01*
X265538Y82425D01*
X265544Y82460D01*
X265533Y82578D01*
X265529Y82697D01*
X265519Y82731D01*
X265519Y82740D01*
X265517Y82746D01*
X265514Y82776D01*
X265474Y82889D01*
X265441Y83003D01*
X265425Y83029D01*
X265421Y83043D01*
X265415Y83052D01*
X265407Y83076D01*
X265340Y83174D01*
X265279Y83277D01*
X265256Y83303D01*
X265251Y83312D01*
X265239Y83323D01*
X265228Y83339D01*
X265213Y83352D01*
X265173Y83397D01*
X265097Y83474D01*
X265097Y89526D01*
X265173Y89602D01*
X265246Y89697D01*
X265325Y89786D01*
X265343Y89822D01*
X265368Y89854D01*
X265415Y89963D01*
X265469Y90069D01*
X265478Y90108D01*
X265494Y90146D01*
X265513Y90263D01*
X265539Y90379D01*
X265538Y90420D01*
X265544Y90460D01*
X265533Y90578D01*
X265529Y90697D01*
X265518Y90736D01*
X265514Y90776D01*
X265474Y90889D01*
X265441Y91003D01*
X265420Y91037D01*
X265407Y91076D01*
X265340Y91174D01*
X265279Y91277D01*
X265239Y91322D01*
X265228Y91339D01*
X265213Y91352D01*
X265173Y91397D01*
X265097Y91474D01*
X265097Y97552D01*
X265183Y97655D01*
X265191Y97674D01*
X265204Y97690D01*
X265259Y97818D01*
X265318Y97943D01*
X265322Y97963D01*
X265330Y97982D01*
X265352Y98119D01*
X265378Y98256D01*
X265377Y98276D01*
X265380Y98296D01*
X265367Y98434D01*
X265358Y98573D01*
X265352Y98592D01*
X265350Y98612D01*
X265303Y98743D01*
X265260Y98875D01*
X265249Y98893D01*
X265243Y98912D01*
X265164Y99027D01*
X265090Y99144D01*
X265075Y99158D01*
X265064Y99175D01*
X264960Y99267D01*
X264858Y99362D01*
X264841Y99372D01*
X264826Y99385D01*
X264702Y99448D01*
X264580Y99516D01*
X264560Y99521D01*
X264542Y99530D01*
X264407Y99560D01*
X264272Y99595D01*
X264244Y99597D01*
X264232Y99600D01*
X264212Y99599D01*
X264111Y99605D01*
X252538Y99605D01*
X252440Y99593D01*
X252341Y99590D01*
X252283Y99573D01*
X252223Y99565D01*
X252131Y99529D01*
X252036Y99501D01*
X251983Y99471D01*
X251927Y99448D01*
X251847Y99390D01*
X251762Y99340D01*
X251686Y99274D01*
X251670Y99262D01*
X251662Y99252D01*
X251641Y99234D01*
X251267Y98859D01*
X248333Y98859D01*
X246259Y100933D01*
X246259Y104230D01*
X246253Y104283D01*
X246335Y104286D01*
X246354Y104291D01*
X246374Y104293D01*
X246506Y104335D01*
X246640Y104374D01*
X246658Y104385D01*
X246677Y104391D01*
X246794Y104465D01*
X246914Y104536D01*
X246935Y104554D01*
X246945Y104561D01*
X246960Y104576D01*
X247035Y104642D01*
X248333Y105941D01*
X251267Y105941D01*
X251641Y105566D01*
X251719Y105506D01*
X251791Y105438D01*
X251844Y105409D01*
X251892Y105372D01*
X251983Y105332D01*
X252070Y105284D01*
X252128Y105269D01*
X252184Y105245D01*
X252282Y105230D01*
X252378Y105205D01*
X252478Y105199D01*
X252498Y105195D01*
X252510Y105197D01*
X252538Y105195D01*
X264239Y105195D01*
X264337Y105207D01*
X264436Y105210D01*
X264494Y105227D01*
X264555Y105235D01*
X264647Y105271D01*
X264741Y105298D01*
X264794Y105329D01*
X264850Y105352D01*
X264930Y105410D01*
X265015Y105460D01*
X265091Y105526D01*
X265108Y105538D01*
X265116Y105548D01*
X265136Y105566D01*
X265172Y105602D01*
X265245Y105696D01*
X265325Y105786D01*
X265343Y105822D01*
X265367Y105853D01*
X265415Y105963D01*
X265469Y106069D01*
X265478Y106108D01*
X265494Y106145D01*
X265513Y106263D01*
X265539Y106379D01*
X265538Y106419D01*
X265544Y106459D01*
X265533Y106578D01*
X265529Y106697D01*
X265518Y106736D01*
X265514Y106776D01*
X265474Y106888D01*
X265441Y107003D01*
X265420Y107037D01*
X265407Y107075D01*
X265340Y107174D01*
X265279Y107277D01*
X265240Y107322D01*
X265228Y107338D01*
X265213Y107352D01*
X265173Y107397D01*
X265097Y107474D01*
X265097Y113590D01*
X265082Y113708D01*
X265074Y113827D01*
X265062Y113865D01*
X265057Y113906D01*
X265013Y114016D01*
X264976Y114129D01*
X264955Y114164D01*
X264940Y114201D01*
X264870Y114297D01*
X264806Y114398D01*
X264777Y114426D01*
X264753Y114459D01*
X264661Y114535D01*
X264574Y114616D01*
X264539Y114636D01*
X264508Y114661D01*
X264400Y114712D01*
X264296Y114770D01*
X264257Y114780D01*
X264220Y114797D01*
X264103Y114819D01*
X263988Y114849D01*
X263928Y114853D01*
X263908Y114857D01*
X263888Y114855D01*
X263827Y114859D01*
X248948Y114859D01*
X247459Y116348D01*
X247459Y120733D01*
X247447Y120831D01*
X247444Y120929D01*
X247427Y120988D01*
X247419Y121048D01*
X247383Y121140D01*
X247356Y121235D01*
X247325Y121287D01*
X247302Y121344D01*
X247244Y121424D01*
X247194Y121509D01*
X247128Y121585D01*
X247116Y121601D01*
X247106Y121609D01*
X247088Y121630D01*
X247035Y121683D01*
X246925Y121768D01*
X246818Y121857D01*
X246800Y121865D01*
X246784Y121878D01*
X246656Y121933D01*
X246530Y121992D01*
X246511Y121996D01*
X246492Y122004D01*
X246354Y122026D01*
X246245Y122047D01*
X246269Y122090D01*
X246329Y122182D01*
X246346Y122229D01*
X246370Y122272D01*
X246397Y122378D01*
X246433Y122482D01*
X246437Y122532D01*
X246449Y122580D01*
X246459Y122741D01*
X246459Y125090D01*
X246444Y125208D01*
X246437Y125327D01*
X246424Y125365D01*
X246419Y125406D01*
X246376Y125516D01*
X246339Y125629D01*
X246317Y125664D01*
X246302Y125701D01*
X246233Y125797D01*
X246169Y125898D01*
X246139Y125926D01*
X246116Y125959D01*
X246024Y126035D01*
X245937Y126116D01*
X245902Y126136D01*
X245871Y126161D01*
X245763Y126212D01*
X245659Y126270D01*
X245619Y126280D01*
X245583Y126297D01*
X245466Y126319D01*
X245351Y126349D01*
X245291Y126353D01*
X245271Y126357D01*
X245250Y126355D01*
X245190Y126359D01*
X233892Y126359D01*
X233794Y126347D01*
X233695Y126344D01*
X233637Y126327D01*
X233577Y126319D01*
X233485Y126283D01*
X233390Y126255D01*
X233337Y126225D01*
X233281Y126202D01*
X233201Y126144D01*
X233116Y126094D01*
X233040Y126028D01*
X233024Y126016D01*
X233016Y126006D01*
X232995Y125988D01*
X232367Y125359D01*
X229433Y125359D01*
X227359Y127433D01*
X227359Y130367D01*
X229433Y132441D01*
X232367Y132441D01*
X232693Y132115D01*
X232802Y132030D01*
X232909Y131941D01*
X232928Y131932D01*
X232944Y131920D01*
X233072Y131864D01*
X233197Y131805D01*
X233217Y131802D01*
X233236Y131794D01*
X233374Y131772D01*
X233510Y131746D01*
X233530Y131747D01*
X233550Y131744D01*
X233689Y131757D01*
X233827Y131765D01*
X233846Y131772D01*
X233866Y131773D01*
X233997Y131821D01*
X234129Y131863D01*
X234147Y131874D01*
X234166Y131881D01*
X234280Y131959D01*
X234398Y132034D01*
X234412Y132048D01*
X234429Y132060D01*
X234521Y132164D01*
X234616Y132265D01*
X234626Y132283D01*
X234639Y132298D01*
X234702Y132422D01*
X234770Y132544D01*
X234775Y132563D01*
X234784Y132581D01*
X234814Y132717D01*
X234849Y132852D01*
X234851Y132880D01*
X234854Y132892D01*
X234853Y132912D01*
X234859Y133012D01*
X234859Y135960D01*
X234844Y136078D01*
X234837Y136197D01*
X234824Y136235D01*
X234819Y136276D01*
X234776Y136386D01*
X234739Y136499D01*
X234717Y136534D01*
X234702Y136571D01*
X234633Y136667D01*
X234569Y136768D01*
X234539Y136796D01*
X234516Y136829D01*
X234424Y136905D01*
X234337Y136986D01*
X234302Y137006D01*
X234271Y137031D01*
X234163Y137082D01*
X234059Y137140D01*
X234019Y137150D01*
X233983Y137167D01*
X233866Y137189D01*
X233751Y137219D01*
X233691Y137223D01*
X233671Y137227D01*
X233650Y137225D01*
X233590Y137229D01*
X230841Y137229D01*
X230765Y137305D01*
X230671Y137378D01*
X230582Y137457D01*
X230546Y137476D01*
X230514Y137500D01*
X230404Y137548D01*
X230298Y137602D01*
X230259Y137611D01*
X230222Y137627D01*
X230104Y137645D01*
X229988Y137671D01*
X229948Y137670D01*
X229908Y137677D01*
X229789Y137665D01*
X229670Y137662D01*
X229631Y137651D01*
X229591Y137647D01*
X229479Y137606D01*
X229365Y137573D01*
X229330Y137553D01*
X229292Y137539D01*
X229193Y137472D01*
X229091Y137412D01*
X229045Y137372D01*
X229029Y137361D01*
X229015Y137345D01*
X228970Y137305D01*
X228894Y137229D01*
X222841Y137229D01*
X222765Y137305D01*
X222671Y137378D01*
X222582Y137457D01*
X222546Y137476D01*
X222514Y137500D01*
X222404Y137548D01*
X222298Y137602D01*
X222259Y137611D01*
X222222Y137627D01*
X222104Y137645D01*
X221988Y137671D01*
X221948Y137670D01*
X221908Y137677D01*
X221789Y137665D01*
X221670Y137662D01*
X221631Y137651D01*
X221591Y137647D01*
X221479Y137606D01*
X221365Y137573D01*
X221330Y137553D01*
X221292Y137539D01*
X221193Y137472D01*
X221091Y137412D01*
X221045Y137372D01*
X221029Y137361D01*
X221015Y137345D01*
X220970Y137305D01*
X220894Y137229D01*
X214841Y137229D01*
X214765Y137305D01*
X214671Y137378D01*
X214582Y137457D01*
X214546Y137476D01*
X214514Y137500D01*
X214404Y137548D01*
X214298Y137602D01*
X214259Y137611D01*
X214222Y137627D01*
X214104Y137645D01*
X213988Y137671D01*
X213948Y137670D01*
X213908Y137677D01*
X213789Y137665D01*
X213670Y137662D01*
X213631Y137651D01*
X213591Y137647D01*
X213479Y137606D01*
X213365Y137573D01*
X213330Y137553D01*
X213292Y137539D01*
X213193Y137472D01*
X213091Y137412D01*
X213045Y137372D01*
X213029Y137361D01*
X213015Y137345D01*
X212970Y137305D01*
X212894Y137229D01*
X206841Y137229D01*
X205818Y138252D01*
X205795Y138270D01*
X205776Y138293D01*
X205670Y138367D01*
X205567Y138447D01*
X205540Y138459D01*
X205516Y138476D01*
X205394Y138522D01*
X205275Y138573D01*
X205246Y138578D01*
X205218Y138588D01*
X205089Y138603D01*
X204961Y138623D01*
X204932Y138620D01*
X204902Y138624D01*
X204774Y138606D01*
X204644Y138593D01*
X204617Y138583D01*
X204587Y138579D01*
X204435Y138527D01*
X204367Y138499D01*
X203137Y138499D01*
X203137Y142500D01*
X203137Y146809D01*
X203149Y146817D01*
X203162Y146833D01*
X203179Y146844D01*
X203268Y146952D01*
X203360Y147056D01*
X203369Y147074D01*
X203382Y147089D01*
X203441Y147215D01*
X203504Y147339D01*
X203509Y147359D01*
X203517Y147377D01*
X203543Y147514D01*
X203574Y147649D01*
X203573Y147670D01*
X203577Y147689D01*
X203568Y147828D01*
X203564Y147967D01*
X203559Y147987D01*
X203557Y148007D01*
X203515Y148138D01*
X203476Y148273D01*
X203465Y148290D01*
X203459Y148309D01*
X203385Y148427D01*
X203314Y148547D01*
X203296Y148568D01*
X203289Y148578D01*
X203274Y148592D01*
X203208Y148667D01*
X201530Y150346D01*
X201451Y150406D01*
X201379Y150474D01*
X201326Y150503D01*
X201278Y150540D01*
X201188Y150580D01*
X201101Y150628D01*
X201042Y150643D01*
X200987Y150667D01*
X200889Y150682D01*
X200793Y150707D01*
X200693Y150713D01*
X200673Y150717D01*
X200660Y150715D01*
X200632Y150717D01*
X161440Y150717D01*
X161342Y150705D01*
X161243Y150702D01*
X161185Y150685D01*
X161125Y150677D01*
X161033Y150641D01*
X160937Y150613D01*
X160885Y150583D01*
X160829Y150560D01*
X160749Y150502D01*
X160663Y150452D01*
X160588Y150386D01*
X160572Y150374D01*
X160564Y150364D01*
X160543Y150346D01*
X159526Y149329D01*
X155674Y149329D01*
X154775Y150228D01*
X154697Y150288D01*
X154625Y150356D01*
X154572Y150385D01*
X154524Y150422D01*
X154433Y150462D01*
X154347Y150510D01*
X154288Y150525D01*
X154232Y150549D01*
X154134Y150564D01*
X154039Y150589D01*
X153939Y150595D01*
X153918Y150599D01*
X153906Y150597D01*
X153878Y150599D01*
X153769Y150599D01*
X153769Y152750D01*
X153754Y152868D01*
X153747Y152987D01*
X153735Y153025D01*
X153730Y153065D01*
X153686Y153176D01*
X153649Y153289D01*
X153627Y153323D01*
X153613Y153361D01*
X153543Y153457D01*
X153479Y153558D01*
X153478Y153558D01*
X153449Y153586D01*
X153426Y153618D01*
X153425Y153619D01*
X153333Y153695D01*
X153247Y153776D01*
X153211Y153796D01*
X153180Y153822D01*
X153073Y153872D01*
X152968Y153930D01*
X152929Y153940D01*
X152893Y153957D01*
X152776Y153979D01*
X152660Y154009D01*
X152600Y154013D01*
X152580Y154017D01*
X152560Y154016D01*
X152500Y154019D01*
X151099Y154019D01*
X151099Y154900D01*
X151100Y154901D01*
X152274Y154901D01*
X152412Y154918D01*
X152550Y154931D01*
X152569Y154938D01*
X152589Y154941D01*
X152719Y154992D01*
X152850Y155039D01*
X152866Y155050D01*
X152885Y155058D01*
X152998Y155139D01*
X153113Y155217D01*
X153126Y155233D01*
X153143Y155244D01*
X153231Y155352D01*
X153323Y155456D01*
X153332Y155474D01*
X153345Y155489D01*
X153404Y155614D01*
X153468Y155739D01*
X153472Y155759D01*
X153481Y155777D01*
X153507Y155913D01*
X153537Y156049D01*
X153537Y156070D01*
X153541Y156089D01*
X153532Y156228D01*
X153528Y156367D01*
X153522Y156387D01*
X153521Y156407D01*
X153478Y156539D01*
X153439Y156673D01*
X153429Y156690D01*
X153423Y156709D01*
X153349Y156827D01*
X153278Y156947D01*
X153259Y156968D01*
X153253Y156978D01*
X153238Y156992D01*
X153171Y157068D01*
X153047Y157192D01*
X153047Y161190D01*
X153032Y161308D01*
X153025Y161427D01*
X153012Y161465D01*
X153007Y161506D01*
X152964Y161616D01*
X152927Y161729D01*
X152905Y161764D01*
X152890Y161801D01*
X152821Y161897D01*
X152757Y161998D01*
X152727Y162026D01*
X152704Y162059D01*
X152612Y162135D01*
X152525Y162216D01*
X152490Y162236D01*
X152459Y162261D01*
X152351Y162312D01*
X152247Y162370D01*
X152207Y162380D01*
X152171Y162397D01*
X152054Y162419D01*
X151939Y162449D01*
X151879Y162453D01*
X151859Y162457D01*
X151838Y162455D01*
X151778Y162459D01*
X146952Y162459D01*
X146834Y162444D01*
X146715Y162437D01*
X146677Y162424D01*
X146636Y162419D01*
X146526Y162376D01*
X146413Y162339D01*
X146378Y162317D01*
X146341Y162302D01*
X146245Y162233D01*
X146144Y162169D01*
X146116Y162139D01*
X146083Y162116D01*
X146007Y162024D01*
X145926Y161937D01*
X145906Y161902D01*
X145881Y161871D01*
X145830Y161763D01*
X145772Y161659D01*
X145762Y161619D01*
X145745Y161583D01*
X145723Y161466D01*
X145693Y161351D01*
X145689Y161291D01*
X145685Y161271D01*
X145687Y161250D01*
X145683Y161190D01*
X145683Y157718D01*
X145682Y157717D01*
X139839Y157717D01*
X139839Y161190D01*
X139824Y161308D01*
X139817Y161427D01*
X139804Y161465D01*
X139799Y161506D01*
X139756Y161616D01*
X139719Y161729D01*
X139697Y161764D01*
X139682Y161801D01*
X139612Y161897D01*
X139549Y161998D01*
X139519Y162026D01*
X139495Y162059D01*
X139404Y162135D01*
X139317Y162216D01*
X139282Y162236D01*
X139251Y162261D01*
X139143Y162312D01*
X139039Y162370D01*
X138999Y162380D01*
X138963Y162397D01*
X138846Y162419D01*
X138731Y162449D01*
X138670Y162453D01*
X138650Y162457D01*
X138630Y162455D01*
X138570Y162459D01*
X136030Y162459D01*
X135912Y162444D01*
X135793Y162437D01*
X135755Y162424D01*
X135714Y162419D01*
X135604Y162376D01*
X135491Y162339D01*
X135456Y162317D01*
X135419Y162302D01*
X135323Y162233D01*
X135222Y162169D01*
X135194Y162139D01*
X135161Y162116D01*
X135086Y162024D01*
X135004Y161937D01*
X134984Y161902D01*
X134959Y161871D01*
X134908Y161763D01*
X134850Y161659D01*
X134840Y161619D01*
X134823Y161583D01*
X134801Y161466D01*
X134771Y161351D01*
X134767Y161291D01*
X134763Y161271D01*
X134765Y161250D01*
X134761Y161190D01*
X134761Y157717D01*
X128918Y157717D01*
X128917Y157718D01*
X128917Y161190D01*
X128902Y161308D01*
X128895Y161427D01*
X128882Y161465D01*
X128877Y161506D01*
X128834Y161616D01*
X128797Y161729D01*
X128775Y161764D01*
X128760Y161801D01*
X128691Y161897D01*
X128627Y161998D01*
X128597Y162026D01*
X128574Y162059D01*
X128482Y162135D01*
X128395Y162216D01*
X128360Y162236D01*
X128329Y162261D01*
X128221Y162312D01*
X128117Y162370D01*
X128077Y162380D01*
X128041Y162397D01*
X127924Y162419D01*
X127809Y162449D01*
X127749Y162453D01*
X127729Y162457D01*
X127708Y162455D01*
X127648Y162459D01*
X122822Y162459D01*
X122704Y162444D01*
X122585Y162437D01*
X122547Y162424D01*
X122506Y162419D01*
X122396Y162376D01*
X122283Y162339D01*
X122248Y162317D01*
X122211Y162302D01*
X122115Y162233D01*
X122014Y162169D01*
X121986Y162139D01*
X121953Y162116D01*
X121877Y162024D01*
X121796Y161937D01*
X121776Y161902D01*
X121751Y161871D01*
X121700Y161763D01*
X121642Y161659D01*
X121632Y161619D01*
X121615Y161583D01*
X121593Y161466D01*
X121563Y161351D01*
X121559Y161291D01*
X121555Y161271D01*
X121557Y161250D01*
X121553Y161190D01*
X121553Y157192D01*
X120808Y156447D01*
X102992Y156447D01*
X102247Y157192D01*
X102247Y161190D01*
X102232Y161308D01*
X102225Y161427D01*
X102212Y161465D01*
X102207Y161506D01*
X102164Y161616D01*
X102127Y161729D01*
X102105Y161764D01*
X102090Y161801D01*
X102021Y161897D01*
X101957Y161998D01*
X101927Y162026D01*
X101904Y162059D01*
X101812Y162135D01*
X101725Y162216D01*
X101690Y162236D01*
X101659Y162261D01*
X101551Y162312D01*
X101447Y162370D01*
X101407Y162380D01*
X101371Y162397D01*
X101254Y162419D01*
X101139Y162449D01*
X101079Y162453D01*
X101059Y162457D01*
X101038Y162455D01*
X100978Y162459D01*
X97422Y162459D01*
X97304Y162444D01*
X97185Y162437D01*
X97147Y162424D01*
X97106Y162419D01*
X96996Y162376D01*
X96883Y162339D01*
X96848Y162317D01*
X96811Y162302D01*
X96715Y162233D01*
X96614Y162169D01*
X96586Y162139D01*
X96553Y162116D01*
X96477Y162024D01*
X96396Y161937D01*
X96376Y161902D01*
X96351Y161871D01*
X96300Y161763D01*
X96242Y161659D01*
X96232Y161619D01*
X96215Y161583D01*
X96193Y161466D01*
X96163Y161351D01*
X96159Y161291D01*
X96155Y161271D01*
X96157Y161250D01*
X96153Y161190D01*
X96153Y157192D01*
X95408Y156447D01*
X77592Y156447D01*
X76847Y157192D01*
X76847Y161190D01*
X76832Y161308D01*
X76825Y161427D01*
X76812Y161465D01*
X76807Y161506D01*
X76764Y161616D01*
X76727Y161729D01*
X76705Y161764D01*
X76690Y161801D01*
X76621Y161897D01*
X76557Y161998D01*
X76527Y162026D01*
X76504Y162059D01*
X76412Y162135D01*
X76325Y162216D01*
X76290Y162236D01*
X76259Y162261D01*
X76151Y162312D01*
X76047Y162370D01*
X76007Y162380D01*
X75971Y162397D01*
X75854Y162419D01*
X75739Y162449D01*
X75679Y162453D01*
X75659Y162457D01*
X75638Y162455D01*
X75578Y162459D01*
X5000Y162459D01*
X4998Y162459D01*
X4995Y162459D01*
X4834Y162448D01*
X4526Y162408D01*
X4517Y162405D01*
X4508Y162405D01*
X4364Y162365D01*
X4219Y162327D01*
X4211Y162323D01*
X4202Y162320D01*
X4057Y162249D01*
X3524Y161941D01*
X3450Y161885D01*
X3371Y161837D01*
X3324Y161789D01*
X3271Y161748D01*
X3213Y161676D01*
X3149Y161610D01*
X3084Y161513D01*
X3073Y161499D01*
X3070Y161491D01*
X3059Y161476D01*
X2751Y160943D01*
X2748Y160934D01*
X2742Y160927D01*
X2686Y160788D01*
X2628Y160649D01*
X2627Y160640D01*
X2623Y160632D01*
X2592Y160474D01*
X2552Y160166D01*
X2552Y160163D01*
X2551Y160161D01*
X2541Y160000D01*
X2541Y103589D01*
X2547Y103539D01*
X2545Y103490D01*
X2567Y103382D01*
X2581Y103273D01*
X2599Y103227D01*
X2609Y103178D01*
X2657Y103080D01*
X2698Y102978D01*
X2727Y102937D01*
X2749Y102893D01*
X2820Y102809D01*
X2884Y102720D01*
X2923Y102689D01*
X2955Y102651D01*
X3045Y102587D01*
X3129Y102517D01*
X3174Y102496D01*
X3215Y102468D01*
X3318Y102429D01*
X3417Y102382D01*
X3466Y102373D01*
X3512Y102355D01*
X3622Y102343D01*
X3729Y102322D01*
X3779Y102325D01*
X3828Y102320D01*
X3937Y102335D01*
X4047Y102342D01*
X4094Y102357D01*
X4143Y102364D01*
X4296Y102416D01*
X4500Y102501D01*
X10501Y102501D01*
X10501Y99230D01*
X10516Y99112D01*
X10523Y98993D01*
X10535Y98955D01*
X10541Y98915D01*
X10584Y98804D01*
X10621Y98691D01*
X10643Y98657D01*
X10658Y98619D01*
X10727Y98523D01*
X10791Y98422D01*
X10821Y98394D01*
X10844Y98362D01*
X10936Y98286D01*
X11023Y98204D01*
X11058Y98185D01*
X11089Y98159D01*
X11197Y98108D01*
X11301Y98051D01*
X11341Y98041D01*
X11377Y98023D01*
X11494Y98001D01*
X11609Y97971D01*
X11669Y97967D01*
X11689Y97964D01*
X11710Y97965D01*
X11770Y97961D01*
X13230Y97961D01*
X13348Y97976D01*
X13467Y97983D01*
X13505Y97996D01*
X13546Y98001D01*
X13656Y98045D01*
X13769Y98081D01*
X13804Y98103D01*
X13841Y98118D01*
X13937Y98188D01*
X14038Y98251D01*
X14066Y98281D01*
X14099Y98305D01*
X14175Y98396D01*
X14256Y98483D01*
X14276Y98518D01*
X14301Y98550D01*
X14352Y98657D01*
X14410Y98762D01*
X14420Y98801D01*
X14437Y98837D01*
X14459Y98954D01*
X14489Y99070D01*
X14493Y99130D01*
X14497Y99150D01*
X14495Y99170D01*
X14499Y99230D01*
X14499Y102501D01*
X20500Y102501D01*
X20602Y102399D01*
X20697Y102326D01*
X20786Y102247D01*
X20822Y102228D01*
X20854Y102204D01*
X20963Y102156D01*
X21069Y102102D01*
X21108Y102093D01*
X21146Y102077D01*
X21263Y102059D01*
X21379Y102033D01*
X21420Y102034D01*
X21460Y102027D01*
X21578Y102039D01*
X21697Y102042D01*
X21736Y102053D01*
X21776Y102057D01*
X21888Y102097D01*
X22003Y102131D01*
X22037Y102151D01*
X22076Y102165D01*
X22174Y102232D01*
X22277Y102292D01*
X22322Y102332D01*
X22339Y102343D01*
X22352Y102359D01*
X22397Y102399D01*
X22500Y102501D01*
X42500Y102501D01*
X42501Y102500D01*
X42501Y62500D01*
X42500Y62499D01*
X22822Y62499D01*
X22724Y62487D01*
X22625Y62484D01*
X22567Y62467D01*
X22507Y62459D01*
X22414Y62423D01*
X22319Y62395D01*
X22267Y62365D01*
X22211Y62342D01*
X22131Y62284D01*
X22045Y62234D01*
X21970Y62168D01*
X21954Y62156D01*
X21946Y62146D01*
X21925Y62128D01*
X21180Y61383D01*
X21169Y61369D01*
X21155Y61358D01*
X21072Y61244D01*
X20985Y61131D01*
X20978Y61115D01*
X20967Y61101D01*
X20915Y60970D01*
X20858Y60840D01*
X20856Y60822D01*
X20849Y60806D01*
X20831Y60665D01*
X20809Y60525D01*
X20810Y60508D01*
X20808Y60491D01*
X20825Y60350D01*
X20838Y60209D01*
X20844Y60192D01*
X20846Y60175D01*
X20898Y60043D01*
X20946Y59910D01*
X20956Y59895D01*
X20962Y59879D01*
X21048Y59742D01*
X22101Y58283D01*
X22107Y58276D01*
X22112Y58268D01*
X22216Y58160D01*
X22318Y58051D01*
X22326Y58046D01*
X22332Y58039D01*
X22464Y57946D01*
X25035Y56358D01*
X25132Y56314D01*
X25225Y56262D01*
X25305Y56236D01*
X25325Y56227D01*
X25340Y56224D01*
X25377Y56211D01*
X26673Y55869D01*
X26756Y55858D01*
X26836Y55837D01*
X26980Y55828D01*
X26988Y55827D01*
X26991Y55827D01*
X26997Y55827D01*
X46240Y55827D01*
X46379Y55844D01*
X46518Y55857D01*
X46536Y55864D01*
X46556Y55867D01*
X46686Y55918D01*
X46817Y55965D01*
X46833Y55976D01*
X46851Y55984D01*
X46965Y56066D01*
X47080Y56144D01*
X47093Y56159D01*
X47109Y56170D01*
X47198Y56278D01*
X47290Y56383D01*
X47299Y56400D01*
X47312Y56415D01*
X47371Y56542D01*
X47435Y56666D01*
X47439Y56685D01*
X47447Y56703D01*
X47473Y56840D01*
X47504Y56977D01*
X47503Y56996D01*
X47507Y57015D01*
X47498Y57154D01*
X47495Y57271D01*
X48360Y57271D01*
X49100Y57271D01*
X49084Y57175D01*
X49058Y57059D01*
X49060Y57018D01*
X49053Y56978D01*
X49064Y56860D01*
X49068Y56741D01*
X49079Y56702D01*
X49083Y56662D01*
X49123Y56550D01*
X49156Y56435D01*
X49177Y56401D01*
X49191Y56362D01*
X49258Y56264D01*
X49318Y56161D01*
X49358Y56116D01*
X49369Y56099D01*
X49384Y56086D01*
X49424Y56041D01*
X50881Y54584D01*
X50881Y52496D01*
X49424Y51039D01*
X49351Y50945D01*
X49272Y50856D01*
X49254Y50820D01*
X49229Y50788D01*
X49182Y50679D01*
X49128Y50573D01*
X49119Y50533D01*
X49103Y50496D01*
X49084Y50378D01*
X49058Y50262D01*
X49060Y50222D01*
X49053Y50182D01*
X49064Y50063D01*
X49068Y49945D01*
X49079Y49906D01*
X49083Y49866D01*
X49103Y49809D01*
X48360Y49809D01*
X47489Y49809D01*
X47507Y49904D01*
X47506Y49923D01*
X47509Y49943D01*
X47496Y50082D01*
X47487Y50221D01*
X47481Y50240D01*
X47479Y50259D01*
X47432Y50391D01*
X47389Y50523D01*
X47379Y50540D01*
X47372Y50559D01*
X47294Y50674D01*
X47219Y50792D01*
X47205Y50806D01*
X47194Y50822D01*
X47089Y50914D01*
X46987Y51010D01*
X46970Y51020D01*
X46955Y51033D01*
X46831Y51096D01*
X46709Y51164D01*
X46690Y51168D01*
X46672Y51177D01*
X46536Y51208D01*
X46401Y51243D01*
X46374Y51245D01*
X46362Y51247D01*
X46342Y51247D01*
X46240Y51253D01*
X27751Y51253D01*
X27596Y51234D01*
X27441Y51215D01*
X27438Y51214D01*
X27435Y51213D01*
X27290Y51156D01*
X27211Y51125D01*
X26519Y51237D01*
X26498Y51238D01*
X26477Y51243D01*
X26316Y51253D01*
X25614Y51253D01*
X25551Y51303D01*
X25548Y51304D01*
X25546Y51305D01*
X25407Y51366D01*
X25260Y51430D01*
X25256Y51431D01*
X25254Y51432D01*
X25250Y51433D01*
X25103Y51466D01*
X23569Y51714D01*
X18969Y54553D01*
X15806Y58937D01*
X15495Y60252D01*
X15449Y60375D01*
X15408Y60499D01*
X15393Y60524D01*
X15383Y60550D01*
X15308Y60657D01*
X15238Y60768D01*
X15217Y60788D01*
X15201Y60811D01*
X15102Y60896D01*
X15007Y60986D01*
X14982Y61000D01*
X14960Y61018D01*
X14843Y61077D01*
X14728Y61140D01*
X14701Y61147D01*
X14675Y61159D01*
X14547Y61186D01*
X14420Y61219D01*
X14380Y61222D01*
X14364Y61225D01*
X14342Y61224D01*
X14260Y61229D01*
X13474Y61229D01*
X12451Y62252D01*
X12427Y62270D01*
X12408Y62293D01*
X12302Y62367D01*
X12200Y62447D01*
X12172Y62459D01*
X12148Y62476D01*
X12027Y62522D01*
X11908Y62573D01*
X11878Y62578D01*
X11851Y62588D01*
X11722Y62603D01*
X11594Y62623D01*
X11564Y62620D01*
X11535Y62624D01*
X11406Y62606D01*
X11277Y62593D01*
X11249Y62583D01*
X11220Y62579D01*
X11068Y62527D01*
X11000Y62499D01*
X9374Y62499D01*
X9374Y66145D01*
X9359Y66263D01*
X9352Y66382D01*
X9339Y66420D01*
X9334Y66460D01*
X9291Y66571D01*
X9254Y66684D01*
X9232Y66718D01*
X9217Y66756D01*
X9148Y66852D01*
X9084Y66953D01*
X9054Y66981D01*
X9031Y67013D01*
X8939Y67089D01*
X8852Y67171D01*
X8817Y67190D01*
X8786Y67216D01*
X8678Y67267D01*
X8574Y67324D01*
X8534Y67334D01*
X8498Y67352D01*
X8381Y67374D01*
X8266Y67404D01*
X8206Y67408D01*
X8186Y67411D01*
X8165Y67410D01*
X8105Y67414D01*
X7395Y67414D01*
X7277Y67399D01*
X7158Y67392D01*
X7120Y67379D01*
X7079Y67374D01*
X6969Y67330D01*
X6856Y67294D01*
X6821Y67272D01*
X6784Y67257D01*
X6687Y67187D01*
X6587Y67124D01*
X6559Y67094D01*
X6526Y67070D01*
X6450Y66979D01*
X6369Y66892D01*
X6349Y66857D01*
X6324Y66825D01*
X6273Y66718D01*
X6215Y66613D01*
X6205Y66574D01*
X6188Y66538D01*
X6166Y66421D01*
X6136Y66305D01*
X6132Y66245D01*
X6128Y66225D01*
X6130Y66205D01*
X6126Y66145D01*
X6126Y62499D01*
X4500Y62499D01*
X4296Y62584D01*
X4248Y62597D01*
X4203Y62618D01*
X4095Y62639D01*
X3989Y62668D01*
X3939Y62669D01*
X3890Y62678D01*
X3781Y62671D01*
X3671Y62673D01*
X3623Y62661D01*
X3573Y62658D01*
X3469Y62624D01*
X3362Y62599D01*
X3318Y62575D01*
X3271Y62560D01*
X3178Y62501D01*
X3081Y62450D01*
X3044Y62417D01*
X3002Y62390D01*
X2927Y62310D01*
X2845Y62236D01*
X2818Y62194D01*
X2784Y62158D01*
X2731Y62062D01*
X2671Y61970D01*
X2654Y61923D01*
X2630Y61880D01*
X2603Y61774D01*
X2567Y61670D01*
X2563Y61620D01*
X2551Y61572D01*
X2541Y61411D01*
X2541Y5000D01*
X2541Y4997D01*
X2541Y4995D01*
X2552Y4834D01*
X2592Y4526D01*
X2595Y4517D01*
X2595Y4508D01*
X2635Y4364D01*
X2673Y4219D01*
X2677Y4211D01*
X2680Y4202D01*
X2751Y4057D01*
X3059Y3524D01*
X3115Y3450D01*
X3163Y3371D01*
X3211Y3324D01*
X3252Y3271D01*
X3324Y3213D01*
X3390Y3149D01*
X3487Y3084D01*
X3501Y3073D01*
X3509Y3070D01*
X3524Y3059D01*
X4057Y2751D01*
X4066Y2748D01*
X4073Y2742D01*
X4212Y2686D01*
X4351Y2628D01*
X4360Y2627D01*
X4368Y2623D01*
X4526Y2592D01*
X4834Y2552D01*
X4837Y2552D01*
X4839Y2551D01*
X5000Y2541D01*
X280000Y2541D01*
X280003Y2541D01*
G37*
%LPC*%
G36*
X110295Y5659D02*
X110295Y5659D01*
X110276Y5670D01*
X110218Y5685D01*
X110162Y5709D01*
X110064Y5724D01*
X109968Y5749D01*
X109868Y5755D01*
X109848Y5759D01*
X109836Y5757D01*
X109808Y5759D01*
X56054Y5759D01*
X41259Y20554D01*
X41259Y42032D01*
X45308Y46081D01*
X46125Y46081D01*
X46175Y46087D01*
X46224Y46085D01*
X46332Y46107D01*
X46441Y46121D01*
X46487Y46139D01*
X46536Y46149D01*
X46634Y46197D01*
X46737Y46238D01*
X46777Y46267D01*
X46821Y46289D01*
X46905Y46360D01*
X46994Y46424D01*
X47026Y46463D01*
X47063Y46495D01*
X47127Y46585D01*
X47197Y46669D01*
X47218Y46714D01*
X47246Y46755D01*
X47285Y46858D01*
X47332Y46957D01*
X47342Y47006D01*
X47359Y47052D01*
X47371Y47162D01*
X47392Y47269D01*
X47392Y47271D01*
X48360Y47271D01*
X49111Y47271D01*
X49099Y47189D01*
X49072Y47073D01*
X49074Y47032D01*
X49067Y46993D01*
X49078Y46874D01*
X49082Y46755D01*
X49093Y46716D01*
X49097Y46676D01*
X49137Y46564D01*
X49171Y46449D01*
X49191Y46415D01*
X49205Y46377D01*
X49272Y46278D01*
X49332Y46176D01*
X49372Y46130D01*
X49383Y46114D01*
X49399Y46100D01*
X49438Y46055D01*
X50901Y44592D01*
X50901Y42350D01*
X50916Y42232D01*
X50923Y42113D01*
X50936Y42075D01*
X50941Y42034D01*
X50984Y41924D01*
X51021Y41811D01*
X51043Y41776D01*
X51058Y41739D01*
X51127Y41643D01*
X51191Y41542D01*
X51221Y41514D01*
X51244Y41481D01*
X51336Y41405D01*
X51423Y41324D01*
X51458Y41304D01*
X51489Y41279D01*
X51597Y41228D01*
X51701Y41170D01*
X51741Y41160D01*
X51777Y41143D01*
X51894Y41121D01*
X52009Y41091D01*
X52069Y41087D01*
X52089Y41083D01*
X52110Y41085D01*
X52170Y41081D01*
X54412Y41081D01*
X55875Y39618D01*
X55969Y39545D01*
X56058Y39467D01*
X56094Y39448D01*
X56126Y39424D01*
X56235Y39376D01*
X56341Y39322D01*
X56381Y39313D01*
X56418Y39297D01*
X56536Y39278D01*
X56652Y39252D01*
X56692Y39254D01*
X56732Y39247D01*
X56851Y39258D01*
X56969Y39262D01*
X57008Y39273D01*
X57049Y39277D01*
X57161Y39317D01*
X57275Y39351D01*
X57310Y39371D01*
X57348Y39385D01*
X57446Y39452D01*
X57542Y39508D01*
X57524Y39489D01*
X57491Y39465D01*
X57415Y39373D01*
X57334Y39287D01*
X57314Y39251D01*
X57288Y39220D01*
X57238Y39113D01*
X57180Y39008D01*
X57170Y38969D01*
X57153Y38933D01*
X57131Y38816D01*
X57101Y38700D01*
X57097Y38640D01*
X57093Y38620D01*
X57094Y38600D01*
X57091Y38540D01*
X57091Y37566D01*
X57031Y37567D01*
X56983Y37555D01*
X56933Y37552D01*
X56829Y37518D01*
X56722Y37493D01*
X56678Y37470D01*
X56631Y37454D01*
X56538Y37396D01*
X56441Y37344D01*
X56404Y37311D01*
X56362Y37284D01*
X56287Y37204D01*
X56205Y37130D01*
X56178Y37089D01*
X56144Y37052D01*
X56091Y36956D01*
X56031Y36864D01*
X56014Y36817D01*
X55990Y36774D01*
X55963Y36668D01*
X55927Y36564D01*
X55923Y36514D01*
X55911Y36466D01*
X55901Y36305D01*
X55901Y24362D01*
X55918Y24224D01*
X55931Y24086D01*
X55938Y24067D01*
X55941Y24047D01*
X55992Y23917D01*
X56039Y23786D01*
X56050Y23770D01*
X56058Y23751D01*
X56139Y23638D01*
X56217Y23523D01*
X56233Y23510D01*
X56244Y23493D01*
X56352Y23405D01*
X56456Y23313D01*
X56474Y23304D01*
X56489Y23291D01*
X56615Y23232D01*
X56739Y23168D01*
X56759Y23164D01*
X56777Y23155D01*
X56913Y23129D01*
X57049Y23099D01*
X57070Y23099D01*
X57089Y23095D01*
X57228Y23104D01*
X57367Y23108D01*
X57387Y23114D01*
X57407Y23115D01*
X57539Y23158D01*
X57673Y23197D01*
X57690Y23207D01*
X57709Y23213D01*
X57827Y23287D01*
X57947Y23358D01*
X57968Y23377D01*
X57978Y23383D01*
X57992Y23398D01*
X58067Y23465D01*
X59178Y24575D01*
X59238Y24653D01*
X59306Y24725D01*
X59335Y24778D01*
X59372Y24826D01*
X59412Y24917D01*
X59460Y25003D01*
X59475Y25062D01*
X59499Y25118D01*
X59514Y25216D01*
X59539Y25311D01*
X59545Y25411D01*
X59549Y25432D01*
X59547Y25444D01*
X59549Y25472D01*
X59549Y25631D01*
X61300Y25631D01*
X63098Y25631D01*
X63134Y25538D01*
X63171Y25425D01*
X63193Y25390D01*
X63208Y25353D01*
X63277Y25257D01*
X63341Y25156D01*
X63371Y25128D01*
X63394Y25095D01*
X63486Y25019D01*
X63573Y24938D01*
X63608Y24918D01*
X63639Y24893D01*
X63747Y24842D01*
X63851Y24784D01*
X63891Y24774D01*
X63927Y24757D01*
X64044Y24735D01*
X64159Y24705D01*
X64219Y24701D01*
X64239Y24697D01*
X64260Y24699D01*
X64320Y24695D01*
X65060Y24695D01*
X65178Y24710D01*
X65297Y24717D01*
X65335Y24730D01*
X65376Y24735D01*
X65486Y24778D01*
X65599Y24815D01*
X65634Y24837D01*
X65671Y24852D01*
X65767Y24921D01*
X65868Y24985D01*
X65896Y25015D01*
X65929Y25038D01*
X66005Y25130D01*
X66086Y25217D01*
X66106Y25252D01*
X66131Y25283D01*
X66182Y25391D01*
X66240Y25495D01*
X66250Y25535D01*
X66267Y25571D01*
X66289Y25688D01*
X66319Y25803D01*
X66323Y25863D01*
X66327Y25883D01*
X66325Y25904D01*
X66329Y25964D01*
X66329Y33826D01*
X67074Y34571D01*
X70700Y34571D01*
X70838Y34588D01*
X70977Y34601D01*
X70996Y34608D01*
X71016Y34611D01*
X71145Y34662D01*
X71276Y34709D01*
X71293Y34720D01*
X71311Y34728D01*
X71424Y34809D01*
X71539Y34887D01*
X71552Y34903D01*
X71569Y34914D01*
X71658Y35022D01*
X71749Y35126D01*
X71759Y35144D01*
X71772Y35159D01*
X71831Y35285D01*
X71894Y35409D01*
X71899Y35429D01*
X71907Y35447D01*
X71933Y35583D01*
X71964Y35719D01*
X71963Y35740D01*
X71967Y35759D01*
X71958Y35898D01*
X71954Y36037D01*
X71948Y36057D01*
X71947Y36077D01*
X71904Y36209D01*
X71866Y36343D01*
X71855Y36360D01*
X71849Y36379D01*
X71775Y36497D01*
X71704Y36617D01*
X71685Y36638D01*
X71679Y36648D01*
X71664Y36662D01*
X71598Y36737D01*
X70859Y37476D01*
X70765Y37549D01*
X70676Y37627D01*
X70640Y37646D01*
X70608Y37671D01*
X70499Y37718D01*
X70393Y37772D01*
X70354Y37781D01*
X70316Y37797D01*
X70199Y37816D01*
X70083Y37842D01*
X70042Y37840D01*
X70002Y37847D01*
X69884Y37836D01*
X69765Y37832D01*
X69726Y37821D01*
X69686Y37817D01*
X69629Y37797D01*
X69629Y38540D01*
X69614Y38658D01*
X69607Y38777D01*
X69595Y38815D01*
X69590Y38855D01*
X69546Y38966D01*
X69509Y39079D01*
X69487Y39113D01*
X69473Y39151D01*
X69403Y39247D01*
X69339Y39348D01*
X69309Y39376D01*
X69286Y39408D01*
X69194Y39484D01*
X69107Y39566D01*
X69072Y39585D01*
X69041Y39611D01*
X68933Y39662D01*
X68829Y39719D01*
X68790Y39729D01*
X68753Y39747D01*
X68636Y39769D01*
X68521Y39799D01*
X68461Y39803D01*
X68441Y39806D01*
X68440Y39806D01*
X68420Y39805D01*
X68360Y39809D01*
X68242Y39794D01*
X68123Y39787D01*
X68084Y39774D01*
X68044Y39769D01*
X67934Y39725D01*
X67820Y39689D01*
X67786Y39667D01*
X67749Y39652D01*
X67652Y39582D01*
X67552Y39518D01*
X67524Y39489D01*
X67491Y39465D01*
X67415Y39373D01*
X67334Y39287D01*
X67314Y39251D01*
X67288Y39220D01*
X67238Y39113D01*
X67180Y39008D01*
X67170Y38969D01*
X67153Y38933D01*
X67131Y38816D01*
X67101Y38700D01*
X67097Y38640D01*
X67093Y38620D01*
X67094Y38600D01*
X67091Y38540D01*
X67091Y37800D01*
X66995Y37816D01*
X66879Y37842D01*
X66838Y37840D01*
X66798Y37847D01*
X66680Y37836D01*
X66561Y37832D01*
X66522Y37821D01*
X66482Y37817D01*
X66370Y37777D01*
X66255Y37744D01*
X66221Y37723D01*
X66183Y37709D01*
X66084Y37643D01*
X65981Y37582D01*
X65936Y37542D01*
X65919Y37531D01*
X65906Y37516D01*
X65861Y37476D01*
X64404Y36019D01*
X62316Y36019D01*
X60859Y37476D01*
X60765Y37549D01*
X60676Y37627D01*
X60640Y37646D01*
X60608Y37671D01*
X60499Y37718D01*
X60393Y37772D01*
X60354Y37781D01*
X60316Y37797D01*
X60199Y37816D01*
X60083Y37842D01*
X60042Y37840D01*
X60002Y37847D01*
X59884Y37836D01*
X59765Y37832D01*
X59726Y37821D01*
X59686Y37817D01*
X59629Y37797D01*
X59629Y38540D01*
X59614Y38658D01*
X59607Y38777D01*
X59595Y38815D01*
X59590Y38855D01*
X59546Y38966D01*
X59509Y39079D01*
X59487Y39113D01*
X59473Y39151D01*
X59403Y39247D01*
X59339Y39348D01*
X59309Y39376D01*
X59286Y39408D01*
X59194Y39484D01*
X59107Y39566D01*
X59072Y39585D01*
X59041Y39611D01*
X58933Y39662D01*
X58829Y39719D01*
X58790Y39729D01*
X58753Y39747D01*
X58636Y39769D01*
X58521Y39799D01*
X58461Y39803D01*
X58441Y39806D01*
X58440Y39806D01*
X58420Y39805D01*
X58360Y39809D01*
X58242Y39794D01*
X58123Y39787D01*
X58084Y39774D01*
X58044Y39769D01*
X57934Y39725D01*
X57820Y39689D01*
X57786Y39667D01*
X57749Y39652D01*
X57652Y39582D01*
X57567Y39528D01*
X57594Y39552D01*
X57611Y39563D01*
X57624Y39579D01*
X57670Y39618D01*
X57820Y39769D01*
X57893Y39863D01*
X57972Y39952D01*
X57990Y39988D01*
X58015Y40020D01*
X58062Y40129D01*
X58116Y40235D01*
X58125Y40275D01*
X58141Y40312D01*
X58160Y40430D01*
X58186Y40546D01*
X58185Y40586D01*
X58191Y40626D01*
X58180Y40745D01*
X58176Y40864D01*
X58165Y40902D01*
X58161Y40943D01*
X58121Y41055D01*
X58088Y41169D01*
X58067Y41204D01*
X58054Y41242D01*
X57987Y41340D01*
X57926Y41443D01*
X57887Y41488D01*
X57875Y41505D01*
X57860Y41519D01*
X57820Y41564D01*
X53045Y46339D01*
X53045Y50741D01*
X55468Y53164D01*
X55528Y53242D01*
X55596Y53314D01*
X55625Y53367D01*
X55662Y53415D01*
X55702Y53506D01*
X55750Y53593D01*
X55765Y53651D01*
X55789Y53707D01*
X55804Y53805D01*
X55829Y53900D01*
X55835Y54001D01*
X55839Y54021D01*
X55837Y54033D01*
X55839Y54061D01*
X55839Y54584D01*
X56398Y55142D01*
X56471Y55236D01*
X56549Y55326D01*
X56568Y55362D01*
X56593Y55394D01*
X56640Y55503D01*
X56694Y55609D01*
X56703Y55648D01*
X56719Y55686D01*
X56738Y55803D01*
X56764Y55919D01*
X56762Y55960D01*
X56769Y56000D01*
X56758Y56118D01*
X56754Y56237D01*
X56743Y56276D01*
X56739Y56316D01*
X56699Y56429D01*
X56666Y56543D01*
X56645Y56577D01*
X56631Y56616D01*
X56565Y56714D01*
X56504Y56817D01*
X56464Y56862D01*
X56453Y56879D01*
X56438Y56892D01*
X56398Y56937D01*
X55839Y57496D01*
X55839Y59584D01*
X56398Y60142D01*
X56471Y60236D01*
X56549Y60326D01*
X56568Y60362D01*
X56593Y60394D01*
X56640Y60503D01*
X56694Y60609D01*
X56703Y60648D01*
X56719Y60686D01*
X56738Y60803D01*
X56764Y60919D01*
X56762Y60960D01*
X56769Y61000D01*
X56758Y61118D01*
X56754Y61237D01*
X56743Y61276D01*
X56739Y61316D01*
X56699Y61428D01*
X56666Y61543D01*
X56645Y61577D01*
X56631Y61616D01*
X56565Y61714D01*
X56504Y61817D01*
X56464Y61862D01*
X56453Y61879D01*
X56438Y61892D01*
X56398Y61937D01*
X55839Y62496D01*
X55839Y64584D01*
X57296Y66041D01*
X57369Y66135D01*
X57447Y66224D01*
X57466Y66260D01*
X57491Y66292D01*
X57538Y66401D01*
X57592Y66507D01*
X57601Y66546D01*
X57617Y66584D01*
X57636Y66701D01*
X57662Y66817D01*
X57660Y66858D01*
X57667Y66898D01*
X57656Y67016D01*
X57652Y67135D01*
X57641Y67174D01*
X57637Y67214D01*
X57617Y67271D01*
X58360Y67271D01*
X59100Y67271D01*
X59084Y67175D01*
X59058Y67059D01*
X59060Y67018D01*
X59053Y66978D01*
X59064Y66860D01*
X59068Y66741D01*
X59079Y66702D01*
X59083Y66662D01*
X59123Y66549D01*
X59156Y66435D01*
X59177Y66401D01*
X59191Y66362D01*
X59257Y66264D01*
X59318Y66161D01*
X59358Y66116D01*
X59369Y66099D01*
X59384Y66086D01*
X59424Y66041D01*
X60861Y64604D01*
X60955Y64531D01*
X61044Y64453D01*
X61080Y64434D01*
X61112Y64409D01*
X61221Y64362D01*
X61327Y64308D01*
X61366Y64299D01*
X61404Y64283D01*
X61521Y64264D01*
X61637Y64238D01*
X61678Y64240D01*
X61718Y64233D01*
X61836Y64244D01*
X61955Y64248D01*
X61994Y64259D01*
X62034Y64263D01*
X62091Y64283D01*
X62091Y63540D01*
X62091Y62800D01*
X61995Y62816D01*
X61879Y62842D01*
X61838Y62840D01*
X61798Y62847D01*
X61679Y62836D01*
X61561Y62832D01*
X61522Y62821D01*
X61482Y62817D01*
X61369Y62777D01*
X61255Y62744D01*
X61220Y62723D01*
X61182Y62709D01*
X61084Y62643D01*
X60981Y62582D01*
X60936Y62542D01*
X60919Y62531D01*
X60906Y62516D01*
X60860Y62476D01*
X60322Y61937D01*
X60249Y61843D01*
X60171Y61754D01*
X60152Y61718D01*
X60127Y61686D01*
X60080Y61577D01*
X60026Y61471D01*
X60017Y61431D01*
X60001Y61394D01*
X59982Y61277D01*
X59956Y61161D01*
X59958Y61120D01*
X59951Y61080D01*
X59962Y60962D01*
X59966Y60843D01*
X59977Y60804D01*
X59981Y60764D01*
X60021Y60652D01*
X60054Y60537D01*
X60075Y60502D01*
X60089Y60464D01*
X60155Y60366D01*
X60216Y60263D01*
X60256Y60218D01*
X60267Y60201D01*
X60283Y60188D01*
X60322Y60142D01*
X60881Y59584D01*
X60881Y57330D01*
X60896Y57212D01*
X60903Y57093D01*
X60916Y57055D01*
X60921Y57014D01*
X60964Y56904D01*
X61001Y56791D01*
X61023Y56756D01*
X61038Y56719D01*
X61107Y56623D01*
X61171Y56522D01*
X61201Y56494D01*
X61224Y56461D01*
X61316Y56385D01*
X61403Y56304D01*
X61438Y56284D01*
X61469Y56259D01*
X61577Y56208D01*
X61681Y56150D01*
X61721Y56140D01*
X61757Y56123D01*
X61874Y56101D01*
X61989Y56071D01*
X62049Y56067D01*
X62069Y56063D01*
X62090Y56065D01*
X62150Y56061D01*
X64404Y56061D01*
X65881Y54584D01*
X65881Y52496D01*
X64424Y51039D01*
X64351Y50945D01*
X64272Y50856D01*
X64254Y50820D01*
X64229Y50788D01*
X64182Y50679D01*
X64128Y50573D01*
X64119Y50533D01*
X64103Y50496D01*
X64084Y50378D01*
X64058Y50262D01*
X64060Y50222D01*
X64053Y50182D01*
X64064Y50063D01*
X64068Y49945D01*
X64079Y49906D01*
X64083Y49866D01*
X64103Y49809D01*
X63360Y49809D01*
X63242Y49794D01*
X63123Y49787D01*
X63085Y49775D01*
X63045Y49770D01*
X62934Y49726D01*
X62821Y49689D01*
X62787Y49667D01*
X62749Y49653D01*
X62653Y49583D01*
X62552Y49519D01*
X62524Y49489D01*
X62492Y49466D01*
X62416Y49374D01*
X62334Y49287D01*
X62315Y49252D01*
X62289Y49221D01*
X62238Y49113D01*
X62181Y49009D01*
X62171Y48970D01*
X62153Y48933D01*
X62131Y48816D01*
X62101Y48701D01*
X62097Y48641D01*
X62094Y48621D01*
X62094Y48620D01*
X62095Y48600D01*
X62091Y48540D01*
X62106Y48422D01*
X62113Y48303D01*
X62126Y48264D01*
X62131Y48224D01*
X62175Y48114D01*
X62211Y48000D01*
X62233Y47966D01*
X62248Y47929D01*
X62318Y47832D01*
X62382Y47732D01*
X62411Y47704D01*
X62435Y47671D01*
X62527Y47595D01*
X62613Y47514D01*
X62649Y47494D01*
X62680Y47468D01*
X62787Y47418D01*
X62892Y47360D01*
X62931Y47350D01*
X62967Y47333D01*
X63084Y47311D01*
X63200Y47281D01*
X63260Y47277D01*
X63280Y47273D01*
X63300Y47274D01*
X63360Y47271D01*
X68360Y47271D01*
X68478Y47286D01*
X68597Y47293D01*
X68635Y47305D01*
X68675Y47310D01*
X68786Y47354D01*
X68899Y47391D01*
X68933Y47413D01*
X68971Y47427D01*
X69067Y47497D01*
X69168Y47561D01*
X69196Y47591D01*
X69228Y47614D01*
X69229Y47615D01*
X69305Y47706D01*
X69363Y47769D01*
X69386Y47793D01*
X69406Y47829D01*
X69432Y47860D01*
X69482Y47967D01*
X69540Y48072D01*
X69550Y48111D01*
X69567Y48147D01*
X69589Y48264D01*
X69619Y48380D01*
X69623Y48440D01*
X69627Y48460D01*
X69626Y48480D01*
X69629Y48540D01*
X69629Y49280D01*
X69725Y49264D01*
X69841Y49238D01*
X69882Y49240D01*
X69922Y49233D01*
X70040Y49244D01*
X70159Y49248D01*
X70198Y49259D01*
X70238Y49263D01*
X70351Y49303D01*
X70465Y49336D01*
X70499Y49357D01*
X70538Y49371D01*
X70636Y49437D01*
X70739Y49498D01*
X70784Y49538D01*
X70801Y49549D01*
X70814Y49564D01*
X70859Y49604D01*
X71398Y50142D01*
X71471Y50237D01*
X71549Y50326D01*
X71568Y50362D01*
X71593Y50394D01*
X71640Y50503D01*
X71694Y50609D01*
X71703Y50648D01*
X71719Y50686D01*
X71738Y50803D01*
X71764Y50919D01*
X71762Y50960D01*
X71769Y51000D01*
X71758Y51118D01*
X71754Y51237D01*
X71743Y51276D01*
X71739Y51316D01*
X71699Y51429D01*
X71666Y51543D01*
X71645Y51577D01*
X71631Y51616D01*
X71565Y51714D01*
X71504Y51817D01*
X71464Y51862D01*
X71453Y51879D01*
X71438Y51892D01*
X71398Y51937D01*
X70839Y52496D01*
X70839Y54584D01*
X72316Y56061D01*
X74570Y56061D01*
X74688Y56076D01*
X74807Y56083D01*
X74845Y56096D01*
X74886Y56101D01*
X74996Y56144D01*
X75109Y56181D01*
X75144Y56203D01*
X75181Y56218D01*
X75277Y56287D01*
X75378Y56351D01*
X75406Y56381D01*
X75439Y56404D01*
X75515Y56496D01*
X75596Y56583D01*
X75616Y56618D01*
X75641Y56649D01*
X75692Y56757D01*
X75750Y56861D01*
X75760Y56901D01*
X75777Y56937D01*
X75799Y57054D01*
X75829Y57169D01*
X75833Y57229D01*
X75837Y57249D01*
X75835Y57270D01*
X75839Y57330D01*
X75839Y59750D01*
X75824Y59868D01*
X75817Y59987D01*
X75804Y60025D01*
X75799Y60066D01*
X75756Y60176D01*
X75719Y60289D01*
X75697Y60324D01*
X75682Y60361D01*
X75613Y60457D01*
X75549Y60558D01*
X75519Y60586D01*
X75496Y60619D01*
X75404Y60695D01*
X75317Y60776D01*
X75282Y60796D01*
X75251Y60821D01*
X75143Y60872D01*
X75039Y60930D01*
X74999Y60940D01*
X74963Y60957D01*
X74846Y60979D01*
X74731Y61009D01*
X74671Y61013D01*
X74651Y61017D01*
X74630Y61015D01*
X74570Y61019D01*
X72316Y61019D01*
X70839Y62496D01*
X70839Y64584D01*
X72296Y66041D01*
X72369Y66135D01*
X72448Y66224D01*
X72466Y66260D01*
X72491Y66292D01*
X72538Y66401D01*
X72592Y66507D01*
X72601Y66547D01*
X72617Y66584D01*
X72636Y66702D01*
X72662Y66818D01*
X72660Y66858D01*
X72667Y66898D01*
X72656Y67017D01*
X72652Y67135D01*
X72641Y67174D01*
X72637Y67214D01*
X72617Y67271D01*
X73360Y67271D01*
X77091Y67271D01*
X77091Y63540D01*
X77106Y63422D01*
X77113Y63303D01*
X77125Y63265D01*
X77130Y63225D01*
X77174Y63114D01*
X77211Y63001D01*
X77233Y62967D01*
X77247Y62929D01*
X77317Y62833D01*
X77381Y62732D01*
X77382Y62732D01*
X77411Y62704D01*
X77434Y62672D01*
X77435Y62671D01*
X77527Y62595D01*
X77613Y62514D01*
X77649Y62494D01*
X77680Y62468D01*
X77787Y62418D01*
X77892Y62360D01*
X77931Y62350D01*
X77967Y62333D01*
X78084Y62311D01*
X78200Y62281D01*
X78260Y62277D01*
X78280Y62273D01*
X78300Y62274D01*
X78360Y62271D01*
X79100Y62271D01*
X79084Y62175D01*
X79058Y62059D01*
X79060Y62018D01*
X79053Y61978D01*
X79064Y61860D01*
X79068Y61741D01*
X79079Y61702D01*
X79083Y61662D01*
X79123Y61550D01*
X79156Y61435D01*
X79177Y61401D01*
X79191Y61363D01*
X79257Y61264D01*
X79318Y61161D01*
X79358Y61116D01*
X79369Y61099D01*
X79384Y61086D01*
X79424Y61041D01*
X80881Y59584D01*
X80881Y57496D01*
X80322Y56938D01*
X80249Y56844D01*
X80171Y56754D01*
X80152Y56718D01*
X80127Y56686D01*
X80080Y56577D01*
X80026Y56471D01*
X80017Y56432D01*
X80001Y56394D01*
X79982Y56277D01*
X79956Y56161D01*
X79958Y56120D01*
X79951Y56080D01*
X79962Y55962D01*
X79966Y55843D01*
X79977Y55804D01*
X79981Y55764D01*
X80021Y55651D01*
X80054Y55537D01*
X80075Y55503D01*
X80089Y55464D01*
X80155Y55366D01*
X80216Y55263D01*
X80256Y55218D01*
X80267Y55201D01*
X80282Y55188D01*
X80322Y55143D01*
X80881Y54584D01*
X80881Y52496D01*
X79424Y51039D01*
X79351Y50945D01*
X79273Y50856D01*
X79254Y50820D01*
X79229Y50788D01*
X79182Y50679D01*
X79128Y50573D01*
X79119Y50534D01*
X79103Y50496D01*
X79084Y50379D01*
X79058Y50263D01*
X79060Y50222D01*
X79053Y50182D01*
X79064Y50064D01*
X79068Y49945D01*
X79079Y49906D01*
X79083Y49866D01*
X79103Y49809D01*
X78360Y49809D01*
X78242Y49794D01*
X78123Y49787D01*
X78085Y49775D01*
X78045Y49770D01*
X77934Y49726D01*
X77821Y49689D01*
X77787Y49667D01*
X77749Y49653D01*
X77653Y49583D01*
X77552Y49519D01*
X77524Y49489D01*
X77492Y49466D01*
X77416Y49374D01*
X77334Y49287D01*
X77315Y49252D01*
X77289Y49221D01*
X77238Y49113D01*
X77181Y49009D01*
X77171Y48970D01*
X77153Y48933D01*
X77131Y48816D01*
X77101Y48701D01*
X77097Y48641D01*
X77094Y48621D01*
X77094Y48620D01*
X77095Y48600D01*
X77091Y48540D01*
X77106Y48422D01*
X77113Y48303D01*
X77126Y48264D01*
X77131Y48224D01*
X77175Y48114D01*
X77211Y48000D01*
X77233Y47966D01*
X77248Y47929D01*
X77318Y47832D01*
X77382Y47732D01*
X77411Y47704D01*
X77435Y47671D01*
X77527Y47595D01*
X77613Y47514D01*
X77649Y47494D01*
X77680Y47468D01*
X77787Y47418D01*
X77892Y47360D01*
X77931Y47350D01*
X77967Y47333D01*
X78084Y47311D01*
X78200Y47281D01*
X78260Y47277D01*
X78280Y47273D01*
X78300Y47274D01*
X78360Y47271D01*
X79636Y47271D01*
X79695Y47178D01*
X79746Y47081D01*
X79780Y47044D01*
X79806Y47002D01*
X79886Y46927D01*
X79960Y46845D01*
X80002Y46818D01*
X80038Y46784D01*
X80134Y46731D01*
X80226Y46671D01*
X80273Y46654D01*
X80317Y46630D01*
X80423Y46603D01*
X80527Y46567D01*
X80576Y46563D01*
X80625Y46551D01*
X80785Y46541D01*
X82267Y46541D01*
X84120Y44688D01*
X84214Y44615D01*
X84303Y44536D01*
X84339Y44518D01*
X84371Y44493D01*
X84480Y44445D01*
X84586Y44391D01*
X84626Y44383D01*
X84663Y44366D01*
X84780Y44348D01*
X84896Y44322D01*
X84937Y44323D01*
X84977Y44317D01*
X85095Y44328D01*
X85214Y44331D01*
X85253Y44343D01*
X85293Y44346D01*
X85406Y44387D01*
X85520Y44420D01*
X85555Y44440D01*
X85593Y44454D01*
X85691Y44521D01*
X85794Y44581D01*
X85839Y44621D01*
X85856Y44633D01*
X85869Y44648D01*
X85915Y44688D01*
X87282Y46055D01*
X87355Y46149D01*
X87433Y46238D01*
X87452Y46274D01*
X87476Y46306D01*
X87524Y46415D01*
X87578Y46521D01*
X87587Y46561D01*
X87603Y46598D01*
X87622Y46716D01*
X87648Y46832D01*
X87646Y46872D01*
X87653Y46912D01*
X87642Y47031D01*
X87638Y47149D01*
X87627Y47188D01*
X87623Y47229D01*
X87608Y47271D01*
X88360Y47271D01*
X88478Y47286D01*
X88597Y47293D01*
X88635Y47305D01*
X88675Y47310D01*
X88786Y47354D01*
X88899Y47391D01*
X88933Y47413D01*
X88971Y47427D01*
X89067Y47497D01*
X89168Y47561D01*
X89196Y47591D01*
X89228Y47614D01*
X89304Y47706D01*
X89386Y47793D01*
X89405Y47828D01*
X89431Y47859D01*
X89482Y47967D01*
X89539Y48071D01*
X89549Y48110D01*
X89567Y48147D01*
X89589Y48264D01*
X89619Y48379D01*
X89623Y48439D01*
X89626Y48459D01*
X89626Y48460D01*
X89625Y48480D01*
X89629Y48540D01*
X89614Y48658D01*
X89607Y48777D01*
X89594Y48815D01*
X89589Y48856D01*
X89545Y48966D01*
X89509Y49080D01*
X89487Y49114D01*
X89472Y49151D01*
X89402Y49248D01*
X89338Y49348D01*
X89309Y49376D01*
X89285Y49409D01*
X89193Y49485D01*
X89107Y49566D01*
X89071Y49586D01*
X89040Y49612D01*
X88933Y49662D01*
X88828Y49720D01*
X88789Y49730D01*
X88753Y49747D01*
X88636Y49769D01*
X88520Y49799D01*
X88460Y49803D01*
X88440Y49807D01*
X88420Y49806D01*
X88360Y49809D01*
X87620Y49809D01*
X87636Y49905D01*
X87662Y50021D01*
X87660Y50062D01*
X87667Y50102D01*
X87656Y50220D01*
X87652Y50339D01*
X87641Y50378D01*
X87637Y50418D01*
X87597Y50530D01*
X87564Y50645D01*
X87543Y50679D01*
X87529Y50718D01*
X87462Y50816D01*
X87402Y50919D01*
X87362Y50964D01*
X87351Y50981D01*
X87336Y50994D01*
X87296Y51039D01*
X85839Y52496D01*
X85839Y54584D01*
X86398Y55143D01*
X86471Y55237D01*
X86549Y55326D01*
X86568Y55362D01*
X86593Y55394D01*
X86640Y55503D01*
X86694Y55609D01*
X86703Y55648D01*
X86719Y55686D01*
X86738Y55803D01*
X86764Y55919D01*
X86762Y55960D01*
X86769Y56000D01*
X86758Y56118D01*
X86754Y56237D01*
X86743Y56276D01*
X86739Y56316D01*
X86699Y56428D01*
X86666Y56543D01*
X86645Y56578D01*
X86631Y56616D01*
X86565Y56714D01*
X86504Y56817D01*
X86464Y56862D01*
X86453Y56879D01*
X86437Y56892D01*
X86398Y56938D01*
X85839Y57496D01*
X85839Y59584D01*
X86398Y60143D01*
X86471Y60237D01*
X86549Y60326D01*
X86568Y60362D01*
X86593Y60394D01*
X86640Y60503D01*
X86694Y60609D01*
X86703Y60648D01*
X86719Y60686D01*
X86738Y60803D01*
X86764Y60919D01*
X86762Y60960D01*
X86769Y61000D01*
X86758Y61118D01*
X86754Y61237D01*
X86743Y61276D01*
X86739Y61316D01*
X86699Y61428D01*
X86666Y61543D01*
X86645Y61578D01*
X86631Y61616D01*
X86565Y61714D01*
X86504Y61817D01*
X86464Y61862D01*
X86453Y61879D01*
X86437Y61892D01*
X86398Y61938D01*
X85839Y62496D01*
X85839Y64584D01*
X86383Y65128D01*
X86456Y65222D01*
X86535Y65312D01*
X86554Y65348D01*
X86578Y65380D01*
X86626Y65489D01*
X86680Y65595D01*
X86689Y65634D01*
X86705Y65671D01*
X86723Y65789D01*
X86750Y65905D01*
X86748Y65946D01*
X86755Y65986D01*
X86743Y66104D01*
X86740Y66223D01*
X86729Y66262D01*
X86725Y66302D01*
X86685Y66414D01*
X86651Y66529D01*
X86631Y66563D01*
X86617Y66601D01*
X86550Y66700D01*
X86490Y66802D01*
X86450Y66848D01*
X86439Y66865D01*
X86423Y66878D01*
X86384Y66923D01*
X85819Y67488D01*
X85819Y69592D01*
X86369Y70143D01*
X86442Y70237D01*
X86521Y70326D01*
X86539Y70362D01*
X86564Y70394D01*
X86612Y70503D01*
X86666Y70609D01*
X86675Y70648D01*
X86691Y70686D01*
X86709Y70803D01*
X86735Y70919D01*
X86734Y70960D01*
X86740Y71000D01*
X86729Y71118D01*
X86726Y71237D01*
X86714Y71276D01*
X86711Y71316D01*
X86670Y71428D01*
X86637Y71543D01*
X86617Y71578D01*
X86603Y71616D01*
X86536Y71714D01*
X86476Y71817D01*
X86436Y71862D01*
X86424Y71879D01*
X86409Y71892D01*
X86369Y71938D01*
X85819Y72488D01*
X85819Y74476D01*
X85804Y74594D01*
X85797Y74713D01*
X85784Y74751D01*
X85779Y74792D01*
X85736Y74902D01*
X85699Y75015D01*
X85677Y75050D01*
X85662Y75087D01*
X85593Y75183D01*
X85529Y75284D01*
X85499Y75312D01*
X85476Y75345D01*
X85384Y75421D01*
X85297Y75502D01*
X85262Y75522D01*
X85231Y75547D01*
X85123Y75598D01*
X85019Y75656D01*
X84979Y75666D01*
X84943Y75683D01*
X84826Y75705D01*
X84711Y75735D01*
X84651Y75739D01*
X84631Y75743D01*
X84610Y75741D01*
X84550Y75745D01*
X82202Y75745D01*
X81714Y76233D01*
X81564Y76384D01*
X81470Y76457D01*
X81380Y76536D01*
X81345Y76554D01*
X81313Y76579D01*
X81203Y76626D01*
X81097Y76680D01*
X81058Y76689D01*
X81021Y76705D01*
X80903Y76724D01*
X80787Y76750D01*
X80747Y76749D01*
X80707Y76755D01*
X80588Y76744D01*
X80469Y76740D01*
X80430Y76729D01*
X80390Y76725D01*
X80278Y76685D01*
X80164Y76652D01*
X80129Y76631D01*
X80091Y76618D01*
X79992Y76551D01*
X79890Y76490D01*
X79844Y76450D01*
X79828Y76439D01*
X79814Y76424D01*
X79769Y76384D01*
X79404Y76019D01*
X77316Y76019D01*
X76757Y76578D01*
X76663Y76651D01*
X76574Y76729D01*
X76538Y76748D01*
X76506Y76773D01*
X76397Y76820D01*
X76291Y76874D01*
X76252Y76883D01*
X76214Y76899D01*
X76097Y76918D01*
X75981Y76944D01*
X75940Y76942D01*
X75900Y76949D01*
X75782Y76938D01*
X75663Y76934D01*
X75624Y76923D01*
X75584Y76919D01*
X75472Y76879D01*
X75357Y76846D01*
X75322Y76825D01*
X75284Y76811D01*
X75186Y76745D01*
X75083Y76684D01*
X75038Y76644D01*
X75021Y76633D01*
X75008Y76617D01*
X74962Y76578D01*
X74404Y76019D01*
X72316Y76019D01*
X71757Y76578D01*
X71663Y76651D01*
X71574Y76729D01*
X71538Y76748D01*
X71506Y76773D01*
X71397Y76820D01*
X71291Y76874D01*
X71252Y76883D01*
X71214Y76899D01*
X71097Y76918D01*
X70981Y76944D01*
X70940Y76942D01*
X70900Y76949D01*
X70782Y76938D01*
X70663Y76934D01*
X70624Y76923D01*
X70584Y76919D01*
X70472Y76879D01*
X70357Y76846D01*
X70322Y76825D01*
X70284Y76811D01*
X70186Y76745D01*
X70083Y76684D01*
X70038Y76644D01*
X70021Y76633D01*
X70008Y76617D01*
X69962Y76578D01*
X69404Y76019D01*
X67316Y76019D01*
X65859Y77476D01*
X65765Y77549D01*
X65676Y77628D01*
X65640Y77646D01*
X65608Y77671D01*
X65499Y77718D01*
X65393Y77772D01*
X65353Y77781D01*
X65316Y77797D01*
X65198Y77816D01*
X65082Y77842D01*
X65042Y77840D01*
X65002Y77847D01*
X64883Y77836D01*
X64765Y77832D01*
X64726Y77821D01*
X64686Y77817D01*
X64629Y77797D01*
X64629Y78540D01*
X64629Y79280D01*
X64725Y79264D01*
X64841Y79238D01*
X64882Y79240D01*
X64922Y79233D01*
X65040Y79244D01*
X65159Y79248D01*
X65198Y79259D01*
X65238Y79263D01*
X65350Y79303D01*
X65465Y79336D01*
X65499Y79357D01*
X65537Y79371D01*
X65636Y79437D01*
X65739Y79498D01*
X65784Y79538D01*
X65801Y79549D01*
X65814Y79564D01*
X65859Y79604D01*
X67316Y81061D01*
X69404Y81061D01*
X69962Y80502D01*
X70056Y80429D01*
X70146Y80351D01*
X70182Y80332D01*
X70214Y80307D01*
X70323Y80260D01*
X70429Y80206D01*
X70468Y80197D01*
X70506Y80181D01*
X70623Y80162D01*
X70739Y80136D01*
X70780Y80138D01*
X70820Y80131D01*
X70938Y80142D01*
X71057Y80146D01*
X71096Y80157D01*
X71136Y80161D01*
X71249Y80201D01*
X71363Y80234D01*
X71397Y80255D01*
X71436Y80269D01*
X71534Y80335D01*
X71637Y80396D01*
X71682Y80436D01*
X71699Y80447D01*
X71712Y80462D01*
X71757Y80502D01*
X72316Y81061D01*
X74404Y81061D01*
X74962Y80502D01*
X75056Y80429D01*
X75146Y80351D01*
X75182Y80332D01*
X75214Y80307D01*
X75323Y80260D01*
X75429Y80206D01*
X75468Y80197D01*
X75506Y80181D01*
X75623Y80162D01*
X75739Y80136D01*
X75780Y80138D01*
X75820Y80131D01*
X75938Y80142D01*
X76057Y80146D01*
X76096Y80157D01*
X76136Y80161D01*
X76249Y80201D01*
X76363Y80234D01*
X76397Y80255D01*
X76436Y80269D01*
X76534Y80335D01*
X76637Y80396D01*
X76682Y80436D01*
X76699Y80447D01*
X76712Y80462D01*
X76757Y80502D01*
X77316Y81061D01*
X77568Y81061D01*
X77706Y81078D01*
X77844Y81091D01*
X77863Y81098D01*
X77883Y81101D01*
X78012Y81152D01*
X78143Y81199D01*
X78160Y81210D01*
X78179Y81218D01*
X78291Y81299D01*
X78406Y81377D01*
X78420Y81393D01*
X78436Y81404D01*
X78525Y81512D01*
X78617Y81616D01*
X78626Y81634D01*
X78639Y81649D01*
X78698Y81775D01*
X78762Y81899D01*
X78766Y81919D01*
X78775Y81937D01*
X78801Y82074D01*
X78831Y82209D01*
X78831Y82230D01*
X78834Y82249D01*
X78826Y82388D01*
X78822Y82527D01*
X78816Y82547D01*
X78815Y82567D01*
X78772Y82699D01*
X78733Y82833D01*
X78723Y82850D01*
X78717Y82869D01*
X78642Y82987D01*
X78572Y83107D01*
X78553Y83128D01*
X78546Y83138D01*
X78531Y83152D01*
X78465Y83227D01*
X77959Y83733D01*
X77959Y86667D01*
X80033Y88741D01*
X82967Y88741D01*
X85041Y86667D01*
X85041Y86137D01*
X85053Y86039D01*
X85056Y85940D01*
X85073Y85882D01*
X85081Y85822D01*
X85117Y85730D01*
X85145Y85635D01*
X85175Y85582D01*
X85198Y85526D01*
X85256Y85446D01*
X85295Y85380D01*
X85295Y81083D01*
X85307Y80985D01*
X85310Y80886D01*
X85327Y80828D01*
X85335Y80768D01*
X85371Y80676D01*
X85399Y80581D01*
X85429Y80528D01*
X85452Y80472D01*
X85510Y80392D01*
X85560Y80307D01*
X85626Y80231D01*
X85638Y80215D01*
X85648Y80207D01*
X85666Y80186D01*
X86062Y79790D01*
X86086Y79772D01*
X86105Y79750D01*
X86211Y79675D01*
X86313Y79595D01*
X86341Y79583D01*
X86365Y79566D01*
X86486Y79520D01*
X86605Y79469D01*
X86634Y79464D01*
X86662Y79454D01*
X86791Y79439D01*
X86919Y79419D01*
X86949Y79422D01*
X86978Y79418D01*
X87091Y79434D01*
X87091Y78540D01*
X87106Y78422D01*
X87113Y78303D01*
X87125Y78265D01*
X87130Y78225D01*
X87174Y78114D01*
X87211Y78001D01*
X87233Y77967D01*
X87247Y77929D01*
X87317Y77833D01*
X87381Y77732D01*
X87411Y77704D01*
X87434Y77672D01*
X87526Y77596D01*
X87613Y77514D01*
X87648Y77495D01*
X87679Y77469D01*
X87787Y77418D01*
X87891Y77361D01*
X87930Y77351D01*
X87967Y77333D01*
X88084Y77311D01*
X88199Y77281D01*
X88259Y77277D01*
X88279Y77274D01*
X88280Y77274D01*
X88300Y77275D01*
X88360Y77271D01*
X88478Y77286D01*
X88597Y77293D01*
X88635Y77306D01*
X88676Y77311D01*
X88786Y77355D01*
X88900Y77391D01*
X88934Y77413D01*
X88971Y77428D01*
X89068Y77498D01*
X89168Y77562D01*
X89196Y77591D01*
X89229Y77615D01*
X89305Y77707D01*
X89386Y77793D01*
X89406Y77829D01*
X89432Y77860D01*
X89482Y77967D01*
X89540Y78072D01*
X89550Y78111D01*
X89567Y78147D01*
X89589Y78264D01*
X89619Y78380D01*
X89623Y78440D01*
X89627Y78460D01*
X89626Y78480D01*
X89629Y78540D01*
X89629Y78952D01*
X89634Y78945D01*
X89704Y78888D01*
X89766Y78823D01*
X89826Y78787D01*
X89879Y78742D01*
X89961Y78704D01*
X90037Y78657D01*
X90104Y78636D01*
X90167Y78607D01*
X90255Y78590D01*
X90341Y78563D01*
X90411Y78560D01*
X90480Y78547D01*
X90569Y78553D01*
X90659Y78548D01*
X90727Y78562D01*
X90797Y78567D01*
X90882Y78594D01*
X90970Y78613D01*
X91033Y78643D01*
X91099Y78665D01*
X91175Y78713D01*
X91256Y78752D01*
X91309Y78798D01*
X91368Y78835D01*
X91430Y78900D01*
X91498Y78959D01*
X91538Y79016D01*
X91586Y79067D01*
X91629Y79145D01*
X91681Y79219D01*
X91706Y79284D01*
X91740Y79345D01*
X91762Y79432D01*
X91794Y79516D01*
X91802Y79585D01*
X91819Y79653D01*
X91829Y79814D01*
X91829Y80126D01*
X92574Y80871D01*
X101590Y80871D01*
X101708Y80886D01*
X101827Y80893D01*
X101865Y80906D01*
X101906Y80911D01*
X102016Y80954D01*
X102129Y80991D01*
X102164Y81013D01*
X102201Y81028D01*
X102297Y81097D01*
X102398Y81161D01*
X102426Y81191D01*
X102459Y81214D01*
X102534Y81306D01*
X102616Y81393D01*
X102636Y81428D01*
X102661Y81459D01*
X102712Y81567D01*
X102770Y81671D01*
X102780Y81711D01*
X102797Y81747D01*
X102819Y81864D01*
X102849Y81979D01*
X102853Y82039D01*
X102857Y82059D01*
X102855Y82080D01*
X102859Y82140D01*
X102859Y83190D01*
X102844Y83308D01*
X102837Y83427D01*
X102825Y83465D01*
X102819Y83506D01*
X102776Y83616D01*
X102739Y83729D01*
X102717Y83764D01*
X102702Y83801D01*
X102633Y83897D01*
X102569Y83998D01*
X102539Y84026D01*
X102516Y84059D01*
X102424Y84135D01*
X102337Y84216D01*
X102302Y84236D01*
X102271Y84261D01*
X102163Y84312D01*
X102059Y84370D01*
X102019Y84380D01*
X101983Y84397D01*
X101866Y84419D01*
X101751Y84449D01*
X101691Y84453D01*
X101671Y84457D01*
X101650Y84455D01*
X101590Y84459D01*
X98133Y84459D01*
X96059Y86533D01*
X96059Y89467D01*
X96688Y90095D01*
X96748Y90173D01*
X96816Y90245D01*
X96845Y90298D01*
X96882Y90346D01*
X96922Y90437D01*
X96970Y90524D01*
X96985Y90582D01*
X97009Y90638D01*
X97024Y90736D01*
X97049Y90832D01*
X97055Y90932D01*
X97059Y90952D01*
X97057Y90964D01*
X97059Y90992D01*
X97059Y91404D01*
X97047Y91502D01*
X97044Y91601D01*
X97037Y91625D01*
X97036Y91628D01*
X97027Y91659D01*
X97019Y91719D01*
X96983Y91811D01*
X96955Y91906D01*
X96925Y91959D01*
X96902Y92015D01*
X96844Y92095D01*
X96794Y92180D01*
X96728Y92256D01*
X96716Y92272D01*
X96706Y92280D01*
X96688Y92301D01*
X95846Y93143D01*
X95752Y93216D01*
X95662Y93295D01*
X95626Y93313D01*
X95594Y93338D01*
X95485Y93385D01*
X95379Y93440D01*
X95339Y93448D01*
X95302Y93464D01*
X95185Y93483D01*
X95069Y93509D01*
X95028Y93508D01*
X94988Y93514D01*
X94869Y93503D01*
X94751Y93500D01*
X94712Y93488D01*
X94672Y93485D01*
X94560Y93444D01*
X94445Y93411D01*
X94410Y93391D01*
X94372Y93377D01*
X94346Y93359D01*
X91333Y93359D01*
X90705Y93987D01*
X90627Y94048D01*
X90555Y94116D01*
X90502Y94145D01*
X90454Y94182D01*
X90363Y94222D01*
X90276Y94270D01*
X90218Y94285D01*
X90162Y94309D01*
X90064Y94324D01*
X89968Y94349D01*
X89868Y94355D01*
X89848Y94359D01*
X89836Y94357D01*
X89808Y94359D01*
X54448Y94359D01*
X45959Y102848D01*
X45959Y133262D01*
X45955Y133295D01*
X45958Y133328D01*
X45935Y133452D01*
X45919Y133577D01*
X45907Y133608D01*
X45901Y133641D01*
X45849Y133756D01*
X45802Y133873D01*
X45783Y133900D01*
X45769Y133930D01*
X45690Y134028D01*
X45667Y134060D01*
X45653Y134082D01*
X45647Y134088D01*
X45616Y134130D01*
X45590Y134152D01*
X45569Y134177D01*
X45446Y134281D01*
X36880Y140634D01*
X36797Y140681D01*
X36719Y140736D01*
X36659Y140759D01*
X36603Y140790D01*
X36511Y140815D01*
X36422Y140849D01*
X36358Y140856D01*
X36296Y140872D01*
X36200Y140873D01*
X36105Y140884D01*
X36042Y140875D01*
X35978Y140876D01*
X35885Y140853D01*
X35791Y140839D01*
X35687Y140804D01*
X35669Y140800D01*
X35660Y140795D01*
X35638Y140787D01*
X31920Y139247D01*
X28080Y139247D01*
X24532Y140717D01*
X21817Y143432D01*
X20347Y146980D01*
X20347Y150820D01*
X21817Y154368D01*
X24532Y157083D01*
X28080Y158553D01*
X31920Y158553D01*
X35468Y157083D01*
X38183Y154368D01*
X39653Y150820D01*
X39653Y146980D01*
X39374Y146307D01*
X39342Y146189D01*
X39303Y146073D01*
X39300Y146036D01*
X39290Y146001D01*
X39288Y145878D01*
X39279Y145755D01*
X39286Y145719D01*
X39285Y145683D01*
X39314Y145563D01*
X39335Y145442D01*
X39351Y145409D01*
X39359Y145373D01*
X39417Y145265D01*
X39468Y145153D01*
X39491Y145125D01*
X39508Y145092D01*
X39590Y145001D01*
X39668Y144906D01*
X39709Y144871D01*
X39722Y144857D01*
X39740Y144845D01*
X39791Y144802D01*
X49003Y137970D01*
X49007Y137967D01*
X49012Y137964D01*
X49146Y137889D01*
X49280Y137814D01*
X49285Y137813D01*
X49290Y137810D01*
X49437Y137772D01*
X49524Y137749D01*
X50098Y137175D01*
X50108Y137167D01*
X50116Y137157D01*
X50239Y137053D01*
X50893Y136568D01*
X50914Y136491D01*
X50917Y136486D01*
X50919Y136481D01*
X50996Y136349D01*
X51041Y136272D01*
X51041Y135461D01*
X51042Y135448D01*
X51041Y135435D01*
X51054Y135274D01*
X51174Y134470D01*
X51135Y134400D01*
X51133Y134394D01*
X51130Y134390D01*
X51092Y134241D01*
X51052Y134093D01*
X51052Y134087D01*
X51051Y134082D01*
X51041Y133921D01*
X51041Y105478D01*
X51053Y105380D01*
X51056Y105281D01*
X51073Y105223D01*
X51081Y105163D01*
X51117Y105071D01*
X51145Y104975D01*
X51175Y104923D01*
X51198Y104867D01*
X51256Y104787D01*
X51306Y104702D01*
X51372Y104626D01*
X51384Y104610D01*
X51394Y104602D01*
X51412Y104581D01*
X56181Y99812D01*
X56259Y99752D01*
X56331Y99684D01*
X56384Y99655D01*
X56432Y99618D01*
X56523Y99578D01*
X56610Y99530D01*
X56668Y99515D01*
X56724Y99491D01*
X56822Y99476D01*
X56917Y99451D01*
X57018Y99445D01*
X57038Y99441D01*
X57050Y99443D01*
X57078Y99441D01*
X58260Y99441D01*
X58378Y99456D01*
X58497Y99463D01*
X58535Y99476D01*
X58576Y99481D01*
X58686Y99524D01*
X58799Y99561D01*
X58834Y99583D01*
X58871Y99598D01*
X58967Y99667D01*
X59068Y99731D01*
X59096Y99761D01*
X59129Y99784D01*
X59205Y99876D01*
X59286Y99963D01*
X59306Y99998D01*
X59331Y100029D01*
X59382Y100137D01*
X59440Y100241D01*
X59450Y100281D01*
X59467Y100317D01*
X59489Y100434D01*
X59519Y100549D01*
X59523Y100609D01*
X59527Y100629D01*
X59525Y100650D01*
X59529Y100710D01*
X59529Y113926D01*
X60274Y114671D01*
X77326Y114671D01*
X78071Y113926D01*
X78071Y111908D01*
X78086Y111790D01*
X78093Y111671D01*
X78106Y111633D01*
X78111Y111592D01*
X78154Y111482D01*
X78191Y111369D01*
X78213Y111334D01*
X78228Y111297D01*
X78297Y111201D01*
X78361Y111100D01*
X78391Y111072D01*
X78414Y111039D01*
X78506Y110963D01*
X78593Y110882D01*
X78628Y110862D01*
X78659Y110837D01*
X78767Y110786D01*
X78871Y110728D01*
X78911Y110718D01*
X78947Y110701D01*
X79064Y110679D01*
X79179Y110649D01*
X79239Y110645D01*
X79259Y110641D01*
X79280Y110643D01*
X79340Y110639D01*
X84204Y110639D01*
X84302Y110651D01*
X84401Y110654D01*
X84459Y110671D01*
X84519Y110679D01*
X84611Y110715D01*
X84706Y110743D01*
X84759Y110773D01*
X84815Y110796D01*
X84895Y110854D01*
X84980Y110904D01*
X85056Y110970D01*
X85072Y110982D01*
X85080Y110992D01*
X85101Y111010D01*
X85389Y111299D01*
X85450Y111377D01*
X85518Y111449D01*
X85547Y111502D01*
X85584Y111550D01*
X85624Y111641D01*
X85672Y111728D01*
X85687Y111786D01*
X85711Y111842D01*
X85726Y111939D01*
X85751Y112035D01*
X85757Y112136D01*
X85761Y112156D01*
X85759Y112168D01*
X85761Y112196D01*
X85761Y112938D01*
X88005Y115183D01*
X88075Y115272D01*
X88108Y115293D01*
X88115Y115301D01*
X88123Y115306D01*
X88239Y115418D01*
X88239Y115419D01*
X88279Y115475D01*
X88325Y115524D01*
X88326Y115525D01*
X88370Y115605D01*
X88422Y115679D01*
X88446Y115743D01*
X88480Y115804D01*
X88502Y115891D01*
X88534Y115976D01*
X88542Y116045D01*
X88559Y116112D01*
X88569Y116272D01*
X88569Y118750D01*
X88554Y118868D01*
X88547Y118987D01*
X88535Y119025D01*
X88530Y119065D01*
X88486Y119176D01*
X88449Y119289D01*
X88427Y119323D01*
X88413Y119361D01*
X88343Y119457D01*
X88279Y119558D01*
X88249Y119586D01*
X88226Y119618D01*
X88134Y119694D01*
X88047Y119776D01*
X88012Y119795D01*
X87981Y119821D01*
X87873Y119872D01*
X87769Y119929D01*
X87730Y119939D01*
X87693Y119957D01*
X87576Y119979D01*
X87461Y120009D01*
X87401Y120013D01*
X87381Y120016D01*
X87380Y120016D01*
X87360Y120015D01*
X87300Y120019D01*
X87182Y120004D01*
X87063Y119997D01*
X87024Y119984D01*
X86984Y119979D01*
X86874Y119935D01*
X86760Y119899D01*
X86726Y119877D01*
X86689Y119862D01*
X86592Y119792D01*
X86492Y119728D01*
X86464Y119699D01*
X86431Y119675D01*
X86355Y119583D01*
X86274Y119497D01*
X86254Y119461D01*
X86228Y119430D01*
X86178Y119323D01*
X86120Y119218D01*
X86110Y119179D01*
X86093Y119143D01*
X86071Y119026D01*
X86041Y118910D01*
X86037Y118850D01*
X86033Y118830D01*
X86034Y118810D01*
X86031Y118750D01*
X86031Y117349D01*
X85150Y117349D01*
X85133Y117366D01*
X85085Y117436D01*
X85031Y117532D01*
X84996Y117567D01*
X84968Y117609D01*
X84886Y117681D01*
X84810Y117760D01*
X84767Y117786D01*
X84730Y117819D01*
X84632Y117869D01*
X84538Y117926D01*
X84491Y117941D01*
X84447Y117964D01*
X84339Y117988D01*
X84235Y118020D01*
X84185Y118022D01*
X84136Y118033D01*
X84027Y118030D01*
X83917Y118035D01*
X83868Y118025D01*
X83818Y118024D01*
X83713Y117993D01*
X83605Y117971D01*
X83561Y117949D01*
X83513Y117935D01*
X83418Y117879D01*
X83320Y117831D01*
X83282Y117799D01*
X83239Y117774D01*
X83118Y117667D01*
X83000Y117549D01*
X82519Y117549D01*
X82519Y118800D01*
X82504Y118918D01*
X82497Y119037D01*
X82485Y119075D01*
X82480Y119115D01*
X82436Y119226D01*
X82399Y119339D01*
X82377Y119373D01*
X82363Y119411D01*
X82293Y119507D01*
X82229Y119608D01*
X82228Y119608D01*
X82199Y119636D01*
X82176Y119668D01*
X82175Y119669D01*
X82083Y119745D01*
X81997Y119826D01*
X81961Y119846D01*
X81930Y119872D01*
X81823Y119922D01*
X81718Y119980D01*
X81679Y119990D01*
X81643Y120007D01*
X81526Y120029D01*
X81410Y120059D01*
X81350Y120063D01*
X81330Y120067D01*
X81310Y120066D01*
X81250Y120069D01*
X79499Y120069D01*
X79499Y120228D01*
X79487Y120326D01*
X79484Y120425D01*
X79467Y120483D01*
X79459Y120543D01*
X79423Y120636D01*
X79395Y120731D01*
X79365Y120783D01*
X79342Y120839D01*
X79284Y120919D01*
X79234Y121005D01*
X79168Y121080D01*
X79156Y121096D01*
X79146Y121104D01*
X79128Y121125D01*
X78967Y121285D01*
X78858Y121371D01*
X78751Y121459D01*
X78732Y121468D01*
X78716Y121480D01*
X78588Y121536D01*
X78463Y121595D01*
X78443Y121599D01*
X78424Y121607D01*
X78286Y121629D01*
X78150Y121655D01*
X78130Y121653D01*
X78110Y121657D01*
X77971Y121643D01*
X77833Y121635D01*
X77814Y121629D01*
X77794Y121627D01*
X77662Y121580D01*
X77531Y121537D01*
X77513Y121526D01*
X77494Y121519D01*
X77379Y121441D01*
X77262Y121367D01*
X77248Y121352D01*
X77231Y121341D01*
X77139Y121236D01*
X77044Y121135D01*
X77034Y121117D01*
X77021Y121102D01*
X76957Y120978D01*
X76890Y120857D01*
X76885Y120837D01*
X76876Y120819D01*
X76846Y120683D01*
X76811Y120549D01*
X76809Y120521D01*
X76806Y120509D01*
X76807Y120488D01*
X76802Y120402D01*
X76801Y120400D01*
X76800Y120399D01*
X71339Y120399D01*
X71339Y124361D01*
X76960Y124361D01*
X77078Y124376D01*
X77197Y124383D01*
X77235Y124396D01*
X77276Y124401D01*
X77386Y124444D01*
X77499Y124481D01*
X77534Y124503D01*
X77571Y124518D01*
X77667Y124588D01*
X77768Y124651D01*
X77796Y124681D01*
X77829Y124705D01*
X77905Y124796D01*
X77986Y124883D01*
X78006Y124918D01*
X78031Y124949D01*
X78082Y125057D01*
X78140Y125161D01*
X78150Y125201D01*
X78167Y125237D01*
X78189Y125354D01*
X78219Y125469D01*
X78223Y125530D01*
X78227Y125550D01*
X78225Y125570D01*
X78226Y125571D01*
X78226Y125573D01*
X78974Y126321D01*
X79652Y126321D01*
X79750Y126333D01*
X79849Y126336D01*
X79865Y126341D01*
X82860Y126341D01*
X82978Y126356D01*
X83097Y126363D01*
X83135Y126376D01*
X83176Y126381D01*
X83286Y126424D01*
X83399Y126461D01*
X83434Y126483D01*
X83471Y126498D01*
X83567Y126567D01*
X83668Y126631D01*
X83696Y126661D01*
X83729Y126684D01*
X83805Y126776D01*
X83886Y126863D01*
X83906Y126898D01*
X83931Y126929D01*
X83982Y127037D01*
X84040Y127141D01*
X84050Y127181D01*
X84067Y127217D01*
X84089Y127334D01*
X84119Y127449D01*
X84123Y127509D01*
X84127Y127529D01*
X84125Y127550D01*
X84129Y127610D01*
X84129Y131075D01*
X84152Y131119D01*
X84161Y131158D01*
X84177Y131195D01*
X84195Y131313D01*
X84221Y131429D01*
X84220Y131470D01*
X84227Y131510D01*
X84215Y131628D01*
X84212Y131747D01*
X84201Y131786D01*
X84197Y131826D01*
X84156Y131938D01*
X84129Y132032D01*
X84129Y136026D01*
X84874Y136771D01*
X90327Y136771D01*
X90358Y136757D01*
X90464Y136703D01*
X90503Y136695D01*
X90541Y136678D01*
X90658Y136660D01*
X90774Y136634D01*
X90815Y136635D01*
X90855Y136629D01*
X90973Y136640D01*
X91092Y136643D01*
X91131Y136655D01*
X91171Y136658D01*
X91283Y136699D01*
X91398Y136732D01*
X91432Y136752D01*
X91471Y136766D01*
X91569Y136833D01*
X91672Y136893D01*
X91717Y136933D01*
X91734Y136945D01*
X91747Y136960D01*
X91792Y137000D01*
X92233Y137441D01*
X95167Y137441D01*
X97241Y135367D01*
X97241Y132433D01*
X95167Y130359D01*
X92240Y130359D01*
X92122Y130344D01*
X92003Y130337D01*
X91965Y130324D01*
X91924Y130319D01*
X91814Y130276D01*
X91701Y130239D01*
X91666Y130217D01*
X91629Y130202D01*
X91533Y130133D01*
X91432Y130069D01*
X91404Y130039D01*
X91371Y130016D01*
X91295Y129924D01*
X91214Y129837D01*
X91194Y129802D01*
X91169Y129771D01*
X91118Y129663D01*
X91060Y129559D01*
X91050Y129519D01*
X91033Y129483D01*
X91011Y129366D01*
X90981Y129251D01*
X90977Y129191D01*
X90973Y129171D01*
X90975Y129150D01*
X90971Y129090D01*
X90971Y128610D01*
X90986Y128492D01*
X90993Y128373D01*
X91006Y128335D01*
X91011Y128294D01*
X91054Y128184D01*
X91091Y128071D01*
X91113Y128036D01*
X91128Y127999D01*
X91197Y127903D01*
X91261Y127802D01*
X91291Y127774D01*
X91314Y127741D01*
X91406Y127665D01*
X91493Y127584D01*
X91528Y127564D01*
X91559Y127539D01*
X91667Y127488D01*
X91771Y127430D01*
X91811Y127420D01*
X91847Y127403D01*
X91964Y127381D01*
X92079Y127351D01*
X92139Y127347D01*
X92159Y127343D01*
X92180Y127345D01*
X92240Y127341D01*
X95467Y127341D01*
X96208Y126600D01*
X96302Y126527D01*
X96391Y126448D01*
X96427Y126430D01*
X96459Y126405D01*
X96568Y126358D01*
X96674Y126303D01*
X96714Y126295D01*
X96751Y126278D01*
X96868Y126260D01*
X96984Y126234D01*
X97025Y126235D01*
X97065Y126229D01*
X97183Y126240D01*
X97302Y126243D01*
X97341Y126255D01*
X97381Y126258D01*
X97494Y126299D01*
X97608Y126332D01*
X97643Y126352D01*
X97681Y126366D01*
X97779Y126433D01*
X97882Y126493D01*
X97927Y126533D01*
X97944Y126545D01*
X97957Y126560D01*
X98003Y126600D01*
X98124Y126721D01*
X102452Y126721D01*
X102550Y126733D01*
X102649Y126736D01*
X102707Y126753D01*
X102767Y126761D01*
X102859Y126797D01*
X102955Y126825D01*
X103007Y126855D01*
X103063Y126878D01*
X103143Y126936D01*
X103228Y126986D01*
X103304Y127052D01*
X103320Y127064D01*
X103328Y127074D01*
X103349Y127092D01*
X108308Y132051D01*
X108368Y132129D01*
X108436Y132201D01*
X108465Y132254D01*
X108502Y132302D01*
X108542Y132393D01*
X108590Y132480D01*
X108605Y132538D01*
X108629Y132594D01*
X108635Y132632D01*
X109424Y133421D01*
X113425Y133421D01*
X113469Y133398D01*
X113509Y133389D01*
X113546Y133373D01*
X113663Y133355D01*
X113780Y133329D01*
X113820Y133330D01*
X113860Y133323D01*
X113978Y133335D01*
X114097Y133338D01*
X114136Y133349D01*
X114176Y133353D01*
X114288Y133394D01*
X114382Y133421D01*
X118376Y133421D01*
X118885Y132912D01*
X118963Y132852D01*
X119035Y132784D01*
X119088Y132755D01*
X119136Y132718D01*
X119227Y132678D01*
X119313Y132630D01*
X119372Y132615D01*
X119428Y132591D01*
X119526Y132576D01*
X119621Y132551D01*
X119721Y132545D01*
X119742Y132541D01*
X119754Y132543D01*
X119782Y132541D01*
X124502Y132541D01*
X128991Y128052D01*
X128991Y125320D01*
X129006Y125202D01*
X129013Y125083D01*
X129026Y125045D01*
X129031Y125004D01*
X129074Y124894D01*
X129111Y124781D01*
X129133Y124746D01*
X129148Y124709D01*
X129217Y124613D01*
X129281Y124512D01*
X129311Y124484D01*
X129334Y124451D01*
X129426Y124375D01*
X129513Y124294D01*
X129548Y124274D01*
X129579Y124249D01*
X129687Y124198D01*
X129791Y124140D01*
X129831Y124130D01*
X129867Y124113D01*
X129984Y124091D01*
X130099Y124061D01*
X130159Y124057D01*
X130179Y124053D01*
X130200Y124055D01*
X130260Y124051D01*
X130281Y124051D01*
X130281Y121900D01*
X130281Y119749D01*
X130172Y119749D01*
X130074Y119737D01*
X129975Y119734D01*
X129917Y119717D01*
X129857Y119709D01*
X129764Y119673D01*
X129669Y119645D01*
X129617Y119615D01*
X129561Y119592D01*
X129481Y119534D01*
X129395Y119484D01*
X129320Y119418D01*
X129304Y119406D01*
X129296Y119396D01*
X129275Y119378D01*
X128376Y118479D01*
X125210Y118479D01*
X125092Y118464D01*
X124973Y118457D01*
X124935Y118444D01*
X124894Y118439D01*
X124784Y118396D01*
X124671Y118359D01*
X124636Y118337D01*
X124599Y118322D01*
X124503Y118253D01*
X124402Y118189D01*
X124374Y118159D01*
X124341Y118136D01*
X124265Y118044D01*
X124184Y117957D01*
X124164Y117922D01*
X124139Y117891D01*
X124088Y117783D01*
X124030Y117679D01*
X124020Y117639D01*
X124003Y117603D01*
X123981Y117486D01*
X123951Y117371D01*
X123947Y117311D01*
X123943Y117291D01*
X123945Y117270D01*
X123941Y117210D01*
X123941Y115227D01*
X123914Y115199D01*
X123885Y115146D01*
X123848Y115098D01*
X123808Y115007D01*
X123760Y114920D01*
X123745Y114862D01*
X123721Y114806D01*
X123706Y114708D01*
X123681Y114613D01*
X123675Y114512D01*
X123671Y114492D01*
X123673Y114480D01*
X123671Y114452D01*
X123671Y113070D01*
X123686Y112952D01*
X123693Y112833D01*
X123706Y112795D01*
X123711Y112754D01*
X123754Y112644D01*
X123791Y112531D01*
X123813Y112496D01*
X123828Y112459D01*
X123897Y112363D01*
X123961Y112262D01*
X123991Y112234D01*
X124014Y112201D01*
X124106Y112125D01*
X124193Y112044D01*
X124228Y112024D01*
X124259Y111999D01*
X124367Y111948D01*
X124471Y111890D01*
X124511Y111880D01*
X124547Y111863D01*
X124664Y111841D01*
X124779Y111811D01*
X124839Y111807D01*
X124859Y111803D01*
X124880Y111805D01*
X124940Y111801D01*
X125631Y111801D01*
X125631Y110800D01*
X125631Y106800D01*
X125646Y106682D01*
X125653Y106563D01*
X125665Y106525D01*
X125670Y106485D01*
X125714Y106374D01*
X125751Y106261D01*
X125773Y106227D01*
X125787Y106189D01*
X125857Y106093D01*
X125921Y105992D01*
X125951Y105964D01*
X125974Y105932D01*
X126066Y105856D01*
X126153Y105774D01*
X126188Y105755D01*
X126219Y105729D01*
X126327Y105678D01*
X126431Y105621D01*
X126470Y105611D01*
X126507Y105593D01*
X126624Y105571D01*
X126739Y105541D01*
X126799Y105537D01*
X126819Y105534D01*
X126820Y105534D01*
X126840Y105535D01*
X126900Y105531D01*
X127018Y105546D01*
X127137Y105553D01*
X127175Y105566D01*
X127216Y105571D01*
X127326Y105615D01*
X127440Y105651D01*
X127474Y105673D01*
X127511Y105688D01*
X127608Y105758D01*
X127708Y105822D01*
X127736Y105851D01*
X127769Y105875D01*
X127845Y105967D01*
X127926Y106053D01*
X127946Y106089D01*
X127972Y106120D01*
X128022Y106227D01*
X128080Y106332D01*
X128090Y106371D01*
X128107Y106407D01*
X128129Y106524D01*
X128159Y106640D01*
X128163Y106700D01*
X128167Y106720D01*
X128166Y106740D01*
X128169Y106800D01*
X128169Y109531D01*
X130879Y109531D01*
X130956Y109463D01*
X130974Y109454D01*
X130989Y109441D01*
X131115Y109381D01*
X131239Y109318D01*
X131259Y109314D01*
X131277Y109305D01*
X131414Y109279D01*
X131549Y109249D01*
X131570Y109249D01*
X131589Y109245D01*
X131728Y109254D01*
X131867Y109258D01*
X131887Y109264D01*
X131907Y109265D01*
X132039Y109308D01*
X132173Y109347D01*
X132190Y109357D01*
X132209Y109363D01*
X132327Y109438D01*
X132447Y109508D01*
X132468Y109527D01*
X132478Y109533D01*
X132492Y109548D01*
X132567Y109615D01*
X133374Y110421D01*
X136926Y110421D01*
X137825Y109522D01*
X137903Y109462D01*
X137975Y109394D01*
X138028Y109365D01*
X138076Y109328D01*
X138167Y109288D01*
X138253Y109240D01*
X138312Y109225D01*
X138368Y109201D01*
X138466Y109186D01*
X138561Y109161D01*
X138661Y109155D01*
X138682Y109151D01*
X138694Y109153D01*
X138722Y109151D01*
X138881Y109151D01*
X138881Y107400D01*
X138881Y105649D01*
X138722Y105649D01*
X138624Y105637D01*
X138525Y105634D01*
X138467Y105617D01*
X138407Y105609D01*
X138314Y105573D01*
X138219Y105545D01*
X138167Y105515D01*
X138111Y105492D01*
X138031Y105434D01*
X137945Y105384D01*
X137870Y105318D01*
X137854Y105306D01*
X137846Y105296D01*
X137825Y105278D01*
X137095Y104548D01*
X137022Y104453D01*
X136943Y104364D01*
X136924Y104328D01*
X136900Y104296D01*
X136852Y104187D01*
X136798Y104081D01*
X136789Y104042D01*
X136773Y104004D01*
X136755Y103887D01*
X136729Y103771D01*
X136730Y103730D01*
X136723Y103690D01*
X136735Y103572D01*
X136738Y103453D01*
X136749Y103414D01*
X136753Y103374D01*
X136794Y103261D01*
X136827Y103147D01*
X136847Y103113D01*
X136861Y103074D01*
X136928Y102976D01*
X136988Y102873D01*
X137028Y102828D01*
X137039Y102811D01*
X137055Y102798D01*
X137095Y102753D01*
X137775Y102072D01*
X137853Y102012D01*
X137925Y101944D01*
X137978Y101915D01*
X138026Y101878D01*
X138117Y101838D01*
X138203Y101790D01*
X138262Y101775D01*
X138318Y101751D01*
X138416Y101736D01*
X138511Y101711D01*
X138611Y101705D01*
X138632Y101701D01*
X138644Y101703D01*
X138672Y101701D01*
X138781Y101701D01*
X138781Y99550D01*
X138796Y99432D01*
X138803Y99313D01*
X138815Y99275D01*
X138820Y99235D01*
X138864Y99124D01*
X138901Y99011D01*
X138923Y98977D01*
X138937Y98939D01*
X139007Y98843D01*
X139071Y98742D01*
X139101Y98714D01*
X139124Y98682D01*
X139216Y98606D01*
X139303Y98524D01*
X139338Y98505D01*
X139369Y98479D01*
X139477Y98428D01*
X139581Y98371D01*
X139620Y98361D01*
X139657Y98343D01*
X139774Y98321D01*
X139889Y98291D01*
X139949Y98287D01*
X139969Y98284D01*
X139970Y98284D01*
X139990Y98285D01*
X140050Y98281D01*
X140168Y98296D01*
X140287Y98303D01*
X140325Y98316D01*
X140366Y98321D01*
X140476Y98365D01*
X140590Y98401D01*
X140624Y98423D01*
X140661Y98438D01*
X140758Y98508D01*
X140858Y98572D01*
X140886Y98601D01*
X140919Y98625D01*
X140995Y98717D01*
X141076Y98803D01*
X141096Y98839D01*
X141122Y98870D01*
X141172Y98977D01*
X141230Y99082D01*
X141240Y99121D01*
X141257Y99157D01*
X141279Y99274D01*
X141309Y99390D01*
X141313Y99450D01*
X141317Y99470D01*
X141316Y99490D01*
X141319Y99550D01*
X141319Y101701D01*
X141450Y101701D01*
X141555Y101596D01*
X141633Y101536D01*
X141705Y101468D01*
X141758Y101439D01*
X141806Y101401D01*
X141897Y101362D01*
X141984Y101314D01*
X142042Y101299D01*
X142098Y101275D01*
X142196Y101259D01*
X142292Y101235D01*
X142392Y101228D01*
X142412Y101225D01*
X142424Y101226D01*
X142452Y101225D01*
X142681Y101225D01*
X142681Y99474D01*
X142681Y99473D01*
X142681Y97215D01*
X142639Y97168D01*
X142630Y97150D01*
X142617Y97134D01*
X142558Y97009D01*
X142494Y96885D01*
X142490Y96865D01*
X142481Y96847D01*
X142455Y96710D01*
X142425Y96574D01*
X142425Y96554D01*
X142422Y96534D01*
X142430Y96395D01*
X142434Y96256D01*
X142440Y96237D01*
X142441Y96217D01*
X142484Y96085D01*
X142523Y95951D01*
X142533Y95933D01*
X142539Y95914D01*
X142571Y95865D01*
X142571Y90310D01*
X142530Y90237D01*
X142515Y90178D01*
X142491Y90122D01*
X142476Y90024D01*
X142451Y89929D01*
X142445Y89829D01*
X142441Y89808D01*
X142443Y89796D01*
X142441Y89768D01*
X142441Y89348D01*
X139911Y86817D01*
X139825Y86708D01*
X139737Y86601D01*
X139728Y86582D01*
X139716Y86566D01*
X139660Y86438D01*
X139601Y86313D01*
X139597Y86293D01*
X139589Y86274D01*
X139567Y86136D01*
X139541Y86000D01*
X139543Y85980D01*
X139539Y85960D01*
X139553Y85821D01*
X139561Y85683D01*
X139567Y85664D01*
X139569Y85644D01*
X139616Y85512D01*
X139659Y85381D01*
X139670Y85363D01*
X139677Y85344D01*
X139755Y85229D01*
X139829Y85112D01*
X139844Y85098D01*
X139855Y85081D01*
X139960Y84989D01*
X140061Y84894D01*
X140079Y84884D01*
X140094Y84871D01*
X140218Y84807D01*
X140339Y84740D01*
X140359Y84735D01*
X140377Y84726D01*
X140513Y84696D01*
X140647Y84661D01*
X140675Y84659D01*
X140687Y84656D01*
X140708Y84657D01*
X140808Y84651D01*
X140950Y84651D01*
X140951Y84650D01*
X140951Y84169D01*
X139700Y84169D01*
X139582Y84154D01*
X139463Y84147D01*
X139425Y84135D01*
X139385Y84130D01*
X139274Y84086D01*
X139161Y84049D01*
X139127Y84027D01*
X139089Y84013D01*
X138993Y83943D01*
X138892Y83879D01*
X138892Y83878D01*
X138864Y83849D01*
X138832Y83826D01*
X138832Y83825D01*
X138831Y83825D01*
X138755Y83733D01*
X138674Y83647D01*
X138654Y83611D01*
X138628Y83580D01*
X138578Y83473D01*
X138520Y83368D01*
X138510Y83329D01*
X138493Y83293D01*
X138471Y83176D01*
X138441Y83060D01*
X138437Y83000D01*
X138433Y82980D01*
X138434Y82960D01*
X138431Y82900D01*
X138431Y81139D01*
X138392Y81134D01*
X138273Y81127D01*
X138235Y81114D01*
X138194Y81109D01*
X138084Y81066D01*
X137971Y81029D01*
X137936Y81007D01*
X137899Y80992D01*
X137803Y80923D01*
X137702Y80859D01*
X137674Y80829D01*
X137641Y80806D01*
X137566Y80714D01*
X137484Y80627D01*
X137464Y80592D01*
X137439Y80561D01*
X137388Y80453D01*
X137330Y80349D01*
X137320Y80309D01*
X137303Y80273D01*
X137281Y80156D01*
X137251Y80041D01*
X137247Y79981D01*
X137243Y79961D01*
X137245Y79940D01*
X137241Y79880D01*
X137241Y78071D01*
X137256Y77953D01*
X137263Y77834D01*
X137276Y77796D01*
X137281Y77755D01*
X137324Y77645D01*
X137361Y77532D01*
X137383Y77497D01*
X137398Y77460D01*
X137467Y77364D01*
X137531Y77263D01*
X137561Y77235D01*
X137584Y77202D01*
X137676Y77126D01*
X137763Y77045D01*
X137798Y77025D01*
X137829Y77000D01*
X137937Y76949D01*
X138041Y76891D01*
X138081Y76881D01*
X138117Y76864D01*
X138234Y76842D01*
X138349Y76812D01*
X138409Y76808D01*
X138429Y76804D01*
X138450Y76806D01*
X138510Y76802D01*
X143184Y76802D01*
X144523Y75463D01*
X144523Y75462D01*
X146812Y73173D01*
X146813Y73173D01*
X148152Y71834D01*
X148152Y62853D01*
X148110Y62778D01*
X148095Y62719D01*
X148071Y62664D01*
X148056Y62566D01*
X148031Y62470D01*
X148025Y62370D01*
X148021Y62350D01*
X148023Y62337D01*
X148021Y62309D01*
X148021Y54991D01*
X148033Y54893D01*
X148036Y54794D01*
X148053Y54735D01*
X148061Y54675D01*
X148097Y54583D01*
X148125Y54488D01*
X148152Y54442D01*
X148152Y45466D01*
X143184Y40498D01*
X134316Y40498D01*
X133348Y41466D01*
X133348Y49870D01*
X133381Y49909D01*
X133389Y49928D01*
X133402Y49944D01*
X133457Y50071D01*
X133516Y50197D01*
X133520Y50217D01*
X133528Y50236D01*
X133550Y50373D01*
X133576Y50510D01*
X133575Y50530D01*
X133578Y50550D01*
X133565Y50688D01*
X133556Y50827D01*
X133550Y50846D01*
X133548Y50866D01*
X133501Y50997D01*
X133458Y51129D01*
X133447Y51147D01*
X133440Y51166D01*
X133362Y51280D01*
X133288Y51398D01*
X133273Y51412D01*
X133262Y51429D01*
X133158Y51520D01*
X133056Y51616D01*
X133039Y51626D01*
X133023Y51639D01*
X132900Y51702D01*
X132778Y51770D01*
X132758Y51775D01*
X132740Y51784D01*
X132604Y51814D01*
X132470Y51849D01*
X132442Y51851D01*
X132430Y51854D01*
X132409Y51853D01*
X132309Y51859D01*
X128933Y51859D01*
X126859Y53933D01*
X126859Y56867D01*
X128933Y58941D01*
X129822Y58941D01*
X129920Y58953D01*
X130019Y58956D01*
X130077Y58973D01*
X130137Y58981D01*
X130229Y59017D01*
X130325Y59045D01*
X130377Y59075D01*
X130433Y59098D01*
X130513Y59156D01*
X130598Y59206D01*
X130674Y59272D01*
X130690Y59284D01*
X130698Y59294D01*
X130719Y59312D01*
X132598Y61191D01*
X133802Y61191D01*
X133939Y61208D01*
X134078Y61221D01*
X134097Y61228D01*
X134117Y61231D01*
X134246Y61282D01*
X134378Y61329D01*
X134394Y61340D01*
X134413Y61348D01*
X134526Y61429D01*
X134641Y61507D01*
X134654Y61523D01*
X134670Y61534D01*
X134759Y61642D01*
X134851Y61746D01*
X134860Y61764D01*
X134873Y61779D01*
X134933Y61905D01*
X134996Y62029D01*
X135000Y62049D01*
X135009Y62067D01*
X135035Y62203D01*
X135065Y62339D01*
X135065Y62360D01*
X135069Y62379D01*
X135060Y62518D01*
X135056Y62657D01*
X135050Y62677D01*
X135049Y62697D01*
X135006Y62829D01*
X134967Y62963D01*
X134957Y62980D01*
X134951Y62999D01*
X134876Y63117D01*
X134806Y63237D01*
X134787Y63258D01*
X134781Y63268D01*
X134766Y63282D01*
X134699Y63357D01*
X132159Y65898D01*
X132159Y81322D01*
X132147Y81420D01*
X132144Y81519D01*
X132127Y81577D01*
X132119Y81637D01*
X132083Y81729D01*
X132055Y81825D01*
X132025Y81877D01*
X132002Y81933D01*
X131944Y82013D01*
X131894Y82098D01*
X131828Y82174D01*
X131816Y82190D01*
X131806Y82198D01*
X131788Y82219D01*
X126219Y87788D01*
X124567Y89439D01*
X124457Y89525D01*
X124350Y89613D01*
X124332Y89622D01*
X124316Y89634D01*
X124188Y89690D01*
X124063Y89749D01*
X124043Y89753D01*
X124024Y89761D01*
X123887Y89783D01*
X123750Y89809D01*
X123730Y89807D01*
X123710Y89811D01*
X123571Y89797D01*
X123433Y89789D01*
X123414Y89783D01*
X123394Y89781D01*
X123263Y89734D01*
X123130Y89691D01*
X123113Y89680D01*
X123094Y89673D01*
X122979Y89595D01*
X122862Y89521D01*
X122848Y89506D01*
X122831Y89495D01*
X122739Y89390D01*
X122668Y89314D01*
X122654Y89418D01*
X122647Y89537D01*
X122635Y89575D01*
X122630Y89615D01*
X122586Y89726D01*
X122549Y89839D01*
X122527Y89873D01*
X122513Y89911D01*
X122443Y90007D01*
X122379Y90108D01*
X122378Y90108D01*
X122349Y90136D01*
X122326Y90168D01*
X122325Y90169D01*
X122233Y90245D01*
X122147Y90326D01*
X122111Y90346D01*
X122080Y90372D01*
X121973Y90422D01*
X121868Y90480D01*
X121829Y90490D01*
X121793Y90507D01*
X121676Y90529D01*
X121560Y90559D01*
X121500Y90563D01*
X121480Y90567D01*
X121460Y90566D01*
X121400Y90569D01*
X117400Y90569D01*
X114669Y90569D01*
X114669Y92469D01*
X114699Y92471D01*
X114809Y92469D01*
X114857Y92481D01*
X114907Y92484D01*
X115011Y92518D01*
X115118Y92544D01*
X115162Y92567D01*
X115209Y92582D01*
X115302Y92641D01*
X115399Y92692D01*
X115436Y92726D01*
X115478Y92752D01*
X115553Y92832D01*
X115635Y92906D01*
X115662Y92948D01*
X115696Y92984D01*
X115749Y93080D01*
X115809Y93172D01*
X115826Y93219D01*
X115849Y93262D01*
X115877Y93369D01*
X115913Y93473D01*
X115917Y93522D01*
X115929Y93570D01*
X115939Y93731D01*
X115939Y101530D01*
X115924Y101648D01*
X115917Y101767D01*
X115904Y101805D01*
X115899Y101845D01*
X115855Y101956D01*
X115819Y102069D01*
X115797Y102104D01*
X115782Y102141D01*
X115712Y102237D01*
X115649Y102338D01*
X115619Y102366D01*
X115595Y102398D01*
X115504Y102474D01*
X115417Y102556D01*
X115382Y102575D01*
X115350Y102601D01*
X115243Y102652D01*
X115139Y102709D01*
X115099Y102720D01*
X115063Y102737D01*
X114946Y102759D01*
X114831Y102789D01*
X114770Y102793D01*
X114750Y102797D01*
X114730Y102795D01*
X114670Y102799D01*
X112130Y102799D01*
X112012Y102784D01*
X111893Y102777D01*
X111855Y102764D01*
X111815Y102759D01*
X111704Y102715D01*
X111591Y102679D01*
X111556Y102657D01*
X111519Y102642D01*
X111423Y102572D01*
X111322Y102509D01*
X111294Y102479D01*
X111261Y102455D01*
X111186Y102364D01*
X111104Y102277D01*
X111084Y102242D01*
X111059Y102210D01*
X111008Y102103D01*
X110950Y101999D01*
X110940Y101959D01*
X110923Y101923D01*
X110901Y101806D01*
X110871Y101691D01*
X110867Y101630D01*
X110863Y101610D01*
X110865Y101590D01*
X110861Y101530D01*
X110861Y94076D01*
X110873Y93978D01*
X110876Y93879D01*
X110893Y93821D01*
X110901Y93761D01*
X110937Y93669D01*
X110965Y93573D01*
X110995Y93521D01*
X111018Y93465D01*
X111076Y93385D01*
X111126Y93300D01*
X111192Y93224D01*
X111205Y93208D01*
X111214Y93200D01*
X111233Y93179D01*
X111477Y92935D01*
X111500Y92916D01*
X111519Y92894D01*
X111625Y92819D01*
X111728Y92740D01*
X111755Y92728D01*
X111779Y92711D01*
X111901Y92665D01*
X112020Y92613D01*
X112049Y92609D01*
X112077Y92598D01*
X112131Y92592D01*
X112131Y89300D01*
X112146Y89182D01*
X112153Y89063D01*
X112165Y89025D01*
X112170Y88985D01*
X112214Y88874D01*
X112251Y88761D01*
X112273Y88727D01*
X112287Y88689D01*
X112357Y88593D01*
X112421Y88492D01*
X112422Y88492D01*
X112451Y88464D01*
X112474Y88432D01*
X112475Y88431D01*
X112567Y88355D01*
X112653Y88274D01*
X112689Y88254D01*
X112720Y88228D01*
X112827Y88178D01*
X112932Y88120D01*
X112971Y88110D01*
X113007Y88093D01*
X113124Y88071D01*
X113240Y88041D01*
X113300Y88037D01*
X113320Y88033D01*
X113340Y88034D01*
X113400Y88031D01*
X117400Y88031D01*
X120131Y88031D01*
X120131Y86726D01*
X120075Y86760D01*
X119959Y86836D01*
X119940Y86843D01*
X119923Y86853D01*
X119790Y86894D01*
X119658Y86939D01*
X119638Y86941D01*
X119619Y86947D01*
X119480Y86954D01*
X119341Y86965D01*
X119321Y86961D01*
X119301Y86962D01*
X119165Y86934D01*
X119028Y86910D01*
X119009Y86902D01*
X118990Y86898D01*
X118865Y86837D01*
X118738Y86780D01*
X118722Y86767D01*
X118704Y86758D01*
X118598Y86668D01*
X118489Y86581D01*
X118477Y86565D01*
X118462Y86552D01*
X118382Y86438D01*
X118298Y86327D01*
X118286Y86302D01*
X118279Y86292D01*
X118272Y86273D01*
X118256Y86241D01*
X117901Y85886D01*
X117872Y85869D01*
X117836Y85835D01*
X117795Y85807D01*
X117723Y85725D01*
X117644Y85648D01*
X117618Y85606D01*
X117585Y85568D01*
X117535Y85471D01*
X117478Y85377D01*
X117463Y85330D01*
X117440Y85285D01*
X117416Y85178D01*
X117384Y85073D01*
X117381Y85023D01*
X117370Y84975D01*
X117374Y84865D01*
X117369Y84756D01*
X117379Y84707D01*
X117380Y84657D01*
X117411Y84552D01*
X117433Y84444D01*
X117455Y84399D01*
X117469Y84351D01*
X117524Y84257D01*
X117572Y84158D01*
X117605Y84120D01*
X117630Y84077D01*
X117737Y83957D01*
X118313Y83381D01*
X120041Y81652D01*
X120041Y78071D01*
X120056Y77953D01*
X120063Y77834D01*
X120076Y77796D01*
X120081Y77755D01*
X120124Y77645D01*
X120161Y77532D01*
X120183Y77497D01*
X120198Y77460D01*
X120267Y77364D01*
X120331Y77263D01*
X120361Y77235D01*
X120384Y77202D01*
X120476Y77126D01*
X120563Y77045D01*
X120598Y77025D01*
X120629Y77000D01*
X120737Y76949D01*
X120841Y76891D01*
X120881Y76881D01*
X120917Y76864D01*
X121034Y76842D01*
X121149Y76812D01*
X121209Y76808D01*
X121229Y76804D01*
X121250Y76806D01*
X121310Y76802D01*
X126184Y76802D01*
X127152Y75834D01*
X127152Y67466D01*
X125812Y66127D01*
X122892Y63207D01*
X122832Y63128D01*
X122764Y63056D01*
X122735Y63003D01*
X122698Y62955D01*
X122658Y62864D01*
X122610Y62778D01*
X122595Y62719D01*
X122571Y62663D01*
X122556Y62566D01*
X122531Y62470D01*
X122525Y62370D01*
X122521Y62349D01*
X122523Y62337D01*
X122521Y62309D01*
X122521Y54991D01*
X122533Y54893D01*
X122536Y54794D01*
X122553Y54735D01*
X122561Y54675D01*
X122597Y54583D01*
X122625Y54488D01*
X122655Y54436D01*
X122678Y54380D01*
X122736Y54300D01*
X122786Y54214D01*
X122852Y54139D01*
X122864Y54122D01*
X122874Y54114D01*
X122893Y54093D01*
X123023Y53963D01*
X123023Y53962D01*
X127152Y49834D01*
X127152Y41466D01*
X126184Y40498D01*
X117316Y40498D01*
X115977Y41838D01*
X113953Y43861D01*
X113859Y43934D01*
X113770Y44013D01*
X113734Y44031D01*
X113702Y44056D01*
X113592Y44103D01*
X113487Y44157D01*
X113447Y44166D01*
X113410Y44182D01*
X113292Y44201D01*
X113176Y44227D01*
X113136Y44226D01*
X113096Y44232D01*
X112977Y44221D01*
X112858Y44217D01*
X112820Y44206D01*
X112779Y44202D01*
X112667Y44162D01*
X112553Y44129D01*
X112518Y44108D01*
X112480Y44095D01*
X112382Y44028D01*
X112279Y43967D01*
X112234Y43928D01*
X112217Y43916D01*
X112203Y43901D01*
X112158Y43861D01*
X111626Y43329D01*
X106842Y43329D01*
X106704Y43312D01*
X106566Y43299D01*
X106547Y43292D01*
X106527Y43289D01*
X106397Y43238D01*
X106267Y43191D01*
X106250Y43180D01*
X106231Y43172D01*
X106119Y43091D01*
X106004Y43013D01*
X105990Y42997D01*
X105974Y42986D01*
X105885Y42878D01*
X105793Y42774D01*
X105784Y42756D01*
X105771Y42741D01*
X105712Y42615D01*
X105648Y42491D01*
X105644Y42471D01*
X105635Y42453D01*
X105609Y42316D01*
X105579Y42181D01*
X105579Y42160D01*
X105576Y42141D01*
X105584Y42002D01*
X105588Y41863D01*
X105594Y41843D01*
X105595Y41823D01*
X105638Y41691D01*
X105677Y41557D01*
X105687Y41540D01*
X105693Y41521D01*
X105768Y41403D01*
X105838Y41283D01*
X105857Y41262D01*
X105864Y41252D01*
X105879Y41238D01*
X105945Y41163D01*
X106341Y40767D01*
X106341Y37833D01*
X105025Y36517D01*
X104940Y36408D01*
X104851Y36301D01*
X104842Y36282D01*
X104830Y36266D01*
X104774Y36138D01*
X104715Y36013D01*
X104712Y35993D01*
X104704Y35974D01*
X104682Y35836D01*
X104666Y35753D01*
X104663Y35754D01*
X104642Y35753D01*
X104542Y35759D01*
X101333Y35759D01*
X101218Y35875D01*
X101108Y35960D01*
X101001Y36049D01*
X100982Y36058D01*
X100966Y36070D01*
X100838Y36126D01*
X100713Y36185D01*
X100693Y36188D01*
X100674Y36196D01*
X100536Y36218D01*
X100400Y36244D01*
X100380Y36243D01*
X100360Y36246D01*
X100221Y36233D01*
X100083Y36225D01*
X100064Y36218D01*
X100044Y36217D01*
X99913Y36169D01*
X99781Y36127D01*
X99763Y36116D01*
X99744Y36109D01*
X99630Y36031D01*
X99512Y35956D01*
X99498Y35942D01*
X99481Y35930D01*
X99389Y35826D01*
X99294Y35725D01*
X99284Y35707D01*
X99271Y35692D01*
X99207Y35568D01*
X99140Y35446D01*
X99135Y35427D01*
X99126Y35409D01*
X99096Y35272D01*
X99061Y35138D01*
X99059Y35110D01*
X99056Y35098D01*
X99057Y35078D01*
X99051Y34978D01*
X99051Y34969D01*
X97300Y34969D01*
X97182Y34954D01*
X97063Y34947D01*
X97025Y34935D01*
X96985Y34930D01*
X96874Y34886D01*
X96761Y34849D01*
X96727Y34827D01*
X96689Y34813D01*
X96593Y34743D01*
X96492Y34679D01*
X96492Y34678D01*
X96464Y34649D01*
X96432Y34626D01*
X96432Y34625D01*
X96431Y34625D01*
X96355Y34533D01*
X96274Y34447D01*
X96254Y34411D01*
X96228Y34380D01*
X96178Y34273D01*
X96120Y34168D01*
X96110Y34129D01*
X96093Y34093D01*
X96071Y33976D01*
X96041Y33860D01*
X96037Y33800D01*
X96033Y33780D01*
X96034Y33760D01*
X96031Y33700D01*
X96031Y32435D01*
X96022Y32434D01*
X95903Y32427D01*
X95865Y32414D01*
X95824Y32409D01*
X95714Y32366D01*
X95601Y32329D01*
X95566Y32307D01*
X95529Y32292D01*
X95433Y32223D01*
X95332Y32159D01*
X95304Y32129D01*
X95271Y32106D01*
X95196Y32014D01*
X95114Y31927D01*
X95094Y31892D01*
X95069Y31861D01*
X95018Y31753D01*
X94960Y31649D01*
X94950Y31610D01*
X94933Y31573D01*
X94911Y31456D01*
X94881Y31341D01*
X94877Y31281D01*
X94873Y31261D01*
X94875Y31240D01*
X94871Y31180D01*
X94871Y17142D01*
X94888Y17004D01*
X94901Y16866D01*
X94908Y16847D01*
X94911Y16827D01*
X94962Y16698D01*
X95009Y16567D01*
X95020Y16550D01*
X95028Y16531D01*
X95109Y16419D01*
X95187Y16304D01*
X95203Y16290D01*
X95214Y16274D01*
X95322Y16185D01*
X95426Y16093D01*
X95444Y16084D01*
X95459Y16071D01*
X95585Y16012D01*
X95709Y15948D01*
X95729Y15944D01*
X95747Y15935D01*
X95884Y15909D01*
X96019Y15879D01*
X96040Y15879D01*
X96059Y15876D01*
X96198Y15884D01*
X96337Y15888D01*
X96357Y15894D01*
X96377Y15895D01*
X96509Y15938D01*
X96643Y15977D01*
X96660Y15987D01*
X96679Y15993D01*
X96797Y16068D01*
X96917Y16138D01*
X96938Y16157D01*
X96948Y16164D01*
X96962Y16179D01*
X97037Y16245D01*
X98133Y17341D01*
X101067Y17341D01*
X103141Y15267D01*
X103141Y12110D01*
X103156Y11992D01*
X103163Y11873D01*
X103176Y11835D01*
X103181Y11794D01*
X103224Y11684D01*
X103261Y11571D01*
X103283Y11536D01*
X103298Y11499D01*
X103367Y11403D01*
X103431Y11302D01*
X103461Y11274D01*
X103484Y11241D01*
X103576Y11165D01*
X103663Y11084D01*
X103698Y11064D01*
X103729Y11039D01*
X103837Y10988D01*
X103941Y10930D01*
X103981Y10920D01*
X104017Y10903D01*
X104134Y10881D01*
X104249Y10851D01*
X104309Y10847D01*
X104329Y10843D01*
X104350Y10845D01*
X104410Y10841D01*
X108008Y10841D01*
X108106Y10853D01*
X108205Y10856D01*
X108263Y10873D01*
X108323Y10881D01*
X108415Y10917D01*
X108510Y10945D01*
X108563Y10975D01*
X108619Y10998D01*
X108699Y11056D01*
X108784Y11106D01*
X108860Y11172D01*
X108876Y11184D01*
X108884Y11194D01*
X108905Y11212D01*
X110405Y12713D01*
X110490Y12822D01*
X110579Y12929D01*
X110588Y12948D01*
X110600Y12964D01*
X110655Y13091D01*
X110715Y13217D01*
X110718Y13237D01*
X110726Y13256D01*
X110748Y13394D01*
X110774Y13530D01*
X110773Y13550D01*
X110776Y13570D01*
X110763Y13709D01*
X110755Y13847D01*
X110748Y13866D01*
X110747Y13886D01*
X110699Y14018D01*
X110657Y14149D01*
X110646Y14167D01*
X110639Y14186D01*
X110561Y14301D01*
X110486Y14418D01*
X110472Y14432D01*
X110460Y14449D01*
X110356Y14541D01*
X110255Y14636D01*
X110237Y14646D01*
X110222Y14659D01*
X110098Y14723D01*
X109976Y14790D01*
X109957Y14795D01*
X109939Y14804D01*
X109803Y14834D01*
X109668Y14869D01*
X109640Y14871D01*
X109628Y14874D01*
X109608Y14873D01*
X109508Y14879D01*
X106724Y14879D01*
X106723Y14880D01*
X106723Y15211D01*
X109874Y15211D01*
X113025Y15211D01*
X113025Y14880D01*
X113024Y14879D01*
X112951Y14785D01*
X112872Y14695D01*
X112854Y14659D01*
X112829Y14627D01*
X112781Y14518D01*
X112727Y14412D01*
X112718Y14373D01*
X112702Y14336D01*
X112684Y14218D01*
X112658Y14102D01*
X112659Y14061D01*
X112653Y14022D01*
X112664Y13903D01*
X112667Y13784D01*
X112679Y13745D01*
X112682Y13705D01*
X112723Y13593D01*
X112756Y13478D01*
X112776Y13444D01*
X112790Y13406D01*
X112857Y13307D01*
X112917Y13205D01*
X112957Y13159D01*
X112968Y13142D01*
X112984Y13129D01*
X113024Y13084D01*
X115441Y10667D01*
X115441Y7733D01*
X113367Y5659D01*
X110295Y5659D01*
G37*
%LPD*%
%LPC*%
G36*
X170533Y5459D02*
X170533Y5459D01*
X168459Y7533D01*
X168459Y10467D01*
X170533Y12541D01*
X170650Y12541D01*
X170768Y12556D01*
X170887Y12563D01*
X170925Y12576D01*
X170966Y12581D01*
X171076Y12624D01*
X171189Y12661D01*
X171224Y12683D01*
X171261Y12698D01*
X171357Y12767D01*
X171458Y12831D01*
X171486Y12861D01*
X171519Y12884D01*
X171595Y12976D01*
X171676Y13063D01*
X171696Y13098D01*
X171721Y13129D01*
X171772Y13237D01*
X171830Y13341D01*
X171840Y13381D01*
X171857Y13417D01*
X171879Y13534D01*
X171909Y13649D01*
X171913Y13709D01*
X171917Y13729D01*
X171915Y13750D01*
X171919Y13810D01*
X171919Y18376D01*
X171904Y18494D01*
X171897Y18613D01*
X171884Y18651D01*
X171879Y18692D01*
X171836Y18802D01*
X171799Y18915D01*
X171777Y18950D01*
X171762Y18987D01*
X171693Y19083D01*
X171629Y19184D01*
X171599Y19212D01*
X171576Y19245D01*
X171484Y19321D01*
X171397Y19402D01*
X171362Y19422D01*
X171331Y19447D01*
X171223Y19498D01*
X171119Y19556D01*
X171079Y19566D01*
X171043Y19583D01*
X170926Y19605D01*
X170811Y19635D01*
X170751Y19639D01*
X170731Y19643D01*
X170710Y19641D01*
X170650Y19645D01*
X169743Y19645D01*
X169645Y19633D01*
X169546Y19630D01*
X169488Y19613D01*
X169428Y19605D01*
X169336Y19569D01*
X169241Y19541D01*
X169188Y19511D01*
X169132Y19488D01*
X169052Y19430D01*
X168967Y19380D01*
X168891Y19314D01*
X168875Y19302D01*
X168867Y19292D01*
X168846Y19274D01*
X163666Y14093D01*
X162614Y14093D01*
X162496Y14078D01*
X162377Y14071D01*
X162339Y14058D01*
X162298Y14053D01*
X162188Y14010D01*
X162075Y13973D01*
X162040Y13951D01*
X162003Y13936D01*
X161907Y13867D01*
X161806Y13803D01*
X161778Y13773D01*
X161745Y13750D01*
X161669Y13658D01*
X161588Y13571D01*
X161568Y13536D01*
X161543Y13505D01*
X161492Y13397D01*
X161434Y13293D01*
X161424Y13253D01*
X161407Y13217D01*
X161385Y13100D01*
X161355Y12985D01*
X161351Y12925D01*
X161347Y12905D01*
X161349Y12884D01*
X161345Y12824D01*
X161345Y12224D01*
X161310Y12161D01*
X161295Y12103D01*
X161271Y12047D01*
X161256Y11949D01*
X161231Y11853D01*
X161225Y11753D01*
X161221Y11733D01*
X161223Y11721D01*
X161221Y11693D01*
X161221Y10824D01*
X160476Y10079D01*
X156475Y10079D01*
X156431Y10102D01*
X156391Y10111D01*
X156354Y10127D01*
X156237Y10145D01*
X156120Y10171D01*
X156080Y10170D01*
X156040Y10177D01*
X155922Y10165D01*
X155803Y10162D01*
X155764Y10151D01*
X155724Y10147D01*
X155612Y10106D01*
X155518Y10079D01*
X151524Y10079D01*
X151203Y10400D01*
X151108Y10473D01*
X151019Y10552D01*
X150983Y10570D01*
X150951Y10595D01*
X150842Y10643D01*
X150736Y10697D01*
X150697Y10705D01*
X150659Y10722D01*
X150542Y10740D01*
X150426Y10766D01*
X150385Y10765D01*
X150345Y10771D01*
X150227Y10760D01*
X150108Y10757D01*
X150069Y10745D01*
X150029Y10742D01*
X149917Y10701D01*
X149802Y10668D01*
X149768Y10648D01*
X149729Y10634D01*
X149631Y10567D01*
X149528Y10507D01*
X149483Y10467D01*
X149466Y10455D01*
X149453Y10440D01*
X149408Y10400D01*
X148967Y9959D01*
X146033Y9959D01*
X143959Y12033D01*
X143959Y12670D01*
X143944Y12788D01*
X143937Y12907D01*
X143924Y12945D01*
X143919Y12986D01*
X143876Y13096D01*
X143839Y13209D01*
X143817Y13244D01*
X143802Y13281D01*
X143733Y13377D01*
X143669Y13478D01*
X143639Y13506D01*
X143616Y13539D01*
X143524Y13615D01*
X143437Y13696D01*
X143402Y13716D01*
X143371Y13741D01*
X143263Y13792D01*
X143159Y13850D01*
X143119Y13860D01*
X143083Y13877D01*
X142966Y13899D01*
X142851Y13929D01*
X142791Y13933D01*
X142771Y13937D01*
X142750Y13935D01*
X142690Y13939D01*
X141006Y13939D01*
X140908Y13927D01*
X140809Y13924D01*
X140751Y13907D01*
X140691Y13899D01*
X140598Y13863D01*
X140503Y13835D01*
X140451Y13805D01*
X140395Y13782D01*
X140315Y13724D01*
X140229Y13674D01*
X140156Y13609D01*
X132798Y13609D01*
X132053Y14354D01*
X132053Y33606D01*
X132798Y34351D01*
X140337Y34351D01*
X140342Y34349D01*
X140398Y34325D01*
X140496Y34310D01*
X140591Y34285D01*
X140691Y34279D01*
X140712Y34275D01*
X140724Y34277D01*
X140752Y34275D01*
X146742Y34275D01*
X146840Y34287D01*
X146939Y34290D01*
X146997Y34307D01*
X147057Y34315D01*
X147149Y34351D01*
X147244Y34379D01*
X147297Y34409D01*
X147353Y34432D01*
X147433Y34490D01*
X147518Y34540D01*
X147594Y34606D01*
X147610Y34618D01*
X147618Y34628D01*
X147639Y34646D01*
X150033Y37041D01*
X152967Y37041D01*
X155041Y34967D01*
X155041Y34437D01*
X155053Y34339D01*
X155056Y34240D01*
X155073Y34182D01*
X155081Y34122D01*
X155117Y34030D01*
X155145Y33935D01*
X155175Y33882D01*
X155198Y33826D01*
X155256Y33746D01*
X155306Y33661D01*
X155372Y33585D01*
X155384Y33569D01*
X155394Y33561D01*
X155412Y33540D01*
X161345Y27608D01*
X161345Y22741D01*
X161362Y22604D01*
X161375Y22465D01*
X161382Y22446D01*
X161385Y22426D01*
X161436Y22297D01*
X161483Y22166D01*
X161494Y22149D01*
X161502Y22130D01*
X161583Y22018D01*
X161661Y21903D01*
X161677Y21889D01*
X161688Y21873D01*
X161796Y21784D01*
X161900Y21692D01*
X161918Y21683D01*
X161933Y21670D01*
X162059Y21611D01*
X162183Y21547D01*
X162203Y21543D01*
X162221Y21534D01*
X162357Y21508D01*
X162493Y21478D01*
X162514Y21478D01*
X162533Y21475D01*
X162672Y21483D01*
X162811Y21487D01*
X162831Y21493D01*
X162851Y21494D01*
X162983Y21537D01*
X163117Y21576D01*
X163134Y21586D01*
X163153Y21592D01*
X163271Y21667D01*
X163391Y21737D01*
X163412Y21756D01*
X163422Y21763D01*
X163436Y21777D01*
X163511Y21844D01*
X164608Y22940D01*
X164668Y23018D01*
X164736Y23090D01*
X164765Y23143D01*
X164802Y23191D01*
X164842Y23282D01*
X164890Y23369D01*
X164905Y23427D01*
X164929Y23483D01*
X164944Y23581D01*
X164969Y23677D01*
X164975Y23777D01*
X164979Y23797D01*
X164977Y23809D01*
X164979Y23837D01*
X164979Y24276D01*
X165878Y25175D01*
X165938Y25253D01*
X166006Y25325D01*
X166035Y25378D01*
X166072Y25426D01*
X166112Y25517D01*
X166160Y25603D01*
X166175Y25662D01*
X166199Y25718D01*
X166214Y25816D01*
X166239Y25911D01*
X166245Y26011D01*
X166249Y26032D01*
X166247Y26044D01*
X166249Y26072D01*
X166249Y26231D01*
X168000Y26231D01*
X169785Y26231D01*
X169786Y26229D01*
X169791Y26188D01*
X169834Y26078D01*
X169871Y25965D01*
X169893Y25930D01*
X169908Y25893D01*
X169977Y25797D01*
X170041Y25696D01*
X170071Y25668D01*
X170094Y25635D01*
X170186Y25559D01*
X170273Y25478D01*
X170308Y25458D01*
X170339Y25433D01*
X170447Y25382D01*
X170551Y25324D01*
X170591Y25314D01*
X170627Y25297D01*
X170744Y25275D01*
X170859Y25245D01*
X170919Y25241D01*
X170939Y25237D01*
X170960Y25239D01*
X171020Y25235D01*
X174618Y25235D01*
X175732Y24120D01*
X175826Y24047D01*
X175915Y23968D01*
X175951Y23950D01*
X175983Y23925D01*
X176093Y23878D01*
X176199Y23824D01*
X176238Y23815D01*
X176275Y23799D01*
X176393Y23780D01*
X176509Y23754D01*
X176549Y23755D01*
X176589Y23749D01*
X176708Y23760D01*
X176827Y23764D01*
X176866Y23775D01*
X176906Y23779D01*
X177018Y23819D01*
X177132Y23852D01*
X177167Y23873D01*
X177205Y23887D01*
X177304Y23953D01*
X177350Y23981D01*
X253590Y23981D01*
X253708Y23996D01*
X253827Y24003D01*
X253865Y24016D01*
X253906Y24021D01*
X254016Y24064D01*
X254129Y24101D01*
X254164Y24123D01*
X254201Y24138D01*
X254297Y24207D01*
X254398Y24271D01*
X254426Y24301D01*
X254459Y24324D01*
X254535Y24416D01*
X254616Y24503D01*
X254636Y24538D01*
X254661Y24569D01*
X254712Y24677D01*
X254770Y24781D01*
X254780Y24821D01*
X254797Y24857D01*
X254819Y24974D01*
X254849Y25089D01*
X254853Y25149D01*
X254857Y25169D01*
X254855Y25190D01*
X254859Y25250D01*
X254859Y32131D01*
X254842Y32268D01*
X254829Y32407D01*
X254822Y32426D01*
X254819Y32446D01*
X254768Y32575D01*
X254721Y32706D01*
X254710Y32723D01*
X254702Y32742D01*
X254621Y32855D01*
X254543Y32969D01*
X254527Y32983D01*
X254516Y32999D01*
X254408Y33088D01*
X254304Y33180D01*
X254286Y33189D01*
X254271Y33202D01*
X254145Y33261D01*
X254021Y33324D01*
X254001Y33329D01*
X253983Y33338D01*
X253846Y33364D01*
X253711Y33394D01*
X253690Y33393D01*
X253671Y33397D01*
X253532Y33389D01*
X253393Y33384D01*
X253373Y33379D01*
X253353Y33378D01*
X253221Y33335D01*
X253087Y33296D01*
X253070Y33286D01*
X253051Y33280D01*
X252971Y33229D01*
X246841Y33229D01*
X246765Y33305D01*
X246671Y33378D01*
X246581Y33457D01*
X246545Y33476D01*
X246514Y33500D01*
X246404Y33548D01*
X246298Y33602D01*
X246259Y33611D01*
X246222Y33627D01*
X246104Y33645D01*
X245988Y33671D01*
X245948Y33670D01*
X245908Y33677D01*
X245789Y33665D01*
X245670Y33662D01*
X245631Y33651D01*
X245591Y33647D01*
X245479Y33606D01*
X245365Y33573D01*
X245330Y33553D01*
X245292Y33539D01*
X245193Y33472D01*
X245091Y33412D01*
X245045Y33372D01*
X245029Y33361D01*
X245015Y33345D01*
X244970Y33305D01*
X244894Y33229D01*
X238841Y33229D01*
X238765Y33305D01*
X238671Y33378D01*
X238581Y33457D01*
X238545Y33476D01*
X238514Y33500D01*
X238404Y33548D01*
X238298Y33602D01*
X238259Y33611D01*
X238222Y33627D01*
X238104Y33645D01*
X237988Y33671D01*
X237948Y33670D01*
X237908Y33677D01*
X237789Y33665D01*
X237670Y33662D01*
X237631Y33651D01*
X237591Y33647D01*
X237479Y33606D01*
X237365Y33573D01*
X237330Y33553D01*
X237292Y33539D01*
X237193Y33472D01*
X237091Y33412D01*
X237045Y33372D01*
X237029Y33361D01*
X237015Y33345D01*
X236970Y33305D01*
X236894Y33229D01*
X230841Y33229D01*
X230765Y33305D01*
X230671Y33378D01*
X230581Y33457D01*
X230545Y33476D01*
X230514Y33500D01*
X230404Y33548D01*
X230298Y33602D01*
X230259Y33611D01*
X230222Y33627D01*
X230104Y33645D01*
X229988Y33671D01*
X229948Y33670D01*
X229908Y33677D01*
X229789Y33665D01*
X229670Y33662D01*
X229631Y33651D01*
X229591Y33647D01*
X229479Y33606D01*
X229365Y33573D01*
X229330Y33553D01*
X229292Y33539D01*
X229193Y33472D01*
X229091Y33412D01*
X229045Y33372D01*
X229029Y33361D01*
X229015Y33345D01*
X228970Y33305D01*
X228894Y33229D01*
X222841Y33229D01*
X222765Y33305D01*
X222671Y33378D01*
X222581Y33457D01*
X222545Y33476D01*
X222514Y33500D01*
X222404Y33548D01*
X222298Y33602D01*
X222259Y33611D01*
X222222Y33627D01*
X222104Y33645D01*
X221988Y33671D01*
X221948Y33670D01*
X221908Y33677D01*
X221789Y33665D01*
X221670Y33662D01*
X221631Y33651D01*
X221591Y33647D01*
X221479Y33606D01*
X221365Y33573D01*
X221330Y33553D01*
X221292Y33539D01*
X221193Y33472D01*
X221091Y33412D01*
X221045Y33372D01*
X221029Y33361D01*
X221015Y33345D01*
X220970Y33305D01*
X220894Y33229D01*
X214841Y33229D01*
X214765Y33305D01*
X214671Y33378D01*
X214581Y33457D01*
X214545Y33476D01*
X214514Y33500D01*
X214404Y33548D01*
X214298Y33602D01*
X214259Y33611D01*
X214222Y33627D01*
X214104Y33645D01*
X213988Y33671D01*
X213948Y33670D01*
X213908Y33677D01*
X213789Y33665D01*
X213670Y33662D01*
X213631Y33651D01*
X213591Y33647D01*
X213479Y33606D01*
X213365Y33573D01*
X213330Y33553D01*
X213292Y33539D01*
X213193Y33472D01*
X213091Y33412D01*
X213045Y33372D01*
X213029Y33361D01*
X213015Y33345D01*
X212970Y33305D01*
X212894Y33229D01*
X206841Y33229D01*
X206765Y33305D01*
X206671Y33378D01*
X206581Y33457D01*
X206545Y33476D01*
X206514Y33500D01*
X206404Y33548D01*
X206298Y33602D01*
X206259Y33611D01*
X206222Y33627D01*
X206104Y33645D01*
X205988Y33671D01*
X205948Y33670D01*
X205908Y33677D01*
X205789Y33665D01*
X205670Y33662D01*
X205631Y33651D01*
X205591Y33647D01*
X205479Y33606D01*
X205365Y33573D01*
X205330Y33553D01*
X205292Y33539D01*
X205193Y33472D01*
X205091Y33412D01*
X205045Y33372D01*
X205029Y33361D01*
X205015Y33345D01*
X204970Y33305D01*
X204894Y33229D01*
X198841Y33229D01*
X198765Y33305D01*
X198671Y33378D01*
X198581Y33457D01*
X198545Y33476D01*
X198514Y33500D01*
X198404Y33548D01*
X198298Y33602D01*
X198259Y33611D01*
X198222Y33627D01*
X198104Y33645D01*
X197988Y33671D01*
X197948Y33670D01*
X197908Y33677D01*
X197789Y33665D01*
X197670Y33662D01*
X197631Y33651D01*
X197591Y33647D01*
X197479Y33606D01*
X197365Y33573D01*
X197330Y33553D01*
X197292Y33539D01*
X197193Y33472D01*
X197091Y33412D01*
X197045Y33372D01*
X197029Y33361D01*
X197015Y33345D01*
X196970Y33305D01*
X196894Y33229D01*
X190841Y33229D01*
X190765Y33305D01*
X190671Y33378D01*
X190581Y33457D01*
X190545Y33476D01*
X190514Y33500D01*
X190404Y33548D01*
X190298Y33602D01*
X190259Y33611D01*
X190222Y33627D01*
X190104Y33645D01*
X189988Y33671D01*
X189948Y33670D01*
X189908Y33677D01*
X189789Y33665D01*
X189670Y33662D01*
X189631Y33651D01*
X189591Y33647D01*
X189479Y33606D01*
X189365Y33573D01*
X189330Y33553D01*
X189292Y33539D01*
X189193Y33472D01*
X189091Y33412D01*
X189045Y33372D01*
X189029Y33361D01*
X189015Y33345D01*
X188970Y33305D01*
X188894Y33229D01*
X182841Y33229D01*
X182765Y33305D01*
X182671Y33378D01*
X182581Y33457D01*
X182545Y33476D01*
X182514Y33500D01*
X182404Y33548D01*
X182298Y33602D01*
X182259Y33611D01*
X182222Y33627D01*
X182104Y33645D01*
X181988Y33671D01*
X181948Y33670D01*
X181908Y33677D01*
X181789Y33665D01*
X181670Y33662D01*
X181631Y33651D01*
X181591Y33647D01*
X181479Y33606D01*
X181365Y33573D01*
X181330Y33553D01*
X181292Y33539D01*
X181193Y33472D01*
X181091Y33412D01*
X181045Y33372D01*
X181029Y33361D01*
X181015Y33345D01*
X180970Y33305D01*
X180894Y33229D01*
X174841Y33229D01*
X174765Y33305D01*
X174671Y33378D01*
X174581Y33457D01*
X174545Y33476D01*
X174514Y33500D01*
X174404Y33548D01*
X174298Y33602D01*
X174259Y33611D01*
X174222Y33627D01*
X174104Y33645D01*
X173988Y33671D01*
X173948Y33670D01*
X173908Y33677D01*
X173789Y33665D01*
X173670Y33662D01*
X173631Y33651D01*
X173591Y33647D01*
X173479Y33606D01*
X173365Y33573D01*
X173330Y33553D01*
X173292Y33539D01*
X173193Y33472D01*
X173091Y33412D01*
X173045Y33372D01*
X173029Y33361D01*
X173015Y33345D01*
X172970Y33305D01*
X172894Y33229D01*
X166841Y33229D01*
X166097Y33974D01*
X166097Y43026D01*
X166841Y43771D01*
X172894Y43771D01*
X172970Y43695D01*
X173064Y43622D01*
X173153Y43543D01*
X173189Y43524D01*
X173221Y43500D01*
X173330Y43452D01*
X173436Y43398D01*
X173476Y43389D01*
X173513Y43373D01*
X173630Y43355D01*
X173747Y43329D01*
X173787Y43330D01*
X173827Y43323D01*
X173946Y43335D01*
X174065Y43338D01*
X174103Y43349D01*
X174144Y43353D01*
X174256Y43394D01*
X174370Y43427D01*
X174405Y43447D01*
X174443Y43461D01*
X174541Y43528D01*
X174644Y43588D01*
X174689Y43628D01*
X174706Y43639D01*
X174719Y43655D01*
X174765Y43695D01*
X174841Y43771D01*
X180894Y43771D01*
X180970Y43695D01*
X181064Y43622D01*
X181153Y43543D01*
X181189Y43524D01*
X181221Y43500D01*
X181330Y43452D01*
X181436Y43398D01*
X181476Y43389D01*
X181513Y43373D01*
X181630Y43355D01*
X181747Y43329D01*
X181787Y43330D01*
X181827Y43323D01*
X181946Y43335D01*
X182065Y43338D01*
X182103Y43349D01*
X182144Y43353D01*
X182256Y43394D01*
X182370Y43427D01*
X182405Y43447D01*
X182443Y43461D01*
X182541Y43528D01*
X182644Y43588D01*
X182689Y43628D01*
X182706Y43639D01*
X182719Y43655D01*
X182765Y43695D01*
X182841Y43771D01*
X188894Y43771D01*
X188970Y43695D01*
X189064Y43622D01*
X189153Y43543D01*
X189189Y43524D01*
X189221Y43500D01*
X189330Y43452D01*
X189436Y43398D01*
X189476Y43389D01*
X189513Y43373D01*
X189630Y43355D01*
X189747Y43329D01*
X189787Y43330D01*
X189827Y43323D01*
X189946Y43335D01*
X190065Y43338D01*
X190103Y43349D01*
X190144Y43353D01*
X190256Y43394D01*
X190370Y43427D01*
X190405Y43447D01*
X190443Y43461D01*
X190541Y43528D01*
X190644Y43588D01*
X190689Y43628D01*
X190706Y43639D01*
X190719Y43655D01*
X190765Y43695D01*
X190841Y43771D01*
X196894Y43771D01*
X196970Y43695D01*
X197064Y43622D01*
X197153Y43543D01*
X197189Y43524D01*
X197221Y43500D01*
X197330Y43452D01*
X197436Y43398D01*
X197476Y43389D01*
X197513Y43373D01*
X197630Y43355D01*
X197747Y43329D01*
X197787Y43330D01*
X197827Y43323D01*
X197946Y43335D01*
X198065Y43338D01*
X198103Y43349D01*
X198144Y43353D01*
X198256Y43394D01*
X198370Y43427D01*
X198405Y43447D01*
X198443Y43461D01*
X198541Y43528D01*
X198644Y43588D01*
X198689Y43628D01*
X198706Y43639D01*
X198719Y43655D01*
X198765Y43695D01*
X198841Y43771D01*
X204990Y43771D01*
X205108Y43786D01*
X205227Y43793D01*
X205265Y43806D01*
X205306Y43811D01*
X205416Y43854D01*
X205529Y43891D01*
X205564Y43913D01*
X205601Y43928D01*
X205697Y43997D01*
X205798Y44061D01*
X205826Y44091D01*
X205859Y44114D01*
X205935Y44206D01*
X206016Y44293D01*
X206036Y44328D01*
X206061Y44359D01*
X206112Y44467D01*
X206170Y44571D01*
X206180Y44611D01*
X206197Y44647D01*
X206219Y44764D01*
X206249Y44879D01*
X206253Y44939D01*
X206257Y44959D01*
X206255Y44980D01*
X206259Y45040D01*
X206259Y48292D01*
X207635Y49668D01*
X207720Y49777D01*
X207809Y49884D01*
X207818Y49903D01*
X207830Y49919D01*
X207885Y50047D01*
X207945Y50172D01*
X207948Y50192D01*
X207956Y50211D01*
X207978Y50349D01*
X208004Y50485D01*
X208003Y50505D01*
X208006Y50525D01*
X207993Y50663D01*
X207985Y50802D01*
X207978Y50821D01*
X207977Y50841D01*
X207929Y50973D01*
X207887Y51104D01*
X207876Y51122D01*
X207869Y51141D01*
X207791Y51256D01*
X207716Y51373D01*
X207702Y51387D01*
X207690Y51404D01*
X207586Y51496D01*
X207485Y51591D01*
X207467Y51601D01*
X207452Y51614D01*
X207328Y51678D01*
X207206Y51745D01*
X207187Y51750D01*
X207169Y51759D01*
X207033Y51789D01*
X206898Y51824D01*
X206870Y51826D01*
X206858Y51829D01*
X206838Y51828D01*
X206738Y51834D01*
X205092Y51834D01*
X204994Y51822D01*
X204895Y51819D01*
X204837Y51802D01*
X204777Y51794D01*
X204685Y51758D01*
X204590Y51730D01*
X204537Y51700D01*
X204481Y51677D01*
X204401Y51619D01*
X204316Y51569D01*
X204240Y51503D01*
X204224Y51491D01*
X204216Y51481D01*
X204195Y51463D01*
X203567Y50834D01*
X200633Y50834D01*
X198559Y52908D01*
X198559Y55842D01*
X200073Y57356D01*
X200116Y57411D01*
X200166Y57460D01*
X200213Y57536D01*
X200268Y57607D01*
X200296Y57671D01*
X200333Y57731D01*
X200359Y57816D01*
X200395Y57899D01*
X200397Y57916D01*
X203567Y57916D01*
X204195Y57287D01*
X204273Y57227D01*
X204345Y57159D01*
X204398Y57130D01*
X204446Y57093D01*
X204537Y57053D01*
X204624Y57005D01*
X204682Y56990D01*
X204738Y56966D01*
X204836Y56951D01*
X204932Y56926D01*
X205032Y56920D01*
X205052Y56916D01*
X205064Y56918D01*
X205092Y56916D01*
X215052Y56916D01*
X222681Y49287D01*
X222759Y49227D01*
X222831Y49159D01*
X222884Y49130D01*
X222932Y49093D01*
X223023Y49053D01*
X223110Y49005D01*
X223168Y48990D01*
X223224Y48966D01*
X223322Y48951D01*
X223417Y48926D01*
X223518Y48920D01*
X223538Y48916D01*
X223550Y48918D01*
X223578Y48916D01*
X223890Y48916D01*
X224008Y48931D01*
X224127Y48938D01*
X224165Y48951D01*
X224206Y48956D01*
X224316Y48999D01*
X224429Y49036D01*
X224464Y49058D01*
X224501Y49073D01*
X224597Y49142D01*
X224698Y49206D01*
X224726Y49236D01*
X224759Y49259D01*
X224835Y49351D01*
X224916Y49438D01*
X224936Y49473D01*
X224961Y49504D01*
X225012Y49612D01*
X225070Y49716D01*
X225080Y49756D01*
X225097Y49792D01*
X225119Y49909D01*
X225149Y50024D01*
X225153Y50084D01*
X225157Y50104D01*
X225155Y50125D01*
X225159Y50185D01*
X225159Y53467D01*
X227233Y55541D01*
X230167Y55541D01*
X230795Y54912D01*
X230873Y54852D01*
X230945Y54784D01*
X230998Y54755D01*
X231046Y54718D01*
X231137Y54678D01*
X231224Y54630D01*
X231282Y54615D01*
X231338Y54591D01*
X231436Y54576D01*
X231532Y54551D01*
X231632Y54545D01*
X231652Y54541D01*
X231664Y54543D01*
X231692Y54541D01*
X242852Y54541D01*
X252408Y44985D01*
X252408Y44782D01*
X252420Y44684D01*
X252423Y44585D01*
X252440Y44527D01*
X252448Y44467D01*
X252484Y44375D01*
X252512Y44279D01*
X252543Y44227D01*
X252565Y44171D01*
X252623Y44091D01*
X252673Y44006D01*
X252740Y43930D01*
X252752Y43914D01*
X252761Y43906D01*
X252780Y43885D01*
X252970Y43695D01*
X253064Y43622D01*
X253153Y43543D01*
X253189Y43524D01*
X253221Y43500D01*
X253330Y43452D01*
X253436Y43398D01*
X253476Y43389D01*
X253513Y43373D01*
X253630Y43355D01*
X253747Y43329D01*
X253787Y43330D01*
X253827Y43323D01*
X253945Y43335D01*
X254065Y43338D01*
X254103Y43349D01*
X254144Y43353D01*
X254256Y43394D01*
X254370Y43427D01*
X254405Y43447D01*
X254443Y43461D01*
X254541Y43528D01*
X254644Y43588D01*
X254689Y43628D01*
X254706Y43639D01*
X254720Y43655D01*
X254765Y43695D01*
X254841Y43771D01*
X260894Y43771D01*
X261638Y43026D01*
X261638Y33974D01*
X260827Y33163D01*
X260784Y33146D01*
X260671Y33109D01*
X260636Y33087D01*
X260599Y33072D01*
X260503Y33003D01*
X260402Y32939D01*
X260374Y32909D01*
X260341Y32886D01*
X260265Y32794D01*
X260184Y32707D01*
X260164Y32672D01*
X260139Y32641D01*
X260088Y32533D01*
X260030Y32429D01*
X260020Y32389D01*
X260003Y32353D01*
X259981Y32236D01*
X259951Y32121D01*
X259947Y32061D01*
X259943Y32041D01*
X259945Y32020D01*
X259941Y31960D01*
X259941Y22248D01*
X256592Y18899D01*
X180860Y18899D01*
X180742Y18884D01*
X180623Y18877D01*
X180585Y18864D01*
X180544Y18859D01*
X180434Y18816D01*
X180321Y18779D01*
X180286Y18757D01*
X180249Y18742D01*
X180231Y18729D01*
X178440Y18729D01*
X178322Y18714D01*
X178203Y18707D01*
X178165Y18695D01*
X178125Y18690D01*
X178014Y18646D01*
X177901Y18609D01*
X177867Y18587D01*
X177829Y18573D01*
X177733Y18503D01*
X177632Y18439D01*
X177632Y18438D01*
X177604Y18409D01*
X177572Y18386D01*
X177572Y18385D01*
X177571Y18385D01*
X177495Y18293D01*
X177414Y18207D01*
X177394Y18171D01*
X177368Y18140D01*
X177318Y18033D01*
X177260Y17928D01*
X177250Y17889D01*
X177233Y17853D01*
X177211Y17736D01*
X177181Y17620D01*
X177177Y17560D01*
X177173Y17540D01*
X177174Y17520D01*
X177171Y17460D01*
X177171Y15661D01*
X177148Y15613D01*
X177090Y15509D01*
X177080Y15469D01*
X177063Y15433D01*
X177041Y15316D01*
X177011Y15201D01*
X177007Y15141D01*
X177003Y15121D01*
X177005Y15100D01*
X177001Y15040D01*
X177001Y10408D01*
X175912Y9319D01*
X175852Y9241D01*
X175784Y9169D01*
X175755Y9116D01*
X175718Y9068D01*
X175678Y8977D01*
X175630Y8890D01*
X175615Y8832D01*
X175591Y8776D01*
X175576Y8678D01*
X175551Y8583D01*
X175545Y8482D01*
X175541Y8462D01*
X175543Y8450D01*
X175541Y8422D01*
X175541Y7533D01*
X173467Y5459D01*
X170533Y5459D01*
G37*
%LPD*%
%LPC*%
G36*
X157367Y87769D02*
X157367Y87769D01*
X153367Y87769D01*
X153367Y89000D01*
X153395Y89067D01*
X153402Y89096D01*
X153416Y89122D01*
X153444Y89249D01*
X153478Y89374D01*
X153479Y89404D01*
X153485Y89433D01*
X153482Y89563D01*
X153484Y89692D01*
X153477Y89721D01*
X153476Y89751D01*
X153440Y89876D01*
X153409Y90001D01*
X153396Y90028D01*
X153387Y90056D01*
X153321Y90168D01*
X153261Y90283D01*
X153241Y90305D01*
X153226Y90330D01*
X153119Y90451D01*
X152097Y91474D01*
X152097Y95184D01*
X152082Y95302D01*
X152074Y95421D01*
X152062Y95459D01*
X152057Y95499D01*
X152013Y95610D01*
X151976Y95723D01*
X151955Y95757D01*
X151940Y95795D01*
X151870Y95891D01*
X151806Y95992D01*
X151777Y96020D01*
X151753Y96052D01*
X151661Y96128D01*
X151574Y96210D01*
X151539Y96229D01*
X151508Y96255D01*
X151400Y96306D01*
X151296Y96363D01*
X151257Y96374D01*
X151220Y96391D01*
X151103Y96413D01*
X150988Y96443D01*
X150928Y96447D01*
X150908Y96451D01*
X150888Y96449D01*
X150827Y96453D01*
X147174Y96453D01*
X146275Y97351D01*
X146197Y97412D01*
X146125Y97480D01*
X146072Y97509D01*
X146024Y97546D01*
X145933Y97586D01*
X145847Y97633D01*
X145788Y97649D01*
X145732Y97673D01*
X145634Y97688D01*
X145539Y97713D01*
X145439Y97719D01*
X145418Y97722D01*
X145406Y97721D01*
X145378Y97723D01*
X145219Y97723D01*
X145219Y99473D01*
X145219Y99474D01*
X145219Y101271D01*
X145312Y101308D01*
X145425Y101345D01*
X145460Y101367D01*
X145497Y101381D01*
X145593Y101451D01*
X145694Y101515D01*
X145722Y101545D01*
X145755Y101568D01*
X145831Y101660D01*
X145912Y101747D01*
X145932Y101782D01*
X145957Y101813D01*
X146008Y101921D01*
X146066Y102025D01*
X146076Y102064D01*
X146093Y102101D01*
X146115Y102218D01*
X146145Y102333D01*
X146149Y102393D01*
X146153Y102413D01*
X146151Y102434D01*
X146155Y102494D01*
X146155Y104280D01*
X146140Y104398D01*
X146133Y104517D01*
X146120Y104555D01*
X146115Y104596D01*
X146072Y104706D01*
X146035Y104819D01*
X146013Y104854D01*
X145998Y104891D01*
X145929Y104987D01*
X145865Y105088D01*
X145835Y105116D01*
X145812Y105149D01*
X145720Y105225D01*
X145633Y105306D01*
X145598Y105326D01*
X145567Y105351D01*
X145459Y105402D01*
X145355Y105460D01*
X145315Y105470D01*
X145279Y105487D01*
X145219Y105498D01*
X145219Y107300D01*
X145219Y109098D01*
X145312Y109134D01*
X145425Y109171D01*
X145460Y109193D01*
X145497Y109208D01*
X145593Y109277D01*
X145694Y109341D01*
X145722Y109371D01*
X145755Y109394D01*
X145831Y109486D01*
X145912Y109573D01*
X145932Y109608D01*
X145957Y109639D01*
X146008Y109747D01*
X146066Y109851D01*
X146076Y109891D01*
X146093Y109927D01*
X146115Y110044D01*
X146145Y110159D01*
X146149Y110219D01*
X146153Y110239D01*
X146151Y110260D01*
X146155Y110320D01*
X146155Y112367D01*
X146143Y112465D01*
X146140Y112564D01*
X146123Y112622D01*
X146115Y112682D01*
X146079Y112774D01*
X146051Y112869D01*
X146021Y112922D01*
X145998Y112978D01*
X145940Y113058D01*
X145890Y113143D01*
X145824Y113219D01*
X145812Y113235D01*
X145802Y113243D01*
X145784Y113264D01*
X145260Y113788D01*
X145182Y113848D01*
X145110Y113916D01*
X145057Y113945D01*
X145009Y113982D01*
X144918Y114022D01*
X144831Y114070D01*
X144773Y114085D01*
X144717Y114109D01*
X144619Y114124D01*
X144523Y114149D01*
X144423Y114155D01*
X144403Y114159D01*
X144391Y114157D01*
X144363Y114159D01*
X143833Y114159D01*
X141759Y116233D01*
X141759Y119167D01*
X143833Y121241D01*
X146767Y121241D01*
X148841Y119167D01*
X148841Y118637D01*
X148853Y118539D01*
X148856Y118440D01*
X148873Y118382D01*
X148881Y118322D01*
X148917Y118230D01*
X148945Y118135D01*
X148975Y118082D01*
X148998Y118026D01*
X149056Y117946D01*
X149106Y117861D01*
X149172Y117785D01*
X149184Y117769D01*
X149194Y117761D01*
X149212Y117740D01*
X149736Y117216D01*
X151200Y115752D01*
X151310Y115667D01*
X151417Y115579D01*
X151435Y115570D01*
X151451Y115558D01*
X151579Y115502D01*
X151705Y115443D01*
X151724Y115439D01*
X151743Y115431D01*
X151881Y115409D01*
X152017Y115383D01*
X152037Y115385D01*
X152057Y115381D01*
X152196Y115394D01*
X152334Y115403D01*
X152353Y115409D01*
X152374Y115411D01*
X152505Y115458D01*
X152637Y115501D01*
X152654Y115512D01*
X152673Y115519D01*
X152788Y115597D01*
X152905Y115671D01*
X152919Y115686D01*
X152936Y115697D01*
X153028Y115802D01*
X153123Y115903D01*
X153133Y115921D01*
X153147Y115936D01*
X153210Y116060D01*
X153277Y116181D01*
X153282Y116201D01*
X153291Y116219D01*
X153322Y116355D01*
X153356Y116489D01*
X153358Y116517D01*
X153361Y116529D01*
X153360Y116550D01*
X153367Y116650D01*
X153367Y117231D01*
X157367Y117231D01*
X157368Y117231D01*
X161368Y117231D01*
X161368Y116000D01*
X161340Y115933D01*
X161332Y115904D01*
X161319Y115878D01*
X161290Y115751D01*
X161256Y115626D01*
X161256Y115596D01*
X161249Y115567D01*
X161253Y115437D01*
X161251Y115308D01*
X161258Y115279D01*
X161259Y115249D01*
X161295Y115124D01*
X161325Y114999D01*
X161339Y114972D01*
X161347Y114944D01*
X161413Y114832D01*
X161474Y114717D01*
X161494Y114695D01*
X161509Y114670D01*
X161615Y114549D01*
X162638Y113526D01*
X162638Y107474D01*
X162562Y107398D01*
X162489Y107303D01*
X162410Y107214D01*
X162392Y107178D01*
X162367Y107146D01*
X162320Y107037D01*
X162266Y106931D01*
X162257Y106891D01*
X162241Y106854D01*
X162222Y106737D01*
X162196Y106621D01*
X162197Y106580D01*
X162191Y106540D01*
X162202Y106422D01*
X162206Y106303D01*
X162217Y106264D01*
X162221Y106224D01*
X162261Y106111D01*
X162294Y105997D01*
X162314Y105963D01*
X162328Y105924D01*
X162395Y105826D01*
X162456Y105723D01*
X162495Y105678D01*
X162507Y105661D01*
X162522Y105648D01*
X162562Y105603D01*
X162698Y105466D01*
X162776Y105406D01*
X162848Y105338D01*
X162901Y105309D01*
X162949Y105272D01*
X163040Y105232D01*
X163127Y105184D01*
X163185Y105169D01*
X163241Y105145D01*
X163339Y105130D01*
X163435Y105105D01*
X163535Y105099D01*
X163555Y105095D01*
X163567Y105097D01*
X163595Y105095D01*
X163762Y105095D01*
X163860Y105107D01*
X163959Y105110D01*
X164017Y105127D01*
X164077Y105135D01*
X164169Y105171D01*
X164264Y105199D01*
X164317Y105229D01*
X164373Y105252D01*
X164453Y105310D01*
X164538Y105360D01*
X164614Y105426D01*
X164630Y105438D01*
X164638Y105448D01*
X164659Y105466D01*
X165033Y105841D01*
X167967Y105841D01*
X170041Y103767D01*
X170041Y100833D01*
X167967Y98759D01*
X165033Y98759D01*
X164659Y99134D01*
X164581Y99194D01*
X164509Y99262D01*
X164456Y99291D01*
X164408Y99328D01*
X164317Y99368D01*
X164230Y99416D01*
X164172Y99431D01*
X164116Y99455D01*
X164018Y99470D01*
X163922Y99495D01*
X163822Y99501D01*
X163802Y99505D01*
X163790Y99503D01*
X163762Y99505D01*
X163723Y99505D01*
X163586Y99488D01*
X163447Y99475D01*
X163428Y99468D01*
X163408Y99465D01*
X163279Y99414D01*
X163148Y99367D01*
X163131Y99356D01*
X163112Y99348D01*
X162999Y99267D01*
X162885Y99189D01*
X162871Y99173D01*
X162855Y99162D01*
X162766Y99054D01*
X162674Y98950D01*
X162665Y98932D01*
X162652Y98917D01*
X162593Y98791D01*
X162530Y98667D01*
X162525Y98647D01*
X162516Y98629D01*
X162490Y98492D01*
X162460Y98357D01*
X162461Y98336D01*
X162457Y98317D01*
X162465Y98178D01*
X162470Y98039D01*
X162475Y98019D01*
X162476Y97999D01*
X162519Y97867D01*
X162558Y97733D01*
X162568Y97716D01*
X162574Y97697D01*
X162638Y97596D01*
X162638Y91474D01*
X161615Y90451D01*
X161597Y90427D01*
X161575Y90408D01*
X161500Y90302D01*
X161420Y90200D01*
X161409Y90172D01*
X161392Y90148D01*
X161346Y90027D01*
X161294Y89908D01*
X161289Y89878D01*
X161279Y89851D01*
X161264Y89722D01*
X161244Y89594D01*
X161247Y89564D01*
X161244Y89535D01*
X161262Y89406D01*
X161274Y89277D01*
X161284Y89249D01*
X161288Y89220D01*
X161340Y89067D01*
X161368Y89000D01*
X161368Y87769D01*
X157368Y87769D01*
X157367Y87769D01*
X157367Y87769D01*
G37*
%LPD*%
%LPC*%
G36*
X168815Y133159D02*
X168815Y133159D01*
X167327Y134648D01*
X167327Y136218D01*
X167314Y136316D01*
X167311Y136415D01*
X167294Y136473D01*
X167287Y136533D01*
X167250Y136626D01*
X167223Y136721D01*
X167192Y136773D01*
X167170Y136829D01*
X167112Y136909D01*
X167061Y136995D01*
X166995Y137070D01*
X166983Y137086D01*
X166973Y137094D01*
X166955Y137115D01*
X166097Y137974D01*
X166097Y147026D01*
X166841Y147771D01*
X172894Y147771D01*
X172970Y147695D01*
X173064Y147622D01*
X173153Y147543D01*
X173189Y147524D01*
X173221Y147500D01*
X173330Y147452D01*
X173436Y147398D01*
X173476Y147389D01*
X173513Y147373D01*
X173631Y147355D01*
X173747Y147329D01*
X173787Y147330D01*
X173827Y147323D01*
X173946Y147335D01*
X174065Y147338D01*
X174103Y147349D01*
X174144Y147353D01*
X174256Y147394D01*
X174370Y147427D01*
X174405Y147447D01*
X174443Y147461D01*
X174541Y147528D01*
X174644Y147588D01*
X174689Y147628D01*
X174706Y147639D01*
X174720Y147655D01*
X174765Y147695D01*
X174841Y147771D01*
X180894Y147771D01*
X180970Y147695D01*
X181064Y147622D01*
X181153Y147543D01*
X181189Y147524D01*
X181221Y147500D01*
X181330Y147452D01*
X181436Y147398D01*
X181476Y147389D01*
X181513Y147373D01*
X181631Y147355D01*
X181747Y147329D01*
X181787Y147330D01*
X181827Y147323D01*
X181946Y147335D01*
X182065Y147338D01*
X182103Y147349D01*
X182144Y147353D01*
X182256Y147394D01*
X182370Y147427D01*
X182405Y147447D01*
X182443Y147461D01*
X182541Y147528D01*
X182644Y147588D01*
X182689Y147628D01*
X182706Y147639D01*
X182720Y147655D01*
X182765Y147695D01*
X182841Y147771D01*
X188894Y147771D01*
X188970Y147695D01*
X189064Y147622D01*
X189153Y147543D01*
X189189Y147524D01*
X189221Y147500D01*
X189330Y147452D01*
X189436Y147398D01*
X189476Y147389D01*
X189513Y147373D01*
X189631Y147355D01*
X189747Y147329D01*
X189787Y147330D01*
X189827Y147323D01*
X189946Y147335D01*
X190065Y147338D01*
X190103Y147349D01*
X190144Y147353D01*
X190256Y147394D01*
X190370Y147427D01*
X190405Y147447D01*
X190443Y147461D01*
X190541Y147528D01*
X190644Y147588D01*
X190689Y147628D01*
X190706Y147639D01*
X190720Y147655D01*
X190765Y147695D01*
X190841Y147771D01*
X196894Y147771D01*
X197917Y146748D01*
X197940Y146730D01*
X197959Y146707D01*
X198065Y146633D01*
X198168Y146553D01*
X198195Y146541D01*
X198219Y146524D01*
X198340Y146478D01*
X198460Y146427D01*
X198489Y146422D01*
X198516Y146412D01*
X198645Y146397D01*
X198774Y146377D01*
X198803Y146380D01*
X198833Y146376D01*
X198961Y146394D01*
X199090Y146407D01*
X199118Y146417D01*
X199147Y146421D01*
X199300Y146473D01*
X199367Y146501D01*
X200598Y146501D01*
X200598Y142500D01*
X200598Y138499D01*
X199367Y138499D01*
X199300Y138527D01*
X199271Y138535D01*
X199245Y138548D01*
X199118Y138577D01*
X198993Y138611D01*
X198963Y138612D01*
X198935Y138618D01*
X198805Y138614D01*
X198675Y138616D01*
X198646Y138609D01*
X198617Y138608D01*
X198492Y138572D01*
X198366Y138542D01*
X198340Y138528D01*
X198311Y138520D01*
X198199Y138454D01*
X198085Y138393D01*
X198063Y138373D01*
X198037Y138358D01*
X197917Y138252D01*
X196780Y137115D01*
X196719Y137037D01*
X196651Y136965D01*
X196622Y136912D01*
X196585Y136864D01*
X196546Y136773D01*
X196498Y136687D01*
X196483Y136628D01*
X196459Y136572D01*
X196443Y136474D01*
X196418Y136379D01*
X196412Y136279D01*
X196409Y136258D01*
X196410Y136246D01*
X196408Y136218D01*
X196408Y134648D01*
X194920Y133159D01*
X168815Y133159D01*
G37*
%LPD*%
%LPC*%
G36*
X152841Y42729D02*
X152841Y42729D01*
X152097Y43474D01*
X152097Y49526D01*
X152173Y49603D01*
X152246Y49697D01*
X152325Y49786D01*
X152343Y49822D01*
X152368Y49854D01*
X152415Y49963D01*
X152469Y50069D01*
X152478Y50109D01*
X152494Y50146D01*
X152513Y50263D01*
X152539Y50379D01*
X152538Y50420D01*
X152544Y50460D01*
X152533Y50579D01*
X152529Y50697D01*
X152518Y50736D01*
X152514Y50776D01*
X152474Y50889D01*
X152441Y51003D01*
X152420Y51038D01*
X152406Y51076D01*
X152340Y51174D01*
X152279Y51277D01*
X152239Y51322D01*
X152228Y51339D01*
X152213Y51352D01*
X152173Y51398D01*
X152097Y51474D01*
X152097Y57526D01*
X152173Y57603D01*
X152246Y57697D01*
X152325Y57786D01*
X152343Y57822D01*
X152368Y57854D01*
X152415Y57963D01*
X152469Y58069D01*
X152478Y58109D01*
X152494Y58146D01*
X152513Y58263D01*
X152539Y58379D01*
X152538Y58420D01*
X152544Y58460D01*
X152533Y58579D01*
X152529Y58697D01*
X152518Y58736D01*
X152514Y58776D01*
X152474Y58889D01*
X152441Y59003D01*
X152420Y59038D01*
X152406Y59076D01*
X152340Y59174D01*
X152279Y59277D01*
X152239Y59322D01*
X152228Y59339D01*
X152213Y59352D01*
X152173Y59398D01*
X152097Y59474D01*
X152097Y65526D01*
X152173Y65603D01*
X152246Y65697D01*
X152325Y65786D01*
X152343Y65822D01*
X152368Y65854D01*
X152415Y65963D01*
X152469Y66069D01*
X152478Y66109D01*
X152494Y66146D01*
X152513Y66263D01*
X152539Y66379D01*
X152538Y66420D01*
X152544Y66460D01*
X152533Y66579D01*
X152529Y66697D01*
X152518Y66736D01*
X152514Y66776D01*
X152474Y66889D01*
X152441Y67003D01*
X152420Y67038D01*
X152406Y67076D01*
X152340Y67174D01*
X152279Y67277D01*
X152239Y67322D01*
X152228Y67339D01*
X152213Y67352D01*
X152173Y67398D01*
X152097Y67474D01*
X152097Y73526D01*
X152173Y73603D01*
X152246Y73697D01*
X152325Y73786D01*
X152343Y73822D01*
X152368Y73854D01*
X152415Y73963D01*
X152469Y74069D01*
X152478Y74109D01*
X152494Y74146D01*
X152513Y74263D01*
X152539Y74379D01*
X152538Y74420D01*
X152544Y74460D01*
X152533Y74579D01*
X152529Y74697D01*
X152518Y74736D01*
X152514Y74776D01*
X152474Y74889D01*
X152441Y75003D01*
X152420Y75038D01*
X152406Y75076D01*
X152340Y75174D01*
X152279Y75277D01*
X152239Y75322D01*
X152228Y75339D01*
X152213Y75352D01*
X152173Y75398D01*
X152097Y75474D01*
X152097Y81526D01*
X153119Y82549D01*
X153138Y82573D01*
X153160Y82592D01*
X153235Y82698D01*
X153314Y82800D01*
X153326Y82828D01*
X153343Y82852D01*
X153389Y82973D01*
X153441Y83092D01*
X153445Y83122D01*
X153456Y83149D01*
X153470Y83278D01*
X153491Y83406D01*
X153488Y83436D01*
X153491Y83465D01*
X153473Y83594D01*
X153461Y83723D01*
X153451Y83751D01*
X153447Y83780D01*
X153395Y83933D01*
X153367Y84000D01*
X153367Y85231D01*
X157367Y85231D01*
X157368Y85231D01*
X161368Y85231D01*
X161368Y84000D01*
X161340Y83932D01*
X161332Y83904D01*
X161319Y83878D01*
X161291Y83751D01*
X161256Y83626D01*
X161256Y83596D01*
X161249Y83567D01*
X161253Y83438D01*
X161251Y83308D01*
X161258Y83279D01*
X161259Y83249D01*
X161295Y83125D01*
X161325Y82998D01*
X161339Y82972D01*
X161347Y82944D01*
X161413Y82832D01*
X161474Y82717D01*
X161494Y82695D01*
X161509Y82670D01*
X161615Y82549D01*
X162638Y81526D01*
X162638Y75474D01*
X162562Y75398D01*
X162489Y75303D01*
X162410Y75214D01*
X162392Y75178D01*
X162367Y75146D01*
X162320Y75037D01*
X162266Y74931D01*
X162257Y74891D01*
X162241Y74854D01*
X162222Y74737D01*
X162196Y74621D01*
X162197Y74580D01*
X162191Y74540D01*
X162202Y74422D01*
X162206Y74303D01*
X162217Y74264D01*
X162221Y74224D01*
X162261Y74111D01*
X162294Y73997D01*
X162315Y73962D01*
X162328Y73924D01*
X162395Y73826D01*
X162456Y73723D01*
X162495Y73678D01*
X162507Y73661D01*
X162522Y73648D01*
X162562Y73603D01*
X162638Y73526D01*
X162638Y67474D01*
X162562Y67398D01*
X162489Y67303D01*
X162410Y67214D01*
X162392Y67178D01*
X162367Y67146D01*
X162320Y67037D01*
X162266Y66931D01*
X162257Y66891D01*
X162241Y66854D01*
X162222Y66737D01*
X162196Y66621D01*
X162197Y66580D01*
X162191Y66540D01*
X162202Y66422D01*
X162206Y66303D01*
X162217Y66264D01*
X162221Y66224D01*
X162261Y66111D01*
X162294Y65997D01*
X162314Y65963D01*
X162328Y65924D01*
X162395Y65826D01*
X162456Y65723D01*
X162495Y65678D01*
X162507Y65661D01*
X162522Y65648D01*
X162562Y65603D01*
X162638Y65526D01*
X162638Y59474D01*
X162562Y59398D01*
X162489Y59303D01*
X162410Y59214D01*
X162392Y59178D01*
X162367Y59146D01*
X162320Y59037D01*
X162266Y58931D01*
X162257Y58891D01*
X162241Y58854D01*
X162222Y58737D01*
X162196Y58621D01*
X162197Y58580D01*
X162191Y58540D01*
X162202Y58422D01*
X162206Y58303D01*
X162217Y58264D01*
X162221Y58224D01*
X162261Y58111D01*
X162294Y57997D01*
X162314Y57963D01*
X162328Y57924D01*
X162395Y57826D01*
X162456Y57723D01*
X162495Y57678D01*
X162507Y57661D01*
X162522Y57648D01*
X162562Y57603D01*
X162638Y57526D01*
X162638Y51474D01*
X162562Y51398D01*
X162489Y51303D01*
X162410Y51214D01*
X162392Y51178D01*
X162367Y51146D01*
X162320Y51037D01*
X162266Y50931D01*
X162257Y50891D01*
X162241Y50854D01*
X162222Y50737D01*
X162196Y50621D01*
X162197Y50580D01*
X162191Y50540D01*
X162202Y50422D01*
X162206Y50303D01*
X162217Y50264D01*
X162221Y50224D01*
X162261Y50111D01*
X162294Y49997D01*
X162314Y49963D01*
X162328Y49924D01*
X162395Y49826D01*
X162456Y49723D01*
X162495Y49678D01*
X162507Y49661D01*
X162522Y49648D01*
X162562Y49603D01*
X162638Y49526D01*
X162638Y43474D01*
X161894Y42729D01*
X152841Y42729D01*
G37*
%LPD*%
%LPC*%
G36*
X157367Y119769D02*
X157367Y119769D01*
X153367Y119769D01*
X153367Y121000D01*
X153395Y121068D01*
X153402Y121096D01*
X153416Y121122D01*
X153444Y121249D01*
X153478Y121374D01*
X153479Y121404D01*
X153485Y121433D01*
X153481Y121562D01*
X153484Y121692D01*
X153477Y121721D01*
X153476Y121751D01*
X153440Y121875D01*
X153409Y122002D01*
X153396Y122028D01*
X153387Y122056D01*
X153321Y122168D01*
X153261Y122283D01*
X153241Y122305D01*
X153226Y122330D01*
X153119Y122451D01*
X152097Y123474D01*
X152097Y129526D01*
X152173Y129603D01*
X152246Y129697D01*
X152325Y129786D01*
X152343Y129822D01*
X152368Y129854D01*
X152415Y129963D01*
X152469Y130069D01*
X152478Y130109D01*
X152494Y130146D01*
X152513Y130263D01*
X152539Y130379D01*
X152538Y130420D01*
X152544Y130460D01*
X152533Y130579D01*
X152529Y130697D01*
X152518Y130736D01*
X152514Y130776D01*
X152474Y130889D01*
X152441Y131003D01*
X152420Y131038D01*
X152406Y131076D01*
X152340Y131174D01*
X152279Y131277D01*
X152239Y131322D01*
X152228Y131339D01*
X152213Y131352D01*
X152173Y131398D01*
X152097Y131474D01*
X152097Y137526D01*
X152841Y138271D01*
X161894Y138271D01*
X162638Y137526D01*
X162638Y131474D01*
X162562Y131398D01*
X162489Y131303D01*
X162410Y131214D01*
X162392Y131178D01*
X162367Y131146D01*
X162320Y131037D01*
X162266Y130931D01*
X162257Y130891D01*
X162241Y130854D01*
X162222Y130737D01*
X162196Y130621D01*
X162197Y130580D01*
X162191Y130540D01*
X162202Y130422D01*
X162206Y130303D01*
X162217Y130264D01*
X162221Y130224D01*
X162261Y130111D01*
X162294Y129997D01*
X162314Y129963D01*
X162328Y129924D01*
X162395Y129826D01*
X162456Y129723D01*
X162495Y129678D01*
X162507Y129661D01*
X162522Y129648D01*
X162562Y129603D01*
X162638Y129526D01*
X162638Y123474D01*
X161615Y122451D01*
X161597Y122427D01*
X161575Y122408D01*
X161500Y122302D01*
X161420Y122200D01*
X161409Y122172D01*
X161392Y122148D01*
X161346Y122027D01*
X161294Y121908D01*
X161289Y121878D01*
X161279Y121851D01*
X161265Y121722D01*
X161244Y121594D01*
X161247Y121564D01*
X161244Y121535D01*
X161262Y121406D01*
X161274Y121277D01*
X161284Y121249D01*
X161288Y121220D01*
X161340Y121068D01*
X161368Y121000D01*
X161368Y119769D01*
X157368Y119769D01*
X157367Y119769D01*
X157367Y119769D01*
G37*
%LPD*%
%LPC*%
G36*
X109874Y17749D02*
X109874Y17749D01*
X106708Y17749D01*
X106708Y17755D01*
X106691Y17813D01*
X106683Y17873D01*
X106647Y17966D01*
X106619Y18061D01*
X106589Y18113D01*
X106566Y18169D01*
X106508Y18249D01*
X106458Y18335D01*
X106392Y18410D01*
X106380Y18426D01*
X106370Y18434D01*
X106352Y18455D01*
X105453Y19354D01*
X105453Y33610D01*
X105525Y33702D01*
X105613Y33809D01*
X105622Y33828D01*
X105634Y33844D01*
X105690Y33971D01*
X105749Y34097D01*
X105753Y34117D01*
X105761Y34136D01*
X105782Y34273D01*
X105799Y34357D01*
X105802Y34356D01*
X105822Y34357D01*
X105922Y34351D01*
X113550Y34351D01*
X114295Y33606D01*
X114295Y19354D01*
X113396Y18455D01*
X113336Y18377D01*
X113268Y18305D01*
X113239Y18252D01*
X113202Y18204D01*
X113162Y18113D01*
X113114Y18027D01*
X113099Y17968D01*
X113075Y17912D01*
X113060Y17814D01*
X113043Y17749D01*
X109874Y17749D01*
X109874Y17749D01*
G37*
%LPD*%
G36*
X125550Y41781D02*
X125550Y41781D01*
X125601Y41783D01*
X125633Y41801D01*
X125669Y41809D01*
X125708Y41842D01*
X125753Y41866D01*
X125774Y41896D01*
X125802Y41919D01*
X125823Y41966D01*
X125853Y42008D01*
X125861Y42050D01*
X125873Y42078D01*
X125872Y42108D01*
X125880Y42150D01*
X125880Y49150D01*
X125863Y49224D01*
X125850Y49299D01*
X125843Y49309D01*
X125841Y49319D01*
X125817Y49348D01*
X125769Y49419D01*
X121269Y53919D01*
X121204Y53959D01*
X121142Y54003D01*
X121130Y54005D01*
X121122Y54010D01*
X121085Y54014D01*
X121000Y54030D01*
X114000Y54030D01*
X113950Y54019D01*
X113899Y54017D01*
X113867Y53999D01*
X113831Y53991D01*
X113792Y53958D01*
X113747Y53934D01*
X113726Y53904D01*
X113698Y53881D01*
X113677Y53834D01*
X113647Y53792D01*
X113639Y53750D01*
X113627Y53722D01*
X113628Y53692D01*
X113620Y53650D01*
X113620Y46150D01*
X113637Y46076D01*
X113650Y46001D01*
X113657Y45991D01*
X113659Y45981D01*
X113683Y45952D01*
X113731Y45881D01*
X117731Y41881D01*
X117796Y41841D01*
X117858Y41797D01*
X117870Y41795D01*
X117878Y41790D01*
X117915Y41786D01*
X118000Y41770D01*
X125500Y41770D01*
X125550Y41781D01*
G37*
G36*
X142574Y41787D02*
X142574Y41787D01*
X142649Y41800D01*
X142659Y41807D01*
X142669Y41809D01*
X142698Y41833D01*
X142769Y41881D01*
X146769Y45881D01*
X146809Y45946D01*
X146853Y46008D01*
X146855Y46020D01*
X146860Y46028D01*
X146864Y46065D01*
X146880Y46150D01*
X146880Y53650D01*
X146869Y53700D01*
X146867Y53751D01*
X146849Y53783D01*
X146841Y53819D01*
X146808Y53858D01*
X146784Y53903D01*
X146754Y53924D01*
X146731Y53952D01*
X146684Y53973D01*
X146642Y54003D01*
X146600Y54011D01*
X146572Y54023D01*
X146542Y54022D01*
X146500Y54030D01*
X139500Y54030D01*
X139426Y54013D01*
X139351Y54000D01*
X139341Y53993D01*
X139331Y53991D01*
X139302Y53967D01*
X139231Y53919D01*
X134731Y49419D01*
X134691Y49354D01*
X134647Y49292D01*
X134645Y49280D01*
X134640Y49272D01*
X134636Y49235D01*
X134620Y49150D01*
X134620Y42150D01*
X134631Y42100D01*
X134633Y42049D01*
X134651Y42017D01*
X134659Y41981D01*
X134692Y41942D01*
X134716Y41897D01*
X134746Y41876D01*
X134769Y41848D01*
X134816Y41827D01*
X134858Y41797D01*
X134900Y41789D01*
X134928Y41777D01*
X134958Y41778D01*
X135000Y41770D01*
X142500Y41770D01*
X142574Y41787D01*
G37*
G36*
X121074Y63287D02*
X121074Y63287D01*
X121149Y63300D01*
X121159Y63307D01*
X121169Y63309D01*
X121198Y63333D01*
X121269Y63381D01*
X125769Y67881D01*
X125809Y67946D01*
X125853Y68008D01*
X125855Y68020D01*
X125860Y68028D01*
X125864Y68065D01*
X125880Y68150D01*
X125880Y75150D01*
X125869Y75200D01*
X125867Y75251D01*
X125849Y75283D01*
X125841Y75319D01*
X125808Y75358D01*
X125784Y75403D01*
X125754Y75424D01*
X125731Y75452D01*
X125684Y75473D01*
X125642Y75503D01*
X125600Y75511D01*
X125572Y75523D01*
X125542Y75522D01*
X125500Y75530D01*
X118000Y75530D01*
X117926Y75513D01*
X117851Y75500D01*
X117841Y75493D01*
X117831Y75491D01*
X117802Y75467D01*
X117731Y75419D01*
X113731Y71419D01*
X113691Y71354D01*
X113647Y71292D01*
X113645Y71280D01*
X113640Y71272D01*
X113636Y71235D01*
X113620Y71150D01*
X113620Y63650D01*
X113631Y63600D01*
X113633Y63549D01*
X113651Y63517D01*
X113659Y63481D01*
X113692Y63442D01*
X113716Y63397D01*
X113746Y63376D01*
X113769Y63348D01*
X113816Y63327D01*
X113858Y63297D01*
X113900Y63289D01*
X113928Y63277D01*
X113958Y63278D01*
X114000Y63270D01*
X121000Y63270D01*
X121074Y63287D01*
G37*
G36*
X146550Y63281D02*
X146550Y63281D01*
X146601Y63283D01*
X146633Y63301D01*
X146669Y63309D01*
X146708Y63342D01*
X146753Y63366D01*
X146774Y63396D01*
X146802Y63419D01*
X146823Y63466D01*
X146853Y63508D01*
X146861Y63550D01*
X146873Y63578D01*
X146872Y63608D01*
X146880Y63650D01*
X146880Y71150D01*
X146863Y71224D01*
X146850Y71299D01*
X146843Y71309D01*
X146841Y71319D01*
X146817Y71348D01*
X146769Y71419D01*
X142769Y75419D01*
X142704Y75459D01*
X142642Y75503D01*
X142630Y75505D01*
X142622Y75510D01*
X142585Y75514D01*
X142500Y75530D01*
X135000Y75530D01*
X134950Y75519D01*
X134899Y75517D01*
X134867Y75499D01*
X134831Y75491D01*
X134792Y75458D01*
X134747Y75434D01*
X134726Y75404D01*
X134698Y75381D01*
X134677Y75334D01*
X134647Y75292D01*
X134639Y75250D01*
X134627Y75222D01*
X134628Y75192D01*
X134620Y75150D01*
X134620Y68150D01*
X134637Y68076D01*
X134650Y68001D01*
X134657Y67991D01*
X134659Y67981D01*
X134683Y67952D01*
X134731Y67881D01*
X139231Y63381D01*
X139296Y63341D01*
X139358Y63297D01*
X139370Y63295D01*
X139378Y63290D01*
X139415Y63286D01*
X139500Y63270D01*
X146500Y63270D01*
X146550Y63281D01*
G37*
G36*
X229946Y147335D02*
X229946Y147335D01*
X230065Y147338D01*
X230103Y147349D01*
X230144Y147353D01*
X230256Y147394D01*
X230370Y147427D01*
X230405Y147447D01*
X230443Y147461D01*
X230542Y147528D01*
X230644Y147588D01*
X230689Y147628D01*
X230706Y147640D01*
X230720Y147655D01*
X230765Y147695D01*
X230841Y147771D01*
X234758Y147771D01*
X234896Y147788D01*
X235034Y147801D01*
X235053Y147808D01*
X235073Y147811D01*
X235203Y147862D01*
X235333Y147909D01*
X235350Y147920D01*
X235369Y147928D01*
X235481Y148009D01*
X235597Y148087D01*
X235610Y148103D01*
X235626Y148114D01*
X235715Y148222D01*
X235807Y148326D01*
X235816Y148344D01*
X235829Y148359D01*
X235888Y148485D01*
X235952Y148609D01*
X235956Y148629D01*
X235965Y148647D01*
X235991Y148783D01*
X236021Y148919D01*
X236021Y148940D01*
X236024Y148959D01*
X236016Y149098D01*
X236012Y149237D01*
X236006Y149257D01*
X236005Y149277D01*
X235962Y149409D01*
X235923Y149543D01*
X235913Y149560D01*
X235907Y149579D01*
X235832Y149697D01*
X235762Y149817D01*
X235743Y149838D01*
X235736Y149848D01*
X235721Y149862D01*
X235659Y149933D01*
X235659Y152867D01*
X236288Y153495D01*
X236348Y153573D01*
X236416Y153645D01*
X236445Y153698D01*
X236482Y153746D01*
X236522Y153837D01*
X236570Y153924D01*
X236585Y153982D01*
X236609Y154038D01*
X236624Y154136D01*
X236649Y154232D01*
X236655Y154332D01*
X236659Y154352D01*
X236657Y154364D01*
X236659Y154392D01*
X236659Y155178D01*
X236644Y155296D01*
X236637Y155415D01*
X236624Y155453D01*
X236619Y155494D01*
X236576Y155604D01*
X236539Y155717D01*
X236517Y155752D01*
X236502Y155789D01*
X236433Y155885D01*
X236369Y155986D01*
X236339Y156014D01*
X236316Y156047D01*
X236224Y156123D01*
X236137Y156204D01*
X236102Y156224D01*
X236071Y156249D01*
X235963Y156300D01*
X235859Y156358D01*
X235819Y156368D01*
X235783Y156385D01*
X235666Y156407D01*
X235551Y156437D01*
X235491Y156441D01*
X235471Y156445D01*
X235450Y156443D01*
X235390Y156447D01*
X229992Y156447D01*
X229247Y157192D01*
X229247Y161190D01*
X229232Y161308D01*
X229225Y161427D01*
X229212Y161465D01*
X229207Y161506D01*
X229164Y161616D01*
X229127Y161729D01*
X229105Y161764D01*
X229090Y161801D01*
X229021Y161897D01*
X228957Y161998D01*
X228927Y162026D01*
X228904Y162059D01*
X228812Y162135D01*
X228725Y162216D01*
X228690Y162236D01*
X228659Y162261D01*
X228551Y162312D01*
X228447Y162370D01*
X228407Y162380D01*
X228371Y162397D01*
X228254Y162419D01*
X228139Y162449D01*
X228079Y162453D01*
X228059Y162457D01*
X228038Y162455D01*
X227978Y162459D01*
X224422Y162459D01*
X224304Y162444D01*
X224185Y162437D01*
X224147Y162424D01*
X224106Y162419D01*
X223996Y162376D01*
X223883Y162339D01*
X223848Y162317D01*
X223811Y162302D01*
X223715Y162233D01*
X223614Y162169D01*
X223586Y162139D01*
X223553Y162116D01*
X223477Y162024D01*
X223396Y161937D01*
X223376Y161902D01*
X223351Y161871D01*
X223300Y161763D01*
X223242Y161659D01*
X223232Y161619D01*
X223215Y161583D01*
X223193Y161466D01*
X223163Y161351D01*
X223159Y161291D01*
X223155Y161271D01*
X223157Y161250D01*
X223153Y161190D01*
X223153Y156966D01*
X223135Y156853D01*
X223109Y156737D01*
X223110Y156696D01*
X223104Y156657D01*
X223115Y156538D01*
X223118Y156419D01*
X223129Y156380D01*
X223133Y156340D01*
X223174Y156228D01*
X223207Y156113D01*
X223227Y156079D01*
X223241Y156041D01*
X223308Y155942D01*
X223368Y155839D01*
X223408Y155794D01*
X223419Y155778D01*
X223435Y155764D01*
X223475Y155719D01*
X228441Y150752D01*
X228441Y148749D01*
X228453Y148651D01*
X228456Y148552D01*
X228473Y148494D01*
X228481Y148434D01*
X228517Y148342D01*
X228545Y148247D01*
X228575Y148194D01*
X228598Y148138D01*
X228656Y148058D01*
X228706Y147973D01*
X228772Y147897D01*
X228784Y147881D01*
X228794Y147873D01*
X228813Y147852D01*
X228970Y147694D01*
X229064Y147622D01*
X229153Y147543D01*
X229189Y147524D01*
X229221Y147500D01*
X229330Y147452D01*
X229436Y147398D01*
X229476Y147389D01*
X229513Y147373D01*
X229631Y147355D01*
X229747Y147329D01*
X229787Y147330D01*
X229827Y147323D01*
X229946Y147335D01*
G37*
G36*
X49649Y19989D02*
X49649Y19989D01*
X49787Y19997D01*
X49806Y20003D01*
X49826Y20005D01*
X49958Y20052D01*
X50089Y20095D01*
X50107Y20106D01*
X50126Y20113D01*
X50241Y20191D01*
X50358Y20265D01*
X50372Y20280D01*
X50389Y20291D01*
X50481Y20396D01*
X50576Y20497D01*
X50586Y20515D01*
X50599Y20530D01*
X50663Y20654D01*
X50730Y20775D01*
X50735Y20795D01*
X50744Y20813D01*
X50774Y20949D01*
X50809Y21083D01*
X50811Y21111D01*
X50814Y21123D01*
X50813Y21144D01*
X50819Y21244D01*
X50819Y36305D01*
X50813Y36355D01*
X50815Y36404D01*
X50793Y36512D01*
X50779Y36621D01*
X50761Y36667D01*
X50751Y36716D01*
X50703Y36814D01*
X50662Y36917D01*
X50633Y36957D01*
X50611Y37001D01*
X50540Y37085D01*
X50476Y37174D01*
X50437Y37206D01*
X50405Y37243D01*
X50315Y37307D01*
X50231Y37377D01*
X50186Y37398D01*
X50145Y37426D01*
X50042Y37465D01*
X49943Y37512D01*
X49894Y37522D01*
X49848Y37539D01*
X49738Y37551D01*
X49631Y37572D01*
X49629Y37572D01*
X49629Y38540D01*
X49614Y38658D01*
X49607Y38777D01*
X49595Y38815D01*
X49590Y38855D01*
X49546Y38966D01*
X49509Y39079D01*
X49487Y39113D01*
X49473Y39151D01*
X49403Y39247D01*
X49339Y39348D01*
X49309Y39376D01*
X49286Y39408D01*
X49194Y39484D01*
X49107Y39566D01*
X49072Y39585D01*
X49041Y39611D01*
X48933Y39662D01*
X48829Y39719D01*
X48790Y39729D01*
X48753Y39747D01*
X48636Y39769D01*
X48521Y39799D01*
X48461Y39803D01*
X48441Y39806D01*
X48440Y39806D01*
X48420Y39805D01*
X48360Y39809D01*
X48242Y39794D01*
X48123Y39787D01*
X48084Y39774D01*
X48044Y39769D01*
X47934Y39725D01*
X47820Y39689D01*
X47786Y39667D01*
X47749Y39652D01*
X47652Y39582D01*
X47552Y39518D01*
X47524Y39489D01*
X47491Y39465D01*
X47415Y39373D01*
X47334Y39287D01*
X47314Y39251D01*
X47288Y39220D01*
X47238Y39113D01*
X47180Y39008D01*
X47170Y38969D01*
X47153Y38933D01*
X47131Y38816D01*
X47101Y38700D01*
X47097Y38640D01*
X47093Y38620D01*
X47094Y38600D01*
X47091Y38540D01*
X47091Y37278D01*
X47071Y37272D01*
X46978Y37213D01*
X46881Y37162D01*
X46844Y37128D01*
X46802Y37102D01*
X46726Y37022D01*
X46645Y36948D01*
X46618Y36906D01*
X46584Y36870D01*
X46531Y36774D01*
X46471Y36682D01*
X46454Y36635D01*
X46430Y36592D01*
X46403Y36485D01*
X46367Y36382D01*
X46363Y36332D01*
X46351Y36284D01*
X46341Y36123D01*
X46341Y23184D01*
X46353Y23086D01*
X46356Y22987D01*
X46373Y22929D01*
X46381Y22869D01*
X46417Y22776D01*
X46445Y22681D01*
X46475Y22629D01*
X46498Y22573D01*
X46556Y22493D01*
X46606Y22407D01*
X46672Y22332D01*
X46684Y22316D01*
X46694Y22308D01*
X46712Y22287D01*
X48653Y20347D01*
X48762Y20261D01*
X48869Y20173D01*
X48888Y20164D01*
X48904Y20152D01*
X49032Y20096D01*
X49157Y20037D01*
X49177Y20033D01*
X49196Y20025D01*
X49334Y20003D01*
X49470Y19977D01*
X49490Y19979D01*
X49510Y19975D01*
X49649Y19989D01*
G37*
%LPC*%
G36*
X239407Y116039D02*
X239407Y116039D01*
X239407Y121501D01*
X244951Y121501D01*
X245011Y121484D01*
X245061Y121484D01*
X245078Y121480D01*
X245025Y121376D01*
X244958Y121254D01*
X244953Y121235D01*
X244944Y121217D01*
X244913Y121081D01*
X244878Y120946D01*
X244877Y120918D01*
X244874Y120906D01*
X244874Y120886D01*
X244868Y120785D01*
X244868Y116039D01*
X239407Y116039D01*
G37*
%LPD*%
%LPC*%
G36*
X216407Y93039D02*
X216407Y93039D01*
X216407Y98501D01*
X221867Y98501D01*
X221868Y98501D01*
X221868Y98500D01*
X221868Y93039D01*
X216407Y93039D01*
G37*
%LPD*%
%LPC*%
G36*
X216407Y116039D02*
X216407Y116039D01*
X216407Y121501D01*
X221867Y121501D01*
X221868Y121501D01*
X221868Y121500D01*
X221868Y116039D01*
X216407Y116039D01*
G37*
%LPD*%
%LPC*%
G36*
X193407Y116039D02*
X193407Y116039D01*
X193407Y121501D01*
X198867Y121501D01*
X198868Y121501D01*
X198868Y121500D01*
X198868Y116039D01*
X193407Y116039D01*
G37*
%LPD*%
%LPC*%
G36*
X239407Y93039D02*
X239407Y93039D01*
X239407Y98501D01*
X244867Y98501D01*
X244868Y98501D01*
X244868Y98500D01*
X244868Y93039D01*
X239407Y93039D01*
G37*
%LPD*%
%LPC*%
G36*
X216407Y70039D02*
X216407Y70039D01*
X216407Y75501D01*
X221867Y75501D01*
X221868Y75501D01*
X221868Y75500D01*
X221868Y70039D01*
X216407Y70039D01*
G37*
%LPD*%
%LPC*%
G36*
X193407Y93039D02*
X193407Y93039D01*
X193407Y98501D01*
X198867Y98501D01*
X198868Y98501D01*
X198868Y98500D01*
X198868Y93039D01*
X193407Y93039D01*
G37*
%LPD*%
%LPC*%
G36*
X193407Y70039D02*
X193407Y70039D01*
X193407Y75501D01*
X198867Y75501D01*
X198868Y75501D01*
X198868Y75500D01*
X198868Y70039D01*
X193407Y70039D01*
G37*
%LPD*%
%LPC*%
G36*
X239407Y70039D02*
X239407Y70039D01*
X239407Y75501D01*
X244867Y75501D01*
X244868Y75501D01*
X244868Y75500D01*
X244868Y70039D01*
X239407Y70039D01*
G37*
%LPD*%
%LPC*%
G36*
X239407Y105499D02*
X239407Y105499D01*
X239407Y110961D01*
X244868Y110961D01*
X244868Y105540D01*
X244873Y105499D01*
X239407Y105499D01*
G37*
%LPD*%
%LPC*%
G36*
X193407Y59499D02*
X193407Y59499D01*
X193407Y64961D01*
X198868Y64961D01*
X198868Y59499D01*
X193407Y59499D01*
G37*
%LPD*%
%LPC*%
G36*
X216407Y105499D02*
X216407Y105499D01*
X216407Y110961D01*
X221868Y110961D01*
X221868Y105500D01*
X221868Y105499D01*
X221867Y105499D01*
X216407Y105499D01*
G37*
%LPD*%
%LPC*%
G36*
X205867Y70039D02*
X205867Y70039D01*
X205867Y75500D01*
X205867Y75501D01*
X211328Y75501D01*
X211328Y70039D01*
X205867Y70039D01*
G37*
%LPD*%
%LPC*%
G36*
X193407Y105499D02*
X193407Y105499D01*
X193407Y110961D01*
X198868Y110961D01*
X198868Y105500D01*
X198868Y105499D01*
X198867Y105499D01*
X193407Y105499D01*
G37*
%LPD*%
%LPC*%
G36*
X228867Y70039D02*
X228867Y70039D01*
X228867Y75500D01*
X228867Y75501D01*
X234328Y75501D01*
X234328Y70039D01*
X228867Y70039D01*
G37*
%LPD*%
%LPC*%
G36*
X182867Y93039D02*
X182867Y93039D01*
X182867Y98500D01*
X182867Y98501D01*
X188328Y98501D01*
X188328Y93039D01*
X182867Y93039D01*
G37*
%LPD*%
%LPC*%
G36*
X182867Y70039D02*
X182867Y70039D01*
X182867Y75500D01*
X182867Y75501D01*
X188328Y75501D01*
X188328Y70039D01*
X182867Y70039D01*
G37*
%LPD*%
%LPC*%
G36*
X239407Y59499D02*
X239407Y59499D01*
X239407Y64961D01*
X244868Y64961D01*
X244868Y59500D01*
X244868Y59499D01*
X244867Y59499D01*
X239407Y59499D01*
G37*
%LPD*%
%LPC*%
G36*
X205867Y93039D02*
X205867Y93039D01*
X205867Y98500D01*
X205867Y98501D01*
X211328Y98501D01*
X211328Y93039D01*
X205867Y93039D01*
G37*
%LPD*%
%LPC*%
G36*
X228867Y93039D02*
X228867Y93039D01*
X228867Y98500D01*
X228867Y98501D01*
X234328Y98501D01*
X234328Y93039D01*
X228867Y93039D01*
G37*
%LPD*%
%LPC*%
G36*
X216407Y59499D02*
X216407Y59499D01*
X216407Y64961D01*
X221868Y64961D01*
X221868Y59500D01*
X221868Y59499D01*
X221867Y59499D01*
X216407Y59499D01*
G37*
%LPD*%
%LPC*%
G36*
X228867Y116039D02*
X228867Y116039D01*
X228867Y121500D01*
X228867Y121501D01*
X234328Y121501D01*
X234328Y116039D01*
X228867Y116039D01*
G37*
%LPD*%
%LPC*%
G36*
X205867Y116039D02*
X205867Y116039D01*
X205867Y121500D01*
X205867Y121501D01*
X211328Y121501D01*
X211328Y116039D01*
X205867Y116039D01*
G37*
%LPD*%
%LPC*%
G36*
X182867Y116039D02*
X182867Y116039D01*
X182867Y121500D01*
X182867Y121501D01*
X188328Y121501D01*
X188328Y116039D01*
X182867Y116039D01*
G37*
%LPD*%
%LPC*%
G36*
X239407Y82499D02*
X239407Y82499D01*
X239407Y87961D01*
X244868Y87961D01*
X244868Y82500D01*
X244868Y82499D01*
X244867Y82499D01*
X239407Y82499D01*
G37*
%LPD*%
%LPC*%
G36*
X193407Y82499D02*
X193407Y82499D01*
X193407Y87961D01*
X198868Y87961D01*
X198868Y82500D01*
X198868Y82499D01*
X198867Y82499D01*
X193407Y82499D01*
G37*
%LPD*%
%LPC*%
G36*
X216407Y82499D02*
X216407Y82499D01*
X216407Y87961D01*
X221868Y87961D01*
X221868Y82500D01*
X221868Y82499D01*
X221867Y82499D01*
X216407Y82499D01*
G37*
%LPD*%
%LPC*%
G36*
X205867Y82499D02*
X205867Y82499D01*
X205867Y82500D01*
X205867Y87961D01*
X211328Y87961D01*
X211328Y82499D01*
X205867Y82499D01*
G37*
%LPD*%
%LPC*%
G36*
X182867Y82499D02*
X182867Y82499D01*
X182867Y82500D01*
X182867Y87961D01*
X188328Y87961D01*
X188328Y82499D01*
X182867Y82499D01*
G37*
%LPD*%
%LPC*%
G36*
X228867Y82499D02*
X228867Y82499D01*
X228867Y82500D01*
X228867Y87961D01*
X234328Y87961D01*
X234328Y82499D01*
X228867Y82499D01*
G37*
%LPD*%
%LPC*%
G36*
X205867Y59499D02*
X205867Y59499D01*
X205867Y59500D01*
X205867Y64961D01*
X211328Y64961D01*
X211328Y59499D01*
X205867Y59499D01*
G37*
%LPD*%
%LPC*%
G36*
X228867Y59499D02*
X228867Y59499D01*
X228867Y59500D01*
X228867Y64961D01*
X234328Y64961D01*
X234328Y59499D01*
X228867Y59499D01*
G37*
%LPD*%
%LPC*%
G36*
X182867Y59499D02*
X182867Y59499D01*
X182867Y59500D01*
X182867Y64961D01*
X188328Y64961D01*
X188328Y59499D01*
X182867Y59499D01*
G37*
%LPD*%
%LPC*%
G36*
X182867Y105499D02*
X182867Y105499D01*
X182867Y105500D01*
X182867Y110961D01*
X188328Y110961D01*
X188328Y105499D01*
X182867Y105499D01*
G37*
%LPD*%
%LPC*%
G36*
X205867Y105499D02*
X205867Y105499D01*
X205867Y105500D01*
X205867Y110961D01*
X211328Y110961D01*
X211328Y105499D01*
X205867Y105499D01*
G37*
%LPD*%
%LPC*%
G36*
X228867Y105499D02*
X228867Y105499D01*
X228867Y105500D01*
X228867Y110961D01*
X234328Y110961D01*
X234328Y105499D01*
X228867Y105499D01*
G37*
%LPD*%
%LPC*%
G36*
X48360Y59809D02*
X48360Y59809D01*
X47620Y59809D01*
X47636Y59905D01*
X47662Y60021D01*
X47660Y60062D01*
X47667Y60102D01*
X47656Y60220D01*
X47652Y60339D01*
X47641Y60378D01*
X47637Y60418D01*
X47597Y60530D01*
X47564Y60645D01*
X47543Y60679D01*
X47529Y60717D01*
X47463Y60816D01*
X47402Y60919D01*
X47362Y60964D01*
X47351Y60981D01*
X47336Y60994D01*
X47296Y61039D01*
X45839Y62496D01*
X45839Y64584D01*
X47296Y66041D01*
X47369Y66135D01*
X47447Y66224D01*
X47466Y66260D01*
X47491Y66292D01*
X47538Y66401D01*
X47592Y66507D01*
X47601Y66546D01*
X47617Y66584D01*
X47636Y66701D01*
X47662Y66817D01*
X47660Y66858D01*
X47667Y66898D01*
X47656Y67016D01*
X47652Y67135D01*
X47641Y67174D01*
X47637Y67214D01*
X47617Y67271D01*
X48360Y67271D01*
X49100Y67271D01*
X49084Y67175D01*
X49058Y67059D01*
X49060Y67018D01*
X49053Y66978D01*
X49064Y66860D01*
X49068Y66741D01*
X49079Y66702D01*
X49083Y66662D01*
X49123Y66550D01*
X49156Y66435D01*
X49177Y66401D01*
X49191Y66362D01*
X49258Y66264D01*
X49318Y66161D01*
X49358Y66116D01*
X49369Y66099D01*
X49384Y66086D01*
X49424Y66041D01*
X50881Y64584D01*
X50881Y62496D01*
X49424Y61039D01*
X49351Y60945D01*
X49272Y60856D01*
X49254Y60820D01*
X49229Y60788D01*
X49182Y60679D01*
X49128Y60573D01*
X49119Y60533D01*
X49103Y60496D01*
X49084Y60378D01*
X49058Y60262D01*
X49060Y60222D01*
X49053Y60182D01*
X49064Y60063D01*
X49068Y59945D01*
X49079Y59906D01*
X49083Y59866D01*
X49103Y59809D01*
X48360Y59809D01*
X48360Y59809D01*
G37*
%LPD*%
%LPC*%
G36*
X71339Y129439D02*
X71339Y129439D01*
X71339Y133401D01*
X76800Y133401D01*
X76801Y133400D01*
X76801Y129439D01*
X71339Y129439D01*
G37*
%LPD*%
%LPC*%
G36*
X60799Y129439D02*
X60799Y129439D01*
X60799Y133400D01*
X60800Y133401D01*
X66261Y133401D01*
X66261Y129439D01*
X60799Y129439D01*
G37*
%LPD*%
%LPC*%
G36*
X60800Y120399D02*
X60800Y120399D01*
X60799Y120400D01*
X60799Y124361D01*
X66261Y124361D01*
X66261Y120399D01*
X60800Y120399D01*
G37*
%LPD*%
%LPC*%
G36*
X32539Y17539D02*
X32539Y17539D01*
X32539Y23022D01*
X33971Y22429D01*
X35344Y21511D01*
X36511Y20344D01*
X37429Y18971D01*
X38022Y17539D01*
X32539Y17539D01*
G37*
%LPD*%
%LPC*%
G36*
X32539Y12461D02*
X32539Y12461D01*
X38022Y12461D01*
X37429Y11029D01*
X36511Y9656D01*
X35344Y8489D01*
X33971Y7571D01*
X32539Y6978D01*
X32539Y12461D01*
G37*
%LPD*%
%LPC*%
G36*
X21978Y17539D02*
X21978Y17539D01*
X22571Y18971D01*
X23489Y20344D01*
X24656Y21511D01*
X26029Y22429D01*
X27461Y23022D01*
X27461Y17539D01*
X21978Y17539D01*
G37*
%LPD*%
%LPC*%
G36*
X26029Y7571D02*
X26029Y7571D01*
X24656Y8489D01*
X23489Y9656D01*
X22571Y11029D01*
X21978Y12461D01*
X27461Y12461D01*
X27461Y6978D01*
X26029Y7571D01*
G37*
%LPD*%
%LPC*%
G36*
X125713Y26519D02*
X125713Y26519D01*
X125713Y31781D01*
X128474Y31781D01*
X128475Y31780D01*
X128475Y26519D01*
X125713Y26519D01*
G37*
%LPD*%
%LPC*%
G36*
X117873Y26519D02*
X117873Y26519D01*
X117873Y31780D01*
X117874Y31781D01*
X120635Y31781D01*
X120635Y26519D01*
X117873Y26519D01*
G37*
%LPD*%
%LPC*%
G36*
X125713Y16179D02*
X125713Y16179D01*
X125713Y21441D01*
X128475Y21441D01*
X128475Y16180D01*
X128474Y16179D01*
X125713Y16179D01*
G37*
%LPD*%
%LPC*%
G36*
X117874Y16179D02*
X117874Y16179D01*
X117873Y16180D01*
X117873Y21441D01*
X120635Y21441D01*
X120635Y16179D01*
X117874Y16179D01*
G37*
%LPD*%
%LPC*%
G36*
X142608Y105587D02*
X142608Y105587D01*
X142597Y105596D01*
X142570Y105607D01*
X142545Y105625D01*
X142424Y105671D01*
X142306Y105722D01*
X142276Y105727D01*
X142248Y105737D01*
X142119Y105752D01*
X141991Y105772D01*
X141962Y105769D01*
X141932Y105773D01*
X141804Y105754D01*
X141675Y105742D01*
X141647Y105732D01*
X141617Y105728D01*
X141465Y105676D01*
X141419Y105657D01*
X141419Y107400D01*
X141419Y109143D01*
X141492Y109113D01*
X141503Y109104D01*
X141530Y109093D01*
X141555Y109075D01*
X141676Y109029D01*
X141794Y108978D01*
X141824Y108973D01*
X141852Y108963D01*
X141981Y108948D01*
X142109Y108928D01*
X142138Y108931D01*
X142168Y108927D01*
X142296Y108946D01*
X142425Y108958D01*
X142453Y108968D01*
X142483Y108972D01*
X142635Y109024D01*
X142681Y109043D01*
X142681Y107300D01*
X142681Y105557D01*
X142608Y105587D01*
G37*
%LPD*%
%LPC*%
G36*
X266367Y43999D02*
X266367Y43999D01*
X266367Y44000D01*
X266367Y45231D01*
X269098Y45231D01*
X269098Y43999D01*
X266367Y43999D01*
G37*
%LPD*%
%LPC*%
G36*
X271637Y43999D02*
X271637Y43999D01*
X271637Y45231D01*
X274368Y45231D01*
X274368Y44000D01*
X274368Y43999D01*
X274367Y43999D01*
X271637Y43999D01*
G37*
%LPD*%
%LPC*%
G36*
X132819Y123169D02*
X132819Y123169D01*
X132819Y124051D01*
X132950Y124051D01*
X132951Y124050D01*
X132951Y123169D01*
X132819Y123169D01*
G37*
%LPD*%
%LPC*%
G36*
X132819Y119749D02*
X132819Y119749D01*
X132819Y120631D01*
X132951Y120631D01*
X132951Y119750D01*
X132950Y119749D01*
X132819Y119749D01*
G37*
%LPD*%
%LPC*%
G36*
X151100Y150599D02*
X151100Y150599D01*
X151099Y150600D01*
X151099Y151481D01*
X151231Y151481D01*
X151231Y150599D01*
X151100Y150599D01*
G37*
%LPD*%
%LPC*%
G36*
X29999Y14999D02*
X29999Y14999D01*
X29999Y15001D01*
X30001Y15001D01*
X30001Y14999D01*
X29999Y14999D01*
G37*
%LPD*%
%LPC*%
G36*
X190866Y67499D02*
X190866Y67499D01*
X190866Y67501D01*
X190868Y67501D01*
X190868Y67499D01*
X190866Y67499D01*
G37*
%LPD*%
%LPC*%
G36*
X190866Y90499D02*
X190866Y90499D01*
X190866Y90501D01*
X190868Y90501D01*
X190868Y90499D01*
X190866Y90499D01*
G37*
%LPD*%
%LPC*%
G36*
X68799Y126899D02*
X68799Y126899D01*
X68799Y126901D01*
X68801Y126901D01*
X68801Y126899D01*
X68799Y126899D01*
G37*
%LPD*%
%LPC*%
G36*
X123173Y23979D02*
X123173Y23979D01*
X123173Y23981D01*
X123175Y23981D01*
X123175Y23979D01*
X123173Y23979D01*
G37*
%LPD*%
%LPC*%
G36*
X213866Y90499D02*
X213866Y90499D01*
X213866Y90501D01*
X213868Y90501D01*
X213868Y90499D01*
X213866Y90499D01*
G37*
%LPD*%
%LPC*%
G36*
X190866Y113499D02*
X190866Y113499D01*
X190866Y113501D01*
X190868Y113501D01*
X190868Y113499D01*
X190866Y113499D01*
G37*
%LPD*%
%LPC*%
G36*
X213866Y67499D02*
X213866Y67499D01*
X213866Y67501D01*
X213868Y67501D01*
X213868Y67499D01*
X213866Y67499D01*
G37*
%LPD*%
%LPC*%
G36*
X213866Y113499D02*
X213866Y113499D01*
X213866Y113501D01*
X213868Y113501D01*
X213868Y113499D01*
X213866Y113499D01*
G37*
%LPD*%
%LPC*%
G36*
X236866Y113499D02*
X236866Y113499D01*
X236866Y113501D01*
X236868Y113501D01*
X236868Y113499D01*
X236866Y113499D01*
G37*
%LPD*%
%LPC*%
G36*
X236866Y67499D02*
X236866Y67499D01*
X236866Y67501D01*
X236868Y67501D01*
X236868Y67499D01*
X236866Y67499D01*
G37*
%LPD*%
%LPC*%
G36*
X236866Y90499D02*
X236866Y90499D01*
X236866Y90501D01*
X236868Y90501D01*
X236868Y90499D01*
X236866Y90499D01*
G37*
%LPD*%
D10*
X143950Y99474D03*
X148950Y99474D03*
D11*
X157367Y134500D03*
X157367Y126500D03*
X157367Y118500D03*
X157367Y110500D03*
X157367Y102500D03*
X157367Y94500D03*
X157367Y86500D03*
X157367Y78500D03*
X157367Y70500D03*
X157367Y62500D03*
X157367Y54500D03*
X157367Y46500D03*
D12*
X169867Y38500D03*
X177867Y38500D03*
X185867Y38500D03*
X193867Y38500D03*
X201867Y38500D03*
X209867Y38500D03*
X217867Y38500D03*
X225867Y38500D03*
X233867Y38500D03*
X241867Y38500D03*
X249867Y38500D03*
X257867Y38500D03*
D11*
X270367Y46500D03*
X270367Y54500D03*
X270367Y62500D03*
X270367Y70500D03*
X270367Y78500D03*
X270367Y86500D03*
X270367Y94500D03*
X270367Y102500D03*
X270367Y110500D03*
X270367Y118500D03*
X270367Y126500D03*
X270367Y134500D03*
D12*
X257867Y142500D03*
X249867Y142500D03*
X241867Y142500D03*
X233867Y142500D03*
X225867Y142500D03*
X217867Y142500D03*
X209867Y142500D03*
X201867Y142500D03*
X193867Y142500D03*
X185867Y142500D03*
X177867Y142500D03*
X169867Y142500D03*
D13*
X190867Y113500D03*
X213867Y113500D03*
X236867Y113500D03*
X190867Y90500D03*
X213867Y90500D03*
X236867Y90500D03*
X190867Y67500D03*
X213867Y67500D03*
X236867Y67500D03*
D10*
X143950Y107300D03*
X148950Y107300D03*
D14*
X109874Y31480D03*
X109874Y26480D03*
X109874Y21480D03*
X109874Y16480D03*
X136474Y16480D03*
X136474Y21480D03*
X136474Y26480D03*
X136474Y31480D03*
D15*
X123174Y23980D03*
D16*
X30000Y148900D03*
X30000Y15000D03*
D17*
X153450Y13500D03*
X158550Y13500D03*
X153450Y20500D03*
X158550Y20500D03*
D10*
X244900Y152550D03*
X249900Y152550D03*
D17*
X152500Y152750D03*
X157600Y152750D03*
D18*
X81250Y123800D03*
X81250Y118800D03*
D19*
X87300Y118750D03*
X87300Y123850D03*
X87550Y129000D03*
X87550Y134100D03*
D20*
X124400Y94800D02*
X129400Y94800D01*
X129400Y98800D02*
X124400Y98800D01*
X124400Y102800D02*
X129400Y102800D01*
X129400Y106800D02*
X124400Y106800D01*
X124400Y110800D02*
X129400Y110800D01*
X121400Y113800D02*
X121400Y118800D01*
X117400Y118800D02*
X117400Y113800D01*
X113400Y113800D02*
X113400Y118800D01*
X109400Y118800D02*
X109400Y113800D01*
X105400Y113800D02*
X105400Y118800D01*
X102400Y110800D02*
X97400Y110800D01*
X97400Y106800D02*
X102400Y106800D01*
X102400Y102800D02*
X97400Y102800D01*
X97400Y98800D02*
X102400Y98800D01*
X102400Y94800D02*
X97400Y94800D01*
X105400Y91800D02*
X105400Y86800D01*
X109400Y86800D02*
X109400Y91800D01*
X113400Y91800D02*
X113400Y86800D01*
X117400Y86800D02*
X117400Y91800D01*
X121400Y91800D02*
X121400Y86800D01*
D21*
X119800Y109200D02*
X107000Y109200D01*
X119800Y109200D02*
X119800Y96400D01*
X107000Y96400D01*
X107000Y109200D01*
X107000Y99440D02*
X119800Y99440D01*
X119800Y102480D02*
X107000Y102480D01*
X107000Y105520D02*
X119800Y105520D01*
X119800Y108560D02*
X107000Y108560D01*
D22*
X143000Y58650D03*
X117500Y58650D03*
D17*
X134800Y93100D03*
X139900Y93100D03*
X140050Y99550D03*
X134950Y99550D03*
X105150Y123300D03*
X100050Y123300D03*
X116450Y130000D03*
X111350Y130000D03*
X131550Y121900D03*
X126450Y121900D03*
D10*
X135150Y107400D03*
X140150Y107400D03*
D23*
X68800Y106900D03*
X68800Y126900D03*
D24*
X330750Y72200D02*
X330750Y61000D01*
X293550Y61000D01*
X293550Y72200D01*
X330750Y72200D01*
X330750Y63660D02*
X293550Y63660D01*
X293550Y66320D02*
X330750Y66320D01*
X330750Y68980D02*
X293550Y68980D01*
X293550Y71640D02*
X330750Y71640D01*
D25*
X302150Y66600D03*
X322150Y66600D03*
D10*
X134700Y82900D03*
X139700Y82900D03*
D26*
X238900Y166100D03*
X213500Y166100D03*
X188100Y166100D03*
X162700Y166100D03*
X137300Y166100D03*
X111900Y166100D03*
X86500Y166100D03*
D27*
X48360Y38540D03*
X48360Y48540D03*
X48360Y53540D03*
X48360Y58540D03*
X48360Y63540D03*
X48360Y68540D03*
X48360Y73540D03*
X48360Y78540D03*
X48360Y43540D03*
X53360Y78540D03*
X58360Y78540D03*
X63360Y78540D03*
X68360Y78540D03*
X73360Y78540D03*
X78360Y78540D03*
X83360Y78540D03*
X88360Y78540D03*
X88360Y73540D03*
X88360Y68540D03*
X88360Y63540D03*
X88360Y58540D03*
X88360Y53540D03*
X88360Y48540D03*
X88360Y43540D03*
X88360Y38540D03*
X83360Y38540D03*
X78360Y38540D03*
X73360Y38540D03*
X68360Y38540D03*
X63360Y38540D03*
X58360Y38540D03*
X53360Y38540D03*
X58360Y48540D03*
X58360Y53540D03*
X58360Y58540D03*
X58360Y63540D03*
X58360Y68540D03*
X68360Y68540D03*
X73360Y68540D03*
X78360Y68540D03*
X78360Y63540D03*
X78360Y58540D03*
X78360Y53540D03*
X78360Y48540D03*
X73360Y48540D03*
X68360Y48540D03*
X63360Y48540D03*
X63360Y53540D03*
X63360Y63540D03*
X73360Y63540D03*
X73360Y53540D03*
D28*
X102100Y49600D03*
X102100Y74600D03*
D29*
X71600Y24300D03*
X89600Y24300D03*
D18*
X61300Y21900D03*
X61300Y26900D03*
X97300Y38700D03*
X97300Y33700D03*
D30*
X12500Y98500D03*
D31*
X7750Y66500D03*
X17250Y66500D03*
D32*
X174460Y17460D03*
X174460Y21440D03*
X178440Y17460D03*
X178440Y21440D03*
D18*
X168000Y22500D03*
X168000Y27500D03*
D33*
X117400Y89300D02*
X113400Y89300D01*
X117400Y89300D02*
X121400Y89300D01*
X113400Y89300D02*
X113400Y102800D01*
X117400Y106800D01*
X126900Y106800D01*
X126900Y110800D01*
X68360Y48540D02*
X63360Y48540D01*
X48360Y73540D02*
X48360Y78540D01*
X53360Y78540D01*
X58360Y78540D01*
X63360Y78540D01*
X63360Y63540D01*
X63360Y66540D01*
X62360Y65540D02*
X59360Y68540D01*
X58360Y68540D01*
X63360Y66540D02*
X65360Y68540D01*
X63360Y66540D02*
X62360Y65540D01*
X65360Y68540D02*
X68360Y68540D01*
X73360Y68540D02*
X78360Y68540D01*
X78360Y63540D01*
X48822Y68540D02*
X48360Y68540D01*
X48360Y48540D02*
X48822Y48540D01*
X78360Y48540D02*
X80822Y48540D01*
X83015Y50733D01*
X82515Y51233D02*
X82515Y60847D01*
X79822Y63540D02*
X78360Y63540D01*
X79822Y63540D02*
X82515Y60847D01*
X190867Y113500D02*
X213867Y113500D01*
X236867Y113500D01*
X236867Y90500D01*
X213867Y90500D01*
X190867Y90500D01*
X190867Y113500D01*
X190867Y90500D02*
X190867Y67500D01*
X190867Y60800D01*
X213867Y67500D02*
X213867Y90500D01*
X236867Y90500D02*
X236867Y67500D01*
X213867Y67500D01*
X191167Y60500D02*
X190867Y60800D01*
X186867Y86500D02*
X190867Y90500D01*
X186867Y86500D02*
X157367Y86500D01*
X157367Y118500D02*
X185867Y118500D01*
X190867Y113500D01*
X248867Y55500D02*
X262500Y55500D01*
X248867Y55500D02*
X236867Y67500D01*
X143950Y99474D02*
X143950Y107300D01*
X143950Y99474D02*
X143826Y99350D01*
X140150Y100650D02*
X140150Y107400D01*
X140150Y100650D02*
X140150Y99650D01*
X140050Y99550D01*
X131550Y114150D02*
X126900Y110800D01*
X131550Y114150D02*
X131550Y121900D01*
X140150Y113950D02*
X140150Y107400D01*
X139950Y114150D02*
X137000Y114150D01*
X131550Y114150D01*
X139950Y114150D02*
X140150Y113950D01*
X140250Y107300D02*
X143950Y107300D01*
X140250Y107300D02*
X140150Y107400D01*
X141326Y99474D02*
X143950Y99474D01*
X141326Y99474D02*
X140150Y100650D01*
X123174Y23980D02*
X115674Y16480D01*
X109874Y16480D01*
X87250Y118800D02*
X81250Y118800D01*
X87250Y118800D02*
X87300Y118750D01*
D34*
X11500Y114600D03*
D33*
X201500Y142867D02*
X201867Y142500D01*
X137300Y152100D02*
X137300Y166100D01*
D34*
X136900Y118300D03*
D33*
X136900Y114250D01*
X137000Y114150D01*
D34*
X173200Y61200D03*
D33*
X184567Y61200D02*
X190867Y67500D01*
X184567Y61200D02*
X173200Y61200D01*
X48360Y48540D02*
X45360Y48540D01*
X35360Y38540D01*
X18960Y38540D01*
X11300Y46200D01*
X11300Y35800D01*
X68360Y48540D02*
X68360Y68540D01*
X73360Y68540D01*
X190867Y113500D02*
X190867Y117500D01*
X201867Y128500D01*
X201867Y142500D01*
X88700Y78880D02*
X88360Y78540D01*
X88700Y78880D02*
X88700Y89300D01*
X86400Y91600D01*
D34*
X81700Y91600D03*
D33*
X86400Y91600D01*
X87300Y116300D02*
X87300Y118750D01*
X87300Y116300D02*
X83200Y112200D01*
D34*
X82000Y113400D03*
D33*
X83200Y112200D01*
X97300Y33700D02*
X99800Y31200D01*
X99800Y21300D01*
X104620Y16480D02*
X109874Y16480D01*
X104620Y16480D02*
X99800Y21300D01*
D34*
X11500Y154600D03*
X11500Y134600D03*
X31500Y134600D03*
X31500Y114600D03*
X32500Y59400D03*
X29500Y30600D03*
X11500Y34600D03*
X11500Y14600D03*
X183500Y12600D03*
X249500Y12600D03*
X141500Y134600D03*
X123500Y151600D03*
X15100Y54000D03*
X38500Y59400D03*
X32700Y48000D03*
X26500Y48000D03*
X20100Y50000D03*
X26500Y59400D03*
X80500Y143600D03*
D33*
X80500Y138600D01*
X68800Y126900D01*
X76900Y118800D02*
X81250Y118800D01*
X76900Y118800D02*
X68800Y126900D01*
D34*
X189900Y126400D03*
X213900Y126400D03*
X249900Y70400D03*
D33*
X124350Y150750D02*
X123500Y151600D01*
X147650Y152750D02*
X152500Y152750D01*
X147650Y152750D02*
X141500Y146600D01*
X141500Y134600D01*
X135950Y150750D02*
X137300Y152100D01*
X135950Y150750D02*
X124350Y150750D01*
X249900Y152550D02*
X249900Y158500D01*
X263500Y46500D02*
X270367Y46500D01*
X263500Y46500D02*
X263000Y47000D01*
X263000Y55000D01*
X263000Y61000D01*
X264500Y62500D01*
X270367Y62500D01*
X263000Y55000D02*
X262500Y55500D01*
X178640Y17460D02*
X178440Y17460D01*
X178640Y17460D02*
X183500Y12600D01*
D34*
X188500Y27600D03*
D33*
X168100Y27600D02*
X168000Y27500D01*
X168100Y27600D02*
X188500Y27600D01*
X88360Y48540D02*
X85208Y48540D01*
X83015Y50733D01*
X61300Y31900D02*
X58360Y34840D01*
X61300Y31900D02*
X61300Y26900D01*
X58360Y34840D02*
X58360Y38540D01*
D34*
X45900Y87600D03*
D33*
X46900Y80000D02*
X48360Y78540D01*
X46900Y86600D02*
X45900Y87600D01*
X46900Y86600D02*
X46900Y80000D01*
D34*
X38500Y48000D03*
X11500Y58600D03*
D33*
X49930Y68330D02*
X52150Y66110D01*
X52150Y60970D01*
X48570Y68330D02*
X48360Y68540D01*
X48570Y68330D02*
X49930Y68330D01*
X52150Y60970D02*
X49875Y58695D01*
X49720Y58540D02*
X48360Y58540D01*
D35*
X53550Y43350D02*
X58360Y38540D01*
X53550Y43350D02*
X48822Y48078D01*
X48822Y48540D01*
X52062Y56508D02*
X49875Y58695D01*
X52062Y51442D02*
X49160Y48540D01*
X48360Y48540D01*
X52062Y51442D02*
X52062Y56508D01*
X53170Y43350D02*
X48360Y38540D01*
X53170Y43350D02*
X53550Y43350D01*
D34*
X231700Y151800D03*
X279500Y78600D03*
X294500Y78600D03*
X309500Y78600D03*
X324500Y78600D03*
X324500Y53600D03*
X309500Y53600D03*
X294500Y53600D03*
X279500Y43600D03*
X294500Y93600D03*
X309500Y93600D03*
X322500Y91600D03*
X322500Y40600D03*
X309500Y38600D03*
X294500Y38600D03*
X279500Y93600D03*
X279500Y108600D03*
X279500Y28600D03*
X279500Y123600D03*
X279500Y138600D03*
X279500Y153600D03*
X279500Y13600D03*
X238400Y134500D03*
D33*
X270367Y134500D01*
D34*
X147500Y13500D03*
D33*
X144520Y16480D02*
X136474Y16480D01*
X144520Y16480D02*
X147500Y13500D01*
X153450Y13500D01*
X48360Y43540D02*
X46360Y43540D01*
X43800Y40980D01*
X43800Y21606D02*
X57106Y8300D01*
X43800Y21606D02*
X43800Y40980D01*
X111000Y8300D02*
X111900Y9200D01*
D34*
X111900Y9200D03*
D33*
X111000Y8300D02*
X57106Y8300D01*
X267967Y128900D02*
X270367Y126500D01*
X267967Y128900D02*
X230900Y128900D01*
D34*
X230900Y128900D03*
X147500Y20500D03*
D33*
X146520Y21480D02*
X136474Y21480D01*
X146520Y21480D02*
X147500Y20500D01*
X153450Y20500D01*
X53360Y19046D02*
X53360Y38540D01*
X53360Y19046D02*
X59906Y12500D01*
X99600Y12500D02*
X99600Y13800D01*
D34*
X99600Y13800D03*
D33*
X99600Y12500D02*
X59906Y12500D01*
X209800Y38567D02*
X209867Y38500D01*
D34*
X209800Y46825D03*
D33*
X209800Y38567D01*
X225867Y142500D02*
X225900Y142533D01*
X225900Y149700D02*
X213500Y162100D01*
X213500Y166100D01*
X225900Y149700D02*
X225900Y142533D01*
D35*
X217867Y142500D02*
X217867Y148500D01*
X212867Y153500D01*
X206100Y153500D01*
X193500Y166100D01*
D33*
X188100Y166100D01*
X185867Y142500D02*
X177867Y142500D01*
X193867Y142500D02*
X193867Y135700D01*
X169867Y135700D02*
X169867Y142500D01*
X169867Y135700D02*
X193867Y135700D01*
D34*
X92800Y96900D03*
X121300Y123700D03*
D33*
X121400Y123600D01*
X121400Y116300D01*
X48500Y135180D02*
X30000Y148900D01*
X48500Y135180D02*
X48500Y103900D01*
X55500Y96900D01*
X92800Y96900D01*
D34*
X93700Y133900D03*
D33*
X87750Y133900D01*
X87550Y134100D01*
X94700Y98800D02*
X92800Y96900D01*
X94700Y98800D02*
X99900Y98800D01*
D34*
X81500Y85200D03*
X93000Y109500D03*
X145300Y117700D03*
X166500Y102300D03*
X249800Y102400D03*
D36*
X148950Y114050D02*
X145300Y117700D01*
X148950Y114050D02*
X148950Y107300D01*
X148950Y103000D02*
X148950Y99474D01*
X148950Y103000D02*
X148950Y107300D01*
X156867Y103000D02*
X157367Y102500D01*
X156867Y103000D02*
X148950Y103000D01*
X157367Y102500D02*
X157367Y110500D01*
X157367Y102500D02*
X157367Y94500D01*
X157567Y102300D02*
X157367Y102500D01*
X157567Y102300D02*
X166500Y102300D01*
X270267Y102400D02*
X270367Y102500D01*
X270267Y102400D02*
X249800Y102400D01*
X83360Y78540D02*
X82500Y79400D01*
X82500Y84200D01*
X81500Y85200D01*
X158550Y20500D02*
X158550Y17000D01*
X158550Y13500D01*
X158662Y16888D02*
X158550Y17000D01*
D20*
X173460Y22440D02*
X174460Y21440D01*
D36*
X173460Y22440D02*
X168060Y22440D01*
X168000Y22500D01*
X162508Y16888D02*
X158662Y16888D01*
X158550Y20500D02*
X158550Y26450D01*
D20*
X99900Y106800D02*
X95700Y106800D01*
X93000Y109500D01*
D36*
X168000Y22500D02*
X168000Y22380D01*
X162508Y16888D01*
D34*
X151500Y33500D03*
D36*
X149480Y31480D02*
X136474Y31480D01*
X149480Y31480D02*
X151500Y33500D01*
X158550Y26450D01*
D33*
X157600Y161000D02*
X162700Y166100D01*
X157600Y161000D02*
X157600Y152750D01*
D35*
X202000Y152750D02*
X202180Y152750D01*
X202000Y152750D02*
X157600Y152750D01*
X202000Y152750D02*
X209867Y144883D01*
X209867Y142500D01*
D33*
X269267Y117400D02*
X270367Y118500D01*
X269267Y117400D02*
X250000Y117400D01*
X250000Y123725D01*
D34*
X250000Y123725D03*
X239200Y151400D03*
D33*
X240400Y150200D01*
X239200Y151400D02*
X239200Y165800D01*
X238900Y166100D01*
X242750Y152550D02*
X240400Y150200D01*
X242750Y152550D02*
X244900Y152550D01*
X238625Y46375D02*
X222000Y46375D01*
X214000Y54375D01*
X202100Y54375D01*
D34*
X202100Y54375D03*
D33*
X241867Y43133D02*
X241867Y38500D01*
X241867Y43133D02*
X238625Y46375D01*
X87300Y123850D02*
X87250Y123800D01*
X81250Y123800D01*
X87300Y123850D02*
X87300Y128750D01*
X87550Y129000D01*
D34*
X94000Y123800D03*
D33*
X87350Y123800D01*
X87300Y123850D01*
X117500Y80600D02*
X117500Y58650D01*
X117500Y80600D02*
X115400Y82700D01*
X105400Y82700D02*
X105400Y89300D01*
X105400Y82700D02*
X115400Y82700D01*
X134800Y93100D02*
X134800Y99400D01*
X134950Y99550D01*
X134200Y98800D01*
X126900Y98800D01*
X111350Y130000D02*
X109850Y130000D01*
X105150Y125300D01*
X105150Y123300D01*
X105150Y116550D01*
X105400Y116300D01*
X109400Y116300D02*
X109400Y119950D01*
X116450Y127000D01*
X116450Y130000D01*
X126450Y127000D02*
X126450Y121900D01*
X126450Y127000D02*
X123450Y130000D01*
X116450Y130000D01*
D34*
X99600Y88000D03*
X99700Y117000D03*
D33*
X99700Y122950D02*
X100050Y123300D01*
X99700Y122950D02*
X99700Y117000D01*
X99900Y94800D02*
X99600Y94500D01*
X99600Y88000D01*
X98600Y115900D02*
X99700Y117000D01*
X88302Y110618D02*
X85782Y108098D01*
X69998Y108098D01*
X68800Y106900D01*
X88302Y110618D02*
X88302Y111886D01*
X92316Y115900D01*
X98600Y115900D01*
X130550Y102800D02*
X135150Y107400D01*
X130550Y102800D02*
X126900Y102800D01*
X139900Y93100D02*
X139900Y90400D01*
X134700Y85200D01*
X134700Y82900D01*
D34*
X130400Y55400D03*
X82200Y102900D03*
D33*
X82300Y102800D02*
X99900Y102800D01*
X82300Y102800D02*
X82200Y102900D01*
X130400Y55400D02*
X133650Y58650D01*
X143000Y58650D01*
X134700Y66950D02*
X134700Y82900D01*
X134700Y66950D02*
X143000Y58650D01*
X134700Y82900D02*
X126900Y90700D01*
X126900Y94800D01*
D37*
X275900Y54500D02*
X276081Y54502D01*
X276262Y54509D01*
X276443Y54520D01*
X276624Y54535D01*
X276804Y54555D01*
X276984Y54579D01*
X277163Y54607D01*
X277341Y54640D01*
X277518Y54677D01*
X277695Y54718D01*
X277870Y54763D01*
X278045Y54813D01*
X278218Y54867D01*
X278389Y54925D01*
X278560Y54987D01*
X278728Y55054D01*
X278895Y55124D01*
X279061Y55198D01*
X279224Y55277D01*
X279385Y55359D01*
X279545Y55445D01*
X279702Y55535D01*
X279857Y55629D01*
X280010Y55726D01*
X280160Y55828D01*
X280308Y55932D01*
X280454Y56041D01*
X280596Y56152D01*
X280736Y56268D01*
X280873Y56386D01*
X281008Y56508D01*
X281139Y56633D01*
X281267Y56761D01*
X281392Y56892D01*
X281514Y57027D01*
X281632Y57164D01*
X281748Y57304D01*
X281859Y57446D01*
X281968Y57592D01*
X282072Y57740D01*
X282174Y57890D01*
X282271Y58043D01*
X282365Y58198D01*
X282455Y58355D01*
X282541Y58515D01*
X282623Y58676D01*
X282702Y58839D01*
X282776Y59005D01*
X282846Y59172D01*
X282913Y59340D01*
X282975Y59511D01*
X283033Y59682D01*
X283087Y59855D01*
X283137Y60030D01*
X283182Y60205D01*
X283223Y60382D01*
X283260Y60559D01*
X283293Y60737D01*
X283321Y60916D01*
X283345Y61096D01*
X283365Y61276D01*
X283380Y61457D01*
X283391Y61638D01*
X283398Y61819D01*
X283400Y62000D01*
X275900Y54500D02*
X270367Y54500D01*
X283400Y62000D02*
X283402Y62134D01*
X283408Y62267D01*
X283418Y62401D01*
X283431Y62534D01*
X283449Y62667D01*
X283470Y62799D01*
X283495Y62930D01*
X283524Y63061D01*
X283557Y63191D01*
X283593Y63319D01*
X283633Y63447D01*
X283677Y63573D01*
X283725Y63698D01*
X283776Y63822D01*
X283831Y63944D01*
X283889Y64064D01*
X283951Y64183D01*
X284016Y64300D01*
X284085Y64415D01*
X284157Y64528D01*
X284232Y64638D01*
X284310Y64747D01*
X284392Y64853D01*
X284476Y64957D01*
X284564Y65058D01*
X284654Y65157D01*
X284747Y65253D01*
X284843Y65346D01*
X284942Y65436D01*
X285043Y65524D01*
X285147Y65608D01*
X285253Y65690D01*
X285362Y65768D01*
X285472Y65843D01*
X285585Y65915D01*
X285700Y65984D01*
X285817Y66049D01*
X285936Y66111D01*
X286056Y66169D01*
X286178Y66224D01*
X286302Y66275D01*
X286427Y66323D01*
X286553Y66367D01*
X286681Y66407D01*
X286809Y66443D01*
X286939Y66476D01*
X287070Y66505D01*
X287201Y66530D01*
X287333Y66551D01*
X287466Y66569D01*
X287599Y66582D01*
X287733Y66592D01*
X287866Y66598D01*
X288000Y66600D01*
X302150Y66600D01*
D36*
X312150Y66600D01*
X322150Y66600D01*
D33*
X257867Y38500D02*
X257400Y38033D01*
X257400Y23300D01*
X256200Y22100D01*
X255540Y21440D01*
X178440Y21440D01*
X88360Y39000D02*
X88360Y43540D01*
D34*
X102800Y39300D03*
D33*
X88360Y39000D02*
X88360Y38540D01*
D34*
X172000Y9000D03*
D33*
X174460Y11460D02*
X174460Y17460D01*
X174460Y11460D02*
X172000Y9000D01*
D36*
X102800Y39300D02*
X97900Y39300D01*
X97300Y38700D01*
X88660Y38700D01*
X88360Y39000D01*
D33*
X89600Y30600D02*
X89600Y24300D01*
X89600Y30600D02*
X83360Y36840D01*
X83360Y38540D01*
X71600Y24300D02*
X71600Y18700D01*
X69600Y20700D02*
X69600Y26280D01*
X78360Y35040D02*
X78360Y38540D01*
X78360Y35040D02*
X69600Y26280D01*
X69600Y20700D02*
X71600Y18700D01*
D36*
X69200Y21900D02*
X61300Y21900D01*
X69200Y21900D02*
X71600Y24300D01*
D33*
X101040Y73540D02*
X102100Y74600D01*
X101040Y73540D02*
X88360Y73540D01*
X88360Y68540D02*
X88860Y68540D01*
X102100Y55300D02*
X102100Y49600D01*
X102100Y55300D02*
X88860Y68540D01*
D37*
X48360Y53540D02*
X26602Y53540D01*
X26329Y53588D01*
X26057Y53642D01*
X25786Y53703D01*
X25517Y53770D01*
X25250Y53845D01*
X24985Y53925D01*
X24721Y54013D01*
X24460Y54106D01*
X24201Y54206D01*
X23945Y54313D01*
X23692Y54425D01*
X23441Y54544D01*
X23194Y54669D01*
X22949Y54800D01*
X22708Y54937D01*
X22470Y55080D01*
X22236Y55228D01*
X22005Y55382D01*
X21779Y55542D01*
X21556Y55708D01*
X21338Y55878D01*
X21123Y56055D01*
X20913Y56236D01*
X20708Y56422D01*
X20507Y56614D01*
X20311Y56810D01*
X20120Y57011D01*
X19934Y57217D01*
X19753Y57427D01*
X19577Y57641D01*
X19407Y57860D01*
X19242Y58083D01*
X19082Y58310D01*
X18928Y58541D01*
X18780Y58775D01*
X18638Y59013D01*
X18501Y59255D01*
X18371Y59499D01*
X18246Y59747D01*
X18128Y59998D01*
X18016Y60252D01*
X17910Y60508D01*
X17810Y60767D01*
X17717Y61028D01*
X17630Y61292D01*
X17550Y61557D01*
X17476Y61824D01*
X17409Y62093D01*
X17348Y62364D01*
X17294Y62636D01*
X17247Y62910D01*
X17207Y63184D01*
X17173Y63459D01*
X17146Y63735D01*
X17126Y64012D01*
X17112Y64289D01*
X17106Y64566D01*
X17106Y64844D01*
X17113Y65121D01*
X17127Y65398D01*
X17147Y65674D01*
X17175Y65950D01*
X17209Y66226D01*
X17250Y66500D01*
D33*
X249867Y43933D02*
X249867Y38500D01*
X249867Y43933D02*
X241800Y52000D01*
X228700Y52000D01*
D34*
X228700Y52000D03*
X80800Y43000D03*
D35*
X55078Y47181D02*
X55078Y49899D01*
X59259Y43000D02*
X80800Y43000D01*
X59259Y43000D02*
X55078Y47181D01*
X58360Y53181D02*
X58360Y53540D01*
X58360Y53181D02*
X55078Y49899D01*
M02*
