G04 EAGLE Gerber RS-274X export*
G75*
%MOMM*%
%FSLAX34Y34*%
%LPD*%
%IN*%
%IPPOS*%
%AMOC8*
5,1,8,0,0,1.08239X$1,22.5*%
G01*
%ADD10C,0.254000*%


D10*
X0Y5000D02*
X19Y4564D01*
X76Y4132D01*
X170Y3706D01*
X302Y3290D01*
X468Y2887D01*
X670Y2500D01*
X904Y2132D01*
X1170Y1786D01*
X1464Y1464D01*
X1786Y1170D01*
X2132Y904D01*
X2500Y670D01*
X2887Y468D01*
X3290Y302D01*
X3706Y170D01*
X4132Y76D01*
X4564Y19D01*
X5000Y0D01*
X280000Y0D01*
X280436Y19D01*
X280868Y76D01*
X281294Y170D01*
X281710Y302D01*
X282113Y468D01*
X282500Y670D01*
X282868Y904D01*
X283214Y1170D01*
X283536Y1464D01*
X283830Y1786D01*
X284096Y2132D01*
X284330Y2500D01*
X284532Y2887D01*
X284698Y3290D01*
X284830Y3706D01*
X284924Y4132D01*
X284981Y4564D01*
X285000Y5000D01*
X285000Y7500D01*
X285076Y9243D01*
X285304Y10973D01*
X285681Y12676D01*
X286206Y14340D01*
X286874Y15952D01*
X287680Y17500D01*
X288617Y18972D01*
X289679Y20356D01*
X290858Y21642D01*
X292144Y22821D01*
X293528Y23883D01*
X295000Y24821D01*
X296548Y25626D01*
X298160Y26294D01*
X299824Y26819D01*
X301527Y27196D01*
X303257Y27424D01*
X305000Y27500D01*
X315000Y27500D01*
X316743Y27576D01*
X318473Y27804D01*
X320176Y28181D01*
X321840Y28706D01*
X323452Y29374D01*
X325000Y30180D01*
X326472Y31117D01*
X327856Y32179D01*
X329142Y33358D01*
X330321Y34644D01*
X331383Y36028D01*
X332321Y37500D01*
X333126Y39048D01*
X333794Y40660D01*
X334319Y42324D01*
X334696Y44027D01*
X334924Y45757D01*
X335000Y47500D01*
X335000Y82500D01*
X334924Y84243D01*
X334696Y85973D01*
X334319Y87676D01*
X333794Y89340D01*
X333126Y90952D01*
X332321Y92500D01*
X331383Y93972D01*
X330321Y95356D01*
X329142Y96642D01*
X327856Y97821D01*
X326472Y98883D01*
X325000Y99821D01*
X323452Y100626D01*
X321840Y101294D01*
X320176Y101819D01*
X318473Y102196D01*
X316743Y102424D01*
X315000Y102500D01*
X305000Y102500D01*
X303257Y102576D01*
X301527Y102804D01*
X299824Y103181D01*
X298160Y103706D01*
X296548Y104374D01*
X295000Y105180D01*
X293528Y106117D01*
X292144Y107179D01*
X290858Y108358D01*
X289679Y109644D01*
X288617Y111028D01*
X287680Y112500D01*
X286874Y114048D01*
X286206Y115660D01*
X285681Y117324D01*
X285304Y119027D01*
X285076Y120757D01*
X285000Y122500D01*
X285000Y160000D01*
X284981Y160436D01*
X284924Y160868D01*
X284830Y161294D01*
X284698Y161710D01*
X284532Y162113D01*
X284330Y162500D01*
X284096Y162868D01*
X283830Y163214D01*
X283536Y163536D01*
X283214Y163830D01*
X282868Y164096D01*
X282500Y164330D01*
X282113Y164532D01*
X281710Y164698D01*
X281294Y164830D01*
X280868Y164924D01*
X280436Y164981D01*
X280000Y165000D01*
X5000Y165000D01*
X4564Y164981D01*
X4132Y164924D01*
X3706Y164830D01*
X3290Y164698D01*
X2887Y164532D01*
X2500Y164330D01*
X2132Y164096D01*
X1786Y163830D01*
X1464Y163536D01*
X1170Y163214D01*
X904Y162868D01*
X670Y162500D01*
X468Y162113D01*
X302Y161710D01*
X170Y161294D01*
X76Y160868D01*
X19Y160436D01*
X0Y160000D01*
X0Y5000D01*
M02*
