G04 EAGLE Gerber RS-274X export*
G75*
%MOMM*%
%FSLAX34Y34*%
%LPD*%
%INSilkscreen Top*%
%IPPOS*%
%AMOC8*
5,1,8,0,0,1.08239X$1,22.5*%
G01*
%ADD10C,0.127000*%
%ADD11C,0.250000*%
%ADD12C,0.152400*%
%ADD13R,0.300000X0.300000*%
%ADD14C,0.508000*%
%ADD15C,0.100000*%
%ADD16C,0.203200*%
%ADD17C,0.025400*%
%ADD18C,0.200000*%


D10*
X150867Y149000D02*
X276867Y149000D01*
X276867Y32000D01*
X150867Y32000D01*
X150867Y149000D01*
D11*
X102674Y35230D02*
X102676Y35300D01*
X102682Y35370D01*
X102692Y35439D01*
X102705Y35508D01*
X102723Y35576D01*
X102744Y35643D01*
X102769Y35708D01*
X102798Y35772D01*
X102830Y35835D01*
X102866Y35895D01*
X102905Y35953D01*
X102947Y36009D01*
X102992Y36063D01*
X103040Y36114D01*
X103091Y36162D01*
X103145Y36207D01*
X103201Y36249D01*
X103259Y36288D01*
X103319Y36324D01*
X103382Y36356D01*
X103446Y36385D01*
X103511Y36410D01*
X103578Y36431D01*
X103646Y36449D01*
X103715Y36462D01*
X103784Y36472D01*
X103854Y36478D01*
X103924Y36480D01*
X103994Y36478D01*
X104064Y36472D01*
X104133Y36462D01*
X104202Y36449D01*
X104270Y36431D01*
X104337Y36410D01*
X104402Y36385D01*
X104466Y36356D01*
X104529Y36324D01*
X104589Y36288D01*
X104647Y36249D01*
X104703Y36207D01*
X104757Y36162D01*
X104808Y36114D01*
X104856Y36063D01*
X104901Y36009D01*
X104943Y35953D01*
X104982Y35895D01*
X105018Y35835D01*
X105050Y35772D01*
X105079Y35708D01*
X105104Y35643D01*
X105125Y35576D01*
X105143Y35508D01*
X105156Y35439D01*
X105166Y35370D01*
X105172Y35300D01*
X105174Y35230D01*
X105172Y35160D01*
X105166Y35090D01*
X105156Y35021D01*
X105143Y34952D01*
X105125Y34884D01*
X105104Y34817D01*
X105079Y34752D01*
X105050Y34688D01*
X105018Y34625D01*
X104982Y34565D01*
X104943Y34507D01*
X104901Y34451D01*
X104856Y34397D01*
X104808Y34346D01*
X104757Y34298D01*
X104703Y34253D01*
X104647Y34211D01*
X104589Y34172D01*
X104529Y34136D01*
X104466Y34104D01*
X104402Y34075D01*
X104337Y34050D01*
X104270Y34029D01*
X104202Y34011D01*
X104133Y33998D01*
X104064Y33988D01*
X103994Y33982D01*
X103924Y33980D01*
X103854Y33982D01*
X103784Y33988D01*
X103715Y33998D01*
X103646Y34011D01*
X103578Y34029D01*
X103511Y34050D01*
X103446Y34075D01*
X103382Y34104D01*
X103319Y34136D01*
X103259Y34172D01*
X103201Y34211D01*
X103145Y34253D01*
X103091Y34298D01*
X103040Y34346D01*
X102992Y34397D01*
X102947Y34451D01*
X102905Y34507D01*
X102866Y34565D01*
X102830Y34625D01*
X102798Y34688D01*
X102769Y34752D01*
X102744Y34817D01*
X102723Y34884D01*
X102705Y34952D01*
X102692Y35021D01*
X102682Y35090D01*
X102676Y35160D01*
X102674Y35230D01*
D12*
X114924Y33980D02*
X131174Y33980D01*
X131174Y13980D02*
X114924Y13980D01*
D13*
X156000Y13500D03*
X156000Y20500D03*
X155050Y152750D03*
X87300Y121300D03*
X87550Y131550D03*
D10*
X125400Y87800D02*
X128400Y87800D01*
X101400Y87800D02*
X98400Y87800D01*
X125400Y117800D02*
X128400Y117800D01*
X128400Y90800D02*
X128400Y87800D01*
X128400Y90800D02*
X125400Y87800D01*
X128400Y114700D02*
X128400Y117700D01*
X128400Y117800D02*
X125400Y117800D01*
X101476Y117800D02*
X98476Y117800D01*
X98428Y117724D02*
X98428Y114724D01*
X98400Y90800D02*
X98400Y87800D01*
X101400Y87800D01*
X112500Y40650D02*
X148500Y40650D01*
X112500Y40650D02*
X112500Y76650D01*
X148500Y76650D01*
X148500Y40650D01*
D13*
X137350Y93100D03*
X137500Y99550D03*
X102600Y123300D03*
X113900Y130000D03*
X129000Y121900D03*
D10*
X244066Y140121D02*
X244066Y143875D01*
X244066Y140121D02*
X244064Y140056D01*
X244058Y139992D01*
X244048Y139928D01*
X244035Y139864D01*
X244017Y139802D01*
X243996Y139741D01*
X243972Y139681D01*
X243943Y139623D01*
X243911Y139566D01*
X243876Y139512D01*
X243838Y139460D01*
X243796Y139410D01*
X243752Y139363D01*
X243705Y139319D01*
X243655Y139277D01*
X243603Y139239D01*
X243549Y139204D01*
X243492Y139172D01*
X243434Y139143D01*
X243374Y139119D01*
X243313Y139098D01*
X243251Y139080D01*
X243187Y139067D01*
X243123Y139057D01*
X243059Y139051D01*
X242994Y139049D01*
X242457Y139049D01*
X248489Y143875D02*
X248557Y143873D01*
X248624Y143867D01*
X248691Y143858D01*
X248758Y143845D01*
X248823Y143828D01*
X248888Y143807D01*
X248951Y143783D01*
X249013Y143755D01*
X249073Y143724D01*
X249131Y143690D01*
X249187Y143652D01*
X249242Y143612D01*
X249293Y143568D01*
X249342Y143521D01*
X249389Y143472D01*
X249433Y143421D01*
X249473Y143366D01*
X249511Y143310D01*
X249545Y143252D01*
X249576Y143192D01*
X249604Y143130D01*
X249628Y143067D01*
X249649Y143002D01*
X249666Y142937D01*
X249679Y142870D01*
X249688Y142803D01*
X249694Y142736D01*
X249696Y142668D01*
X248489Y143875D02*
X248411Y143873D01*
X248333Y143867D01*
X248256Y143857D01*
X248179Y143844D01*
X248103Y143826D01*
X248028Y143805D01*
X247954Y143780D01*
X247882Y143751D01*
X247811Y143719D01*
X247742Y143683D01*
X247674Y143644D01*
X247609Y143601D01*
X247546Y143555D01*
X247485Y143506D01*
X247427Y143454D01*
X247372Y143399D01*
X247319Y143342D01*
X247270Y143282D01*
X247223Y143219D01*
X247180Y143155D01*
X247140Y143088D01*
X247103Y143019D01*
X247070Y142948D01*
X247040Y142876D01*
X247014Y142803D01*
X249293Y141730D02*
X249342Y141779D01*
X249389Y141831D01*
X249432Y141886D01*
X249473Y141943D01*
X249511Y142002D01*
X249545Y142063D01*
X249576Y142126D01*
X249604Y142190D01*
X249628Y142256D01*
X249648Y142322D01*
X249665Y142390D01*
X249678Y142459D01*
X249687Y142528D01*
X249693Y142598D01*
X249695Y142668D01*
X249293Y141730D02*
X247014Y139049D01*
X249695Y139049D01*
D14*
X40860Y31120D03*
D15*
X91860Y41040D02*
X91860Y76040D01*
X85860Y82040D02*
X50860Y82040D01*
X50860Y35040D02*
X85860Y35040D01*
X44860Y41040D02*
X44860Y76040D01*
D16*
X93600Y67100D02*
X93600Y57100D01*
X110600Y57100D02*
X110600Y67100D01*
D17*
X72027Y40683D02*
X72027Y37127D01*
X73607Y37127D01*
X76854Y39794D02*
X76852Y39852D01*
X76846Y39910D01*
X76837Y39967D01*
X76824Y40024D01*
X76807Y40080D01*
X76786Y40134D01*
X76762Y40187D01*
X76735Y40239D01*
X76704Y40288D01*
X76670Y40335D01*
X76633Y40380D01*
X76594Y40423D01*
X76551Y40462D01*
X76506Y40499D01*
X76459Y40533D01*
X76410Y40564D01*
X76358Y40591D01*
X76305Y40615D01*
X76251Y40636D01*
X76195Y40653D01*
X76138Y40666D01*
X76081Y40675D01*
X76023Y40681D01*
X75965Y40683D01*
X75900Y40681D01*
X75835Y40676D01*
X75770Y40666D01*
X75706Y40653D01*
X75643Y40637D01*
X75581Y40616D01*
X75520Y40593D01*
X75461Y40566D01*
X75403Y40535D01*
X75347Y40501D01*
X75293Y40465D01*
X75242Y40425D01*
X75192Y40382D01*
X75146Y40336D01*
X75101Y40288D01*
X75060Y40238D01*
X75022Y40185D01*
X74987Y40130D01*
X74955Y40073D01*
X74926Y40014D01*
X74900Y39954D01*
X74879Y39893D01*
X76558Y39103D02*
X76599Y39145D01*
X76639Y39190D01*
X76675Y39237D01*
X76708Y39286D01*
X76738Y39338D01*
X76765Y39391D01*
X76788Y39445D01*
X76808Y39501D01*
X76825Y39559D01*
X76837Y39617D01*
X76847Y39675D01*
X76852Y39735D01*
X76854Y39794D01*
X76557Y39103D02*
X74878Y37127D01*
X76854Y37127D01*
D12*
X20500Y73500D02*
X20500Y91500D01*
X4500Y91500D02*
X4500Y73500D01*
D18*
X168500Y12100D02*
X168502Y12163D01*
X168508Y12225D01*
X168518Y12287D01*
X168531Y12349D01*
X168549Y12409D01*
X168570Y12468D01*
X168595Y12526D01*
X168624Y12582D01*
X168656Y12636D01*
X168691Y12688D01*
X168729Y12737D01*
X168771Y12785D01*
X168815Y12829D01*
X168863Y12871D01*
X168912Y12909D01*
X168964Y12944D01*
X169018Y12976D01*
X169074Y13005D01*
X169132Y13030D01*
X169191Y13051D01*
X169251Y13069D01*
X169313Y13082D01*
X169375Y13092D01*
X169437Y13098D01*
X169500Y13100D01*
X169563Y13098D01*
X169625Y13092D01*
X169687Y13082D01*
X169749Y13069D01*
X169809Y13051D01*
X169868Y13030D01*
X169926Y13005D01*
X169982Y12976D01*
X170036Y12944D01*
X170088Y12909D01*
X170137Y12871D01*
X170185Y12829D01*
X170229Y12785D01*
X170271Y12737D01*
X170309Y12688D01*
X170344Y12636D01*
X170376Y12582D01*
X170405Y12526D01*
X170430Y12468D01*
X170451Y12409D01*
X170469Y12349D01*
X170482Y12287D01*
X170492Y12225D01*
X170498Y12163D01*
X170500Y12100D01*
X170498Y12037D01*
X170492Y11975D01*
X170482Y11913D01*
X170469Y11851D01*
X170451Y11791D01*
X170430Y11732D01*
X170405Y11674D01*
X170376Y11618D01*
X170344Y11564D01*
X170309Y11512D01*
X170271Y11463D01*
X170229Y11415D01*
X170185Y11371D01*
X170137Y11329D01*
X170088Y11291D01*
X170036Y11256D01*
X169982Y11224D01*
X169926Y11195D01*
X169868Y11170D01*
X169809Y11149D01*
X169749Y11131D01*
X169687Y11118D01*
X169625Y11108D01*
X169563Y11102D01*
X169500Y11100D01*
X169437Y11102D01*
X169375Y11108D01*
X169313Y11118D01*
X169251Y11131D01*
X169191Y11149D01*
X169132Y11170D01*
X169074Y11195D01*
X169018Y11224D01*
X168964Y11256D01*
X168912Y11291D01*
X168863Y11329D01*
X168815Y11371D01*
X168771Y11415D01*
X168729Y11463D01*
X168691Y11512D01*
X168656Y11564D01*
X168624Y11618D01*
X168595Y11674D01*
X168570Y11732D01*
X168549Y11791D01*
X168531Y11851D01*
X168518Y11913D01*
X168508Y11975D01*
X168502Y12037D01*
X168500Y12100D01*
D12*
X171300Y14300D02*
X175200Y14300D01*
X171300Y14300D02*
X171300Y18200D01*
X181600Y20700D02*
X181600Y24600D01*
X177700Y24600D01*
M02*
