G04 EAGLE Gerber RS-274X export*
G75*
%MOMM*%
%FSLAX34Y34*%
%LPD*%
%INCopper Layer 2*%
%IPPOS*%
%AMOC8*
5,1,8,0,0,1.08239X$1,22.5*%
G01*
%ADD10C,1.016000*%
%ADD11C,1.108000*%
%ADD12C,0.958000*%
%ADD13C,0.454000*%
%ADD14C,0.152400*%
%ADD15C,0.406400*%

G36*
X6590Y111754D02*
X6590Y111754D01*
X6681Y111761D01*
X6711Y111773D01*
X6743Y111779D01*
X6823Y111821D01*
X6907Y111857D01*
X6939Y111883D01*
X6960Y111894D01*
X6982Y111917D01*
X7038Y111962D01*
X20815Y125739D01*
X25500Y125739D01*
X25590Y125754D01*
X25681Y125761D01*
X25711Y125773D01*
X25743Y125779D01*
X25823Y125821D01*
X25907Y125857D01*
X25939Y125883D01*
X25960Y125894D01*
X25982Y125917D01*
X26038Y125962D01*
X34038Y133962D01*
X34091Y134036D01*
X34151Y134105D01*
X34163Y134135D01*
X34182Y134161D01*
X34209Y134248D01*
X34243Y134333D01*
X34247Y134374D01*
X34254Y134397D01*
X34253Y134429D01*
X34261Y134500D01*
X34261Y161460D01*
X34258Y161480D01*
X34260Y161499D01*
X34238Y161601D01*
X34222Y161703D01*
X34212Y161720D01*
X34208Y161740D01*
X34155Y161829D01*
X34106Y161920D01*
X34092Y161934D01*
X34082Y161951D01*
X34003Y162018D01*
X33928Y162090D01*
X33910Y162098D01*
X33895Y162111D01*
X33799Y162150D01*
X33705Y162193D01*
X33685Y162195D01*
X33667Y162203D01*
X33500Y162221D01*
X21014Y162221D01*
X20934Y162208D01*
X20852Y162204D01*
X20840Y162199D01*
X19987Y162221D01*
X19979Y162220D01*
X19968Y162221D01*
X19927Y162221D01*
X19900Y162217D01*
X19847Y162217D01*
X17982Y162020D01*
X17919Y162003D01*
X17854Y161995D01*
X17777Y161964D01*
X17745Y161955D01*
X17729Y161944D01*
X17699Y161932D01*
X14418Y160148D01*
X14327Y160077D01*
X14235Y160010D01*
X14229Y160002D01*
X14224Y159998D01*
X14212Y159979D01*
X14133Y159877D01*
X12183Y156692D01*
X12159Y156632D01*
X12125Y156575D01*
X12111Y156525D01*
X12100Y156500D01*
X12098Y156482D01*
X12091Y156465D01*
X12089Y156445D01*
X12081Y156414D01*
X11788Y154559D01*
X11788Y154526D01*
X11779Y154440D01*
X11779Y145684D01*
X9962Y142538D01*
X6816Y140721D01*
X3457Y140721D01*
X3386Y140710D01*
X3315Y140708D01*
X3266Y140690D01*
X3214Y140682D01*
X3151Y140648D01*
X3084Y140623D01*
X3043Y140591D01*
X2997Y140566D01*
X2948Y140514D01*
X2892Y140470D01*
X2863Y140426D01*
X2828Y140388D01*
X2797Y140323D01*
X2759Y140263D01*
X2746Y140212D01*
X2724Y140165D01*
X2716Y140094D01*
X2699Y140024D01*
X2703Y139972D01*
X2697Y139921D01*
X2712Y139850D01*
X2718Y139779D01*
X2738Y139731D01*
X2749Y139680D01*
X2786Y139619D01*
X2814Y139553D01*
X2859Y139497D01*
X2875Y139469D01*
X2893Y139454D01*
X2919Y139422D01*
X4599Y137741D01*
X5605Y135314D01*
X5605Y132686D01*
X4599Y130259D01*
X2741Y128401D01*
X2627Y128353D01*
X2566Y128315D01*
X2500Y128286D01*
X2462Y128251D01*
X2418Y128224D01*
X2372Y128168D01*
X2319Y128120D01*
X2294Y128074D01*
X2261Y128034D01*
X2235Y127967D01*
X2201Y127904D01*
X2191Y127853D01*
X2173Y127805D01*
X2170Y127733D01*
X2157Y127662D01*
X2164Y127611D01*
X2162Y127559D01*
X2182Y127490D01*
X2193Y127419D01*
X2216Y127373D01*
X2231Y127323D01*
X2272Y127264D01*
X2304Y127200D01*
X2341Y127163D01*
X2371Y127121D01*
X2428Y127078D01*
X2480Y127028D01*
X2543Y126993D01*
X2568Y126974D01*
X2591Y126967D01*
X2627Y126947D01*
X2741Y126899D01*
X4599Y125041D01*
X5605Y122614D01*
X5605Y119986D01*
X4599Y117559D01*
X2741Y115701D01*
X2295Y115516D01*
X2234Y115478D01*
X2168Y115449D01*
X2130Y115414D01*
X2086Y115386D01*
X2040Y115331D01*
X1987Y115282D01*
X1962Y115237D01*
X1929Y115197D01*
X1903Y115130D01*
X1869Y115067D01*
X1859Y115016D01*
X1841Y114967D01*
X1838Y114896D01*
X1825Y114825D01*
X1833Y114773D01*
X1830Y114721D01*
X1850Y114653D01*
X1861Y114582D01*
X1884Y114535D01*
X1899Y114485D01*
X1940Y114426D01*
X1972Y114362D01*
X2009Y114326D01*
X2039Y114283D01*
X2097Y114240D01*
X2148Y114190D01*
X2211Y114156D01*
X2236Y114136D01*
X2259Y114129D01*
X2295Y114109D01*
X2597Y113984D01*
X4390Y112191D01*
X4441Y112109D01*
X4501Y112009D01*
X4505Y112005D01*
X4509Y112000D01*
X4599Y111925D01*
X4688Y111849D01*
X4693Y111847D01*
X4698Y111843D01*
X4807Y111801D01*
X4916Y111757D01*
X4923Y111756D01*
X4928Y111755D01*
X4946Y111754D01*
X5083Y111739D01*
X6500Y111739D01*
X6590Y111754D01*
G37*
D10*
X162500Y155500D03*
X163000Y8000D03*
D11*
X268000Y57000D03*
X288000Y57000D03*
D12*
X22000Y32000D03*
X12500Y83000D03*
D11*
X288000Y107000D03*
X268000Y107000D03*
D10*
X-1000Y121300D03*
X-1000Y108600D03*
X-1000Y95900D03*
X-1000Y83200D03*
X-1000Y70500D03*
X-1000Y134000D03*
X-1000Y57400D03*
X-1000Y44700D03*
X-1000Y32000D03*
D13*
X236500Y83000D03*
X156500Y123000D03*
X176500Y123000D03*
X196500Y123000D03*
X216500Y123000D03*
X216500Y103000D03*
X196500Y103000D03*
X176500Y103000D03*
X156500Y103000D03*
X156500Y83000D03*
X176500Y83000D03*
X196500Y83000D03*
X216500Y83000D03*
X256500Y83000D03*
X276500Y83000D03*
X126500Y83000D03*
X126500Y103000D03*
X126500Y63000D03*
X156500Y75000D03*
X176500Y75000D03*
X196500Y73000D03*
X216500Y68000D03*
X236500Y67000D03*
X196500Y54500D03*
X176500Y57000D03*
X156500Y57000D03*
X216500Y49500D03*
X256500Y70000D03*
X276500Y70000D03*
X276500Y44000D03*
X256500Y44000D03*
X276500Y94000D03*
X256500Y94000D03*
X226500Y67000D03*
X245500Y67000D03*
X206500Y71000D03*
X186500Y75000D03*
X166500Y75000D03*
X186500Y56000D03*
X206500Y51500D03*
X166500Y57000D03*
X227500Y49000D03*
X237500Y49000D03*
X147500Y75000D03*
X147500Y57000D03*
X266500Y70000D03*
X266500Y44000D03*
X286500Y44000D03*
X286500Y70000D03*
X286500Y94000D03*
X266500Y94000D03*
X266500Y120000D03*
X276500Y120000D03*
X286500Y120000D03*
X296500Y94000D03*
X296500Y70000D03*
X296500Y120000D03*
X296500Y44000D03*
X236500Y103000D03*
X225500Y120000D03*
X229500Y111000D03*
X246500Y98000D03*
X256500Y120000D03*
X246500Y120000D03*
X242500Y128000D03*
X223500Y128000D03*
X102500Y143000D03*
X41000Y138000D03*
X21000Y158000D03*
X144000Y158000D03*
X195000Y145000D03*
X217000Y145000D03*
X250000Y143500D03*
X251500Y29500D03*
X228000Y19000D03*
X44500Y83000D03*
X97500Y4000D03*
X80500Y25500D03*
X128000Y137500D03*
X28000Y11000D03*
D14*
X128000Y111000D02*
X128000Y137500D01*
X128000Y111000D02*
X94500Y77500D01*
X71000Y77500D01*
X43500Y50000D01*
X43500Y26500D01*
X28000Y11000D01*
D13*
X123500Y128500D03*
X28000Y17500D03*
D14*
X123500Y114500D02*
X123500Y128500D01*
X123500Y114500D02*
X91000Y82000D01*
X69000Y82000D01*
X38000Y51000D02*
X38000Y27500D01*
X28000Y17500D01*
X38000Y51000D02*
X69000Y82000D01*
D13*
X76500Y57500D03*
X167500Y50000D03*
D14*
X81500Y62500D02*
X76500Y57500D01*
X81500Y62500D02*
X96500Y62500D01*
X117540Y41460D02*
X158960Y41460D01*
X167500Y50000D01*
X117540Y41460D02*
X96500Y62500D01*
D13*
X178500Y50000D03*
X86000Y57500D03*
D14*
X95500Y57500D01*
X114500Y38500D01*
X167000Y38500D02*
X178500Y50000D01*
X167000Y38500D02*
X114500Y38500D01*
D13*
X91500Y144500D03*
D14*
X86782Y139198D02*
X81718Y139198D01*
X76416Y144500D02*
X63500Y144500D01*
X91500Y144500D02*
X91500Y143916D01*
X86782Y139198D01*
X81718Y139198D02*
X76416Y144500D01*
X2200Y83200D02*
X-1000Y83200D01*
X2200Y83200D02*
X63500Y144500D01*
D13*
X84000Y144500D03*
D14*
X79225Y149275D01*
X61375Y149275D01*
X8000Y95900D01*
X-1000Y95900D01*
D13*
X100500Y30000D03*
D15*
X115500Y15000D01*
X145190Y24690D02*
X197853Y24690D01*
X135500Y15000D02*
X115500Y15000D01*
X135500Y15000D02*
X145190Y24690D01*
D13*
X206060Y32897D03*
D15*
X197853Y24690D01*
X100500Y30000D02*
X86500Y30000D01*
X65436Y51064D02*
X65436Y62936D01*
X75500Y73000D02*
X108000Y73000D01*
X134000Y99000D01*
X134000Y138880D02*
X150620Y155500D01*
X162500Y155500D01*
X65436Y51064D02*
X86500Y30000D01*
X65436Y62936D02*
X75500Y73000D01*
X134000Y99000D02*
X134000Y138880D01*
D13*
X10500Y31500D03*
D14*
X23698Y9218D02*
X26218Y6698D01*
X29782Y6698D01*
X23698Y9218D02*
X23698Y19282D01*
X35206Y30790D01*
X46294Y23210D02*
X29782Y6698D01*
X46294Y23210D02*
X46294Y31922D01*
X65436Y51064D01*
X35206Y33794D02*
X35206Y30790D01*
X35206Y33794D02*
X29500Y39500D01*
X18500Y39500D01*
X10500Y31500D01*
D13*
X101000Y19590D03*
D15*
X57590Y19590D01*
X52868Y14868D02*
X52868Y7548D01*
X52868Y14868D02*
X57590Y19590D01*
D13*
X52868Y7548D03*
X158000Y30500D03*
X243679Y22896D03*
X71000Y137500D03*
D14*
X71000Y124500D01*
X17000Y70500D02*
X-1000Y70500D01*
X17000Y70500D02*
X71000Y124500D01*
D13*
X118500Y121000D03*
D14*
X75000Y121000D01*
X11400Y57400D02*
X-1000Y57400D01*
X11400Y57400D02*
X75000Y121000D01*
D13*
X217000Y33000D03*
X110500Y57500D03*
X67000Y11500D03*
X93000Y10500D03*
X137900Y46262D03*
X100500Y36500D03*
X127500Y23000D03*
X117000Y23000D03*
X66500Y39000D03*
X152000Y52000D03*
X224540Y24000D03*
X239000Y33000D03*
D14*
X149000Y136500D02*
X149000Y144500D01*
X149000Y136500D02*
X140302Y127802D01*
X140302Y89218D01*
D13*
X149000Y144500D03*
D14*
X176753Y38802D02*
X173157Y35206D01*
X83698Y40802D02*
X71500Y53000D01*
X83698Y40802D02*
X104782Y40802D01*
X110378Y35206D02*
X173157Y35206D01*
X110378Y35206D02*
X104782Y40802D01*
X71500Y53000D02*
X71500Y61000D01*
X176753Y38802D02*
X232698Y38802D01*
X77000Y66500D02*
X71500Y61000D01*
X77000Y66500D02*
X117584Y66500D01*
X140302Y89218D01*
X232698Y38802D02*
X239000Y33000D01*
M02*
