G04 EAGLE Gerber RS-274X export*
G75*
%MOMM*%
%FSLAX34Y34*%
%LPD*%
%INSilkscreen Bottom*%
%IPPOS*%
%AMOC8*
5,1,8,0,0,1.08239X$1,22.5*%
G01*
%ADD10C,0.076200*%
%ADD11C,0.127000*%


D10*
X34675Y142500D02*
X239325Y142500D01*
X239436Y142498D01*
X239546Y142492D01*
X239657Y142483D01*
X239767Y142469D01*
X239876Y142452D01*
X239985Y142431D01*
X240093Y142406D01*
X240200Y142377D01*
X240306Y142345D01*
X240411Y142309D01*
X240514Y142269D01*
X240616Y142226D01*
X240717Y142179D01*
X240816Y142128D01*
X240913Y142075D01*
X241007Y142018D01*
X241100Y141957D01*
X241191Y141894D01*
X241280Y141827D01*
X241366Y141757D01*
X241449Y141684D01*
X241531Y141609D01*
X241609Y141531D01*
X241684Y141449D01*
X241757Y141366D01*
X241827Y141280D01*
X241894Y141191D01*
X241957Y141100D01*
X242018Y141007D01*
X242075Y140913D01*
X242128Y140816D01*
X242179Y140717D01*
X242226Y140616D01*
X242269Y140514D01*
X242309Y140411D01*
X242345Y140306D01*
X242377Y140200D01*
X242406Y140093D01*
X242431Y139985D01*
X242452Y139876D01*
X242469Y139767D01*
X242483Y139657D01*
X242492Y139546D01*
X242498Y139436D01*
X242500Y139325D01*
X242500Y24675D01*
X242498Y24564D01*
X242492Y24454D01*
X242483Y24343D01*
X242469Y24233D01*
X242452Y24124D01*
X242431Y24015D01*
X242406Y23907D01*
X242377Y23800D01*
X242345Y23694D01*
X242309Y23589D01*
X242269Y23486D01*
X242226Y23384D01*
X242179Y23283D01*
X242128Y23184D01*
X242075Y23087D01*
X242018Y22993D01*
X241957Y22900D01*
X241894Y22809D01*
X241827Y22720D01*
X241757Y22634D01*
X241684Y22551D01*
X241609Y22469D01*
X241531Y22391D01*
X241449Y22316D01*
X241366Y22243D01*
X241280Y22173D01*
X241191Y22106D01*
X241100Y22043D01*
X241007Y21982D01*
X240912Y21925D01*
X240816Y21872D01*
X240717Y21821D01*
X240616Y21774D01*
X240514Y21731D01*
X240411Y21691D01*
X240306Y21655D01*
X240200Y21623D01*
X240093Y21594D01*
X239985Y21569D01*
X239876Y21548D01*
X239767Y21531D01*
X239657Y21517D01*
X239546Y21508D01*
X239436Y21502D01*
X239325Y21500D01*
X16500Y21500D01*
X11500Y26500D02*
X11500Y36500D01*
X11502Y36640D01*
X11508Y36780D01*
X11518Y36920D01*
X11531Y37060D01*
X11549Y37199D01*
X11571Y37338D01*
X11596Y37475D01*
X11625Y37613D01*
X11658Y37749D01*
X11695Y37884D01*
X11736Y38018D01*
X11781Y38151D01*
X11829Y38283D01*
X11881Y38413D01*
X11936Y38542D01*
X11995Y38669D01*
X12058Y38795D01*
X12124Y38919D01*
X12193Y39040D01*
X12266Y39160D01*
X12343Y39278D01*
X12422Y39393D01*
X12505Y39507D01*
X12591Y39617D01*
X12680Y39726D01*
X12772Y39832D01*
X12867Y39935D01*
X12964Y40036D01*
X13065Y40133D01*
X13168Y40228D01*
X13274Y40320D01*
X13383Y40409D01*
X13493Y40495D01*
X13607Y40578D01*
X13722Y40657D01*
X13840Y40734D01*
X13960Y40807D01*
X14081Y40876D01*
X14205Y40942D01*
X14331Y41005D01*
X14458Y41064D01*
X14587Y41119D01*
X14717Y41171D01*
X14849Y41219D01*
X14982Y41264D01*
X15116Y41305D01*
X15251Y41342D01*
X15387Y41375D01*
X15525Y41404D01*
X15662Y41429D01*
X15801Y41451D01*
X15940Y41469D01*
X16080Y41482D01*
X16220Y41492D01*
X16360Y41498D01*
X16500Y41500D01*
X26500Y41500D01*
X26640Y41502D01*
X26780Y41508D01*
X26920Y41518D01*
X27060Y41531D01*
X27199Y41549D01*
X27338Y41571D01*
X27475Y41596D01*
X27613Y41625D01*
X27749Y41658D01*
X27884Y41695D01*
X28018Y41736D01*
X28151Y41781D01*
X28283Y41829D01*
X28413Y41881D01*
X28542Y41936D01*
X28669Y41995D01*
X28795Y42058D01*
X28919Y42124D01*
X29040Y42193D01*
X29160Y42266D01*
X29278Y42343D01*
X29393Y42422D01*
X29507Y42505D01*
X29617Y42591D01*
X29726Y42680D01*
X29832Y42772D01*
X29935Y42867D01*
X30036Y42964D01*
X30133Y43065D01*
X30228Y43168D01*
X30320Y43274D01*
X30409Y43383D01*
X30495Y43493D01*
X30578Y43607D01*
X30657Y43722D01*
X30734Y43840D01*
X30807Y43960D01*
X30876Y44081D01*
X30942Y44205D01*
X31005Y44331D01*
X31064Y44458D01*
X31119Y44587D01*
X31171Y44717D01*
X31219Y44849D01*
X31264Y44982D01*
X31305Y45116D01*
X31342Y45251D01*
X31375Y45387D01*
X31404Y45525D01*
X31429Y45662D01*
X31451Y45801D01*
X31469Y45940D01*
X31482Y46080D01*
X31492Y46220D01*
X31498Y46360D01*
X31500Y46500D01*
X31500Y139325D01*
X31502Y139436D01*
X31508Y139546D01*
X31517Y139657D01*
X31531Y139767D01*
X31548Y139876D01*
X31569Y139985D01*
X31594Y140093D01*
X31623Y140200D01*
X31655Y140306D01*
X31691Y140411D01*
X31731Y140514D01*
X31774Y140616D01*
X31821Y140717D01*
X31872Y140816D01*
X31925Y140913D01*
X31982Y141007D01*
X32043Y141100D01*
X32106Y141191D01*
X32173Y141280D01*
X32243Y141366D01*
X32316Y141449D01*
X32391Y141531D01*
X32469Y141609D01*
X32551Y141684D01*
X32634Y141757D01*
X32720Y141827D01*
X32809Y141894D01*
X32900Y141957D01*
X32993Y142018D01*
X33088Y142075D01*
X33184Y142128D01*
X33283Y142179D01*
X33384Y142226D01*
X33486Y142269D01*
X33589Y142309D01*
X33694Y142345D01*
X33800Y142377D01*
X33907Y142406D01*
X34015Y142431D01*
X34124Y142452D01*
X34233Y142469D01*
X34343Y142483D01*
X34454Y142492D01*
X34564Y142498D01*
X34675Y142500D01*
X11500Y26500D02*
X11502Y26360D01*
X11508Y26220D01*
X11518Y26080D01*
X11531Y25940D01*
X11549Y25801D01*
X11571Y25662D01*
X11596Y25525D01*
X11625Y25387D01*
X11658Y25251D01*
X11695Y25116D01*
X11736Y24982D01*
X11781Y24849D01*
X11829Y24717D01*
X11881Y24587D01*
X11936Y24458D01*
X11995Y24331D01*
X12058Y24205D01*
X12124Y24081D01*
X12193Y23960D01*
X12266Y23840D01*
X12343Y23722D01*
X12422Y23607D01*
X12505Y23493D01*
X12591Y23383D01*
X12680Y23274D01*
X12772Y23168D01*
X12867Y23065D01*
X12964Y22964D01*
X13065Y22867D01*
X13168Y22772D01*
X13274Y22680D01*
X13383Y22591D01*
X13493Y22505D01*
X13607Y22422D01*
X13722Y22343D01*
X13840Y22266D01*
X13960Y22193D01*
X14081Y22124D01*
X14205Y22058D01*
X14331Y21995D01*
X14458Y21936D01*
X14587Y21881D01*
X14717Y21829D01*
X14849Y21781D01*
X14982Y21736D01*
X15116Y21695D01*
X15251Y21658D01*
X15387Y21625D01*
X15525Y21596D01*
X15662Y21571D01*
X15801Y21549D01*
X15940Y21531D01*
X16080Y21518D01*
X16220Y21508D01*
X16360Y21502D01*
X16500Y21500D01*
D11*
X251000Y19500D02*
X251000Y144500D01*
X36000Y144500D01*
X36000Y19500D01*
X118500Y19500D01*
X168500Y19500D01*
X251000Y19500D01*
X168500Y19500D02*
X168500Y32000D01*
X118500Y32000D01*
X118500Y19500D01*
M02*
