G04 EAGLE Gerber RS-274X export*
G75*
%MOMM*%
%FSLAX34Y34*%
%LPD*%
%INSilkscreen Top*%
%IPPOS*%
%AMOC8*
5,1,8,0,0,1.08239X$1,22.5*%
G01*
%ADD10C,0.127000*%
%ADD11C,0.250000*%
%ADD12C,0.152400*%
%ADD13R,0.300000X0.300000*%
%ADD14C,0.200000*%
%ADD15C,0.101600*%
%ADD16C,0.406400*%
%ADD17C,0.025400*%


D10*
X19367Y160000D02*
X145367Y160000D01*
X145367Y43000D01*
X19367Y43000D01*
X19367Y160000D01*
D11*
X50480Y44576D02*
X50482Y44646D01*
X50488Y44716D01*
X50498Y44785D01*
X50511Y44854D01*
X50529Y44922D01*
X50550Y44989D01*
X50575Y45054D01*
X50604Y45118D01*
X50636Y45181D01*
X50672Y45241D01*
X50711Y45299D01*
X50753Y45355D01*
X50798Y45409D01*
X50846Y45460D01*
X50897Y45508D01*
X50951Y45553D01*
X51007Y45595D01*
X51065Y45634D01*
X51125Y45670D01*
X51188Y45702D01*
X51252Y45731D01*
X51317Y45756D01*
X51384Y45777D01*
X51452Y45795D01*
X51521Y45808D01*
X51590Y45818D01*
X51660Y45824D01*
X51730Y45826D01*
X51800Y45824D01*
X51870Y45818D01*
X51939Y45808D01*
X52008Y45795D01*
X52076Y45777D01*
X52143Y45756D01*
X52208Y45731D01*
X52272Y45702D01*
X52335Y45670D01*
X52395Y45634D01*
X52453Y45595D01*
X52509Y45553D01*
X52563Y45508D01*
X52614Y45460D01*
X52662Y45409D01*
X52707Y45355D01*
X52749Y45299D01*
X52788Y45241D01*
X52824Y45181D01*
X52856Y45118D01*
X52885Y45054D01*
X52910Y44989D01*
X52931Y44922D01*
X52949Y44854D01*
X52962Y44785D01*
X52972Y44716D01*
X52978Y44646D01*
X52980Y44576D01*
X52978Y44506D01*
X52972Y44436D01*
X52962Y44367D01*
X52949Y44298D01*
X52931Y44230D01*
X52910Y44163D01*
X52885Y44098D01*
X52856Y44034D01*
X52824Y43971D01*
X52788Y43911D01*
X52749Y43853D01*
X52707Y43797D01*
X52662Y43743D01*
X52614Y43692D01*
X52563Y43644D01*
X52509Y43599D01*
X52453Y43557D01*
X52395Y43518D01*
X52335Y43482D01*
X52272Y43450D01*
X52208Y43421D01*
X52143Y43396D01*
X52076Y43375D01*
X52008Y43357D01*
X51939Y43344D01*
X51870Y43334D01*
X51800Y43328D01*
X51730Y43326D01*
X51660Y43328D01*
X51590Y43334D01*
X51521Y43344D01*
X51452Y43357D01*
X51384Y43375D01*
X51317Y43396D01*
X51252Y43421D01*
X51188Y43450D01*
X51125Y43482D01*
X51065Y43518D01*
X51007Y43557D01*
X50951Y43599D01*
X50897Y43644D01*
X50846Y43692D01*
X50798Y43743D01*
X50753Y43797D01*
X50711Y43853D01*
X50672Y43911D01*
X50636Y43971D01*
X50604Y44034D01*
X50575Y44098D01*
X50550Y44163D01*
X50529Y44230D01*
X50511Y44298D01*
X50498Y44367D01*
X50488Y44436D01*
X50482Y44506D01*
X50480Y44576D01*
D12*
X50480Y33576D02*
X50480Y17326D01*
X30480Y17326D02*
X30480Y33576D01*
D13*
X20500Y11000D03*
X20500Y17500D03*
X10950Y67750D03*
X212050Y22300D03*
X204550Y24550D03*
D10*
X68200Y39900D02*
X65200Y39900D01*
X92200Y39900D02*
X95200Y39900D01*
X68200Y9900D02*
X65200Y9900D01*
X65200Y36900D02*
X65200Y39900D01*
X65200Y36900D02*
X68200Y39900D01*
X65200Y13000D02*
X65200Y10000D01*
X65200Y9900D02*
X68200Y9900D01*
X92124Y9900D02*
X95124Y9900D01*
X95172Y9976D02*
X95172Y12976D01*
X95200Y36900D02*
X95200Y39900D01*
X92200Y39900D01*
X104000Y40350D02*
X104000Y4350D01*
X104000Y40350D02*
X140000Y40350D01*
X140000Y4350D01*
X104000Y4350D01*
D13*
X58000Y39500D03*
X58000Y31500D03*
X145900Y36900D03*
X60500Y10000D03*
X58000Y17900D03*
D14*
X237500Y32900D02*
X237502Y32963D01*
X237508Y33025D01*
X237518Y33087D01*
X237531Y33149D01*
X237549Y33209D01*
X237570Y33268D01*
X237595Y33326D01*
X237624Y33382D01*
X237656Y33436D01*
X237691Y33488D01*
X237729Y33537D01*
X237771Y33585D01*
X237815Y33629D01*
X237863Y33671D01*
X237912Y33709D01*
X237964Y33744D01*
X238018Y33776D01*
X238074Y33805D01*
X238132Y33830D01*
X238191Y33851D01*
X238251Y33869D01*
X238313Y33882D01*
X238375Y33892D01*
X238437Y33898D01*
X238500Y33900D01*
X238563Y33898D01*
X238625Y33892D01*
X238687Y33882D01*
X238749Y33869D01*
X238809Y33851D01*
X238868Y33830D01*
X238926Y33805D01*
X238982Y33776D01*
X239036Y33744D01*
X239088Y33709D01*
X239137Y33671D01*
X239185Y33629D01*
X239229Y33585D01*
X239271Y33537D01*
X239309Y33488D01*
X239344Y33436D01*
X239376Y33382D01*
X239405Y33326D01*
X239430Y33268D01*
X239451Y33209D01*
X239469Y33149D01*
X239482Y33087D01*
X239492Y33025D01*
X239498Y32963D01*
X239500Y32900D01*
X239498Y32837D01*
X239492Y32775D01*
X239482Y32713D01*
X239469Y32651D01*
X239451Y32591D01*
X239430Y32532D01*
X239405Y32474D01*
X239376Y32418D01*
X239344Y32364D01*
X239309Y32312D01*
X239271Y32263D01*
X239229Y32215D01*
X239185Y32171D01*
X239137Y32129D01*
X239088Y32091D01*
X239036Y32056D01*
X238982Y32024D01*
X238926Y31995D01*
X238868Y31970D01*
X238809Y31949D01*
X238749Y31931D01*
X238687Y31918D01*
X238625Y31908D01*
X238563Y31902D01*
X238500Y31900D01*
X238437Y31902D01*
X238375Y31908D01*
X238313Y31918D01*
X238251Y31931D01*
X238191Y31949D01*
X238132Y31970D01*
X238074Y31995D01*
X238018Y32024D01*
X237964Y32056D01*
X237912Y32091D01*
X237863Y32129D01*
X237815Y32171D01*
X237771Y32215D01*
X237729Y32263D01*
X237691Y32312D01*
X237656Y32364D01*
X237624Y32418D01*
X237595Y32474D01*
X237570Y32532D01*
X237549Y32591D01*
X237531Y32651D01*
X237518Y32713D01*
X237508Y32775D01*
X237502Y32837D01*
X237500Y32900D01*
D12*
X236700Y30700D02*
X232800Y30700D01*
X236700Y30700D02*
X236700Y26800D01*
X226400Y24300D02*
X226400Y20400D01*
X230300Y20400D01*
D10*
X251750Y39750D02*
X251750Y138250D01*
X149250Y138250D02*
X149250Y39750D01*
D14*
X151500Y22000D02*
X151502Y22063D01*
X151508Y22125D01*
X151518Y22187D01*
X151531Y22249D01*
X151549Y22309D01*
X151570Y22368D01*
X151595Y22426D01*
X151624Y22482D01*
X151656Y22536D01*
X151691Y22588D01*
X151729Y22637D01*
X151771Y22685D01*
X151815Y22729D01*
X151863Y22771D01*
X151912Y22809D01*
X151964Y22844D01*
X152018Y22876D01*
X152074Y22905D01*
X152132Y22930D01*
X152191Y22951D01*
X152251Y22969D01*
X152313Y22982D01*
X152375Y22992D01*
X152437Y22998D01*
X152500Y23000D01*
X152563Y22998D01*
X152625Y22992D01*
X152687Y22982D01*
X152749Y22969D01*
X152809Y22951D01*
X152868Y22930D01*
X152926Y22905D01*
X152982Y22876D01*
X153036Y22844D01*
X153088Y22809D01*
X153137Y22771D01*
X153185Y22729D01*
X153229Y22685D01*
X153271Y22637D01*
X153309Y22588D01*
X153344Y22536D01*
X153376Y22482D01*
X153405Y22426D01*
X153430Y22368D01*
X153451Y22309D01*
X153469Y22249D01*
X153482Y22187D01*
X153492Y22125D01*
X153498Y22063D01*
X153500Y22000D01*
X153498Y21937D01*
X153492Y21875D01*
X153482Y21813D01*
X153469Y21751D01*
X153451Y21691D01*
X153430Y21632D01*
X153405Y21574D01*
X153376Y21518D01*
X153344Y21464D01*
X153309Y21412D01*
X153271Y21363D01*
X153229Y21315D01*
X153185Y21271D01*
X153137Y21229D01*
X153088Y21191D01*
X153036Y21156D01*
X152982Y21124D01*
X152926Y21095D01*
X152868Y21070D01*
X152809Y21049D01*
X152749Y21031D01*
X152687Y21018D01*
X152625Y21008D01*
X152563Y21002D01*
X152500Y21000D01*
X152437Y21002D01*
X152375Y21008D01*
X152313Y21018D01*
X152251Y21031D01*
X152191Y21049D01*
X152132Y21070D01*
X152074Y21095D01*
X152018Y21124D01*
X151964Y21156D01*
X151912Y21191D01*
X151863Y21229D01*
X151815Y21271D01*
X151771Y21315D01*
X151729Y21363D01*
X151691Y21412D01*
X151656Y21464D01*
X151624Y21518D01*
X151595Y21574D01*
X151570Y21632D01*
X151549Y21691D01*
X151531Y21751D01*
X151518Y21813D01*
X151508Y21875D01*
X151502Y21937D01*
X151500Y22000D01*
D15*
X140896Y40108D02*
X132458Y40108D01*
X140896Y40108D02*
X141009Y40110D01*
X141122Y40116D01*
X141235Y40126D01*
X141348Y40140D01*
X141460Y40157D01*
X141571Y40179D01*
X141681Y40204D01*
X141791Y40234D01*
X141899Y40267D01*
X142006Y40304D01*
X142112Y40344D01*
X142216Y40389D01*
X142319Y40437D01*
X142420Y40488D01*
X142519Y40543D01*
X142616Y40601D01*
X142711Y40663D01*
X142804Y40728D01*
X142894Y40796D01*
X142982Y40867D01*
X143068Y40942D01*
X143151Y41019D01*
X143231Y41099D01*
X143308Y41182D01*
X143383Y41268D01*
X143454Y41356D01*
X143522Y41446D01*
X143587Y41539D01*
X143649Y41634D01*
X143707Y41731D01*
X143762Y41830D01*
X143813Y41931D01*
X143861Y42034D01*
X143906Y42138D01*
X143946Y42244D01*
X143983Y42351D01*
X144016Y42459D01*
X144046Y42569D01*
X144071Y42679D01*
X144093Y42790D01*
X144110Y42902D01*
X144124Y43015D01*
X144134Y43128D01*
X144140Y43241D01*
X144142Y43354D01*
X144140Y43467D01*
X144134Y43580D01*
X144124Y43693D01*
X144110Y43806D01*
X144093Y43918D01*
X144071Y44029D01*
X144046Y44139D01*
X144016Y44249D01*
X143983Y44357D01*
X143946Y44464D01*
X143906Y44570D01*
X143861Y44674D01*
X143813Y44777D01*
X143762Y44878D01*
X143707Y44977D01*
X143649Y45074D01*
X143587Y45169D01*
X143522Y45262D01*
X143454Y45352D01*
X143383Y45440D01*
X143308Y45526D01*
X143231Y45609D01*
X143151Y45689D01*
X143068Y45766D01*
X142982Y45841D01*
X142894Y45912D01*
X142804Y45980D01*
X142711Y46045D01*
X142616Y46107D01*
X142519Y46165D01*
X142420Y46220D01*
X142319Y46271D01*
X142216Y46319D01*
X142112Y46364D01*
X142006Y46404D01*
X141899Y46441D01*
X141791Y46474D01*
X141681Y46504D01*
X141571Y46529D01*
X141460Y46551D01*
X141348Y46568D01*
X141235Y46582D01*
X141122Y46592D01*
X141009Y46598D01*
X140896Y46600D01*
X140896Y46599D02*
X132458Y46599D01*
X132458Y55489D02*
X132460Y55596D01*
X132466Y55702D01*
X132476Y55808D01*
X132489Y55914D01*
X132507Y56020D01*
X132528Y56124D01*
X132553Y56228D01*
X132582Y56331D01*
X132614Y56432D01*
X132651Y56532D01*
X132691Y56631D01*
X132734Y56729D01*
X132781Y56825D01*
X132832Y56919D01*
X132886Y57011D01*
X132943Y57101D01*
X133003Y57189D01*
X133067Y57274D01*
X133134Y57357D01*
X133204Y57438D01*
X133276Y57516D01*
X133352Y57592D01*
X133430Y57664D01*
X133511Y57734D01*
X133594Y57801D01*
X133679Y57865D01*
X133767Y57925D01*
X133857Y57982D01*
X133949Y58036D01*
X134043Y58087D01*
X134139Y58134D01*
X134237Y58177D01*
X134336Y58217D01*
X134436Y58254D01*
X134537Y58286D01*
X134640Y58315D01*
X134744Y58340D01*
X134848Y58361D01*
X134954Y58379D01*
X135060Y58392D01*
X135166Y58402D01*
X135272Y58408D01*
X135379Y58410D01*
X132458Y55489D02*
X132460Y55368D01*
X132466Y55247D01*
X132476Y55127D01*
X132489Y55006D01*
X132507Y54887D01*
X132528Y54767D01*
X132553Y54649D01*
X132582Y54532D01*
X132615Y54415D01*
X132651Y54300D01*
X132692Y54186D01*
X132735Y54073D01*
X132783Y53961D01*
X132834Y53852D01*
X132889Y53744D01*
X132947Y53637D01*
X133008Y53533D01*
X133073Y53431D01*
X133141Y53331D01*
X133212Y53233D01*
X133286Y53137D01*
X133363Y53044D01*
X133444Y52954D01*
X133527Y52866D01*
X133613Y52781D01*
X133702Y52698D01*
X133793Y52619D01*
X133887Y52542D01*
X133983Y52469D01*
X134081Y52399D01*
X134182Y52332D01*
X134285Y52268D01*
X134390Y52208D01*
X134497Y52150D01*
X134605Y52097D01*
X134715Y52047D01*
X134827Y52001D01*
X134940Y51958D01*
X135055Y51919D01*
X137651Y57436D02*
X137573Y57515D01*
X137493Y57591D01*
X137410Y57664D01*
X137324Y57734D01*
X137237Y57801D01*
X137146Y57865D01*
X137054Y57925D01*
X136960Y57983D01*
X136863Y58037D01*
X136765Y58087D01*
X136665Y58134D01*
X136564Y58178D01*
X136461Y58218D01*
X136356Y58254D01*
X136251Y58286D01*
X136144Y58315D01*
X136037Y58340D01*
X135928Y58362D01*
X135819Y58379D01*
X135710Y58393D01*
X135600Y58402D01*
X135489Y58408D01*
X135379Y58410D01*
X137651Y57436D02*
X144142Y51919D01*
X144142Y58410D01*
D16*
X196195Y25000D02*
X196805Y25000D01*
D17*
X192930Y12612D02*
X192084Y12612D01*
X192029Y12614D01*
X191973Y12619D01*
X191919Y12628D01*
X191865Y12641D01*
X191812Y12657D01*
X191760Y12676D01*
X191709Y12699D01*
X191661Y12725D01*
X191613Y12755D01*
X191568Y12787D01*
X191526Y12822D01*
X191485Y12860D01*
X191447Y12901D01*
X191412Y12943D01*
X191380Y12988D01*
X191350Y13036D01*
X191324Y13084D01*
X191301Y13135D01*
X191282Y13187D01*
X191266Y13240D01*
X191253Y13294D01*
X191244Y13348D01*
X191239Y13404D01*
X191237Y13459D01*
X191237Y15575D01*
X191239Y15633D01*
X191245Y15690D01*
X191255Y15747D01*
X191268Y15804D01*
X191286Y15859D01*
X191307Y15912D01*
X191332Y15965D01*
X191360Y16015D01*
X191392Y16063D01*
X191427Y16110D01*
X191465Y16153D01*
X191506Y16194D01*
X191549Y16232D01*
X191596Y16267D01*
X191644Y16299D01*
X191694Y16327D01*
X191747Y16352D01*
X191800Y16373D01*
X191855Y16391D01*
X191912Y16404D01*
X191969Y16414D01*
X192026Y16420D01*
X192084Y16422D01*
X192930Y16422D01*
X194294Y15575D02*
X195353Y16422D01*
X195353Y12612D01*
X196411Y12612D02*
X194294Y12612D01*
X197952Y15999D02*
X197952Y16422D01*
X200069Y16422D01*
X199010Y12612D01*
D16*
X166805Y25000D02*
X166195Y25000D01*
D17*
X163430Y12612D02*
X162584Y12612D01*
X162529Y12614D01*
X162473Y12619D01*
X162419Y12628D01*
X162365Y12641D01*
X162312Y12657D01*
X162260Y12676D01*
X162209Y12699D01*
X162161Y12725D01*
X162113Y12755D01*
X162068Y12787D01*
X162026Y12822D01*
X161985Y12860D01*
X161947Y12901D01*
X161912Y12943D01*
X161880Y12988D01*
X161850Y13036D01*
X161824Y13084D01*
X161801Y13135D01*
X161782Y13187D01*
X161766Y13240D01*
X161753Y13294D01*
X161744Y13348D01*
X161739Y13404D01*
X161737Y13459D01*
X161737Y15575D01*
X161739Y15633D01*
X161745Y15690D01*
X161755Y15747D01*
X161768Y15804D01*
X161786Y15859D01*
X161807Y15912D01*
X161832Y15965D01*
X161860Y16015D01*
X161892Y16063D01*
X161927Y16110D01*
X161965Y16153D01*
X162006Y16194D01*
X162049Y16232D01*
X162096Y16267D01*
X162144Y16299D01*
X162194Y16327D01*
X162247Y16352D01*
X162300Y16373D01*
X162355Y16391D01*
X162412Y16404D01*
X162469Y16414D01*
X162526Y16420D01*
X162584Y16422D01*
X163430Y16422D01*
X164794Y15575D02*
X165853Y16422D01*
X165853Y12612D01*
X166911Y12612D02*
X164794Y12612D01*
X168452Y13670D02*
X168454Y13734D01*
X168460Y13798D01*
X168469Y13861D01*
X168483Y13923D01*
X168500Y13985D01*
X168521Y14045D01*
X168545Y14104D01*
X168573Y14162D01*
X168605Y14217D01*
X168639Y14271D01*
X168677Y14322D01*
X168718Y14372D01*
X168762Y14418D01*
X168808Y14462D01*
X168858Y14503D01*
X168909Y14541D01*
X168963Y14575D01*
X169018Y14607D01*
X169076Y14635D01*
X169135Y14659D01*
X169195Y14680D01*
X169257Y14697D01*
X169319Y14711D01*
X169382Y14720D01*
X169446Y14726D01*
X169510Y14728D01*
X169574Y14726D01*
X169638Y14720D01*
X169701Y14711D01*
X169763Y14697D01*
X169825Y14680D01*
X169885Y14659D01*
X169944Y14635D01*
X170002Y14607D01*
X170057Y14575D01*
X170111Y14541D01*
X170162Y14503D01*
X170212Y14462D01*
X170258Y14418D01*
X170302Y14372D01*
X170343Y14322D01*
X170381Y14271D01*
X170415Y14217D01*
X170447Y14162D01*
X170475Y14104D01*
X170499Y14045D01*
X170520Y13985D01*
X170537Y13923D01*
X170551Y13861D01*
X170560Y13798D01*
X170566Y13734D01*
X170568Y13670D01*
X170566Y13606D01*
X170560Y13542D01*
X170551Y13479D01*
X170537Y13417D01*
X170520Y13355D01*
X170499Y13295D01*
X170475Y13236D01*
X170447Y13178D01*
X170415Y13123D01*
X170381Y13069D01*
X170343Y13018D01*
X170302Y12968D01*
X170258Y12922D01*
X170212Y12878D01*
X170162Y12837D01*
X170111Y12799D01*
X170057Y12765D01*
X170002Y12733D01*
X169944Y12705D01*
X169885Y12681D01*
X169825Y12660D01*
X169763Y12643D01*
X169701Y12629D01*
X169638Y12620D01*
X169574Y12614D01*
X169510Y12612D01*
X169446Y12614D01*
X169382Y12620D01*
X169319Y12629D01*
X169257Y12643D01*
X169195Y12660D01*
X169135Y12681D01*
X169076Y12705D01*
X169018Y12733D01*
X168963Y12765D01*
X168909Y12799D01*
X168858Y12837D01*
X168808Y12878D01*
X168762Y12922D01*
X168718Y12968D01*
X168677Y13018D01*
X168639Y13069D01*
X168605Y13123D01*
X168573Y13178D01*
X168545Y13236D01*
X168521Y13295D01*
X168500Y13355D01*
X168483Y13417D01*
X168469Y13479D01*
X168460Y13542D01*
X168454Y13606D01*
X168452Y13670D01*
X168663Y15575D02*
X168665Y15632D01*
X168671Y15688D01*
X168680Y15744D01*
X168693Y15799D01*
X168710Y15853D01*
X168730Y15906D01*
X168754Y15957D01*
X168781Y16007D01*
X168812Y16054D01*
X168845Y16100D01*
X168882Y16143D01*
X168921Y16184D01*
X168963Y16222D01*
X169008Y16257D01*
X169054Y16289D01*
X169103Y16318D01*
X169153Y16343D01*
X169206Y16365D01*
X169259Y16384D01*
X169314Y16399D01*
X169369Y16410D01*
X169425Y16418D01*
X169482Y16422D01*
X169538Y16422D01*
X169595Y16418D01*
X169651Y16410D01*
X169706Y16399D01*
X169761Y16384D01*
X169814Y16365D01*
X169867Y16343D01*
X169917Y16318D01*
X169966Y16289D01*
X170012Y16257D01*
X170057Y16222D01*
X170099Y16184D01*
X170138Y16143D01*
X170175Y16100D01*
X170208Y16054D01*
X170239Y16007D01*
X170266Y15957D01*
X170290Y15906D01*
X170310Y15853D01*
X170327Y15799D01*
X170340Y15744D01*
X170349Y15688D01*
X170355Y15632D01*
X170357Y15575D01*
X170355Y15518D01*
X170349Y15462D01*
X170340Y15406D01*
X170327Y15351D01*
X170310Y15297D01*
X170290Y15244D01*
X170266Y15193D01*
X170239Y15143D01*
X170208Y15096D01*
X170175Y15050D01*
X170138Y15007D01*
X170099Y14966D01*
X170057Y14928D01*
X170012Y14893D01*
X169966Y14861D01*
X169917Y14832D01*
X169867Y14807D01*
X169814Y14785D01*
X169761Y14766D01*
X169706Y14751D01*
X169651Y14740D01*
X169595Y14732D01*
X169538Y14728D01*
X169482Y14728D01*
X169425Y14732D01*
X169369Y14740D01*
X169314Y14751D01*
X169259Y14766D01*
X169206Y14785D01*
X169153Y14807D01*
X169103Y14832D01*
X169054Y14861D01*
X169008Y14893D01*
X168963Y14928D01*
X168921Y14966D01*
X168882Y15007D01*
X168845Y15050D01*
X168812Y15096D01*
X168781Y15143D01*
X168754Y15193D01*
X168730Y15244D01*
X168710Y15297D01*
X168693Y15351D01*
X168680Y15406D01*
X168671Y15462D01*
X168665Y15518D01*
X168663Y15575D01*
D10*
X14700Y35000D02*
X10300Y35000D01*
D17*
X8220Y33073D02*
X8220Y30787D01*
X9490Y30787D02*
X8220Y33073D01*
X9490Y33073D02*
X9490Y30787D01*
X10988Y31676D02*
X11559Y31676D01*
X10988Y31677D02*
X10947Y31675D01*
X10906Y31669D01*
X10866Y31660D01*
X10827Y31647D01*
X10790Y31630D01*
X10754Y31610D01*
X10720Y31587D01*
X10688Y31561D01*
X10659Y31532D01*
X10633Y31500D01*
X10610Y31466D01*
X10590Y31430D01*
X10573Y31393D01*
X10560Y31354D01*
X10551Y31314D01*
X10545Y31273D01*
X10543Y31232D01*
X10545Y31191D01*
X10551Y31150D01*
X10560Y31110D01*
X10573Y31071D01*
X10590Y31034D01*
X10610Y30998D01*
X10633Y30964D01*
X10659Y30932D01*
X10688Y30903D01*
X10720Y30877D01*
X10754Y30854D01*
X10790Y30834D01*
X10827Y30817D01*
X10866Y30804D01*
X10906Y30795D01*
X10947Y30789D01*
X10988Y30787D01*
X11559Y30787D01*
X11559Y31930D01*
X11557Y31967D01*
X11552Y32004D01*
X11543Y32041D01*
X11530Y32076D01*
X11514Y32110D01*
X11495Y32142D01*
X11473Y32172D01*
X11447Y32199D01*
X11420Y32225D01*
X11390Y32247D01*
X11358Y32266D01*
X11324Y32282D01*
X11289Y32295D01*
X11252Y32304D01*
X11215Y32309D01*
X11178Y32311D01*
X10670Y32311D01*
X12741Y32311D02*
X12741Y30787D01*
X12741Y32311D02*
X13884Y32311D01*
X13921Y32309D01*
X13958Y32304D01*
X13995Y32295D01*
X14030Y32282D01*
X14064Y32266D01*
X14096Y32247D01*
X14126Y32225D01*
X14153Y32199D01*
X14179Y32172D01*
X14201Y32142D01*
X14220Y32110D01*
X14236Y32076D01*
X14249Y32041D01*
X14258Y32004D01*
X14263Y31967D01*
X14265Y31930D01*
X14265Y30787D01*
X13503Y30787D02*
X13503Y32311D01*
X15738Y30787D02*
X16373Y30787D01*
X15738Y30787D02*
X15701Y30789D01*
X15664Y30794D01*
X15627Y30803D01*
X15592Y30816D01*
X15558Y30832D01*
X15526Y30851D01*
X15496Y30873D01*
X15469Y30899D01*
X15443Y30926D01*
X15421Y30956D01*
X15402Y30988D01*
X15386Y31022D01*
X15373Y31057D01*
X15364Y31094D01*
X15359Y31131D01*
X15357Y31168D01*
X15357Y31803D01*
X15359Y31847D01*
X15365Y31891D01*
X15374Y31934D01*
X15388Y31977D01*
X15405Y32018D01*
X15425Y32057D01*
X15449Y32094D01*
X15476Y32130D01*
X15506Y32162D01*
X15538Y32192D01*
X15574Y32219D01*
X15611Y32243D01*
X15650Y32263D01*
X15691Y32280D01*
X15734Y32294D01*
X15777Y32303D01*
X15821Y32309D01*
X15865Y32311D01*
X15909Y32309D01*
X15953Y32303D01*
X15996Y32294D01*
X16039Y32280D01*
X16080Y32263D01*
X16119Y32243D01*
X16156Y32219D01*
X16192Y32192D01*
X16224Y32162D01*
X16254Y32130D01*
X16281Y32094D01*
X16305Y32057D01*
X16325Y32018D01*
X16342Y31977D01*
X16356Y31934D01*
X16365Y31891D01*
X16371Y31847D01*
X16373Y31803D01*
X16373Y31549D01*
X15357Y31549D01*
D10*
X189600Y32500D02*
X189600Y19400D01*
X174300Y19400D01*
X174300Y32500D01*
X189600Y32500D01*
X173400Y32900D02*
X173402Y32940D01*
X173408Y32979D01*
X173418Y33018D01*
X173431Y33055D01*
X173449Y33091D01*
X173470Y33125D01*
X173494Y33157D01*
X173521Y33186D01*
X173551Y33213D01*
X173583Y33236D01*
X173618Y33256D01*
X173654Y33272D01*
X173692Y33285D01*
X173731Y33294D01*
X173770Y33299D01*
X173810Y33300D01*
X173850Y33297D01*
X173889Y33290D01*
X173927Y33279D01*
X173965Y33265D01*
X174000Y33246D01*
X174033Y33225D01*
X174065Y33200D01*
X174093Y33172D01*
X174119Y33142D01*
X174141Y33109D01*
X174160Y33074D01*
X174176Y33037D01*
X174188Y32999D01*
X174196Y32960D01*
X174200Y32920D01*
X174200Y32880D01*
X174196Y32840D01*
X174188Y32801D01*
X174176Y32763D01*
X174160Y32726D01*
X174141Y32691D01*
X174119Y32658D01*
X174093Y32628D01*
X174065Y32600D01*
X174033Y32575D01*
X174000Y32554D01*
X173965Y32535D01*
X173927Y32521D01*
X173889Y32510D01*
X173850Y32503D01*
X173810Y32500D01*
X173770Y32501D01*
X173731Y32506D01*
X173692Y32515D01*
X173654Y32528D01*
X173618Y32544D01*
X173583Y32564D01*
X173551Y32587D01*
X173521Y32614D01*
X173494Y32643D01*
X173470Y32675D01*
X173449Y32709D01*
X173431Y32745D01*
X173418Y32782D01*
X173408Y32821D01*
X173402Y32860D01*
X173400Y32900D01*
D17*
X179827Y34303D02*
X179827Y36321D01*
X179827Y34303D02*
X179829Y34248D01*
X179835Y34193D01*
X179845Y34138D01*
X179858Y34084D01*
X179876Y34032D01*
X179897Y33981D01*
X179922Y33931D01*
X179950Y33883D01*
X179982Y33838D01*
X180017Y33795D01*
X180054Y33754D01*
X180095Y33717D01*
X180138Y33682D01*
X180183Y33650D01*
X180231Y33622D01*
X180281Y33597D01*
X180332Y33576D01*
X180384Y33558D01*
X180438Y33545D01*
X180493Y33535D01*
X180548Y33529D01*
X180603Y33527D01*
X180658Y33529D01*
X180713Y33535D01*
X180768Y33545D01*
X180822Y33558D01*
X180874Y33576D01*
X180925Y33597D01*
X180975Y33622D01*
X181023Y33650D01*
X181068Y33682D01*
X181111Y33717D01*
X181152Y33754D01*
X181189Y33795D01*
X181224Y33838D01*
X181256Y33883D01*
X181284Y33931D01*
X181309Y33981D01*
X181330Y34032D01*
X181348Y34084D01*
X181361Y34138D01*
X181371Y34193D01*
X181377Y34248D01*
X181379Y34303D01*
X181379Y36321D01*
X182662Y33527D02*
X183593Y33527D01*
X183642Y33529D01*
X183690Y33535D01*
X183738Y33544D01*
X183785Y33557D01*
X183831Y33574D01*
X183875Y33595D01*
X183917Y33619D01*
X183958Y33646D01*
X183996Y33676D01*
X184032Y33709D01*
X184065Y33745D01*
X184095Y33783D01*
X184122Y33824D01*
X184146Y33866D01*
X184167Y33910D01*
X184184Y33956D01*
X184197Y34003D01*
X184206Y34051D01*
X184212Y34099D01*
X184214Y34148D01*
X184214Y34458D01*
X184212Y34507D01*
X184206Y34555D01*
X184197Y34603D01*
X184184Y34650D01*
X184167Y34696D01*
X184146Y34740D01*
X184122Y34782D01*
X184095Y34823D01*
X184065Y34861D01*
X184032Y34897D01*
X183996Y34930D01*
X183958Y34960D01*
X183917Y34987D01*
X183875Y35011D01*
X183831Y35032D01*
X183785Y35049D01*
X183738Y35062D01*
X183690Y35071D01*
X183642Y35077D01*
X183593Y35079D01*
X182662Y35079D01*
X182662Y36321D01*
X184214Y36321D01*
M02*
