G04 EAGLE Gerber RS-274X export*
G75*
%MOMM*%
%FSLAX34Y34*%
%LPD*%
%INSoldermask Top*%
%IPPOS*%
%AMOC8*
5,1,8,0,0,1.08239X$1,22.5*%
G01*
%ADD10R,0.350000X0.250000*%
%ADD11R,0.800000X0.500000*%
%ADD12R,0.500000X0.800000*%
%ADD13R,1.600000X1.600000*%
%ADD14R,0.320000X0.630000*%
%ADD15R,1.560000X1.060000*%
%ADD16C,1.016000*%
%ADD17R,0.280000X0.430000*%
%ADD18R,0.250000X0.350000*%
%ADD19R,0.430000X0.280000*%
%ADD20C,0.180000*%
%ADD21C,0.320000*%
%ADD22R,2.540000X0.750000*%
%ADD23R,1.000000X1.100000*%
%ADD24C,0.280000*%
%ADD25C,1.108000*%
%ADD26C,0.203200*%
%ADD27C,0.958000*%
%ADD28C,0.800000*%
%ADD29R,0.900000X0.500000*%
%ADD30R,0.700000X0.500000*%
%ADD31R,0.240000X0.240000*%
%ADD32R,0.520000X0.520000*%

G36*
X139550Y25981D02*
X139550Y25981D01*
X139601Y25983D01*
X139633Y26001D01*
X139669Y26009D01*
X139708Y26042D01*
X139753Y26066D01*
X139774Y26096D01*
X139802Y26119D01*
X139823Y26166D01*
X139853Y26208D01*
X139861Y26250D01*
X139873Y26278D01*
X139872Y26308D01*
X139880Y26350D01*
X139880Y35850D01*
X139863Y35924D01*
X139861Y35933D01*
X139860Y35957D01*
X139856Y35966D01*
X139850Y35999D01*
X139843Y36009D01*
X139841Y36019D01*
X139817Y36048D01*
X139787Y36092D01*
X139778Y36109D01*
X139773Y36112D01*
X139769Y36119D01*
X135769Y40119D01*
X135704Y40159D01*
X135642Y40203D01*
X135630Y40205D01*
X135622Y40210D01*
X135585Y40214D01*
X135500Y40230D01*
X125500Y40230D01*
X125450Y40219D01*
X125399Y40217D01*
X125367Y40199D01*
X125331Y40191D01*
X125292Y40158D01*
X125247Y40134D01*
X125226Y40104D01*
X125198Y40081D01*
X125177Y40034D01*
X125147Y39992D01*
X125139Y39950D01*
X125127Y39922D01*
X125128Y39892D01*
X125120Y39850D01*
X125120Y31850D01*
X125137Y31776D01*
X125150Y31701D01*
X125157Y31691D01*
X125159Y31681D01*
X125183Y31652D01*
X125231Y31581D01*
X130731Y26081D01*
X130796Y26041D01*
X130858Y25997D01*
X130870Y25995D01*
X130878Y25990D01*
X130915Y25986D01*
X131000Y25970D01*
X139500Y25970D01*
X139550Y25981D01*
G37*
G36*
X118050Y4981D02*
X118050Y4981D01*
X118101Y4983D01*
X118133Y5001D01*
X118169Y5009D01*
X118208Y5042D01*
X118253Y5066D01*
X118274Y5096D01*
X118302Y5119D01*
X118323Y5166D01*
X118353Y5208D01*
X118361Y5250D01*
X118373Y5278D01*
X118372Y5308D01*
X118380Y5350D01*
X118380Y13850D01*
X118363Y13924D01*
X118350Y13999D01*
X118343Y14009D01*
X118341Y14019D01*
X118317Y14048D01*
X118269Y14119D01*
X113269Y19119D01*
X113204Y19159D01*
X113142Y19203D01*
X113130Y19205D01*
X113122Y19210D01*
X113085Y19214D01*
X113000Y19230D01*
X104500Y19230D01*
X104450Y19219D01*
X104399Y19217D01*
X104367Y19199D01*
X104331Y19191D01*
X104292Y19158D01*
X104247Y19134D01*
X104226Y19104D01*
X104198Y19081D01*
X104177Y19034D01*
X104147Y18992D01*
X104139Y18950D01*
X104127Y18922D01*
X104128Y18892D01*
X104120Y18850D01*
X104120Y9350D01*
X104137Y9276D01*
X104150Y9201D01*
X104157Y9191D01*
X104159Y9181D01*
X104183Y9152D01*
X104231Y9081D01*
X108231Y5081D01*
X108296Y5041D01*
X108358Y4997D01*
X108370Y4995D01*
X108378Y4990D01*
X108415Y4986D01*
X108500Y4970D01*
X118000Y4970D01*
X118050Y4981D01*
G37*
G36*
X135574Y4987D02*
X135574Y4987D01*
X135649Y5000D01*
X135659Y5007D01*
X135669Y5009D01*
X135698Y5033D01*
X135769Y5081D01*
X139769Y9081D01*
X139809Y9146D01*
X139853Y9208D01*
X139855Y9220D01*
X139860Y9228D01*
X139864Y9265D01*
X139880Y9350D01*
X139880Y18850D01*
X139869Y18900D01*
X139867Y18951D01*
X139849Y18983D01*
X139841Y19019D01*
X139808Y19058D01*
X139784Y19103D01*
X139754Y19124D01*
X139731Y19152D01*
X139684Y19173D01*
X139642Y19203D01*
X139600Y19211D01*
X139572Y19223D01*
X139542Y19222D01*
X139500Y19230D01*
X131000Y19230D01*
X130926Y19213D01*
X130851Y19200D01*
X130841Y19193D01*
X130831Y19191D01*
X130802Y19167D01*
X130731Y19119D01*
X125731Y14119D01*
X125691Y14054D01*
X125647Y13992D01*
X125645Y13980D01*
X125640Y13972D01*
X125636Y13935D01*
X125620Y13850D01*
X125620Y5350D01*
X125631Y5300D01*
X125633Y5249D01*
X125651Y5217D01*
X125659Y5181D01*
X125692Y5142D01*
X125716Y5097D01*
X125746Y5076D01*
X125769Y5048D01*
X125816Y5027D01*
X125858Y4997D01*
X125900Y4989D01*
X125928Y4977D01*
X125958Y4978D01*
X126000Y4970D01*
X135500Y4970D01*
X135574Y4987D01*
G37*
G36*
X113074Y25987D02*
X113074Y25987D01*
X113149Y26000D01*
X113159Y26007D01*
X113169Y26009D01*
X113198Y26033D01*
X113269Y26081D01*
X117769Y30581D01*
X117809Y30646D01*
X117853Y30708D01*
X117855Y30720D01*
X117860Y30728D01*
X117864Y30765D01*
X117880Y30850D01*
X117880Y39850D01*
X117869Y39900D01*
X117867Y39951D01*
X117849Y39983D01*
X117841Y40019D01*
X117808Y40058D01*
X117784Y40103D01*
X117754Y40124D01*
X117731Y40152D01*
X117684Y40173D01*
X117642Y40203D01*
X117600Y40211D01*
X117572Y40223D01*
X117542Y40222D01*
X117500Y40230D01*
X108500Y40230D01*
X108426Y40213D01*
X108351Y40200D01*
X108341Y40193D01*
X108331Y40191D01*
X108302Y40167D01*
X108231Y40119D01*
X104231Y36119D01*
X104219Y36099D01*
X104204Y36087D01*
X104186Y36047D01*
X104147Y35992D01*
X104145Y35980D01*
X104140Y35972D01*
X104136Y35936D01*
X104133Y35929D01*
X104133Y35920D01*
X104120Y35850D01*
X104120Y26350D01*
X104131Y26300D01*
X104133Y26249D01*
X104151Y26217D01*
X104159Y26181D01*
X104192Y26142D01*
X104216Y26097D01*
X104246Y26076D01*
X104269Y26048D01*
X104316Y26027D01*
X104358Y25997D01*
X104400Y25989D01*
X104428Y25977D01*
X104458Y25978D01*
X104500Y25970D01*
X113000Y25970D01*
X113074Y25987D01*
G37*
G36*
X188005Y28399D02*
X188005Y28399D01*
X188005Y28400D01*
X188005Y31000D01*
X188001Y31005D01*
X188000Y31005D01*
X184100Y31005D01*
X184095Y31001D01*
X184095Y31000D01*
X184095Y29900D01*
X184097Y29898D01*
X184096Y29896D01*
X185596Y28396D01*
X185599Y28396D01*
X185600Y28395D01*
X188000Y28395D01*
X188005Y28399D01*
G37*
G36*
X178402Y28397D02*
X178402Y28397D01*
X178404Y28396D01*
X179904Y29896D01*
X179904Y29899D01*
X179905Y29900D01*
X179905Y31000D01*
X179901Y31005D01*
X179900Y31005D01*
X176000Y31005D01*
X175995Y31001D01*
X175995Y31000D01*
X175995Y28400D01*
X175999Y28395D01*
X176000Y28395D01*
X178400Y28395D01*
X178402Y28397D01*
G37*
G36*
X188005Y20999D02*
X188005Y20999D01*
X188005Y21000D01*
X188005Y23600D01*
X188001Y23605D01*
X188000Y23605D01*
X185600Y23605D01*
X185598Y23603D01*
X185596Y23604D01*
X184096Y22104D01*
X184096Y22101D01*
X184095Y22100D01*
X184095Y21000D01*
X184099Y20995D01*
X184100Y20995D01*
X188000Y20995D01*
X188005Y20999D01*
G37*
G36*
X179905Y20999D02*
X179905Y20999D01*
X179905Y21000D01*
X179905Y22100D01*
X179903Y22102D01*
X179904Y22104D01*
X178404Y23604D01*
X178401Y23604D01*
X178400Y23605D01*
X176000Y23605D01*
X175995Y23601D01*
X175995Y23600D01*
X175995Y21000D01*
X175999Y20995D01*
X176000Y20995D01*
X179900Y20995D01*
X179905Y20999D01*
G37*
D10*
X15974Y118550D03*
X15974Y113550D03*
D11*
X25867Y145500D03*
X25867Y137500D03*
X25867Y129500D03*
X25867Y121500D03*
X25867Y113500D03*
X25867Y105500D03*
X25867Y97500D03*
X25867Y89500D03*
X25867Y81500D03*
X25867Y73500D03*
X25867Y65500D03*
X25867Y57500D03*
D12*
X38367Y49500D03*
X46367Y49500D03*
X54367Y49500D03*
X62367Y49500D03*
X70367Y49500D03*
X78367Y49500D03*
X86367Y49500D03*
X94367Y49500D03*
X102367Y49500D03*
X110367Y49500D03*
X118367Y49500D03*
X126367Y49500D03*
D11*
X138867Y57500D03*
X138867Y65500D03*
X138867Y73500D03*
X138867Y81500D03*
X138867Y89500D03*
X138867Y97500D03*
X138867Y105500D03*
X138867Y113500D03*
X138867Y121500D03*
X138867Y129500D03*
X138867Y137500D03*
X138867Y145500D03*
D12*
X126367Y153500D03*
X118367Y153500D03*
X110367Y153500D03*
X102367Y153500D03*
X94367Y153500D03*
X86367Y153500D03*
X78367Y153500D03*
X70367Y153500D03*
X62367Y153500D03*
X54367Y153500D03*
X46367Y153500D03*
X38367Y153500D03*
D13*
X59367Y124500D03*
X82367Y124500D03*
X105367Y124500D03*
X59367Y101500D03*
X82367Y101500D03*
X105367Y101500D03*
X59367Y78500D03*
X82367Y78500D03*
X105367Y78500D03*
D10*
X8800Y118550D03*
X8800Y113550D03*
D14*
X47980Y38626D03*
X42980Y38626D03*
X37980Y38626D03*
X32980Y38626D03*
X32980Y12026D03*
X37980Y12026D03*
X42980Y12026D03*
X47980Y12026D03*
D15*
X40480Y25326D03*
D16*
X162500Y155500D03*
X163000Y8000D03*
D17*
X23050Y11000D03*
X17950Y11000D03*
X23050Y17500D03*
X17950Y17500D03*
D18*
X8400Y60550D03*
X13400Y60550D03*
D17*
X13500Y67750D03*
X8400Y67750D03*
D18*
X209550Y27750D03*
X214550Y27750D03*
D17*
X214600Y22300D03*
X209500Y22300D03*
D19*
X204550Y22000D03*
X204550Y27100D03*
D20*
X69300Y32900D02*
X64100Y32900D01*
X64100Y28900D02*
X69300Y28900D01*
X69300Y24900D02*
X64100Y24900D01*
X64100Y20900D02*
X69300Y20900D01*
X69300Y16900D02*
X64100Y16900D01*
X72200Y14000D02*
X72200Y8800D01*
X76200Y8800D02*
X76200Y14000D01*
X80200Y14000D02*
X80200Y8800D01*
X84200Y8800D02*
X84200Y14000D01*
X88200Y14000D02*
X88200Y8800D01*
X91100Y16900D02*
X96300Y16900D01*
X96300Y20900D02*
X91100Y20900D01*
X91100Y24900D02*
X96300Y24900D01*
X96300Y28900D02*
X91100Y28900D01*
X91100Y32900D02*
X96300Y32900D01*
X88200Y35800D02*
X88200Y41000D01*
X84200Y41000D02*
X84200Y35800D01*
X80200Y35800D02*
X80200Y41000D01*
X76200Y41000D02*
X76200Y35800D01*
X72200Y35800D02*
X72200Y41000D01*
D21*
X73800Y18500D02*
X86600Y18500D01*
X73800Y18500D02*
X73800Y31300D01*
X86600Y31300D01*
X86600Y18500D01*
X86600Y21540D02*
X73800Y21540D01*
X73800Y24580D02*
X86600Y24580D01*
X86600Y27620D02*
X73800Y27620D01*
X73800Y30660D02*
X86600Y30660D01*
D22*
X122000Y9850D03*
X122000Y35350D03*
D17*
X55450Y39500D03*
X60550Y39500D03*
X55450Y31500D03*
X60550Y31500D03*
X143350Y36900D03*
X148450Y36900D03*
D19*
X60500Y7450D03*
X60500Y12550D03*
D17*
X60550Y17900D03*
X55450Y17900D03*
D18*
X60500Y25600D03*
X55500Y25600D03*
D23*
X149000Y26600D03*
X149000Y9600D03*
D24*
X296600Y51400D02*
X296600Y62600D01*
X296600Y51400D02*
X259400Y51400D01*
X259400Y62600D01*
X296600Y62600D01*
X296600Y54060D02*
X259400Y54060D01*
X259400Y56720D02*
X296600Y56720D01*
X296600Y59380D02*
X259400Y59380D01*
X259400Y62040D02*
X296600Y62040D01*
D25*
X268000Y57000D03*
X288000Y57000D03*
D18*
X23000Y23100D03*
X18000Y23100D03*
D26*
X232890Y27540D02*
X232892Y27590D01*
X232898Y27640D01*
X232908Y27690D01*
X232921Y27738D01*
X232938Y27786D01*
X232959Y27832D01*
X232983Y27876D01*
X233011Y27918D01*
X233042Y27958D01*
X233076Y27995D01*
X233113Y28030D01*
X233152Y28061D01*
X233193Y28090D01*
X233237Y28115D01*
X233283Y28137D01*
X233330Y28155D01*
X233378Y28169D01*
X233427Y28180D01*
X233477Y28187D01*
X233527Y28190D01*
X233578Y28189D01*
X233628Y28184D01*
X233678Y28175D01*
X233726Y28163D01*
X233774Y28146D01*
X233820Y28126D01*
X233865Y28103D01*
X233908Y28076D01*
X233948Y28046D01*
X233986Y28013D01*
X234021Y27977D01*
X234054Y27938D01*
X234083Y27897D01*
X234109Y27854D01*
X234132Y27809D01*
X234151Y27762D01*
X234166Y27714D01*
X234178Y27665D01*
X234186Y27615D01*
X234190Y27565D01*
X234190Y27515D01*
X234186Y27465D01*
X234178Y27415D01*
X234166Y27366D01*
X234151Y27318D01*
X234132Y27271D01*
X234109Y27226D01*
X234083Y27183D01*
X234054Y27142D01*
X234021Y27103D01*
X233986Y27067D01*
X233948Y27034D01*
X233908Y27004D01*
X233865Y26977D01*
X233820Y26954D01*
X233774Y26934D01*
X233726Y26917D01*
X233678Y26905D01*
X233628Y26896D01*
X233578Y26891D01*
X233527Y26890D01*
X233477Y26893D01*
X233427Y26900D01*
X233378Y26911D01*
X233330Y26925D01*
X233283Y26943D01*
X233237Y26965D01*
X233193Y26990D01*
X233152Y27019D01*
X233113Y27050D01*
X233076Y27085D01*
X233042Y27122D01*
X233011Y27162D01*
X232983Y27204D01*
X232959Y27248D01*
X232938Y27294D01*
X232921Y27342D01*
X232908Y27390D01*
X232898Y27440D01*
X232892Y27490D01*
X232890Y27540D01*
X232890Y23560D02*
X232892Y23610D01*
X232898Y23660D01*
X232908Y23710D01*
X232921Y23758D01*
X232938Y23806D01*
X232959Y23852D01*
X232983Y23896D01*
X233011Y23938D01*
X233042Y23978D01*
X233076Y24015D01*
X233113Y24050D01*
X233152Y24081D01*
X233193Y24110D01*
X233237Y24135D01*
X233283Y24157D01*
X233330Y24175D01*
X233378Y24189D01*
X233427Y24200D01*
X233477Y24207D01*
X233527Y24210D01*
X233578Y24209D01*
X233628Y24204D01*
X233678Y24195D01*
X233726Y24183D01*
X233774Y24166D01*
X233820Y24146D01*
X233865Y24123D01*
X233908Y24096D01*
X233948Y24066D01*
X233986Y24033D01*
X234021Y23997D01*
X234054Y23958D01*
X234083Y23917D01*
X234109Y23874D01*
X234132Y23829D01*
X234151Y23782D01*
X234166Y23734D01*
X234178Y23685D01*
X234186Y23635D01*
X234190Y23585D01*
X234190Y23535D01*
X234186Y23485D01*
X234178Y23435D01*
X234166Y23386D01*
X234151Y23338D01*
X234132Y23291D01*
X234109Y23246D01*
X234083Y23203D01*
X234054Y23162D01*
X234021Y23123D01*
X233986Y23087D01*
X233948Y23054D01*
X233908Y23024D01*
X233865Y22997D01*
X233820Y22974D01*
X233774Y22954D01*
X233726Y22937D01*
X233678Y22925D01*
X233628Y22916D01*
X233578Y22911D01*
X233527Y22910D01*
X233477Y22913D01*
X233427Y22920D01*
X233378Y22931D01*
X233330Y22945D01*
X233283Y22963D01*
X233237Y22985D01*
X233193Y23010D01*
X233152Y23039D01*
X233113Y23070D01*
X233076Y23105D01*
X233042Y23142D01*
X233011Y23182D01*
X232983Y23224D01*
X232959Y23268D01*
X232938Y23314D01*
X232921Y23362D01*
X232908Y23410D01*
X232898Y23460D01*
X232892Y23510D01*
X232890Y23560D01*
X228910Y27540D02*
X228912Y27590D01*
X228918Y27640D01*
X228928Y27690D01*
X228941Y27738D01*
X228958Y27786D01*
X228979Y27832D01*
X229003Y27876D01*
X229031Y27918D01*
X229062Y27958D01*
X229096Y27995D01*
X229133Y28030D01*
X229172Y28061D01*
X229213Y28090D01*
X229257Y28115D01*
X229303Y28137D01*
X229350Y28155D01*
X229398Y28169D01*
X229447Y28180D01*
X229497Y28187D01*
X229547Y28190D01*
X229598Y28189D01*
X229648Y28184D01*
X229698Y28175D01*
X229746Y28163D01*
X229794Y28146D01*
X229840Y28126D01*
X229885Y28103D01*
X229928Y28076D01*
X229968Y28046D01*
X230006Y28013D01*
X230041Y27977D01*
X230074Y27938D01*
X230103Y27897D01*
X230129Y27854D01*
X230152Y27809D01*
X230171Y27762D01*
X230186Y27714D01*
X230198Y27665D01*
X230206Y27615D01*
X230210Y27565D01*
X230210Y27515D01*
X230206Y27465D01*
X230198Y27415D01*
X230186Y27366D01*
X230171Y27318D01*
X230152Y27271D01*
X230129Y27226D01*
X230103Y27183D01*
X230074Y27142D01*
X230041Y27103D01*
X230006Y27067D01*
X229968Y27034D01*
X229928Y27004D01*
X229885Y26977D01*
X229840Y26954D01*
X229794Y26934D01*
X229746Y26917D01*
X229698Y26905D01*
X229648Y26896D01*
X229598Y26891D01*
X229547Y26890D01*
X229497Y26893D01*
X229447Y26900D01*
X229398Y26911D01*
X229350Y26925D01*
X229303Y26943D01*
X229257Y26965D01*
X229213Y26990D01*
X229172Y27019D01*
X229133Y27050D01*
X229096Y27085D01*
X229062Y27122D01*
X229031Y27162D01*
X229003Y27204D01*
X228979Y27248D01*
X228958Y27294D01*
X228941Y27342D01*
X228928Y27390D01*
X228918Y27440D01*
X228912Y27490D01*
X228910Y27540D01*
X228910Y23560D02*
X228912Y23610D01*
X228918Y23660D01*
X228928Y23710D01*
X228941Y23758D01*
X228958Y23806D01*
X228979Y23852D01*
X229003Y23896D01*
X229031Y23938D01*
X229062Y23978D01*
X229096Y24015D01*
X229133Y24050D01*
X229172Y24081D01*
X229213Y24110D01*
X229257Y24135D01*
X229303Y24157D01*
X229350Y24175D01*
X229398Y24189D01*
X229447Y24200D01*
X229497Y24207D01*
X229547Y24210D01*
X229598Y24209D01*
X229648Y24204D01*
X229698Y24195D01*
X229746Y24183D01*
X229794Y24166D01*
X229840Y24146D01*
X229885Y24123D01*
X229928Y24096D01*
X229968Y24066D01*
X230006Y24033D01*
X230041Y23997D01*
X230074Y23958D01*
X230103Y23917D01*
X230129Y23874D01*
X230152Y23829D01*
X230171Y23782D01*
X230186Y23734D01*
X230198Y23685D01*
X230206Y23635D01*
X230210Y23585D01*
X230210Y23535D01*
X230206Y23485D01*
X230198Y23435D01*
X230186Y23386D01*
X230171Y23338D01*
X230152Y23291D01*
X230129Y23246D01*
X230103Y23203D01*
X230074Y23162D01*
X230041Y23123D01*
X230006Y23087D01*
X229968Y23054D01*
X229928Y23024D01*
X229885Y22997D01*
X229840Y22974D01*
X229794Y22954D01*
X229746Y22937D01*
X229698Y22925D01*
X229648Y22916D01*
X229598Y22911D01*
X229547Y22910D01*
X229497Y22913D01*
X229447Y22920D01*
X229398Y22931D01*
X229350Y22945D01*
X229303Y22963D01*
X229257Y22985D01*
X229213Y23010D01*
X229172Y23039D01*
X229133Y23070D01*
X229096Y23105D01*
X229062Y23142D01*
X229031Y23182D01*
X229003Y23224D01*
X228979Y23268D01*
X228958Y23314D01*
X228941Y23362D01*
X228928Y23410D01*
X228918Y23460D01*
X228912Y23510D01*
X228910Y23560D01*
D10*
X238500Y23000D03*
X238500Y28000D03*
D27*
X22000Y32000D03*
X12500Y83000D03*
D28*
X156500Y42500D02*
X156500Y38500D01*
X167500Y38500D02*
X167500Y42500D01*
X178500Y42500D02*
X178500Y38500D01*
X189500Y38500D02*
X189500Y42500D01*
X200500Y42500D02*
X200500Y38500D01*
X211500Y38500D02*
X211500Y42500D01*
X222500Y42500D02*
X222500Y38500D01*
X233500Y38500D02*
X233500Y42500D01*
X244500Y42500D02*
X244500Y38500D01*
X244500Y135500D02*
X244500Y139500D01*
X233500Y139500D02*
X233500Y135500D01*
X222500Y135500D02*
X222500Y139500D01*
X211500Y139500D02*
X211500Y135500D01*
X200500Y135500D02*
X200500Y139500D01*
X189500Y139500D02*
X189500Y135500D01*
X178500Y135500D02*
X178500Y139500D01*
X167500Y139500D02*
X167500Y135500D01*
X156500Y135500D02*
X156500Y139500D01*
D24*
X259400Y112600D02*
X259400Y101400D01*
X259400Y112600D02*
X296600Y112600D01*
X296600Y101400D01*
X259400Y101400D01*
X259400Y104060D02*
X296600Y104060D01*
X296600Y106720D02*
X259400Y106720D01*
X259400Y109380D02*
X296600Y109380D01*
X296600Y112040D02*
X259400Y112040D01*
D25*
X288000Y107000D03*
X268000Y107000D03*
D16*
X-1000Y121300D03*
X-1000Y108600D03*
X-1000Y95900D03*
X-1000Y83200D03*
X-1000Y70500D03*
X-1000Y134000D03*
X-1000Y57400D03*
X-1000Y44700D03*
X-1000Y32000D03*
D29*
X196500Y30500D03*
X196500Y19500D03*
X166500Y30500D03*
X166500Y19500D03*
D30*
X12500Y39250D03*
X12500Y46750D03*
D31*
X177200Y29700D03*
X177200Y22300D03*
X186800Y22300D03*
X186800Y29700D03*
D32*
G36*
X182000Y22324D02*
X178324Y26000D01*
X182000Y29676D01*
X185676Y26000D01*
X182000Y22324D01*
G37*
M02*
