G04 EAGLE Gerber RS-274X export*
G75*
%MOMM*%
%FSLAX34Y34*%
%LPD*%
%INSolderpaste Top*%
%IPPOS*%
%AMOC8*
5,1,8,0,0,1.08239X$1,22.5*%
G01*
%ADD10R,0.300000X0.200000*%
%ADD11R,0.700000X0.400000*%
%ADD12R,0.400000X0.700000*%
%ADD13R,1.280000X1.280000*%
%ADD14R,0.256000X0.566000*%
%ADD15R,0.325000X0.325000*%
%ADD16R,0.224000X0.374000*%
%ADD17R,0.200000X0.300000*%
%ADD18R,0.374000X0.224000*%
%ADD19C,0.144000*%
%ADD20R,0.508000X0.482600*%
%ADD21R,2.390000X0.600000*%
%ADD22R,0.800000X0.900000*%
%ADD23R,3.720000X1.120000*%
%ADD24R,0.250000X0.250000*%
%ADD25R,0.800000X0.400000*%
%ADD26R,0.600000X0.400000*%
%ADD27R,0.192000X0.192000*%
%ADD28R,0.416000X0.416000*%

G36*
X118550Y5981D02*
X118550Y5981D01*
X118601Y5983D01*
X118633Y6001D01*
X118669Y6009D01*
X118708Y6042D01*
X118753Y6066D01*
X118774Y6096D01*
X118802Y6119D01*
X118823Y6166D01*
X118853Y6208D01*
X118861Y6250D01*
X118873Y6278D01*
X118872Y6308D01*
X118880Y6350D01*
X118880Y11850D01*
X118863Y11924D01*
X118850Y11999D01*
X118843Y12009D01*
X118841Y12019D01*
X118817Y12048D01*
X118769Y12119D01*
X112769Y18119D01*
X112704Y18159D01*
X112642Y18203D01*
X112630Y18205D01*
X112622Y18210D01*
X112585Y18214D01*
X112500Y18230D01*
X105500Y18230D01*
X105450Y18219D01*
X105399Y18217D01*
X105367Y18199D01*
X105331Y18191D01*
X105292Y18158D01*
X105247Y18134D01*
X105226Y18104D01*
X105198Y18081D01*
X105177Y18034D01*
X105147Y17992D01*
X105139Y17950D01*
X105127Y17922D01*
X105128Y17892D01*
X105120Y17850D01*
X105120Y10350D01*
X105137Y10276D01*
X105150Y10201D01*
X105157Y10191D01*
X105159Y10181D01*
X105183Y10152D01*
X105231Y10081D01*
X109231Y6081D01*
X109296Y6041D01*
X109358Y5997D01*
X109370Y5995D01*
X109378Y5990D01*
X109415Y5986D01*
X109500Y5970D01*
X118500Y5970D01*
X118550Y5981D01*
G37*
G36*
X112574Y26987D02*
X112574Y26987D01*
X112649Y27000D01*
X112659Y27007D01*
X112669Y27009D01*
X112698Y27033D01*
X112769Y27081D01*
X117769Y32081D01*
X117809Y32146D01*
X117853Y32208D01*
X117855Y32220D01*
X117860Y32228D01*
X117864Y32265D01*
X117880Y32350D01*
X117880Y38850D01*
X117869Y38900D01*
X117867Y38951D01*
X117849Y38983D01*
X117841Y39019D01*
X117808Y39058D01*
X117784Y39103D01*
X117754Y39124D01*
X117731Y39152D01*
X117684Y39173D01*
X117642Y39203D01*
X117600Y39211D01*
X117572Y39223D01*
X117542Y39222D01*
X117500Y39230D01*
X109500Y39230D01*
X109426Y39213D01*
X109351Y39200D01*
X109341Y39193D01*
X109331Y39191D01*
X109302Y39167D01*
X109231Y39119D01*
X105231Y35119D01*
X105191Y35054D01*
X105147Y34992D01*
X105145Y34980D01*
X105140Y34972D01*
X105136Y34935D01*
X105120Y34850D01*
X105120Y27350D01*
X105131Y27300D01*
X105133Y27249D01*
X105151Y27217D01*
X105159Y27181D01*
X105192Y27142D01*
X105216Y27097D01*
X105246Y27076D01*
X105269Y27048D01*
X105316Y27027D01*
X105358Y26997D01*
X105400Y26989D01*
X105428Y26977D01*
X105458Y26978D01*
X105500Y26970D01*
X112500Y26970D01*
X112574Y26987D01*
G37*
G36*
X138550Y26981D02*
X138550Y26981D01*
X138601Y26983D01*
X138633Y27001D01*
X138669Y27009D01*
X138708Y27042D01*
X138753Y27066D01*
X138774Y27096D01*
X138802Y27119D01*
X138823Y27166D01*
X138853Y27208D01*
X138861Y27250D01*
X138873Y27278D01*
X138872Y27308D01*
X138880Y27350D01*
X138880Y34850D01*
X138863Y34924D01*
X138850Y34999D01*
X138843Y35009D01*
X138841Y35019D01*
X138817Y35048D01*
X138769Y35119D01*
X134769Y39119D01*
X134704Y39159D01*
X134642Y39203D01*
X134630Y39205D01*
X134622Y39210D01*
X134585Y39214D01*
X134500Y39230D01*
X126500Y39230D01*
X126450Y39219D01*
X126399Y39217D01*
X126367Y39199D01*
X126331Y39191D01*
X126292Y39158D01*
X126247Y39134D01*
X126226Y39104D01*
X126198Y39081D01*
X126177Y39034D01*
X126147Y38992D01*
X126139Y38950D01*
X126127Y38922D01*
X126128Y38892D01*
X126120Y38850D01*
X126120Y32350D01*
X126137Y32276D01*
X126150Y32201D01*
X126157Y32191D01*
X126159Y32181D01*
X126183Y32152D01*
X126231Y32081D01*
X131231Y27081D01*
X131296Y27041D01*
X131358Y26997D01*
X131370Y26995D01*
X131378Y26990D01*
X131415Y26986D01*
X131500Y26970D01*
X138500Y26970D01*
X138550Y26981D01*
G37*
G36*
X134574Y5987D02*
X134574Y5987D01*
X134649Y6000D01*
X134659Y6007D01*
X134669Y6009D01*
X134698Y6033D01*
X134769Y6081D01*
X138769Y10081D01*
X138809Y10146D01*
X138853Y10208D01*
X138855Y10220D01*
X138860Y10228D01*
X138864Y10265D01*
X138880Y10350D01*
X138880Y17850D01*
X138869Y17900D01*
X138867Y17951D01*
X138849Y17983D01*
X138841Y18019D01*
X138808Y18058D01*
X138784Y18103D01*
X138754Y18124D01*
X138731Y18152D01*
X138684Y18173D01*
X138642Y18203D01*
X138600Y18211D01*
X138572Y18223D01*
X138542Y18222D01*
X138500Y18230D01*
X131500Y18230D01*
X131426Y18213D01*
X131351Y18200D01*
X131341Y18193D01*
X131331Y18191D01*
X131302Y18167D01*
X131231Y18119D01*
X126731Y13619D01*
X126691Y13554D01*
X126647Y13492D01*
X126645Y13480D01*
X126640Y13472D01*
X126636Y13435D01*
X126620Y13350D01*
X126620Y6350D01*
X126631Y6300D01*
X126633Y6249D01*
X126651Y6217D01*
X126659Y6181D01*
X126692Y6142D01*
X126716Y6097D01*
X126746Y6076D01*
X126769Y6048D01*
X126816Y6027D01*
X126858Y5997D01*
X126900Y5989D01*
X126928Y5977D01*
X126958Y5978D01*
X127000Y5970D01*
X134500Y5970D01*
X134574Y5987D01*
G37*
G36*
X188005Y28399D02*
X188005Y28399D01*
X188005Y28400D01*
X188005Y31000D01*
X188001Y31005D01*
X188000Y31005D01*
X184100Y31005D01*
X184095Y31001D01*
X184095Y31000D01*
X184095Y29900D01*
X184097Y29898D01*
X184096Y29896D01*
X185596Y28396D01*
X185599Y28396D01*
X185600Y28395D01*
X188000Y28395D01*
X188005Y28399D01*
G37*
G36*
X178402Y28397D02*
X178402Y28397D01*
X178404Y28396D01*
X179904Y29896D01*
X179904Y29899D01*
X179905Y29900D01*
X179905Y31000D01*
X179901Y31005D01*
X179900Y31005D01*
X176000Y31005D01*
X175995Y31001D01*
X175995Y31000D01*
X175995Y28400D01*
X175999Y28395D01*
X176000Y28395D01*
X178400Y28395D01*
X178402Y28397D01*
G37*
G36*
X188005Y20999D02*
X188005Y20999D01*
X188005Y21000D01*
X188005Y23600D01*
X188001Y23605D01*
X188000Y23605D01*
X185600Y23605D01*
X185598Y23603D01*
X185596Y23604D01*
X184096Y22104D01*
X184096Y22101D01*
X184095Y22100D01*
X184095Y21000D01*
X184099Y20995D01*
X184100Y20995D01*
X188000Y20995D01*
X188005Y20999D01*
G37*
G36*
X179905Y20999D02*
X179905Y20999D01*
X179905Y21000D01*
X179905Y22100D01*
X179903Y22102D01*
X179904Y22104D01*
X178404Y23604D01*
X178401Y23604D01*
X178400Y23605D01*
X176000Y23605D01*
X175995Y23601D01*
X175995Y23600D01*
X175995Y21000D01*
X175999Y20995D01*
X176000Y20995D01*
X179900Y20995D01*
X179905Y20999D01*
G37*
D10*
X15974Y118550D03*
X15974Y113550D03*
D11*
X25867Y145500D03*
X25867Y137500D03*
X25867Y129500D03*
X25867Y121500D03*
X25867Y113500D03*
X25867Y105500D03*
X25867Y97500D03*
X25867Y89500D03*
X25867Y81500D03*
X25867Y73500D03*
X25867Y65500D03*
X25867Y57500D03*
D12*
X38367Y49500D03*
X46367Y49500D03*
X54367Y49500D03*
X62367Y49500D03*
X70367Y49500D03*
X78367Y49500D03*
X86367Y49500D03*
X94367Y49500D03*
X102367Y49500D03*
X110367Y49500D03*
X118367Y49500D03*
X126367Y49500D03*
D11*
X138867Y57500D03*
X138867Y65500D03*
X138867Y73500D03*
X138867Y81500D03*
X138867Y89500D03*
X138867Y97500D03*
X138867Y105500D03*
X138867Y113500D03*
X138867Y121500D03*
X138867Y129500D03*
X138867Y137500D03*
X138867Y145500D03*
D12*
X126367Y153500D03*
X118367Y153500D03*
X110367Y153500D03*
X102367Y153500D03*
X94367Y153500D03*
X86367Y153500D03*
X78367Y153500D03*
X70367Y153500D03*
X62367Y153500D03*
X54367Y153500D03*
X46367Y153500D03*
X38367Y153500D03*
D13*
X59367Y124500D03*
X82367Y124500D03*
X105367Y124500D03*
X59367Y101500D03*
X82367Y101500D03*
X105367Y101500D03*
X59367Y78500D03*
X82367Y78500D03*
X105367Y78500D03*
D10*
X8800Y118550D03*
X8800Y113550D03*
D14*
X47980Y38626D03*
X42980Y38626D03*
X37980Y38626D03*
X32980Y38626D03*
X32980Y12026D03*
X37980Y12026D03*
X42980Y12026D03*
X47980Y12026D03*
D15*
X45355Y23201D03*
X45355Y27451D03*
X35355Y27451D03*
X35355Y23201D03*
X40355Y27451D03*
X40355Y23201D03*
D16*
X23050Y11000D03*
X17950Y11000D03*
X23050Y17500D03*
X17950Y17500D03*
D17*
X8400Y60550D03*
X13400Y60550D03*
D16*
X13500Y67750D03*
X8400Y67750D03*
D17*
X209550Y27750D03*
X214550Y27750D03*
D16*
X214600Y22300D03*
X209500Y22300D03*
D18*
X204550Y22000D03*
X204550Y27100D03*
D19*
X69300Y32900D02*
X64100Y32900D01*
X64100Y28900D02*
X69300Y28900D01*
X69300Y24900D02*
X64100Y24900D01*
X64100Y20900D02*
X69300Y20900D01*
X69300Y16900D02*
X64100Y16900D01*
X72200Y14000D02*
X72200Y8800D01*
X76200Y8800D02*
X76200Y14000D01*
X80200Y14000D02*
X80200Y8800D01*
X84200Y8800D02*
X84200Y14000D01*
X88200Y14000D02*
X88200Y8800D01*
X91100Y16900D02*
X96300Y16900D01*
X96300Y20900D02*
X91100Y20900D01*
X91100Y24900D02*
X96300Y24900D01*
X96300Y28900D02*
X91100Y28900D01*
X91100Y32900D02*
X96300Y32900D01*
X88200Y35800D02*
X88200Y41000D01*
X84200Y41000D02*
X84200Y35800D01*
X80200Y35800D02*
X80200Y41000D01*
X76200Y41000D02*
X76200Y35800D01*
X72200Y35800D02*
X72200Y41000D01*
D20*
X76898Y28329D03*
X83502Y28329D03*
X76898Y21471D03*
X83502Y21471D03*
D21*
X122000Y9850D03*
X122000Y35350D03*
D16*
X55450Y39500D03*
X60550Y39500D03*
X55450Y31500D03*
X60550Y31500D03*
X143350Y36900D03*
X148450Y36900D03*
D18*
X60500Y7450D03*
X60500Y12550D03*
D16*
X60550Y17900D03*
X55450Y17900D03*
D17*
X60500Y25600D03*
X55500Y25600D03*
D22*
X149000Y26600D03*
X149000Y9600D03*
D23*
X278000Y57000D03*
D17*
X23000Y23100D03*
X18000Y23100D03*
D24*
X233550Y27550D03*
X233550Y23550D03*
X229550Y23550D03*
X229550Y27550D03*
D10*
X238500Y23000D03*
X238500Y28000D03*
D23*
X278000Y107000D03*
D25*
X196500Y30500D03*
X196500Y19500D03*
X166500Y30500D03*
X166500Y19500D03*
D26*
X12500Y39250D03*
X12500Y46750D03*
D27*
X177200Y29700D03*
X177200Y22300D03*
X186800Y22300D03*
X186800Y29700D03*
D28*
G36*
X182000Y23059D02*
X179059Y26000D01*
X182000Y28941D01*
X184941Y26000D01*
X182000Y23059D01*
G37*
M02*
