G04 EAGLE Gerber RS-274X export*
G75*
%MOMM*%
%FSLAX34Y34*%
%LPD*%
%INCopper Layer 15*%
%IPPOS*%
%AMOC8*
5,1,8,0,0,1.08239X$1,22.5*%
G01*
G04 Define Apertures*
%ADD10C,0.708000*%
%ADD11C,0.958000*%
%ADD12C,1.016000*%
%ADD13C,0.302400*%
%ADD14C,0.304800*%
%ADD15C,0.254000*%
D10*
X214500Y52100D03*
X234500Y52100D03*
D11*
X14700Y25800D03*
D10*
X234500Y79600D03*
X214500Y79600D03*
D12*
X10000Y7000D03*
X40500Y7000D03*
D13*
X217200Y133650D03*
X186700Y18000D03*
X175650Y32900D03*
X209650Y108500D03*
X229350Y103462D03*
X112087Y112187D03*
X224850Y128500D03*
X182700Y18000D03*
X175650Y27900D03*
X213900Y106000D03*
X229550Y109800D03*
X104765Y111035D03*
X161200Y127794D03*
X66100Y36700D03*
X154735Y123535D03*
X74100Y36700D03*
X78000Y120000D03*
X27000Y101548D03*
X70000Y120000D03*
X27000Y111000D03*
X190700Y26000D03*
X156150Y22900D03*
D14*
X184121Y26000D02*
X190700Y26000D01*
X184121Y26000D02*
X177223Y19102D01*
X164798Y19102D01*
X161000Y22900D01*
X156150Y22900D01*
D13*
X136200Y114400D03*
D14*
X51036Y17536D02*
X40500Y7000D01*
X155447Y22900D02*
X156150Y22900D01*
X155447Y22900D02*
X150083Y17536D01*
X51036Y17536D01*
X118900Y133100D02*
X205100Y133100D01*
X209550Y128650D01*
X209550Y128500D01*
D13*
X209550Y128500D03*
D14*
X118900Y133100D02*
X98300Y112500D01*
X114100Y26000D02*
X142000Y26000D01*
X114100Y26000D02*
X103100Y37000D01*
X103100Y89300D01*
X103100Y102700D01*
X98300Y107500D01*
X98300Y112500D01*
D13*
X103100Y89300D03*
X27100Y89400D03*
X171800Y40500D03*
D14*
X156500Y40500D01*
X142000Y26000D01*
D13*
X56500Y115000D03*
X149400Y102300D03*
X224200Y97900D03*
X115567Y101900D03*
X224524Y92438D03*
X144500Y36000D03*
X136200Y127400D03*
D14*
X142300Y36000D02*
X144500Y36000D01*
X142300Y36000D02*
X136800Y30500D01*
X117518Y30500D02*
X108318Y39700D01*
X117518Y30500D02*
X136800Y30500D01*
X136200Y127400D02*
X133401Y127400D01*
X108318Y102317D01*
X108318Y39700D01*
D13*
X95800Y129800D03*
X167600Y127894D03*
X194700Y22000D03*
D15*
X89600Y25800D02*
X14700Y25800D01*
X89600Y25800D02*
X93800Y21600D01*
X148400Y21600D01*
X194700Y22000D02*
X194700Y28400D01*
X163244Y36444D02*
X148400Y21600D01*
X163244Y36444D02*
X186656Y36444D01*
X194700Y28400D01*
D13*
X190100Y65400D03*
X146300Y64700D03*
X139700Y60800D03*
X132500Y53800D03*
X151700Y48900D03*
X180300Y50500D03*
X211900Y63660D03*
X224274Y63660D03*
X236000Y63660D03*
X201386Y62114D03*
X190700Y22000D03*
X175650Y22900D03*
X145400Y43500D03*
X133500Y34600D03*
X189200Y47900D03*
X166000Y50500D03*
X201486Y42114D03*
X115086Y42414D03*
X114886Y62614D03*
X114686Y80714D03*
X151686Y79714D03*
X166686Y79714D03*
X182686Y79714D03*
X235686Y40714D03*
X223686Y40714D03*
X211686Y40714D03*
X235900Y92660D03*
X235900Y101660D03*
X232900Y134660D03*
X182900Y124660D03*
X228686Y6714D03*
X202686Y6714D03*
X174686Y6714D03*
X56686Y37714D03*
X30686Y37714D03*
X30686Y67714D03*
X86686Y119714D03*
X63686Y6714D03*
X92686Y6714D03*
M02*
