G04 EAGLE Gerber RS-274X export*
G75*
%MOMM*%
%FSLAX34Y34*%
%LPD*%
%INCopper Layer 2*%
%IPPOS*%
%AMOC8*
5,1,8,0,0,1.08239X$1,22.5*%
G01*
G04 Define Apertures*
%ADD10C,0.708000*%
%ADD11C,0.958000*%
%ADD12C,1.016000*%
%ADD13C,0.302400*%
%ADD14C,0.254000*%
%ADD15C,0.304800*%
D10*
X214500Y52100D03*
X234500Y52100D03*
D11*
X14700Y25800D03*
D10*
X234500Y79600D03*
X214500Y79600D03*
D12*
X10000Y7000D03*
X40500Y7000D03*
D13*
X217200Y133650D03*
X186700Y18000D03*
X175650Y32900D03*
D14*
X186700Y24900D02*
X186700Y18000D01*
X186700Y24900D02*
X178700Y32900D01*
D13*
X209650Y108500D03*
D14*
X110088Y28400D02*
X96310Y42178D01*
X96310Y96410D01*
X112087Y112187D01*
X210090Y104422D02*
X212322Y102190D01*
X215478Y102190D01*
X216688Y103400D01*
X229288Y103400D01*
X210090Y108060D02*
X209650Y108500D01*
X210090Y108060D02*
X210090Y104422D01*
X229288Y103400D02*
X229350Y103462D01*
D13*
X229350Y103462D03*
D14*
X233360Y108222D02*
X233360Y125378D01*
X226428Y132310D01*
X218540Y132310D01*
X217200Y133650D01*
X229350Y104212D02*
X229350Y103462D01*
X229350Y104212D02*
X233360Y108222D01*
X209650Y108500D02*
X203188Y108500D01*
X201378Y106690D02*
X122822Y106690D01*
X117325Y112187D01*
X201378Y106690D02*
X203188Y108500D01*
X117325Y112187D02*
X112087Y112187D01*
X151900Y32900D02*
X175650Y32900D01*
X151900Y32900D02*
X147400Y28400D01*
X110088Y28400D01*
D13*
X112087Y112187D03*
D14*
X175650Y32900D02*
X178700Y32900D01*
D13*
X224850Y128500D03*
X182700Y18000D03*
X175650Y27900D03*
D14*
X180694Y20006D02*
X182700Y18000D01*
X180694Y20006D02*
X180694Y22868D01*
X177118Y26444D01*
X177106Y26444D01*
X175650Y27900D01*
D13*
X213900Y106000D03*
D14*
X104765Y111035D02*
X92500Y98770D01*
X104765Y111035D02*
X105665Y111935D01*
X92500Y98770D02*
X92500Y40000D01*
X213900Y106000D02*
X217700Y109800D01*
X229550Y109800D01*
D13*
X229550Y109800D03*
D14*
X229550Y123800D01*
X224850Y128500D01*
X110500Y116580D02*
X105855Y111935D01*
X105665Y111935D01*
X92500Y40000D02*
X108000Y24500D01*
X153300Y27900D02*
X175650Y27900D01*
X153300Y27900D02*
X149900Y24500D01*
X108000Y24500D01*
X201610Y112310D02*
X211228Y112310D01*
X213900Y109638D01*
X213900Y106000D01*
X119920Y116580D02*
X110500Y116580D01*
X119920Y116580D02*
X125910Y110590D01*
X199890Y110590D01*
X201610Y112310D01*
D13*
X104765Y111035D03*
X161200Y127794D03*
D14*
X143594Y127794D01*
X76600Y103500D02*
X76600Y47200D01*
X138507Y122707D02*
X143594Y127794D01*
X138507Y122707D02*
X134193Y122707D01*
X128100Y128800D01*
X101900Y128800D01*
X76600Y103500D01*
D13*
X66100Y36700D03*
D14*
X76600Y47200D01*
D13*
X154735Y123535D03*
D14*
X146335Y123535D01*
X81100Y102612D02*
X81100Y43700D01*
X141697Y118897D02*
X146335Y123535D01*
X141697Y118897D02*
X132103Y118897D01*
X126110Y124890D01*
X103378Y124890D01*
X81100Y102612D01*
D13*
X74100Y36700D03*
D14*
X81100Y43700D01*
D13*
X78000Y120000D03*
X27000Y101548D03*
D15*
X72100Y114100D02*
X78000Y120000D01*
X72100Y114100D02*
X68600Y114100D01*
X63300Y119400D01*
X44852Y119400D01*
X27000Y101548D01*
D13*
X70000Y120000D03*
X27000Y111000D03*
D15*
X66200Y123800D02*
X70000Y120000D01*
X66200Y123800D02*
X39800Y123800D01*
X27000Y111000D01*
D13*
X190700Y26000D03*
X156150Y22900D03*
X136200Y114400D03*
D14*
X129200Y114400D01*
X104376Y120500D02*
X87000Y103124D01*
X87000Y37000D01*
X104100Y19900D01*
X153150Y19900D01*
X156150Y22900D01*
X123100Y120500D02*
X104376Y120500D01*
X123100Y120500D02*
X129200Y114400D01*
D13*
X209550Y128500D03*
X103100Y89300D03*
X27100Y89400D03*
X171800Y40500D03*
X56500Y115000D03*
X149400Y102300D03*
D14*
X204200Y102300D01*
X208600Y97900D01*
X224200Y97900D01*
D13*
X224200Y97900D03*
X115567Y101900D03*
D14*
X200420Y97680D02*
X205500Y92600D01*
X119787Y97680D02*
X115567Y101900D01*
X119787Y97680D02*
X200420Y97680D01*
X224362Y92600D02*
X224524Y92438D01*
X224362Y92600D02*
X205500Y92600D01*
D13*
X224524Y92438D03*
X144500Y36000D03*
X136200Y127400D03*
X95800Y129800D03*
D14*
X98900Y132900D01*
X166500Y132900D01*
X167600Y131800D02*
X167600Y127894D01*
X167600Y131800D02*
X166500Y132900D01*
D13*
X167600Y127894D03*
X194700Y22000D03*
X190100Y65400D03*
X146300Y64700D03*
X139700Y60800D03*
X132500Y53800D03*
X151700Y48900D03*
X180300Y50500D03*
X211900Y63660D03*
X224274Y63660D03*
X236000Y63660D03*
X201386Y62114D03*
X190700Y22000D03*
X175650Y22900D03*
X145400Y43500D03*
X133500Y34600D03*
X189200Y47900D03*
X166000Y50500D03*
X201486Y42114D03*
X115086Y42414D03*
X114886Y62614D03*
X114686Y80714D03*
X151686Y79714D03*
X166686Y79714D03*
X182686Y79714D03*
X235686Y40714D03*
X223686Y40714D03*
X211686Y40714D03*
X235900Y92660D03*
X235900Y101660D03*
X232900Y134660D03*
X182900Y124660D03*
X228686Y6714D03*
X202686Y6714D03*
X174686Y6714D03*
X56686Y37714D03*
X30686Y37714D03*
X30686Y67714D03*
X86686Y119714D03*
X63686Y6714D03*
X92686Y6714D03*
M02*
