G04 EAGLE Gerber RS-274X export*
G75*
%MOMM*%
%FSLAX34Y34*%
%LPD*%
%INTop Copper*%
%IPPOS*%
%AMOC8*
5,1,8,0,0,1.08239X$1,22.5*%
G01*
G04 Define Apertures*
%ADD10R,0.500000X0.500000*%
%ADD11R,0.800000X0.500000*%
%ADD12R,0.500000X0.800000*%
%ADD13R,1.600000X1.600000*%
%ADD14R,0.280000X0.430000*%
%ADD15C,0.280000*%
%ADD16C,0.708000*%
%ADD17C,0.250000*%
%ADD18C,0.958000*%
%ADD19C,0.320000*%
%ADD20C,0.240000*%
%ADD21C,0.240000*%
%ADD22R,1.000000X0.600000*%
%ADD23C,0.260000*%
%ADD24C,1.016000*%
%ADD25C,0.022500*%
%ADD26C,0.022950*%
%ADD27R,0.400000X0.300000*%
%ADD28R,0.300000X0.400000*%
%ADD29C,0.281800*%
%ADD30R,0.800000X1.200000*%
%ADD31R,0.250000X0.350000*%
%ADD32C,0.302400*%
%ADD33C,0.254000*%
%ADD34C,0.304800*%
%ADD35C,0.609600*%
%ADD36C,0.508000*%
%ADD37C,0.152400*%
G36*
X36196Y1583D02*
X35904Y1524D01*
X13519Y1524D01*
X13260Y1570D01*
X13006Y1727D01*
X12833Y1971D01*
X12769Y2262D01*
X12824Y2555D01*
X12989Y2804D01*
X15080Y4896D01*
X15080Y6238D01*
X4777Y6238D01*
X4650Y6080D01*
X4387Y5938D01*
X4090Y5910D01*
X3805Y6001D01*
X3579Y6195D01*
X3446Y6462D01*
X2550Y9806D01*
X2524Y10000D01*
X2524Y130000D01*
X2550Y130194D01*
X3585Y134057D01*
X3779Y134393D01*
X6607Y137221D01*
X6943Y137415D01*
X10806Y138450D01*
X11000Y138476D01*
X229000Y138476D01*
X229194Y138450D01*
X233057Y137415D01*
X233393Y137221D01*
X236221Y134393D01*
X236415Y134057D01*
X237450Y130194D01*
X237476Y130000D01*
X237476Y118252D01*
X239224Y115224D01*
X242252Y113476D01*
X242726Y113476D01*
X242996Y113426D01*
X243248Y113265D01*
X243417Y113019D01*
X243476Y112726D01*
X243476Y90398D01*
X243426Y90128D01*
X243265Y89876D01*
X243019Y89707D01*
X242726Y89648D01*
X231524Y89648D01*
X231254Y89698D01*
X231002Y89859D01*
X230833Y90105D01*
X230774Y90398D01*
X230774Y91676D01*
X228762Y91676D01*
X228762Y94188D01*
X228274Y94188D01*
X228274Y94188D01*
X228274Y93715D01*
X228228Y93455D01*
X228071Y93201D01*
X227828Y93029D01*
X227536Y92965D01*
X227243Y93019D01*
X226994Y93184D01*
X226756Y93422D01*
X226595Y93660D01*
X226536Y93953D01*
X226536Y94504D01*
X226520Y94520D01*
X226364Y94747D01*
X226300Y95038D01*
X226355Y95331D01*
X226474Y95511D01*
X226474Y99900D01*
X226520Y100159D01*
X226677Y100413D01*
X226921Y100586D01*
X227212Y100650D01*
X227505Y100595D01*
X227754Y100430D01*
X227792Y100392D01*
X227953Y100154D01*
X228012Y99862D01*
X228012Y98762D01*
X230812Y98762D01*
X230812Y99986D01*
X230867Y100267D01*
X231032Y100516D01*
X231512Y100996D01*
X231512Y102097D01*
X231567Y102379D01*
X231624Y102465D01*
X231624Y104456D01*
X231571Y104534D01*
X231512Y104827D01*
X231512Y105928D01*
X231439Y106001D01*
X231283Y106228D01*
X231219Y106519D01*
X231274Y106812D01*
X231439Y107061D01*
X231712Y107334D01*
X231712Y108435D01*
X231767Y108717D01*
X231824Y108803D01*
X231824Y110794D01*
X231771Y110872D01*
X231712Y111165D01*
X231712Y112266D01*
X231266Y112712D01*
X227834Y112712D01*
X227530Y112408D01*
X227304Y112252D01*
X227012Y112188D01*
X226719Y112243D01*
X226470Y112408D01*
X226166Y112712D01*
X225174Y112712D01*
X224915Y112758D01*
X224661Y112915D01*
X224488Y113159D01*
X224424Y113450D01*
X224479Y113743D01*
X224644Y113992D01*
X224994Y114343D01*
X224994Y119956D01*
X225044Y120226D01*
X225205Y120478D01*
X225451Y120647D01*
X225744Y120706D01*
X226007Y120706D01*
X227644Y122343D01*
X227644Y124657D01*
X226674Y125627D01*
X226519Y125854D01*
X226455Y126145D01*
X226510Y126439D01*
X226674Y126688D01*
X226987Y127000D01*
X226987Y127110D01*
X227042Y127392D01*
X227124Y127516D01*
X227124Y129482D01*
X227046Y129597D01*
X226987Y129890D01*
X226987Y130000D01*
X226475Y130512D01*
X226365Y130512D01*
X226083Y130567D01*
X225834Y130732D01*
X225792Y130774D01*
X223908Y130774D01*
X223866Y130732D01*
X223628Y130571D01*
X223335Y130512D01*
X223225Y130512D01*
X222713Y130000D01*
X222713Y129890D01*
X222658Y129608D01*
X222576Y129484D01*
X222576Y127518D01*
X222654Y127403D01*
X222713Y127110D01*
X222713Y127044D01*
X222663Y126774D01*
X222502Y126522D01*
X222256Y126353D01*
X221963Y126294D01*
X220368Y126294D01*
X220087Y126349D01*
X219838Y126514D01*
X216256Y130096D01*
X216105Y130312D01*
X216036Y130602D01*
X216086Y130896D01*
X216247Y131148D01*
X216493Y131317D01*
X216786Y131376D01*
X218182Y131376D01*
X218297Y131454D01*
X218590Y131513D01*
X218700Y131513D01*
X219212Y132025D01*
X219212Y132135D01*
X219267Y132417D01*
X219432Y132666D01*
X219670Y132904D01*
X219886Y133054D01*
X220176Y133123D01*
X220470Y133073D01*
X220722Y132912D01*
X220891Y132666D01*
X220950Y132373D01*
X220950Y132341D01*
X221016Y132275D01*
X221438Y132275D01*
X221438Y135025D01*
X221016Y135025D01*
X220950Y134959D01*
X220950Y134927D01*
X220904Y134667D01*
X220747Y134413D01*
X220504Y134241D01*
X220212Y134177D01*
X219919Y134231D01*
X219670Y134396D01*
X219432Y134634D01*
X219271Y134872D01*
X219212Y135165D01*
X219212Y135275D01*
X218700Y135787D01*
X218590Y135787D01*
X218308Y135842D01*
X218184Y135924D01*
X216218Y135924D01*
X216103Y135846D01*
X215810Y135787D01*
X215700Y135787D01*
X215188Y135275D01*
X215188Y135165D01*
X215133Y134883D01*
X214968Y134634D01*
X214730Y134396D01*
X214514Y134246D01*
X214224Y134177D01*
X213930Y134227D01*
X213678Y134388D01*
X213509Y134634D01*
X213450Y134927D01*
X213450Y134959D01*
X213384Y135025D01*
X212962Y135025D01*
X212962Y132888D01*
X210950Y132888D01*
X210950Y132044D01*
X210900Y131774D01*
X210739Y131522D01*
X210493Y131353D01*
X210200Y131294D01*
X208393Y131294D01*
X206756Y129657D01*
X206756Y127343D01*
X207726Y126373D01*
X207881Y126146D01*
X207945Y125855D01*
X207891Y125561D01*
X207726Y125312D01*
X207413Y125000D01*
X207413Y122000D01*
X207925Y121488D01*
X211175Y121488D01*
X211687Y122000D01*
X211687Y124951D01*
X211733Y125210D01*
X211890Y125464D01*
X212134Y125637D01*
X212425Y125701D01*
X212718Y125646D01*
X212967Y125481D01*
X217443Y121005D01*
X217594Y120789D01*
X217663Y120499D01*
X217613Y120205D01*
X217550Y120106D01*
X217962Y120106D01*
X217962Y116966D01*
X218172Y116929D01*
X218426Y116772D01*
X218599Y116529D01*
X218663Y116237D01*
X218608Y115944D01*
X218443Y115695D01*
X215356Y112607D01*
X215356Y109024D01*
X215306Y108754D01*
X215145Y108502D01*
X214899Y108333D01*
X214606Y108274D01*
X212674Y108274D01*
X212404Y108324D01*
X212152Y108485D01*
X211983Y108731D01*
X211924Y109024D01*
X211924Y109442D01*
X210592Y110774D01*
X208708Y110774D01*
X207376Y109442D01*
X207376Y107558D01*
X208708Y106226D01*
X210876Y106226D01*
X211146Y106176D01*
X211398Y106015D01*
X211567Y105769D01*
X211626Y105476D01*
X211626Y105032D01*
X211580Y104773D01*
X211579Y104771D01*
X211588Y104773D01*
X211881Y104719D01*
X212130Y104554D01*
X212958Y103726D01*
X214842Y103726D01*
X214908Y103792D01*
X215124Y103942D01*
X215414Y104011D01*
X215708Y103961D01*
X215960Y103800D01*
X216129Y103554D01*
X216188Y103261D01*
X216188Y102687D01*
X217337Y101538D01*
X218963Y101538D01*
X220176Y102751D01*
X220392Y102902D01*
X220682Y102970D01*
X220976Y102920D01*
X221228Y102759D01*
X221397Y102513D01*
X221435Y102326D01*
X221868Y101892D01*
X222029Y101655D01*
X222088Y101362D01*
X222088Y100920D01*
X222091Y100916D01*
X222150Y100624D01*
X222150Y99377D01*
X222095Y99095D01*
X221930Y98846D01*
X221926Y98842D01*
X221926Y96958D01*
X221930Y96954D01*
X222091Y96716D01*
X222150Y96423D01*
X222150Y95534D01*
X222316Y95368D01*
X222472Y95142D01*
X222536Y94850D01*
X222512Y94723D01*
X222512Y93953D01*
X222457Y93671D01*
X222292Y93422D01*
X222250Y93380D01*
X222250Y91496D01*
X222292Y91454D01*
X222453Y91216D01*
X222512Y90923D01*
X222512Y90398D01*
X222462Y90128D01*
X222301Y89876D01*
X222055Y89707D01*
X221762Y89648D01*
X204058Y89648D01*
X203242Y88833D01*
X203026Y88682D01*
X202736Y88613D01*
X202442Y88664D01*
X202190Y88824D01*
X202021Y89071D01*
X201962Y89363D01*
X201962Y90216D01*
X201516Y90662D01*
X196884Y90662D01*
X196438Y90216D01*
X196438Y86584D01*
X196884Y86138D01*
X200702Y86138D01*
X200972Y86088D01*
X201224Y85927D01*
X201393Y85681D01*
X201452Y85388D01*
X201452Y84150D01*
X201402Y83880D01*
X201241Y83628D01*
X200995Y83459D01*
X200702Y83400D01*
X199962Y83400D01*
X199962Y81138D01*
X196974Y81138D01*
X196737Y80978D01*
X195747Y80568D01*
X194032Y78853D01*
X193104Y76613D01*
X193104Y74187D01*
X193306Y73699D01*
X193363Y73436D01*
X193313Y73142D01*
X193152Y72890D01*
X192906Y72721D01*
X192613Y72662D01*
X191884Y72662D01*
X191438Y72216D01*
X191438Y67584D01*
X191884Y67138D01*
X195516Y67138D01*
X195962Y67584D01*
X195962Y69021D01*
X196010Y69285D01*
X196169Y69538D01*
X196414Y69709D01*
X196706Y69770D01*
X196999Y69713D01*
X197987Y69304D01*
X211513Y69304D01*
X211973Y69495D01*
X212260Y69552D01*
X242726Y69552D01*
X242996Y69502D01*
X243248Y69341D01*
X243417Y69095D01*
X243476Y68802D01*
X243476Y62898D01*
X243426Y62628D01*
X243265Y62376D01*
X243019Y62207D01*
X242726Y62148D01*
X204058Y62148D01*
X201452Y59542D01*
X201452Y59160D01*
X201419Y58940D01*
X201276Y58678D01*
X201043Y58492D01*
X200755Y58412D01*
X200459Y58451D01*
X198723Y59045D01*
X198499Y59168D01*
X194899Y62036D01*
X186195Y65036D01*
X181624Y64996D01*
X181617Y64996D01*
X157425Y64996D01*
X157194Y65032D01*
X157065Y65074D01*
X156132Y64998D01*
X156072Y64996D01*
X155135Y64996D01*
X155010Y64944D01*
X154783Y64889D01*
X152514Y64706D01*
X146182Y62494D01*
X140615Y58753D01*
X138578Y56446D01*
X138536Y56403D01*
X131991Y50100D01*
X131043Y49188D01*
X130804Y49033D01*
X128898Y48264D01*
X128641Y48210D01*
X128347Y48260D01*
X128096Y48421D01*
X127927Y48667D01*
X127867Y48960D01*
X127867Y49238D01*
X119867Y49238D01*
X119867Y48298D01*
X119817Y48028D01*
X119656Y47776D01*
X119410Y47607D01*
X119117Y47548D01*
X118605Y47548D01*
X116819Y45763D01*
X116819Y38238D01*
X118605Y36452D01*
X119117Y36452D01*
X119388Y36402D01*
X119639Y36241D01*
X119808Y35995D01*
X119867Y35702D01*
X119867Y34762D01*
X127867Y34762D01*
X127867Y35154D01*
X127918Y35424D01*
X128079Y35676D01*
X128325Y35845D01*
X128617Y35904D01*
X131458Y35904D01*
X137251Y38240D01*
X139380Y40290D01*
X146416Y47065D01*
X146607Y47199D01*
X146729Y47258D01*
X147348Y47960D01*
X147390Y48004D01*
X147733Y48333D01*
X147796Y48388D01*
X151612Y51322D01*
X151867Y51450D01*
X156348Y52701D01*
X156526Y52728D01*
X156820Y52678D01*
X157072Y52517D01*
X157241Y52271D01*
X157300Y51979D01*
X157300Y50262D01*
X162300Y50262D01*
X162300Y52054D01*
X162350Y52324D01*
X162511Y52576D01*
X162757Y52745D01*
X163050Y52804D01*
X168550Y52804D01*
X168820Y52754D01*
X169072Y52593D01*
X169241Y52347D01*
X169300Y52054D01*
X169300Y50262D01*
X174300Y50262D01*
X174300Y52054D01*
X174350Y52324D01*
X174511Y52576D01*
X174757Y52745D01*
X175050Y52804D01*
X180316Y52804D01*
X180375Y52793D01*
X181668Y52804D01*
X181675Y52804D01*
X181708Y52804D01*
X181829Y52794D01*
X186450Y52041D01*
X186690Y51958D01*
X190795Y49703D01*
X190901Y49632D01*
X191230Y49370D01*
X193345Y47685D01*
X195466Y46960D01*
X195728Y46805D01*
X195904Y46564D01*
X195973Y46274D01*
X195923Y45980D01*
X195762Y45728D01*
X195516Y45559D01*
X195223Y45500D01*
X194462Y45500D01*
X194462Y43762D01*
X196200Y43762D01*
X196200Y45659D01*
X196233Y45879D01*
X196376Y46142D01*
X196609Y46327D01*
X196897Y46407D01*
X197193Y46369D01*
X199258Y45662D01*
X200692Y45682D01*
X200972Y45631D01*
X201224Y45471D01*
X201393Y45224D01*
X201452Y44932D01*
X201452Y44658D01*
X204058Y42052D01*
X242726Y42052D01*
X242996Y42002D01*
X243248Y41841D01*
X243417Y41595D01*
X243476Y41302D01*
X243476Y27274D01*
X243426Y27004D01*
X243265Y26752D01*
X243019Y26583D01*
X242726Y26524D01*
X241252Y26524D01*
X238224Y24776D01*
X236476Y21748D01*
X236476Y10000D01*
X236450Y9806D01*
X235415Y5943D01*
X235221Y5607D01*
X232393Y2779D01*
X232057Y2585D01*
X228194Y1550D01*
X228000Y1524D01*
X45097Y1524D01*
X44837Y1570D01*
X44583Y1727D01*
X44411Y1971D01*
X44347Y2262D01*
X44401Y2555D01*
X44566Y2804D01*
X45453Y3691D01*
X46342Y5838D01*
X46342Y8162D01*
X45453Y10309D01*
X43809Y11953D01*
X41662Y12842D01*
X39338Y12842D01*
X37191Y11953D01*
X35547Y10309D01*
X34658Y8162D01*
X34658Y5838D01*
X35547Y3691D01*
X36434Y2804D01*
X36584Y2588D01*
X36653Y2298D01*
X36603Y2004D01*
X36442Y1752D01*
X36196Y1583D01*
G37*
%LPC*%
G36*
X146384Y130138D02*
X150016Y130138D01*
X150462Y130584D01*
X150462Y135216D01*
X150016Y135662D01*
X146384Y135662D01*
X145938Y135216D01*
X145938Y130584D01*
X146384Y130138D01*
G37*
G36*
X195958Y130088D02*
X196110Y129991D01*
X196021Y130119D01*
X195962Y130412D01*
X195962Y135216D01*
X195516Y135662D01*
X191884Y135662D01*
X191438Y135216D01*
X191438Y130584D01*
X191884Y130138D01*
X195688Y130138D01*
X195958Y130088D01*
G37*
G36*
X178884Y130138D02*
X182516Y130138D01*
X182962Y130584D01*
X182962Y135216D01*
X182516Y135662D01*
X178884Y135662D01*
X178438Y135216D01*
X178438Y130584D01*
X178884Y130138D01*
G37*
G36*
X153683Y120995D02*
X155787Y120995D01*
X157275Y122483D01*
X157275Y126317D01*
X157321Y126576D01*
X157478Y126830D01*
X157721Y127002D01*
X158013Y127066D01*
X158306Y127012D01*
X158555Y126847D01*
X160148Y125254D01*
X162252Y125254D01*
X163920Y126922D01*
X164147Y127077D01*
X164438Y127141D01*
X164731Y127086D01*
X164980Y126922D01*
X166548Y125354D01*
X168652Y125354D01*
X170140Y126842D01*
X170140Y130072D01*
X170186Y130331D01*
X170343Y130585D01*
X170587Y130758D01*
X170878Y130822D01*
X171171Y130767D01*
X171420Y130602D01*
X171884Y130138D01*
X175516Y130138D01*
X175962Y130584D01*
X175962Y135216D01*
X175516Y135662D01*
X171884Y135662D01*
X171230Y135008D01*
X171004Y134852D01*
X170712Y134788D01*
X170419Y134843D01*
X170170Y135008D01*
X169516Y135662D01*
X165884Y135662D01*
X165438Y135216D01*
X165438Y134541D01*
X165383Y134259D01*
X165218Y134010D01*
X164980Y133772D01*
X164754Y133617D01*
X164462Y133553D01*
X164169Y133608D01*
X163920Y133772D01*
X163682Y134010D01*
X163521Y134248D01*
X163462Y134541D01*
X163462Y135216D01*
X163016Y135662D01*
X159384Y135662D01*
X158938Y135216D01*
X158938Y134541D01*
X158883Y134259D01*
X158718Y134010D01*
X158480Y133772D01*
X158254Y133617D01*
X157962Y133553D01*
X157669Y133608D01*
X157420Y133772D01*
X157182Y134010D01*
X157021Y134248D01*
X156962Y134541D01*
X156962Y135216D01*
X156516Y135662D01*
X152884Y135662D01*
X152438Y135216D01*
X152438Y134541D01*
X152383Y134259D01*
X152218Y134010D01*
X152160Y133952D01*
X152160Y131674D01*
X152195Y131503D01*
X152195Y122483D01*
X153683Y120995D01*
G37*
G36*
X185384Y130138D02*
X189016Y130138D01*
X189462Y130584D01*
X189462Y135216D01*
X189016Y135662D01*
X185384Y135662D01*
X184938Y135216D01*
X184938Y130584D01*
X185384Y130138D01*
G37*
G36*
X222962Y134412D02*
X223450Y134412D01*
X223450Y134959D01*
X223384Y135025D01*
X222962Y135025D01*
X222962Y134412D01*
G37*
G36*
X210950Y134412D02*
X211438Y134412D01*
X211438Y135025D01*
X211016Y135025D01*
X210950Y134959D01*
X210950Y134412D01*
G37*
G36*
X140200Y133662D02*
X140938Y133662D01*
X140938Y134900D01*
X140200Y134900D01*
X140200Y134900D01*
X140200Y133662D01*
G37*
G36*
X142462Y133662D02*
X143200Y133662D01*
X143200Y134900D01*
X143200Y134900D01*
X142462Y134900D01*
X142462Y133662D01*
G37*
G36*
X55343Y112206D02*
X57657Y112206D01*
X65926Y120474D01*
X66142Y120625D01*
X66432Y120694D01*
X66726Y120644D01*
X66978Y120483D01*
X67147Y120237D01*
X67206Y119944D01*
X67206Y118843D01*
X68843Y117206D01*
X71157Y117206D01*
X73926Y119974D01*
X74142Y120125D01*
X74432Y120194D01*
X74726Y120144D01*
X74978Y119983D01*
X75147Y119737D01*
X75206Y119444D01*
X75206Y118843D01*
X76843Y117206D01*
X79157Y117206D01*
X82161Y120210D01*
X82161Y124906D01*
X82216Y125187D01*
X82381Y125436D01*
X82837Y125892D01*
X83064Y126048D01*
X83355Y126112D01*
X83649Y126057D01*
X83898Y125892D01*
X84552Y125238D01*
X90183Y125238D01*
X90837Y125892D01*
X91064Y126048D01*
X91355Y126112D01*
X91649Y126057D01*
X91898Y125892D01*
X92552Y125238D01*
X98183Y125238D01*
X98837Y125892D01*
X99064Y126048D01*
X99355Y126112D01*
X99649Y126057D01*
X99898Y125892D01*
X100552Y125238D01*
X106183Y125238D01*
X106837Y125892D01*
X107064Y126048D01*
X107355Y126112D01*
X107649Y126057D01*
X107898Y125892D01*
X108552Y125238D01*
X114183Y125238D01*
X114629Y125684D01*
X114629Y134316D01*
X114183Y134762D01*
X108552Y134762D01*
X107898Y134108D01*
X107671Y133952D01*
X107379Y133888D01*
X107086Y133943D01*
X106837Y134108D01*
X106183Y134762D01*
X100552Y134762D01*
X99898Y134108D01*
X99671Y133952D01*
X99379Y133888D01*
X99086Y133943D01*
X98837Y134108D01*
X98183Y134762D01*
X92552Y134762D01*
X91898Y134108D01*
X91671Y133952D01*
X91379Y133888D01*
X91086Y133943D01*
X90837Y134108D01*
X90183Y134762D01*
X84552Y134762D01*
X83898Y134108D01*
X83671Y133952D01*
X83379Y133888D01*
X83086Y133943D01*
X82837Y134108D01*
X82183Y134762D01*
X76552Y134762D01*
X75898Y134108D01*
X75671Y133952D01*
X75379Y133888D01*
X75086Y133943D01*
X74837Y134108D01*
X74183Y134762D01*
X68552Y134762D01*
X67898Y134108D01*
X67671Y133952D01*
X67379Y133888D01*
X67086Y133943D01*
X66837Y134108D01*
X66183Y134762D01*
X60552Y134762D01*
X60105Y134316D01*
X60105Y125684D01*
X60354Y125436D01*
X60514Y125198D01*
X60573Y124906D01*
X60573Y123335D01*
X60519Y123054D01*
X60354Y122805D01*
X53706Y116157D01*
X53706Y113843D01*
X55343Y112206D01*
G37*
G36*
X24948Y118460D02*
X45852Y118460D01*
X49907Y122515D01*
X49907Y124652D01*
X49962Y124933D01*
X50127Y125182D01*
X50629Y125684D01*
X50629Y134316D01*
X50183Y134762D01*
X44552Y134762D01*
X43898Y134108D01*
X43671Y133952D01*
X43379Y133888D01*
X43086Y133943D01*
X42837Y134108D01*
X42183Y134762D01*
X36552Y134762D01*
X35898Y134108D01*
X35671Y133952D01*
X35379Y133888D01*
X35086Y133943D01*
X34837Y134108D01*
X34183Y134762D01*
X28552Y134762D01*
X27898Y134108D01*
X27671Y133952D01*
X27379Y133888D01*
X27086Y133943D01*
X26837Y134108D01*
X26183Y134762D01*
X20552Y134762D01*
X20105Y134316D01*
X20105Y125684D01*
X20540Y125249D01*
X20701Y125012D01*
X20760Y124719D01*
X20760Y122648D01*
X24948Y118460D01*
G37*
G36*
X52867Y130762D02*
X54605Y130762D01*
X54605Y134000D01*
X52867Y134000D01*
X52867Y134000D01*
X52867Y130762D01*
G37*
G36*
X56129Y130762D02*
X57867Y130762D01*
X57867Y134000D01*
X57867Y134000D01*
X56129Y134000D01*
X56129Y130762D01*
G37*
G36*
X222962Y132275D02*
X223384Y132275D01*
X223450Y132341D01*
X223450Y132888D01*
X222962Y132888D01*
X222962Y132275D01*
G37*
G36*
X142462Y130900D02*
X143200Y130900D01*
X143200Y130900D01*
X143200Y132138D01*
X142462Y132138D01*
X142462Y130900D01*
G37*
G36*
X140200Y130900D02*
X140938Y130900D01*
X140938Y132138D01*
X140200Y132138D01*
X140200Y130900D01*
X140200Y130900D01*
G37*
G36*
X135148Y118360D02*
X137252Y118360D01*
X137310Y118418D01*
X137548Y118579D01*
X137841Y118638D01*
X138516Y118638D01*
X138962Y119084D01*
X138962Y122716D01*
X138960Y122718D01*
X138799Y122956D01*
X138740Y123248D01*
X138740Y125052D01*
X138795Y125333D01*
X138960Y125582D01*
X138962Y125584D01*
X138962Y129216D01*
X138516Y129662D01*
X137841Y129662D01*
X137559Y129717D01*
X137310Y129882D01*
X137252Y129940D01*
X135148Y129940D01*
X135090Y129882D01*
X134852Y129721D01*
X134559Y129662D01*
X133884Y129662D01*
X133438Y129216D01*
X133438Y125584D01*
X133440Y125582D01*
X133601Y125344D01*
X133660Y125052D01*
X133660Y123248D01*
X133605Y122967D01*
X133440Y122718D01*
X133438Y122716D01*
X133438Y119084D01*
X133884Y118638D01*
X134559Y118638D01*
X134841Y118583D01*
X135090Y118418D01*
X135148Y118360D01*
G37*
G36*
X196884Y125138D02*
X201516Y125138D01*
X201962Y125584D01*
X201962Y129216D01*
X201516Y129662D01*
X196712Y129662D01*
X196442Y129712D01*
X196290Y129809D01*
X196379Y129681D01*
X196438Y129388D01*
X196438Y125584D01*
X196884Y125138D01*
G37*
G36*
X56129Y126000D02*
X57867Y126000D01*
X57867Y126000D01*
X57867Y129238D01*
X56129Y129238D01*
X56129Y126000D01*
G37*
G36*
X52867Y126000D02*
X54605Y126000D01*
X54605Y129238D01*
X52867Y129238D01*
X52867Y126000D01*
X52867Y126000D01*
G37*
G36*
X119552Y54738D02*
X128183Y54738D01*
X128629Y55184D01*
X128629Y60816D01*
X127975Y61470D01*
X127820Y61697D01*
X127756Y61988D01*
X127810Y62281D01*
X127975Y62530D01*
X128629Y63184D01*
X128629Y68816D01*
X127975Y69470D01*
X127820Y69697D01*
X127756Y69988D01*
X127810Y70281D01*
X127975Y70530D01*
X128629Y71184D01*
X128629Y76816D01*
X127975Y77470D01*
X127820Y77697D01*
X127756Y77988D01*
X127810Y78281D01*
X127975Y78530D01*
X128685Y79240D01*
X128923Y79401D01*
X129216Y79460D01*
X131452Y79460D01*
X132227Y80235D01*
X132454Y80390D01*
X132745Y80454D01*
X133039Y80400D01*
X133288Y80235D01*
X133884Y79638D01*
X138516Y79638D01*
X138962Y80084D01*
X138962Y83716D01*
X138516Y84162D01*
X134190Y84162D01*
X133920Y84212D01*
X133668Y84373D01*
X133499Y84619D01*
X133440Y84912D01*
X133440Y85388D01*
X133490Y85658D01*
X133651Y85910D01*
X133897Y86079D01*
X134190Y86138D01*
X138516Y86138D01*
X138962Y86584D01*
X138962Y90216D01*
X138516Y90662D01*
X134190Y90662D01*
X133920Y90712D01*
X133668Y90873D01*
X133499Y91119D01*
X133440Y91412D01*
X133440Y91888D01*
X133490Y92158D01*
X133651Y92410D01*
X133897Y92579D01*
X134190Y92638D01*
X138516Y92638D01*
X138962Y93084D01*
X138962Y96716D01*
X138516Y97162D01*
X134190Y97162D01*
X133920Y97212D01*
X133668Y97373D01*
X133499Y97619D01*
X133440Y97912D01*
X133440Y98388D01*
X133490Y98658D01*
X133651Y98910D01*
X133897Y99079D01*
X134190Y99138D01*
X138516Y99138D01*
X138962Y99584D01*
X138962Y103216D01*
X138516Y103662D01*
X134190Y103662D01*
X133920Y103712D01*
X133668Y103873D01*
X133499Y104119D01*
X133440Y104412D01*
X133440Y104888D01*
X133490Y105158D01*
X133651Y105410D01*
X133897Y105579D01*
X134190Y105638D01*
X138516Y105638D01*
X138962Y106084D01*
X138962Y109716D01*
X138516Y110162D01*
X133884Y110162D01*
X133438Y109716D01*
X133438Y108765D01*
X133392Y108506D01*
X133235Y108252D01*
X132992Y108079D01*
X132700Y108015D01*
X132407Y108070D01*
X132158Y108234D01*
X131852Y108540D01*
X129216Y108540D01*
X128934Y108595D01*
X128685Y108760D01*
X127975Y109470D01*
X127820Y109697D01*
X127756Y109988D01*
X127810Y110281D01*
X127975Y110530D01*
X128629Y111184D01*
X128629Y116816D01*
X127975Y117470D01*
X127820Y117697D01*
X127756Y117988D01*
X127810Y118281D01*
X127975Y118530D01*
X128629Y119184D01*
X128629Y124816D01*
X128183Y125262D01*
X119552Y125262D01*
X119105Y124816D01*
X119105Y122908D01*
X119051Y122627D01*
X118886Y122378D01*
X111454Y114946D01*
X111217Y114786D01*
X111063Y114755D01*
X109547Y113239D01*
X109547Y112256D01*
X109501Y111997D01*
X109344Y111743D01*
X109100Y111570D01*
X108809Y111506D01*
X108515Y111561D01*
X108266Y111726D01*
X106052Y113940D01*
X103948Y113940D01*
X102225Y112217D01*
X102225Y109983D01*
X103713Y108495D01*
X104003Y108495D01*
X104284Y108440D01*
X104533Y108275D01*
X107515Y105293D01*
X113557Y105293D01*
X113816Y105246D01*
X114070Y105090D01*
X114243Y104846D01*
X114307Y104555D01*
X114252Y104261D01*
X114088Y104012D01*
X113027Y102952D01*
X113027Y100848D01*
X114515Y99360D01*
X116619Y99360D01*
X117825Y100566D01*
X118041Y100716D01*
X118331Y100785D01*
X118626Y100735D01*
X118877Y100574D01*
X119046Y100328D01*
X119105Y100035D01*
X119105Y95184D01*
X119759Y94530D01*
X119915Y94304D01*
X119979Y94012D01*
X119924Y93719D01*
X119759Y93470D01*
X119076Y92786D01*
X119055Y92674D01*
X118894Y92422D01*
X118648Y92253D01*
X118355Y92194D01*
X99117Y92194D01*
X98847Y92244D01*
X98596Y92405D01*
X98427Y92651D01*
X98367Y92944D01*
X98367Y100238D01*
X82367Y100238D01*
X82367Y92944D01*
X82317Y92674D01*
X82156Y92422D01*
X81910Y92253D01*
X81617Y92194D01*
X76117Y92194D01*
X75847Y92244D01*
X75596Y92405D01*
X75427Y92651D01*
X75367Y92944D01*
X75367Y100238D01*
X59367Y100238D01*
X59367Y92944D01*
X59317Y92674D01*
X59156Y92422D01*
X58910Y92253D01*
X58617Y92194D01*
X53117Y92194D01*
X52847Y92244D01*
X52596Y92405D01*
X52427Y92651D01*
X52367Y92944D01*
X52367Y100238D01*
X36367Y100238D01*
X36367Y92944D01*
X36317Y92674D01*
X36156Y92422D01*
X35910Y92253D01*
X35617Y92194D01*
X28568Y92194D01*
X28287Y92249D01*
X28218Y92294D01*
X16379Y92294D01*
X16109Y92344D01*
X15858Y92505D01*
X15689Y92751D01*
X15688Y92757D01*
X14975Y93470D01*
X14820Y93697D01*
X14756Y93988D01*
X14810Y94281D01*
X14975Y94530D01*
X15629Y95184D01*
X15629Y100816D01*
X15183Y101262D01*
X6552Y101262D01*
X6105Y100816D01*
X6105Y95184D01*
X6759Y94530D01*
X6915Y94304D01*
X6979Y94012D01*
X6924Y93719D01*
X6759Y93470D01*
X6105Y92816D01*
X6105Y87184D01*
X6759Y86530D01*
X6915Y86304D01*
X6979Y86012D01*
X6924Y85719D01*
X6759Y85470D01*
X6105Y84816D01*
X6105Y79184D01*
X6552Y78738D01*
X15183Y78738D01*
X15629Y79184D01*
X15629Y84816D01*
X15019Y85426D01*
X14869Y85642D01*
X14800Y85932D01*
X14850Y86226D01*
X15011Y86478D01*
X15257Y86647D01*
X15550Y86706D01*
X25532Y86706D01*
X25814Y86651D01*
X25882Y86606D01*
X35617Y86606D01*
X35888Y86556D01*
X36139Y86395D01*
X36308Y86149D01*
X36367Y85856D01*
X36367Y78762D01*
X52367Y78762D01*
X52367Y85856D01*
X52418Y86126D01*
X52579Y86378D01*
X52825Y86547D01*
X53117Y86606D01*
X58617Y86606D01*
X58888Y86556D01*
X59139Y86395D01*
X59308Y86149D01*
X59367Y85856D01*
X59367Y78762D01*
X75367Y78762D01*
X75367Y85856D01*
X75418Y86126D01*
X75579Y86378D01*
X75825Y86547D01*
X76117Y86606D01*
X81617Y86606D01*
X81888Y86556D01*
X82139Y86395D01*
X82308Y86149D01*
X82367Y85856D01*
X82367Y78762D01*
X98367Y78762D01*
X98367Y85856D01*
X98418Y86126D01*
X98579Y86378D01*
X98825Y86547D01*
X99117Y86606D01*
X101532Y86606D01*
X101814Y86551D01*
X101882Y86506D01*
X104315Y86506D01*
X104375Y86547D01*
X104668Y86606D01*
X119085Y86606D01*
X119344Y86560D01*
X119598Y86403D01*
X119771Y86160D01*
X119835Y85868D01*
X119780Y85575D01*
X119615Y85326D01*
X119105Y84816D01*
X119105Y79184D01*
X119759Y78530D01*
X119915Y78304D01*
X119979Y78012D01*
X119924Y77719D01*
X119759Y77470D01*
X119105Y76816D01*
X119105Y71184D01*
X119759Y70530D01*
X119915Y70304D01*
X119979Y70012D01*
X119924Y69719D01*
X119759Y69470D01*
X119105Y68816D01*
X119105Y63184D01*
X119759Y62530D01*
X119915Y62304D01*
X119979Y62012D01*
X119924Y61719D01*
X119759Y61470D01*
X119105Y60816D01*
X119105Y55184D01*
X119552Y54738D01*
G37*
G36*
X6552Y110738D02*
X15183Y110738D01*
X15629Y111184D01*
X15629Y116816D01*
X14975Y117470D01*
X14820Y117697D01*
X14756Y117988D01*
X14810Y118281D01*
X14975Y118530D01*
X15629Y119184D01*
X15629Y124816D01*
X15183Y125262D01*
X6552Y125262D01*
X6105Y124816D01*
X6105Y119184D01*
X6759Y118530D01*
X6915Y118304D01*
X6979Y118012D01*
X6924Y117719D01*
X6759Y117470D01*
X6105Y116816D01*
X6105Y111184D01*
X6552Y110738D01*
G37*
G36*
X196884Y118638D02*
X201516Y118638D01*
X201962Y119084D01*
X201962Y122716D01*
X201516Y123162D01*
X196884Y123162D01*
X196438Y122716D01*
X196438Y119084D01*
X196884Y118638D01*
G37*
G36*
X215950Y119112D02*
X216438Y119112D01*
X216438Y119725D01*
X216016Y119725D01*
X215950Y119659D01*
X215950Y119112D01*
G37*
G36*
X210950Y119112D02*
X211438Y119112D01*
X211438Y119725D01*
X211016Y119725D01*
X210950Y119659D01*
X210950Y119112D01*
G37*
G36*
X212962Y119112D02*
X213450Y119112D01*
X213450Y119659D01*
X213384Y119725D01*
X212962Y119725D01*
X212962Y119112D01*
G37*
G36*
X216016Y116975D02*
X216438Y116975D01*
X216438Y117588D01*
X215950Y117588D01*
X215950Y117041D01*
X216016Y116975D01*
G37*
G36*
X212962Y116975D02*
X213384Y116975D01*
X213450Y117041D01*
X213450Y117588D01*
X212962Y117588D01*
X212962Y116975D01*
G37*
G36*
X211016Y116975D02*
X211438Y116975D01*
X211438Y117588D01*
X210950Y117588D01*
X210950Y117041D01*
X211016Y116975D01*
G37*
G36*
X165200Y115162D02*
X166938Y115162D01*
X166938Y116900D01*
X165200Y116900D01*
X165200Y116900D01*
X165200Y115162D01*
G37*
G36*
X178200Y115162D02*
X179938Y115162D01*
X179938Y116900D01*
X178200Y116900D01*
X178200Y116900D01*
X178200Y115162D01*
G37*
G36*
X152200Y115162D02*
X153938Y115162D01*
X153938Y116900D01*
X152200Y116900D01*
X152200Y116900D01*
X152200Y115162D01*
G37*
G36*
X155462Y115162D02*
X157200Y115162D01*
X157200Y116900D01*
X157200Y116900D01*
X155462Y116900D01*
X155462Y115162D01*
G37*
G36*
X181462Y115162D02*
X183200Y115162D01*
X183200Y116900D01*
X183200Y116900D01*
X181462Y116900D01*
X181462Y115162D01*
G37*
G36*
X168462Y115162D02*
X170200Y115162D01*
X170200Y116900D01*
X170200Y116900D01*
X168462Y116900D01*
X168462Y115162D01*
G37*
G36*
X134997Y112126D02*
X137406Y112126D01*
X137465Y112138D01*
X138516Y112138D01*
X138962Y112584D01*
X138962Y116216D01*
X138516Y116662D01*
X137465Y116662D01*
X137403Y116674D01*
X134995Y116674D01*
X134935Y116662D01*
X133884Y116662D01*
X133438Y116216D01*
X133438Y112584D01*
X133884Y112138D01*
X134935Y112138D01*
X134997Y112126D01*
G37*
G36*
X196884Y112138D02*
X201516Y112138D01*
X201962Y112584D01*
X201962Y116216D01*
X201516Y116662D01*
X196884Y116662D01*
X196438Y116216D01*
X196438Y112584D01*
X196884Y112138D01*
G37*
G36*
X165200Y111900D02*
X166938Y111900D01*
X166938Y113638D01*
X165200Y113638D01*
X165200Y111900D01*
X165200Y111900D01*
G37*
G36*
X152200Y111900D02*
X153938Y111900D01*
X153938Y113638D01*
X152200Y113638D01*
X152200Y111900D01*
X152200Y111900D01*
G37*
G36*
X155462Y111900D02*
X157200Y111900D01*
X157200Y111900D01*
X157200Y113638D01*
X155462Y113638D01*
X155462Y111900D01*
G37*
G36*
X168462Y111900D02*
X170200Y111900D01*
X170200Y111900D01*
X170200Y113638D01*
X168462Y113638D01*
X168462Y111900D01*
G37*
G36*
X178200Y111900D02*
X179938Y111900D01*
X179938Y113638D01*
X178200Y113638D01*
X178200Y111900D01*
X178200Y111900D01*
G37*
G36*
X181462Y111900D02*
X183200Y111900D01*
X183200Y111900D01*
X183200Y113638D01*
X181462Y113638D01*
X181462Y111900D01*
G37*
G36*
X26058Y108726D02*
X27942Y108726D01*
X29274Y110058D01*
X29274Y111942D01*
X27942Y113274D01*
X26058Y113274D01*
X24726Y111942D01*
X24726Y110058D01*
X26058Y108726D01*
G37*
G36*
X196884Y105638D02*
X201516Y105638D01*
X201962Y106084D01*
X201962Y109716D01*
X201516Y110162D01*
X196884Y110162D01*
X196438Y109716D01*
X196438Y106084D01*
X196884Y105638D01*
G37*
G36*
X45129Y101762D02*
X52367Y101762D01*
X52367Y109000D01*
X52367Y109000D01*
X45129Y109000D01*
X45129Y101762D01*
G37*
G36*
X68129Y101762D02*
X75367Y101762D01*
X75367Y109000D01*
X75367Y109000D01*
X68129Y109000D01*
X68129Y101762D01*
G37*
G36*
X91129Y101762D02*
X98367Y101762D01*
X98367Y109000D01*
X98367Y109000D01*
X91129Y109000D01*
X91129Y101762D01*
G37*
G36*
X82367Y101762D02*
X89605Y101762D01*
X89605Y109000D01*
X82367Y109000D01*
X82367Y109000D01*
X82367Y101762D01*
G37*
G36*
X59367Y101762D02*
X66605Y101762D01*
X66605Y109000D01*
X59367Y109000D01*
X59367Y109000D01*
X59367Y101762D01*
G37*
G36*
X36367Y101762D02*
X43605Y101762D01*
X43605Y109000D01*
X36367Y109000D01*
X36367Y109000D01*
X36367Y101762D01*
G37*
G36*
X11629Y106762D02*
X14867Y106762D01*
X14867Y108500D01*
X14867Y108500D01*
X11629Y108500D01*
X11629Y106762D01*
G37*
G36*
X6867Y106762D02*
X10105Y106762D01*
X10105Y108500D01*
X6867Y108500D01*
X6867Y108500D01*
X6867Y106762D01*
G37*
G36*
X11629Y103500D02*
X14867Y103500D01*
X14867Y103500D01*
X14867Y105238D01*
X11629Y105238D01*
X11629Y103500D01*
G37*
G36*
X6867Y103500D02*
X10105Y103500D01*
X10105Y105238D01*
X6867Y105238D01*
X6867Y103500D01*
X6867Y103500D01*
G37*
G36*
X148458Y100026D02*
X150342Y100026D01*
X151674Y101358D01*
X151674Y103242D01*
X150342Y104574D01*
X148458Y104574D01*
X147126Y103242D01*
X147126Y101358D01*
X148458Y100026D01*
G37*
G36*
X210412Y104262D02*
X210893Y104262D01*
X210896Y104283D01*
X210897Y104284D01*
X210888Y104282D01*
X210595Y104337D01*
X210412Y104457D01*
X210412Y104262D01*
G37*
G36*
X208715Y104262D02*
X208888Y104262D01*
X208888Y104435D01*
X208715Y104262D01*
G37*
G36*
X168462Y102162D02*
X170200Y102162D01*
X170200Y103900D01*
X170200Y103900D01*
X168462Y103900D01*
X168462Y102162D01*
G37*
G36*
X181462Y102162D02*
X183200Y102162D01*
X183200Y103900D01*
X183200Y103900D01*
X181462Y103900D01*
X181462Y102162D01*
G37*
G36*
X178200Y102162D02*
X179938Y102162D01*
X179938Y103900D01*
X178200Y103900D01*
X178200Y103900D01*
X178200Y102162D01*
G37*
G36*
X165200Y102162D02*
X166938Y102162D01*
X166938Y103900D01*
X165200Y103900D01*
X165200Y103900D01*
X165200Y102162D01*
G37*
G36*
X26058Y99274D02*
X27942Y99274D01*
X29274Y100606D01*
X29274Y102490D01*
X27942Y103822D01*
X26058Y103822D01*
X24726Y102490D01*
X24726Y100606D01*
X26058Y99274D01*
G37*
G36*
X196884Y99138D02*
X201516Y99138D01*
X201962Y99584D01*
X201962Y103216D01*
X201516Y103662D01*
X196884Y103662D01*
X196438Y103216D01*
X196438Y99584D01*
X196884Y99138D01*
G37*
G36*
X210412Y102738D02*
X210412Y102565D01*
X210585Y102738D01*
X210412Y102738D01*
G37*
G36*
X208715Y102738D02*
X208888Y102565D01*
X208888Y102738D01*
X208715Y102738D01*
G37*
G36*
X214662Y101762D02*
X214835Y101762D01*
X214662Y101935D01*
X214662Y101762D01*
G37*
G36*
X212965Y101762D02*
X213138Y101762D01*
X213138Y101935D01*
X212965Y101762D01*
G37*
G36*
X165200Y98900D02*
X166938Y98900D01*
X166938Y100638D01*
X165200Y100638D01*
X165200Y98900D01*
X165200Y98900D01*
G37*
G36*
X181462Y98900D02*
X183200Y98900D01*
X183200Y98900D01*
X183200Y100638D01*
X181462Y100638D01*
X181462Y98900D01*
G37*
G36*
X178200Y98900D02*
X179938Y98900D01*
X179938Y100638D01*
X178200Y100638D01*
X178200Y98900D01*
X178200Y98900D01*
G37*
G36*
X168462Y98900D02*
X170200Y98900D01*
X170200Y98900D01*
X170200Y100638D01*
X168462Y100638D01*
X168462Y98900D01*
G37*
G36*
X212965Y100238D02*
X213138Y100065D01*
X213138Y100238D01*
X212965Y100238D01*
G37*
G36*
X214662Y100238D02*
X214662Y100065D01*
X214835Y100238D01*
X214662Y100238D01*
G37*
G36*
X218912Y99262D02*
X219085Y99262D01*
X218912Y99435D01*
X218912Y99262D01*
G37*
G36*
X217215Y99262D02*
X217388Y99262D01*
X217388Y99435D01*
X217215Y99262D01*
G37*
G36*
X210412Y99262D02*
X210585Y99262D01*
X210412Y99435D01*
X210412Y99262D01*
G37*
G36*
X208715Y99262D02*
X208888Y99262D01*
X208888Y99435D01*
X208715Y99262D01*
G37*
G36*
X208715Y97738D02*
X208888Y97565D01*
X208888Y97738D01*
X208715Y97738D01*
G37*
G36*
X210412Y97738D02*
X210412Y97565D01*
X210585Y97738D01*
X210412Y97738D01*
G37*
G36*
X217215Y97738D02*
X217388Y97565D01*
X217388Y97738D01*
X217215Y97738D01*
G37*
G36*
X218912Y97738D02*
X218912Y97565D01*
X219085Y97738D01*
X218912Y97738D01*
G37*
G36*
X228012Y95850D02*
X228650Y95850D01*
X228650Y97238D01*
X228012Y97238D01*
X228012Y95850D01*
X228012Y95850D01*
G37*
G36*
X230174Y95850D02*
X230812Y95850D01*
X230812Y95850D01*
X230812Y97238D01*
X230174Y97238D01*
X230174Y95850D01*
G37*
G36*
X196884Y92638D02*
X201516Y92638D01*
X201962Y93084D01*
X201962Y96716D01*
X201516Y97162D01*
X196884Y97162D01*
X196438Y96716D01*
X196438Y93084D01*
X196884Y92638D01*
G37*
G36*
X230286Y93200D02*
X230774Y93200D01*
X230774Y94188D01*
X230774Y94188D01*
X230286Y94188D01*
X230286Y93200D01*
G37*
G36*
X181462Y89162D02*
X183200Y89162D01*
X183200Y90900D01*
X183200Y90900D01*
X181462Y90900D01*
X181462Y89162D01*
G37*
G36*
X168462Y89162D02*
X170200Y89162D01*
X170200Y90900D01*
X170200Y90900D01*
X168462Y90900D01*
X168462Y89162D01*
G37*
G36*
X165200Y89162D02*
X166938Y89162D01*
X166938Y90900D01*
X165200Y90900D01*
X165200Y90900D01*
X165200Y89162D01*
G37*
G36*
X178200Y89162D02*
X179938Y89162D01*
X179938Y90900D01*
X178200Y90900D01*
X178200Y90900D01*
X178200Y89162D01*
G37*
G36*
X165200Y85900D02*
X166938Y85900D01*
X166938Y87638D01*
X165200Y87638D01*
X165200Y85900D01*
X165200Y85900D01*
G37*
G36*
X181462Y85900D02*
X183200Y85900D01*
X183200Y85900D01*
X183200Y87638D01*
X181462Y87638D01*
X181462Y85900D01*
G37*
G36*
X178200Y85900D02*
X179938Y85900D01*
X179938Y87638D01*
X178200Y87638D01*
X178200Y85900D01*
X178200Y85900D01*
G37*
G36*
X168462Y85900D02*
X170200Y85900D01*
X170200Y85900D01*
X170200Y87638D01*
X168462Y87638D01*
X168462Y85900D01*
G37*
G36*
X197200Y82662D02*
X198438Y82662D01*
X198438Y83400D01*
X197200Y83400D01*
X197200Y83400D01*
X197200Y82662D01*
G37*
G36*
X138958Y73088D02*
X139110Y72991D01*
X139021Y73119D01*
X138962Y73412D01*
X138962Y77216D01*
X138516Y77662D01*
X133884Y77662D01*
X133438Y77216D01*
X133438Y73584D01*
X133884Y73138D01*
X138688Y73138D01*
X138958Y73088D01*
G37*
G36*
X91129Y70000D02*
X98367Y70000D01*
X98367Y70000D01*
X98367Y77238D01*
X91129Y77238D01*
X91129Y70000D01*
G37*
G36*
X82367Y70000D02*
X89605Y70000D01*
X89605Y77238D01*
X82367Y77238D01*
X82367Y70000D01*
X82367Y70000D01*
G37*
G36*
X68129Y70000D02*
X75367Y70000D01*
X75367Y70000D01*
X75367Y77238D01*
X68129Y77238D01*
X68129Y70000D01*
G37*
G36*
X59367Y70000D02*
X66605Y70000D01*
X66605Y77238D01*
X59367Y77238D01*
X59367Y70000D01*
X59367Y70000D01*
G37*
G36*
X45129Y70000D02*
X52367Y70000D01*
X52367Y70000D01*
X52367Y77238D01*
X45129Y77238D01*
X45129Y70000D01*
G37*
G36*
X36367Y70000D02*
X43605Y70000D01*
X43605Y77238D01*
X36367Y77238D01*
X36367Y70000D01*
X36367Y70000D01*
G37*
G36*
X6867Y74762D02*
X10105Y74762D01*
X10105Y76500D01*
X6867Y76500D01*
X6867Y76500D01*
X6867Y74762D01*
G37*
G36*
X11629Y74762D02*
X14867Y74762D01*
X14867Y76500D01*
X14867Y76500D01*
X11629Y76500D01*
X11629Y74762D01*
G37*
G36*
X11629Y71500D02*
X14867Y71500D01*
X14867Y71500D01*
X14867Y73238D01*
X11629Y73238D01*
X11629Y71500D01*
G37*
G36*
X6867Y71500D02*
X10105Y71500D01*
X10105Y73238D01*
X6867Y73238D01*
X6867Y71500D01*
X6867Y71500D01*
G37*
G36*
X139884Y67138D02*
X143516Y67138D01*
X143962Y67584D01*
X143962Y72216D01*
X143516Y72662D01*
X139712Y72662D01*
X139442Y72712D01*
X139290Y72809D01*
X139379Y72681D01*
X139438Y72388D01*
X139438Y67584D01*
X139884Y67138D01*
G37*
G36*
X172384Y67138D02*
X176016Y67138D01*
X176462Y67584D01*
X176462Y72216D01*
X176016Y72662D01*
X172384Y72662D01*
X171938Y72216D01*
X171938Y67584D01*
X172384Y67138D01*
G37*
G36*
X159384Y67138D02*
X163016Y67138D01*
X163462Y67584D01*
X163462Y72216D01*
X163016Y72662D01*
X159384Y72662D01*
X158938Y72216D01*
X158938Y67584D01*
X159384Y67138D01*
G37*
G36*
X165884Y67138D02*
X169516Y67138D01*
X169962Y67584D01*
X169962Y72216D01*
X169516Y72662D01*
X165884Y72662D01*
X165438Y72216D01*
X165438Y67584D01*
X165884Y67138D01*
G37*
G36*
X146384Y67138D02*
X150016Y67138D01*
X150462Y67584D01*
X150462Y72216D01*
X150016Y72662D01*
X146384Y72662D01*
X145938Y72216D01*
X145938Y67584D01*
X146384Y67138D01*
G37*
G36*
X152884Y67138D02*
X156516Y67138D01*
X156962Y67584D01*
X156962Y72216D01*
X156516Y72662D01*
X152884Y72662D01*
X152438Y72216D01*
X152438Y67584D01*
X152884Y67138D01*
G37*
G36*
X178884Y67138D02*
X182516Y67138D01*
X183170Y67792D01*
X183397Y67948D01*
X183688Y68012D01*
X183981Y67957D01*
X184230Y67792D01*
X184884Y67138D01*
X188516Y67138D01*
X188962Y67584D01*
X188962Y72216D01*
X188516Y72662D01*
X184884Y72662D01*
X184230Y72008D01*
X184004Y71852D01*
X183712Y71788D01*
X183419Y71843D01*
X183170Y72008D01*
X182516Y72662D01*
X178884Y72662D01*
X178438Y72216D01*
X178438Y67584D01*
X178884Y67138D01*
G37*
G36*
X142928Y15710D02*
X143067Y15684D01*
X144269Y15710D01*
X144285Y15710D01*
X145499Y15710D01*
X145626Y15739D01*
X148781Y15805D01*
X148797Y15805D01*
X149846Y15805D01*
X150572Y16563D01*
X150583Y16574D01*
X152061Y18052D01*
X152277Y18202D01*
X152567Y18271D01*
X152861Y18221D01*
X152960Y18158D01*
X152960Y18662D01*
X158781Y18662D01*
X157994Y19449D01*
X157843Y19665D01*
X157775Y19955D01*
X157825Y20249D01*
X157986Y20501D01*
X158232Y20670D01*
X158430Y20710D01*
X159721Y22001D01*
X159721Y23799D01*
X159164Y24357D01*
X159003Y24594D01*
X158944Y24887D01*
X158944Y25913D01*
X158999Y26195D01*
X159164Y26443D01*
X159721Y27001D01*
X159721Y28799D01*
X158433Y30087D01*
X158265Y30117D01*
X158011Y30274D01*
X157838Y30518D01*
X157774Y30809D01*
X157829Y31102D01*
X157994Y31351D01*
X158781Y32138D01*
X155388Y32138D01*
X155388Y34352D01*
X155369Y34355D01*
X155115Y34512D01*
X154942Y34756D01*
X154878Y35047D01*
X154933Y35340D01*
X155098Y35589D01*
X156527Y37018D01*
X156765Y37179D01*
X157057Y37238D01*
X162616Y37238D01*
X162864Y37486D01*
X163102Y37647D01*
X163394Y37706D01*
X168206Y37706D01*
X168487Y37651D01*
X168736Y37486D01*
X168984Y37238D01*
X174616Y37238D01*
X175062Y37684D01*
X175062Y43316D01*
X174616Y43762D01*
X168984Y43762D01*
X168736Y43514D01*
X168498Y43353D01*
X168206Y43294D01*
X163394Y43294D01*
X163113Y43349D01*
X162864Y43514D01*
X162616Y43762D01*
X156984Y43762D01*
X156736Y43514D01*
X156498Y43353D01*
X156206Y43294D01*
X154900Y43294D01*
X148064Y36458D01*
X147826Y36298D01*
X147534Y36239D01*
X147524Y36239D01*
X147254Y36289D01*
X147002Y36450D01*
X146833Y36696D01*
X146786Y36930D01*
X145442Y38274D01*
X143558Y38274D01*
X142306Y37022D01*
X142079Y36867D01*
X141788Y36803D01*
X141494Y36857D01*
X141262Y37011D01*
X141262Y35238D01*
X139177Y35238D01*
X139039Y35022D01*
X138793Y34853D01*
X138500Y34794D01*
X137343Y34794D01*
X130562Y28014D01*
X130325Y27853D01*
X130032Y27794D01*
X115379Y27794D01*
X115109Y27844D01*
X114858Y28005D01*
X114689Y28251D01*
X114629Y28544D01*
X114629Y30316D01*
X114183Y30762D01*
X108552Y30762D01*
X107898Y30108D01*
X107671Y29952D01*
X107379Y29888D01*
X107086Y29943D01*
X106837Y30108D01*
X106183Y30762D01*
X100552Y30762D01*
X99898Y30108D01*
X99671Y29952D01*
X99379Y29888D01*
X99086Y29943D01*
X98837Y30108D01*
X98183Y30762D01*
X92552Y30762D01*
X91898Y30108D01*
X91671Y29952D01*
X91379Y29888D01*
X91086Y29943D01*
X90837Y30108D01*
X90183Y30762D01*
X84552Y30762D01*
X83898Y30108D01*
X83671Y29952D01*
X83379Y29888D01*
X83086Y29943D01*
X82837Y30108D01*
X82183Y30762D01*
X76552Y30762D01*
X75898Y30108D01*
X75671Y29952D01*
X75379Y29888D01*
X75086Y29943D01*
X74837Y30108D01*
X74127Y30818D01*
X73967Y31056D01*
X73907Y31348D01*
X73907Y32605D01*
X73962Y32886D01*
X74127Y33135D01*
X76640Y35648D01*
X76640Y37752D01*
X75152Y39240D01*
X73048Y39240D01*
X69920Y36112D01*
X69704Y35962D01*
X69414Y35893D01*
X69120Y35943D01*
X68868Y36104D01*
X68699Y36350D01*
X68640Y36643D01*
X68640Y37752D01*
X67152Y39240D01*
X65048Y39240D01*
X60827Y35019D01*
X60827Y31348D01*
X60773Y31067D01*
X60608Y30818D01*
X59898Y30108D01*
X59671Y29952D01*
X59379Y29888D01*
X59086Y29943D01*
X58837Y30108D01*
X58183Y30762D01*
X52552Y30762D01*
X51898Y30108D01*
X51671Y29952D01*
X51379Y29888D01*
X51086Y29943D01*
X50837Y30108D01*
X50183Y30762D01*
X44552Y30762D01*
X43898Y30108D01*
X43671Y29952D01*
X43379Y29888D01*
X43086Y29943D01*
X42837Y30108D01*
X42183Y30762D01*
X36552Y30762D01*
X35898Y30108D01*
X35671Y29952D01*
X35379Y29888D01*
X35086Y29943D01*
X34837Y30108D01*
X34183Y30762D01*
X28552Y30762D01*
X27898Y30108D01*
X27671Y29952D01*
X27379Y29888D01*
X27086Y29943D01*
X26837Y30108D01*
X26183Y30762D01*
X20552Y30762D01*
X20105Y30316D01*
X20105Y30057D01*
X20059Y29798D01*
X19902Y29544D01*
X19659Y29371D01*
X19367Y29307D01*
X19074Y29362D01*
X18825Y29527D01*
X17845Y30507D01*
X16092Y31233D01*
X15858Y31387D01*
X15689Y31633D01*
X15629Y31926D01*
X15629Y36816D01*
X14975Y37470D01*
X14820Y37697D01*
X14756Y37988D01*
X14810Y38281D01*
X14975Y38530D01*
X15629Y39184D01*
X15629Y44816D01*
X14975Y45470D01*
X14820Y45697D01*
X14756Y45988D01*
X14810Y46281D01*
X14975Y46530D01*
X15629Y47184D01*
X15629Y52816D01*
X14975Y53470D01*
X14820Y53697D01*
X14756Y53988D01*
X14810Y54281D01*
X14975Y54530D01*
X15629Y55184D01*
X15629Y60816D01*
X14975Y61470D01*
X14820Y61697D01*
X14756Y61988D01*
X14810Y62281D01*
X14975Y62530D01*
X15629Y63184D01*
X15629Y68816D01*
X15183Y69262D01*
X6552Y69262D01*
X6105Y68816D01*
X6105Y63184D01*
X6759Y62530D01*
X6915Y62304D01*
X6979Y62012D01*
X6924Y61719D01*
X6759Y61470D01*
X6105Y60816D01*
X6105Y55184D01*
X6759Y54530D01*
X6915Y54304D01*
X6979Y54012D01*
X6924Y53719D01*
X6759Y53470D01*
X6105Y52816D01*
X6105Y47184D01*
X6759Y46530D01*
X6915Y46304D01*
X6979Y46012D01*
X6924Y45719D01*
X6759Y45470D01*
X6105Y44816D01*
X6105Y39184D01*
X6759Y38530D01*
X6915Y38304D01*
X6979Y38012D01*
X6924Y37719D01*
X6759Y37470D01*
X6105Y36816D01*
X6105Y31184D01*
X6552Y30738D01*
X9976Y30738D01*
X10235Y30692D01*
X10489Y30535D01*
X10662Y30292D01*
X10726Y30000D01*
X10671Y29707D01*
X10506Y29458D01*
X9993Y28945D01*
X9148Y26904D01*
X9148Y24696D01*
X9993Y22655D01*
X11555Y21093D01*
X13596Y20248D01*
X15804Y20248D01*
X17845Y21093D01*
X18825Y22073D01*
X19041Y22224D01*
X19331Y22293D01*
X19626Y22243D01*
X19877Y22082D01*
X20046Y21836D01*
X20069Y21720D01*
X20552Y21238D01*
X26183Y21238D01*
X26837Y21892D01*
X27064Y22048D01*
X27355Y22112D01*
X27649Y22057D01*
X27898Y21892D01*
X28552Y21238D01*
X34183Y21238D01*
X34837Y21892D01*
X35064Y22048D01*
X35355Y22112D01*
X35649Y22057D01*
X35898Y21892D01*
X36552Y21238D01*
X42183Y21238D01*
X42837Y21892D01*
X43064Y22048D01*
X43355Y22112D01*
X43649Y22057D01*
X43898Y21892D01*
X44552Y21238D01*
X50183Y21238D01*
X50837Y21892D01*
X51064Y22048D01*
X51355Y22112D01*
X51649Y22057D01*
X51898Y21892D01*
X52552Y21238D01*
X58183Y21238D01*
X58837Y21892D01*
X59064Y22048D01*
X59355Y22112D01*
X59649Y22057D01*
X59898Y21892D01*
X60552Y21238D01*
X66183Y21238D01*
X66837Y21892D01*
X67064Y22048D01*
X67355Y22112D01*
X67649Y22057D01*
X67898Y21892D01*
X68552Y21238D01*
X74183Y21238D01*
X74837Y21892D01*
X75064Y22048D01*
X75355Y22112D01*
X75649Y22057D01*
X75898Y21892D01*
X76552Y21238D01*
X82183Y21238D01*
X82837Y21892D01*
X83064Y22048D01*
X83355Y22112D01*
X83649Y22057D01*
X83898Y21892D01*
X84552Y21238D01*
X90183Y21238D01*
X90837Y21892D01*
X91064Y22048D01*
X91355Y22112D01*
X91649Y22057D01*
X91898Y21892D01*
X92552Y21238D01*
X98183Y21238D01*
X98837Y21892D01*
X99064Y22048D01*
X99355Y22112D01*
X99649Y22057D01*
X99898Y21892D01*
X100552Y21238D01*
X106183Y21238D01*
X106837Y21892D01*
X107064Y22048D01*
X107355Y22112D01*
X107649Y22057D01*
X107898Y21892D01*
X108552Y21238D01*
X114183Y21238D01*
X114695Y21750D01*
X114841Y21978D01*
X115087Y22147D01*
X115379Y22206D01*
X132657Y22206D01*
X136676Y26224D01*
X136892Y26375D01*
X137182Y26444D01*
X137476Y26394D01*
X137728Y26233D01*
X137897Y25987D01*
X137956Y25694D01*
X137956Y20593D01*
X138198Y20351D01*
X138354Y20124D01*
X138418Y19832D01*
X138363Y19539D01*
X138210Y19308D01*
X138210Y17198D01*
X139698Y15710D01*
X142928Y15710D01*
G37*
G36*
X68129Y55762D02*
X75367Y55762D01*
X75367Y63000D01*
X75367Y63000D01*
X68129Y63000D01*
X68129Y55762D01*
G37*
G36*
X91129Y55762D02*
X98367Y55762D01*
X98367Y63000D01*
X98367Y63000D01*
X91129Y63000D01*
X91129Y55762D01*
G37*
G36*
X45129Y55762D02*
X52367Y55762D01*
X52367Y63000D01*
X52367Y63000D01*
X45129Y63000D01*
X45129Y55762D01*
G37*
G36*
X36367Y55762D02*
X43605Y55762D01*
X43605Y63000D01*
X36367Y63000D01*
X36367Y63000D01*
X36367Y55762D01*
G37*
G36*
X59367Y55762D02*
X66605Y55762D01*
X66605Y63000D01*
X59367Y63000D01*
X59367Y63000D01*
X59367Y55762D01*
G37*
G36*
X82367Y55762D02*
X89605Y55762D01*
X89605Y63000D01*
X82367Y63000D01*
X82367Y63000D01*
X82367Y55762D01*
G37*
G36*
X82367Y47000D02*
X89605Y47000D01*
X89605Y54238D01*
X82367Y54238D01*
X82367Y47000D01*
X82367Y47000D01*
G37*
G36*
X91129Y47000D02*
X98367Y47000D01*
X98367Y47000D01*
X98367Y54238D01*
X91129Y54238D01*
X91129Y47000D01*
G37*
G36*
X36367Y47000D02*
X43605Y47000D01*
X43605Y54238D01*
X36367Y54238D01*
X36367Y47000D01*
X36367Y47000D01*
G37*
G36*
X45129Y47000D02*
X52367Y47000D01*
X52367Y47000D01*
X52367Y54238D01*
X45129Y54238D01*
X45129Y47000D01*
G37*
G36*
X59367Y47000D02*
X66605Y47000D01*
X66605Y54238D01*
X59367Y54238D01*
X59367Y47000D01*
X59367Y47000D01*
G37*
G36*
X68129Y47000D02*
X75367Y47000D01*
X75367Y47000D01*
X75367Y54238D01*
X68129Y54238D01*
X68129Y47000D01*
G37*
G36*
X124629Y50762D02*
X127867Y50762D01*
X127867Y52500D01*
X127867Y52500D01*
X124629Y52500D01*
X124629Y50762D01*
G37*
G36*
X119867Y50762D02*
X123105Y50762D01*
X123105Y52500D01*
X119867Y52500D01*
X119867Y52500D01*
X119867Y50762D01*
G37*
G36*
X157300Y47000D02*
X159038Y47000D01*
X159038Y48738D01*
X157300Y48738D01*
X157300Y47000D01*
X157300Y47000D01*
G37*
G36*
X160562Y47000D02*
X162300Y47000D01*
X162300Y47000D01*
X162300Y48738D01*
X160562Y48738D01*
X160562Y47000D01*
G37*
G36*
X169300Y47000D02*
X171038Y47000D01*
X171038Y48738D01*
X169300Y48738D01*
X169300Y47000D01*
X169300Y47000D01*
G37*
G36*
X172562Y47000D02*
X174300Y47000D01*
X174300Y47000D01*
X174300Y48738D01*
X172562Y48738D01*
X172562Y47000D01*
G37*
G36*
X191200Y43762D02*
X192938Y43762D01*
X192938Y45500D01*
X191200Y45500D01*
X191200Y45500D01*
X191200Y43762D01*
G37*
G36*
X181400Y43762D02*
X183138Y43762D01*
X183138Y45500D01*
X181400Y45500D01*
X181400Y45500D01*
X181400Y43762D01*
G37*
G36*
X184662Y43762D02*
X186400Y43762D01*
X186400Y45500D01*
X186400Y45500D01*
X184662Y45500D01*
X184662Y43762D01*
G37*
G36*
X194462Y40500D02*
X196200Y40500D01*
X196200Y40500D01*
X196200Y42238D01*
X194462Y42238D01*
X194462Y40500D01*
G37*
G36*
X191200Y40500D02*
X192938Y40500D01*
X192938Y42238D01*
X191200Y42238D01*
X191200Y40500D01*
X191200Y40500D01*
G37*
G36*
X184662Y40500D02*
X186400Y40500D01*
X186400Y40500D01*
X186400Y42238D01*
X184662Y42238D01*
X184662Y40500D01*
G37*
G36*
X181400Y40500D02*
X183138Y40500D01*
X183138Y42238D01*
X181400Y42238D01*
X181400Y40500D01*
X181400Y40500D01*
G37*
G36*
X202054Y14288D02*
X217398Y14288D01*
X218400Y15290D01*
X218638Y15451D01*
X218930Y15510D01*
X221040Y15510D01*
X221321Y15455D01*
X221570Y15290D01*
X221822Y15038D01*
X232454Y15038D01*
X232900Y15484D01*
X232900Y22116D01*
X232454Y22562D01*
X221822Y22562D01*
X221376Y22116D01*
X221376Y21340D01*
X221326Y21070D01*
X221165Y20818D01*
X220919Y20649D01*
X220626Y20590D01*
X218930Y20590D01*
X218649Y20645D01*
X218400Y20810D01*
X217398Y21812D01*
X202054Y21812D01*
X201898Y21655D01*
X201671Y21500D01*
X201379Y21436D01*
X201086Y21490D01*
X200837Y21655D01*
X199172Y23320D01*
X199017Y23547D01*
X198953Y23838D01*
X199008Y24131D01*
X199172Y24380D01*
X205360Y30568D01*
X205598Y30729D01*
X205891Y30788D01*
X217398Y30788D01*
X218547Y31937D01*
X218547Y37163D01*
X217398Y38312D01*
X202054Y38312D01*
X200905Y37163D01*
X200905Y33608D01*
X200850Y33326D01*
X200685Y33077D01*
X198242Y30634D01*
X198026Y30484D01*
X197736Y30415D01*
X197442Y30465D01*
X197190Y30626D01*
X197021Y30872D01*
X196962Y31165D01*
X196962Y36816D01*
X196516Y37262D01*
X190884Y37262D01*
X190438Y36816D01*
X190438Y31057D01*
X190486Y30837D01*
X190431Y30544D01*
X190267Y30295D01*
X189154Y29183D01*
X188802Y28985D01*
X188504Y28973D01*
X188225Y29078D01*
X188009Y29284D01*
X187240Y30388D01*
X187105Y30805D01*
X187160Y31098D01*
X187162Y31102D01*
X187162Y36816D01*
X186716Y37262D01*
X181084Y37262D01*
X180638Y36816D01*
X180638Y34193D01*
X180592Y33934D01*
X180435Y33680D01*
X180192Y33507D01*
X179900Y33443D01*
X179607Y33498D01*
X179358Y33663D01*
X177949Y35071D01*
X177006Y35071D01*
X176724Y35126D01*
X176651Y35174D01*
X174652Y35174D01*
X174587Y35130D01*
X174294Y35071D01*
X173351Y35071D01*
X172079Y33799D01*
X172079Y32001D01*
X173149Y30930D01*
X173305Y30704D01*
X173369Y30412D01*
X173314Y30119D01*
X173149Y29870D01*
X172079Y28799D01*
X172079Y27001D01*
X173367Y25713D01*
X173535Y25683D01*
X173789Y25526D01*
X173962Y25283D01*
X174026Y24991D01*
X173971Y24698D01*
X173806Y24449D01*
X173019Y23662D01*
X178281Y23662D01*
X177494Y24449D01*
X177343Y24665D01*
X177275Y24955D01*
X177325Y25249D01*
X177486Y25501D01*
X177732Y25670D01*
X177930Y25710D01*
X179058Y26837D01*
X179274Y26988D01*
X179564Y27057D01*
X179571Y27056D01*
X179449Y27133D01*
X179280Y27380D01*
X179221Y27672D01*
X179221Y28799D01*
X178151Y29870D01*
X177995Y30097D01*
X177931Y30388D01*
X177986Y30681D01*
X178151Y30930D01*
X179358Y32137D01*
X179574Y32288D01*
X179864Y32357D01*
X180158Y32307D01*
X180410Y32146D01*
X180579Y31900D01*
X180638Y31607D01*
X180638Y31184D01*
X181008Y30815D01*
X181209Y30451D01*
X181216Y30153D01*
X181215Y30147D01*
X181225Y30132D01*
X181301Y29995D01*
X181360Y29703D01*
X181360Y29684D01*
X181672Y29373D01*
X181827Y29146D01*
X181891Y28854D01*
X181837Y28561D01*
X181672Y28312D01*
X180501Y27142D01*
X180285Y26991D01*
X179995Y26922D01*
X179988Y26924D01*
X180110Y26846D01*
X180279Y26600D01*
X180338Y26307D01*
X180338Y25022D01*
X180829Y24530D01*
X180985Y24304D01*
X181049Y24012D01*
X180994Y23719D01*
X180829Y23470D01*
X180338Y22978D01*
X180338Y21022D01*
X180829Y20530D01*
X180985Y20304D01*
X181049Y20012D01*
X180994Y19719D01*
X180829Y19470D01*
X180220Y18861D01*
X179993Y18705D01*
X179702Y18641D01*
X179408Y18696D01*
X179160Y18861D01*
X177933Y20087D01*
X177765Y20117D01*
X177511Y20274D01*
X177338Y20518D01*
X177274Y20809D01*
X177329Y21102D01*
X177494Y21351D01*
X178281Y22138D01*
X173019Y22138D01*
X173806Y21351D01*
X173957Y21135D01*
X174025Y20845D01*
X173975Y20551D01*
X173814Y20299D01*
X173568Y20130D01*
X173370Y20090D01*
X172079Y18799D01*
X172079Y17001D01*
X173351Y15729D01*
X177949Y15729D01*
X179260Y17039D01*
X179486Y17195D01*
X179778Y17259D01*
X180071Y17204D01*
X180320Y17039D01*
X181722Y15638D01*
X183678Y15638D01*
X184170Y16129D01*
X184397Y16285D01*
X184688Y16349D01*
X184981Y16294D01*
X185230Y16129D01*
X185722Y15638D01*
X187678Y15638D01*
X188170Y16129D01*
X188397Y16285D01*
X188688Y16349D01*
X188981Y16294D01*
X189230Y16129D01*
X189722Y15638D01*
X191678Y15638D01*
X192170Y16129D01*
X192397Y16285D01*
X192688Y16349D01*
X192981Y16294D01*
X193230Y16129D01*
X193722Y15638D01*
X195678Y15638D01*
X197144Y17103D01*
X197371Y17259D01*
X197662Y17323D01*
X197956Y17268D01*
X198205Y17103D01*
X198883Y16425D01*
X198892Y16416D01*
X199622Y15661D01*
X200371Y15661D01*
X200652Y15606D01*
X200901Y15441D01*
X202054Y14288D01*
G37*
G36*
X139494Y36762D02*
X139738Y36762D01*
X139738Y37006D01*
X139494Y36762D01*
G37*
G36*
X222138Y34562D02*
X226376Y34562D01*
X226376Y36800D01*
X222138Y36800D01*
X222138Y36800D01*
X222138Y34562D01*
G37*
G36*
X227900Y34562D02*
X232138Y34562D01*
X232138Y36800D01*
X232138Y36800D01*
X227900Y36800D01*
X227900Y34562D01*
G37*
G36*
X156912Y33662D02*
X158781Y33662D01*
X158134Y34309D01*
X156912Y34309D01*
X156912Y33662D01*
G37*
G36*
X124629Y31500D02*
X127867Y31500D01*
X127867Y31500D01*
X127867Y33238D01*
X124629Y33238D01*
X124629Y31500D01*
G37*
G36*
X119867Y31500D02*
X123105Y31500D01*
X123105Y33238D01*
X119867Y33238D01*
X119867Y31500D01*
X119867Y31500D01*
G37*
G36*
X227900Y30800D02*
X232138Y30800D01*
X232138Y30800D01*
X232138Y33038D01*
X227900Y33038D01*
X227900Y30800D01*
G37*
G36*
X222138Y30800D02*
X226376Y30800D01*
X226376Y33038D01*
X222138Y33038D01*
X222138Y30800D01*
X222138Y30800D01*
G37*
G36*
X156912Y16491D02*
X158134Y16491D01*
X158781Y17138D01*
X156912Y17138D01*
X156912Y16491D01*
G37*
G36*
X154166Y16491D02*
X155388Y16491D01*
X155388Y17138D01*
X153519Y17138D01*
X154166Y16491D01*
G37*
G36*
X4920Y7762D02*
X9238Y7762D01*
X9238Y12080D01*
X7896Y12080D01*
X4920Y9104D01*
X4920Y7762D01*
G37*
G36*
X10762Y7762D02*
X15080Y7762D01*
X15080Y9104D01*
X12104Y12080D01*
X10762Y12080D01*
X10762Y7762D01*
G37*
%LPD*%
G36*
X147387Y20857D02*
X144310Y20792D01*
X144024Y20842D01*
X143772Y21003D01*
X143603Y21249D01*
X143544Y21542D01*
X143544Y23982D01*
X143599Y24264D01*
X143764Y24512D01*
X147294Y28043D01*
X147294Y28556D01*
X147344Y28826D01*
X147505Y29078D01*
X147751Y29247D01*
X148044Y29306D01*
X148716Y29306D01*
X149841Y30431D01*
X150079Y30591D01*
X150105Y30597D01*
X152061Y32552D01*
X152277Y32703D01*
X152567Y32771D01*
X152861Y32721D01*
X153113Y32561D01*
X153148Y32510D01*
X154306Y31351D01*
X154457Y31135D01*
X154525Y30845D01*
X154475Y30551D01*
X154314Y30299D01*
X154068Y30130D01*
X153870Y30090D01*
X152579Y28799D01*
X152579Y27001D01*
X152859Y26720D01*
X153010Y26504D01*
X153079Y26214D01*
X153029Y25920D01*
X152868Y25668D01*
X152622Y25499D01*
X152329Y25440D01*
X152265Y25440D01*
X147901Y21076D01*
X147678Y20922D01*
X147387Y20857D01*
G37*
G36*
X191703Y20421D02*
X191410Y20362D01*
X189812Y20362D01*
X189542Y20412D01*
X189290Y20573D01*
X189121Y20819D01*
X189062Y21112D01*
X189062Y22500D01*
X189112Y22770D01*
X189273Y23022D01*
X189519Y23191D01*
X189812Y23250D01*
X189924Y23250D01*
X190092Y23231D01*
X190347Y23115D01*
X191133Y23241D01*
X191252Y23250D01*
X191410Y23250D01*
X191680Y23200D01*
X191932Y23039D01*
X192101Y22793D01*
X192160Y22500D01*
X192160Y21112D01*
X192110Y20842D01*
X191949Y20590D01*
X191703Y20421D01*
G37*
D10*
X171800Y49500D03*
X171800Y40500D03*
D11*
X10867Y122000D03*
X10867Y114000D03*
X10867Y106000D03*
X10867Y98000D03*
X10867Y90000D03*
X10867Y82000D03*
X10867Y74000D03*
X10867Y66000D03*
X10867Y58000D03*
X10867Y50000D03*
X10867Y42000D03*
X10867Y34000D03*
D12*
X23367Y26000D03*
X31367Y26000D03*
X39367Y26000D03*
X47367Y26000D03*
X55367Y26000D03*
X63367Y26000D03*
X71367Y26000D03*
X79367Y26000D03*
X87367Y26000D03*
X95367Y26000D03*
X103367Y26000D03*
X111367Y26000D03*
D11*
X123867Y34000D03*
X123867Y42000D03*
X123867Y50000D03*
X123867Y58000D03*
X123867Y66000D03*
X123867Y74000D03*
X123867Y82000D03*
X123867Y90000D03*
X123867Y98000D03*
X123867Y106000D03*
X123867Y114000D03*
X123867Y122000D03*
D12*
X111367Y130000D03*
X103367Y130000D03*
X95367Y130000D03*
X87367Y130000D03*
X79367Y130000D03*
X71367Y130000D03*
X63367Y130000D03*
X55367Y130000D03*
X47367Y130000D03*
X39367Y130000D03*
X31367Y130000D03*
X23367Y130000D03*
D13*
X44367Y101000D03*
X67367Y101000D03*
X90367Y101000D03*
X44367Y78000D03*
X67367Y78000D03*
X90367Y78000D03*
X44367Y55000D03*
X67367Y55000D03*
X90367Y55000D03*
D14*
X229350Y103462D03*
X224250Y103462D03*
X229550Y109800D03*
X224450Y109800D03*
X229412Y98000D03*
X224312Y98000D03*
D15*
X243100Y57700D02*
X243100Y46500D01*
X205900Y46500D01*
X205900Y57700D01*
X243100Y57700D01*
X243100Y49160D02*
X205900Y49160D01*
X205900Y51820D02*
X243100Y51820D01*
X243100Y54480D02*
X205900Y54480D01*
X205900Y57140D02*
X243100Y57140D01*
D16*
X214500Y52100D03*
X234500Y52100D03*
D17*
X144500Y36000D03*
X144500Y32000D03*
X140500Y32000D03*
X140500Y36000D03*
D18*
X14700Y25800D03*
D15*
X205900Y74000D02*
X205900Y85200D01*
X243100Y85200D01*
X243100Y74000D01*
X205900Y74000D01*
X205900Y76660D02*
X243100Y76660D01*
X243100Y79320D02*
X205900Y79320D01*
X205900Y81980D02*
X243100Y81980D01*
X243100Y84640D02*
X205900Y84640D01*
D16*
X234500Y79600D03*
X214500Y79600D03*
D10*
X159800Y40500D03*
X159800Y49500D03*
D19*
X194700Y18000D03*
X190700Y18000D03*
X186700Y18000D03*
X182700Y18000D03*
X194700Y22000D03*
X190700Y22000D03*
X186700Y22000D03*
X182700Y22000D03*
X194700Y26000D03*
X190700Y26000D03*
X186700Y26000D03*
X182700Y26000D03*
D20*
X218150Y108500D03*
X218150Y103500D03*
X218150Y98500D03*
X213900Y106000D03*
X213900Y101000D03*
X209650Y108500D03*
X209650Y103500D03*
X209650Y98500D03*
D21*
X216585Y19850D02*
X216585Y16250D01*
X202867Y16250D01*
X202867Y19850D01*
X216585Y19850D01*
X216585Y18530D02*
X202867Y18530D01*
X216585Y32750D02*
X216585Y36350D01*
X216585Y32750D02*
X202867Y32750D01*
X202867Y36350D01*
X216585Y36350D01*
X216585Y35030D02*
X202867Y35030D01*
D22*
X227138Y33800D03*
X227138Y18800D03*
D10*
X193700Y43000D03*
X193700Y34000D03*
X183900Y43000D03*
X183900Y34000D03*
D23*
X140750Y18250D03*
X140750Y21750D03*
X144250Y18250D03*
X144250Y21750D03*
D24*
X10000Y7000D03*
X40500Y7000D03*
D25*
X223587Y122362D02*
X223587Y124638D01*
X226113Y124638D01*
X226113Y122362D01*
X223587Y122362D01*
X223587Y122576D02*
X226113Y122576D01*
X226113Y122790D02*
X223587Y122790D01*
X223587Y123004D02*
X226113Y123004D01*
X226113Y123218D02*
X223587Y123218D01*
X223587Y123432D02*
X226113Y123432D01*
X226113Y123646D02*
X223587Y123646D01*
X223587Y123860D02*
X226113Y123860D01*
X226113Y124074D02*
X223587Y124074D01*
X223587Y124288D02*
X226113Y124288D01*
X226113Y124502D02*
X223587Y124502D01*
X223587Y127362D02*
X223587Y129638D01*
X226113Y129638D01*
X226113Y127362D01*
X223587Y127362D01*
X223587Y127576D02*
X226113Y127576D01*
X226113Y127790D02*
X223587Y127790D01*
X223587Y128004D02*
X226113Y128004D01*
X226113Y128218D02*
X223587Y128218D01*
X223587Y128432D02*
X226113Y128432D01*
X226113Y128646D02*
X223587Y128646D01*
X223587Y128860D02*
X226113Y128860D01*
X226113Y129074D02*
X223587Y129074D01*
X223587Y129288D02*
X226113Y129288D01*
X226113Y129502D02*
X223587Y129502D01*
X221062Y132387D02*
X221062Y134913D01*
X223338Y134913D01*
X223338Y132387D01*
X221062Y132387D01*
X221062Y132601D02*
X223338Y132601D01*
X223338Y132815D02*
X221062Y132815D01*
X221062Y133029D02*
X223338Y133029D01*
X223338Y133243D02*
X221062Y133243D01*
X221062Y133457D02*
X223338Y133457D01*
X223338Y133671D02*
X221062Y133671D01*
X221062Y133885D02*
X223338Y133885D01*
X223338Y134099D02*
X221062Y134099D01*
X221062Y134313D02*
X223338Y134313D01*
X223338Y134527D02*
X221062Y134527D01*
X221062Y134741D02*
X223338Y134741D01*
X216062Y134913D02*
X216062Y132387D01*
X216062Y134913D02*
X218338Y134913D01*
X218338Y132387D01*
X216062Y132387D01*
X216062Y132601D02*
X218338Y132601D01*
X218338Y132815D02*
X216062Y132815D01*
X216062Y133029D02*
X218338Y133029D01*
X218338Y133243D02*
X216062Y133243D01*
X216062Y133457D02*
X218338Y133457D01*
X218338Y133671D02*
X216062Y133671D01*
X216062Y133885D02*
X218338Y133885D01*
X218338Y134099D02*
X216062Y134099D01*
X216062Y134313D02*
X218338Y134313D01*
X218338Y134527D02*
X216062Y134527D01*
X216062Y134741D02*
X218338Y134741D01*
X211062Y134913D02*
X211062Y132387D01*
X211062Y134913D02*
X213338Y134913D01*
X213338Y132387D01*
X211062Y132387D01*
X211062Y132601D02*
X213338Y132601D01*
X213338Y132815D02*
X211062Y132815D01*
X211062Y133029D02*
X213338Y133029D01*
X213338Y133243D02*
X211062Y133243D01*
X211062Y133457D02*
X213338Y133457D01*
X213338Y133671D02*
X211062Y133671D01*
X211062Y133885D02*
X213338Y133885D01*
X213338Y134099D02*
X211062Y134099D01*
X211062Y134313D02*
X213338Y134313D01*
X213338Y134527D02*
X211062Y134527D01*
X211062Y134741D02*
X213338Y134741D01*
X208287Y129638D02*
X208287Y127362D01*
X208287Y129638D02*
X210813Y129638D01*
X210813Y127362D01*
X208287Y127362D01*
X208287Y127576D02*
X210813Y127576D01*
X210813Y127790D02*
X208287Y127790D01*
X208287Y128004D02*
X210813Y128004D01*
X210813Y128218D02*
X208287Y128218D01*
X208287Y128432D02*
X210813Y128432D01*
X210813Y128646D02*
X208287Y128646D01*
X208287Y128860D02*
X210813Y128860D01*
X210813Y129074D02*
X208287Y129074D01*
X208287Y129288D02*
X210813Y129288D01*
X210813Y129502D02*
X208287Y129502D01*
X208287Y124638D02*
X208287Y122362D01*
X208287Y124638D02*
X210813Y124638D01*
X210813Y122362D01*
X208287Y122362D01*
X208287Y122576D02*
X210813Y122576D01*
X210813Y122790D02*
X208287Y122790D01*
X208287Y123004D02*
X210813Y123004D01*
X210813Y123218D02*
X208287Y123218D01*
X208287Y123432D02*
X210813Y123432D01*
X210813Y123646D02*
X208287Y123646D01*
X208287Y123860D02*
X210813Y123860D01*
X210813Y124074D02*
X208287Y124074D01*
X208287Y124288D02*
X210813Y124288D01*
X210813Y124502D02*
X208287Y124502D01*
X211062Y119613D02*
X211062Y117087D01*
X211062Y119613D02*
X213338Y119613D01*
X213338Y117087D01*
X211062Y117087D01*
X211062Y117301D02*
X213338Y117301D01*
X213338Y117515D02*
X211062Y117515D01*
X211062Y117729D02*
X213338Y117729D01*
X213338Y117943D02*
X211062Y117943D01*
X211062Y118157D02*
X213338Y118157D01*
X213338Y118371D02*
X211062Y118371D01*
X211062Y118585D02*
X213338Y118585D01*
X213338Y118799D02*
X211062Y118799D01*
X211062Y119013D02*
X213338Y119013D01*
X213338Y119227D02*
X211062Y119227D01*
X211062Y119441D02*
X213338Y119441D01*
X216062Y119613D02*
X216062Y117087D01*
X216062Y119613D02*
X218338Y119613D01*
X218338Y117087D01*
X216062Y117087D01*
X216062Y117301D02*
X218338Y117301D01*
X218338Y117515D02*
X216062Y117515D01*
X216062Y117729D02*
X218338Y117729D01*
X218338Y117943D02*
X216062Y117943D01*
X216062Y118157D02*
X218338Y118157D01*
X218338Y118371D02*
X216062Y118371D01*
X216062Y118585D02*
X218338Y118585D01*
X218338Y118799D02*
X216062Y118799D01*
X216062Y119013D02*
X218338Y119013D01*
X218338Y119227D02*
X216062Y119227D01*
X216062Y119441D02*
X218338Y119441D01*
D26*
X221040Y119610D02*
X221040Y117090D01*
X221040Y119610D02*
X223360Y119610D01*
X223360Y117090D01*
X221040Y117090D01*
X221040Y117308D02*
X223360Y117308D01*
X223360Y117526D02*
X221040Y117526D01*
X221040Y117744D02*
X223360Y117744D01*
X223360Y117962D02*
X221040Y117962D01*
X221040Y118180D02*
X223360Y118180D01*
X223360Y118398D02*
X221040Y118398D01*
X221040Y118616D02*
X223360Y118616D01*
X223360Y118834D02*
X221040Y118834D01*
X221040Y119052D02*
X223360Y119052D01*
X223360Y119270D02*
X221040Y119270D01*
X221040Y119488D02*
X223360Y119488D01*
D27*
X199200Y75400D03*
X199200Y81900D03*
X199200Y88400D03*
X199200Y94900D03*
X199200Y101400D03*
X199200Y107900D03*
X199200Y114400D03*
X199200Y120900D03*
X199200Y127400D03*
D28*
X193700Y132900D03*
X187200Y132900D03*
X180700Y132900D03*
X173700Y132900D03*
X167700Y132900D03*
X161200Y132900D03*
X154700Y132900D03*
X148200Y132900D03*
X141700Y132900D03*
D27*
X136200Y127400D03*
X136200Y120900D03*
X136200Y114400D03*
X136200Y107900D03*
X136200Y101400D03*
X136200Y94900D03*
X136200Y88400D03*
X136200Y81900D03*
X136200Y75400D03*
D28*
X141700Y69900D03*
X148200Y69900D03*
X154700Y69900D03*
X161200Y69900D03*
X167700Y69900D03*
X174200Y69900D03*
X180700Y69900D03*
X186700Y69900D03*
X193700Y69900D03*
D10*
X167700Y101400D03*
X167700Y88400D03*
X180700Y88400D03*
X180700Y101400D03*
X180700Y114400D03*
X167700Y114400D03*
X154700Y114400D03*
D29*
X154750Y32900D02*
X157550Y32900D01*
X157550Y27900D02*
X154750Y27900D01*
X154750Y22900D02*
X157550Y22900D01*
X157550Y17900D02*
X154750Y17900D01*
X174250Y17900D02*
X177050Y17900D01*
X177050Y22900D02*
X174250Y22900D01*
X174250Y27900D02*
X177050Y27900D01*
X177050Y32900D02*
X174250Y32900D01*
D30*
X165900Y25400D03*
D31*
X224524Y92438D03*
X229524Y92438D03*
D32*
X217200Y133650D03*
X186700Y18000D03*
X175650Y32900D03*
X209650Y108500D03*
X229350Y103462D03*
D33*
X123867Y122000D02*
X122100Y122000D01*
X112287Y112187D01*
X112087Y112187D01*
D32*
X112087Y112187D03*
X224850Y128500D03*
X182700Y18000D03*
X175650Y27900D03*
X213900Y106000D03*
D33*
X123867Y114000D02*
X121267Y114000D01*
X115100Y107833D01*
D32*
X229550Y109800D03*
D33*
X115100Y107833D02*
X108567Y107833D01*
X105000Y111400D01*
X104765Y111165D01*
X104765Y111035D01*
D32*
X104765Y111035D03*
X161200Y127794D03*
D33*
X63367Y33967D02*
X63367Y26000D01*
X63367Y33967D02*
X66100Y36700D01*
D32*
X66100Y36700D03*
D33*
X161200Y127794D02*
X161200Y132900D01*
D32*
X154735Y123535D03*
D33*
X71367Y33967D02*
X71367Y26000D01*
X71367Y33967D02*
X74100Y36700D01*
D32*
X74100Y36700D03*
D33*
X154735Y132865D02*
X154700Y132900D01*
X154735Y132865D02*
X154735Y123535D01*
D32*
X78000Y120000D03*
X27000Y101548D03*
D34*
X79367Y121367D02*
X79367Y130000D01*
X79367Y121367D02*
X78000Y120000D01*
D32*
X70000Y120000D03*
X27000Y111000D03*
D34*
X71367Y121367D02*
X71367Y130000D01*
X71367Y121367D02*
X70000Y120000D01*
D33*
X39367Y130000D02*
X31367Y130000D01*
X23367Y130000D02*
X23367Y123767D01*
X23300Y123700D01*
X26000Y121000D01*
X44800Y121000D01*
X47367Y123567D01*
X47367Y130000D01*
X190700Y26000D02*
X190990Y25790D01*
X193700Y30136D02*
X193700Y34000D01*
X193700Y30136D02*
X190990Y27426D01*
X190990Y25790D01*
D34*
X156150Y27900D02*
X156150Y22900D01*
D32*
X190700Y26000D03*
X156150Y22900D03*
X136200Y114400D03*
D33*
X140750Y18250D02*
X144250Y18250D01*
X148762Y18345D02*
X153317Y22900D01*
X148762Y18345D02*
X144250Y18250D01*
X153317Y22900D02*
X156150Y22900D01*
D34*
X123267Y89400D02*
X123867Y90000D01*
X10867Y90000D02*
X10867Y98000D01*
X10867Y90000D02*
X10867Y82000D01*
X11394Y89500D02*
X27000Y89500D01*
X11394Y89500D02*
X11367Y89501D01*
X10867Y90000D01*
D32*
X209550Y128500D03*
D34*
X213900Y128500D01*
X218900Y123500D01*
X222400Y123500D01*
X224850Y123500D01*
X222200Y123300D02*
X222200Y118350D01*
X222200Y123300D02*
X222400Y123500D01*
X222200Y118350D02*
X222200Y115500D01*
X218150Y111450D01*
X218150Y108500D01*
X224450Y109800D02*
X224450Y103662D01*
X224250Y103462D01*
X223150Y108500D02*
X224450Y109800D01*
X223150Y108500D02*
X218150Y108500D01*
X144600Y32100D02*
X144500Y32000D01*
X144600Y32100D02*
X147559Y32100D01*
X148904Y33445D01*
X149002Y33445D01*
X156057Y40500D01*
X159800Y40500D01*
X140750Y25450D02*
X140750Y21750D01*
X140750Y25450D02*
X144500Y29200D01*
X144500Y32000D01*
X27100Y89400D02*
X27000Y89500D01*
D32*
X103100Y89300D03*
D34*
X103200Y89400D02*
X27100Y89400D01*
X103200Y89400D02*
X123267Y89400D01*
X103200Y89400D02*
X103100Y89300D01*
D32*
X27100Y89400D03*
D34*
X159800Y40500D02*
X171800Y40500D01*
D32*
X171800Y40500D03*
X56500Y115000D03*
D34*
X63367Y121867D02*
X63367Y130000D01*
X63367Y121867D02*
X56500Y115000D01*
D32*
X149400Y102300D03*
X224200Y97900D03*
X115567Y101900D03*
D33*
X119667Y106000D01*
X123867Y106000D01*
X130800Y106000D01*
X130900Y105900D01*
X130900Y82500D01*
X130400Y82000D01*
X123867Y82000D01*
D32*
X224524Y92438D03*
D35*
X156348Y58900D02*
X155871Y58856D01*
X155395Y58800D01*
X154920Y58733D01*
X154447Y58654D01*
X153976Y58564D01*
X153508Y58463D01*
X153042Y58351D01*
X152578Y58228D01*
X152118Y58093D01*
X151662Y57948D01*
X151209Y57792D01*
X150759Y57625D01*
X150314Y57447D01*
X149873Y57258D01*
X149437Y57059D01*
X149006Y56850D01*
X148580Y56630D01*
X148159Y56401D01*
X147744Y56161D01*
X147335Y55911D01*
X146932Y55652D01*
X146535Y55383D01*
X146145Y55105D01*
X145761Y54817D01*
X145385Y54520D01*
X145016Y54215D01*
X144654Y53900D01*
X144300Y53577D01*
X143953Y53246D01*
X143615Y52906D01*
X143285Y52559D01*
X142963Y52203D01*
X135272Y44797D01*
X135271Y44797D02*
X135097Y44633D01*
X134919Y44473D01*
X134736Y44317D01*
X134550Y44166D01*
X134361Y44020D01*
X134168Y43878D01*
X133972Y43740D01*
X133773Y43608D01*
X133570Y43480D01*
X133364Y43357D01*
X133156Y43239D01*
X132945Y43126D01*
X132731Y43018D01*
X132514Y42915D01*
X132296Y42818D01*
X132075Y42726D01*
X131851Y42639D01*
X131626Y42557D01*
X131399Y42481D01*
X131170Y42410D01*
X130940Y42345D01*
X130708Y42286D01*
X130474Y42231D01*
X130240Y42183D01*
X130004Y42140D01*
X129767Y42103D01*
X129530Y42072D01*
X129292Y42046D01*
X129053Y42026D01*
X128814Y42011D01*
X128575Y42003D01*
X128335Y42000D01*
D36*
X123867Y42000D01*
D35*
X156348Y58900D02*
X181646Y58900D01*
X202300Y51800D02*
X224500Y52100D01*
X202300Y51800D02*
X202008Y51800D01*
X201715Y51807D01*
X201423Y51820D01*
X201131Y51842D01*
X200840Y51870D01*
X200550Y51905D01*
X200260Y51948D01*
X199972Y51997D01*
X199685Y52054D01*
X199399Y52118D01*
X199115Y52188D01*
X198833Y52266D01*
X198553Y52350D01*
X198275Y52442D01*
X198000Y52540D01*
X197726Y52645D01*
X197456Y52756D01*
X197188Y52874D01*
X196923Y52999D01*
X196662Y53130D01*
X196404Y53267D01*
X196149Y53411D01*
X195898Y53561D01*
X195650Y53717D01*
X195406Y53879D01*
X195167Y54047D01*
X194932Y54221D01*
X194700Y54400D01*
X194303Y54709D01*
X193898Y55007D01*
X193487Y55296D01*
X193068Y55575D01*
X192643Y55843D01*
X192212Y56101D01*
X191774Y56349D01*
X191330Y56586D01*
X190881Y56811D01*
X190426Y57026D01*
X189967Y57230D01*
X189502Y57423D01*
X189033Y57604D01*
X188560Y57773D01*
X188082Y57931D01*
X187601Y58078D01*
X187117Y58212D01*
X186629Y58335D01*
X186139Y58446D01*
X185646Y58545D01*
X185151Y58632D01*
X184654Y58707D01*
X184155Y58770D01*
X183654Y58820D01*
X183153Y58858D01*
X182651Y58885D01*
X182148Y58899D01*
X181645Y58900D01*
D34*
X140500Y32000D02*
X138500Y32000D01*
X131500Y25000D01*
X112367Y25000D01*
X111367Y26000D01*
D32*
X144500Y36000D03*
X136200Y127400D03*
D33*
X136200Y120900D01*
D35*
X199200Y75400D02*
X210300Y75400D01*
X214500Y79600D01*
X224500Y79600D02*
X234500Y79600D01*
D32*
X95800Y129800D03*
D37*
X95600Y130000D01*
X95367Y130000D01*
D32*
X167600Y127894D03*
D33*
X167600Y132800D01*
X194700Y22000D02*
X196900Y22000D01*
X200699Y18201D01*
X209726Y18050D01*
X226388Y18050D01*
X227138Y18800D01*
D32*
X194700Y22000D03*
D33*
X194700Y26000D02*
X197200Y26000D01*
X205750Y34550D01*
X186700Y26000D02*
X186432Y25968D01*
X186432Y27104D01*
X183900Y30736D02*
X183900Y34000D01*
X183900Y30736D02*
X186432Y27104D01*
D32*
X190100Y65400D03*
X146300Y64700D03*
X139700Y60800D03*
X132500Y53800D03*
X151700Y48900D03*
X180300Y50500D03*
X211900Y63660D03*
X224274Y63660D03*
X236000Y63660D03*
X201386Y62114D03*
D33*
X193700Y43000D02*
X183900Y43000D01*
D32*
X190700Y22000D03*
X175650Y22900D03*
D34*
X168400Y22900D01*
X168000Y23300D01*
X165900Y25400D01*
X164900Y32900D02*
X156150Y32900D01*
X164900Y32900D02*
X166000Y31800D01*
X166000Y25500D01*
X165900Y25400D01*
X162600Y17900D02*
X156150Y17900D01*
X162600Y17900D02*
X168000Y23300D01*
D33*
X154205Y32900D02*
X150758Y29453D01*
X150891Y26391D02*
X146250Y21750D01*
X144250Y21750D01*
X150891Y26391D02*
X150758Y29453D01*
X154205Y32900D02*
X156150Y32900D01*
D32*
X145400Y43500D03*
X133500Y34600D03*
X189200Y47900D03*
X166000Y50500D03*
X201486Y42114D03*
X115086Y42414D03*
X114886Y62614D03*
X114686Y80714D03*
X151686Y79714D03*
X166686Y79714D03*
X182686Y79714D03*
X235686Y40714D03*
X223686Y40714D03*
X211686Y40714D03*
X235900Y92660D03*
X235900Y101660D03*
X232900Y134660D03*
X182900Y124660D03*
X228686Y6714D03*
X202686Y6714D03*
X174686Y6714D03*
X56686Y37714D03*
X30686Y37714D03*
X30686Y67714D03*
X86686Y119714D03*
X63686Y6714D03*
X92686Y6714D03*
M02*
