G04 EAGLE Gerber RS-274X export*
G75*
%MOMM*%
%FSLAX34Y34*%
%LPD*%
%IN*%
%IPPOS*%
%AMOC8*
5,1,8,0,0,1.08239X$1,22.5*%
G01*
G04 Define Apertures*
%ADD10C,0.254000*%
D10*
X1000Y10000D02*
X1038Y9128D01*
X1152Y8264D01*
X1341Y7412D01*
X1603Y6580D01*
X1937Y5774D01*
X2340Y5000D01*
X2808Y4264D01*
X3340Y3572D01*
X3929Y2929D01*
X4572Y2340D01*
X5264Y1808D01*
X6000Y1340D01*
X6774Y937D01*
X7580Y603D01*
X8412Y341D01*
X9264Y152D01*
X10128Y38D01*
X11000Y0D01*
X228000Y0D01*
X228872Y38D01*
X229736Y152D01*
X230588Y341D01*
X231420Y603D01*
X232226Y937D01*
X233000Y1340D01*
X233736Y1808D01*
X234428Y2340D01*
X235071Y2929D01*
X235660Y3572D01*
X236192Y4264D01*
X236660Y5000D01*
X237063Y5774D01*
X237397Y6580D01*
X237659Y7412D01*
X237848Y8264D01*
X237962Y9128D01*
X238000Y10000D01*
X238000Y20000D01*
X238019Y20436D01*
X238076Y20868D01*
X238170Y21294D01*
X238302Y21710D01*
X238468Y22113D01*
X238670Y22500D01*
X238904Y22868D01*
X239170Y23214D01*
X239464Y23536D01*
X239786Y23830D01*
X240132Y24096D01*
X240500Y24330D01*
X240887Y24532D01*
X241290Y24698D01*
X241706Y24830D01*
X242132Y24924D01*
X242564Y24981D01*
X243000Y25000D01*
X243174Y25008D01*
X243347Y25030D01*
X243518Y25068D01*
X243684Y25121D01*
X243845Y25187D01*
X244000Y25268D01*
X244147Y25362D01*
X244286Y25468D01*
X244414Y25586D01*
X244532Y25714D01*
X244638Y25853D01*
X244732Y26000D01*
X244813Y26155D01*
X244879Y26316D01*
X244932Y26482D01*
X244970Y26653D01*
X244992Y26826D01*
X245000Y27000D01*
X245000Y114000D01*
X244996Y114087D01*
X244985Y114174D01*
X244966Y114259D01*
X244940Y114342D01*
X244906Y114423D01*
X244866Y114500D01*
X244819Y114574D01*
X244766Y114643D01*
X244707Y114707D01*
X244643Y114766D01*
X244574Y114819D01*
X244500Y114866D01*
X244423Y114906D01*
X244342Y114940D01*
X244259Y114966D01*
X244174Y114985D01*
X244087Y114996D01*
X244000Y115000D01*
X243564Y115019D01*
X243132Y115076D01*
X242706Y115170D01*
X242290Y115302D01*
X241887Y115468D01*
X241500Y115670D01*
X241132Y115904D01*
X240786Y116170D01*
X240464Y116464D01*
X240170Y116786D01*
X239904Y117132D01*
X239670Y117500D01*
X239468Y117887D01*
X239302Y118290D01*
X239170Y118706D01*
X239076Y119132D01*
X239019Y119564D01*
X239000Y120000D01*
X239000Y130000D01*
X238962Y130872D01*
X238848Y131736D01*
X238659Y132588D01*
X238397Y133420D01*
X238063Y134226D01*
X237660Y135000D01*
X237192Y135736D01*
X236660Y136428D01*
X236071Y137071D01*
X235428Y137660D01*
X234736Y138192D01*
X234000Y138660D01*
X233226Y139063D01*
X232420Y139397D01*
X231588Y139659D01*
X230736Y139848D01*
X229872Y139962D01*
X229000Y140000D01*
X11000Y140000D01*
X10128Y139962D01*
X9264Y139848D01*
X8412Y139659D01*
X7580Y139397D01*
X6774Y139063D01*
X6000Y138660D01*
X5264Y138192D01*
X4572Y137660D01*
X3929Y137071D01*
X3340Y136428D01*
X2808Y135736D01*
X2340Y135000D01*
X1937Y134226D01*
X1603Y133420D01*
X1341Y132588D01*
X1152Y131736D01*
X1038Y130872D01*
X1000Y130000D01*
X1000Y10000D01*
M02*
