G04 EAGLE Gerber RS-274X export*
G75*
%MOMM*%
%FSLAX34Y34*%
%LPD*%
%INSilkscreen Top*%
%IPPOS*%
%AMOC8*
5,1,8,0,0,1.08239X$1,22.5*%
G01*
G04 Define Apertures*
%ADD10C,0.152400*%
%ADD11R,0.500000X0.300000*%
%ADD12C,0.076200*%
%ADD13C,0.127000*%
%ADD14R,0.300000X0.300000*%
%ADD15C,0.200000*%
%ADD16C,0.120000*%
%ADD17R,0.800000X0.300000*%
%ADD18C,0.101600*%
%ADD19C,0.500000*%
G36*
X26218Y114425D02*
X26073Y114432D01*
X25937Y114453D01*
X25810Y114487D01*
X25693Y114535D01*
X25587Y114596D01*
X25494Y114669D01*
X25413Y114755D01*
X25345Y114853D01*
X25291Y114962D01*
X25252Y115082D01*
X25229Y115211D01*
X25222Y115351D01*
X25222Y116911D01*
X25554Y116911D01*
X25554Y115378D01*
X25565Y115221D01*
X25596Y115083D01*
X25650Y114966D01*
X25724Y114869D01*
X25819Y114793D01*
X25933Y114738D01*
X26065Y114706D01*
X26217Y114695D01*
X26373Y114706D01*
X26510Y114740D01*
X26630Y114796D01*
X26731Y114875D01*
X26811Y114975D01*
X26868Y115096D01*
X26903Y115238D01*
X26914Y115401D01*
X26914Y116911D01*
X27245Y116911D01*
X27245Y115382D01*
X27237Y115238D01*
X27213Y115105D01*
X27174Y114982D01*
X27119Y114869D01*
X27049Y114767D01*
X26966Y114679D01*
X26871Y114602D01*
X26762Y114539D01*
X26642Y114489D01*
X26511Y114454D01*
X26370Y114432D01*
X26218Y114425D01*
G37*
G36*
X29317Y114460D02*
X27781Y114460D01*
X27781Y114726D01*
X28405Y114726D01*
X28405Y116612D01*
X27852Y116217D01*
X27852Y116513D01*
X28431Y116911D01*
X28720Y116911D01*
X28720Y114726D01*
X29317Y114726D01*
X29317Y114460D01*
G37*
G36*
X211876Y25300D02*
X210340Y25300D01*
X210340Y25566D01*
X210965Y25566D01*
X210965Y27452D01*
X210411Y27057D01*
X210411Y27353D01*
X210991Y27751D01*
X211279Y27751D01*
X211279Y25566D01*
X211876Y25566D01*
X211876Y25300D01*
G37*
G36*
X209963Y25300D02*
X208392Y25300D01*
X208392Y27751D01*
X208724Y27751D01*
X208724Y25571D01*
X209963Y25571D01*
X209963Y25300D01*
G37*
G36*
X226223Y24825D02*
X226044Y24835D01*
X225877Y24864D01*
X225723Y24912D01*
X225582Y24979D01*
X225455Y25064D01*
X225343Y25166D01*
X225248Y25284D01*
X225169Y25419D01*
X225107Y25569D01*
X225063Y25732D01*
X225037Y25908D01*
X225028Y26097D01*
X225047Y26374D01*
X225107Y26620D01*
X225206Y26833D01*
X225344Y27015D01*
X225518Y27161D01*
X225722Y27264D01*
X225956Y27327D01*
X226221Y27347D01*
X226409Y27338D01*
X226580Y27309D01*
X226736Y27261D01*
X226875Y27194D01*
X226998Y27109D01*
X227103Y27004D01*
X227191Y26882D01*
X227261Y26740D01*
X226946Y26636D01*
X226897Y26737D01*
X226835Y26825D01*
X226760Y26900D01*
X226672Y26963D01*
X226574Y27013D01*
X226466Y27048D01*
X226350Y27069D01*
X226224Y27076D01*
X226032Y27060D01*
X225863Y27011D01*
X225716Y26929D01*
X225591Y26814D01*
X225492Y26671D01*
X225422Y26504D01*
X225379Y26313D01*
X225365Y26097D01*
X225380Y25883D01*
X225424Y25690D01*
X225498Y25520D01*
X225601Y25372D01*
X225729Y25252D01*
X225878Y25167D01*
X226048Y25115D01*
X226238Y25098D01*
X226363Y25106D01*
X226480Y25130D01*
X226589Y25170D01*
X226689Y25226D01*
X226782Y25297D01*
X226867Y25385D01*
X227012Y25608D01*
X227284Y25472D01*
X227200Y25323D01*
X227102Y25194D01*
X226988Y25083D01*
X226859Y24990D01*
X226716Y24918D01*
X226563Y24867D01*
X226398Y24836D01*
X226223Y24825D01*
G37*
G36*
X228403Y24825D02*
X228226Y24836D01*
X228068Y24867D01*
X227929Y24920D01*
X227808Y24993D01*
X227709Y25087D01*
X227632Y25201D01*
X227577Y25335D01*
X227545Y25490D01*
X227869Y25519D01*
X227891Y25417D01*
X227925Y25329D01*
X227973Y25254D01*
X228033Y25193D01*
X228106Y25146D01*
X228192Y25112D01*
X228291Y25091D01*
X228403Y25084D01*
X228514Y25092D01*
X228614Y25114D01*
X228700Y25150D01*
X228774Y25201D01*
X228833Y25266D01*
X228875Y25346D01*
X228900Y25439D01*
X228909Y25547D01*
X228899Y25642D01*
X228870Y25725D01*
X228822Y25798D01*
X228755Y25859D01*
X228669Y25908D01*
X228567Y25943D01*
X228447Y25965D01*
X228310Y25972D01*
X228133Y25972D01*
X228133Y26243D01*
X228303Y26243D01*
X228425Y26250D01*
X228532Y26271D01*
X228624Y26306D01*
X228703Y26355D01*
X228765Y26417D01*
X228809Y26489D01*
X228836Y26572D01*
X228844Y26666D01*
X228837Y26759D01*
X228815Y26842D01*
X228779Y26914D01*
X228729Y26976D01*
X228664Y27026D01*
X228585Y27062D01*
X228492Y27083D01*
X228385Y27090D01*
X228287Y27083D01*
X228198Y27064D01*
X228119Y27030D01*
X228050Y26984D01*
X227993Y26925D01*
X227949Y26856D01*
X227919Y26776D01*
X227902Y26685D01*
X227587Y26709D01*
X227615Y26851D01*
X227667Y26977D01*
X227740Y27086D01*
X227836Y27179D01*
X227951Y27253D01*
X228082Y27305D01*
X228228Y27337D01*
X228389Y27347D01*
X228563Y27337D01*
X228716Y27305D01*
X228849Y27251D01*
X228962Y27176D01*
X229051Y27082D01*
X229115Y26971D01*
X229153Y26843D01*
X229166Y26699D01*
X229158Y26587D01*
X229133Y26486D01*
X229092Y26396D01*
X229035Y26317D01*
X228962Y26249D01*
X228874Y26194D01*
X228771Y26150D01*
X228653Y26118D01*
X228653Y26111D01*
X228783Y26088D01*
X228897Y26050D01*
X228997Y25996D01*
X229081Y25926D01*
X229148Y25844D01*
X229196Y25751D01*
X229224Y25649D01*
X229234Y25537D01*
X229221Y25377D01*
X229180Y25236D01*
X229113Y25114D01*
X229018Y25011D01*
X228899Y24930D01*
X228757Y24872D01*
X228591Y24837D01*
X228403Y24825D01*
G37*
G36*
X195642Y37060D02*
X195346Y37060D01*
X195346Y37615D01*
X194191Y37615D01*
X194191Y37858D01*
X195313Y39511D01*
X195642Y39511D01*
X195642Y37862D01*
X195986Y37862D01*
X195986Y37615D01*
X195642Y37615D01*
X195642Y37060D01*
G37*
%LPC*%
G36*
X195346Y37862D02*
X195346Y39158D01*
X195297Y39066D01*
X195230Y38951D01*
X194602Y38025D01*
X194508Y37897D01*
X194480Y37862D01*
X195346Y37862D01*
G37*
%LPD*%
G36*
X192923Y37025D02*
X192744Y37035D01*
X192577Y37064D01*
X192423Y37112D01*
X192282Y37179D01*
X192155Y37264D01*
X192043Y37366D01*
X191948Y37484D01*
X191869Y37619D01*
X191807Y37769D01*
X191763Y37932D01*
X191737Y38108D01*
X191728Y38297D01*
X191747Y38574D01*
X191807Y38820D01*
X191906Y39033D01*
X192044Y39215D01*
X192218Y39361D01*
X192422Y39464D01*
X192656Y39527D01*
X192921Y39547D01*
X193109Y39538D01*
X193280Y39509D01*
X193436Y39461D01*
X193575Y39394D01*
X193698Y39309D01*
X193803Y39204D01*
X193891Y39082D01*
X193961Y38940D01*
X193646Y38836D01*
X193597Y38937D01*
X193535Y39025D01*
X193460Y39100D01*
X193372Y39163D01*
X193274Y39213D01*
X193166Y39248D01*
X193050Y39269D01*
X192924Y39276D01*
X192732Y39260D01*
X192563Y39211D01*
X192416Y39129D01*
X192291Y39014D01*
X192192Y38871D01*
X192122Y38704D01*
X192079Y38513D01*
X192065Y38297D01*
X192080Y38083D01*
X192124Y37890D01*
X192198Y37720D01*
X192301Y37572D01*
X192429Y37452D01*
X192578Y37367D01*
X192748Y37315D01*
X192938Y37298D01*
X193063Y37306D01*
X193180Y37330D01*
X193289Y37370D01*
X193389Y37426D01*
X193482Y37497D01*
X193567Y37585D01*
X193712Y37808D01*
X193984Y37672D01*
X193900Y37523D01*
X193802Y37394D01*
X193688Y37283D01*
X193559Y37190D01*
X193416Y37118D01*
X193263Y37067D01*
X193098Y37036D01*
X192923Y37025D01*
G37*
G36*
X182823Y37125D02*
X182644Y37135D01*
X182477Y37164D01*
X182323Y37212D01*
X182182Y37279D01*
X182055Y37364D01*
X181943Y37466D01*
X181848Y37584D01*
X181769Y37719D01*
X181707Y37869D01*
X181663Y38032D01*
X181637Y38208D01*
X181628Y38397D01*
X181647Y38674D01*
X181707Y38920D01*
X181806Y39133D01*
X181944Y39315D01*
X182118Y39461D01*
X182322Y39564D01*
X182556Y39627D01*
X182821Y39647D01*
X183009Y39638D01*
X183180Y39609D01*
X183336Y39561D01*
X183475Y39494D01*
X183598Y39409D01*
X183703Y39304D01*
X183791Y39182D01*
X183861Y39040D01*
X183546Y38936D01*
X183497Y39037D01*
X183435Y39125D01*
X183360Y39200D01*
X183272Y39263D01*
X183174Y39313D01*
X183066Y39348D01*
X182950Y39369D01*
X182824Y39376D01*
X182632Y39360D01*
X182463Y39311D01*
X182316Y39229D01*
X182191Y39114D01*
X182092Y38971D01*
X182022Y38804D01*
X181979Y38613D01*
X181965Y38397D01*
X181980Y38183D01*
X182024Y37990D01*
X182098Y37820D01*
X182201Y37672D01*
X182329Y37552D01*
X182478Y37467D01*
X182648Y37415D01*
X182838Y37398D01*
X182963Y37406D01*
X183080Y37430D01*
X183189Y37470D01*
X183289Y37526D01*
X183382Y37597D01*
X183467Y37685D01*
X183612Y37908D01*
X183884Y37772D01*
X183800Y37623D01*
X183702Y37494D01*
X183588Y37383D01*
X183459Y37290D01*
X183316Y37218D01*
X183163Y37167D01*
X182998Y37136D01*
X182823Y37125D01*
G37*
G36*
X184971Y37125D02*
X184808Y37135D01*
X184662Y37163D01*
X184532Y37209D01*
X184418Y37275D01*
X184323Y37358D01*
X184246Y37458D01*
X184189Y37575D01*
X184152Y37708D01*
X184469Y37744D01*
X184538Y37585D01*
X184646Y37472D01*
X184792Y37404D01*
X184978Y37381D01*
X185097Y37390D01*
X185203Y37419D01*
X185295Y37467D01*
X185373Y37533D01*
X185435Y37616D01*
X185480Y37714D01*
X185507Y37826D01*
X185516Y37951D01*
X185507Y38062D01*
X185480Y38161D01*
X185435Y38249D01*
X185372Y38325D01*
X185294Y38388D01*
X185204Y38432D01*
X185101Y38459D01*
X184985Y38468D01*
X184863Y38458D01*
X184749Y38428D01*
X184639Y38374D01*
X184529Y38292D01*
X184223Y38292D01*
X184305Y39611D01*
X185698Y39611D01*
X185698Y39345D01*
X184590Y39345D01*
X184543Y38567D01*
X184651Y38636D01*
X184772Y38685D01*
X184904Y38714D01*
X185050Y38724D01*
X185221Y38711D01*
X185375Y38671D01*
X185510Y38604D01*
X185626Y38512D01*
X185720Y38397D01*
X185787Y38267D01*
X185828Y38121D01*
X185841Y37958D01*
X185827Y37775D01*
X185783Y37612D01*
X185711Y37470D01*
X185610Y37348D01*
X185484Y37250D01*
X185335Y37181D01*
X185164Y37139D01*
X184971Y37125D01*
G37*
G36*
X193501Y25025D02*
X193315Y25037D01*
X193151Y25072D01*
X193007Y25130D01*
X192886Y25211D01*
X192789Y25314D01*
X192720Y25437D01*
X192678Y25579D01*
X192664Y25740D01*
X192673Y25855D01*
X192698Y25961D01*
X192741Y26057D01*
X192802Y26144D01*
X192875Y26217D01*
X192958Y26275D01*
X193051Y26317D01*
X193153Y26342D01*
X193153Y26349D01*
X193058Y26379D01*
X192974Y26423D01*
X192900Y26481D01*
X192837Y26552D01*
X192787Y26634D01*
X192750Y26723D01*
X192729Y26818D01*
X192722Y26920D01*
X192735Y27053D01*
X192774Y27173D01*
X192839Y27280D01*
X192931Y27374D01*
X193045Y27450D01*
X193177Y27504D01*
X193326Y27537D01*
X193494Y27547D01*
X193665Y27537D01*
X193818Y27505D01*
X193951Y27452D01*
X194065Y27377D01*
X194157Y27284D01*
X194222Y27177D01*
X194262Y27054D01*
X194275Y26916D01*
X194268Y26814D01*
X194246Y26719D01*
X194209Y26631D01*
X194158Y26549D01*
X194095Y26478D01*
X194091Y26475D01*
X194020Y26422D01*
X193936Y26380D01*
X193840Y26352D01*
X193840Y26345D01*
X193951Y26319D01*
X194049Y26277D01*
X194134Y26219D01*
X194199Y26153D01*
X194205Y26146D01*
X194262Y26061D01*
X194303Y25965D01*
X194328Y25859D01*
X194336Y25744D01*
X194322Y25583D01*
X194282Y25442D01*
X194214Y25319D01*
X194120Y25215D01*
X194000Y25132D01*
X193857Y25073D01*
X193691Y25037D01*
X193501Y25025D01*
G37*
%LPC*%
G36*
X193504Y25260D02*
X193624Y25268D01*
X193727Y25291D01*
X193814Y25329D01*
X193885Y25383D01*
X193940Y25453D01*
X193979Y25542D01*
X194003Y25648D01*
X194010Y25773D01*
X194002Y25880D01*
X193977Y25973D01*
X193934Y26052D01*
X193875Y26117D01*
X193800Y26167D01*
X193712Y26204D01*
X193610Y26225D01*
X193494Y26232D01*
X193381Y26225D01*
X193282Y26201D01*
X193195Y26162D01*
X193122Y26108D01*
X193063Y26040D01*
X193021Y25960D01*
X192996Y25869D01*
X192988Y25766D01*
X192996Y25648D01*
X193020Y25545D01*
X193060Y25458D01*
X193117Y25387D01*
X193189Y25331D01*
X193278Y25292D01*
X193383Y25268D01*
X193504Y25260D01*
G37*
G36*
X193497Y26467D02*
X193601Y26474D01*
X193692Y26493D01*
X193769Y26524D01*
X193834Y26569D01*
X193885Y26628D01*
X193921Y26702D01*
X193942Y26793D01*
X193950Y26899D01*
X193942Y26996D01*
X193921Y27081D01*
X193885Y27152D01*
X193836Y27210D01*
X193772Y27256D01*
X193693Y27288D01*
X193601Y27308D01*
X193494Y27314D01*
X193390Y27308D01*
X193299Y27288D01*
X193222Y27256D01*
X193157Y27210D01*
X193107Y27151D01*
X193070Y27080D01*
X193049Y26996D01*
X193042Y26899D01*
X193049Y26800D01*
X193071Y26713D01*
X193109Y26639D01*
X193161Y26578D01*
X193226Y26529D01*
X193304Y26495D01*
X193395Y26474D01*
X193497Y26467D01*
G37*
%LPD*%
G36*
X191218Y25025D02*
X191073Y25032D01*
X190937Y25053D01*
X190810Y25087D01*
X190693Y25135D01*
X190587Y25196D01*
X190494Y25269D01*
X190413Y25355D01*
X190345Y25453D01*
X190291Y25562D01*
X190252Y25682D01*
X190229Y25811D01*
X190222Y25951D01*
X190222Y27511D01*
X190554Y27511D01*
X190554Y25978D01*
X190565Y25821D01*
X190596Y25683D01*
X190650Y25566D01*
X190724Y25469D01*
X190819Y25393D01*
X190933Y25338D01*
X191065Y25306D01*
X191217Y25295D01*
X191373Y25306D01*
X191510Y25340D01*
X191630Y25396D01*
X191731Y25475D01*
X191811Y25575D01*
X191868Y25696D01*
X191903Y25838D01*
X191914Y26001D01*
X191914Y27511D01*
X192245Y27511D01*
X192245Y25982D01*
X192237Y25838D01*
X192213Y25705D01*
X192174Y25582D01*
X192119Y25469D01*
X192049Y25367D01*
X191966Y25279D01*
X191871Y25202D01*
X191762Y25139D01*
X191642Y25089D01*
X191511Y25054D01*
X191370Y25032D01*
X191218Y25025D01*
G37*
G36*
X144418Y26025D02*
X144273Y26032D01*
X144137Y26053D01*
X144010Y26087D01*
X143893Y26135D01*
X143787Y26196D01*
X143694Y26269D01*
X143613Y26355D01*
X143545Y26453D01*
X143491Y26562D01*
X143452Y26682D01*
X143429Y26811D01*
X143422Y26951D01*
X143422Y28511D01*
X143754Y28511D01*
X143754Y26978D01*
X143765Y26821D01*
X143796Y26683D01*
X143850Y26566D01*
X143924Y26469D01*
X144019Y26393D01*
X144133Y26338D01*
X144265Y26306D01*
X144417Y26295D01*
X144573Y26306D01*
X144710Y26340D01*
X144830Y26396D01*
X144931Y26475D01*
X145011Y26575D01*
X145068Y26696D01*
X145103Y26838D01*
X145114Y27001D01*
X145114Y28511D01*
X145445Y28511D01*
X145445Y26982D01*
X145437Y26838D01*
X145413Y26705D01*
X145374Y26582D01*
X145319Y26469D01*
X145249Y26367D01*
X145166Y26279D01*
X145071Y26202D01*
X144962Y26139D01*
X144842Y26089D01*
X144711Y26054D01*
X144570Y26032D01*
X144418Y26025D01*
G37*
G36*
X146703Y26025D02*
X146526Y26036D01*
X146368Y26067D01*
X146229Y26120D01*
X146108Y26193D01*
X146009Y26287D01*
X145932Y26401D01*
X145877Y26535D01*
X145845Y26690D01*
X146169Y26719D01*
X146191Y26617D01*
X146225Y26529D01*
X146273Y26454D01*
X146333Y26393D01*
X146406Y26346D01*
X146492Y26312D01*
X146591Y26291D01*
X146703Y26284D01*
X146814Y26292D01*
X146914Y26314D01*
X147000Y26350D01*
X147074Y26401D01*
X147133Y26466D01*
X147175Y26546D01*
X147200Y26639D01*
X147209Y26747D01*
X147199Y26842D01*
X147170Y26925D01*
X147122Y26998D01*
X147055Y27059D01*
X146969Y27108D01*
X146867Y27143D01*
X146747Y27165D01*
X146610Y27172D01*
X146433Y27172D01*
X146433Y27443D01*
X146603Y27443D01*
X146725Y27450D01*
X146832Y27471D01*
X146924Y27506D01*
X147003Y27555D01*
X147065Y27617D01*
X147109Y27689D01*
X147136Y27772D01*
X147144Y27866D01*
X147137Y27959D01*
X147115Y28042D01*
X147079Y28114D01*
X147029Y28176D01*
X146964Y28226D01*
X146885Y28262D01*
X146792Y28283D01*
X146685Y28290D01*
X146587Y28283D01*
X146498Y28264D01*
X146419Y28230D01*
X146350Y28184D01*
X146293Y28125D01*
X146249Y28056D01*
X146219Y27976D01*
X146202Y27885D01*
X145887Y27909D01*
X145915Y28051D01*
X145967Y28177D01*
X146040Y28286D01*
X146136Y28379D01*
X146251Y28453D01*
X146382Y28505D01*
X146528Y28537D01*
X146689Y28547D01*
X146863Y28537D01*
X147016Y28505D01*
X147149Y28451D01*
X147262Y28376D01*
X147351Y28282D01*
X147415Y28171D01*
X147453Y28043D01*
X147466Y27899D01*
X147458Y27787D01*
X147433Y27686D01*
X147392Y27596D01*
X147335Y27517D01*
X147262Y27449D01*
X147174Y27394D01*
X147071Y27350D01*
X146953Y27318D01*
X146953Y27311D01*
X147083Y27288D01*
X147197Y27250D01*
X147297Y27196D01*
X147381Y27126D01*
X147448Y27044D01*
X147496Y26951D01*
X147524Y26849D01*
X147534Y26737D01*
X147521Y26577D01*
X147480Y26436D01*
X147413Y26314D01*
X147318Y26211D01*
X147199Y26130D01*
X147057Y26072D01*
X146891Y26037D01*
X146703Y26025D01*
G37*
G36*
X122618Y18525D02*
X122473Y18532D01*
X122337Y18553D01*
X122210Y18587D01*
X122093Y18635D01*
X121987Y18696D01*
X121894Y18769D01*
X121813Y18855D01*
X121745Y18953D01*
X121691Y19062D01*
X121652Y19182D01*
X121629Y19311D01*
X121622Y19451D01*
X121622Y21011D01*
X121954Y21011D01*
X121954Y19478D01*
X121965Y19321D01*
X121996Y19183D01*
X122050Y19066D01*
X122124Y18969D01*
X122219Y18893D01*
X122333Y18838D01*
X122465Y18806D01*
X122617Y18795D01*
X122773Y18806D01*
X122910Y18840D01*
X123030Y18896D01*
X123131Y18975D01*
X123211Y19075D01*
X123268Y19196D01*
X123303Y19338D01*
X123314Y19501D01*
X123314Y21011D01*
X123645Y21011D01*
X123645Y19482D01*
X123637Y19338D01*
X123613Y19205D01*
X123574Y19082D01*
X123519Y18969D01*
X123449Y18867D01*
X123366Y18779D01*
X123271Y18702D01*
X123162Y18639D01*
X123042Y18589D01*
X122911Y18554D01*
X122770Y18532D01*
X122618Y18525D01*
G37*
G36*
X124871Y18560D02*
X124544Y18560D01*
X124557Y18798D01*
X124594Y19042D01*
X124656Y19292D01*
X124743Y19549D01*
X124860Y19818D01*
X125009Y20108D01*
X125192Y20416D01*
X125409Y20745D01*
X124092Y20745D01*
X124092Y21011D01*
X125711Y21011D01*
X125711Y20757D01*
X125391Y20245D01*
X125181Y19858D01*
X125045Y19535D01*
X124949Y19216D01*
X124891Y18894D01*
X124871Y18560D01*
G37*
G36*
X109771Y14060D02*
X109439Y14060D01*
X109439Y16511D01*
X110592Y16511D01*
X110788Y16499D01*
X110959Y16465D01*
X111107Y16407D01*
X111232Y16326D01*
X111330Y16224D01*
X111401Y16104D01*
X111443Y15966D01*
X111457Y15810D01*
X111447Y15679D01*
X111417Y15559D01*
X111367Y15449D01*
X111298Y15351D01*
X111211Y15266D01*
X111139Y15219D01*
X111108Y15199D01*
X110991Y15149D01*
X110858Y15116D01*
X111155Y14666D01*
X111554Y14060D01*
X111172Y14060D01*
X110535Y15078D01*
X109771Y15078D01*
X109771Y14060D01*
G37*
%LPC*%
G36*
X110573Y15340D02*
X110697Y15348D01*
X110806Y15371D01*
X110900Y15409D01*
X110979Y15463D01*
X111042Y15530D01*
X111087Y15610D01*
X111114Y15702D01*
X111123Y15806D01*
X111114Y15907D01*
X111087Y15995D01*
X111041Y16070D01*
X110978Y16133D01*
X110897Y16182D01*
X110800Y16217D01*
X110688Y16238D01*
X110559Y16245D01*
X109771Y16245D01*
X109771Y15340D01*
X110573Y15340D01*
G37*
%LPD*%
G36*
X113511Y14060D02*
X111888Y14060D01*
X111888Y14281D01*
X111987Y14472D01*
X112105Y14640D01*
X112374Y14922D01*
X112653Y15156D01*
X112903Y15372D01*
X113003Y15482D01*
X113083Y15598D01*
X113134Y15724D01*
X113151Y15866D01*
X113144Y15961D01*
X113122Y16045D01*
X113085Y16117D01*
X113033Y16179D01*
X112968Y16227D01*
X112892Y16262D01*
X112804Y16283D01*
X112704Y16290D01*
X112609Y16283D01*
X112522Y16263D01*
X112444Y16229D01*
X112375Y16181D01*
X112317Y16121D01*
X112272Y16051D01*
X112240Y15969D01*
X112222Y15876D01*
X111902Y15906D01*
X111931Y16045D01*
X111982Y16170D01*
X112056Y16279D01*
X112152Y16374D01*
X112267Y16450D01*
X112397Y16504D01*
X112543Y16537D01*
X112704Y16547D01*
X112879Y16537D01*
X113032Y16504D01*
X113164Y16449D01*
X113274Y16373D01*
X113361Y16276D01*
X113423Y16161D01*
X113461Y16028D01*
X113473Y15876D01*
X113457Y15734D01*
X113408Y15593D01*
X113327Y15452D01*
X113214Y15311D01*
X113027Y15131D01*
X112722Y14874D01*
X112403Y14579D01*
X112302Y14450D01*
X112233Y14326D01*
X113511Y14326D01*
X113511Y14060D01*
G37*
G36*
X109971Y8160D02*
X109639Y8160D01*
X109639Y10611D01*
X110792Y10611D01*
X110988Y10599D01*
X111159Y10565D01*
X111307Y10507D01*
X111432Y10426D01*
X111530Y10324D01*
X111601Y10204D01*
X111643Y10066D01*
X111657Y9910D01*
X111647Y9779D01*
X111617Y9659D01*
X111567Y9549D01*
X111498Y9451D01*
X111411Y9366D01*
X111339Y9319D01*
X111308Y9299D01*
X111191Y9249D01*
X111058Y9216D01*
X111355Y8766D01*
X111754Y8160D01*
X111372Y8160D01*
X110735Y9178D01*
X109971Y9178D01*
X109971Y8160D01*
G37*
%LPC*%
G36*
X110773Y9440D02*
X110897Y9448D01*
X111006Y9471D01*
X111100Y9509D01*
X111179Y9563D01*
X111242Y9630D01*
X111287Y9710D01*
X111314Y9802D01*
X111323Y9906D01*
X111314Y10007D01*
X111287Y10095D01*
X111241Y10170D01*
X111178Y10233D01*
X111097Y10282D01*
X111000Y10317D01*
X110888Y10338D01*
X110759Y10345D01*
X109971Y10345D01*
X109971Y9440D01*
X110773Y9440D01*
G37*
%LPD*%
G36*
X113717Y8160D02*
X112181Y8160D01*
X112181Y8426D01*
X112805Y8426D01*
X112805Y10312D01*
X112252Y9917D01*
X112252Y10213D01*
X112831Y10611D01*
X113120Y10611D01*
X113120Y8426D01*
X113717Y8426D01*
X113717Y8160D01*
G37*
G36*
X173043Y43525D02*
X172848Y43544D01*
X172677Y43602D01*
X172531Y43698D01*
X172409Y43833D01*
X172313Y44005D01*
X172245Y44211D01*
X172204Y44452D01*
X172190Y44729D01*
X172204Y45029D01*
X172247Y45292D01*
X172318Y45518D01*
X172418Y45707D01*
X172544Y45856D01*
X172694Y45962D01*
X172868Y46026D01*
X173067Y46047D01*
X173199Y46040D01*
X173319Y46016D01*
X173425Y45977D01*
X173519Y45923D01*
X173600Y45852D01*
X173668Y45767D01*
X173724Y45665D01*
X173766Y45548D01*
X173467Y45494D01*
X173407Y45625D01*
X173320Y45719D01*
X173205Y45775D01*
X173063Y45794D01*
X172937Y45778D01*
X172826Y45731D01*
X172730Y45653D01*
X172649Y45544D01*
X172584Y45405D01*
X172538Y45238D01*
X172511Y45044D01*
X172502Y44821D01*
X172604Y44961D01*
X172742Y45062D01*
X172908Y45124D01*
X173096Y45145D01*
X173257Y45131D01*
X173401Y45092D01*
X173527Y45025D01*
X173635Y44932D01*
X173722Y44817D01*
X173784Y44684D01*
X173822Y44532D01*
X173834Y44362D01*
X173821Y44178D01*
X173781Y44015D01*
X173716Y43872D01*
X173624Y43750D01*
X173508Y43651D01*
X173373Y43581D01*
X173218Y43539D01*
X173043Y43525D01*
G37*
%LPC*%
G36*
X173032Y43777D02*
X173139Y43787D01*
X173234Y43815D01*
X173317Y43863D01*
X173387Y43930D01*
X173443Y44013D01*
X173484Y44110D01*
X173508Y44222D01*
X173516Y44348D01*
X173508Y44473D01*
X173483Y44584D01*
X173442Y44679D01*
X173385Y44759D01*
X173314Y44822D01*
X173229Y44867D01*
X173132Y44894D01*
X173022Y44903D01*
X172917Y44895D01*
X172824Y44871D01*
X172740Y44831D01*
X172668Y44775D01*
X172609Y44705D01*
X172567Y44623D01*
X172541Y44529D01*
X172533Y44423D01*
X172542Y44287D01*
X172568Y44165D01*
X172612Y44055D01*
X172673Y43958D01*
X172748Y43879D01*
X172833Y43823D01*
X172927Y43789D01*
X173032Y43777D01*
G37*
%LPD*%
G36*
X170823Y43525D02*
X170644Y43535D01*
X170477Y43564D01*
X170323Y43612D01*
X170182Y43679D01*
X170055Y43764D01*
X169943Y43866D01*
X169848Y43984D01*
X169769Y44119D01*
X169707Y44269D01*
X169663Y44432D01*
X169637Y44608D01*
X169628Y44797D01*
X169647Y45074D01*
X169707Y45320D01*
X169806Y45533D01*
X169944Y45715D01*
X170118Y45861D01*
X170322Y45964D01*
X170556Y46027D01*
X170821Y46047D01*
X171009Y46038D01*
X171180Y46009D01*
X171336Y45961D01*
X171475Y45894D01*
X171598Y45809D01*
X171703Y45704D01*
X171791Y45582D01*
X171861Y45440D01*
X171546Y45336D01*
X171497Y45437D01*
X171435Y45525D01*
X171360Y45600D01*
X171272Y45663D01*
X171174Y45713D01*
X171066Y45748D01*
X170950Y45769D01*
X170824Y45776D01*
X170632Y45760D01*
X170463Y45711D01*
X170316Y45629D01*
X170191Y45514D01*
X170092Y45371D01*
X170022Y45204D01*
X169979Y45013D01*
X169965Y44797D01*
X169980Y44583D01*
X170024Y44390D01*
X170098Y44220D01*
X170201Y44072D01*
X170329Y43952D01*
X170478Y43867D01*
X170648Y43815D01*
X170838Y43798D01*
X170963Y43806D01*
X171080Y43830D01*
X171189Y43870D01*
X171289Y43926D01*
X171382Y43997D01*
X171467Y44085D01*
X171612Y44308D01*
X171884Y44172D01*
X171800Y44023D01*
X171702Y43894D01*
X171588Y43783D01*
X171459Y43690D01*
X171316Y43618D01*
X171163Y43567D01*
X170998Y43536D01*
X170823Y43525D01*
G37*
G36*
X92543Y17925D02*
X92348Y17944D01*
X92177Y18002D01*
X92031Y18098D01*
X91909Y18233D01*
X91813Y18405D01*
X91745Y18611D01*
X91704Y18852D01*
X91690Y19129D01*
X91704Y19429D01*
X91747Y19692D01*
X91818Y19918D01*
X91918Y20107D01*
X92044Y20256D01*
X92194Y20362D01*
X92368Y20426D01*
X92567Y20447D01*
X92699Y20440D01*
X92819Y20416D01*
X92925Y20377D01*
X93019Y20323D01*
X93100Y20252D01*
X93168Y20167D01*
X93224Y20065D01*
X93266Y19948D01*
X92967Y19894D01*
X92907Y20025D01*
X92820Y20119D01*
X92705Y20175D01*
X92563Y20194D01*
X92437Y20178D01*
X92326Y20131D01*
X92230Y20053D01*
X92149Y19944D01*
X92084Y19805D01*
X92038Y19638D01*
X92011Y19444D01*
X92002Y19221D01*
X92104Y19361D01*
X92242Y19462D01*
X92408Y19524D01*
X92596Y19545D01*
X92757Y19531D01*
X92901Y19492D01*
X93027Y19425D01*
X93135Y19332D01*
X93222Y19217D01*
X93284Y19084D01*
X93322Y18932D01*
X93334Y18762D01*
X93321Y18578D01*
X93281Y18415D01*
X93216Y18272D01*
X93124Y18150D01*
X93008Y18051D01*
X92873Y17981D01*
X92718Y17939D01*
X92543Y17925D01*
G37*
%LPC*%
G36*
X92532Y18177D02*
X92639Y18187D01*
X92734Y18215D01*
X92817Y18263D01*
X92887Y18330D01*
X92943Y18413D01*
X92984Y18510D01*
X93008Y18622D01*
X93016Y18748D01*
X93008Y18873D01*
X92983Y18984D01*
X92942Y19079D01*
X92885Y19159D01*
X92814Y19222D01*
X92729Y19267D01*
X92632Y19294D01*
X92522Y19303D01*
X92417Y19295D01*
X92324Y19271D01*
X92240Y19231D01*
X92168Y19175D01*
X92109Y19105D01*
X92067Y19023D01*
X92041Y18929D01*
X92033Y18823D01*
X92042Y18687D01*
X92068Y18565D01*
X92112Y18455D01*
X92173Y18358D01*
X92248Y18279D01*
X92333Y18223D01*
X92427Y18189D01*
X92532Y18177D01*
G37*
%LPD*%
G36*
X90218Y17925D02*
X90073Y17932D01*
X89937Y17953D01*
X89810Y17987D01*
X89693Y18035D01*
X89587Y18096D01*
X89494Y18169D01*
X89413Y18255D01*
X89345Y18353D01*
X89291Y18462D01*
X89252Y18582D01*
X89229Y18711D01*
X89222Y18851D01*
X89222Y20411D01*
X89554Y20411D01*
X89554Y18878D01*
X89565Y18721D01*
X89596Y18583D01*
X89650Y18466D01*
X89724Y18369D01*
X89819Y18293D01*
X89933Y18238D01*
X90065Y18206D01*
X90217Y18195D01*
X90373Y18206D01*
X90510Y18240D01*
X90630Y18296D01*
X90731Y18375D01*
X90811Y18475D01*
X90868Y18596D01*
X90903Y18738D01*
X90914Y18901D01*
X90914Y20411D01*
X91245Y20411D01*
X91245Y18882D01*
X91237Y18738D01*
X91213Y18605D01*
X91174Y18482D01*
X91119Y18369D01*
X91049Y18267D01*
X90966Y18179D01*
X90871Y18102D01*
X90762Y18039D01*
X90642Y17989D01*
X90511Y17954D01*
X90370Y17932D01*
X90218Y17925D01*
G37*
G36*
X65742Y17160D02*
X65446Y17160D01*
X65446Y17715D01*
X64291Y17715D01*
X64291Y17958D01*
X65413Y19611D01*
X65742Y19611D01*
X65742Y17962D01*
X66086Y17962D01*
X66086Y17715D01*
X65742Y17715D01*
X65742Y17160D01*
G37*
%LPC*%
G36*
X65446Y17962D02*
X65446Y19258D01*
X65397Y19166D01*
X65330Y19051D01*
X64702Y18125D01*
X64608Y17997D01*
X64580Y17962D01*
X65446Y17962D01*
G37*
%LPD*%
G36*
X62918Y17125D02*
X62773Y17132D01*
X62637Y17153D01*
X62510Y17187D01*
X62393Y17235D01*
X62287Y17296D01*
X62194Y17369D01*
X62113Y17455D01*
X62045Y17553D01*
X61991Y17662D01*
X61952Y17782D01*
X61929Y17911D01*
X61922Y18051D01*
X61922Y19611D01*
X62254Y19611D01*
X62254Y18078D01*
X62265Y17921D01*
X62296Y17783D01*
X62350Y17666D01*
X62424Y17569D01*
X62519Y17493D01*
X62633Y17438D01*
X62765Y17406D01*
X62917Y17395D01*
X63073Y17406D01*
X63210Y17440D01*
X63330Y17496D01*
X63431Y17575D01*
X63511Y17675D01*
X63568Y17796D01*
X63603Y17938D01*
X63614Y18101D01*
X63614Y19611D01*
X63945Y19611D01*
X63945Y18082D01*
X63937Y17938D01*
X63913Y17805D01*
X63874Y17682D01*
X63819Y17569D01*
X63749Y17467D01*
X63666Y17379D01*
X63571Y17302D01*
X63462Y17239D01*
X63342Y17189D01*
X63211Y17154D01*
X63070Y17132D01*
X62918Y17125D01*
G37*
G36*
X161201Y43625D02*
X161015Y43637D01*
X160851Y43672D01*
X160707Y43730D01*
X160586Y43811D01*
X160489Y43914D01*
X160420Y44037D01*
X160378Y44179D01*
X160364Y44340D01*
X160373Y44455D01*
X160398Y44561D01*
X160441Y44657D01*
X160502Y44744D01*
X160575Y44817D01*
X160658Y44875D01*
X160751Y44917D01*
X160853Y44942D01*
X160853Y44949D01*
X160758Y44979D01*
X160674Y45023D01*
X160600Y45081D01*
X160537Y45152D01*
X160487Y45234D01*
X160450Y45323D01*
X160429Y45418D01*
X160422Y45520D01*
X160435Y45653D01*
X160474Y45773D01*
X160539Y45880D01*
X160631Y45974D01*
X160745Y46050D01*
X160877Y46104D01*
X161026Y46137D01*
X161194Y46147D01*
X161365Y46137D01*
X161518Y46105D01*
X161651Y46052D01*
X161765Y45977D01*
X161857Y45884D01*
X161922Y45777D01*
X161962Y45654D01*
X161975Y45516D01*
X161968Y45414D01*
X161946Y45319D01*
X161909Y45231D01*
X161858Y45149D01*
X161795Y45078D01*
X161791Y45075D01*
X161720Y45022D01*
X161636Y44980D01*
X161540Y44952D01*
X161540Y44945D01*
X161651Y44919D01*
X161749Y44877D01*
X161834Y44819D01*
X161899Y44753D01*
X161905Y44746D01*
X161962Y44661D01*
X162003Y44565D01*
X162028Y44459D01*
X162036Y44344D01*
X162022Y44183D01*
X161982Y44042D01*
X161914Y43919D01*
X161820Y43815D01*
X161700Y43732D01*
X161557Y43673D01*
X161391Y43637D01*
X161201Y43625D01*
G37*
%LPC*%
G36*
X161204Y43860D02*
X161324Y43868D01*
X161427Y43891D01*
X161514Y43929D01*
X161585Y43983D01*
X161640Y44053D01*
X161679Y44142D01*
X161703Y44248D01*
X161710Y44373D01*
X161702Y44480D01*
X161677Y44573D01*
X161634Y44652D01*
X161575Y44717D01*
X161500Y44767D01*
X161412Y44804D01*
X161310Y44825D01*
X161194Y44832D01*
X161081Y44825D01*
X160982Y44801D01*
X160895Y44762D01*
X160822Y44708D01*
X160763Y44640D01*
X160721Y44560D01*
X160696Y44469D01*
X160688Y44366D01*
X160696Y44248D01*
X160720Y44145D01*
X160760Y44058D01*
X160817Y43987D01*
X160889Y43931D01*
X160978Y43892D01*
X161083Y43868D01*
X161204Y43860D01*
G37*
G36*
X161197Y45067D02*
X161301Y45074D01*
X161392Y45093D01*
X161469Y45124D01*
X161534Y45169D01*
X161585Y45228D01*
X161621Y45302D01*
X161642Y45393D01*
X161650Y45499D01*
X161642Y45596D01*
X161621Y45681D01*
X161585Y45752D01*
X161536Y45810D01*
X161472Y45856D01*
X161393Y45888D01*
X161301Y45908D01*
X161194Y45914D01*
X161090Y45908D01*
X160999Y45888D01*
X160922Y45856D01*
X160857Y45810D01*
X160807Y45751D01*
X160770Y45680D01*
X160749Y45596D01*
X160742Y45499D01*
X160749Y45400D01*
X160771Y45313D01*
X160809Y45239D01*
X160861Y45178D01*
X160926Y45129D01*
X161004Y45095D01*
X161095Y45074D01*
X161197Y45067D01*
G37*
%LPD*%
G36*
X159023Y43625D02*
X158844Y43635D01*
X158677Y43664D01*
X158523Y43712D01*
X158382Y43779D01*
X158255Y43864D01*
X158143Y43966D01*
X158048Y44084D01*
X157969Y44219D01*
X157907Y44369D01*
X157863Y44532D01*
X157837Y44708D01*
X157828Y44897D01*
X157847Y45174D01*
X157907Y45420D01*
X158006Y45633D01*
X158144Y45815D01*
X158318Y45961D01*
X158522Y46064D01*
X158756Y46127D01*
X159021Y46147D01*
X159209Y46138D01*
X159380Y46109D01*
X159536Y46061D01*
X159675Y45994D01*
X159798Y45909D01*
X159903Y45804D01*
X159991Y45682D01*
X160061Y45540D01*
X159746Y45436D01*
X159697Y45537D01*
X159635Y45625D01*
X159560Y45700D01*
X159472Y45763D01*
X159374Y45813D01*
X159266Y45848D01*
X159150Y45869D01*
X159024Y45876D01*
X158832Y45860D01*
X158663Y45811D01*
X158516Y45729D01*
X158391Y45614D01*
X158292Y45471D01*
X158222Y45304D01*
X158179Y45113D01*
X158165Y44897D01*
X158180Y44683D01*
X158224Y44490D01*
X158298Y44320D01*
X158401Y44172D01*
X158529Y44052D01*
X158678Y43967D01*
X158848Y43915D01*
X159038Y43898D01*
X159163Y43906D01*
X159280Y43930D01*
X159389Y43970D01*
X159489Y44026D01*
X159582Y44097D01*
X159667Y44185D01*
X159812Y44408D01*
X160084Y44272D01*
X160000Y44123D01*
X159902Y43994D01*
X159788Y43883D01*
X159659Y43790D01*
X159516Y43718D01*
X159363Y43667D01*
X159198Y43636D01*
X159023Y43625D01*
G37*
G36*
X53103Y8128D02*
X52826Y8147D01*
X52581Y8207D01*
X52367Y8306D01*
X52185Y8444D01*
X52039Y8618D01*
X51936Y8822D01*
X51873Y9056D01*
X51853Y9321D01*
X51862Y9509D01*
X51891Y9680D01*
X51939Y9836D01*
X52006Y9975D01*
X52091Y10098D01*
X52196Y10203D01*
X52318Y10291D01*
X52460Y10361D01*
X52564Y10046D01*
X52463Y9997D01*
X52375Y9935D01*
X52300Y9860D01*
X52237Y9772D01*
X52188Y9674D01*
X52152Y9566D01*
X52131Y9450D01*
X52124Y9324D01*
X52140Y9132D01*
X52189Y8963D01*
X52271Y8816D01*
X52386Y8691D01*
X52529Y8592D01*
X52696Y8522D01*
X52887Y8479D01*
X53103Y8465D01*
X53317Y8480D01*
X53510Y8524D01*
X53680Y8598D01*
X53828Y8701D01*
X53948Y8829D01*
X54033Y8978D01*
X54085Y9148D01*
X54102Y9338D01*
X54094Y9463D01*
X54070Y9580D01*
X54030Y9689D01*
X53974Y9789D01*
X53903Y9882D01*
X53815Y9967D01*
X53592Y10112D01*
X53728Y10384D01*
X53877Y10300D01*
X54006Y10202D01*
X54117Y10088D01*
X54210Y9959D01*
X54282Y9816D01*
X54334Y9663D01*
X54364Y9498D01*
X54375Y9323D01*
X54365Y9144D01*
X54336Y8977D01*
X54288Y8823D01*
X54221Y8682D01*
X54136Y8555D01*
X54034Y8443D01*
X53916Y8348D01*
X53781Y8269D01*
X53631Y8207D01*
X53468Y8163D01*
X53292Y8137D01*
X53103Y8128D01*
G37*
G36*
X52155Y10692D02*
X51889Y10692D01*
X51889Y12311D01*
X52143Y12311D01*
X52655Y11991D01*
X53042Y11781D01*
X53365Y11645D01*
X53684Y11549D01*
X54006Y11491D01*
X54340Y11471D01*
X54340Y11144D01*
X54102Y11157D01*
X53858Y11194D01*
X53608Y11256D01*
X53351Y11343D01*
X53082Y11460D01*
X52793Y11609D01*
X52484Y11792D01*
X52155Y12009D01*
X52155Y10692D01*
G37*
G36*
X33203Y5228D02*
X32926Y5247D01*
X32681Y5307D01*
X32467Y5406D01*
X32285Y5544D01*
X32139Y5718D01*
X32036Y5922D01*
X31973Y6156D01*
X31953Y6421D01*
X31962Y6609D01*
X31991Y6780D01*
X32039Y6936D01*
X32106Y7075D01*
X32191Y7198D01*
X32296Y7303D01*
X32418Y7391D01*
X32560Y7461D01*
X32664Y7146D01*
X32563Y7097D01*
X32475Y7035D01*
X32400Y6960D01*
X32337Y6872D01*
X32288Y6774D01*
X32252Y6666D01*
X32231Y6550D01*
X32224Y6424D01*
X32240Y6232D01*
X32289Y6063D01*
X32371Y5916D01*
X32486Y5791D01*
X32629Y5692D01*
X32796Y5622D01*
X32987Y5579D01*
X33203Y5565D01*
X33417Y5580D01*
X33610Y5624D01*
X33780Y5698D01*
X33928Y5801D01*
X34048Y5929D01*
X34133Y6078D01*
X34185Y6248D01*
X34202Y6438D01*
X34194Y6563D01*
X34170Y6680D01*
X34130Y6789D01*
X34074Y6889D01*
X34003Y6982D01*
X33915Y7067D01*
X33692Y7212D01*
X33828Y7484D01*
X33977Y7400D01*
X34106Y7302D01*
X34217Y7188D01*
X34310Y7059D01*
X34382Y6916D01*
X34434Y6763D01*
X34464Y6598D01*
X34475Y6423D01*
X34465Y6244D01*
X34436Y6077D01*
X34388Y5923D01*
X34321Y5782D01*
X34236Y5655D01*
X34134Y5543D01*
X34016Y5448D01*
X33881Y5369D01*
X33731Y5307D01*
X33568Y5263D01*
X33392Y5237D01*
X33203Y5228D01*
G37*
G36*
X34440Y7881D02*
X34174Y7881D01*
X34174Y8505D01*
X32288Y8505D01*
X32683Y7952D01*
X32387Y7952D01*
X31989Y8531D01*
X31989Y8820D01*
X34174Y8820D01*
X34174Y9417D01*
X34440Y9417D01*
X34440Y7881D01*
G37*
G36*
X20240Y5039D02*
X17789Y5039D01*
X17789Y6192D01*
X17801Y6388D01*
X17835Y6559D01*
X17893Y6707D01*
X17974Y6832D01*
X18076Y6930D01*
X18196Y7001D01*
X18334Y7043D01*
X18490Y7057D01*
X18621Y7047D01*
X18741Y7017D01*
X18851Y6967D01*
X18949Y6898D01*
X19034Y6811D01*
X19081Y6739D01*
X19101Y6708D01*
X19151Y6591D01*
X19184Y6458D01*
X19634Y6755D01*
X20240Y7154D01*
X20240Y6772D01*
X19222Y6135D01*
X19222Y5371D01*
X20240Y5371D01*
X20240Y5039D01*
G37*
%LPC*%
G36*
X18960Y5371D02*
X18960Y6173D01*
X18952Y6297D01*
X18929Y6406D01*
X18891Y6500D01*
X18837Y6579D01*
X18770Y6642D01*
X18690Y6687D01*
X18598Y6714D01*
X18494Y6723D01*
X18393Y6714D01*
X18305Y6687D01*
X18230Y6641D01*
X18167Y6578D01*
X18118Y6497D01*
X18083Y6400D01*
X18062Y6288D01*
X18055Y6159D01*
X18055Y5371D01*
X18960Y5371D01*
G37*
%LPD*%
G36*
X19610Y7445D02*
X19581Y7769D01*
X19683Y7791D01*
X19771Y7825D01*
X19846Y7873D01*
X19907Y7933D01*
X19954Y8006D01*
X19988Y8092D01*
X20009Y8191D01*
X20016Y8303D01*
X20008Y8414D01*
X19986Y8514D01*
X19950Y8600D01*
X19899Y8674D01*
X19834Y8733D01*
X19754Y8775D01*
X19661Y8800D01*
X19553Y8809D01*
X19458Y8799D01*
X19375Y8770D01*
X19302Y8722D01*
X19241Y8655D01*
X19192Y8569D01*
X19157Y8467D01*
X19136Y8347D01*
X19128Y8210D01*
X19128Y8033D01*
X18857Y8033D01*
X18857Y8203D01*
X18850Y8325D01*
X18829Y8432D01*
X18794Y8524D01*
X18745Y8603D01*
X18683Y8665D01*
X18611Y8709D01*
X18528Y8736D01*
X18434Y8744D01*
X18341Y8737D01*
X18259Y8715D01*
X18186Y8679D01*
X18124Y8629D01*
X18074Y8564D01*
X18038Y8485D01*
X18017Y8392D01*
X18010Y8285D01*
X18017Y8187D01*
X18037Y8098D01*
X18070Y8019D01*
X18116Y7950D01*
X18175Y7893D01*
X18244Y7849D01*
X18324Y7819D01*
X18415Y7802D01*
X18391Y7487D01*
X18249Y7515D01*
X18123Y7567D01*
X18014Y7640D01*
X17921Y7736D01*
X17847Y7851D01*
X17795Y7982D01*
X17763Y8128D01*
X17753Y8289D01*
X17763Y8463D01*
X17795Y8616D01*
X17849Y8749D01*
X17924Y8862D01*
X18018Y8951D01*
X18129Y9015D01*
X18257Y9053D01*
X18401Y9066D01*
X18513Y9058D01*
X18614Y9033D01*
X18704Y8992D01*
X18783Y8935D01*
X18851Y8862D01*
X18906Y8774D01*
X18950Y8671D01*
X18982Y8553D01*
X18989Y8553D01*
X19012Y8683D01*
X19050Y8797D01*
X19104Y8897D01*
X19174Y8981D01*
X19256Y9048D01*
X19349Y9096D01*
X19451Y9124D01*
X19563Y9134D01*
X19723Y9121D01*
X19864Y9080D01*
X19986Y9013D01*
X20089Y8918D01*
X20170Y8799D01*
X20228Y8657D01*
X20263Y8491D01*
X20275Y8303D01*
X20264Y8126D01*
X20233Y7968D01*
X20180Y7829D01*
X20107Y7708D01*
X20013Y7609D01*
X19899Y7532D01*
X19765Y7477D01*
X19610Y7445D01*
G37*
G36*
X84423Y2325D02*
X84244Y2335D01*
X84077Y2364D01*
X83923Y2412D01*
X83782Y2479D01*
X83655Y2564D01*
X83543Y2666D01*
X83448Y2784D01*
X83369Y2919D01*
X83307Y3069D01*
X83263Y3232D01*
X83237Y3408D01*
X83228Y3597D01*
X83247Y3874D01*
X83307Y4120D01*
X83406Y4333D01*
X83544Y4515D01*
X83718Y4661D01*
X83922Y4764D01*
X84156Y4827D01*
X84421Y4847D01*
X84609Y4838D01*
X84780Y4809D01*
X84936Y4761D01*
X85075Y4694D01*
X85198Y4609D01*
X85303Y4504D01*
X85391Y4382D01*
X85461Y4240D01*
X85146Y4136D01*
X85097Y4237D01*
X85035Y4325D01*
X84960Y4400D01*
X84872Y4463D01*
X84774Y4513D01*
X84666Y4548D01*
X84550Y4569D01*
X84424Y4576D01*
X84232Y4560D01*
X84063Y4511D01*
X83916Y4429D01*
X83791Y4314D01*
X83692Y4171D01*
X83622Y4004D01*
X83579Y3813D01*
X83565Y3597D01*
X83580Y3383D01*
X83624Y3190D01*
X83698Y3020D01*
X83801Y2872D01*
X83929Y2752D01*
X84078Y2667D01*
X84248Y2615D01*
X84438Y2598D01*
X84563Y2606D01*
X84680Y2630D01*
X84789Y2670D01*
X84889Y2726D01*
X84982Y2797D01*
X85067Y2885D01*
X85212Y3108D01*
X85484Y2972D01*
X85400Y2823D01*
X85302Y2694D01*
X85188Y2583D01*
X85059Y2490D01*
X84916Y2418D01*
X84763Y2367D01*
X84598Y2336D01*
X84423Y2325D01*
G37*
G36*
X87411Y2360D02*
X85788Y2360D01*
X85788Y2581D01*
X85887Y2772D01*
X86005Y2940D01*
X86274Y3222D01*
X86553Y3456D01*
X86803Y3672D01*
X86903Y3782D01*
X86983Y3898D01*
X87034Y4024D01*
X87051Y4166D01*
X87044Y4261D01*
X87022Y4345D01*
X86985Y4417D01*
X86933Y4479D01*
X86868Y4527D01*
X86792Y4562D01*
X86704Y4583D01*
X86604Y4590D01*
X86509Y4583D01*
X86422Y4563D01*
X86344Y4529D01*
X86275Y4481D01*
X86217Y4421D01*
X86172Y4351D01*
X86140Y4269D01*
X86122Y4176D01*
X85802Y4206D01*
X85831Y4345D01*
X85882Y4470D01*
X85956Y4579D01*
X86052Y4674D01*
X86167Y4750D01*
X86297Y4804D01*
X86443Y4837D01*
X86604Y4847D01*
X86779Y4837D01*
X86932Y4804D01*
X87064Y4749D01*
X87174Y4673D01*
X87261Y4576D01*
X87323Y4461D01*
X87361Y4328D01*
X87373Y4176D01*
X87357Y4034D01*
X87308Y3893D01*
X87227Y3752D01*
X87114Y3611D01*
X86927Y3431D01*
X86622Y3174D01*
X86303Y2879D01*
X86202Y2750D01*
X86133Y2626D01*
X87411Y2626D01*
X87411Y2360D01*
G37*
G36*
X185049Y79922D02*
X183489Y79922D01*
X183489Y80254D01*
X185022Y80254D01*
X185179Y80265D01*
X185317Y80296D01*
X185434Y80350D01*
X185531Y80424D01*
X185607Y80519D01*
X185662Y80633D01*
X185694Y80765D01*
X185705Y80917D01*
X185694Y81073D01*
X185660Y81210D01*
X185604Y81330D01*
X185525Y81431D01*
X185425Y81511D01*
X185304Y81568D01*
X185162Y81603D01*
X184999Y81614D01*
X183489Y81614D01*
X183489Y81945D01*
X185018Y81945D01*
X185162Y81937D01*
X185295Y81913D01*
X185418Y81874D01*
X185531Y81819D01*
X185633Y81749D01*
X185722Y81666D01*
X185798Y81571D01*
X185861Y81462D01*
X185911Y81342D01*
X185946Y81211D01*
X185968Y81070D01*
X185975Y80918D01*
X185968Y80773D01*
X185947Y80637D01*
X185913Y80510D01*
X185865Y80393D01*
X185804Y80287D01*
X185731Y80194D01*
X185645Y80113D01*
X185547Y80045D01*
X185438Y79991D01*
X185318Y79952D01*
X185189Y79929D01*
X185049Y79922D01*
G37*
G36*
X185940Y82388D02*
X185719Y82388D01*
X185528Y82487D01*
X185360Y82605D01*
X185078Y82874D01*
X184844Y83153D01*
X184628Y83403D01*
X184518Y83503D01*
X184402Y83583D01*
X184276Y83634D01*
X184134Y83651D01*
X184039Y83644D01*
X183955Y83622D01*
X183883Y83585D01*
X183821Y83533D01*
X183773Y83468D01*
X183738Y83392D01*
X183717Y83304D01*
X183710Y83204D01*
X183717Y83109D01*
X183737Y83022D01*
X183771Y82944D01*
X183819Y82875D01*
X183879Y82817D01*
X183949Y82772D01*
X184031Y82740D01*
X184124Y82722D01*
X184094Y82402D01*
X183955Y82431D01*
X183830Y82482D01*
X183721Y82556D01*
X183626Y82652D01*
X183550Y82767D01*
X183496Y82897D01*
X183463Y83043D01*
X183453Y83204D01*
X183463Y83379D01*
X183496Y83532D01*
X183551Y83664D01*
X183627Y83774D01*
X183724Y83861D01*
X183839Y83923D01*
X183972Y83961D01*
X184124Y83973D01*
X184266Y83957D01*
X184408Y83908D01*
X184548Y83827D01*
X184689Y83714D01*
X184869Y83527D01*
X185126Y83222D01*
X185421Y82903D01*
X185550Y82802D01*
X185674Y82733D01*
X185674Y84011D01*
X185940Y84011D01*
X185940Y82388D01*
G37*
G36*
X164895Y48164D02*
X164749Y48171D01*
X164613Y48192D01*
X164487Y48226D01*
X164370Y48274D01*
X164264Y48335D01*
X164170Y48408D01*
X164090Y48494D01*
X164022Y48592D01*
X163968Y48701D01*
X163929Y48821D01*
X163906Y48950D01*
X163898Y49090D01*
X163898Y50650D01*
X164230Y50650D01*
X164230Y49117D01*
X164241Y48960D01*
X164273Y48822D01*
X164326Y48705D01*
X164401Y48608D01*
X164496Y48532D01*
X164609Y48477D01*
X164742Y48445D01*
X164893Y48434D01*
X165049Y48445D01*
X165187Y48479D01*
X165306Y48535D01*
X165407Y48614D01*
X165488Y48714D01*
X165545Y48835D01*
X165579Y48977D01*
X165591Y49140D01*
X165591Y50650D01*
X165921Y50650D01*
X165921Y49121D01*
X165913Y48977D01*
X165890Y48844D01*
X165850Y48721D01*
X165795Y48608D01*
X165726Y48506D01*
X165643Y48418D01*
X165547Y48341D01*
X165439Y48278D01*
X165318Y48228D01*
X165187Y48193D01*
X165046Y48171D01*
X164895Y48164D01*
G37*
G36*
X167148Y48164D02*
X166985Y48174D01*
X166838Y48202D01*
X166708Y48248D01*
X166595Y48314D01*
X166499Y48397D01*
X166423Y48497D01*
X166366Y48614D01*
X166329Y48747D01*
X166645Y48783D01*
X166714Y48624D01*
X166822Y48511D01*
X166969Y48443D01*
X167155Y48420D01*
X167274Y48429D01*
X167380Y48458D01*
X167472Y48506D01*
X167550Y48572D01*
X167612Y48655D01*
X167657Y48753D01*
X167683Y48865D01*
X167692Y48990D01*
X167683Y49101D01*
X167656Y49200D01*
X167612Y49288D01*
X167549Y49364D01*
X167471Y49427D01*
X167380Y49471D01*
X167277Y49498D01*
X167162Y49507D01*
X167039Y49497D01*
X166925Y49467D01*
X166816Y49413D01*
X166706Y49331D01*
X166400Y49331D01*
X166482Y50650D01*
X167875Y50650D01*
X167875Y50384D01*
X166767Y50384D01*
X166720Y49606D01*
X166828Y49675D01*
X166948Y49724D01*
X167081Y49753D01*
X167226Y49763D01*
X167398Y49750D01*
X167551Y49710D01*
X167686Y49643D01*
X167803Y49551D01*
X167897Y49436D01*
X167964Y49306D01*
X168004Y49160D01*
X168018Y48997D01*
X168003Y48814D01*
X167960Y48651D01*
X167888Y48509D01*
X167787Y48387D01*
X167661Y48289D01*
X167512Y48220D01*
X167341Y48178D01*
X167148Y48164D01*
G37*
G36*
X222050Y98753D02*
X221871Y98763D01*
X221704Y98792D01*
X221550Y98840D01*
X221409Y98907D01*
X221282Y98992D01*
X221171Y99094D01*
X221076Y99212D01*
X220997Y99347D01*
X220935Y99497D01*
X220890Y99660D01*
X220864Y99836D01*
X220855Y100025D01*
X220875Y100302D01*
X220934Y100548D01*
X221033Y100761D01*
X221171Y100943D01*
X221345Y101089D01*
X221549Y101192D01*
X221783Y101255D01*
X222048Y101275D01*
X222236Y101266D01*
X222407Y101237D01*
X222563Y101189D01*
X222702Y101122D01*
X222825Y101037D01*
X222930Y100932D01*
X223018Y100810D01*
X223088Y100668D01*
X222774Y100564D01*
X222724Y100665D01*
X222662Y100753D01*
X222588Y100828D01*
X222500Y100891D01*
X222401Y100941D01*
X222293Y100976D01*
X222177Y100997D01*
X222052Y101004D01*
X221859Y100988D01*
X221690Y100939D01*
X221543Y100857D01*
X221419Y100742D01*
X221320Y100599D01*
X221249Y100432D01*
X221207Y100241D01*
X221192Y100025D01*
X221207Y99811D01*
X221251Y99618D01*
X221325Y99448D01*
X221428Y99300D01*
X221556Y99180D01*
X221705Y99095D01*
X221875Y99043D01*
X222066Y99026D01*
X222190Y99034D01*
X222307Y99058D01*
X222416Y99098D01*
X222517Y99154D01*
X222609Y99225D01*
X222694Y99313D01*
X222840Y99536D01*
X223111Y99400D01*
X223028Y99251D01*
X222929Y99122D01*
X222815Y99011D01*
X222686Y98918D01*
X222543Y98846D01*
X222390Y98795D01*
X222225Y98764D01*
X222050Y98753D01*
G37*
G36*
X224198Y98788D02*
X223871Y98788D01*
X223884Y99026D01*
X223921Y99270D01*
X223983Y99520D01*
X224071Y99777D01*
X224187Y100046D01*
X224337Y100336D01*
X224520Y100644D01*
X224736Y100973D01*
X223419Y100973D01*
X223419Y101239D01*
X225039Y101239D01*
X225039Y100985D01*
X224718Y100473D01*
X224508Y100086D01*
X224373Y99763D01*
X224276Y99444D01*
X224218Y99122D01*
X224198Y98788D01*
G37*
D10*
X8000Y132000D02*
X8002Y132044D01*
X8008Y132088D01*
X8018Y132131D01*
X8031Y132173D01*
X8048Y132214D01*
X8069Y132253D01*
X8093Y132290D01*
X8120Y132325D01*
X8150Y132357D01*
X8183Y132387D01*
X8219Y132413D01*
X8256Y132437D01*
X8296Y132456D01*
X8337Y132473D01*
X8380Y132485D01*
X8423Y132494D01*
X8467Y132499D01*
X8511Y132500D01*
X8555Y132497D01*
X8599Y132490D01*
X8642Y132479D01*
X8684Y132465D01*
X8724Y132447D01*
X8763Y132425D01*
X8799Y132401D01*
X8833Y132373D01*
X8865Y132342D01*
X8894Y132308D01*
X8920Y132272D01*
X8942Y132234D01*
X8961Y132194D01*
X8976Y132152D01*
X8988Y132110D01*
X8996Y132066D01*
X9000Y132022D01*
X9000Y131978D01*
X8996Y131934D01*
X8988Y131890D01*
X8976Y131848D01*
X8961Y131806D01*
X8942Y131766D01*
X8920Y131728D01*
X8894Y131692D01*
X8865Y131658D01*
X8833Y131627D01*
X8799Y131599D01*
X8763Y131575D01*
X8724Y131553D01*
X8684Y131535D01*
X8642Y131521D01*
X8599Y131510D01*
X8555Y131503D01*
X8511Y131500D01*
X8467Y131501D01*
X8423Y131506D01*
X8380Y131515D01*
X8337Y131527D01*
X8296Y131544D01*
X8256Y131563D01*
X8219Y131587D01*
X8183Y131613D01*
X8150Y131643D01*
X8120Y131675D01*
X8093Y131710D01*
X8069Y131747D01*
X8048Y131786D01*
X8031Y131827D01*
X8018Y131869D01*
X8008Y131912D01*
X8002Y131956D01*
X8000Y132000D01*
D11*
X171800Y48500D03*
X171800Y41500D03*
D12*
X173800Y40500D02*
X173800Y49500D01*
X169800Y49500D02*
X169800Y40500D01*
D13*
X130367Y136500D02*
X4367Y136500D01*
X130367Y136500D02*
X130367Y19500D01*
X4367Y19500D01*
X4367Y136500D01*
D14*
X226800Y103462D03*
X227000Y109800D03*
X226862Y98000D03*
D12*
X147500Y29000D02*
X137500Y29000D01*
X147500Y29000D02*
X147500Y36000D01*
X147500Y39000D01*
X144500Y39000D01*
X137500Y39000D01*
X137500Y29000D01*
X147500Y36000D02*
X144500Y39000D01*
D11*
X159800Y41500D03*
X159800Y48500D03*
D12*
X157800Y49500D02*
X157800Y40500D01*
X161800Y40500D02*
X161800Y49500D01*
D15*
X198190Y14400D03*
D16*
X196850Y15850D02*
X196850Y18925D01*
X196850Y15850D02*
X193775Y15850D01*
X180550Y15850D02*
X180550Y18925D01*
X180550Y15850D02*
X183625Y15850D01*
X180550Y25075D02*
X180550Y28150D01*
X183625Y28150D01*
X196850Y28150D02*
X196850Y25075D01*
X196850Y28150D02*
X193775Y28150D01*
D12*
X220900Y109750D02*
X220900Y111750D01*
X220900Y109750D02*
X220900Y95250D01*
X206900Y95250D01*
X206900Y111750D01*
X218900Y111750D01*
X220900Y111750D01*
D15*
X222150Y113000D03*
D17*
X227138Y32800D03*
X227138Y19800D03*
D12*
X230638Y18800D02*
X230638Y33800D01*
X223638Y33800D02*
X223638Y18800D01*
D11*
X193700Y42000D03*
X193700Y35000D03*
D12*
X195700Y34000D02*
X195700Y43000D01*
X191700Y43000D02*
X191700Y34000D01*
D11*
X183900Y42000D03*
X183900Y35000D03*
D12*
X185900Y34000D02*
X185900Y43000D01*
X181900Y43000D02*
X181900Y34000D01*
D15*
X137650Y15060D03*
D18*
X139000Y16500D02*
X139000Y23500D01*
X146000Y23500D01*
X146000Y16500D01*
X139000Y16500D01*
D13*
X225700Y136300D02*
X227500Y136300D01*
X227500Y132300D01*
X227500Y119700D02*
X227500Y115700D01*
X225700Y115700D01*
X208700Y115700D02*
X206900Y115700D01*
X206900Y119700D01*
X206900Y136300D02*
X208700Y136300D01*
X206900Y136300D02*
X206900Y132300D01*
D15*
X229500Y113500D03*
D13*
X196350Y66400D02*
X132700Y66400D01*
X196350Y66400D02*
X202700Y72750D01*
X202700Y136400D01*
X132700Y136400D01*
X132700Y66400D01*
D19*
X150860Y39349D03*
M02*
