G04 EAGLE Gerber RS-274X export*
G75*
%MOMM*%
%FSLAX34Y34*%
%LPD*%
%INSilkscreen Bottom*%
%IPPOS*%
%AMOC8*
5,1,8,0,0,1.08239X$1,22.5*%
G01*
G04 Define Apertures*
%ADD10C,0.076200*%
%ADD11C,0.127000*%
D10*
X27375Y136300D02*
X232025Y136300D01*
X232136Y136298D01*
X232246Y136292D01*
X232357Y136283D01*
X232467Y136269D01*
X232576Y136252D01*
X232685Y136231D01*
X232793Y136206D01*
X232900Y136177D01*
X233006Y136145D01*
X233111Y136109D01*
X233214Y136069D01*
X233316Y136026D01*
X233417Y135979D01*
X233516Y135928D01*
X233613Y135875D01*
X233707Y135818D01*
X233800Y135757D01*
X233891Y135694D01*
X233980Y135627D01*
X234066Y135557D01*
X234149Y135484D01*
X234231Y135409D01*
X234309Y135331D01*
X234384Y135249D01*
X234457Y135166D01*
X234527Y135080D01*
X234594Y134991D01*
X234657Y134900D01*
X234718Y134807D01*
X234775Y134713D01*
X234828Y134616D01*
X234879Y134517D01*
X234926Y134416D01*
X234969Y134314D01*
X235009Y134211D01*
X235045Y134106D01*
X235077Y134000D01*
X235106Y133893D01*
X235131Y133785D01*
X235152Y133676D01*
X235169Y133567D01*
X235183Y133457D01*
X235192Y133346D01*
X235198Y133236D01*
X235200Y133125D01*
X235200Y18475D01*
X235198Y18364D01*
X235192Y18254D01*
X235183Y18143D01*
X235169Y18033D01*
X235152Y17924D01*
X235131Y17815D01*
X235106Y17707D01*
X235077Y17600D01*
X235045Y17494D01*
X235009Y17389D01*
X234969Y17286D01*
X234926Y17184D01*
X234879Y17083D01*
X234828Y16984D01*
X234775Y16887D01*
X234718Y16793D01*
X234657Y16700D01*
X234594Y16609D01*
X234527Y16520D01*
X234457Y16434D01*
X234384Y16351D01*
X234309Y16269D01*
X234231Y16191D01*
X234149Y16116D01*
X234066Y16043D01*
X233980Y15973D01*
X233891Y15906D01*
X233800Y15843D01*
X233707Y15782D01*
X233612Y15725D01*
X233516Y15672D01*
X233417Y15621D01*
X233316Y15574D01*
X233214Y15531D01*
X233111Y15491D01*
X233006Y15455D01*
X232900Y15423D01*
X232793Y15394D01*
X232685Y15369D01*
X232576Y15348D01*
X232467Y15331D01*
X232357Y15317D01*
X232246Y15308D01*
X232136Y15302D01*
X232025Y15300D01*
X9200Y15300D01*
X4200Y20300D02*
X4200Y30300D01*
X4202Y30440D01*
X4208Y30580D01*
X4218Y30720D01*
X4231Y30860D01*
X4249Y30999D01*
X4271Y31138D01*
X4296Y31275D01*
X4325Y31413D01*
X4358Y31549D01*
X4395Y31684D01*
X4436Y31818D01*
X4481Y31951D01*
X4529Y32083D01*
X4581Y32213D01*
X4636Y32342D01*
X4695Y32469D01*
X4758Y32595D01*
X4824Y32719D01*
X4893Y32840D01*
X4966Y32960D01*
X5043Y33078D01*
X5122Y33193D01*
X5205Y33307D01*
X5291Y33417D01*
X5380Y33526D01*
X5472Y33632D01*
X5567Y33735D01*
X5664Y33836D01*
X5765Y33933D01*
X5868Y34028D01*
X5974Y34120D01*
X6083Y34209D01*
X6193Y34295D01*
X6307Y34378D01*
X6422Y34457D01*
X6540Y34534D01*
X6660Y34607D01*
X6781Y34676D01*
X6905Y34742D01*
X7031Y34805D01*
X7158Y34864D01*
X7287Y34919D01*
X7417Y34971D01*
X7549Y35019D01*
X7682Y35064D01*
X7816Y35105D01*
X7951Y35142D01*
X8087Y35175D01*
X8225Y35204D01*
X8362Y35229D01*
X8501Y35251D01*
X8640Y35269D01*
X8780Y35282D01*
X8920Y35292D01*
X9060Y35298D01*
X9200Y35300D01*
X19200Y35300D01*
X19340Y35302D01*
X19480Y35308D01*
X19620Y35318D01*
X19760Y35331D01*
X19899Y35349D01*
X20038Y35371D01*
X20175Y35396D01*
X20313Y35425D01*
X20449Y35458D01*
X20584Y35495D01*
X20718Y35536D01*
X20851Y35581D01*
X20983Y35629D01*
X21113Y35681D01*
X21242Y35736D01*
X21369Y35795D01*
X21495Y35858D01*
X21619Y35924D01*
X21740Y35993D01*
X21860Y36066D01*
X21978Y36143D01*
X22093Y36222D01*
X22207Y36305D01*
X22317Y36391D01*
X22426Y36480D01*
X22532Y36572D01*
X22635Y36667D01*
X22736Y36764D01*
X22833Y36865D01*
X22928Y36968D01*
X23020Y37074D01*
X23109Y37183D01*
X23195Y37293D01*
X23278Y37407D01*
X23357Y37522D01*
X23434Y37640D01*
X23507Y37760D01*
X23576Y37881D01*
X23642Y38005D01*
X23705Y38131D01*
X23764Y38258D01*
X23819Y38387D01*
X23871Y38517D01*
X23919Y38649D01*
X23964Y38782D01*
X24005Y38916D01*
X24042Y39051D01*
X24075Y39187D01*
X24104Y39325D01*
X24129Y39462D01*
X24151Y39601D01*
X24169Y39740D01*
X24182Y39880D01*
X24192Y40020D01*
X24198Y40160D01*
X24200Y40300D01*
X24200Y133125D01*
X24202Y133236D01*
X24208Y133346D01*
X24217Y133457D01*
X24231Y133567D01*
X24248Y133676D01*
X24269Y133785D01*
X24294Y133893D01*
X24323Y134000D01*
X24355Y134106D01*
X24391Y134211D01*
X24431Y134314D01*
X24474Y134416D01*
X24521Y134517D01*
X24572Y134616D01*
X24625Y134713D01*
X24682Y134807D01*
X24743Y134900D01*
X24806Y134991D01*
X24873Y135080D01*
X24943Y135166D01*
X25016Y135249D01*
X25091Y135331D01*
X25169Y135409D01*
X25251Y135484D01*
X25334Y135557D01*
X25420Y135627D01*
X25509Y135694D01*
X25600Y135757D01*
X25693Y135818D01*
X25788Y135875D01*
X25884Y135928D01*
X25983Y135979D01*
X26084Y136026D01*
X26186Y136069D01*
X26289Y136109D01*
X26394Y136145D01*
X26500Y136177D01*
X26607Y136206D01*
X26715Y136231D01*
X26824Y136252D01*
X26933Y136269D01*
X27043Y136283D01*
X27154Y136292D01*
X27264Y136298D01*
X27375Y136300D01*
X4200Y20300D02*
X4202Y20160D01*
X4208Y20020D01*
X4218Y19880D01*
X4231Y19740D01*
X4249Y19601D01*
X4271Y19462D01*
X4296Y19325D01*
X4325Y19187D01*
X4358Y19051D01*
X4395Y18916D01*
X4436Y18782D01*
X4481Y18649D01*
X4529Y18517D01*
X4581Y18387D01*
X4636Y18258D01*
X4695Y18131D01*
X4758Y18005D01*
X4824Y17881D01*
X4893Y17760D01*
X4966Y17640D01*
X5043Y17522D01*
X5122Y17407D01*
X5205Y17293D01*
X5291Y17183D01*
X5380Y17074D01*
X5472Y16968D01*
X5567Y16865D01*
X5664Y16764D01*
X5765Y16667D01*
X5868Y16572D01*
X5974Y16480D01*
X6083Y16391D01*
X6193Y16305D01*
X6307Y16222D01*
X6422Y16143D01*
X6540Y16066D01*
X6660Y15993D01*
X6781Y15924D01*
X6905Y15858D01*
X7031Y15795D01*
X7158Y15736D01*
X7287Y15681D01*
X7417Y15629D01*
X7549Y15581D01*
X7682Y15536D01*
X7816Y15495D01*
X7951Y15458D01*
X8087Y15425D01*
X8225Y15396D01*
X8362Y15371D01*
X8501Y15349D01*
X8640Y15331D01*
X8780Y15318D01*
X8920Y15308D01*
X9060Y15302D01*
X9200Y15300D01*
D11*
X231100Y13400D02*
X231100Y133400D01*
X21100Y133400D01*
X21100Y13400D01*
X101100Y13400D01*
X151100Y13400D01*
X231100Y13400D01*
X151100Y13400D02*
X151100Y23400D01*
X101100Y23400D01*
X101100Y13400D01*
M02*
