G04 EAGLE Gerber RS-274X export*
G75*
%MOMM*%
%FSLAX34Y34*%
%LPD*%
%INSolderpaste Top*%
%IPPOS*%
%AMOC8*
5,1,8,0,0,1.08239X$1,22.5*%
G01*
G04 Define Apertures*
%ADD10R,0.400000X0.400000*%
%ADD11R,0.700000X0.400000*%
%ADD12R,0.400000X0.700000*%
%ADD13R,1.280000X1.280000*%
%ADD14R,0.224000X0.374000*%
%ADD15R,3.720000X1.120000*%
%ADD16C,0.200000*%
%ADD17C,0.192000*%
%ADD18C,0.120000*%
%ADD19R,0.880000X0.480000*%
%ADD20C,0.127000*%
%ADD21R,0.225000X0.200000*%
%ADD22R,0.200000X0.225000*%
%ADD23R,0.204000X0.224000*%
%ADD24R,0.340000X0.240000*%
%ADD25R,0.240000X0.340000*%
%ADD26C,0.225438*%
%ADD27R,0.640000X1.040000*%
%ADD28R,0.200000X0.300000*%
G36*
X183800Y18600D02*
X183800Y17400D01*
X183785Y17224D01*
X183704Y17067D01*
X183568Y16953D01*
X183400Y16900D01*
X182000Y16900D01*
X181847Y16930D01*
X181717Y17017D01*
X181630Y17147D01*
X181600Y17300D01*
X181600Y18600D01*
X181638Y18791D01*
X181746Y18954D01*
X181909Y19062D01*
X182100Y19100D01*
X183300Y19100D01*
X183491Y19062D01*
X183654Y18954D01*
X183762Y18791D01*
X183800Y18600D01*
G37*
G36*
X183800Y22600D02*
X183800Y21400D01*
X183785Y21224D01*
X183704Y21067D01*
X183568Y20953D01*
X183400Y20900D01*
X182000Y20900D01*
X181847Y20930D01*
X181717Y21017D01*
X181630Y21147D01*
X181600Y21300D01*
X181600Y22600D01*
X181638Y22791D01*
X181746Y22954D01*
X181909Y23062D01*
X182100Y23100D01*
X183300Y23100D01*
X183491Y23062D01*
X183654Y22954D01*
X183762Y22791D01*
X183800Y22600D01*
G37*
G36*
X183800Y26600D02*
X183800Y25400D01*
X183785Y25224D01*
X183704Y25067D01*
X183568Y24953D01*
X183400Y24900D01*
X182000Y24900D01*
X181847Y24930D01*
X181717Y25017D01*
X181630Y25147D01*
X181600Y25300D01*
X181600Y26600D01*
X181638Y26791D01*
X181746Y26954D01*
X181909Y27062D01*
X182100Y27100D01*
X183300Y27100D01*
X183491Y27062D01*
X183654Y26954D01*
X183762Y26791D01*
X183800Y26600D01*
G37*
G36*
X187800Y18600D02*
X187800Y17400D01*
X187785Y17224D01*
X187704Y17067D01*
X187568Y16953D01*
X187400Y16900D01*
X186000Y16900D01*
X185847Y16930D01*
X185717Y17017D01*
X185630Y17147D01*
X185600Y17300D01*
X185600Y18600D01*
X185638Y18791D01*
X185746Y18954D01*
X185909Y19062D01*
X186100Y19100D01*
X187300Y19100D01*
X187491Y19062D01*
X187654Y18954D01*
X187762Y18791D01*
X187800Y18600D01*
G37*
G36*
X187800Y22600D02*
X187800Y21400D01*
X187785Y21224D01*
X187704Y21067D01*
X187568Y20953D01*
X187400Y20900D01*
X186000Y20900D01*
X185847Y20930D01*
X185717Y21017D01*
X185630Y21147D01*
X185600Y21300D01*
X185600Y22600D01*
X185638Y22791D01*
X185746Y22954D01*
X185909Y23062D01*
X186100Y23100D01*
X187300Y23100D01*
X187491Y23062D01*
X187654Y22954D01*
X187762Y22791D01*
X187800Y22600D01*
G37*
G36*
X187800Y26600D02*
X187800Y25400D01*
X187785Y25224D01*
X187704Y25067D01*
X187568Y24953D01*
X187400Y24900D01*
X186000Y24900D01*
X185847Y24930D01*
X185717Y25017D01*
X185630Y25147D01*
X185600Y25300D01*
X185600Y26600D01*
X185638Y26791D01*
X185746Y26954D01*
X185909Y27062D01*
X186100Y27100D01*
X187300Y27100D01*
X187491Y27062D01*
X187654Y26954D01*
X187762Y26791D01*
X187800Y26600D01*
G37*
G36*
X191800Y18600D02*
X191800Y17400D01*
X191785Y17224D01*
X191704Y17067D01*
X191568Y16953D01*
X191400Y16900D01*
X190000Y16900D01*
X189847Y16930D01*
X189717Y17017D01*
X189630Y17147D01*
X189600Y17300D01*
X189600Y18600D01*
X189638Y18791D01*
X189746Y18954D01*
X189909Y19062D01*
X190100Y19100D01*
X191300Y19100D01*
X191491Y19062D01*
X191654Y18954D01*
X191762Y18791D01*
X191800Y18600D01*
G37*
G36*
X191800Y22600D02*
X191800Y21400D01*
X191785Y21224D01*
X191704Y21067D01*
X191568Y20953D01*
X191400Y20900D01*
X190000Y20900D01*
X189847Y20930D01*
X189717Y21017D01*
X189630Y21147D01*
X189600Y21300D01*
X189600Y22600D01*
X189638Y22791D01*
X189746Y22954D01*
X189909Y23062D01*
X190100Y23100D01*
X191300Y23100D01*
X191491Y23062D01*
X191654Y22954D01*
X191762Y22791D01*
X191800Y22600D01*
G37*
G36*
X191800Y26600D02*
X191800Y25400D01*
X191785Y25224D01*
X191704Y25067D01*
X191568Y24953D01*
X191400Y24900D01*
X190000Y24900D01*
X189847Y24930D01*
X189717Y25017D01*
X189630Y25147D01*
X189600Y25300D01*
X189600Y26600D01*
X189638Y26791D01*
X189746Y26954D01*
X189909Y27062D01*
X190100Y27100D01*
X191300Y27100D01*
X191491Y27062D01*
X191654Y26954D01*
X191762Y26791D01*
X191800Y26600D01*
G37*
G36*
X195800Y18600D02*
X195800Y17400D01*
X195785Y17224D01*
X195704Y17067D01*
X195568Y16953D01*
X195400Y16900D01*
X194000Y16900D01*
X193847Y16930D01*
X193717Y17017D01*
X193630Y17147D01*
X193600Y17300D01*
X193600Y18600D01*
X193638Y18791D01*
X193746Y18954D01*
X193909Y19062D01*
X194100Y19100D01*
X195300Y19100D01*
X195491Y19062D01*
X195654Y18954D01*
X195762Y18791D01*
X195800Y18600D01*
G37*
G36*
X195800Y22600D02*
X195800Y21400D01*
X195785Y21224D01*
X195704Y21067D01*
X195568Y20953D01*
X195400Y20900D01*
X194000Y20900D01*
X193847Y20930D01*
X193717Y21017D01*
X193630Y21147D01*
X193600Y21300D01*
X193600Y22600D01*
X193638Y22791D01*
X193746Y22954D01*
X193909Y23062D01*
X194100Y23100D01*
X195300Y23100D01*
X195491Y23062D01*
X195654Y22954D01*
X195762Y22791D01*
X195800Y22600D01*
G37*
G36*
X195800Y26600D02*
X195800Y25400D01*
X195785Y25224D01*
X195704Y25067D01*
X195568Y24953D01*
X195400Y24900D01*
X194000Y24900D01*
X193847Y24930D01*
X193717Y25017D01*
X193630Y25147D01*
X193600Y25300D01*
X193600Y26600D01*
X193638Y26791D01*
X193746Y26954D01*
X193909Y27062D01*
X194100Y27100D01*
X195300Y27100D01*
X195491Y27062D01*
X195654Y26954D01*
X195762Y26791D01*
X195800Y26600D01*
G37*
D10*
X171800Y49500D03*
X171800Y40500D03*
D11*
X10867Y122000D03*
X10867Y114000D03*
X10867Y106000D03*
X10867Y98000D03*
X10867Y90000D03*
X10867Y82000D03*
X10867Y74000D03*
X10867Y66000D03*
X10867Y58000D03*
X10867Y50000D03*
X10867Y42000D03*
X10867Y34000D03*
D12*
X23367Y26000D03*
X31367Y26000D03*
X39367Y26000D03*
X47367Y26000D03*
X55367Y26000D03*
X63367Y26000D03*
X71367Y26000D03*
X79367Y26000D03*
X87367Y26000D03*
X95367Y26000D03*
X103367Y26000D03*
X111367Y26000D03*
D11*
X123867Y34000D03*
X123867Y42000D03*
X123867Y50000D03*
X123867Y58000D03*
X123867Y66000D03*
X123867Y74000D03*
X123867Y82000D03*
X123867Y90000D03*
X123867Y98000D03*
X123867Y106000D03*
X123867Y114000D03*
X123867Y122000D03*
D12*
X111367Y130000D03*
X103367Y130000D03*
X95367Y130000D03*
X87367Y130000D03*
X79367Y130000D03*
X71367Y130000D03*
X63367Y130000D03*
X55367Y130000D03*
X47367Y130000D03*
X39367Y130000D03*
X31367Y130000D03*
X23367Y130000D03*
D13*
X44367Y101000D03*
X67367Y101000D03*
X90367Y101000D03*
X44367Y78000D03*
X67367Y78000D03*
X90367Y78000D03*
X44367Y55000D03*
X67367Y55000D03*
X90367Y55000D03*
D14*
X229350Y103462D03*
X224250Y103462D03*
X229550Y109800D03*
X224450Y109800D03*
X229412Y98000D03*
X224312Y98000D03*
D15*
X224500Y52100D03*
D16*
X144500Y36000D03*
X144500Y32000D03*
X140500Y32000D03*
X140500Y36000D03*
D15*
X224500Y79600D03*
D10*
X159800Y40500D03*
X159800Y49500D03*
D17*
X218150Y108500D03*
X218150Y103500D03*
X218150Y98500D03*
X213900Y106000D03*
X213900Y101000D03*
X209650Y108500D03*
X209650Y103500D03*
X209650Y98500D03*
D18*
X216585Y19850D02*
X216585Y16250D01*
X202867Y16250D01*
X202867Y19850D01*
X216585Y19850D01*
X216585Y17390D02*
X202867Y17390D01*
X202867Y18530D02*
X216585Y18530D01*
X216585Y19670D02*
X202867Y19670D01*
X216585Y32750D02*
X216585Y36350D01*
X216585Y32750D02*
X202867Y32750D01*
X202867Y36350D01*
X216585Y36350D01*
X216585Y33890D02*
X202867Y33890D01*
X202867Y35030D02*
X216585Y35030D01*
X216585Y36170D02*
X202867Y36170D01*
D19*
X227138Y33800D03*
X227138Y18800D03*
D10*
X193700Y43000D03*
X193700Y34000D03*
X183900Y43000D03*
X183900Y34000D03*
D20*
X140228Y18245D02*
X140230Y18289D01*
X140236Y18333D01*
X140246Y18376D01*
X140259Y18418D01*
X140276Y18459D01*
X140297Y18498D01*
X140321Y18535D01*
X140348Y18570D01*
X140378Y18602D01*
X140411Y18632D01*
X140447Y18658D01*
X140484Y18682D01*
X140524Y18701D01*
X140565Y18718D01*
X140608Y18730D01*
X140651Y18739D01*
X140695Y18744D01*
X140739Y18745D01*
X140783Y18742D01*
X140827Y18735D01*
X140870Y18724D01*
X140912Y18710D01*
X140952Y18692D01*
X140991Y18670D01*
X141027Y18646D01*
X141061Y18618D01*
X141093Y18587D01*
X141122Y18553D01*
X141148Y18517D01*
X141170Y18479D01*
X141189Y18439D01*
X141204Y18397D01*
X141216Y18355D01*
X141224Y18311D01*
X141228Y18267D01*
X141228Y18223D01*
X141224Y18179D01*
X141216Y18135D01*
X141204Y18093D01*
X141189Y18051D01*
X141170Y18011D01*
X141148Y17973D01*
X141122Y17937D01*
X141093Y17903D01*
X141061Y17872D01*
X141027Y17844D01*
X140991Y17820D01*
X140952Y17798D01*
X140912Y17780D01*
X140870Y17766D01*
X140827Y17755D01*
X140783Y17748D01*
X140739Y17745D01*
X140695Y17746D01*
X140651Y17751D01*
X140608Y17760D01*
X140565Y17772D01*
X140524Y17789D01*
X140484Y17808D01*
X140447Y17832D01*
X140411Y17858D01*
X140378Y17888D01*
X140348Y17920D01*
X140321Y17955D01*
X140297Y17992D01*
X140276Y18031D01*
X140259Y18072D01*
X140246Y18114D01*
X140236Y18157D01*
X140230Y18201D01*
X140228Y18245D01*
X140228Y21745D02*
X140230Y21789D01*
X140236Y21833D01*
X140246Y21876D01*
X140259Y21918D01*
X140276Y21959D01*
X140297Y21998D01*
X140321Y22035D01*
X140348Y22070D01*
X140378Y22102D01*
X140411Y22132D01*
X140447Y22158D01*
X140484Y22182D01*
X140524Y22201D01*
X140565Y22218D01*
X140608Y22230D01*
X140651Y22239D01*
X140695Y22244D01*
X140739Y22245D01*
X140783Y22242D01*
X140827Y22235D01*
X140870Y22224D01*
X140912Y22210D01*
X140952Y22192D01*
X140991Y22170D01*
X141027Y22146D01*
X141061Y22118D01*
X141093Y22087D01*
X141122Y22053D01*
X141148Y22017D01*
X141170Y21979D01*
X141189Y21939D01*
X141204Y21897D01*
X141216Y21855D01*
X141224Y21811D01*
X141228Y21767D01*
X141228Y21723D01*
X141224Y21679D01*
X141216Y21635D01*
X141204Y21593D01*
X141189Y21551D01*
X141170Y21511D01*
X141148Y21473D01*
X141122Y21437D01*
X141093Y21403D01*
X141061Y21372D01*
X141027Y21344D01*
X140991Y21320D01*
X140952Y21298D01*
X140912Y21280D01*
X140870Y21266D01*
X140827Y21255D01*
X140783Y21248D01*
X140739Y21245D01*
X140695Y21246D01*
X140651Y21251D01*
X140608Y21260D01*
X140565Y21272D01*
X140524Y21289D01*
X140484Y21308D01*
X140447Y21332D01*
X140411Y21358D01*
X140378Y21388D01*
X140348Y21420D01*
X140321Y21455D01*
X140297Y21492D01*
X140276Y21531D01*
X140259Y21572D01*
X140246Y21614D01*
X140236Y21657D01*
X140230Y21701D01*
X140228Y21745D01*
X143728Y18245D02*
X143730Y18289D01*
X143736Y18333D01*
X143746Y18376D01*
X143759Y18418D01*
X143776Y18459D01*
X143797Y18498D01*
X143821Y18535D01*
X143848Y18570D01*
X143878Y18602D01*
X143911Y18632D01*
X143947Y18658D01*
X143984Y18682D01*
X144024Y18701D01*
X144065Y18718D01*
X144108Y18730D01*
X144151Y18739D01*
X144195Y18744D01*
X144239Y18745D01*
X144283Y18742D01*
X144327Y18735D01*
X144370Y18724D01*
X144412Y18710D01*
X144452Y18692D01*
X144491Y18670D01*
X144527Y18646D01*
X144561Y18618D01*
X144593Y18587D01*
X144622Y18553D01*
X144648Y18517D01*
X144670Y18479D01*
X144689Y18439D01*
X144704Y18397D01*
X144716Y18355D01*
X144724Y18311D01*
X144728Y18267D01*
X144728Y18223D01*
X144724Y18179D01*
X144716Y18135D01*
X144704Y18093D01*
X144689Y18051D01*
X144670Y18011D01*
X144648Y17973D01*
X144622Y17937D01*
X144593Y17903D01*
X144561Y17872D01*
X144527Y17844D01*
X144491Y17820D01*
X144452Y17798D01*
X144412Y17780D01*
X144370Y17766D01*
X144327Y17755D01*
X144283Y17748D01*
X144239Y17745D01*
X144195Y17746D01*
X144151Y17751D01*
X144108Y17760D01*
X144065Y17772D01*
X144024Y17789D01*
X143984Y17808D01*
X143947Y17832D01*
X143911Y17858D01*
X143878Y17888D01*
X143848Y17920D01*
X143821Y17955D01*
X143797Y17992D01*
X143776Y18031D01*
X143759Y18072D01*
X143746Y18114D01*
X143736Y18157D01*
X143730Y18201D01*
X143728Y18245D01*
X143728Y21745D02*
X143730Y21789D01*
X143736Y21833D01*
X143746Y21876D01*
X143759Y21918D01*
X143776Y21959D01*
X143797Y21998D01*
X143821Y22035D01*
X143848Y22070D01*
X143878Y22102D01*
X143911Y22132D01*
X143947Y22158D01*
X143984Y22182D01*
X144024Y22201D01*
X144065Y22218D01*
X144108Y22230D01*
X144151Y22239D01*
X144195Y22244D01*
X144239Y22245D01*
X144283Y22242D01*
X144327Y22235D01*
X144370Y22224D01*
X144412Y22210D01*
X144452Y22192D01*
X144491Y22170D01*
X144527Y22146D01*
X144561Y22118D01*
X144593Y22087D01*
X144622Y22053D01*
X144648Y22017D01*
X144670Y21979D01*
X144689Y21939D01*
X144704Y21897D01*
X144716Y21855D01*
X144724Y21811D01*
X144728Y21767D01*
X144728Y21723D01*
X144724Y21679D01*
X144716Y21635D01*
X144704Y21593D01*
X144689Y21551D01*
X144670Y21511D01*
X144648Y21473D01*
X144622Y21437D01*
X144593Y21403D01*
X144561Y21372D01*
X144527Y21344D01*
X144491Y21320D01*
X144452Y21298D01*
X144412Y21280D01*
X144370Y21266D01*
X144327Y21255D01*
X144283Y21248D01*
X144239Y21245D01*
X144195Y21246D01*
X144151Y21251D01*
X144108Y21260D01*
X144065Y21272D01*
X144024Y21289D01*
X143984Y21308D01*
X143947Y21332D01*
X143911Y21358D01*
X143878Y21388D01*
X143848Y21420D01*
X143821Y21455D01*
X143797Y21492D01*
X143776Y21531D01*
X143759Y21572D01*
X143746Y21614D01*
X143736Y21657D01*
X143730Y21701D01*
X143728Y21745D01*
D21*
X224850Y123500D03*
X224850Y128500D03*
D22*
X222200Y133650D03*
X217200Y133650D03*
X212200Y133650D03*
D21*
X209550Y128500D03*
X209550Y123500D03*
D22*
X212200Y118350D03*
X217200Y118350D03*
D23*
X222200Y118350D03*
D24*
X199200Y75400D03*
X199200Y81900D03*
X199200Y88400D03*
X199200Y94900D03*
X199200Y101400D03*
X199200Y107900D03*
X199200Y114400D03*
X199200Y120900D03*
X199200Y127400D03*
D25*
X193700Y132900D03*
X187200Y132900D03*
X180700Y132900D03*
X173700Y132900D03*
X167700Y132900D03*
X161200Y132900D03*
X154700Y132900D03*
X148200Y132900D03*
X141700Y132900D03*
D24*
X136200Y127400D03*
X136200Y120900D03*
X136200Y114400D03*
X136200Y107900D03*
X136200Y101400D03*
X136200Y94900D03*
X136200Y88400D03*
X136200Y81900D03*
X136200Y75400D03*
D25*
X141700Y69900D03*
X148200Y69900D03*
X154700Y69900D03*
X161200Y69900D03*
X167700Y69900D03*
X174200Y69900D03*
X180700Y69900D03*
X186700Y69900D03*
X193700Y69900D03*
D10*
X167700Y101400D03*
X167700Y88400D03*
X180700Y88400D03*
X180700Y101400D03*
X180700Y114400D03*
X167700Y114400D03*
X154700Y114400D03*
D26*
X154750Y32900D02*
X157550Y32900D01*
X157550Y27900D02*
X154750Y27900D01*
X154750Y22900D02*
X157550Y22900D01*
X157550Y17900D02*
X154750Y17900D01*
X174250Y17900D02*
X177050Y17900D01*
X177050Y22900D02*
X174250Y22900D01*
X174250Y27900D02*
X177050Y27900D01*
X177050Y32900D02*
X174250Y32900D01*
D27*
X165900Y25400D03*
D28*
X224524Y92438D03*
X229524Y92438D03*
M02*
