G04 EAGLE Gerber RS-274X export*
G75*
%MOMM*%
%FSLAX34Y34*%
%LPD*%
%INCopper Layer 15*%
%IPPOS*%
%AMOC8*
5,1,8,0,0,1.08239X$1,22.5*%
G01*
%ADD10C,1.108000*%
%ADD11C,0.958000*%
%ADD12C,1.016000*%
%ADD13C,0.302400*%
%ADD14C,0.152400*%
%ADD15C,0.254000*%
%ADD16C,0.304800*%


D10*
X251000Y50000D03*
X271000Y50000D03*
D11*
X13500Y20000D03*
D10*
X270500Y90000D03*
X250500Y90000D03*
D12*
X10000Y8000D03*
X40500Y8000D03*
D13*
X196500Y18000D03*
X63500Y7000D03*
X250000Y70000D03*
X270000Y70000D03*
X230000Y70000D03*
X210000Y70000D03*
X190000Y70000D03*
X170000Y70000D03*
X150000Y70000D03*
X150000Y90000D03*
X170000Y90000D03*
X190000Y90000D03*
X210000Y90000D03*
X190000Y110000D03*
X170000Y110000D03*
X150000Y110000D03*
X270000Y110000D03*
X250000Y110000D03*
X227500Y110000D03*
X270000Y30000D03*
X250000Y30000D03*
X170000Y65000D03*
X160000Y65000D03*
X150000Y65000D03*
X180000Y65000D03*
X190000Y65000D03*
X200000Y65000D03*
X210000Y65000D03*
X220000Y65000D03*
X230000Y60000D03*
X160000Y45000D03*
X170000Y45000D03*
X180000Y45000D03*
X190000Y45000D03*
X200000Y45000D03*
X210000Y45000D03*
X150000Y45000D03*
X140000Y65000D03*
X240000Y62500D03*
X250000Y62500D03*
X260000Y62500D03*
X270000Y62500D03*
X270000Y37500D03*
X260000Y37500D03*
X250000Y37500D03*
X240000Y37500D03*
X270000Y77500D03*
X260000Y77500D03*
X250000Y77500D03*
X240000Y77500D03*
X260000Y102500D03*
X270000Y102500D03*
X250000Y102500D03*
X240000Y102500D03*
X207500Y110000D03*
X207500Y100000D03*
X220000Y82500D03*
X230000Y80000D03*
X230000Y102500D03*
X227500Y120000D03*
X207500Y120000D03*
X132500Y135000D03*
X232500Y5000D03*
X232500Y135000D03*
X211000Y5000D03*
X160000Y7500D03*
X27500Y67500D03*
X27500Y37500D03*
X57500Y37500D03*
X57500Y67500D03*
X87500Y67500D03*
X87500Y117500D03*
X107500Y117500D03*
X37500Y17500D03*
X115000Y50000D03*
X83500Y7000D03*
X220000Y45000D03*
X230000Y42500D03*
X280000Y62500D03*
X280000Y37500D03*
X280000Y77500D03*
X280000Y102500D03*
X5000Y132500D03*
X115000Y118000D03*
X216500Y20500D03*
X200500Y22000D03*
X119250Y14500D03*
X144000Y22650D03*
X115500Y110000D03*
X216500Y15500D03*
X204500Y22000D03*
X123500Y12000D03*
X151650Y17500D03*
D14*
X187286Y23140D02*
X190182Y26036D01*
D13*
X187286Y23140D03*
D14*
X203536Y22964D02*
X204500Y22000D01*
X203536Y22964D02*
X203536Y23258D01*
X200758Y26036D01*
X190182Y26036D01*
D13*
X111000Y43000D03*
X151400Y37500D03*
X162500Y37500D03*
X105000Y37000D03*
X78000Y120000D03*
X27000Y101548D03*
X70000Y120000D03*
X27000Y111000D03*
X226500Y10500D03*
X196500Y14000D03*
X195600Y30900D03*
X62176Y14750D03*
D15*
X66750Y14750D01*
X196044Y13544D02*
X196044Y12532D01*
X196044Y13544D02*
X196500Y14000D01*
X196044Y12532D02*
X186806Y3294D01*
X78206Y3294D02*
X66750Y14750D01*
X78206Y3294D02*
X186806Y3294D01*
X196500Y14000D02*
X206000Y14000D01*
X211000Y9000D01*
X225000Y9000D01*
X226500Y10500D01*
X226500Y21500D01*
X217100Y30900D01*
X195600Y30900D01*
D13*
X93000Y14000D03*
X127750Y14500D03*
X149000Y7350D03*
D16*
X109000Y56000D02*
X87851Y34851D01*
D13*
X109000Y90000D03*
D16*
X109000Y56000D01*
D13*
X87851Y34851D03*
D16*
X119000Y8000D02*
X126000Y8000D01*
X127750Y9750D01*
X127750Y14500D01*
X142500Y14500D01*
X149000Y8000D02*
X149000Y7350D01*
X149000Y8000D02*
X142500Y14500D01*
X113012Y13988D02*
X93012Y13988D01*
X113012Y13988D02*
X119000Y8000D01*
D13*
X27000Y90000D03*
X56500Y115000D03*
X24000Y18000D03*
X115500Y101500D03*
X30000Y18000D03*
X93000Y10000D03*
D14*
X87000Y10000D01*
X83000Y14000D01*
X83000Y17000D01*
X117500Y25000D02*
X119000Y23500D01*
D13*
X119000Y23500D03*
D14*
X91000Y25000D02*
X83000Y17000D01*
X91000Y25000D02*
X117500Y25000D01*
D13*
X217600Y37500D03*
X89000Y14000D03*
D15*
X88956Y14044D01*
X88956Y16368D01*
X91588Y19000D01*
X135194Y26194D02*
X159806Y26194D01*
X172000Y14000D01*
X177000Y14000D01*
X181000Y18000D01*
X181000Y29000D01*
X128000Y19000D02*
X91588Y19000D01*
X128000Y19000D02*
X135194Y26194D01*
X181000Y29000D02*
X189500Y37500D01*
X217600Y37500D01*
D13*
X95000Y120000D03*
X228700Y37500D03*
X174000Y18000D03*
D15*
X24100Y30600D02*
X13500Y20000D01*
X162900Y30600D02*
X174000Y19500D01*
X174000Y18000D01*
X162900Y30600D02*
X24100Y30600D01*
D13*
X192500Y14000D03*
X174000Y10000D03*
M02*
