G04 EAGLE Gerber RS-274X export*
G75*
%MOMM*%
%FSLAX34Y34*%
%LPD*%
%INTop Copper*%
%IPPOS*%
%AMOC8*
5,1,8,0,0,1.08239X$1,22.5*%
G01*
%ADD10R,0.250000X0.350000*%
%ADD11R,0.800000X0.500000*%
%ADD12R,0.500000X0.800000*%
%ADD13R,1.600000X1.600000*%
%ADD14R,0.280000X0.430000*%
%ADD15R,0.350000X0.250000*%
%ADD16R,0.430000X0.280000*%
%ADD17C,0.280000*%
%ADD18C,1.108000*%
%ADD19C,0.250000*%
%ADD20C,0.958000*%
%ADD21C,0.800000*%
%ADD22R,0.900000X0.500000*%
%ADD23C,0.320000*%
%ADD24C,0.240000*%
%ADD25C,0.240000*%
%ADD26C,0.260000*%
%ADD27C,1.016000*%
%ADD28C,0.031500*%
%ADD29C,0.152400*%
%ADD30C,0.302400*%
%ADD31C,0.254000*%
%ADD32C,0.304800*%
%ADD33C,0.609600*%
%ADD34C,0.508000*%
%ADD35C,0.203200*%

G36*
X117601Y1542D02*
X117601Y1542D01*
X117739Y1555D01*
X117758Y1562D01*
X117778Y1565D01*
X117908Y1616D01*
X118039Y1663D01*
X118055Y1674D01*
X118074Y1682D01*
X118187Y1763D01*
X118302Y1841D01*
X118315Y1857D01*
X118332Y1868D01*
X118420Y1976D01*
X118512Y2080D01*
X118521Y2098D01*
X118534Y2113D01*
X118593Y2239D01*
X118657Y2363D01*
X118661Y2383D01*
X118670Y2401D01*
X118696Y2537D01*
X118726Y2673D01*
X118726Y2694D01*
X118730Y2713D01*
X118721Y2852D01*
X118717Y2991D01*
X118711Y3011D01*
X118710Y3031D01*
X118667Y3163D01*
X118648Y3231D01*
X119250Y3231D01*
X119851Y3231D01*
X119830Y3187D01*
X119826Y3167D01*
X119818Y3148D01*
X119796Y3011D01*
X119770Y2874D01*
X119772Y2854D01*
X119768Y2834D01*
X119781Y2696D01*
X119790Y2557D01*
X119796Y2538D01*
X119798Y2518D01*
X119845Y2387D01*
X119888Y2255D01*
X119899Y2237D01*
X119906Y2218D01*
X119984Y2103D01*
X120058Y1986D01*
X120073Y1972D01*
X120084Y1955D01*
X120189Y1863D01*
X120290Y1768D01*
X120308Y1758D01*
X120323Y1745D01*
X120447Y1682D01*
X120568Y1614D01*
X120588Y1609D01*
X120606Y1600D01*
X120742Y1570D01*
X120876Y1535D01*
X120904Y1533D01*
X120916Y1530D01*
X120937Y1531D01*
X121037Y1525D01*
X125963Y1525D01*
X126101Y1542D01*
X126239Y1555D01*
X126258Y1562D01*
X126278Y1565D01*
X126408Y1616D01*
X126539Y1663D01*
X126555Y1674D01*
X126574Y1682D01*
X126687Y1763D01*
X126802Y1841D01*
X126815Y1857D01*
X126832Y1868D01*
X126920Y1976D01*
X127012Y2080D01*
X127021Y2098D01*
X127034Y2113D01*
X127093Y2239D01*
X127157Y2363D01*
X127161Y2383D01*
X127170Y2401D01*
X127196Y2537D01*
X127226Y2673D01*
X127226Y2694D01*
X127230Y2713D01*
X127221Y2852D01*
X127217Y2991D01*
X127211Y3011D01*
X127210Y3031D01*
X127167Y3163D01*
X127148Y3231D01*
X127750Y3231D01*
X128351Y3231D01*
X128330Y3187D01*
X128326Y3167D01*
X128318Y3148D01*
X128296Y3011D01*
X128270Y2874D01*
X128272Y2854D01*
X128268Y2834D01*
X128281Y2696D01*
X128290Y2557D01*
X128296Y2538D01*
X128298Y2518D01*
X128345Y2387D01*
X128388Y2255D01*
X128399Y2237D01*
X128406Y2218D01*
X128484Y2103D01*
X128558Y1986D01*
X128573Y1972D01*
X128584Y1955D01*
X128689Y1863D01*
X128790Y1768D01*
X128808Y1758D01*
X128823Y1745D01*
X128947Y1682D01*
X129068Y1614D01*
X129088Y1609D01*
X129106Y1600D01*
X129242Y1570D01*
X129376Y1535D01*
X129404Y1533D01*
X129416Y1530D01*
X129437Y1531D01*
X129537Y1525D01*
X188480Y1525D01*
X188598Y1540D01*
X188717Y1547D01*
X188755Y1560D01*
X188796Y1565D01*
X188906Y1608D01*
X189019Y1645D01*
X189054Y1667D01*
X189091Y1682D01*
X189187Y1751D01*
X189288Y1815D01*
X189316Y1845D01*
X189349Y1868D01*
X189425Y1960D01*
X189506Y2047D01*
X189526Y2082D01*
X189551Y2113D01*
X189602Y2221D01*
X189660Y2325D01*
X189670Y2365D01*
X189687Y2401D01*
X189709Y2518D01*
X189739Y2633D01*
X189743Y2693D01*
X189747Y2713D01*
X189746Y2731D01*
X191500Y2731D01*
X193259Y2731D01*
X193266Y2676D01*
X193273Y2557D01*
X193286Y2519D01*
X193291Y2478D01*
X193334Y2368D01*
X193371Y2255D01*
X193393Y2220D01*
X193408Y2183D01*
X193477Y2087D01*
X193541Y1986D01*
X193571Y1958D01*
X193594Y1925D01*
X193686Y1849D01*
X193773Y1768D01*
X193808Y1748D01*
X193839Y1723D01*
X193947Y1672D01*
X194051Y1614D01*
X194091Y1604D01*
X194127Y1587D01*
X194244Y1565D01*
X194359Y1535D01*
X194419Y1531D01*
X194439Y1527D01*
X194460Y1529D01*
X194520Y1525D01*
X195980Y1525D01*
X196098Y1540D01*
X196217Y1547D01*
X196255Y1560D01*
X196296Y1565D01*
X196406Y1608D01*
X196519Y1645D01*
X196554Y1667D01*
X196591Y1682D01*
X196687Y1751D01*
X196788Y1815D01*
X196816Y1845D01*
X196849Y1868D01*
X196925Y1960D01*
X197006Y2047D01*
X197026Y2082D01*
X197051Y2113D01*
X197102Y2221D01*
X197160Y2325D01*
X197170Y2365D01*
X197187Y2401D01*
X197209Y2518D01*
X197239Y2633D01*
X197243Y2693D01*
X197247Y2713D01*
X197246Y2731D01*
X199000Y2731D01*
X200759Y2731D01*
X200766Y2676D01*
X200773Y2557D01*
X200786Y2519D01*
X200791Y2478D01*
X200834Y2368D01*
X200871Y2255D01*
X200893Y2220D01*
X200908Y2183D01*
X200977Y2087D01*
X201041Y1986D01*
X201071Y1958D01*
X201094Y1925D01*
X201186Y1849D01*
X201273Y1768D01*
X201308Y1748D01*
X201339Y1723D01*
X201447Y1672D01*
X201551Y1614D01*
X201591Y1604D01*
X201627Y1587D01*
X201744Y1565D01*
X201859Y1535D01*
X201919Y1531D01*
X201939Y1527D01*
X201960Y1529D01*
X202020Y1525D01*
X203480Y1525D01*
X203598Y1540D01*
X203717Y1547D01*
X203755Y1560D01*
X203796Y1565D01*
X203906Y1608D01*
X204019Y1645D01*
X204054Y1667D01*
X204091Y1682D01*
X204187Y1751D01*
X204288Y1815D01*
X204316Y1845D01*
X204349Y1868D01*
X204425Y1960D01*
X204506Y2047D01*
X204526Y2082D01*
X204551Y2113D01*
X204602Y2221D01*
X204660Y2325D01*
X204670Y2365D01*
X204687Y2401D01*
X204709Y2518D01*
X204739Y2633D01*
X204743Y2693D01*
X204747Y2713D01*
X204746Y2731D01*
X206500Y2731D01*
X208259Y2731D01*
X208266Y2676D01*
X208273Y2557D01*
X208286Y2519D01*
X208291Y2478D01*
X208334Y2368D01*
X208371Y2255D01*
X208393Y2220D01*
X208408Y2183D01*
X208477Y2087D01*
X208541Y1986D01*
X208571Y1958D01*
X208594Y1925D01*
X208686Y1849D01*
X208773Y1768D01*
X208808Y1748D01*
X208839Y1723D01*
X208947Y1672D01*
X209051Y1614D01*
X209091Y1604D01*
X209127Y1587D01*
X209244Y1565D01*
X209359Y1535D01*
X209419Y1531D01*
X209439Y1527D01*
X209460Y1529D01*
X209520Y1525D01*
X228000Y1525D01*
X228020Y1527D01*
X228124Y1531D01*
X229530Y1669D01*
X229634Y1693D01*
X229739Y1708D01*
X229819Y1735D01*
X229840Y1740D01*
X229854Y1747D01*
X229892Y1760D01*
X232489Y2836D01*
X232497Y2840D01*
X232506Y2843D01*
X232635Y2919D01*
X232765Y2993D01*
X232772Y3000D01*
X232780Y3005D01*
X232901Y3111D01*
X234889Y5099D01*
X234895Y5106D01*
X234902Y5112D01*
X234992Y5232D01*
X235084Y5350D01*
X235088Y5359D01*
X235093Y5366D01*
X235164Y5511D01*
X236240Y8108D01*
X236268Y8211D01*
X236305Y8311D01*
X236318Y8394D01*
X236324Y8415D01*
X236324Y8431D01*
X236331Y8470D01*
X236469Y9876D01*
X236469Y9895D01*
X236475Y10000D01*
X236475Y17292D01*
X238230Y21528D01*
X241472Y24770D01*
X245708Y26525D01*
X273000Y26525D01*
X273020Y26527D01*
X273124Y26531D01*
X274530Y26669D01*
X274634Y26693D01*
X274739Y26708D01*
X274819Y26735D01*
X274840Y26740D01*
X274854Y26747D01*
X274892Y26760D01*
X277489Y27836D01*
X277497Y27840D01*
X277506Y27843D01*
X277635Y27919D01*
X277765Y27993D01*
X277772Y28000D01*
X277780Y28005D01*
X277901Y28111D01*
X279889Y30099D01*
X279895Y30106D01*
X279902Y30112D01*
X279992Y30232D01*
X280084Y30350D01*
X280088Y30359D01*
X280093Y30366D01*
X280164Y30511D01*
X281240Y33108D01*
X281268Y33211D01*
X281305Y33311D01*
X281318Y33394D01*
X281324Y33415D01*
X281324Y33431D01*
X281331Y33470D01*
X281469Y34876D01*
X281469Y34895D01*
X281475Y35000D01*
X281475Y39190D01*
X281460Y39308D01*
X281453Y39427D01*
X281440Y39465D01*
X281435Y39506D01*
X281392Y39616D01*
X281355Y39729D01*
X281333Y39764D01*
X281318Y39801D01*
X281249Y39897D01*
X281185Y39998D01*
X281155Y40026D01*
X281132Y40059D01*
X281040Y40135D01*
X280953Y40216D01*
X280918Y40236D01*
X280887Y40261D01*
X280779Y40312D01*
X280675Y40370D01*
X280635Y40380D01*
X280599Y40397D01*
X280482Y40419D01*
X280367Y40449D01*
X280307Y40453D01*
X280287Y40457D01*
X280266Y40455D01*
X280206Y40459D01*
X240768Y40459D01*
X238459Y42768D01*
X238459Y43142D01*
X238444Y43260D01*
X238437Y43379D01*
X238424Y43417D01*
X238419Y43458D01*
X238376Y43568D01*
X238339Y43681D01*
X238317Y43716D01*
X238302Y43753D01*
X238233Y43849D01*
X238169Y43950D01*
X238139Y43978D01*
X238116Y44011D01*
X238024Y44087D01*
X237937Y44168D01*
X237902Y44188D01*
X237871Y44213D01*
X237763Y44264D01*
X237659Y44322D01*
X237619Y44332D01*
X237583Y44349D01*
X237466Y44371D01*
X237351Y44401D01*
X237291Y44405D01*
X237271Y44409D01*
X237250Y44407D01*
X237190Y44411D01*
X227303Y44411D01*
X222147Y46405D01*
X220162Y48209D01*
X220101Y48264D01*
X220084Y48276D01*
X220011Y48339D01*
X219549Y48687D01*
X219467Y48734D01*
X219389Y48790D01*
X219289Y48836D01*
X219273Y48845D01*
X219263Y48848D01*
X219243Y48857D01*
X218168Y49273D01*
X218076Y49296D01*
X217986Y49328D01*
X217878Y49345D01*
X217859Y49349D01*
X217849Y49349D01*
X217827Y49353D01*
X217251Y49406D01*
X217230Y49405D01*
X217134Y49411D01*
X149899Y49411D01*
X149879Y49409D01*
X149778Y49405D01*
X149180Y49348D01*
X149080Y49326D01*
X148979Y49312D01*
X148890Y49283D01*
X148869Y49278D01*
X148857Y49272D01*
X148826Y49262D01*
X147716Y48814D01*
X147627Y48765D01*
X147534Y48723D01*
X147457Y48669D01*
X147439Y48659D01*
X147429Y48650D01*
X147402Y48631D01*
X146931Y48258D01*
X146917Y48243D01*
X146840Y48178D01*
X146366Y47722D01*
X145857Y47232D01*
X145857Y47231D01*
X140550Y42121D01*
X140460Y42009D01*
X140366Y41898D01*
X140360Y41885D01*
X140350Y41873D01*
X140291Y41742D01*
X140228Y41612D01*
X140225Y41597D01*
X140218Y41584D01*
X140193Y41442D01*
X140165Y41300D01*
X140165Y41285D01*
X140163Y41271D01*
X140173Y41127D01*
X140181Y40983D01*
X140185Y40969D01*
X140187Y40954D01*
X140233Y40817D01*
X140276Y40679D01*
X140284Y40667D01*
X140288Y40652D01*
X140367Y40532D01*
X140443Y40409D01*
X140454Y40398D01*
X140462Y40386D01*
X140568Y40288D01*
X140672Y40188D01*
X140685Y40181D01*
X140696Y40171D01*
X140824Y40103D01*
X140949Y40032D01*
X140969Y40025D01*
X140977Y40021D01*
X140994Y40017D01*
X141102Y39981D01*
X142044Y39728D01*
X142956Y39201D01*
X143701Y38456D01*
X144228Y37544D01*
X144242Y37492D01*
X144300Y37351D01*
X144356Y37209D01*
X144360Y37204D01*
X144362Y37198D01*
X144454Y37074D01*
X144542Y36952D01*
X144548Y36948D01*
X144552Y36943D01*
X144670Y36847D01*
X144787Y36749D01*
X144794Y36746D01*
X144799Y36742D01*
X144937Y36679D01*
X145075Y36614D01*
X145082Y36613D01*
X145088Y36610D01*
X145238Y36583D01*
X145388Y36554D01*
X145394Y36554D01*
X145401Y36553D01*
X145554Y36564D01*
X145705Y36574D01*
X145711Y36576D01*
X145718Y36576D01*
X145863Y36625D01*
X146007Y36672D01*
X146013Y36675D01*
X146019Y36677D01*
X146147Y36760D01*
X146276Y36842D01*
X146281Y36847D01*
X146286Y36850D01*
X146389Y36962D01*
X146494Y37074D01*
X146497Y37079D01*
X146502Y37084D01*
X146574Y37219D01*
X146648Y37352D01*
X146649Y37358D01*
X146652Y37364D01*
X146689Y37514D01*
X146727Y37660D01*
X146728Y37669D01*
X146729Y37673D01*
X146729Y37684D01*
X146737Y37821D01*
X146737Y37973D01*
X149527Y40763D01*
X153473Y40763D01*
X156102Y38133D01*
X156197Y38060D01*
X156286Y37981D01*
X156322Y37963D01*
X156354Y37938D01*
X156463Y37891D01*
X156569Y37837D01*
X156608Y37828D01*
X156646Y37812D01*
X156763Y37793D01*
X156879Y37767D01*
X156920Y37768D01*
X156960Y37762D01*
X157078Y37773D01*
X157197Y37777D01*
X157236Y37788D01*
X157276Y37792D01*
X157389Y37832D01*
X157503Y37865D01*
X157537Y37886D01*
X157576Y37899D01*
X157674Y37966D01*
X157777Y38027D01*
X157822Y38066D01*
X157839Y38078D01*
X157852Y38093D01*
X157897Y38133D01*
X160527Y40763D01*
X164473Y40763D01*
X167102Y38133D01*
X167197Y38060D01*
X167286Y37981D01*
X167322Y37963D01*
X167354Y37938D01*
X167463Y37891D01*
X167569Y37837D01*
X167608Y37828D01*
X167646Y37812D01*
X167763Y37793D01*
X167879Y37767D01*
X167920Y37768D01*
X167960Y37762D01*
X168078Y37773D01*
X168197Y37777D01*
X168236Y37788D01*
X168276Y37792D01*
X168389Y37832D01*
X168503Y37865D01*
X168537Y37886D01*
X168576Y37899D01*
X168674Y37966D01*
X168777Y38027D01*
X168822Y38066D01*
X168839Y38078D01*
X168852Y38093D01*
X168897Y38133D01*
X171527Y40763D01*
X175473Y40763D01*
X178102Y38133D01*
X178197Y38060D01*
X178286Y37981D01*
X178322Y37963D01*
X178354Y37938D01*
X178463Y37891D01*
X178569Y37837D01*
X178608Y37828D01*
X178646Y37812D01*
X178763Y37793D01*
X178879Y37767D01*
X178920Y37768D01*
X178960Y37762D01*
X179078Y37773D01*
X179197Y37777D01*
X179236Y37788D01*
X179276Y37792D01*
X179389Y37832D01*
X179503Y37865D01*
X179537Y37886D01*
X179576Y37899D01*
X179674Y37966D01*
X179777Y38027D01*
X179822Y38066D01*
X179839Y38078D01*
X179852Y38093D01*
X179897Y38133D01*
X182527Y40763D01*
X186473Y40763D01*
X189102Y38133D01*
X189197Y38060D01*
X189286Y37981D01*
X189322Y37963D01*
X189354Y37938D01*
X189463Y37891D01*
X189569Y37837D01*
X189608Y37828D01*
X189646Y37812D01*
X189763Y37793D01*
X189879Y37767D01*
X189920Y37768D01*
X189960Y37762D01*
X190078Y37773D01*
X190197Y37777D01*
X190236Y37788D01*
X190276Y37792D01*
X190389Y37832D01*
X190503Y37865D01*
X190537Y37886D01*
X190576Y37899D01*
X190674Y37966D01*
X190777Y38027D01*
X190822Y38066D01*
X190839Y38078D01*
X190852Y38093D01*
X190897Y38133D01*
X193527Y40763D01*
X197473Y40763D01*
X200102Y38133D01*
X200197Y38060D01*
X200286Y37981D01*
X200322Y37963D01*
X200354Y37938D01*
X200463Y37891D01*
X200569Y37837D01*
X200608Y37828D01*
X200646Y37812D01*
X200763Y37793D01*
X200879Y37767D01*
X200920Y37768D01*
X200960Y37762D01*
X201078Y37773D01*
X201197Y37777D01*
X201236Y37788D01*
X201276Y37792D01*
X201389Y37832D01*
X201503Y37865D01*
X201537Y37886D01*
X201576Y37899D01*
X201674Y37966D01*
X201777Y38027D01*
X201822Y38066D01*
X201839Y38078D01*
X201852Y38093D01*
X201897Y38133D01*
X204527Y40763D01*
X208473Y40763D01*
X211102Y38133D01*
X211197Y38060D01*
X211286Y37981D01*
X211322Y37963D01*
X211354Y37938D01*
X211463Y37891D01*
X211569Y37837D01*
X211608Y37828D01*
X211646Y37812D01*
X211763Y37793D01*
X211879Y37767D01*
X211920Y37768D01*
X211960Y37762D01*
X212078Y37773D01*
X212197Y37777D01*
X212236Y37788D01*
X212276Y37792D01*
X212389Y37832D01*
X212503Y37865D01*
X212537Y37886D01*
X212576Y37899D01*
X212674Y37966D01*
X212777Y38027D01*
X212822Y38066D01*
X212839Y38078D01*
X212852Y38093D01*
X212897Y38133D01*
X215527Y40763D01*
X219473Y40763D01*
X222102Y38133D01*
X222197Y38060D01*
X222286Y37981D01*
X222322Y37963D01*
X222354Y37938D01*
X222463Y37891D01*
X222569Y37837D01*
X222608Y37828D01*
X222646Y37812D01*
X222763Y37793D01*
X222879Y37767D01*
X222920Y37768D01*
X222960Y37762D01*
X223078Y37773D01*
X223197Y37777D01*
X223236Y37788D01*
X223276Y37792D01*
X223389Y37832D01*
X223503Y37865D01*
X223537Y37886D01*
X223576Y37899D01*
X223674Y37966D01*
X223777Y38027D01*
X223822Y38066D01*
X223839Y38078D01*
X223852Y38093D01*
X223897Y38133D01*
X226527Y40763D01*
X230473Y40763D01*
X233263Y37973D01*
X233263Y30027D01*
X230473Y27237D01*
X226527Y27237D01*
X223897Y29867D01*
X223803Y29940D01*
X223714Y30019D01*
X223678Y30037D01*
X223646Y30062D01*
X223537Y30109D01*
X223431Y30163D01*
X223392Y30172D01*
X223354Y30188D01*
X223237Y30207D01*
X223121Y30233D01*
X223080Y30232D01*
X223040Y30238D01*
X222922Y30227D01*
X222803Y30223D01*
X222764Y30212D01*
X222724Y30208D01*
X222611Y30168D01*
X222497Y30135D01*
X222462Y30114D01*
X222424Y30101D01*
X222326Y30034D01*
X222223Y29973D01*
X222178Y29934D01*
X222161Y29922D01*
X222148Y29907D01*
X222102Y29867D01*
X219473Y27237D01*
X215527Y27237D01*
X212897Y29867D01*
X212803Y29940D01*
X212714Y30019D01*
X212678Y30037D01*
X212646Y30062D01*
X212537Y30109D01*
X212431Y30163D01*
X212392Y30172D01*
X212354Y30188D01*
X212237Y30207D01*
X212121Y30233D01*
X212080Y30232D01*
X212040Y30238D01*
X211922Y30227D01*
X211803Y30223D01*
X211764Y30212D01*
X211724Y30208D01*
X211611Y30168D01*
X211497Y30135D01*
X211462Y30114D01*
X211424Y30101D01*
X211326Y30034D01*
X211223Y29973D01*
X211178Y29934D01*
X211161Y29922D01*
X211148Y29907D01*
X211102Y29867D01*
X208473Y27237D01*
X204527Y27237D01*
X201897Y29867D01*
X201803Y29940D01*
X201714Y30019D01*
X201678Y30037D01*
X201646Y30062D01*
X201537Y30109D01*
X201431Y30163D01*
X201392Y30172D01*
X201354Y30188D01*
X201237Y30207D01*
X201121Y30233D01*
X201080Y30232D01*
X201040Y30238D01*
X200922Y30227D01*
X200803Y30223D01*
X200764Y30212D01*
X200724Y30208D01*
X200611Y30168D01*
X200497Y30135D01*
X200462Y30114D01*
X200424Y30101D01*
X200326Y30034D01*
X200223Y29973D01*
X200178Y29934D01*
X200161Y29922D01*
X200148Y29907D01*
X200102Y29867D01*
X197473Y27237D01*
X193527Y27237D01*
X190897Y29867D01*
X190803Y29940D01*
X190714Y30019D01*
X190678Y30037D01*
X190646Y30062D01*
X190537Y30109D01*
X190431Y30163D01*
X190392Y30172D01*
X190354Y30188D01*
X190237Y30207D01*
X190121Y30233D01*
X190080Y30232D01*
X190040Y30238D01*
X189922Y30227D01*
X189803Y30223D01*
X189764Y30212D01*
X189724Y30208D01*
X189611Y30168D01*
X189497Y30135D01*
X189462Y30114D01*
X189424Y30101D01*
X189326Y30034D01*
X189223Y29973D01*
X189178Y29934D01*
X189161Y29922D01*
X189148Y29907D01*
X189102Y29867D01*
X186817Y27581D01*
X186731Y27471D01*
X186643Y27364D01*
X186634Y27346D01*
X186622Y27330D01*
X186566Y27202D01*
X186507Y27076D01*
X186503Y27057D01*
X186495Y27038D01*
X186473Y26900D01*
X186447Y26764D01*
X186449Y26744D01*
X186445Y26724D01*
X186459Y26585D01*
X186467Y26447D01*
X186473Y26427D01*
X186475Y26407D01*
X186522Y26276D01*
X186565Y26144D01*
X186576Y26127D01*
X186583Y26108D01*
X186661Y25993D01*
X186735Y25875D01*
X186750Y25862D01*
X186761Y25845D01*
X186866Y25753D01*
X186967Y25657D01*
X186985Y25648D01*
X187000Y25634D01*
X187124Y25571D01*
X187245Y25504D01*
X187265Y25499D01*
X187283Y25490D01*
X187419Y25459D01*
X187553Y25425D01*
X187581Y25423D01*
X187593Y25420D01*
X187614Y25421D01*
X187714Y25414D01*
X188228Y25414D01*
X189503Y24139D01*
X189597Y24066D01*
X189686Y23988D01*
X189722Y23969D01*
X189754Y23945D01*
X189864Y23897D01*
X189970Y23843D01*
X190009Y23834D01*
X190046Y23818D01*
X190164Y23800D01*
X190280Y23773D01*
X190320Y23775D01*
X190360Y23768D01*
X190479Y23780D01*
X190598Y23783D01*
X190637Y23794D01*
X190677Y23798D01*
X190789Y23838D01*
X190903Y23872D01*
X190938Y23892D01*
X190976Y23906D01*
X191075Y23973D01*
X191177Y24033D01*
X191222Y24073D01*
X191239Y24084D01*
X191253Y24100D01*
X191298Y24139D01*
X191521Y24363D01*
X193479Y24363D01*
X193602Y24239D01*
X193697Y24166D01*
X193786Y24087D01*
X193822Y24069D01*
X193854Y24044D01*
X193963Y23997D01*
X194069Y23943D01*
X194108Y23934D01*
X194146Y23918D01*
X194263Y23899D01*
X194379Y23873D01*
X194420Y23874D01*
X194460Y23868D01*
X194578Y23879D01*
X194697Y23883D01*
X194736Y23894D01*
X194776Y23898D01*
X194888Y23938D01*
X195003Y23971D01*
X195038Y23991D01*
X195076Y24005D01*
X195174Y24072D01*
X195277Y24132D01*
X195322Y24172D01*
X195339Y24184D01*
X195352Y24199D01*
X195397Y24239D01*
X195521Y24363D01*
X197479Y24363D01*
X197602Y24239D01*
X197697Y24166D01*
X197786Y24087D01*
X197822Y24069D01*
X197854Y24044D01*
X197963Y23997D01*
X198069Y23943D01*
X198108Y23934D01*
X198146Y23918D01*
X198263Y23899D01*
X198379Y23873D01*
X198420Y23874D01*
X198460Y23868D01*
X198578Y23879D01*
X198697Y23883D01*
X198736Y23894D01*
X198776Y23898D01*
X198888Y23938D01*
X199003Y23971D01*
X199038Y23991D01*
X199076Y24005D01*
X199174Y24072D01*
X199277Y24132D01*
X199322Y24172D01*
X199339Y24184D01*
X199352Y24199D01*
X199397Y24239D01*
X199521Y24363D01*
X201479Y24363D01*
X201602Y24239D01*
X201697Y24166D01*
X201786Y24087D01*
X201822Y24069D01*
X201854Y24044D01*
X201963Y23997D01*
X202069Y23943D01*
X202108Y23934D01*
X202146Y23918D01*
X202263Y23899D01*
X202379Y23873D01*
X202420Y23874D01*
X202460Y23868D01*
X202578Y23879D01*
X202697Y23883D01*
X202736Y23894D01*
X202776Y23898D01*
X202888Y23938D01*
X203003Y23971D01*
X203038Y23991D01*
X203076Y24005D01*
X203174Y24072D01*
X203277Y24132D01*
X203322Y24172D01*
X203339Y24184D01*
X203352Y24199D01*
X203397Y24239D01*
X203521Y24363D01*
X205479Y24363D01*
X206863Y22979D01*
X206863Y21021D01*
X206739Y20898D01*
X206666Y20803D01*
X206587Y20714D01*
X206569Y20678D01*
X206544Y20646D01*
X206497Y20537D01*
X206443Y20431D01*
X206434Y20392D01*
X206418Y20354D01*
X206399Y20237D01*
X206373Y20121D01*
X206374Y20080D01*
X206368Y20040D01*
X206379Y19922D01*
X206383Y19803D01*
X206394Y19764D01*
X206398Y19724D01*
X206438Y19612D01*
X206471Y19497D01*
X206491Y19462D01*
X206505Y19424D01*
X206572Y19326D01*
X206632Y19223D01*
X206672Y19178D01*
X206684Y19161D01*
X206699Y19148D01*
X206739Y19103D01*
X206863Y18979D01*
X206863Y17021D01*
X206739Y16898D01*
X206666Y16803D01*
X206587Y16714D01*
X206569Y16678D01*
X206544Y16646D01*
X206497Y16537D01*
X206443Y16431D01*
X206434Y16392D01*
X206418Y16354D01*
X206399Y16237D01*
X206373Y16121D01*
X206374Y16080D01*
X206368Y16040D01*
X206379Y15922D01*
X206383Y15803D01*
X206394Y15764D01*
X206398Y15724D01*
X206438Y15612D01*
X206471Y15497D01*
X206492Y15462D01*
X206505Y15424D01*
X206572Y15326D01*
X206632Y15223D01*
X206672Y15178D01*
X206684Y15161D01*
X206699Y15148D01*
X206739Y15103D01*
X206863Y14979D01*
X206863Y12982D01*
X206847Y12963D01*
X206838Y12944D01*
X206826Y12928D01*
X206771Y12801D01*
X206711Y12675D01*
X206708Y12655D01*
X206700Y12636D01*
X206678Y12499D01*
X206652Y12362D01*
X206653Y12342D01*
X206650Y12322D01*
X206663Y12184D01*
X206671Y12045D01*
X206678Y12026D01*
X206680Y12006D01*
X206727Y11875D01*
X206769Y11743D01*
X206780Y11725D01*
X206787Y11706D01*
X206865Y11591D01*
X206940Y11474D01*
X206954Y11460D01*
X206966Y11443D01*
X207070Y11351D01*
X207171Y11256D01*
X207189Y11246D01*
X207204Y11233D01*
X207328Y11170D01*
X207450Y11102D01*
X207469Y11097D01*
X207487Y11088D01*
X207623Y11058D01*
X207758Y11023D01*
X207786Y11021D01*
X207798Y11018D01*
X207818Y11019D01*
X207918Y11013D01*
X208566Y11013D01*
X209013Y10566D01*
X209013Y7434D01*
X208434Y6855D01*
X208416Y6832D01*
X208393Y6813D01*
X208318Y6706D01*
X208239Y6604D01*
X208227Y6577D01*
X208210Y6553D01*
X208164Y6431D01*
X208113Y6312D01*
X208108Y6283D01*
X208098Y6255D01*
X208083Y6126D01*
X208063Y5998D01*
X208066Y5969D01*
X208062Y5939D01*
X208080Y5811D01*
X208093Y5681D01*
X208103Y5654D01*
X208107Y5624D01*
X208159Y5472D01*
X208243Y5269D01*
X206500Y5269D01*
X204757Y5269D01*
X204778Y5321D01*
X204786Y5349D01*
X204800Y5375D01*
X204828Y5502D01*
X204862Y5627D01*
X204863Y5657D01*
X204869Y5685D01*
X204865Y5815D01*
X204867Y5945D01*
X204861Y5974D01*
X204860Y6003D01*
X204824Y6128D01*
X204793Y6255D01*
X204780Y6280D01*
X204771Y6309D01*
X204705Y6421D01*
X204645Y6536D01*
X204625Y6557D01*
X204610Y6583D01*
X204504Y6704D01*
X204456Y6751D01*
X204431Y6770D01*
X204431Y6771D01*
X204429Y6772D01*
X204405Y6791D01*
X204360Y6838D01*
X204280Y6888D01*
X204205Y6946D01*
X204172Y6960D01*
X203586Y7614D01*
X203470Y7715D01*
X203355Y7816D01*
X203350Y7819D01*
X203346Y7823D01*
X203207Y7892D01*
X203072Y7961D01*
X203066Y7962D01*
X203061Y7965D01*
X202911Y7997D01*
X202761Y8031D01*
X202756Y8030D01*
X202750Y8032D01*
X202597Y8026D01*
X202443Y8021D01*
X202438Y8019D01*
X202432Y8019D01*
X202287Y7976D01*
X202138Y7933D01*
X202133Y7930D01*
X202128Y7928D01*
X201996Y7849D01*
X201864Y7771D01*
X201858Y7766D01*
X201855Y7764D01*
X201848Y7757D01*
X201743Y7665D01*
X200934Y6855D01*
X200916Y6832D01*
X200893Y6813D01*
X200818Y6706D01*
X200739Y6604D01*
X200727Y6577D01*
X200710Y6553D01*
X200664Y6431D01*
X200613Y6312D01*
X200608Y6283D01*
X200598Y6255D01*
X200583Y6126D01*
X200563Y5998D01*
X200566Y5969D01*
X200562Y5939D01*
X200580Y5811D01*
X200593Y5681D01*
X200603Y5654D01*
X200607Y5624D01*
X200659Y5472D01*
X200743Y5269D01*
X199000Y5269D01*
X197257Y5269D01*
X197341Y5472D01*
X197349Y5501D01*
X197362Y5527D01*
X197391Y5653D01*
X197425Y5779D01*
X197426Y5808D01*
X197432Y5837D01*
X197428Y5967D01*
X197430Y6097D01*
X197423Y6125D01*
X197422Y6155D01*
X197386Y6280D01*
X197356Y6406D01*
X197342Y6432D01*
X197334Y6461D01*
X197268Y6573D01*
X197207Y6687D01*
X197188Y6709D01*
X197172Y6734D01*
X197066Y6855D01*
X196147Y7774D01*
X196054Y7847D01*
X195964Y7926D01*
X195928Y7944D01*
X195896Y7969D01*
X195787Y8016D01*
X195681Y8070D01*
X195641Y8079D01*
X195604Y8095D01*
X195487Y8114D01*
X195371Y8140D01*
X195330Y8139D01*
X195290Y8145D01*
X195172Y8134D01*
X195053Y8130D01*
X195014Y8119D01*
X194974Y8115D01*
X194862Y8075D01*
X194747Y8042D01*
X194713Y8021D01*
X194674Y8008D01*
X194576Y7941D01*
X194473Y7880D01*
X194428Y7840D01*
X194411Y7829D01*
X194398Y7814D01*
X194352Y7774D01*
X193434Y6855D01*
X193416Y6832D01*
X193393Y6813D01*
X193319Y6707D01*
X193239Y6604D01*
X193227Y6577D01*
X193210Y6553D01*
X193164Y6431D01*
X193113Y6312D01*
X193108Y6283D01*
X193098Y6255D01*
X193083Y6126D01*
X193063Y5998D01*
X193066Y5969D01*
X193062Y5939D01*
X193080Y5811D01*
X193093Y5681D01*
X193103Y5654D01*
X193107Y5624D01*
X193159Y5472D01*
X193243Y5269D01*
X191500Y5269D01*
X189739Y5269D01*
X189734Y5308D01*
X189727Y5427D01*
X189714Y5465D01*
X189709Y5506D01*
X189666Y5616D01*
X189629Y5729D01*
X189607Y5764D01*
X189592Y5801D01*
X189523Y5897D01*
X189459Y5998D01*
X189429Y6026D01*
X189406Y6059D01*
X189314Y6134D01*
X189227Y6216D01*
X189192Y6236D01*
X189161Y6261D01*
X189053Y6312D01*
X188949Y6370D01*
X188909Y6380D01*
X188873Y6397D01*
X188756Y6419D01*
X188641Y6449D01*
X188581Y6453D01*
X188561Y6457D01*
X188540Y6455D01*
X188480Y6459D01*
X186420Y6459D01*
X186322Y6447D01*
X186223Y6444D01*
X186164Y6427D01*
X186104Y6419D01*
X186012Y6383D01*
X185917Y6355D01*
X185865Y6325D01*
X185809Y6302D01*
X185728Y6244D01*
X185643Y6194D01*
X185568Y6128D01*
X185551Y6116D01*
X185543Y6106D01*
X185522Y6088D01*
X184863Y5428D01*
X179637Y5428D01*
X178487Y6578D01*
X178487Y7830D01*
X178470Y7968D01*
X178457Y8106D01*
X178450Y8125D01*
X178447Y8145D01*
X178396Y8275D01*
X178349Y8406D01*
X178338Y8422D01*
X178330Y8441D01*
X178249Y8554D01*
X178171Y8669D01*
X178155Y8682D01*
X178144Y8698D01*
X178036Y8787D01*
X177932Y8879D01*
X177914Y8888D01*
X177899Y8901D01*
X177773Y8961D01*
X177649Y9024D01*
X177629Y9028D01*
X177611Y9037D01*
X177474Y9063D01*
X177339Y9093D01*
X177318Y9093D01*
X177299Y9097D01*
X177160Y9088D01*
X177021Y9084D01*
X177001Y9078D01*
X176981Y9077D01*
X176849Y9034D01*
X176715Y8995D01*
X176698Y8985D01*
X176679Y8979D01*
X176561Y8904D01*
X176441Y8834D01*
X176420Y8815D01*
X176410Y8809D01*
X176396Y8794D01*
X176321Y8727D01*
X175052Y7459D01*
X170782Y7459D01*
X170664Y7444D01*
X170545Y7437D01*
X170507Y7424D01*
X170466Y7419D01*
X170356Y7376D01*
X170243Y7339D01*
X170208Y7317D01*
X170171Y7302D01*
X170075Y7233D01*
X169974Y7169D01*
X169946Y7139D01*
X169913Y7116D01*
X169837Y7024D01*
X169756Y6937D01*
X169736Y6902D01*
X169711Y6871D01*
X169660Y6763D01*
X169614Y6679D01*
X168363Y5428D01*
X163137Y5428D01*
X161987Y6578D01*
X161987Y21922D01*
X163137Y23072D01*
X168363Y23072D01*
X169513Y21922D01*
X169513Y20170D01*
X169530Y20032D01*
X169543Y19894D01*
X169550Y19875D01*
X169553Y19855D01*
X169604Y19725D01*
X169651Y19594D01*
X169662Y19578D01*
X169670Y19559D01*
X169751Y19446D01*
X169829Y19331D01*
X169845Y19318D01*
X169856Y19302D01*
X169964Y19212D01*
X170068Y19121D01*
X170086Y19112D01*
X170101Y19099D01*
X170227Y19039D01*
X170351Y18976D01*
X170371Y18972D01*
X170389Y18963D01*
X170526Y18937D01*
X170661Y18907D01*
X170682Y18907D01*
X170701Y18903D01*
X170840Y18912D01*
X170979Y18916D01*
X170999Y18922D01*
X171019Y18923D01*
X171151Y18966D01*
X171285Y19005D01*
X171302Y19015D01*
X171321Y19021D01*
X171439Y19096D01*
X171559Y19166D01*
X171580Y19185D01*
X171590Y19191D01*
X171604Y19206D01*
X171679Y19273D01*
X172948Y20541D01*
X177218Y20541D01*
X177336Y20556D01*
X177455Y20563D01*
X177493Y20576D01*
X177534Y20581D01*
X177644Y20624D01*
X177757Y20661D01*
X177792Y20683D01*
X177829Y20698D01*
X177925Y20767D01*
X178026Y20831D01*
X178054Y20861D01*
X178087Y20884D01*
X178163Y20976D01*
X178244Y21063D01*
X178264Y21098D01*
X178289Y21129D01*
X178340Y21237D01*
X178398Y21341D01*
X178408Y21381D01*
X178425Y21417D01*
X178447Y21534D01*
X178477Y21649D01*
X178481Y21709D01*
X178485Y21729D01*
X178484Y21747D01*
X178485Y21752D01*
X178484Y21761D01*
X178487Y21810D01*
X178487Y21922D01*
X179637Y23072D01*
X183742Y23072D01*
X183860Y23087D01*
X183979Y23094D01*
X184017Y23107D01*
X184058Y23112D01*
X184168Y23155D01*
X184281Y23192D01*
X184316Y23214D01*
X184353Y23229D01*
X184449Y23298D01*
X184550Y23362D01*
X184578Y23392D01*
X184611Y23415D01*
X184687Y23507D01*
X184768Y23594D01*
X184788Y23629D01*
X184813Y23660D01*
X184864Y23768D01*
X184922Y23872D01*
X184932Y23912D01*
X184949Y23948D01*
X184966Y24036D01*
X186000Y25071D01*
X186085Y25180D01*
X186174Y25287D01*
X186183Y25306D01*
X186195Y25322D01*
X186250Y25449D01*
X186309Y25575D01*
X186313Y25595D01*
X186321Y25614D01*
X186343Y25752D01*
X186369Y25888D01*
X186368Y25908D01*
X186371Y25928D01*
X186358Y26067D01*
X186349Y26205D01*
X186343Y26224D01*
X186341Y26244D01*
X186294Y26376D01*
X186251Y26507D01*
X186241Y26525D01*
X186234Y26544D01*
X186156Y26659D01*
X186081Y26776D01*
X186066Y26790D01*
X186055Y26807D01*
X185951Y26899D01*
X185850Y26994D01*
X185832Y27004D01*
X185817Y27017D01*
X185693Y27081D01*
X185571Y27148D01*
X185552Y27153D01*
X185533Y27162D01*
X185398Y27192D01*
X185263Y27227D01*
X185235Y27229D01*
X185223Y27232D01*
X185203Y27231D01*
X185103Y27237D01*
X182527Y27237D01*
X179897Y29867D01*
X179803Y29940D01*
X179714Y30019D01*
X179678Y30037D01*
X179646Y30062D01*
X179537Y30109D01*
X179431Y30163D01*
X179392Y30172D01*
X179354Y30188D01*
X179237Y30207D01*
X179121Y30233D01*
X179080Y30232D01*
X179040Y30238D01*
X178922Y30227D01*
X178803Y30223D01*
X178764Y30212D01*
X178724Y30208D01*
X178611Y30168D01*
X178497Y30135D01*
X178462Y30114D01*
X178424Y30101D01*
X178326Y30034D01*
X178223Y29973D01*
X178178Y29934D01*
X178161Y29922D01*
X178148Y29907D01*
X178102Y29867D01*
X175473Y27237D01*
X171527Y27237D01*
X168897Y29867D01*
X168803Y29940D01*
X168714Y30019D01*
X168678Y30037D01*
X168646Y30062D01*
X168537Y30109D01*
X168431Y30163D01*
X168392Y30172D01*
X168354Y30188D01*
X168237Y30207D01*
X168121Y30233D01*
X168080Y30232D01*
X168040Y30238D01*
X167922Y30227D01*
X167803Y30223D01*
X167764Y30212D01*
X167724Y30208D01*
X167611Y30168D01*
X167497Y30135D01*
X167462Y30114D01*
X167424Y30101D01*
X167326Y30034D01*
X167223Y29973D01*
X167178Y29934D01*
X167161Y29922D01*
X167148Y29907D01*
X167102Y29867D01*
X164473Y27237D01*
X160527Y27237D01*
X157897Y29867D01*
X157803Y29940D01*
X157714Y30019D01*
X157678Y30037D01*
X157646Y30062D01*
X157537Y30109D01*
X157431Y30163D01*
X157392Y30172D01*
X157354Y30188D01*
X157237Y30207D01*
X157121Y30233D01*
X157080Y30232D01*
X157040Y30238D01*
X156922Y30227D01*
X156803Y30223D01*
X156764Y30212D01*
X156724Y30208D01*
X156611Y30168D01*
X156497Y30135D01*
X156462Y30114D01*
X156424Y30101D01*
X156326Y30034D01*
X156223Y29973D01*
X156178Y29934D01*
X156161Y29922D01*
X156148Y29907D01*
X156102Y29867D01*
X153473Y27237D01*
X149527Y27237D01*
X146737Y30027D01*
X146737Y30179D01*
X146718Y30331D01*
X146701Y30482D01*
X146698Y30488D01*
X146697Y30495D01*
X146641Y30636D01*
X146587Y30779D01*
X146583Y30784D01*
X146580Y30791D01*
X146491Y30914D01*
X146403Y31038D01*
X146397Y31042D01*
X146394Y31048D01*
X146276Y31145D01*
X146160Y31244D01*
X146154Y31246D01*
X146149Y31251D01*
X146011Y31315D01*
X145873Y31382D01*
X145867Y31383D01*
X145861Y31386D01*
X145712Y31415D01*
X145562Y31445D01*
X145555Y31445D01*
X145549Y31446D01*
X145397Y31437D01*
X145244Y31429D01*
X145238Y31427D01*
X145231Y31426D01*
X145087Y31379D01*
X144941Y31334D01*
X144935Y31330D01*
X144929Y31328D01*
X144800Y31247D01*
X144670Y31166D01*
X144666Y31162D01*
X144660Y31158D01*
X144555Y31047D01*
X144450Y30937D01*
X144447Y30931D01*
X144442Y30926D01*
X144369Y30794D01*
X144293Y30660D01*
X144291Y30652D01*
X144288Y30648D01*
X144286Y30638D01*
X144242Y30508D01*
X144228Y30456D01*
X143701Y29544D01*
X142956Y28799D01*
X142499Y28535D01*
X142499Y33270D01*
X142484Y33388D01*
X142477Y33507D01*
X142464Y33545D01*
X142459Y33585D01*
X142416Y33696D01*
X142379Y33809D01*
X142357Y33843D01*
X142342Y33881D01*
X142273Y33977D01*
X142209Y34078D01*
X142179Y34106D01*
X142156Y34138D01*
X142064Y34214D01*
X141977Y34296D01*
X141942Y34315D01*
X141911Y34341D01*
X141803Y34392D01*
X141699Y34449D01*
X141659Y34459D01*
X141623Y34477D01*
X141506Y34499D01*
X141391Y34529D01*
X141331Y34533D01*
X141311Y34536D01*
X141290Y34535D01*
X141230Y34539D01*
X141039Y34539D01*
X141039Y34730D01*
X141024Y34848D01*
X141017Y34967D01*
X141004Y35005D01*
X140999Y35046D01*
X140955Y35156D01*
X140919Y35269D01*
X140897Y35304D01*
X140882Y35341D01*
X140812Y35437D01*
X140749Y35538D01*
X140719Y35566D01*
X140695Y35599D01*
X140604Y35675D01*
X140517Y35756D01*
X140482Y35776D01*
X140450Y35801D01*
X140343Y35852D01*
X140238Y35910D01*
X140199Y35920D01*
X140163Y35937D01*
X140046Y35959D01*
X139930Y35989D01*
X139870Y35993D01*
X139850Y35997D01*
X139830Y35995D01*
X139770Y35999D01*
X136499Y35999D01*
X136499Y36527D01*
X136593Y36878D01*
X136600Y36928D01*
X136615Y36976D01*
X136622Y37085D01*
X136637Y37193D01*
X136631Y37243D01*
X136634Y37293D01*
X136613Y37400D01*
X136600Y37509D01*
X136582Y37556D01*
X136572Y37605D01*
X136525Y37704D01*
X136486Y37806D01*
X136457Y37847D01*
X136435Y37892D01*
X136365Y37976D01*
X136302Y38065D01*
X136263Y38098D01*
X136231Y38136D01*
X136143Y38200D01*
X136059Y38271D01*
X136014Y38292D01*
X135973Y38322D01*
X135871Y38362D01*
X135773Y38409D01*
X135724Y38419D01*
X135677Y38437D01*
X135568Y38450D01*
X135461Y38472D01*
X135411Y38470D01*
X135361Y38476D01*
X135253Y38461D01*
X135144Y38456D01*
X135096Y38441D01*
X135046Y38434D01*
X134893Y38384D01*
X131261Y36919D01*
X129137Y36919D01*
X129019Y36904D01*
X128900Y36897D01*
X128862Y36884D01*
X128822Y36879D01*
X128711Y36836D01*
X128598Y36799D01*
X128564Y36777D01*
X128526Y36762D01*
X128430Y36693D01*
X128329Y36629D01*
X128301Y36599D01*
X128269Y36576D01*
X128193Y36484D01*
X128111Y36397D01*
X128092Y36362D01*
X128066Y36331D01*
X128015Y36223D01*
X127958Y36119D01*
X127948Y36079D01*
X127930Y36043D01*
X127908Y35926D01*
X127878Y35811D01*
X127874Y35751D01*
X127871Y35731D01*
X127872Y35710D01*
X127868Y35650D01*
X127868Y35269D01*
X123868Y35269D01*
X123867Y35269D01*
X119867Y35269D01*
X119867Y35690D01*
X119852Y35808D01*
X119844Y35927D01*
X119832Y35965D01*
X119827Y36006D01*
X119783Y36116D01*
X119746Y36229D01*
X119725Y36264D01*
X119710Y36301D01*
X119640Y36397D01*
X119576Y36498D01*
X119547Y36526D01*
X119523Y36559D01*
X119431Y36635D01*
X119344Y36716D01*
X119309Y36736D01*
X119278Y36761D01*
X119170Y36812D01*
X119066Y36870D01*
X119027Y36880D01*
X118990Y36897D01*
X118873Y36919D01*
X118848Y36926D01*
X117327Y38448D01*
X117327Y45552D01*
X118839Y47064D01*
X118873Y47076D01*
X118913Y47081D01*
X119024Y47124D01*
X119137Y47161D01*
X119171Y47183D01*
X119209Y47198D01*
X119305Y47267D01*
X119405Y47331D01*
X119433Y47361D01*
X119466Y47384D01*
X119542Y47476D01*
X119623Y47563D01*
X119643Y47598D01*
X119669Y47629D01*
X119719Y47737D01*
X119777Y47841D01*
X119787Y47881D01*
X119804Y47917D01*
X119827Y48034D01*
X119856Y48149D01*
X119860Y48209D01*
X119864Y48229D01*
X119863Y48250D01*
X119867Y48310D01*
X119867Y48731D01*
X123867Y48731D01*
X123868Y48731D01*
X127868Y48731D01*
X127868Y48460D01*
X127874Y48417D01*
X127871Y48373D01*
X127888Y48286D01*
X127890Y48250D01*
X127897Y48229D01*
X127908Y48144D01*
X127924Y48104D01*
X127932Y48061D01*
X127982Y47956D01*
X128025Y47849D01*
X128051Y47813D01*
X128069Y47774D01*
X128144Y47685D01*
X128212Y47591D01*
X128246Y47563D01*
X128274Y47530D01*
X128367Y47462D01*
X128457Y47388D01*
X128496Y47370D01*
X128532Y47344D01*
X128640Y47302D01*
X128744Y47253D01*
X128787Y47245D01*
X128828Y47229D01*
X128943Y47215D01*
X129057Y47193D01*
X129100Y47196D01*
X129144Y47191D01*
X129259Y47206D01*
X129374Y47213D01*
X129416Y47226D01*
X129459Y47232D01*
X129612Y47283D01*
X129916Y47405D01*
X129997Y47451D01*
X130083Y47487D01*
X130136Y47528D01*
X130194Y47560D01*
X130261Y47624D01*
X130335Y47681D01*
X130376Y47733D01*
X130424Y47779D01*
X130474Y47858D01*
X130531Y47932D01*
X130584Y48034D01*
X130593Y48049D01*
X130593Y48051D01*
X138791Y55944D01*
X139086Y56229D01*
X141265Y58327D01*
X146875Y60589D01*
X220042Y60589D01*
X225468Y58491D01*
X227620Y56535D01*
X227637Y56523D01*
X227710Y56460D01*
X228059Y56198D01*
X228141Y56150D01*
X228218Y56095D01*
X228318Y56049D01*
X228335Y56040D01*
X228344Y56037D01*
X228365Y56028D01*
X229175Y55714D01*
X229267Y55691D01*
X229357Y55659D01*
X229465Y55642D01*
X229484Y55638D01*
X229494Y55638D01*
X229516Y55634D01*
X229950Y55594D01*
X229971Y55595D01*
X230067Y55589D01*
X237190Y55589D01*
X237308Y55604D01*
X237427Y55611D01*
X237465Y55624D01*
X237506Y55629D01*
X237616Y55672D01*
X237729Y55709D01*
X237764Y55731D01*
X237801Y55746D01*
X237897Y55815D01*
X237998Y55879D01*
X238026Y55909D01*
X238059Y55932D01*
X238135Y56024D01*
X238216Y56111D01*
X238236Y56146D01*
X238261Y56177D01*
X238312Y56285D01*
X238370Y56389D01*
X238380Y56429D01*
X238397Y56465D01*
X238419Y56582D01*
X238449Y56697D01*
X238453Y56757D01*
X238457Y56777D01*
X238455Y56798D01*
X238459Y56858D01*
X238459Y57232D01*
X240768Y59541D01*
X280206Y59541D01*
X280324Y59556D01*
X280443Y59563D01*
X280481Y59576D01*
X280522Y59581D01*
X280632Y59624D01*
X280745Y59661D01*
X280780Y59683D01*
X280817Y59698D01*
X280913Y59767D01*
X281014Y59831D01*
X281042Y59861D01*
X281075Y59884D01*
X281151Y59976D01*
X281232Y60063D01*
X281252Y60098D01*
X281277Y60129D01*
X281328Y60237D01*
X281386Y60341D01*
X281396Y60381D01*
X281413Y60417D01*
X281435Y60534D01*
X281465Y60649D01*
X281469Y60709D01*
X281473Y60729D01*
X281471Y60750D01*
X281475Y60810D01*
X281475Y79190D01*
X281460Y79308D01*
X281453Y79427D01*
X281440Y79465D01*
X281435Y79506D01*
X281392Y79616D01*
X281355Y79729D01*
X281333Y79764D01*
X281318Y79801D01*
X281249Y79897D01*
X281185Y79998D01*
X281155Y80026D01*
X281132Y80059D01*
X281040Y80135D01*
X280953Y80216D01*
X280918Y80236D01*
X280887Y80261D01*
X280779Y80312D01*
X280675Y80370D01*
X280635Y80380D01*
X280599Y80397D01*
X280482Y80419D01*
X280367Y80449D01*
X280307Y80453D01*
X280287Y80457D01*
X280266Y80455D01*
X280206Y80459D01*
X240268Y80459D01*
X237959Y82768D01*
X237959Y83142D01*
X237944Y83260D01*
X237937Y83379D01*
X237924Y83417D01*
X237919Y83458D01*
X237876Y83568D01*
X237839Y83681D01*
X237817Y83716D01*
X237802Y83753D01*
X237733Y83849D01*
X237669Y83950D01*
X237639Y83978D01*
X237616Y84011D01*
X237524Y84087D01*
X237437Y84168D01*
X237402Y84188D01*
X237371Y84213D01*
X237263Y84264D01*
X237159Y84322D01*
X237119Y84332D01*
X237083Y84349D01*
X236966Y84371D01*
X236851Y84401D01*
X236791Y84405D01*
X236771Y84409D01*
X236750Y84407D01*
X236690Y84411D01*
X231012Y84411D01*
X224175Y86633D01*
X218359Y90859D01*
X214133Y96675D01*
X211911Y103513D01*
X211911Y125148D01*
X211910Y125157D01*
X211911Y125167D01*
X211890Y125315D01*
X211871Y125464D01*
X211868Y125472D01*
X211867Y125482D01*
X211815Y125634D01*
X211656Y126016D01*
X211632Y126060D01*
X211615Y126106D01*
X211553Y126197D01*
X211499Y126293D01*
X211464Y126328D01*
X211436Y126369D01*
X211354Y126442D01*
X211277Y126521D01*
X211235Y126547D01*
X211198Y126580D01*
X211100Y126630D01*
X211006Y126687D01*
X210959Y126702D01*
X210915Y126725D01*
X210807Y126749D01*
X210702Y126781D01*
X210653Y126783D01*
X210604Y126794D01*
X210495Y126791D01*
X210385Y126796D01*
X210336Y126786D01*
X210286Y126785D01*
X210181Y126754D01*
X210073Y126732D01*
X210029Y126710D01*
X209981Y126696D01*
X209886Y126640D01*
X209788Y126592D01*
X209750Y126560D01*
X209707Y126535D01*
X209586Y126428D01*
X208957Y125799D01*
X208499Y125535D01*
X208499Y130270D01*
X208484Y130388D01*
X208477Y130507D01*
X208464Y130545D01*
X208459Y130585D01*
X208416Y130696D01*
X208379Y130809D01*
X208357Y130843D01*
X208342Y130881D01*
X208273Y130977D01*
X208209Y131078D01*
X208179Y131106D01*
X208156Y131138D01*
X208064Y131214D01*
X207977Y131296D01*
X207942Y131315D01*
X207911Y131341D01*
X207803Y131392D01*
X207699Y131449D01*
X207659Y131459D01*
X207623Y131477D01*
X207506Y131499D01*
X207391Y131529D01*
X207331Y131533D01*
X207311Y131536D01*
X207290Y131535D01*
X207230Y131539D01*
X205770Y131539D01*
X205652Y131524D01*
X205533Y131517D01*
X205495Y131504D01*
X205454Y131499D01*
X205344Y131455D01*
X205231Y131419D01*
X205196Y131397D01*
X205159Y131382D01*
X205062Y131312D01*
X204962Y131249D01*
X204934Y131219D01*
X204901Y131195D01*
X204825Y131104D01*
X204744Y131017D01*
X204724Y130982D01*
X204699Y130950D01*
X204648Y130843D01*
X204590Y130738D01*
X204580Y130699D01*
X204563Y130663D01*
X204541Y130546D01*
X204511Y130430D01*
X204507Y130370D01*
X204503Y130350D01*
X204505Y130330D01*
X204501Y130270D01*
X204501Y125535D01*
X204044Y125799D01*
X203299Y126544D01*
X202772Y127456D01*
X202758Y127508D01*
X202700Y127650D01*
X202644Y127790D01*
X202640Y127796D01*
X202638Y127802D01*
X202546Y127925D01*
X202458Y128048D01*
X202452Y128052D01*
X202448Y128057D01*
X202330Y128154D01*
X202213Y128251D01*
X202206Y128253D01*
X202201Y128258D01*
X202062Y128322D01*
X201925Y128386D01*
X201918Y128387D01*
X201912Y128390D01*
X201761Y128418D01*
X201612Y128446D01*
X201606Y128446D01*
X201599Y128447D01*
X201446Y128436D01*
X201295Y128426D01*
X201289Y128424D01*
X201282Y128424D01*
X201137Y128375D01*
X200993Y128328D01*
X200987Y128325D01*
X200981Y128322D01*
X200854Y128240D01*
X200724Y128158D01*
X200719Y128153D01*
X200714Y128149D01*
X200611Y128039D01*
X200506Y127926D01*
X200503Y127920D01*
X200498Y127916D01*
X200426Y127782D01*
X200352Y127648D01*
X200351Y127641D01*
X200348Y127636D01*
X200310Y127485D01*
X200273Y127340D01*
X200272Y127331D01*
X200271Y127327D01*
X200271Y127316D01*
X200263Y127179D01*
X200263Y127027D01*
X197473Y124237D01*
X193527Y124237D01*
X190898Y126867D01*
X190803Y126940D01*
X190714Y127019D01*
X190678Y127037D01*
X190646Y127062D01*
X190537Y127109D01*
X190431Y127163D01*
X190392Y127172D01*
X190354Y127188D01*
X190237Y127207D01*
X190121Y127233D01*
X190080Y127232D01*
X190040Y127238D01*
X189922Y127227D01*
X189803Y127223D01*
X189764Y127212D01*
X189724Y127208D01*
X189611Y127168D01*
X189497Y127135D01*
X189463Y127114D01*
X189424Y127101D01*
X189326Y127034D01*
X189223Y126973D01*
X189178Y126934D01*
X189161Y126922D01*
X189148Y126907D01*
X189103Y126867D01*
X186473Y124237D01*
X182527Y124237D01*
X179898Y126867D01*
X179803Y126940D01*
X179714Y127019D01*
X179678Y127037D01*
X179646Y127062D01*
X179537Y127109D01*
X179431Y127163D01*
X179392Y127172D01*
X179354Y127188D01*
X179237Y127207D01*
X179121Y127233D01*
X179080Y127232D01*
X179040Y127238D01*
X178922Y127227D01*
X178803Y127223D01*
X178764Y127212D01*
X178724Y127208D01*
X178611Y127168D01*
X178497Y127135D01*
X178463Y127114D01*
X178424Y127101D01*
X178326Y127034D01*
X178223Y126973D01*
X178178Y126934D01*
X178161Y126922D01*
X178148Y126907D01*
X178103Y126867D01*
X175473Y124237D01*
X171527Y124237D01*
X168898Y126867D01*
X168803Y126940D01*
X168714Y127019D01*
X168678Y127037D01*
X168646Y127062D01*
X168537Y127109D01*
X168431Y127163D01*
X168392Y127172D01*
X168354Y127188D01*
X168237Y127207D01*
X168121Y127233D01*
X168080Y127232D01*
X168040Y127238D01*
X167922Y127227D01*
X167803Y127223D01*
X167764Y127212D01*
X167724Y127208D01*
X167611Y127168D01*
X167497Y127135D01*
X167463Y127114D01*
X167424Y127101D01*
X167326Y127034D01*
X167223Y126973D01*
X167178Y126934D01*
X167161Y126922D01*
X167148Y126907D01*
X167103Y126867D01*
X164473Y124237D01*
X160527Y124237D01*
X157898Y126867D01*
X157803Y126940D01*
X157714Y127019D01*
X157678Y127037D01*
X157646Y127062D01*
X157537Y127109D01*
X157431Y127163D01*
X157392Y127172D01*
X157354Y127188D01*
X157237Y127207D01*
X157121Y127233D01*
X157080Y127232D01*
X157040Y127238D01*
X156922Y127227D01*
X156803Y127223D01*
X156764Y127212D01*
X156724Y127208D01*
X156611Y127168D01*
X156497Y127135D01*
X156463Y127114D01*
X156424Y127101D01*
X156326Y127034D01*
X156223Y126973D01*
X156178Y126934D01*
X156161Y126922D01*
X156148Y126907D01*
X156103Y126867D01*
X153473Y124237D01*
X149527Y124237D01*
X146898Y126867D01*
X146803Y126940D01*
X146714Y127019D01*
X146678Y127037D01*
X146646Y127062D01*
X146537Y127109D01*
X146431Y127163D01*
X146392Y127172D01*
X146354Y127188D01*
X146237Y127207D01*
X146121Y127233D01*
X146080Y127232D01*
X146040Y127238D01*
X145922Y127227D01*
X145803Y127223D01*
X145764Y127212D01*
X145724Y127208D01*
X145611Y127168D01*
X145497Y127135D01*
X145463Y127114D01*
X145424Y127101D01*
X145326Y127034D01*
X145223Y126973D01*
X145178Y126934D01*
X145161Y126922D01*
X145148Y126907D01*
X145103Y126867D01*
X142473Y124237D01*
X138527Y124237D01*
X135737Y127027D01*
X135737Y134973D01*
X137073Y136309D01*
X137158Y136418D01*
X137247Y136525D01*
X137256Y136544D01*
X137268Y136560D01*
X137323Y136688D01*
X137382Y136813D01*
X137386Y136833D01*
X137394Y136852D01*
X137416Y136990D01*
X137442Y137126D01*
X137441Y137146D01*
X137444Y137166D01*
X137431Y137305D01*
X137422Y137443D01*
X137416Y137462D01*
X137414Y137482D01*
X137367Y137614D01*
X137324Y137745D01*
X137314Y137763D01*
X137307Y137782D01*
X137229Y137897D01*
X137154Y138014D01*
X137139Y138028D01*
X137128Y138045D01*
X137024Y138137D01*
X136923Y138232D01*
X136905Y138242D01*
X136890Y138255D01*
X136766Y138319D01*
X136644Y138386D01*
X136625Y138391D01*
X136606Y138400D01*
X136471Y138430D01*
X136336Y138465D01*
X136308Y138467D01*
X136296Y138470D01*
X136276Y138469D01*
X136176Y138475D01*
X11000Y138475D01*
X10980Y138473D01*
X10876Y138469D01*
X9470Y138331D01*
X9366Y138307D01*
X9261Y138292D01*
X9181Y138265D01*
X9160Y138260D01*
X9146Y138253D01*
X9108Y138240D01*
X6511Y137164D01*
X6503Y137160D01*
X6494Y137157D01*
X6365Y137081D01*
X6235Y137007D01*
X6228Y137000D01*
X6220Y136995D01*
X6099Y136889D01*
X4111Y134901D01*
X4105Y134894D01*
X4098Y134888D01*
X4008Y134768D01*
X3916Y134650D01*
X3912Y134641D01*
X3907Y134634D01*
X3836Y134489D01*
X2760Y131892D01*
X2732Y131789D01*
X2695Y131689D01*
X2682Y131606D01*
X2676Y131585D01*
X2676Y131569D01*
X2669Y131530D01*
X2531Y130124D01*
X2531Y130105D01*
X2525Y130000D01*
X2525Y10000D01*
X2527Y9980D01*
X2531Y9876D01*
X2574Y9440D01*
X2603Y9312D01*
X2627Y9182D01*
X2638Y9157D01*
X2644Y9130D01*
X2705Y9013D01*
X2760Y8893D01*
X2777Y8872D01*
X2790Y8847D01*
X2877Y8749D01*
X2960Y8647D01*
X2983Y8630D01*
X3001Y8610D01*
X3110Y8536D01*
X3216Y8458D01*
X3242Y8447D01*
X3265Y8432D01*
X3389Y8387D01*
X3511Y8338D01*
X3538Y8334D01*
X3564Y8325D01*
X3696Y8313D01*
X3826Y8295D01*
X3853Y8299D01*
X3881Y8296D01*
X4011Y8317D01*
X4142Y8333D01*
X4168Y8343D01*
X4195Y8347D01*
X4315Y8400D01*
X4439Y8447D01*
X4461Y8463D01*
X4486Y8474D01*
X4590Y8555D01*
X4697Y8632D01*
X4715Y8653D01*
X4737Y8670D01*
X4817Y8774D01*
X4902Y8875D01*
X4914Y8900D01*
X4931Y8922D01*
X4983Y9042D01*
X5040Y9161D01*
X5050Y9199D01*
X5057Y9214D01*
X5060Y9235D01*
X5082Y9317D01*
X5115Y9482D01*
X5498Y10407D01*
X6054Y11239D01*
X6761Y11946D01*
X7593Y12502D01*
X8518Y12885D01*
X9500Y13081D01*
X9502Y13081D01*
X9640Y13098D01*
X9779Y13111D01*
X9798Y13118D01*
X9818Y13121D01*
X9947Y13172D01*
X10078Y13219D01*
X10095Y13230D01*
X10114Y13238D01*
X10226Y13319D01*
X10341Y13397D01*
X10354Y13413D01*
X10371Y13424D01*
X10460Y13532D01*
X10552Y13636D01*
X10561Y13654D01*
X10574Y13669D01*
X10633Y13795D01*
X10696Y13919D01*
X10701Y13939D01*
X10709Y13957D01*
X10735Y14094D01*
X10766Y14229D01*
X10765Y14250D01*
X10769Y14269D01*
X10760Y14407D01*
X10756Y14547D01*
X10750Y14567D01*
X10749Y14587D01*
X10706Y14719D01*
X10668Y14853D01*
X10657Y14870D01*
X10651Y14889D01*
X10577Y15007D01*
X10506Y15127D01*
X10488Y15148D01*
X10481Y15158D01*
X10466Y15172D01*
X10400Y15247D01*
X8793Y16855D01*
X7947Y18895D01*
X7947Y21105D01*
X8793Y23145D01*
X10355Y24707D01*
X12395Y25553D01*
X14605Y25553D01*
X16645Y24707D01*
X17938Y23415D01*
X18048Y23330D01*
X18155Y23241D01*
X18173Y23232D01*
X18189Y23220D01*
X18317Y23165D01*
X18443Y23105D01*
X18462Y23102D01*
X18481Y23094D01*
X18619Y23072D01*
X18755Y23046D01*
X18775Y23047D01*
X18795Y23044D01*
X18934Y23057D01*
X19072Y23065D01*
X19091Y23072D01*
X19112Y23074D01*
X19243Y23121D01*
X19375Y23163D01*
X19392Y23174D01*
X19411Y23181D01*
X19526Y23259D01*
X19643Y23334D01*
X19657Y23348D01*
X19674Y23360D01*
X19766Y23464D01*
X19861Y23565D01*
X19871Y23583D01*
X19885Y23598D01*
X19948Y23722D01*
X20015Y23844D01*
X20020Y23863D01*
X20029Y23881D01*
X20060Y24017D01*
X20094Y24152D01*
X20096Y24180D01*
X20099Y24192D01*
X20098Y24212D01*
X20105Y24312D01*
X20105Y30316D01*
X20551Y30763D01*
X26183Y30763D01*
X26470Y30476D01*
X26564Y30403D01*
X26653Y30324D01*
X26689Y30306D01*
X26721Y30281D01*
X26830Y30234D01*
X26936Y30180D01*
X26976Y30171D01*
X27013Y30155D01*
X27131Y30136D01*
X27247Y30110D01*
X27287Y30111D01*
X27327Y30105D01*
X27446Y30116D01*
X27565Y30120D01*
X27603Y30131D01*
X27644Y30135D01*
X27756Y30175D01*
X27870Y30208D01*
X27905Y30229D01*
X27943Y30242D01*
X28041Y30309D01*
X28144Y30370D01*
X28189Y30410D01*
X28206Y30421D01*
X28220Y30436D01*
X28265Y30476D01*
X28551Y30763D01*
X34183Y30763D01*
X34470Y30476D01*
X34564Y30403D01*
X34653Y30324D01*
X34689Y30306D01*
X34721Y30281D01*
X34830Y30234D01*
X34936Y30180D01*
X34976Y30171D01*
X35013Y30155D01*
X35131Y30136D01*
X35247Y30110D01*
X35287Y30111D01*
X35327Y30105D01*
X35446Y30116D01*
X35565Y30120D01*
X35603Y30131D01*
X35644Y30135D01*
X35756Y30175D01*
X35870Y30208D01*
X35905Y30229D01*
X35943Y30242D01*
X36041Y30309D01*
X36144Y30370D01*
X36189Y30410D01*
X36206Y30421D01*
X36220Y30436D01*
X36265Y30476D01*
X36551Y30763D01*
X42183Y30763D01*
X42470Y30476D01*
X42564Y30403D01*
X42653Y30324D01*
X42689Y30306D01*
X42721Y30281D01*
X42830Y30234D01*
X42936Y30180D01*
X42976Y30171D01*
X43013Y30155D01*
X43131Y30136D01*
X43247Y30110D01*
X43287Y30111D01*
X43327Y30105D01*
X43446Y30116D01*
X43565Y30120D01*
X43603Y30131D01*
X43644Y30135D01*
X43756Y30175D01*
X43870Y30208D01*
X43905Y30229D01*
X43943Y30242D01*
X44041Y30309D01*
X44144Y30370D01*
X44189Y30410D01*
X44206Y30421D01*
X44220Y30436D01*
X44265Y30476D01*
X44551Y30763D01*
X50183Y30763D01*
X50470Y30476D01*
X50564Y30403D01*
X50653Y30324D01*
X50689Y30306D01*
X50721Y30281D01*
X50830Y30234D01*
X50936Y30180D01*
X50976Y30171D01*
X51013Y30155D01*
X51131Y30136D01*
X51247Y30110D01*
X51287Y30111D01*
X51327Y30105D01*
X51446Y30116D01*
X51565Y30120D01*
X51603Y30131D01*
X51644Y30135D01*
X51756Y30175D01*
X51870Y30208D01*
X51905Y30229D01*
X51943Y30242D01*
X52041Y30309D01*
X52144Y30370D01*
X52189Y30410D01*
X52206Y30421D01*
X52220Y30436D01*
X52265Y30476D01*
X52551Y30763D01*
X58183Y30763D01*
X58470Y30476D01*
X58564Y30403D01*
X58653Y30324D01*
X58689Y30306D01*
X58721Y30281D01*
X58830Y30234D01*
X58936Y30180D01*
X58976Y30171D01*
X59013Y30155D01*
X59131Y30136D01*
X59247Y30110D01*
X59287Y30111D01*
X59327Y30105D01*
X59446Y30116D01*
X59565Y30120D01*
X59603Y30131D01*
X59644Y30135D01*
X59756Y30175D01*
X59870Y30208D01*
X59905Y30229D01*
X59943Y30242D01*
X60041Y30309D01*
X60144Y30370D01*
X60189Y30410D01*
X60206Y30421D01*
X60220Y30436D01*
X60265Y30476D01*
X60787Y30999D01*
X60873Y31053D01*
X60901Y31083D01*
X60934Y31106D01*
X61010Y31198D01*
X61091Y31285D01*
X61111Y31320D01*
X61137Y31351D01*
X61187Y31459D01*
X61245Y31563D01*
X61255Y31603D01*
X61272Y31639D01*
X61295Y31756D01*
X61324Y31871D01*
X61328Y31931D01*
X61332Y31951D01*
X61331Y31972D01*
X61335Y32032D01*
X61335Y39842D01*
X64963Y43470D01*
X66325Y44833D01*
X66410Y44942D01*
X66499Y45049D01*
X66508Y45068D01*
X66520Y45084D01*
X66575Y45211D01*
X66635Y45337D01*
X66638Y45357D01*
X66646Y45376D01*
X66668Y45514D01*
X66694Y45650D01*
X66693Y45670D01*
X66696Y45690D01*
X66683Y45829D01*
X66675Y45967D01*
X66668Y45986D01*
X66666Y46006D01*
X66620Y46137D01*
X66577Y46269D01*
X66566Y46287D01*
X66559Y46306D01*
X66481Y46421D01*
X66406Y46538D01*
X66392Y46552D01*
X66380Y46569D01*
X66276Y46661D01*
X66175Y46756D01*
X66157Y46766D01*
X66142Y46779D01*
X66018Y46843D01*
X65896Y46910D01*
X65877Y46915D01*
X65859Y46924D01*
X65723Y46954D01*
X65588Y46989D01*
X65560Y46991D01*
X65548Y46994D01*
X65528Y46993D01*
X65428Y46999D01*
X59367Y46999D01*
X59367Y47000D01*
X59367Y52461D01*
X66097Y52461D01*
X66215Y52476D01*
X66334Y52483D01*
X66373Y52496D01*
X66413Y52501D01*
X66524Y52544D01*
X66637Y52581D01*
X66671Y52603D01*
X66708Y52618D01*
X66805Y52688D01*
X66905Y52751D01*
X66933Y52781D01*
X66966Y52805D01*
X67042Y52896D01*
X67123Y52983D01*
X67143Y53018D01*
X67169Y53049D01*
X67219Y53157D01*
X67277Y53261D01*
X67287Y53301D01*
X67304Y53337D01*
X67326Y53454D01*
X67356Y53569D01*
X67360Y53630D01*
X67364Y53650D01*
X67363Y53670D01*
X67366Y53730D01*
X67366Y55001D01*
X67368Y55001D01*
X67368Y53730D01*
X67383Y53612D01*
X67391Y53493D01*
X67403Y53455D01*
X67408Y53415D01*
X67452Y53304D01*
X67489Y53191D01*
X67510Y53156D01*
X67525Y53119D01*
X67595Y53023D01*
X67659Y52922D01*
X67688Y52894D01*
X67712Y52861D01*
X67804Y52786D01*
X67890Y52704D01*
X67926Y52684D01*
X67957Y52659D01*
X68065Y52608D01*
X68169Y52550D01*
X68208Y52540D01*
X68245Y52523D01*
X68361Y52501D01*
X68477Y52471D01*
X68537Y52467D01*
X68557Y52463D01*
X68577Y52465D01*
X68637Y52461D01*
X75368Y52461D01*
X75368Y47000D01*
X75280Y46788D01*
X75267Y46740D01*
X75246Y46695D01*
X75225Y46587D01*
X75196Y46481D01*
X75195Y46431D01*
X75186Y46382D01*
X75193Y46273D01*
X75191Y46163D01*
X75203Y46115D01*
X75206Y46065D01*
X75240Y45961D01*
X75265Y45854D01*
X75289Y45810D01*
X75304Y45763D01*
X75363Y45670D01*
X75414Y45573D01*
X75447Y45536D01*
X75474Y45494D01*
X75554Y45419D01*
X75628Y45337D01*
X75669Y45310D01*
X75706Y45276D01*
X75802Y45223D01*
X75894Y45163D01*
X75941Y45146D01*
X75984Y45122D01*
X76090Y45095D01*
X76194Y45059D01*
X76244Y45055D01*
X76292Y45043D01*
X76453Y45033D01*
X81282Y45033D01*
X81331Y45039D01*
X81381Y45037D01*
X81488Y45059D01*
X81597Y45073D01*
X81644Y45091D01*
X81692Y45101D01*
X81791Y45149D01*
X81893Y45190D01*
X81933Y45219D01*
X81978Y45241D01*
X82062Y45312D01*
X82150Y45376D01*
X82182Y45415D01*
X82220Y45447D01*
X82283Y45537D01*
X82353Y45621D01*
X82374Y45666D01*
X82403Y45707D01*
X82442Y45810D01*
X82489Y45909D01*
X82498Y45958D01*
X82516Y46004D01*
X82528Y46114D01*
X82549Y46221D01*
X82545Y46271D01*
X82551Y46320D01*
X82536Y46429D01*
X82529Y46539D01*
X82514Y46586D01*
X82507Y46635D01*
X82454Y46788D01*
X82367Y47000D01*
X82367Y52461D01*
X87828Y52461D01*
X87828Y46302D01*
X87843Y46184D01*
X87850Y46065D01*
X87863Y46027D01*
X87868Y45986D01*
X87912Y45876D01*
X87948Y45763D01*
X87970Y45728D01*
X87985Y45691D01*
X88055Y45595D01*
X88119Y45494D01*
X88148Y45466D01*
X88172Y45433D01*
X88264Y45357D01*
X88350Y45276D01*
X88386Y45256D01*
X88417Y45231D01*
X88524Y45180D01*
X88629Y45122D01*
X88668Y45112D01*
X88705Y45095D01*
X88821Y45073D01*
X88937Y45043D01*
X88997Y45039D01*
X89017Y45035D01*
X89037Y45037D01*
X89097Y45033D01*
X91637Y45033D01*
X91755Y45048D01*
X91874Y45055D01*
X91913Y45068D01*
X91953Y45073D01*
X92064Y45116D01*
X92177Y45153D01*
X92211Y45175D01*
X92248Y45190D01*
X92345Y45259D01*
X92445Y45323D01*
X92473Y45353D01*
X92506Y45376D01*
X92582Y45468D01*
X92663Y45555D01*
X92683Y45590D01*
X92709Y45621D01*
X92759Y45729D01*
X92817Y45833D01*
X92827Y45873D01*
X92844Y45909D01*
X92867Y46026D01*
X92896Y46141D01*
X92900Y46201D01*
X92904Y46221D01*
X92903Y46242D01*
X92907Y46302D01*
X92907Y52461D01*
X98368Y52461D01*
X98368Y47000D01*
X98280Y46788D01*
X98267Y46740D01*
X98246Y46695D01*
X98225Y46587D01*
X98196Y46481D01*
X98195Y46431D01*
X98186Y46382D01*
X98193Y46273D01*
X98191Y46163D01*
X98203Y46115D01*
X98206Y46065D01*
X98240Y45961D01*
X98265Y45854D01*
X98289Y45810D01*
X98304Y45763D01*
X98363Y45670D01*
X98414Y45573D01*
X98447Y45536D01*
X98474Y45494D01*
X98554Y45419D01*
X98628Y45337D01*
X98669Y45310D01*
X98706Y45276D01*
X98802Y45223D01*
X98894Y45163D01*
X98941Y45146D01*
X98984Y45122D01*
X99090Y45095D01*
X99194Y45059D01*
X99244Y45055D01*
X99292Y45043D01*
X99453Y45033D01*
X109290Y45033D01*
X109388Y45045D01*
X109487Y45048D01*
X109545Y45065D01*
X109606Y45073D01*
X109698Y45109D01*
X109793Y45137D01*
X109845Y45167D01*
X109901Y45190D01*
X109981Y45248D01*
X110027Y45275D01*
X111942Y45275D01*
X113275Y43942D01*
X113275Y42058D01*
X111942Y40725D01*
X110035Y40725D01*
X109984Y40753D01*
X109936Y40790D01*
X109845Y40830D01*
X109759Y40878D01*
X109700Y40893D01*
X109644Y40917D01*
X109546Y40932D01*
X109451Y40957D01*
X109351Y40963D01*
X109330Y40967D01*
X109318Y40965D01*
X109290Y40967D01*
X107314Y40967D01*
X107176Y40950D01*
X107038Y40937D01*
X107019Y40930D01*
X106998Y40927D01*
X106869Y40876D01*
X106738Y40829D01*
X106721Y40818D01*
X106703Y40810D01*
X106590Y40729D01*
X106475Y40651D01*
X106462Y40635D01*
X106445Y40624D01*
X106357Y40516D01*
X106265Y40412D01*
X106255Y40394D01*
X106243Y40379D01*
X106183Y40253D01*
X106120Y40129D01*
X106116Y40109D01*
X106107Y40091D01*
X106081Y39954D01*
X106050Y39819D01*
X106051Y39798D01*
X106047Y39779D01*
X106056Y39640D01*
X106060Y39501D01*
X106066Y39481D01*
X106067Y39461D01*
X106110Y39329D01*
X106148Y39195D01*
X106159Y39178D01*
X106165Y39159D01*
X106239Y39041D01*
X106310Y38921D01*
X106329Y38900D01*
X106335Y38890D01*
X106350Y38876D01*
X106416Y38801D01*
X107275Y37942D01*
X107275Y36058D01*
X105942Y34725D01*
X104058Y34725D01*
X102633Y36150D01*
X102605Y36237D01*
X102583Y36272D01*
X102568Y36309D01*
X102499Y36405D01*
X102435Y36506D01*
X102405Y36534D01*
X102382Y36567D01*
X102290Y36643D01*
X102203Y36724D01*
X102168Y36744D01*
X102137Y36769D01*
X102029Y36820D01*
X101925Y36878D01*
X101885Y36888D01*
X101849Y36905D01*
X101732Y36927D01*
X101617Y36957D01*
X101557Y36961D01*
X101537Y36965D01*
X101516Y36963D01*
X101456Y36967D01*
X91395Y36967D01*
X91277Y36952D01*
X91158Y36945D01*
X91120Y36932D01*
X91079Y36927D01*
X90969Y36884D01*
X90856Y36847D01*
X90821Y36825D01*
X90784Y36810D01*
X90688Y36741D01*
X90587Y36677D01*
X90559Y36647D01*
X90526Y36624D01*
X90450Y36532D01*
X90369Y36445D01*
X90349Y36410D01*
X90324Y36379D01*
X90273Y36271D01*
X90215Y36167D01*
X90205Y36127D01*
X90188Y36091D01*
X90166Y35974D01*
X90136Y35859D01*
X90132Y35799D01*
X90128Y35779D01*
X90130Y35758D01*
X90126Y35698D01*
X90126Y33909D01*
X89146Y32929D01*
X89061Y32820D01*
X88973Y32713D01*
X88964Y32694D01*
X88952Y32678D01*
X88896Y32551D01*
X88837Y32425D01*
X88833Y32405D01*
X88825Y32386D01*
X88803Y32248D01*
X88777Y32112D01*
X88778Y32092D01*
X88775Y32072D01*
X88788Y31933D01*
X88797Y31795D01*
X88803Y31776D01*
X88805Y31756D01*
X88852Y31624D01*
X88895Y31493D01*
X88906Y31475D01*
X88913Y31456D01*
X88991Y31341D01*
X89065Y31224D01*
X89080Y31210D01*
X89091Y31193D01*
X89196Y31101D01*
X89297Y31006D01*
X89314Y30996D01*
X89330Y30983D01*
X89454Y30919D01*
X89575Y30852D01*
X89595Y30847D01*
X89613Y30838D01*
X89749Y30808D01*
X89883Y30773D01*
X89911Y30771D01*
X89923Y30768D01*
X89944Y30769D01*
X90044Y30763D01*
X90183Y30763D01*
X90470Y30476D01*
X90564Y30403D01*
X90653Y30324D01*
X90689Y30306D01*
X90721Y30281D01*
X90830Y30234D01*
X90936Y30180D01*
X90976Y30171D01*
X91013Y30155D01*
X91131Y30136D01*
X91247Y30110D01*
X91287Y30111D01*
X91327Y30105D01*
X91446Y30116D01*
X91565Y30120D01*
X91603Y30131D01*
X91644Y30135D01*
X91756Y30175D01*
X91870Y30208D01*
X91905Y30229D01*
X91943Y30242D01*
X92041Y30309D01*
X92144Y30370D01*
X92189Y30410D01*
X92206Y30421D01*
X92220Y30436D01*
X92265Y30476D01*
X92551Y30763D01*
X98183Y30763D01*
X98470Y30476D01*
X98564Y30403D01*
X98653Y30324D01*
X98689Y30306D01*
X98721Y30281D01*
X98830Y30234D01*
X98936Y30180D01*
X98976Y30171D01*
X99013Y30155D01*
X99131Y30136D01*
X99247Y30110D01*
X99287Y30111D01*
X99327Y30105D01*
X99446Y30116D01*
X99565Y30120D01*
X99603Y30131D01*
X99644Y30135D01*
X99756Y30175D01*
X99870Y30208D01*
X99905Y30229D01*
X99943Y30242D01*
X100041Y30309D01*
X100144Y30370D01*
X100189Y30410D01*
X100206Y30421D01*
X100220Y30436D01*
X100265Y30476D01*
X100551Y30763D01*
X106183Y30763D01*
X106470Y30476D01*
X106564Y30403D01*
X106653Y30324D01*
X106689Y30306D01*
X106721Y30281D01*
X106830Y30234D01*
X106936Y30180D01*
X106976Y30171D01*
X107013Y30155D01*
X107131Y30136D01*
X107247Y30110D01*
X107287Y30111D01*
X107327Y30105D01*
X107446Y30116D01*
X107565Y30120D01*
X107603Y30131D01*
X107644Y30135D01*
X107756Y30175D01*
X107870Y30208D01*
X107905Y30229D01*
X107943Y30242D01*
X108041Y30309D01*
X108144Y30370D01*
X108189Y30410D01*
X108206Y30421D01*
X108220Y30436D01*
X108265Y30476D01*
X108551Y30763D01*
X114183Y30763D01*
X114630Y30316D01*
X114630Y26802D01*
X114645Y26684D01*
X114652Y26565D01*
X114665Y26527D01*
X114670Y26486D01*
X114714Y26376D01*
X114750Y26263D01*
X114772Y26228D01*
X114787Y26191D01*
X114857Y26095D01*
X114921Y25994D01*
X114950Y25966D01*
X114974Y25933D01*
X115066Y25857D01*
X115152Y25776D01*
X115188Y25756D01*
X115219Y25731D01*
X115326Y25680D01*
X115431Y25622D01*
X115470Y25612D01*
X115506Y25595D01*
X115623Y25573D01*
X115739Y25543D01*
X115799Y25539D01*
X115819Y25535D01*
X115839Y25537D01*
X115899Y25533D01*
X117290Y25533D01*
X117388Y25545D01*
X117487Y25548D01*
X117545Y25565D01*
X117606Y25573D01*
X117698Y25609D01*
X117793Y25637D01*
X117845Y25667D01*
X117901Y25690D01*
X117981Y25748D01*
X118027Y25775D01*
X119942Y25775D01*
X121275Y24442D01*
X121275Y22558D01*
X120452Y21735D01*
X120368Y21626D01*
X120279Y21519D01*
X120270Y21500D01*
X120258Y21484D01*
X120202Y21356D01*
X120143Y21231D01*
X120139Y21211D01*
X120131Y21192D01*
X120109Y21054D01*
X120083Y20918D01*
X120084Y20898D01*
X120081Y20878D01*
X120094Y20739D01*
X120103Y20601D01*
X120109Y20582D01*
X120111Y20562D01*
X120158Y20430D01*
X120201Y20299D01*
X120212Y20281D01*
X120219Y20262D01*
X120297Y20147D01*
X120371Y20030D01*
X120386Y20016D01*
X120397Y19999D01*
X120501Y19907D01*
X120603Y19812D01*
X120621Y19802D01*
X120636Y19789D01*
X120759Y19726D01*
X120881Y19658D01*
X120901Y19653D01*
X120919Y19644D01*
X121055Y19614D01*
X121189Y19579D01*
X121217Y19577D01*
X121229Y19574D01*
X121250Y19575D01*
X121350Y19569D01*
X124210Y16708D01*
X124305Y16635D01*
X124394Y16556D01*
X124430Y16538D01*
X124462Y16513D01*
X124571Y16465D01*
X124677Y16411D01*
X124716Y16403D01*
X124754Y16387D01*
X124871Y16368D01*
X124987Y16342D01*
X125028Y16343D01*
X125068Y16337D01*
X125186Y16348D01*
X125305Y16351D01*
X125344Y16363D01*
X125384Y16366D01*
X125496Y16407D01*
X125611Y16440D01*
X125646Y16460D01*
X125684Y16474D01*
X125782Y16541D01*
X125885Y16601D01*
X125930Y16641D01*
X125947Y16653D01*
X125960Y16668D01*
X126005Y16708D01*
X127583Y18286D01*
X129592Y20295D01*
X135980Y20295D01*
X136098Y20310D01*
X136217Y20317D01*
X136255Y20330D01*
X136296Y20335D01*
X136406Y20378D01*
X136519Y20415D01*
X136554Y20437D01*
X136591Y20452D01*
X136687Y20521D01*
X136788Y20585D01*
X136816Y20615D01*
X136849Y20638D01*
X136925Y20730D01*
X137006Y20817D01*
X137026Y20852D01*
X137051Y20883D01*
X137102Y20991D01*
X137160Y21095D01*
X137170Y21135D01*
X137187Y21171D01*
X137209Y21288D01*
X137233Y21381D01*
X139000Y21381D01*
X139118Y21396D01*
X139237Y21403D01*
X139275Y21415D01*
X139315Y21420D01*
X139426Y21464D01*
X139539Y21501D01*
X139573Y21523D01*
X139611Y21537D01*
X139707Y21607D01*
X139808Y21671D01*
X139836Y21701D01*
X139868Y21724D01*
X139869Y21725D01*
X139945Y21816D01*
X140008Y21884D01*
X140026Y21903D01*
X140046Y21939D01*
X140072Y21970D01*
X140122Y22077D01*
X140180Y22182D01*
X140190Y22221D01*
X140207Y22257D01*
X140229Y22374D01*
X140259Y22490D01*
X140263Y22550D01*
X140267Y22570D01*
X140266Y22590D01*
X140269Y22650D01*
X140269Y24551D01*
X140739Y24551D01*
X140837Y24563D01*
X140936Y24566D01*
X140994Y24583D01*
X141054Y24591D01*
X141146Y24627D01*
X141241Y24655D01*
X141293Y24685D01*
X141350Y24708D01*
X141430Y24766D01*
X141515Y24816D01*
X141591Y24882D01*
X141607Y24894D01*
X141615Y24904D01*
X141636Y24922D01*
X142026Y25313D01*
X145974Y25313D01*
X146364Y24922D01*
X146442Y24862D01*
X146514Y24794D01*
X146567Y24765D01*
X146615Y24728D01*
X146706Y24688D01*
X146793Y24640D01*
X146851Y24625D01*
X146907Y24601D01*
X147005Y24586D01*
X147101Y24561D01*
X147201Y24555D01*
X147221Y24551D01*
X147233Y24553D01*
X147261Y24551D01*
X147731Y24551D01*
X147731Y22650D01*
X147746Y22532D01*
X147753Y22413D01*
X147765Y22375D01*
X147770Y22335D01*
X147814Y22224D01*
X147851Y22111D01*
X147873Y22077D01*
X147887Y22039D01*
X147957Y21943D01*
X148021Y21842D01*
X148022Y21842D01*
X148051Y21814D01*
X148074Y21782D01*
X148075Y21781D01*
X148167Y21705D01*
X148253Y21624D01*
X148289Y21604D01*
X148320Y21578D01*
X148427Y21528D01*
X148532Y21470D01*
X148571Y21460D01*
X148607Y21443D01*
X148724Y21421D01*
X148840Y21391D01*
X148900Y21387D01*
X148920Y21383D01*
X148940Y21384D01*
X149000Y21381D01*
X150757Y21381D01*
X150766Y21314D01*
X150773Y21195D01*
X150786Y21157D01*
X150791Y21116D01*
X150834Y21006D01*
X150871Y20893D01*
X150893Y20858D01*
X150908Y20821D01*
X150977Y20725D01*
X151041Y20624D01*
X151071Y20596D01*
X151094Y20563D01*
X151186Y20487D01*
X151273Y20406D01*
X151308Y20386D01*
X151339Y20361D01*
X151447Y20310D01*
X151551Y20252D01*
X151591Y20242D01*
X151627Y20225D01*
X151744Y20203D01*
X151859Y20173D01*
X151919Y20169D01*
X151939Y20165D01*
X151960Y20167D01*
X152020Y20163D01*
X153624Y20163D01*
X154163Y19624D01*
X154163Y14465D01*
X154175Y14367D01*
X154178Y14268D01*
X154195Y14210D01*
X154203Y14150D01*
X154239Y14058D01*
X154267Y13963D01*
X154297Y13910D01*
X154320Y13854D01*
X154378Y13774D01*
X154428Y13689D01*
X154445Y13670D01*
X154445Y8842D01*
X151884Y6282D01*
X151824Y6204D01*
X151756Y6132D01*
X151727Y6079D01*
X151690Y6031D01*
X151650Y5940D01*
X151602Y5853D01*
X151587Y5795D01*
X151563Y5739D01*
X151548Y5641D01*
X151523Y5545D01*
X151517Y5445D01*
X151513Y5425D01*
X151515Y5413D01*
X151513Y5385D01*
X151513Y5226D01*
X150974Y4687D01*
X150815Y4687D01*
X150717Y4675D01*
X150618Y4672D01*
X150560Y4655D01*
X150500Y4647D01*
X150408Y4611D01*
X150312Y4583D01*
X150265Y4555D01*
X147730Y4555D01*
X147653Y4598D01*
X147595Y4613D01*
X147539Y4637D01*
X147441Y4652D01*
X147345Y4677D01*
X147245Y4683D01*
X147225Y4687D01*
X147213Y4685D01*
X147185Y4687D01*
X147026Y4687D01*
X146636Y5078D01*
X146558Y5138D01*
X146486Y5206D01*
X146433Y5235D01*
X146385Y5272D01*
X146294Y5312D01*
X146207Y5360D01*
X146149Y5375D01*
X146093Y5399D01*
X145995Y5414D01*
X145899Y5439D01*
X145799Y5445D01*
X145779Y5449D01*
X145767Y5447D01*
X145739Y5449D01*
X145269Y5449D01*
X145269Y7350D01*
X145269Y9251D01*
X145739Y9251D01*
X145837Y9263D01*
X145936Y9266D01*
X145994Y9283D01*
X146054Y9291D01*
X146146Y9327D01*
X146241Y9355D01*
X146293Y9385D01*
X146350Y9408D01*
X146430Y9466D01*
X146515Y9516D01*
X146591Y9582D01*
X146607Y9594D01*
X146615Y9604D01*
X146636Y9622D01*
X147026Y10013D01*
X147185Y10013D01*
X147283Y10025D01*
X147382Y10028D01*
X147440Y10045D01*
X147500Y10053D01*
X147592Y10089D01*
X147687Y10117D01*
X147740Y10147D01*
X147796Y10170D01*
X147876Y10228D01*
X147961Y10278D01*
X148037Y10344D01*
X148053Y10356D01*
X148061Y10366D01*
X148082Y10385D01*
X148484Y10786D01*
X148544Y10864D01*
X148612Y10936D01*
X148633Y10974D01*
X148653Y10998D01*
X148660Y11013D01*
X148678Y11037D01*
X148718Y11128D01*
X148766Y11215D01*
X148779Y11265D01*
X148788Y11286D01*
X148790Y11295D01*
X148805Y11329D01*
X148820Y11427D01*
X148845Y11523D01*
X148851Y11623D01*
X148855Y11643D01*
X148853Y11655D01*
X148855Y11683D01*
X148855Y13677D01*
X148894Y13718D01*
X148923Y13771D01*
X148960Y13819D01*
X149000Y13910D01*
X149048Y13997D01*
X149063Y14055D01*
X149087Y14111D01*
X149102Y14209D01*
X149127Y14305D01*
X149133Y14405D01*
X149137Y14425D01*
X149135Y14437D01*
X149137Y14465D01*
X149137Y19480D01*
X149122Y19598D01*
X149115Y19717D01*
X149102Y19755D01*
X149097Y19796D01*
X149054Y19906D01*
X149017Y20019D01*
X148995Y20054D01*
X148980Y20091D01*
X148911Y20187D01*
X148847Y20288D01*
X148817Y20316D01*
X148794Y20349D01*
X148702Y20425D01*
X148615Y20506D01*
X148580Y20526D01*
X148549Y20551D01*
X148441Y20602D01*
X148337Y20660D01*
X148297Y20670D01*
X148261Y20687D01*
X148144Y20709D01*
X148029Y20739D01*
X147969Y20743D01*
X147949Y20747D01*
X147928Y20745D01*
X147868Y20749D01*
X147261Y20749D01*
X147163Y20737D01*
X147064Y20734D01*
X147006Y20717D01*
X146946Y20709D01*
X146854Y20673D01*
X146759Y20645D01*
X146707Y20615D01*
X146650Y20592D01*
X146570Y20534D01*
X146485Y20484D01*
X146409Y20418D01*
X146393Y20406D01*
X146385Y20396D01*
X146364Y20378D01*
X145974Y19987D01*
X142026Y19987D01*
X141636Y20378D01*
X141558Y20438D01*
X141486Y20506D01*
X141433Y20535D01*
X141385Y20572D01*
X141294Y20612D01*
X141207Y20660D01*
X141149Y20675D01*
X141093Y20699D01*
X140995Y20714D01*
X140899Y20739D01*
X140799Y20745D01*
X140779Y20749D01*
X140767Y20747D01*
X140739Y20749D01*
X140132Y20749D01*
X140014Y20734D01*
X139895Y20727D01*
X139857Y20714D01*
X139816Y20709D01*
X139706Y20666D01*
X139593Y20629D01*
X139558Y20607D01*
X139521Y20592D01*
X139425Y20523D01*
X139324Y20459D01*
X139296Y20429D01*
X139263Y20406D01*
X139187Y20314D01*
X139106Y20227D01*
X139086Y20192D01*
X139061Y20161D01*
X139010Y20053D01*
X138952Y19949D01*
X138942Y19909D01*
X138925Y19873D01*
X138903Y19756D01*
X138873Y19641D01*
X138870Y19592D01*
X138868Y19586D01*
X138869Y19578D01*
X138865Y19561D01*
X138867Y19540D01*
X138863Y19480D01*
X138863Y19465D01*
X138875Y19367D01*
X138878Y19268D01*
X138885Y19245D01*
X138885Y19243D01*
X138888Y19233D01*
X138895Y19210D01*
X138903Y19150D01*
X138939Y19058D01*
X138967Y18963D01*
X138997Y18910D01*
X139020Y18854D01*
X139078Y18774D01*
X139128Y18689D01*
X139145Y18670D01*
X139145Y16323D01*
X139106Y16282D01*
X139077Y16229D01*
X139040Y16181D01*
X139000Y16090D01*
X138952Y16003D01*
X138937Y15945D01*
X138913Y15889D01*
X138898Y15791D01*
X138873Y15695D01*
X138867Y15595D01*
X138863Y15575D01*
X138865Y15563D01*
X138863Y15535D01*
X138863Y10520D01*
X138878Y10402D01*
X138885Y10283D01*
X138898Y10245D01*
X138903Y10204D01*
X138946Y10094D01*
X138983Y9981D01*
X139005Y9946D01*
X139020Y9909D01*
X139089Y9813D01*
X139153Y9712D01*
X139183Y9684D01*
X139206Y9651D01*
X139298Y9575D01*
X139385Y9494D01*
X139420Y9474D01*
X139451Y9449D01*
X139559Y9398D01*
X139663Y9340D01*
X139703Y9330D01*
X139739Y9313D01*
X139856Y9291D01*
X139971Y9261D01*
X140031Y9257D01*
X140051Y9253D01*
X140072Y9255D01*
X140132Y9251D01*
X140624Y9251D01*
X140723Y9210D01*
X140786Y9155D01*
X140822Y9136D01*
X140854Y9111D01*
X140963Y9064D01*
X141069Y9010D01*
X141108Y9001D01*
X141145Y8985D01*
X141263Y8966D01*
X141379Y8940D01*
X141420Y8941D01*
X141460Y8935D01*
X141578Y8946D01*
X141697Y8950D01*
X141736Y8961D01*
X141776Y8965D01*
X141888Y9005D01*
X142003Y9038D01*
X142037Y9059D01*
X142075Y9072D01*
X142174Y9139D01*
X142277Y9200D01*
X142297Y9218D01*
X142376Y9251D01*
X142731Y9251D01*
X142731Y8619D01*
X139000Y8619D01*
X137243Y8619D01*
X137234Y8686D01*
X137227Y8805D01*
X137214Y8843D01*
X137209Y8884D01*
X137166Y8994D01*
X137129Y9107D01*
X137107Y9142D01*
X137092Y9179D01*
X137023Y9275D01*
X136959Y9376D01*
X136929Y9404D01*
X136906Y9437D01*
X136814Y9512D01*
X136727Y9594D01*
X136692Y9614D01*
X136661Y9639D01*
X136553Y9690D01*
X136449Y9748D01*
X136409Y9758D01*
X136373Y9775D01*
X136256Y9797D01*
X136141Y9827D01*
X136081Y9831D01*
X136061Y9835D01*
X136040Y9833D01*
X135980Y9837D01*
X134376Y9837D01*
X133837Y10376D01*
X133837Y13436D01*
X133822Y13554D01*
X133815Y13673D01*
X133802Y13711D01*
X133797Y13752D01*
X133754Y13862D01*
X133717Y13975D01*
X133695Y14010D01*
X133680Y14047D01*
X133611Y14143D01*
X133547Y14244D01*
X133517Y14272D01*
X133494Y14305D01*
X133402Y14381D01*
X133315Y14462D01*
X133280Y14482D01*
X133249Y14507D01*
X133141Y14558D01*
X133037Y14616D01*
X132997Y14626D01*
X132961Y14643D01*
X132844Y14665D01*
X132729Y14695D01*
X132669Y14699D01*
X132649Y14703D01*
X132628Y14701D01*
X132568Y14705D01*
X132433Y14705D01*
X132335Y14693D01*
X132236Y14690D01*
X132178Y14673D01*
X132118Y14665D01*
X132026Y14629D01*
X131931Y14601D01*
X131878Y14571D01*
X131822Y14548D01*
X131742Y14490D01*
X131657Y14440D01*
X131581Y14374D01*
X131565Y14362D01*
X131557Y14352D01*
X131536Y14334D01*
X129512Y12309D01*
X129438Y12215D01*
X129360Y12126D01*
X129341Y12090D01*
X129317Y12058D01*
X129269Y11949D01*
X129215Y11843D01*
X129206Y11803D01*
X129190Y11766D01*
X129172Y11648D01*
X129146Y11532D01*
X129147Y11492D01*
X129140Y11452D01*
X129152Y11333D01*
X129155Y11214D01*
X129166Y11176D01*
X129170Y11135D01*
X129211Y11023D01*
X129244Y10909D01*
X129264Y10874D01*
X129278Y10836D01*
X129345Y10738D01*
X129405Y10635D01*
X129445Y10590D01*
X129456Y10573D01*
X129472Y10559D01*
X129512Y10514D01*
X129713Y10313D01*
X129713Y8687D01*
X128384Y7359D01*
X128311Y7265D01*
X128233Y7175D01*
X128214Y7139D01*
X128189Y7107D01*
X128142Y6998D01*
X128088Y6892D01*
X128079Y6853D01*
X128063Y6816D01*
X128044Y6698D01*
X128018Y6582D01*
X128020Y6542D01*
X128013Y6501D01*
X128024Y6383D01*
X128028Y6264D01*
X128039Y6225D01*
X128043Y6185D01*
X128083Y6073D01*
X128116Y5958D01*
X128137Y5924D01*
X128151Y5886D01*
X128218Y5787D01*
X128228Y5769D01*
X127750Y5769D01*
X126728Y5769D01*
X126728Y5772D01*
X126698Y5857D01*
X126677Y5944D01*
X126644Y6006D01*
X126620Y6072D01*
X126570Y6146D01*
X126528Y6225D01*
X126481Y6277D01*
X126442Y6335D01*
X126374Y6394D01*
X126314Y6461D01*
X126256Y6499D01*
X126203Y6545D01*
X126123Y6586D01*
X126048Y6635D01*
X125982Y6658D01*
X125920Y6690D01*
X125832Y6710D01*
X125747Y6739D01*
X125678Y6744D01*
X125610Y6760D01*
X125520Y6757D01*
X125430Y6764D01*
X125361Y6752D01*
X125292Y6750D01*
X125206Y6725D01*
X125117Y6710D01*
X125053Y6681D01*
X124986Y6661D01*
X124909Y6616D01*
X124827Y6579D01*
X124773Y6535D01*
X124769Y6534D01*
X124769Y7000D01*
X124754Y7118D01*
X124747Y7237D01*
X124735Y7275D01*
X124730Y7315D01*
X124686Y7426D01*
X124649Y7539D01*
X124627Y7573D01*
X124613Y7611D01*
X124543Y7707D01*
X124479Y7808D01*
X124478Y7808D01*
X124449Y7836D01*
X124426Y7868D01*
X124425Y7869D01*
X124333Y7945D01*
X124247Y8026D01*
X124211Y8046D01*
X124180Y8072D01*
X124073Y8122D01*
X123968Y8180D01*
X123929Y8190D01*
X123893Y8207D01*
X123776Y8229D01*
X123660Y8259D01*
X123600Y8263D01*
X123580Y8267D01*
X123560Y8266D01*
X123500Y8269D01*
X122478Y8269D01*
X122478Y8272D01*
X122448Y8357D01*
X122427Y8444D01*
X122394Y8506D01*
X122370Y8572D01*
X122320Y8646D01*
X122278Y8725D01*
X122231Y8777D01*
X122192Y8835D01*
X122124Y8894D01*
X122064Y8961D01*
X122006Y8999D01*
X121953Y9045D01*
X121873Y9086D01*
X121798Y9135D01*
X121732Y9158D01*
X121670Y9190D01*
X121582Y9210D01*
X121497Y9239D01*
X121428Y9244D01*
X121360Y9260D01*
X121270Y9257D01*
X121180Y9264D01*
X121111Y9252D01*
X121042Y9250D01*
X120956Y9225D01*
X120867Y9210D01*
X120803Y9181D01*
X120736Y9161D01*
X120659Y9116D01*
X120577Y9079D01*
X120523Y9035D01*
X120519Y9034D01*
X120519Y9500D01*
X120504Y9618D01*
X120497Y9737D01*
X120485Y9775D01*
X120480Y9815D01*
X120436Y9926D01*
X120399Y10039D01*
X120377Y10073D01*
X120363Y10111D01*
X120293Y10207D01*
X120229Y10308D01*
X120199Y10336D01*
X120176Y10368D01*
X120084Y10444D01*
X119997Y10526D01*
X119962Y10545D01*
X119931Y10571D01*
X119823Y10622D01*
X119719Y10679D01*
X119680Y10689D01*
X119643Y10707D01*
X119526Y10729D01*
X119411Y10759D01*
X119351Y10763D01*
X119331Y10766D01*
X119330Y10766D01*
X119310Y10765D01*
X119250Y10769D01*
X119132Y10754D01*
X119013Y10747D01*
X118974Y10734D01*
X118934Y10729D01*
X118824Y10685D01*
X118710Y10649D01*
X118676Y10627D01*
X118639Y10612D01*
X118542Y10542D01*
X118442Y10478D01*
X118414Y10449D01*
X118381Y10425D01*
X118305Y10333D01*
X118224Y10247D01*
X118204Y10211D01*
X118178Y10180D01*
X118128Y10073D01*
X118070Y9968D01*
X118060Y9929D01*
X118043Y9893D01*
X118021Y9776D01*
X117991Y9660D01*
X117987Y9600D01*
X117983Y9580D01*
X117984Y9560D01*
X117981Y9500D01*
X117981Y9013D01*
X117875Y9058D01*
X117769Y9112D01*
X117730Y9121D01*
X117693Y9137D01*
X117575Y9156D01*
X117459Y9182D01*
X117419Y9181D01*
X117379Y9187D01*
X117260Y9176D01*
X117141Y9172D01*
X117102Y9161D01*
X117062Y9157D01*
X116950Y9117D01*
X116836Y9084D01*
X116801Y9064D01*
X116763Y9050D01*
X116664Y8983D01*
X116562Y8922D01*
X116516Y8883D01*
X116500Y8871D01*
X116486Y8856D01*
X116441Y8816D01*
X115092Y7467D01*
X110172Y7467D01*
X110073Y7455D01*
X109974Y7452D01*
X109916Y7435D01*
X109856Y7427D01*
X109764Y7391D01*
X109669Y7363D01*
X109617Y7333D01*
X109560Y7310D01*
X109480Y7252D01*
X109395Y7202D01*
X109320Y7136D01*
X109303Y7124D01*
X109295Y7114D01*
X109274Y7096D01*
X108623Y6444D01*
X108562Y6366D01*
X108494Y6293D01*
X108465Y6240D01*
X108428Y6193D01*
X108388Y6102D01*
X108340Y6015D01*
X108325Y5956D01*
X108301Y5901D01*
X108286Y5803D01*
X108261Y5707D01*
X108255Y5607D01*
X108251Y5587D01*
X108253Y5574D01*
X108251Y5546D01*
X108251Y5269D01*
X107000Y5269D01*
X106882Y5254D01*
X106763Y5247D01*
X106725Y5235D01*
X106685Y5230D01*
X106574Y5186D01*
X106461Y5149D01*
X106427Y5127D01*
X106389Y5113D01*
X106293Y5043D01*
X106192Y4979D01*
X106164Y4949D01*
X106132Y4926D01*
X106056Y4834D01*
X105974Y4747D01*
X105955Y4712D01*
X105929Y4681D01*
X105878Y4573D01*
X105821Y4469D01*
X105811Y4430D01*
X105793Y4393D01*
X105771Y4276D01*
X105741Y4161D01*
X105737Y4101D01*
X105734Y4081D01*
X105734Y4080D01*
X105735Y4060D01*
X105731Y4000D01*
X105746Y3882D01*
X105753Y3763D01*
X105766Y3724D01*
X105771Y3684D01*
X105815Y3574D01*
X105851Y3460D01*
X105873Y3426D01*
X105888Y3389D01*
X105958Y3292D01*
X106022Y3192D01*
X106051Y3164D01*
X106075Y3131D01*
X106167Y3055D01*
X106253Y2974D01*
X106289Y2954D01*
X106320Y2928D01*
X106427Y2878D01*
X106532Y2820D01*
X106571Y2810D01*
X106607Y2793D01*
X106724Y2771D01*
X106840Y2741D01*
X106900Y2737D01*
X106920Y2733D01*
X106940Y2734D01*
X107000Y2731D01*
X108259Y2731D01*
X108266Y2676D01*
X108273Y2557D01*
X108286Y2519D01*
X108291Y2478D01*
X108334Y2368D01*
X108371Y2255D01*
X108393Y2220D01*
X108408Y2183D01*
X108477Y2087D01*
X108541Y1986D01*
X108571Y1958D01*
X108594Y1925D01*
X108686Y1849D01*
X108773Y1768D01*
X108808Y1748D01*
X108839Y1723D01*
X108947Y1672D01*
X109051Y1614D01*
X109091Y1604D01*
X109127Y1587D01*
X109244Y1565D01*
X109359Y1535D01*
X109419Y1531D01*
X109439Y1527D01*
X109460Y1529D01*
X109520Y1525D01*
X117463Y1525D01*
X117601Y1542D01*
G37*
%LPC*%
G36*
X123867Y51269D02*
X123867Y51269D01*
X119867Y51269D01*
X119867Y52500D01*
X119937Y52570D01*
X120022Y52680D01*
X120111Y52787D01*
X120119Y52806D01*
X120132Y52822D01*
X120187Y52949D01*
X120246Y53075D01*
X120250Y53095D01*
X120258Y53114D01*
X120280Y53251D01*
X120306Y53388D01*
X120305Y53408D01*
X120308Y53428D01*
X120295Y53566D01*
X120286Y53705D01*
X120280Y53724D01*
X120278Y53744D01*
X120231Y53875D01*
X120188Y54007D01*
X120177Y54025D01*
X120171Y54044D01*
X120093Y54159D01*
X120018Y54276D01*
X120003Y54290D01*
X119992Y54307D01*
X119906Y54383D01*
X119105Y55184D01*
X119105Y60816D01*
X119391Y61102D01*
X119464Y61197D01*
X119543Y61286D01*
X119561Y61322D01*
X119586Y61354D01*
X119633Y61463D01*
X119688Y61569D01*
X119696Y61608D01*
X119712Y61646D01*
X119731Y61763D01*
X119757Y61879D01*
X119756Y61920D01*
X119762Y61960D01*
X119751Y62078D01*
X119748Y62197D01*
X119736Y62236D01*
X119733Y62276D01*
X119692Y62388D01*
X119659Y62503D01*
X119639Y62538D01*
X119625Y62576D01*
X119558Y62674D01*
X119498Y62777D01*
X119458Y62822D01*
X119446Y62839D01*
X119431Y62852D01*
X119391Y62897D01*
X119105Y63184D01*
X119105Y68816D01*
X119391Y69102D01*
X119464Y69197D01*
X119543Y69286D01*
X119561Y69322D01*
X119586Y69354D01*
X119633Y69463D01*
X119688Y69569D01*
X119696Y69608D01*
X119712Y69646D01*
X119731Y69763D01*
X119757Y69879D01*
X119756Y69920D01*
X119762Y69960D01*
X119751Y70078D01*
X119748Y70197D01*
X119736Y70236D01*
X119733Y70276D01*
X119692Y70388D01*
X119659Y70503D01*
X119639Y70538D01*
X119625Y70576D01*
X119558Y70674D01*
X119498Y70777D01*
X119458Y70822D01*
X119446Y70839D01*
X119431Y70852D01*
X119391Y70897D01*
X119105Y71184D01*
X119105Y76816D01*
X119391Y77102D01*
X119464Y77197D01*
X119543Y77286D01*
X119561Y77322D01*
X119586Y77354D01*
X119633Y77463D01*
X119688Y77569D01*
X119696Y77608D01*
X119712Y77646D01*
X119731Y77763D01*
X119757Y77879D01*
X119756Y77920D01*
X119762Y77960D01*
X119751Y78078D01*
X119748Y78197D01*
X119736Y78236D01*
X119733Y78276D01*
X119692Y78388D01*
X119659Y78503D01*
X119639Y78538D01*
X119625Y78576D01*
X119558Y78674D01*
X119498Y78777D01*
X119458Y78822D01*
X119446Y78839D01*
X119431Y78852D01*
X119391Y78897D01*
X119105Y79184D01*
X119105Y84816D01*
X119327Y85038D01*
X119412Y85148D01*
X119501Y85255D01*
X119510Y85274D01*
X119522Y85290D01*
X119578Y85418D01*
X119637Y85543D01*
X119640Y85563D01*
X119649Y85582D01*
X119670Y85720D01*
X119696Y85856D01*
X119695Y85876D01*
X119698Y85896D01*
X119685Y86035D01*
X119677Y86173D01*
X119670Y86192D01*
X119669Y86212D01*
X119622Y86343D01*
X119579Y86475D01*
X119568Y86493D01*
X119561Y86512D01*
X119483Y86626D01*
X119408Y86744D01*
X119394Y86758D01*
X119382Y86775D01*
X119278Y86867D01*
X119177Y86962D01*
X119159Y86972D01*
X119144Y86985D01*
X119020Y87048D01*
X118898Y87116D01*
X118879Y87121D01*
X118861Y87130D01*
X118725Y87160D01*
X118590Y87195D01*
X118562Y87197D01*
X118550Y87200D01*
X118530Y87199D01*
X118430Y87205D01*
X99637Y87205D01*
X99519Y87190D01*
X99400Y87183D01*
X99362Y87170D01*
X99322Y87165D01*
X99211Y87122D01*
X99098Y87085D01*
X99064Y87063D01*
X99026Y87048D01*
X98930Y86979D01*
X98829Y86915D01*
X98801Y86885D01*
X98769Y86862D01*
X98693Y86770D01*
X98611Y86683D01*
X98592Y86648D01*
X98566Y86617D01*
X98515Y86509D01*
X98458Y86405D01*
X98448Y86365D01*
X98430Y86329D01*
X98408Y86212D01*
X98378Y86097D01*
X98374Y86037D01*
X98371Y86017D01*
X98372Y85996D01*
X98368Y85936D01*
X98368Y80539D01*
X91637Y80539D01*
X91519Y80524D01*
X91401Y80517D01*
X91362Y80504D01*
X91322Y80499D01*
X91211Y80455D01*
X91098Y80419D01*
X91064Y80397D01*
X91026Y80382D01*
X90930Y80312D01*
X90829Y80249D01*
X90802Y80219D01*
X90769Y80195D01*
X90693Y80104D01*
X90611Y80017D01*
X90592Y79982D01*
X90566Y79950D01*
X90515Y79843D01*
X90458Y79739D01*
X90448Y79699D01*
X90431Y79663D01*
X90408Y79546D01*
X90378Y79431D01*
X90375Y79370D01*
X90371Y79350D01*
X90372Y79330D01*
X90368Y79270D01*
X90368Y77999D01*
X90366Y77999D01*
X90366Y79270D01*
X90352Y79388D01*
X90344Y79507D01*
X90332Y79545D01*
X90327Y79585D01*
X90283Y79696D01*
X90246Y79809D01*
X90224Y79844D01*
X90210Y79881D01*
X90140Y79977D01*
X90076Y80078D01*
X90047Y80106D01*
X90023Y80138D01*
X89931Y80214D01*
X89844Y80296D01*
X89809Y80315D01*
X89778Y80341D01*
X89670Y80392D01*
X89566Y80449D01*
X89527Y80460D01*
X89490Y80477D01*
X89373Y80499D01*
X89258Y80529D01*
X89198Y80533D01*
X89178Y80537D01*
X89157Y80535D01*
X89097Y80539D01*
X82367Y80539D01*
X82367Y85936D01*
X82352Y86054D01*
X82344Y86173D01*
X82332Y86211D01*
X82327Y86252D01*
X82283Y86362D01*
X82246Y86475D01*
X82225Y86510D01*
X82210Y86547D01*
X82140Y86643D01*
X82076Y86744D01*
X82047Y86772D01*
X82023Y86805D01*
X81931Y86881D01*
X81844Y86962D01*
X81809Y86982D01*
X81778Y87007D01*
X81670Y87058D01*
X81566Y87116D01*
X81527Y87126D01*
X81490Y87143D01*
X81373Y87165D01*
X81258Y87195D01*
X81198Y87199D01*
X81178Y87203D01*
X81158Y87201D01*
X81097Y87205D01*
X76637Y87205D01*
X76519Y87190D01*
X76400Y87183D01*
X76362Y87170D01*
X76322Y87165D01*
X76211Y87122D01*
X76098Y87085D01*
X76064Y87063D01*
X76026Y87048D01*
X75930Y86979D01*
X75829Y86915D01*
X75801Y86885D01*
X75769Y86862D01*
X75693Y86770D01*
X75611Y86683D01*
X75592Y86648D01*
X75566Y86617D01*
X75515Y86509D01*
X75458Y86405D01*
X75448Y86365D01*
X75430Y86329D01*
X75408Y86212D01*
X75378Y86097D01*
X75374Y86037D01*
X75371Y86017D01*
X75372Y85996D01*
X75368Y85936D01*
X75368Y80539D01*
X68637Y80539D01*
X68519Y80524D01*
X68401Y80517D01*
X68362Y80504D01*
X68322Y80499D01*
X68211Y80455D01*
X68098Y80419D01*
X68064Y80397D01*
X68026Y80382D01*
X67930Y80312D01*
X67829Y80249D01*
X67802Y80219D01*
X67769Y80195D01*
X67693Y80104D01*
X67611Y80017D01*
X67592Y79982D01*
X67566Y79950D01*
X67515Y79843D01*
X67458Y79739D01*
X67448Y79699D01*
X67431Y79663D01*
X67408Y79546D01*
X67378Y79431D01*
X67375Y79370D01*
X67371Y79350D01*
X67372Y79330D01*
X67368Y79270D01*
X67368Y77999D01*
X67366Y77999D01*
X67366Y79270D01*
X67352Y79388D01*
X67344Y79507D01*
X67332Y79545D01*
X67327Y79585D01*
X67283Y79696D01*
X67246Y79809D01*
X67224Y79844D01*
X67210Y79881D01*
X67140Y79977D01*
X67076Y80078D01*
X67047Y80106D01*
X67023Y80138D01*
X66931Y80214D01*
X66844Y80296D01*
X66809Y80315D01*
X66778Y80341D01*
X66670Y80392D01*
X66566Y80449D01*
X66527Y80460D01*
X66490Y80477D01*
X66373Y80499D01*
X66258Y80529D01*
X66198Y80533D01*
X66178Y80537D01*
X66157Y80535D01*
X66097Y80539D01*
X59367Y80539D01*
X59367Y85936D01*
X59352Y86054D01*
X59344Y86173D01*
X59332Y86211D01*
X59327Y86252D01*
X59283Y86362D01*
X59246Y86475D01*
X59225Y86510D01*
X59210Y86547D01*
X59140Y86643D01*
X59076Y86744D01*
X59047Y86772D01*
X59023Y86805D01*
X58931Y86881D01*
X58844Y86962D01*
X58809Y86982D01*
X58778Y87007D01*
X58670Y87058D01*
X58566Y87116D01*
X58527Y87126D01*
X58490Y87143D01*
X58373Y87165D01*
X58258Y87195D01*
X58198Y87199D01*
X58178Y87203D01*
X58158Y87201D01*
X58097Y87205D01*
X53637Y87205D01*
X53519Y87190D01*
X53400Y87183D01*
X53362Y87170D01*
X53322Y87165D01*
X53211Y87122D01*
X53098Y87085D01*
X53064Y87063D01*
X53026Y87048D01*
X52930Y86979D01*
X52829Y86915D01*
X52801Y86885D01*
X52769Y86862D01*
X52693Y86770D01*
X52611Y86683D01*
X52592Y86648D01*
X52566Y86617D01*
X52515Y86509D01*
X52458Y86405D01*
X52448Y86365D01*
X52430Y86329D01*
X52408Y86212D01*
X52378Y86097D01*
X52374Y86037D01*
X52371Y86017D01*
X52372Y85996D01*
X52368Y85936D01*
X52368Y80539D01*
X45637Y80539D01*
X45519Y80524D01*
X45401Y80517D01*
X45362Y80504D01*
X45322Y80499D01*
X45211Y80455D01*
X45098Y80419D01*
X45064Y80397D01*
X45026Y80382D01*
X44930Y80312D01*
X44829Y80249D01*
X44802Y80219D01*
X44769Y80195D01*
X44693Y80104D01*
X44611Y80017D01*
X44592Y79982D01*
X44566Y79950D01*
X44515Y79843D01*
X44458Y79739D01*
X44448Y79699D01*
X44431Y79663D01*
X44408Y79546D01*
X44378Y79431D01*
X44375Y79370D01*
X44371Y79350D01*
X44372Y79330D01*
X44368Y79270D01*
X44368Y77999D01*
X44366Y77999D01*
X44366Y79270D01*
X44352Y79388D01*
X44344Y79507D01*
X44332Y79545D01*
X44327Y79585D01*
X44283Y79696D01*
X44246Y79809D01*
X44224Y79844D01*
X44210Y79881D01*
X44140Y79977D01*
X44076Y80078D01*
X44047Y80106D01*
X44023Y80138D01*
X43931Y80214D01*
X43844Y80296D01*
X43809Y80315D01*
X43778Y80341D01*
X43670Y80392D01*
X43566Y80449D01*
X43527Y80460D01*
X43490Y80477D01*
X43373Y80499D01*
X43258Y80529D01*
X43198Y80533D01*
X43178Y80537D01*
X43157Y80535D01*
X43097Y80539D01*
X36367Y80539D01*
X36367Y85936D01*
X36352Y86054D01*
X36344Y86173D01*
X36332Y86211D01*
X36327Y86252D01*
X36283Y86362D01*
X36246Y86475D01*
X36225Y86510D01*
X36210Y86547D01*
X36140Y86643D01*
X36076Y86744D01*
X36047Y86772D01*
X36023Y86805D01*
X35931Y86881D01*
X35844Y86962D01*
X35809Y86982D01*
X35778Y87007D01*
X35670Y87058D01*
X35566Y87116D01*
X35527Y87126D01*
X35490Y87143D01*
X35373Y87165D01*
X35258Y87195D01*
X35198Y87199D01*
X35178Y87203D01*
X35158Y87201D01*
X35097Y87205D01*
X16305Y87205D01*
X16167Y87188D01*
X16029Y87175D01*
X16010Y87168D01*
X15989Y87165D01*
X15860Y87114D01*
X15729Y87067D01*
X15713Y87056D01*
X15694Y87048D01*
X15581Y86967D01*
X15466Y86889D01*
X15453Y86873D01*
X15436Y86862D01*
X15348Y86754D01*
X15256Y86650D01*
X15247Y86632D01*
X15234Y86617D01*
X15175Y86491D01*
X15111Y86367D01*
X15107Y86347D01*
X15098Y86329D01*
X15072Y86193D01*
X15041Y86057D01*
X15042Y86036D01*
X15038Y86017D01*
X15047Y85878D01*
X15051Y85739D01*
X15057Y85719D01*
X15058Y85699D01*
X15101Y85566D01*
X15140Y85433D01*
X15150Y85416D01*
X15156Y85397D01*
X15230Y85279D01*
X15301Y85159D01*
X15320Y85138D01*
X15326Y85128D01*
X15341Y85114D01*
X15407Y85038D01*
X15630Y84816D01*
X15630Y79184D01*
X14888Y78442D01*
X14857Y78421D01*
X14843Y78405D01*
X14827Y78394D01*
X14738Y78286D01*
X14646Y78182D01*
X14637Y78164D01*
X14624Y78149D01*
X14565Y78023D01*
X14501Y77899D01*
X14497Y77879D01*
X14488Y77861D01*
X14462Y77724D01*
X14432Y77589D01*
X14432Y77568D01*
X14429Y77549D01*
X14437Y77410D01*
X14442Y77271D01*
X14447Y77251D01*
X14448Y77231D01*
X14491Y77099D01*
X14530Y76965D01*
X14540Y76948D01*
X14546Y76929D01*
X14621Y76811D01*
X14691Y76691D01*
X14710Y76670D01*
X14717Y76660D01*
X14732Y76646D01*
X14798Y76570D01*
X14868Y76500D01*
X14868Y75269D01*
X10868Y75269D01*
X10867Y75269D01*
X6867Y75269D01*
X6867Y76500D01*
X6937Y76570D01*
X7022Y76680D01*
X7111Y76787D01*
X7119Y76806D01*
X7132Y76822D01*
X7187Y76949D01*
X7246Y77075D01*
X7250Y77095D01*
X7258Y77114D01*
X7280Y77251D01*
X7306Y77388D01*
X7305Y77408D01*
X7308Y77428D01*
X7295Y77566D01*
X7286Y77705D01*
X7280Y77724D01*
X7278Y77744D01*
X7231Y77875D01*
X7188Y78007D01*
X7177Y78025D01*
X7171Y78044D01*
X7093Y78159D01*
X7018Y78276D01*
X7003Y78290D01*
X6992Y78307D01*
X6906Y78383D01*
X6105Y79184D01*
X6105Y84816D01*
X6391Y85103D01*
X6464Y85197D01*
X6543Y85286D01*
X6561Y85322D01*
X6586Y85354D01*
X6634Y85463D01*
X6688Y85569D01*
X6696Y85608D01*
X6712Y85646D01*
X6731Y85763D01*
X6757Y85879D01*
X6756Y85920D01*
X6762Y85960D01*
X6751Y86078D01*
X6748Y86197D01*
X6736Y86236D01*
X6733Y86276D01*
X6692Y86388D01*
X6659Y86503D01*
X6639Y86538D01*
X6625Y86576D01*
X6558Y86674D01*
X6498Y86777D01*
X6458Y86822D01*
X6446Y86839D01*
X6431Y86852D01*
X6391Y86898D01*
X6105Y87184D01*
X6105Y92816D01*
X6391Y93103D01*
X6464Y93197D01*
X6543Y93286D01*
X6561Y93322D01*
X6586Y93354D01*
X6634Y93463D01*
X6688Y93569D01*
X6696Y93608D01*
X6712Y93646D01*
X6731Y93763D01*
X6757Y93879D01*
X6756Y93920D01*
X6762Y93960D01*
X6751Y94078D01*
X6748Y94197D01*
X6736Y94236D01*
X6733Y94276D01*
X6692Y94388D01*
X6659Y94503D01*
X6639Y94538D01*
X6625Y94576D01*
X6558Y94674D01*
X6498Y94777D01*
X6458Y94822D01*
X6446Y94839D01*
X6431Y94852D01*
X6391Y94898D01*
X6105Y95184D01*
X6105Y100816D01*
X6847Y101558D01*
X6878Y101579D01*
X6892Y101595D01*
X6908Y101606D01*
X6997Y101714D01*
X7089Y101818D01*
X7098Y101836D01*
X7111Y101851D01*
X7170Y101977D01*
X7233Y102101D01*
X7238Y102121D01*
X7246Y102139D01*
X7272Y102276D01*
X7303Y102411D01*
X7302Y102432D01*
X7306Y102451D01*
X7297Y102590D01*
X7293Y102729D01*
X7288Y102749D01*
X7286Y102769D01*
X7243Y102901D01*
X7205Y103035D01*
X7194Y103052D01*
X7188Y103071D01*
X7114Y103189D01*
X7043Y103309D01*
X7025Y103330D01*
X7018Y103340D01*
X7003Y103354D01*
X6937Y103430D01*
X6867Y103500D01*
X6867Y104731D01*
X10867Y104731D01*
X10868Y104731D01*
X14868Y104731D01*
X14868Y103500D01*
X14798Y103430D01*
X14713Y103320D01*
X14624Y103213D01*
X14615Y103194D01*
X14603Y103178D01*
X14548Y103051D01*
X14488Y102925D01*
X14485Y102905D01*
X14477Y102886D01*
X14455Y102749D01*
X14429Y102612D01*
X14430Y102592D01*
X14427Y102572D01*
X14440Y102434D01*
X14448Y102295D01*
X14455Y102276D01*
X14457Y102256D01*
X14504Y102125D01*
X14546Y101993D01*
X14557Y101975D01*
X14564Y101956D01*
X14642Y101841D01*
X14717Y101724D01*
X14731Y101710D01*
X14743Y101693D01*
X14829Y101617D01*
X15630Y100816D01*
X15630Y95184D01*
X15407Y94962D01*
X15322Y94852D01*
X15234Y94745D01*
X15225Y94726D01*
X15213Y94710D01*
X15157Y94582D01*
X15098Y94457D01*
X15094Y94437D01*
X15086Y94418D01*
X15064Y94280D01*
X15038Y94144D01*
X15040Y94124D01*
X15036Y94104D01*
X15049Y93965D01*
X15058Y93827D01*
X15064Y93808D01*
X15066Y93788D01*
X15113Y93657D01*
X15156Y93525D01*
X15167Y93507D01*
X15174Y93488D01*
X15252Y93374D01*
X15326Y93256D01*
X15341Y93242D01*
X15352Y93225D01*
X15456Y93133D01*
X15558Y93038D01*
X15576Y93028D01*
X15591Y93015D01*
X15715Y92952D01*
X15836Y92884D01*
X15856Y92879D01*
X15874Y92870D01*
X16010Y92840D01*
X16144Y92805D01*
X16172Y92803D01*
X16184Y92800D01*
X16205Y92801D01*
X16305Y92795D01*
X35097Y92795D01*
X35216Y92810D01*
X35334Y92817D01*
X35373Y92830D01*
X35413Y92835D01*
X35524Y92878D01*
X35637Y92915D01*
X35671Y92937D01*
X35709Y92952D01*
X35805Y93021D01*
X35905Y93085D01*
X35933Y93115D01*
X35966Y93138D01*
X36042Y93230D01*
X36123Y93317D01*
X36143Y93352D01*
X36169Y93383D01*
X36219Y93491D01*
X36277Y93595D01*
X36287Y93635D01*
X36304Y93671D01*
X36327Y93788D01*
X36356Y93903D01*
X36360Y93963D01*
X36364Y93983D01*
X36363Y94004D01*
X36367Y94064D01*
X36367Y98461D01*
X43097Y98461D01*
X43215Y98476D01*
X43334Y98483D01*
X43373Y98496D01*
X43413Y98501D01*
X43524Y98544D01*
X43637Y98581D01*
X43671Y98603D01*
X43708Y98618D01*
X43805Y98688D01*
X43905Y98751D01*
X43933Y98781D01*
X43966Y98805D01*
X44042Y98896D01*
X44123Y98983D01*
X44143Y99018D01*
X44169Y99049D01*
X44219Y99157D01*
X44277Y99261D01*
X44287Y99301D01*
X44304Y99337D01*
X44326Y99454D01*
X44356Y99569D01*
X44360Y99630D01*
X44364Y99650D01*
X44363Y99670D01*
X44366Y99730D01*
X44366Y101001D01*
X44368Y101001D01*
X44368Y99730D01*
X44383Y99611D01*
X44391Y99493D01*
X44403Y99455D01*
X44408Y99415D01*
X44452Y99304D01*
X44489Y99191D01*
X44510Y99156D01*
X44525Y99119D01*
X44595Y99023D01*
X44659Y98922D01*
X44688Y98894D01*
X44712Y98861D01*
X44804Y98786D01*
X44890Y98704D01*
X44926Y98684D01*
X44957Y98659D01*
X45065Y98608D01*
X45169Y98550D01*
X45208Y98540D01*
X45245Y98523D01*
X45361Y98501D01*
X45477Y98471D01*
X45537Y98467D01*
X45557Y98463D01*
X45577Y98465D01*
X45637Y98461D01*
X52368Y98461D01*
X52368Y94064D01*
X52383Y93946D01*
X52390Y93827D01*
X52403Y93789D01*
X52408Y93748D01*
X52452Y93638D01*
X52488Y93525D01*
X52510Y93490D01*
X52525Y93453D01*
X52595Y93357D01*
X52659Y93256D01*
X52688Y93228D01*
X52712Y93195D01*
X52804Y93119D01*
X52890Y93038D01*
X52926Y93018D01*
X52957Y92993D01*
X53064Y92942D01*
X53169Y92884D01*
X53208Y92874D01*
X53244Y92857D01*
X53361Y92835D01*
X53477Y92805D01*
X53537Y92801D01*
X53557Y92797D01*
X53577Y92799D01*
X53637Y92795D01*
X58097Y92795D01*
X58216Y92810D01*
X58334Y92817D01*
X58373Y92830D01*
X58413Y92835D01*
X58524Y92878D01*
X58637Y92915D01*
X58671Y92937D01*
X58709Y92952D01*
X58805Y93021D01*
X58905Y93085D01*
X58933Y93115D01*
X58966Y93138D01*
X59042Y93230D01*
X59123Y93317D01*
X59143Y93352D01*
X59169Y93383D01*
X59219Y93491D01*
X59277Y93595D01*
X59287Y93635D01*
X59304Y93671D01*
X59327Y93788D01*
X59356Y93903D01*
X59360Y93963D01*
X59364Y93983D01*
X59363Y94004D01*
X59367Y94064D01*
X59367Y98461D01*
X66097Y98461D01*
X66215Y98476D01*
X66334Y98483D01*
X66373Y98496D01*
X66413Y98501D01*
X66524Y98544D01*
X66637Y98581D01*
X66671Y98603D01*
X66708Y98618D01*
X66805Y98688D01*
X66905Y98751D01*
X66933Y98781D01*
X66966Y98805D01*
X67042Y98896D01*
X67123Y98983D01*
X67143Y99018D01*
X67169Y99049D01*
X67219Y99157D01*
X67277Y99261D01*
X67287Y99301D01*
X67304Y99337D01*
X67326Y99454D01*
X67356Y99569D01*
X67360Y99630D01*
X67364Y99650D01*
X67363Y99670D01*
X67366Y99730D01*
X67366Y101001D01*
X67368Y101001D01*
X67368Y99730D01*
X67383Y99611D01*
X67391Y99493D01*
X67403Y99455D01*
X67408Y99415D01*
X67452Y99304D01*
X67489Y99191D01*
X67510Y99156D01*
X67525Y99119D01*
X67595Y99023D01*
X67659Y98922D01*
X67688Y98894D01*
X67712Y98861D01*
X67804Y98786D01*
X67890Y98704D01*
X67926Y98684D01*
X67957Y98659D01*
X68065Y98608D01*
X68169Y98550D01*
X68208Y98540D01*
X68245Y98523D01*
X68361Y98501D01*
X68477Y98471D01*
X68537Y98467D01*
X68557Y98463D01*
X68577Y98465D01*
X68637Y98461D01*
X75368Y98461D01*
X75368Y94064D01*
X75383Y93946D01*
X75390Y93827D01*
X75403Y93789D01*
X75408Y93748D01*
X75452Y93638D01*
X75488Y93525D01*
X75510Y93490D01*
X75525Y93453D01*
X75595Y93357D01*
X75659Y93256D01*
X75688Y93228D01*
X75712Y93195D01*
X75804Y93119D01*
X75890Y93038D01*
X75926Y93018D01*
X75957Y92993D01*
X76064Y92942D01*
X76169Y92884D01*
X76208Y92874D01*
X76244Y92857D01*
X76361Y92835D01*
X76477Y92805D01*
X76537Y92801D01*
X76557Y92797D01*
X76577Y92799D01*
X76637Y92795D01*
X81097Y92795D01*
X81216Y92810D01*
X81334Y92817D01*
X81373Y92830D01*
X81413Y92835D01*
X81524Y92878D01*
X81637Y92915D01*
X81671Y92937D01*
X81709Y92952D01*
X81805Y93021D01*
X81905Y93085D01*
X81933Y93115D01*
X81966Y93138D01*
X82042Y93230D01*
X82123Y93317D01*
X82143Y93352D01*
X82169Y93383D01*
X82219Y93491D01*
X82277Y93595D01*
X82287Y93635D01*
X82304Y93671D01*
X82327Y93788D01*
X82356Y93903D01*
X82360Y93963D01*
X82364Y93983D01*
X82363Y94004D01*
X82367Y94064D01*
X82367Y98461D01*
X89097Y98461D01*
X89215Y98476D01*
X89334Y98483D01*
X89373Y98496D01*
X89413Y98501D01*
X89524Y98544D01*
X89637Y98581D01*
X89671Y98603D01*
X89708Y98618D01*
X89805Y98688D01*
X89905Y98751D01*
X89933Y98781D01*
X89966Y98805D01*
X90042Y98896D01*
X90123Y98983D01*
X90143Y99018D01*
X90169Y99049D01*
X90219Y99157D01*
X90277Y99261D01*
X90287Y99301D01*
X90304Y99337D01*
X90326Y99454D01*
X90356Y99569D01*
X90360Y99630D01*
X90364Y99650D01*
X90363Y99670D01*
X90366Y99730D01*
X90366Y101001D01*
X90368Y101001D01*
X90368Y99730D01*
X90383Y99611D01*
X90391Y99493D01*
X90403Y99455D01*
X90408Y99415D01*
X90452Y99304D01*
X90489Y99191D01*
X90510Y99156D01*
X90525Y99119D01*
X90595Y99023D01*
X90659Y98922D01*
X90688Y98894D01*
X90712Y98861D01*
X90804Y98786D01*
X90890Y98704D01*
X90926Y98684D01*
X90957Y98659D01*
X91065Y98608D01*
X91169Y98550D01*
X91208Y98540D01*
X91245Y98523D01*
X91361Y98501D01*
X91477Y98471D01*
X91537Y98467D01*
X91557Y98463D01*
X91577Y98465D01*
X91637Y98461D01*
X98368Y98461D01*
X98368Y94064D01*
X98383Y93946D01*
X98390Y93827D01*
X98403Y93789D01*
X98408Y93748D01*
X98452Y93638D01*
X98488Y93525D01*
X98510Y93490D01*
X98525Y93453D01*
X98595Y93357D01*
X98659Y93256D01*
X98688Y93228D01*
X98712Y93195D01*
X98804Y93119D01*
X98890Y93038D01*
X98926Y93018D01*
X98957Y92993D01*
X99064Y92942D01*
X99169Y92884D01*
X99208Y92874D01*
X99244Y92857D01*
X99361Y92835D01*
X99477Y92805D01*
X99537Y92801D01*
X99557Y92797D01*
X99577Y92799D01*
X99637Y92795D01*
X118430Y92795D01*
X118568Y92812D01*
X118706Y92825D01*
X118725Y92832D01*
X118745Y92835D01*
X118875Y92886D01*
X119005Y92933D01*
X119022Y92944D01*
X119041Y92952D01*
X119154Y93033D01*
X119269Y93111D01*
X119282Y93127D01*
X119298Y93138D01*
X119387Y93246D01*
X119479Y93350D01*
X119488Y93368D01*
X119501Y93383D01*
X119560Y93509D01*
X119624Y93633D01*
X119628Y93653D01*
X119637Y93671D01*
X119663Y93807D01*
X119693Y93943D01*
X119693Y93964D01*
X119696Y93983D01*
X119688Y94122D01*
X119684Y94261D01*
X119678Y94281D01*
X119677Y94301D01*
X119634Y94433D01*
X119595Y94567D01*
X119585Y94584D01*
X119579Y94603D01*
X119504Y94721D01*
X119434Y94841D01*
X119415Y94862D01*
X119408Y94872D01*
X119394Y94886D01*
X119327Y94962D01*
X119105Y95184D01*
X119105Y98823D01*
X119087Y98961D01*
X119074Y99100D01*
X119067Y99119D01*
X119065Y99139D01*
X119014Y99268D01*
X118967Y99399D01*
X118955Y99416D01*
X118948Y99435D01*
X118866Y99547D01*
X118788Y99662D01*
X118773Y99676D01*
X118761Y99692D01*
X118654Y99781D01*
X118550Y99873D01*
X118532Y99882D01*
X118516Y99895D01*
X118390Y99954D01*
X118266Y100017D01*
X118246Y100022D01*
X118228Y100030D01*
X118092Y100056D01*
X117956Y100087D01*
X117936Y100086D01*
X117916Y100090D01*
X117777Y100081D01*
X117638Y100077D01*
X117619Y100072D01*
X117598Y100070D01*
X117467Y100028D01*
X117333Y99989D01*
X117315Y99979D01*
X117296Y99972D01*
X117179Y99898D01*
X117059Y99827D01*
X117038Y99809D01*
X117027Y99802D01*
X117013Y99787D01*
X116938Y99721D01*
X116442Y99225D01*
X114558Y99225D01*
X113225Y100558D01*
X113225Y102442D01*
X114624Y103841D01*
X114649Y103851D01*
X114744Y103879D01*
X114797Y103909D01*
X114853Y103932D01*
X114933Y103990D01*
X115018Y104040D01*
X115094Y104106D01*
X115110Y104118D01*
X115118Y104128D01*
X115139Y104146D01*
X116551Y105559D01*
X116636Y105668D01*
X116725Y105775D01*
X116734Y105794D01*
X116746Y105810D01*
X116801Y105937D01*
X116861Y106063D01*
X116864Y106083D01*
X116872Y106102D01*
X116894Y106240D01*
X116920Y106376D01*
X116919Y106396D01*
X116922Y106416D01*
X116909Y106555D01*
X116901Y106693D01*
X116894Y106712D01*
X116892Y106732D01*
X116845Y106864D01*
X116803Y106995D01*
X116792Y107013D01*
X116785Y107032D01*
X116707Y107147D01*
X116632Y107264D01*
X116618Y107278D01*
X116606Y107295D01*
X116502Y107387D01*
X116401Y107482D01*
X116383Y107492D01*
X116368Y107505D01*
X116244Y107569D01*
X116122Y107636D01*
X116103Y107641D01*
X116085Y107650D01*
X115949Y107680D01*
X115814Y107715D01*
X115786Y107717D01*
X115774Y107720D01*
X115754Y107719D01*
X115654Y107725D01*
X114558Y107725D01*
X113225Y109058D01*
X113225Y110965D01*
X113253Y111016D01*
X113290Y111064D01*
X113330Y111155D01*
X113378Y111241D01*
X113393Y111300D01*
X113417Y111356D01*
X113432Y111454D01*
X113457Y111549D01*
X113463Y111649D01*
X113467Y111670D01*
X113465Y111682D01*
X113467Y111710D01*
X113467Y112475D01*
X114551Y113559D01*
X114636Y113668D01*
X114725Y113775D01*
X114734Y113794D01*
X114746Y113810D01*
X114801Y113937D01*
X114861Y114063D01*
X114864Y114083D01*
X114872Y114102D01*
X114894Y114240D01*
X114920Y114376D01*
X114919Y114396D01*
X114922Y114416D01*
X114909Y114555D01*
X114901Y114693D01*
X114894Y114712D01*
X114892Y114732D01*
X114845Y114864D01*
X114803Y114995D01*
X114792Y115013D01*
X114785Y115032D01*
X114707Y115147D01*
X114632Y115264D01*
X114618Y115278D01*
X114606Y115295D01*
X114502Y115387D01*
X114401Y115482D01*
X114383Y115492D01*
X114368Y115505D01*
X114244Y115569D01*
X114178Y115605D01*
X112725Y117058D01*
X112725Y118942D01*
X114074Y120291D01*
X114130Y120307D01*
X114190Y120315D01*
X114282Y120351D01*
X114377Y120379D01*
X114429Y120409D01*
X114485Y120432D01*
X114566Y120490D01*
X114651Y120540D01*
X114726Y120606D01*
X114743Y120618D01*
X114751Y120628D01*
X114772Y120646D01*
X116658Y122533D01*
X117835Y122533D01*
X117954Y122548D01*
X118072Y122555D01*
X118111Y122568D01*
X118151Y122573D01*
X118262Y122616D01*
X118375Y122653D01*
X118409Y122675D01*
X118447Y122690D01*
X118543Y122759D01*
X118643Y122823D01*
X118671Y122853D01*
X118704Y122876D01*
X118780Y122968D01*
X118861Y123055D01*
X118881Y123090D01*
X118907Y123121D01*
X118957Y123229D01*
X119015Y123333D01*
X119025Y123373D01*
X119042Y123409D01*
X119065Y123526D01*
X119094Y123641D01*
X119098Y123701D01*
X119102Y123721D01*
X119101Y123742D01*
X119105Y123802D01*
X119105Y124816D01*
X119551Y125263D01*
X128183Y125263D01*
X128630Y124816D01*
X128630Y119184D01*
X128343Y118897D01*
X128270Y118803D01*
X128192Y118714D01*
X128173Y118678D01*
X128149Y118646D01*
X128101Y118537D01*
X128047Y118431D01*
X128038Y118392D01*
X128022Y118354D01*
X128004Y118237D01*
X127977Y118121D01*
X127979Y118080D01*
X127972Y118040D01*
X127984Y117922D01*
X127987Y117803D01*
X127998Y117764D01*
X128002Y117724D01*
X128042Y117612D01*
X128076Y117497D01*
X128096Y117462D01*
X128110Y117424D01*
X128177Y117326D01*
X128237Y117223D01*
X128277Y117178D01*
X128288Y117161D01*
X128304Y117148D01*
X128344Y117102D01*
X128630Y116816D01*
X128630Y111184D01*
X128343Y110897D01*
X128270Y110803D01*
X128192Y110714D01*
X128173Y110678D01*
X128149Y110646D01*
X128101Y110537D01*
X128047Y110431D01*
X128038Y110392D01*
X128022Y110354D01*
X128004Y110237D01*
X127977Y110121D01*
X127979Y110080D01*
X127972Y110040D01*
X127984Y109922D01*
X127987Y109803D01*
X127998Y109764D01*
X128002Y109724D01*
X128042Y109612D01*
X128076Y109497D01*
X128096Y109462D01*
X128110Y109424D01*
X128177Y109326D01*
X128237Y109223D01*
X128277Y109178D01*
X128288Y109161D01*
X128304Y109148D01*
X128344Y109102D01*
X128630Y108816D01*
X128630Y103184D01*
X128343Y102897D01*
X128270Y102803D01*
X128192Y102714D01*
X128173Y102678D01*
X128149Y102646D01*
X128101Y102537D01*
X128047Y102431D01*
X128038Y102392D01*
X128022Y102354D01*
X128004Y102237D01*
X127977Y102121D01*
X127979Y102080D01*
X127972Y102040D01*
X127984Y101922D01*
X127987Y101803D01*
X127998Y101764D01*
X128002Y101724D01*
X128042Y101612D01*
X128076Y101497D01*
X128096Y101462D01*
X128110Y101424D01*
X128177Y101326D01*
X128237Y101223D01*
X128277Y101178D01*
X128288Y101161D01*
X128304Y101148D01*
X128344Y101102D01*
X128630Y100816D01*
X128630Y95184D01*
X128343Y94897D01*
X128270Y94803D01*
X128192Y94714D01*
X128173Y94678D01*
X128149Y94646D01*
X128101Y94537D01*
X128047Y94431D01*
X128038Y94392D01*
X128022Y94354D01*
X128004Y94237D01*
X127977Y94121D01*
X127979Y94080D01*
X127972Y94040D01*
X127984Y93922D01*
X127987Y93803D01*
X127998Y93764D01*
X128002Y93724D01*
X128042Y93612D01*
X128076Y93497D01*
X128096Y93462D01*
X128110Y93424D01*
X128177Y93326D01*
X128237Y93223D01*
X128277Y93178D01*
X128288Y93161D01*
X128304Y93148D01*
X128344Y93102D01*
X128630Y92816D01*
X128630Y87184D01*
X128343Y86897D01*
X128270Y86803D01*
X128192Y86714D01*
X128173Y86678D01*
X128149Y86646D01*
X128101Y86537D01*
X128047Y86431D01*
X128038Y86392D01*
X128022Y86354D01*
X128004Y86237D01*
X127977Y86121D01*
X127979Y86080D01*
X127972Y86040D01*
X127984Y85922D01*
X127987Y85803D01*
X127998Y85764D01*
X128002Y85724D01*
X128042Y85612D01*
X128076Y85497D01*
X128096Y85462D01*
X128110Y85424D01*
X128177Y85326D01*
X128237Y85223D01*
X128277Y85178D01*
X128288Y85161D01*
X128304Y85148D01*
X128344Y85102D01*
X128630Y84816D01*
X128630Y79184D01*
X128343Y78897D01*
X128270Y78803D01*
X128192Y78714D01*
X128173Y78678D01*
X128149Y78646D01*
X128101Y78537D01*
X128047Y78431D01*
X128038Y78392D01*
X128022Y78354D01*
X128004Y78237D01*
X127977Y78121D01*
X127979Y78080D01*
X127972Y78040D01*
X127984Y77921D01*
X127987Y77803D01*
X127998Y77764D01*
X128002Y77724D01*
X128042Y77612D01*
X128076Y77497D01*
X128096Y77462D01*
X128110Y77424D01*
X128177Y77326D01*
X128237Y77223D01*
X128277Y77178D01*
X128288Y77161D01*
X128304Y77148D01*
X128344Y77102D01*
X128630Y76816D01*
X128630Y71184D01*
X128343Y70897D01*
X128270Y70803D01*
X128192Y70714D01*
X128173Y70678D01*
X128149Y70646D01*
X128101Y70537D01*
X128047Y70431D01*
X128038Y70392D01*
X128022Y70354D01*
X128004Y70237D01*
X127977Y70121D01*
X127979Y70080D01*
X127972Y70040D01*
X127984Y69922D01*
X127987Y69803D01*
X127998Y69764D01*
X128002Y69724D01*
X128042Y69612D01*
X128076Y69497D01*
X128096Y69462D01*
X128110Y69424D01*
X128177Y69326D01*
X128237Y69223D01*
X128277Y69178D01*
X128288Y69161D01*
X128304Y69148D01*
X128344Y69102D01*
X128630Y68816D01*
X128630Y63184D01*
X128343Y62897D01*
X128270Y62803D01*
X128192Y62714D01*
X128173Y62678D01*
X128149Y62646D01*
X128101Y62537D01*
X128047Y62431D01*
X128038Y62392D01*
X128022Y62354D01*
X128004Y62237D01*
X127977Y62121D01*
X127979Y62080D01*
X127972Y62040D01*
X127984Y61922D01*
X127987Y61803D01*
X127998Y61764D01*
X128002Y61724D01*
X128042Y61612D01*
X128076Y61497D01*
X128096Y61462D01*
X128110Y61424D01*
X128177Y61326D01*
X128237Y61223D01*
X128277Y61178D01*
X128288Y61161D01*
X128304Y61148D01*
X128344Y61102D01*
X128630Y60816D01*
X128630Y55184D01*
X127888Y54442D01*
X127857Y54421D01*
X127843Y54405D01*
X127827Y54394D01*
X127738Y54286D01*
X127646Y54182D01*
X127637Y54164D01*
X127624Y54149D01*
X127565Y54023D01*
X127501Y53899D01*
X127497Y53879D01*
X127488Y53861D01*
X127462Y53724D01*
X127432Y53589D01*
X127432Y53568D01*
X127429Y53549D01*
X127437Y53410D01*
X127442Y53271D01*
X127447Y53251D01*
X127448Y53231D01*
X127491Y53099D01*
X127530Y52965D01*
X127540Y52948D01*
X127546Y52929D01*
X127621Y52811D01*
X127691Y52691D01*
X127710Y52670D01*
X127717Y52660D01*
X127732Y52646D01*
X127798Y52570D01*
X127868Y52500D01*
X127868Y51269D01*
X123868Y51269D01*
X123867Y51269D01*
X123867Y51269D01*
G37*
%LPD*%
G36*
X236808Y95604D02*
X236808Y95604D01*
X236927Y95611D01*
X236965Y95624D01*
X237006Y95629D01*
X237116Y95672D01*
X237229Y95709D01*
X237264Y95731D01*
X237301Y95746D01*
X237397Y95815D01*
X237498Y95879D01*
X237526Y95909D01*
X237559Y95932D01*
X237635Y96024D01*
X237716Y96111D01*
X237736Y96146D01*
X237761Y96177D01*
X237812Y96285D01*
X237870Y96389D01*
X237880Y96429D01*
X237897Y96465D01*
X237919Y96582D01*
X237949Y96697D01*
X237953Y96757D01*
X237957Y96777D01*
X237955Y96798D01*
X237959Y96858D01*
X237959Y97232D01*
X240268Y99541D01*
X280206Y99541D01*
X280324Y99556D01*
X280443Y99563D01*
X280481Y99576D01*
X280522Y99581D01*
X280632Y99624D01*
X280745Y99661D01*
X280780Y99683D01*
X280817Y99698D01*
X280913Y99767D01*
X281014Y99831D01*
X281042Y99861D01*
X281075Y99884D01*
X281151Y99976D01*
X281232Y100063D01*
X281252Y100098D01*
X281277Y100129D01*
X281328Y100237D01*
X281386Y100341D01*
X281396Y100381D01*
X281413Y100417D01*
X281435Y100534D01*
X281465Y100649D01*
X281469Y100709D01*
X281473Y100729D01*
X281471Y100750D01*
X281475Y100810D01*
X281475Y105000D01*
X281473Y105020D01*
X281469Y105124D01*
X281331Y106530D01*
X281307Y106634D01*
X281292Y106739D01*
X281265Y106819D01*
X281260Y106840D01*
X281253Y106854D01*
X281240Y106892D01*
X280164Y109489D01*
X280160Y109497D01*
X280157Y109506D01*
X280081Y109635D01*
X280007Y109765D01*
X280000Y109772D01*
X279995Y109780D01*
X279889Y109901D01*
X277901Y111889D01*
X277894Y111895D01*
X277888Y111902D01*
X277768Y111992D01*
X277650Y112084D01*
X277641Y112088D01*
X277634Y112093D01*
X277489Y112164D01*
X274892Y113240D01*
X274789Y113268D01*
X274689Y113305D01*
X274606Y113318D01*
X274585Y113324D01*
X274569Y113324D01*
X274530Y113331D01*
X273124Y113469D01*
X273105Y113469D01*
X273000Y113475D01*
X246708Y113475D01*
X242472Y115230D01*
X239230Y118472D01*
X237475Y122708D01*
X237475Y130000D01*
X237473Y130020D01*
X237469Y130124D01*
X237331Y131530D01*
X237307Y131634D01*
X237292Y131739D01*
X237265Y131819D01*
X237260Y131840D01*
X237253Y131854D01*
X237240Y131892D01*
X236164Y134489D01*
X236160Y134497D01*
X236157Y134506D01*
X236081Y134635D01*
X236007Y134765D01*
X236000Y134772D01*
X235995Y134780D01*
X235889Y134901D01*
X233901Y136889D01*
X233894Y136895D01*
X233888Y136902D01*
X233768Y136992D01*
X233650Y137084D01*
X233641Y137088D01*
X233634Y137093D01*
X233489Y137164D01*
X233298Y137243D01*
X233296Y137244D01*
X233294Y137245D01*
X233269Y137251D01*
X233237Y137260D01*
X233180Y137286D01*
X233084Y137302D01*
X232992Y137327D01*
X232928Y137328D01*
X232866Y137339D01*
X232770Y137331D01*
X232674Y137332D01*
X232612Y137318D01*
X232549Y137312D01*
X232458Y137281D01*
X232364Y137258D01*
X232308Y137229D01*
X232249Y137208D01*
X232168Y137155D01*
X232083Y137110D01*
X232036Y137067D01*
X231984Y137032D01*
X231919Y136961D01*
X231848Y136896D01*
X231813Y136843D01*
X231771Y136796D01*
X231745Y136747D01*
X231744Y136746D01*
X231742Y136742D01*
X231726Y136711D01*
X231673Y136630D01*
X231652Y136570D01*
X231623Y136514D01*
X231611Y136463D01*
X231609Y136458D01*
X231603Y136431D01*
X231601Y136421D01*
X231570Y136329D01*
X231565Y136266D01*
X231550Y136205D01*
X231551Y136157D01*
X231549Y136146D01*
X231552Y136102D01*
X231544Y136012D01*
X231555Y135950D01*
X231557Y135887D01*
X231567Y135847D01*
X231569Y135828D01*
X231585Y135777D01*
X231599Y135699D01*
X231625Y135641D01*
X231642Y135580D01*
X231663Y135538D01*
X231667Y135526D01*
X231676Y135511D01*
X231713Y135436D01*
X232228Y134544D01*
X232501Y133527D01*
X232501Y132999D01*
X229230Y132999D01*
X229112Y132984D01*
X228993Y132977D01*
X228955Y132964D01*
X228915Y132959D01*
X228804Y132916D01*
X228691Y132879D01*
X228657Y132857D01*
X228619Y132842D01*
X228523Y132773D01*
X228422Y132709D01*
X228394Y132679D01*
X228362Y132656D01*
X228286Y132564D01*
X228204Y132477D01*
X228185Y132442D01*
X228159Y132411D01*
X228108Y132303D01*
X228051Y132199D01*
X228041Y132159D01*
X228023Y132123D01*
X228001Y132006D01*
X227971Y131891D01*
X227967Y131831D01*
X227964Y131811D01*
X227965Y131790D01*
X227961Y131730D01*
X227961Y131539D01*
X227770Y131539D01*
X227652Y131524D01*
X227533Y131517D01*
X227495Y131504D01*
X227454Y131499D01*
X227344Y131455D01*
X227231Y131419D01*
X227196Y131397D01*
X227159Y131382D01*
X227062Y131312D01*
X226962Y131249D01*
X226934Y131219D01*
X226901Y131195D01*
X226825Y131104D01*
X226744Y131017D01*
X226724Y130982D01*
X226699Y130950D01*
X226648Y130843D01*
X226590Y130738D01*
X226580Y130699D01*
X226563Y130663D01*
X226541Y130546D01*
X226511Y130430D01*
X226507Y130370D01*
X226503Y130350D01*
X226505Y130330D01*
X226501Y130270D01*
X226501Y125535D01*
X226043Y125799D01*
X225414Y126428D01*
X225375Y126459D01*
X225341Y126495D01*
X225250Y126556D01*
X225163Y126623D01*
X225117Y126643D01*
X225076Y126670D01*
X224972Y126706D01*
X224871Y126749D01*
X224822Y126757D01*
X224775Y126773D01*
X224666Y126782D01*
X224557Y126799D01*
X224507Y126795D01*
X224458Y126799D01*
X224350Y126780D01*
X224240Y126770D01*
X224193Y126753D01*
X224144Y126744D01*
X224044Y126699D01*
X223941Y126662D01*
X223900Y126634D01*
X223854Y126614D01*
X223769Y126545D01*
X223678Y126483D01*
X223645Y126446D01*
X223606Y126415D01*
X223540Y126327D01*
X223467Y126245D01*
X223445Y126201D01*
X223415Y126161D01*
X223344Y126016D01*
X223185Y125634D01*
X223183Y125625D01*
X223178Y125617D01*
X223141Y125472D01*
X223101Y125327D01*
X223101Y125318D01*
X223099Y125309D01*
X223089Y125148D01*
X223089Y107107D01*
X223091Y107085D01*
X223093Y107007D01*
X223219Y105404D01*
X223233Y105337D01*
X223237Y105268D01*
X223277Y105112D01*
X224268Y102062D01*
X224318Y101955D01*
X224362Y101844D01*
X224395Y101793D01*
X224403Y101774D01*
X224416Y101758D01*
X224448Y101708D01*
X226333Y99114D01*
X226414Y99027D01*
X226490Y98936D01*
X226537Y98897D01*
X226551Y98882D01*
X226568Y98871D01*
X226614Y98833D01*
X229208Y96948D01*
X229312Y96891D01*
X229412Y96827D01*
X229469Y96805D01*
X229487Y96795D01*
X229506Y96790D01*
X229562Y96768D01*
X232612Y95777D01*
X232679Y95764D01*
X232745Y95742D01*
X232904Y95719D01*
X234508Y95593D01*
X234529Y95594D01*
X234607Y95589D01*
X236690Y95589D01*
X236808Y95604D01*
G37*
%LPC*%
G36*
X55558Y112725D02*
X55558Y112725D01*
X54225Y114058D01*
X54225Y115942D01*
X55574Y117291D01*
X55630Y117307D01*
X55690Y117315D01*
X55782Y117351D01*
X55877Y117379D01*
X55929Y117409D01*
X55985Y117432D01*
X56066Y117490D01*
X56151Y117540D01*
X56226Y117606D01*
X56243Y117618D01*
X56251Y117628D01*
X56272Y117646D01*
X60963Y122338D01*
X61024Y122416D01*
X61091Y122488D01*
X61121Y122541D01*
X61158Y122589D01*
X61197Y122680D01*
X61245Y122766D01*
X61260Y122825D01*
X61284Y122881D01*
X61300Y122979D01*
X61324Y123074D01*
X61331Y123174D01*
X61334Y123195D01*
X61333Y123207D01*
X61335Y123235D01*
X61335Y123968D01*
X61320Y124086D01*
X61312Y124205D01*
X61300Y124243D01*
X61295Y124284D01*
X61251Y124394D01*
X61214Y124507D01*
X61193Y124542D01*
X61178Y124579D01*
X61108Y124675D01*
X61044Y124776D01*
X61015Y124804D01*
X60991Y124837D01*
X60899Y124913D01*
X60812Y124994D01*
X60777Y125014D01*
X60766Y125023D01*
X59809Y125979D01*
X59788Y126011D01*
X59773Y126024D01*
X59761Y126041D01*
X59653Y126130D01*
X59549Y126221D01*
X59532Y126230D01*
X59516Y126243D01*
X59390Y126303D01*
X59266Y126366D01*
X59246Y126370D01*
X59228Y126379D01*
X59092Y126405D01*
X58956Y126436D01*
X58936Y126435D01*
X58916Y126439D01*
X58777Y126430D01*
X58638Y126426D01*
X58619Y126420D01*
X58598Y126419D01*
X58466Y126376D01*
X58333Y126337D01*
X58315Y126327D01*
X58296Y126321D01*
X58178Y126247D01*
X58059Y126176D01*
X58038Y126157D01*
X58027Y126151D01*
X58013Y126136D01*
X57938Y126069D01*
X57868Y125999D01*
X57867Y125999D01*
X56637Y125999D01*
X56637Y130000D01*
X56637Y134001D01*
X57867Y134001D01*
X57868Y134001D01*
X57938Y133931D01*
X58047Y133845D01*
X58155Y133757D01*
X58173Y133748D01*
X58189Y133736D01*
X58317Y133680D01*
X58443Y133621D01*
X58462Y133617D01*
X58481Y133609D01*
X58618Y133587D01*
X58755Y133561D01*
X58775Y133563D01*
X58795Y133559D01*
X58933Y133572D01*
X59072Y133581D01*
X59091Y133587D01*
X59112Y133589D01*
X59243Y133636D01*
X59375Y133679D01*
X59392Y133690D01*
X59411Y133697D01*
X59526Y133775D01*
X59643Y133849D01*
X59657Y133864D01*
X59674Y133875D01*
X59750Y133961D01*
X60551Y134763D01*
X66183Y134763D01*
X66470Y134476D01*
X66564Y134403D01*
X66653Y134324D01*
X66689Y134306D01*
X66721Y134281D01*
X66831Y134234D01*
X66936Y134180D01*
X66976Y134171D01*
X67013Y134155D01*
X67131Y134136D01*
X67247Y134110D01*
X67287Y134111D01*
X67327Y134105D01*
X67446Y134116D01*
X67565Y134120D01*
X67603Y134131D01*
X67644Y134135D01*
X67756Y134175D01*
X67870Y134208D01*
X67905Y134229D01*
X67943Y134242D01*
X68041Y134309D01*
X68144Y134370D01*
X68189Y134410D01*
X68206Y134421D01*
X68220Y134436D01*
X68265Y134476D01*
X68551Y134763D01*
X74183Y134763D01*
X74470Y134476D01*
X74564Y134403D01*
X74653Y134324D01*
X74689Y134306D01*
X74721Y134281D01*
X74831Y134234D01*
X74936Y134180D01*
X74976Y134171D01*
X75013Y134155D01*
X75131Y134136D01*
X75247Y134110D01*
X75287Y134111D01*
X75327Y134105D01*
X75446Y134116D01*
X75565Y134120D01*
X75603Y134131D01*
X75644Y134135D01*
X75756Y134175D01*
X75870Y134208D01*
X75905Y134229D01*
X75943Y134242D01*
X76041Y134309D01*
X76144Y134370D01*
X76189Y134410D01*
X76206Y134421D01*
X76220Y134436D01*
X76265Y134476D01*
X76551Y134763D01*
X82183Y134763D01*
X82470Y134476D01*
X82564Y134403D01*
X82653Y134324D01*
X82689Y134306D01*
X82721Y134281D01*
X82831Y134234D01*
X82936Y134180D01*
X82976Y134171D01*
X83013Y134155D01*
X83131Y134136D01*
X83247Y134110D01*
X83287Y134111D01*
X83327Y134105D01*
X83446Y134116D01*
X83565Y134120D01*
X83603Y134131D01*
X83644Y134135D01*
X83756Y134175D01*
X83870Y134208D01*
X83905Y134229D01*
X83943Y134242D01*
X84041Y134309D01*
X84144Y134370D01*
X84189Y134410D01*
X84206Y134421D01*
X84220Y134436D01*
X84265Y134476D01*
X84551Y134763D01*
X90183Y134763D01*
X90470Y134476D01*
X90564Y134403D01*
X90653Y134324D01*
X90689Y134306D01*
X90721Y134281D01*
X90831Y134234D01*
X90936Y134180D01*
X90976Y134171D01*
X91013Y134155D01*
X91131Y134136D01*
X91247Y134110D01*
X91287Y134111D01*
X91327Y134105D01*
X91446Y134116D01*
X91565Y134120D01*
X91603Y134131D01*
X91644Y134135D01*
X91756Y134175D01*
X91870Y134208D01*
X91905Y134229D01*
X91943Y134242D01*
X92041Y134309D01*
X92144Y134370D01*
X92189Y134410D01*
X92206Y134421D01*
X92220Y134436D01*
X92265Y134476D01*
X92551Y134763D01*
X98183Y134763D01*
X98470Y134476D01*
X98564Y134403D01*
X98653Y134324D01*
X98689Y134306D01*
X98721Y134281D01*
X98831Y134234D01*
X98936Y134180D01*
X98976Y134171D01*
X99013Y134155D01*
X99131Y134136D01*
X99247Y134110D01*
X99287Y134111D01*
X99327Y134105D01*
X99446Y134116D01*
X99565Y134120D01*
X99603Y134131D01*
X99644Y134135D01*
X99756Y134175D01*
X99870Y134208D01*
X99905Y134229D01*
X99943Y134242D01*
X100041Y134309D01*
X100144Y134370D01*
X100189Y134410D01*
X100206Y134421D01*
X100220Y134436D01*
X100265Y134476D01*
X100551Y134763D01*
X106183Y134763D01*
X106470Y134476D01*
X106564Y134403D01*
X106653Y134324D01*
X106689Y134306D01*
X106721Y134281D01*
X106831Y134234D01*
X106936Y134180D01*
X106976Y134171D01*
X107013Y134155D01*
X107131Y134136D01*
X107247Y134110D01*
X107287Y134111D01*
X107327Y134105D01*
X107446Y134116D01*
X107565Y134120D01*
X107603Y134131D01*
X107644Y134135D01*
X107756Y134175D01*
X107870Y134208D01*
X107905Y134229D01*
X107943Y134242D01*
X108041Y134309D01*
X108144Y134370D01*
X108189Y134410D01*
X108206Y134421D01*
X108220Y134436D01*
X108265Y134476D01*
X108551Y134763D01*
X114183Y134763D01*
X114630Y134316D01*
X114630Y125684D01*
X114183Y125237D01*
X108551Y125237D01*
X108265Y125524D01*
X108171Y125597D01*
X108082Y125676D01*
X108046Y125694D01*
X108014Y125719D01*
X107904Y125766D01*
X107798Y125820D01*
X107759Y125829D01*
X107722Y125845D01*
X107604Y125864D01*
X107488Y125890D01*
X107448Y125889D01*
X107408Y125895D01*
X107289Y125884D01*
X107170Y125880D01*
X107131Y125869D01*
X107091Y125865D01*
X106979Y125825D01*
X106865Y125792D01*
X106830Y125771D01*
X106792Y125758D01*
X106693Y125691D01*
X106591Y125630D01*
X106545Y125590D01*
X106529Y125579D01*
X106515Y125564D01*
X106470Y125524D01*
X106183Y125237D01*
X100551Y125237D01*
X100265Y125524D01*
X100171Y125597D01*
X100082Y125676D01*
X100046Y125694D01*
X100014Y125719D01*
X99904Y125766D01*
X99798Y125820D01*
X99759Y125829D01*
X99722Y125845D01*
X99604Y125864D01*
X99488Y125890D01*
X99448Y125889D01*
X99408Y125895D01*
X99289Y125884D01*
X99170Y125880D01*
X99131Y125869D01*
X99091Y125865D01*
X98979Y125825D01*
X98865Y125792D01*
X98830Y125771D01*
X98792Y125758D01*
X98693Y125691D01*
X98591Y125630D01*
X98545Y125590D01*
X98529Y125579D01*
X98515Y125564D01*
X98470Y125524D01*
X97947Y125001D01*
X97861Y124947D01*
X97833Y124917D01*
X97801Y124894D01*
X97725Y124802D01*
X97643Y124715D01*
X97624Y124680D01*
X97598Y124649D01*
X97547Y124541D01*
X97490Y124437D01*
X97480Y124397D01*
X97462Y124361D01*
X97440Y124244D01*
X97410Y124129D01*
X97406Y124069D01*
X97403Y124049D01*
X97404Y124028D01*
X97400Y123968D01*
X97400Y119408D01*
X97364Y119343D01*
X97349Y119284D01*
X97325Y119229D01*
X97310Y119131D01*
X97296Y119079D01*
X95942Y117725D01*
X94058Y117725D01*
X92725Y119058D01*
X92725Y120942D01*
X92963Y121180D01*
X93024Y121258D01*
X93091Y121330D01*
X93121Y121383D01*
X93158Y121431D01*
X93197Y121522D01*
X93245Y121609D01*
X93260Y121667D01*
X93284Y121723D01*
X93300Y121821D01*
X93324Y121917D01*
X93331Y122016D01*
X93332Y122023D01*
X93332Y122024D01*
X93334Y122037D01*
X93333Y122049D01*
X93335Y122077D01*
X93335Y123968D01*
X93320Y124086D01*
X93312Y124205D01*
X93300Y124243D01*
X93295Y124284D01*
X93251Y124394D01*
X93214Y124507D01*
X93193Y124542D01*
X93178Y124579D01*
X93108Y124675D01*
X93044Y124776D01*
X93015Y124804D01*
X92991Y124837D01*
X92899Y124913D01*
X92812Y124994D01*
X92777Y125014D01*
X92766Y125023D01*
X92265Y125524D01*
X92171Y125597D01*
X92082Y125676D01*
X92046Y125694D01*
X92014Y125719D01*
X91904Y125766D01*
X91798Y125820D01*
X91759Y125829D01*
X91722Y125845D01*
X91604Y125864D01*
X91488Y125890D01*
X91448Y125889D01*
X91408Y125895D01*
X91289Y125884D01*
X91170Y125880D01*
X91131Y125869D01*
X91091Y125865D01*
X90979Y125825D01*
X90865Y125792D01*
X90830Y125771D01*
X90792Y125758D01*
X90693Y125691D01*
X90591Y125630D01*
X90545Y125590D01*
X90529Y125579D01*
X90515Y125564D01*
X90470Y125524D01*
X90183Y125237D01*
X84551Y125237D01*
X84265Y125524D01*
X84171Y125597D01*
X84082Y125676D01*
X84046Y125694D01*
X84014Y125719D01*
X83904Y125766D01*
X83798Y125820D01*
X83759Y125829D01*
X83722Y125845D01*
X83604Y125864D01*
X83488Y125890D01*
X83448Y125889D01*
X83408Y125895D01*
X83289Y125884D01*
X83170Y125880D01*
X83131Y125869D01*
X83091Y125865D01*
X82979Y125825D01*
X82865Y125792D01*
X82830Y125771D01*
X82792Y125758D01*
X82693Y125691D01*
X82591Y125630D01*
X82545Y125590D01*
X82529Y125579D01*
X82515Y125564D01*
X82470Y125524D01*
X81947Y125001D01*
X81861Y124947D01*
X81833Y124917D01*
X81801Y124894D01*
X81725Y124802D01*
X81643Y124715D01*
X81624Y124680D01*
X81598Y124649D01*
X81547Y124541D01*
X81490Y124437D01*
X81480Y124397D01*
X81462Y124361D01*
X81440Y124244D01*
X81410Y124129D01*
X81406Y124069D01*
X81403Y124049D01*
X81404Y124028D01*
X81400Y123968D01*
X81400Y120525D01*
X80646Y119772D01*
X80586Y119693D01*
X80518Y119621D01*
X80489Y119568D01*
X80452Y119520D01*
X80412Y119430D01*
X80364Y119343D01*
X80349Y119284D01*
X80325Y119229D01*
X80310Y119131D01*
X80296Y119079D01*
X78942Y117725D01*
X77058Y117725D01*
X75725Y119058D01*
X75725Y121286D01*
X75708Y121424D01*
X75695Y121563D01*
X75688Y121582D01*
X75685Y121602D01*
X75634Y121731D01*
X75587Y121862D01*
X75576Y121879D01*
X75568Y121898D01*
X75487Y122010D01*
X75409Y122125D01*
X75393Y122138D01*
X75382Y122155D01*
X75274Y122244D01*
X75170Y122336D01*
X75152Y122345D01*
X75137Y122358D01*
X75011Y122417D01*
X74887Y122480D01*
X74867Y122485D01*
X74849Y122493D01*
X74712Y122519D01*
X74577Y122550D01*
X74556Y122549D01*
X74537Y122553D01*
X74398Y122544D01*
X74259Y122540D01*
X74239Y122535D01*
X74219Y122533D01*
X74087Y122491D01*
X73953Y122452D01*
X73936Y122441D01*
X73917Y122435D01*
X73799Y122361D01*
X73679Y122290D01*
X73658Y122272D01*
X73648Y122265D01*
X73634Y122250D01*
X73559Y122184D01*
X72646Y121272D01*
X72586Y121194D01*
X72518Y121121D01*
X72489Y121068D01*
X72452Y121020D01*
X72412Y120930D01*
X72364Y120843D01*
X72349Y120784D01*
X72325Y120729D01*
X72310Y120631D01*
X72285Y120535D01*
X72279Y120435D01*
X72275Y120415D01*
X72277Y120402D01*
X72275Y120374D01*
X72275Y119058D01*
X70942Y117725D01*
X69058Y117725D01*
X67725Y119058D01*
X67725Y120286D01*
X67708Y120424D01*
X67695Y120563D01*
X67688Y120582D01*
X67685Y120602D01*
X67634Y120731D01*
X67587Y120862D01*
X67576Y120879D01*
X67568Y120898D01*
X67487Y121010D01*
X67409Y121125D01*
X67393Y121138D01*
X67382Y121155D01*
X67274Y121244D01*
X67170Y121336D01*
X67152Y121345D01*
X67137Y121358D01*
X67011Y121417D01*
X66887Y121480D01*
X66867Y121485D01*
X66849Y121493D01*
X66713Y121519D01*
X66577Y121550D01*
X66556Y121549D01*
X66537Y121553D01*
X66398Y121544D01*
X66259Y121540D01*
X66239Y121535D01*
X66219Y121533D01*
X66087Y121490D01*
X65953Y121452D01*
X65936Y121441D01*
X65917Y121435D01*
X65799Y121361D01*
X65679Y121290D01*
X65658Y121272D01*
X65648Y121265D01*
X65634Y121250D01*
X65559Y121184D01*
X59146Y114772D01*
X59086Y114693D01*
X59018Y114621D01*
X58989Y114568D01*
X58952Y114520D01*
X58912Y114430D01*
X58864Y114343D01*
X58849Y114284D01*
X58825Y114229D01*
X58810Y114131D01*
X58796Y114079D01*
X57442Y112725D01*
X55558Y112725D01*
G37*
%LPD*%
G36*
X47348Y1540D02*
X47348Y1540D01*
X47467Y1547D01*
X47505Y1560D01*
X47546Y1565D01*
X47656Y1608D01*
X47769Y1645D01*
X47804Y1667D01*
X47841Y1682D01*
X47937Y1751D01*
X48038Y1815D01*
X48066Y1845D01*
X48099Y1868D01*
X48175Y1960D01*
X48256Y2047D01*
X48276Y2082D01*
X48301Y2113D01*
X48352Y2221D01*
X48410Y2325D01*
X48420Y2365D01*
X48437Y2401D01*
X48459Y2518D01*
X48489Y2633D01*
X48493Y2693D01*
X48497Y2713D01*
X48495Y2734D01*
X48499Y2794D01*
X48499Y3731D01*
X53000Y3731D01*
X57501Y3731D01*
X57501Y2794D01*
X57516Y2676D01*
X57523Y2557D01*
X57536Y2519D01*
X57541Y2478D01*
X57584Y2368D01*
X57621Y2255D01*
X57643Y2220D01*
X57658Y2183D01*
X57727Y2087D01*
X57791Y1986D01*
X57821Y1958D01*
X57844Y1925D01*
X57936Y1849D01*
X58023Y1768D01*
X58058Y1748D01*
X58089Y1723D01*
X58197Y1672D01*
X58301Y1614D01*
X58341Y1604D01*
X58377Y1587D01*
X58494Y1565D01*
X58609Y1535D01*
X58669Y1531D01*
X58689Y1527D01*
X58710Y1529D01*
X58770Y1525D01*
X69230Y1525D01*
X69348Y1540D01*
X69467Y1547D01*
X69505Y1560D01*
X69546Y1565D01*
X69656Y1608D01*
X69769Y1645D01*
X69804Y1667D01*
X69841Y1682D01*
X69937Y1751D01*
X70038Y1815D01*
X70066Y1845D01*
X70099Y1868D01*
X70175Y1960D01*
X70256Y2047D01*
X70276Y2082D01*
X70301Y2113D01*
X70352Y2221D01*
X70410Y2325D01*
X70420Y2365D01*
X70437Y2401D01*
X70459Y2518D01*
X70489Y2633D01*
X70493Y2693D01*
X70497Y2713D01*
X70495Y2734D01*
X70499Y2794D01*
X70499Y3731D01*
X75000Y3731D01*
X79501Y3731D01*
X79501Y2794D01*
X79516Y2676D01*
X79523Y2557D01*
X79536Y2519D01*
X79541Y2478D01*
X79584Y2368D01*
X79621Y2255D01*
X79643Y2220D01*
X79658Y2183D01*
X79727Y2087D01*
X79791Y1986D01*
X79821Y1958D01*
X79844Y1925D01*
X79936Y1849D01*
X80023Y1768D01*
X80058Y1748D01*
X80089Y1723D01*
X80197Y1672D01*
X80301Y1614D01*
X80341Y1604D01*
X80377Y1587D01*
X80494Y1565D01*
X80609Y1535D01*
X80669Y1531D01*
X80689Y1527D01*
X80710Y1529D01*
X80770Y1525D01*
X86980Y1525D01*
X87098Y1540D01*
X87217Y1547D01*
X87255Y1560D01*
X87296Y1565D01*
X87406Y1608D01*
X87519Y1645D01*
X87554Y1667D01*
X87591Y1682D01*
X87687Y1751D01*
X87788Y1815D01*
X87816Y1845D01*
X87849Y1868D01*
X87925Y1960D01*
X88006Y2047D01*
X88026Y2082D01*
X88051Y2113D01*
X88102Y2221D01*
X88160Y2325D01*
X88170Y2365D01*
X88187Y2401D01*
X88209Y2518D01*
X88239Y2633D01*
X88243Y2693D01*
X88247Y2713D01*
X88246Y2731D01*
X89500Y2731D01*
X89618Y2746D01*
X89737Y2753D01*
X89775Y2765D01*
X89815Y2770D01*
X89926Y2814D01*
X90039Y2851D01*
X90073Y2873D01*
X90111Y2887D01*
X90207Y2957D01*
X90308Y3021D01*
X90336Y3051D01*
X90368Y3074D01*
X90369Y3075D01*
X90445Y3166D01*
X90515Y3241D01*
X90526Y3253D01*
X90546Y3289D01*
X90572Y3320D01*
X90622Y3427D01*
X90680Y3532D01*
X90690Y3571D01*
X90707Y3607D01*
X90729Y3724D01*
X90759Y3840D01*
X90763Y3900D01*
X90767Y3920D01*
X90766Y3940D01*
X90769Y4000D01*
X90769Y5751D01*
X90968Y5751D01*
X91106Y5768D01*
X91244Y5781D01*
X91264Y5788D01*
X91284Y5791D01*
X91413Y5842D01*
X91544Y5889D01*
X91561Y5900D01*
X91579Y5908D01*
X91692Y5989D01*
X91807Y6067D01*
X91820Y6083D01*
X91837Y6094D01*
X91925Y6202D01*
X92017Y6306D01*
X92027Y6324D01*
X92039Y6339D01*
X92099Y6465D01*
X92162Y6589D01*
X92166Y6609D01*
X92175Y6627D01*
X92201Y6763D01*
X92232Y6899D01*
X92231Y6920D01*
X92235Y6939D01*
X92226Y7078D01*
X92222Y7217D01*
X92216Y7237D01*
X92215Y7257D01*
X92172Y7389D01*
X92134Y7523D01*
X92123Y7540D01*
X92117Y7559D01*
X92043Y7677D01*
X91972Y7797D01*
X91953Y7818D01*
X91947Y7828D01*
X91932Y7842D01*
X91866Y7917D01*
X91111Y8672D01*
X91087Y8691D01*
X91068Y8713D01*
X90962Y8788D01*
X90859Y8867D01*
X90832Y8879D01*
X90808Y8896D01*
X90687Y8942D01*
X90568Y8994D01*
X90538Y8998D01*
X90511Y9009D01*
X90382Y9023D01*
X90269Y9041D01*
X90269Y10000D01*
X90254Y10118D01*
X90247Y10237D01*
X90235Y10275D01*
X90230Y10315D01*
X90186Y10426D01*
X90149Y10539D01*
X90127Y10573D01*
X90113Y10611D01*
X90043Y10707D01*
X89979Y10808D01*
X89978Y10808D01*
X89949Y10836D01*
X89926Y10868D01*
X89925Y10869D01*
X89833Y10945D01*
X89747Y11026D01*
X89711Y11046D01*
X89680Y11072D01*
X89573Y11122D01*
X89468Y11180D01*
X89429Y11190D01*
X89393Y11207D01*
X89276Y11229D01*
X89160Y11259D01*
X89100Y11263D01*
X89080Y11267D01*
X89060Y11266D01*
X89000Y11269D01*
X88035Y11269D01*
X88037Y11352D01*
X88030Y11381D01*
X88029Y11410D01*
X87993Y11535D01*
X87962Y11661D01*
X87949Y11687D01*
X87940Y11716D01*
X87874Y11828D01*
X87814Y11942D01*
X87794Y11964D01*
X87779Y11990D01*
X87672Y12111D01*
X86765Y13018D01*
X86671Y13091D01*
X86582Y13170D01*
X86546Y13188D01*
X86514Y13213D01*
X86405Y13260D01*
X86299Y13314D01*
X86259Y13323D01*
X86222Y13339D01*
X86104Y13358D01*
X85988Y13384D01*
X85948Y13383D01*
X85908Y13389D01*
X85789Y13378D01*
X85670Y13374D01*
X85631Y13363D01*
X85591Y13359D01*
X85479Y13319D01*
X85365Y13286D01*
X85330Y13265D01*
X85292Y13252D01*
X85224Y13205D01*
X80810Y13205D01*
X80711Y13193D01*
X80612Y13190D01*
X80554Y13173D01*
X80494Y13165D01*
X80402Y13129D01*
X80307Y13101D01*
X80255Y13071D01*
X80198Y13048D01*
X80118Y12990D01*
X80033Y12940D01*
X79958Y12874D01*
X79941Y12862D01*
X79933Y12852D01*
X79912Y12834D01*
X79816Y12737D01*
X70183Y12737D01*
X70110Y12794D01*
X70037Y12862D01*
X69984Y12891D01*
X69937Y12928D01*
X69846Y12968D01*
X69759Y13016D01*
X69700Y13031D01*
X69645Y13055D01*
X69547Y13070D01*
X69451Y13095D01*
X69351Y13101D01*
X69331Y13105D01*
X69319Y13103D01*
X69290Y13105D01*
X68224Y13105D01*
X68126Y13093D01*
X68027Y13090D01*
X67969Y13073D01*
X67909Y13065D01*
X67817Y13029D01*
X67721Y13001D01*
X67669Y12971D01*
X67613Y12948D01*
X67533Y12890D01*
X67448Y12840D01*
X67372Y12774D01*
X67356Y12762D01*
X67348Y12752D01*
X67327Y12734D01*
X66802Y12209D01*
X65582Y12209D01*
X65464Y12194D01*
X65345Y12187D01*
X65307Y12174D01*
X65266Y12169D01*
X65156Y12126D01*
X65043Y12089D01*
X65008Y12067D01*
X64971Y12052D01*
X64875Y11983D01*
X64774Y11919D01*
X64746Y11889D01*
X64713Y11866D01*
X64637Y11774D01*
X64556Y11687D01*
X64536Y11652D01*
X64511Y11621D01*
X64460Y11513D01*
X64402Y11409D01*
X64392Y11369D01*
X64375Y11333D01*
X64353Y11216D01*
X64323Y11101D01*
X64319Y11041D01*
X64315Y11021D01*
X64317Y11000D01*
X64313Y10940D01*
X64313Y10396D01*
X63104Y9187D01*
X61396Y9187D01*
X60187Y10396D01*
X60187Y12044D01*
X60170Y12182D01*
X60157Y12321D01*
X60150Y12340D01*
X60147Y12360D01*
X60096Y12490D01*
X60049Y12620D01*
X60038Y12637D01*
X60030Y12656D01*
X59949Y12768D01*
X59871Y12883D01*
X59855Y12897D01*
X59844Y12913D01*
X59737Y13001D01*
X59632Y13094D01*
X59614Y13103D01*
X59599Y13116D01*
X59473Y13175D01*
X59349Y13238D01*
X59329Y13243D01*
X59311Y13251D01*
X59175Y13277D01*
X59039Y13308D01*
X59018Y13307D01*
X58999Y13311D01*
X58860Y13302D01*
X58721Y13298D01*
X58701Y13293D01*
X58681Y13291D01*
X58549Y13248D01*
X58415Y13210D01*
X58398Y13200D01*
X58379Y13193D01*
X58261Y13119D01*
X58141Y13048D01*
X58120Y13030D01*
X58110Y13023D01*
X58096Y13008D01*
X58020Y12942D01*
X57816Y12737D01*
X48184Y12737D01*
X47834Y13088D01*
X47756Y13148D01*
X47683Y13216D01*
X47630Y13245D01*
X47583Y13282D01*
X47492Y13322D01*
X47405Y13370D01*
X47346Y13385D01*
X47291Y13409D01*
X47193Y13424D01*
X47097Y13449D01*
X46997Y13455D01*
X46977Y13459D01*
X46964Y13457D01*
X46936Y13459D01*
X46578Y13459D01*
X46480Y13447D01*
X46381Y13444D01*
X46323Y13427D01*
X46263Y13419D01*
X46171Y13383D01*
X46076Y13356D01*
X46023Y13325D01*
X45967Y13302D01*
X45887Y13244D01*
X45802Y13194D01*
X45726Y13128D01*
X45710Y13116D01*
X45702Y13106D01*
X45681Y13088D01*
X45576Y12982D01*
X45502Y12888D01*
X45424Y12799D01*
X45405Y12763D01*
X45381Y12731D01*
X45333Y12622D01*
X45279Y12515D01*
X45270Y12476D01*
X45254Y12439D01*
X45236Y12322D01*
X45209Y12205D01*
X45211Y12165D01*
X45204Y12125D01*
X45216Y12007D01*
X45219Y11887D01*
X45230Y11849D01*
X45234Y11809D01*
X45274Y11696D01*
X45308Y11582D01*
X45328Y11547D01*
X45342Y11509D01*
X45409Y11411D01*
X45418Y11395D01*
X46343Y9162D01*
X46343Y8408D01*
X46360Y8270D01*
X46373Y8132D01*
X46380Y8112D01*
X46383Y8092D01*
X46434Y7963D01*
X46481Y7832D01*
X46492Y7816D01*
X46500Y7797D01*
X46581Y7684D01*
X46659Y7569D01*
X46675Y7556D01*
X46686Y7539D01*
X46794Y7450D01*
X46898Y7359D01*
X46916Y7350D01*
X46931Y7337D01*
X47057Y7277D01*
X47181Y7214D01*
X47201Y7210D01*
X47219Y7201D01*
X47356Y7175D01*
X47491Y7144D01*
X47512Y7145D01*
X47531Y7141D01*
X47670Y7150D01*
X47809Y7154D01*
X47829Y7160D01*
X47849Y7161D01*
X47981Y7204D01*
X48115Y7243D01*
X48132Y7253D01*
X48151Y7259D01*
X48269Y7333D01*
X48389Y7404D01*
X48410Y7423D01*
X48420Y7429D01*
X48434Y7444D01*
X48497Y7500D01*
X48500Y7501D01*
X51731Y7501D01*
X51731Y6269D01*
X48344Y6269D01*
X48342Y6274D01*
X48301Y6331D01*
X48269Y6393D01*
X48208Y6459D01*
X48156Y6532D01*
X48102Y6576D01*
X48055Y6628D01*
X47980Y6677D01*
X47911Y6735D01*
X47847Y6764D01*
X47789Y6803D01*
X47704Y6832D01*
X47623Y6870D01*
X47554Y6883D01*
X47488Y6906D01*
X47399Y6913D01*
X47310Y6930D01*
X47241Y6926D01*
X47171Y6931D01*
X47083Y6916D01*
X46993Y6910D01*
X46927Y6889D01*
X46858Y6877D01*
X46776Y6840D01*
X46691Y6812D01*
X46632Y6775D01*
X46568Y6746D01*
X46498Y6690D01*
X46422Y6642D01*
X46374Y6591D01*
X46320Y6548D01*
X46265Y6476D01*
X46204Y6410D01*
X46170Y6349D01*
X46128Y6293D01*
X46057Y6149D01*
X45453Y4690D01*
X44454Y3691D01*
X44369Y3582D01*
X44280Y3475D01*
X44272Y3456D01*
X44259Y3440D01*
X44204Y3313D01*
X44145Y3187D01*
X44141Y3167D01*
X44133Y3148D01*
X44111Y3010D01*
X44085Y2874D01*
X44086Y2854D01*
X44083Y2834D01*
X44096Y2695D01*
X44105Y2557D01*
X44111Y2538D01*
X44113Y2518D01*
X44160Y2386D01*
X44203Y2255D01*
X44214Y2237D01*
X44221Y2218D01*
X44299Y2103D01*
X44373Y1986D01*
X44388Y1972D01*
X44399Y1955D01*
X44503Y1863D01*
X44605Y1768D01*
X44622Y1758D01*
X44638Y1745D01*
X44761Y1682D01*
X44883Y1614D01*
X44903Y1609D01*
X44921Y1600D01*
X45057Y1570D01*
X45191Y1535D01*
X45219Y1533D01*
X45231Y1530D01*
X45252Y1531D01*
X45352Y1525D01*
X47230Y1525D01*
X47348Y1540D01*
G37*
%LPC*%
G36*
X23658Y120467D02*
X23658Y120467D01*
X21335Y122791D01*
X21335Y123968D01*
X21320Y124086D01*
X21312Y124205D01*
X21300Y124243D01*
X21295Y124284D01*
X21251Y124394D01*
X21214Y124507D01*
X21193Y124542D01*
X21178Y124579D01*
X21108Y124675D01*
X21044Y124776D01*
X21015Y124804D01*
X20991Y124837D01*
X20899Y124913D01*
X20812Y124994D01*
X20777Y125014D01*
X20766Y125023D01*
X20105Y125684D01*
X20105Y134316D01*
X20551Y134763D01*
X26183Y134763D01*
X26470Y134476D01*
X26564Y134403D01*
X26653Y134324D01*
X26689Y134306D01*
X26721Y134281D01*
X26831Y134234D01*
X26936Y134180D01*
X26976Y134171D01*
X27013Y134155D01*
X27131Y134136D01*
X27247Y134110D01*
X27287Y134111D01*
X27327Y134105D01*
X27446Y134116D01*
X27565Y134120D01*
X27603Y134131D01*
X27644Y134135D01*
X27756Y134175D01*
X27870Y134208D01*
X27905Y134229D01*
X27943Y134242D01*
X28041Y134309D01*
X28144Y134370D01*
X28189Y134410D01*
X28206Y134421D01*
X28220Y134436D01*
X28265Y134476D01*
X28551Y134763D01*
X34183Y134763D01*
X34470Y134476D01*
X34564Y134403D01*
X34653Y134324D01*
X34689Y134306D01*
X34721Y134281D01*
X34831Y134234D01*
X34936Y134180D01*
X34976Y134171D01*
X35013Y134155D01*
X35131Y134136D01*
X35247Y134110D01*
X35287Y134111D01*
X35327Y134105D01*
X35446Y134116D01*
X35565Y134120D01*
X35603Y134131D01*
X35644Y134135D01*
X35756Y134175D01*
X35870Y134208D01*
X35905Y134229D01*
X35943Y134242D01*
X36041Y134309D01*
X36144Y134370D01*
X36189Y134410D01*
X36206Y134421D01*
X36220Y134436D01*
X36265Y134476D01*
X36551Y134763D01*
X42183Y134763D01*
X42470Y134476D01*
X42564Y134403D01*
X42653Y134324D01*
X42689Y134306D01*
X42721Y134281D01*
X42831Y134234D01*
X42936Y134180D01*
X42976Y134171D01*
X43013Y134155D01*
X43131Y134136D01*
X43247Y134110D01*
X43287Y134111D01*
X43327Y134105D01*
X43446Y134116D01*
X43565Y134120D01*
X43603Y134131D01*
X43644Y134135D01*
X43756Y134175D01*
X43870Y134208D01*
X43905Y134229D01*
X43943Y134242D01*
X44041Y134309D01*
X44144Y134370D01*
X44189Y134410D01*
X44206Y134421D01*
X44220Y134436D01*
X44265Y134476D01*
X44551Y134763D01*
X50183Y134763D01*
X50925Y134021D01*
X50947Y133989D01*
X50962Y133976D01*
X50974Y133959D01*
X51081Y133870D01*
X51185Y133779D01*
X51203Y133770D01*
X51219Y133757D01*
X51345Y133697D01*
X51468Y133634D01*
X51488Y133630D01*
X51506Y133621D01*
X51643Y133595D01*
X51779Y133564D01*
X51799Y133565D01*
X51819Y133561D01*
X51958Y133570D01*
X52097Y133574D01*
X52116Y133580D01*
X52136Y133581D01*
X52268Y133624D01*
X52402Y133663D01*
X52420Y133673D01*
X52439Y133679D01*
X52556Y133753D01*
X52676Y133824D01*
X52697Y133843D01*
X52707Y133849D01*
X52721Y133864D01*
X52797Y133931D01*
X52867Y134001D01*
X54098Y134001D01*
X54098Y130000D01*
X54098Y125999D01*
X52867Y125999D01*
X52797Y126069D01*
X52687Y126154D01*
X52580Y126243D01*
X52562Y126252D01*
X52546Y126264D01*
X52418Y126320D01*
X52292Y126379D01*
X52272Y126383D01*
X52254Y126391D01*
X52116Y126413D01*
X51980Y126439D01*
X51960Y126437D01*
X51940Y126441D01*
X51801Y126428D01*
X51662Y126419D01*
X51643Y126413D01*
X51623Y126411D01*
X51492Y126364D01*
X51360Y126321D01*
X51343Y126310D01*
X51324Y126303D01*
X51209Y126225D01*
X51091Y126151D01*
X51077Y126136D01*
X51061Y126125D01*
X50985Y126039D01*
X49947Y125001D01*
X49861Y124947D01*
X49833Y124917D01*
X49801Y124894D01*
X49725Y124802D01*
X49643Y124715D01*
X49624Y124680D01*
X49598Y124649D01*
X49547Y124541D01*
X49490Y124437D01*
X49480Y124397D01*
X49462Y124361D01*
X49440Y124244D01*
X49410Y124129D01*
X49406Y124069D01*
X49403Y124049D01*
X49404Y124028D01*
X49400Y123968D01*
X49400Y122658D01*
X47209Y120467D01*
X23658Y120467D01*
G37*
%LPD*%
%LPC*%
G36*
X6551Y30737D02*
X6551Y30737D01*
X6105Y31184D01*
X6105Y36816D01*
X6391Y37103D01*
X6464Y37197D01*
X6543Y37286D01*
X6561Y37322D01*
X6586Y37354D01*
X6634Y37463D01*
X6688Y37569D01*
X6696Y37608D01*
X6712Y37646D01*
X6731Y37763D01*
X6757Y37879D01*
X6756Y37920D01*
X6762Y37960D01*
X6751Y38078D01*
X6748Y38197D01*
X6736Y38236D01*
X6733Y38276D01*
X6692Y38388D01*
X6659Y38503D01*
X6639Y38538D01*
X6625Y38576D01*
X6558Y38674D01*
X6498Y38777D01*
X6458Y38822D01*
X6446Y38839D01*
X6431Y38852D01*
X6391Y38898D01*
X6105Y39184D01*
X6105Y44816D01*
X6391Y45103D01*
X6464Y45197D01*
X6543Y45286D01*
X6561Y45322D01*
X6586Y45354D01*
X6634Y45463D01*
X6688Y45569D01*
X6696Y45608D01*
X6712Y45646D01*
X6731Y45763D01*
X6757Y45879D01*
X6756Y45920D01*
X6762Y45960D01*
X6751Y46078D01*
X6748Y46197D01*
X6736Y46236D01*
X6733Y46276D01*
X6692Y46388D01*
X6659Y46503D01*
X6639Y46538D01*
X6625Y46576D01*
X6558Y46674D01*
X6498Y46777D01*
X6458Y46822D01*
X6446Y46839D01*
X6431Y46852D01*
X6391Y46898D01*
X6105Y47184D01*
X6105Y52816D01*
X6391Y53103D01*
X6464Y53197D01*
X6543Y53286D01*
X6561Y53322D01*
X6586Y53354D01*
X6634Y53463D01*
X6688Y53569D01*
X6696Y53608D01*
X6712Y53646D01*
X6731Y53763D01*
X6757Y53879D01*
X6756Y53920D01*
X6762Y53960D01*
X6751Y54078D01*
X6748Y54197D01*
X6736Y54236D01*
X6733Y54276D01*
X6692Y54388D01*
X6659Y54503D01*
X6639Y54538D01*
X6625Y54576D01*
X6558Y54674D01*
X6498Y54777D01*
X6458Y54822D01*
X6446Y54839D01*
X6431Y54852D01*
X6391Y54898D01*
X6105Y55184D01*
X6105Y60816D01*
X6391Y61103D01*
X6464Y61197D01*
X6543Y61286D01*
X6561Y61322D01*
X6586Y61354D01*
X6634Y61463D01*
X6688Y61569D01*
X6696Y61608D01*
X6712Y61646D01*
X6731Y61763D01*
X6757Y61879D01*
X6756Y61920D01*
X6762Y61960D01*
X6751Y62078D01*
X6748Y62197D01*
X6736Y62236D01*
X6733Y62276D01*
X6692Y62388D01*
X6659Y62503D01*
X6639Y62538D01*
X6625Y62576D01*
X6558Y62674D01*
X6498Y62777D01*
X6458Y62822D01*
X6446Y62839D01*
X6431Y62852D01*
X6391Y62898D01*
X6105Y63184D01*
X6105Y68816D01*
X6847Y69558D01*
X6878Y69579D01*
X6892Y69595D01*
X6908Y69606D01*
X6997Y69714D01*
X7089Y69818D01*
X7098Y69836D01*
X7111Y69851D01*
X7170Y69977D01*
X7233Y70101D01*
X7238Y70121D01*
X7246Y70139D01*
X7272Y70276D01*
X7303Y70411D01*
X7302Y70432D01*
X7306Y70451D01*
X7297Y70590D01*
X7293Y70729D01*
X7288Y70749D01*
X7286Y70769D01*
X7243Y70901D01*
X7205Y71035D01*
X7194Y71052D01*
X7188Y71071D01*
X7114Y71189D01*
X7043Y71309D01*
X7025Y71330D01*
X7018Y71340D01*
X7003Y71354D01*
X6937Y71430D01*
X6867Y71500D01*
X6867Y72731D01*
X10867Y72731D01*
X10868Y72731D01*
X14868Y72731D01*
X14868Y71500D01*
X14798Y71430D01*
X14713Y71320D01*
X14624Y71213D01*
X14615Y71194D01*
X14603Y71178D01*
X14548Y71051D01*
X14488Y70925D01*
X14485Y70905D01*
X14477Y70886D01*
X14455Y70749D01*
X14429Y70612D01*
X14430Y70592D01*
X14427Y70572D01*
X14440Y70434D01*
X14448Y70295D01*
X14455Y70276D01*
X14457Y70256D01*
X14504Y70125D01*
X14546Y69993D01*
X14557Y69975D01*
X14564Y69956D01*
X14642Y69841D01*
X14717Y69724D01*
X14731Y69710D01*
X14743Y69693D01*
X14829Y69617D01*
X15630Y68816D01*
X15630Y63184D01*
X15344Y62898D01*
X15270Y62803D01*
X15192Y62714D01*
X15173Y62678D01*
X15149Y62646D01*
X15101Y62537D01*
X15047Y62431D01*
X15038Y62392D01*
X15022Y62354D01*
X15004Y62237D01*
X14977Y62121D01*
X14979Y62080D01*
X14972Y62040D01*
X14984Y61922D01*
X14987Y61803D01*
X14998Y61764D01*
X15002Y61724D01*
X15042Y61612D01*
X15076Y61497D01*
X15096Y61462D01*
X15110Y61424D01*
X15177Y61326D01*
X15237Y61223D01*
X15277Y61178D01*
X15288Y61161D01*
X15304Y61148D01*
X15343Y61103D01*
X15630Y60816D01*
X15630Y55184D01*
X15344Y54898D01*
X15270Y54803D01*
X15192Y54714D01*
X15173Y54678D01*
X15149Y54646D01*
X15101Y54537D01*
X15047Y54431D01*
X15038Y54392D01*
X15022Y54354D01*
X15004Y54237D01*
X14977Y54121D01*
X14979Y54080D01*
X14972Y54040D01*
X14984Y53922D01*
X14987Y53803D01*
X14998Y53764D01*
X15002Y53724D01*
X15042Y53612D01*
X15076Y53497D01*
X15096Y53462D01*
X15110Y53424D01*
X15177Y53326D01*
X15237Y53223D01*
X15277Y53178D01*
X15288Y53161D01*
X15304Y53148D01*
X15343Y53103D01*
X15630Y52816D01*
X15630Y47184D01*
X15344Y46898D01*
X15270Y46803D01*
X15192Y46714D01*
X15173Y46678D01*
X15149Y46646D01*
X15101Y46537D01*
X15047Y46431D01*
X15038Y46392D01*
X15022Y46354D01*
X15003Y46237D01*
X14977Y46121D01*
X14979Y46080D01*
X14972Y46040D01*
X14984Y45922D01*
X14987Y45803D01*
X14998Y45764D01*
X15002Y45724D01*
X15042Y45612D01*
X15076Y45497D01*
X15096Y45462D01*
X15110Y45424D01*
X15177Y45326D01*
X15237Y45223D01*
X15277Y45178D01*
X15288Y45161D01*
X15304Y45148D01*
X15343Y45103D01*
X15630Y44816D01*
X15630Y39184D01*
X15344Y38898D01*
X15270Y38803D01*
X15192Y38714D01*
X15173Y38678D01*
X15149Y38646D01*
X15101Y38537D01*
X15047Y38431D01*
X15038Y38392D01*
X15022Y38354D01*
X15004Y38237D01*
X14977Y38121D01*
X14979Y38080D01*
X14972Y38040D01*
X14984Y37921D01*
X14987Y37803D01*
X14998Y37764D01*
X15002Y37724D01*
X15042Y37612D01*
X15076Y37497D01*
X15096Y37462D01*
X15110Y37424D01*
X15177Y37326D01*
X15237Y37223D01*
X15277Y37178D01*
X15288Y37161D01*
X15304Y37148D01*
X15343Y37103D01*
X15630Y36816D01*
X15630Y31184D01*
X15183Y30737D01*
X6551Y30737D01*
G37*
%LPD*%
%LPC*%
G36*
X10867Y107269D02*
X10867Y107269D01*
X6867Y107269D01*
X6867Y108500D01*
X6937Y108570D01*
X7022Y108680D01*
X7111Y108787D01*
X7119Y108806D01*
X7132Y108822D01*
X7187Y108949D01*
X7246Y109075D01*
X7250Y109095D01*
X7258Y109114D01*
X7280Y109251D01*
X7306Y109388D01*
X7305Y109408D01*
X7308Y109428D01*
X7295Y109566D01*
X7286Y109705D01*
X7280Y109724D01*
X7278Y109744D01*
X7231Y109875D01*
X7188Y110007D01*
X7177Y110025D01*
X7171Y110044D01*
X7093Y110159D01*
X7018Y110276D01*
X7003Y110290D01*
X6992Y110307D01*
X6906Y110383D01*
X6105Y111184D01*
X6105Y116816D01*
X6391Y117103D01*
X6464Y117197D01*
X6543Y117286D01*
X6561Y117322D01*
X6586Y117354D01*
X6634Y117463D01*
X6688Y117569D01*
X6696Y117608D01*
X6712Y117646D01*
X6731Y117763D01*
X6757Y117879D01*
X6756Y117920D01*
X6762Y117960D01*
X6751Y118078D01*
X6748Y118197D01*
X6736Y118236D01*
X6733Y118276D01*
X6692Y118388D01*
X6659Y118503D01*
X6639Y118538D01*
X6625Y118576D01*
X6558Y118674D01*
X6498Y118777D01*
X6458Y118822D01*
X6446Y118839D01*
X6431Y118852D01*
X6391Y118898D01*
X6105Y119184D01*
X6105Y124816D01*
X6551Y125263D01*
X15183Y125263D01*
X15630Y124816D01*
X15630Y119184D01*
X15344Y118898D01*
X15270Y118803D01*
X15192Y118714D01*
X15173Y118678D01*
X15149Y118646D01*
X15101Y118537D01*
X15047Y118431D01*
X15038Y118392D01*
X15022Y118354D01*
X15004Y118237D01*
X14977Y118121D01*
X14979Y118080D01*
X14972Y118040D01*
X14984Y117922D01*
X14987Y117803D01*
X14998Y117764D01*
X15002Y117724D01*
X15042Y117612D01*
X15076Y117497D01*
X15096Y117462D01*
X15110Y117424D01*
X15177Y117326D01*
X15237Y117223D01*
X15277Y117178D01*
X15288Y117161D01*
X15304Y117148D01*
X15343Y117103D01*
X15630Y116816D01*
X15630Y111184D01*
X14888Y110442D01*
X14857Y110421D01*
X14843Y110405D01*
X14827Y110394D01*
X14738Y110286D01*
X14646Y110182D01*
X14637Y110164D01*
X14624Y110149D01*
X14565Y110023D01*
X14501Y109899D01*
X14497Y109879D01*
X14488Y109861D01*
X14462Y109724D01*
X14432Y109589D01*
X14432Y109568D01*
X14429Y109549D01*
X14437Y109410D01*
X14442Y109271D01*
X14447Y109251D01*
X14448Y109231D01*
X14491Y109099D01*
X14530Y108965D01*
X14540Y108948D01*
X14546Y108929D01*
X14621Y108811D01*
X14691Y108691D01*
X14710Y108670D01*
X14717Y108660D01*
X14732Y108646D01*
X14798Y108570D01*
X14868Y108500D01*
X14868Y107269D01*
X10868Y107269D01*
X10867Y107269D01*
X10867Y107269D01*
G37*
%LPD*%
G36*
X35786Y1542D02*
X35786Y1542D01*
X35925Y1555D01*
X35944Y1562D01*
X35964Y1565D01*
X36093Y1616D01*
X36224Y1663D01*
X36241Y1674D01*
X36259Y1682D01*
X36372Y1763D01*
X36487Y1841D01*
X36500Y1857D01*
X36517Y1868D01*
X36606Y1976D01*
X36697Y2080D01*
X36707Y2098D01*
X36720Y2113D01*
X36779Y2239D01*
X36842Y2363D01*
X36846Y2383D01*
X36855Y2401D01*
X36881Y2538D01*
X36912Y2673D01*
X36911Y2694D01*
X36915Y2713D01*
X36906Y2851D01*
X36902Y2991D01*
X36896Y3011D01*
X36895Y3031D01*
X36852Y3163D01*
X36814Y3297D01*
X36803Y3314D01*
X36797Y3333D01*
X36723Y3451D01*
X36652Y3571D01*
X36634Y3592D01*
X36627Y3602D01*
X36612Y3616D01*
X36546Y3691D01*
X35547Y4690D01*
X34657Y6838D01*
X34657Y9162D01*
X35547Y11310D01*
X37190Y12953D01*
X38954Y13684D01*
X38962Y13688D01*
X38971Y13691D01*
X39100Y13767D01*
X39230Y13841D01*
X39237Y13848D01*
X39245Y13852D01*
X39366Y13959D01*
X43948Y18541D01*
X46936Y18541D01*
X47035Y18553D01*
X47133Y18556D01*
X47192Y18573D01*
X47252Y18581D01*
X47344Y18617D01*
X47439Y18644D01*
X47491Y18675D01*
X47548Y18698D01*
X47628Y18756D01*
X47713Y18806D01*
X47788Y18872D01*
X47805Y18884D01*
X47813Y18894D01*
X47834Y18912D01*
X47992Y19070D01*
X48077Y19180D01*
X48166Y19287D01*
X48174Y19306D01*
X48187Y19322D01*
X48242Y19450D01*
X48301Y19575D01*
X48305Y19595D01*
X48313Y19614D01*
X48335Y19751D01*
X48361Y19888D01*
X48360Y19908D01*
X48363Y19928D01*
X48350Y20066D01*
X48341Y20205D01*
X48335Y20224D01*
X48333Y20244D01*
X48286Y20375D01*
X48243Y20507D01*
X48233Y20524D01*
X48226Y20544D01*
X48148Y20659D01*
X48073Y20776D01*
X48058Y20790D01*
X48047Y20807D01*
X47943Y20899D01*
X47842Y20994D01*
X47824Y21004D01*
X47809Y21017D01*
X47684Y21081D01*
X47563Y21148D01*
X47543Y21153D01*
X47525Y21162D01*
X47389Y21192D01*
X47255Y21227D01*
X47227Y21229D01*
X47215Y21232D01*
X47195Y21231D01*
X47094Y21237D01*
X44551Y21237D01*
X44265Y21524D01*
X44171Y21597D01*
X44082Y21676D01*
X44046Y21694D01*
X44014Y21719D01*
X43904Y21766D01*
X43798Y21820D01*
X43759Y21829D01*
X43722Y21845D01*
X43604Y21864D01*
X43488Y21890D01*
X43448Y21889D01*
X43408Y21895D01*
X43289Y21884D01*
X43170Y21880D01*
X43131Y21869D01*
X43091Y21865D01*
X42979Y21825D01*
X42865Y21792D01*
X42830Y21771D01*
X42792Y21758D01*
X42693Y21691D01*
X42591Y21630D01*
X42545Y21590D01*
X42529Y21579D01*
X42515Y21564D01*
X42470Y21524D01*
X42183Y21237D01*
X36551Y21237D01*
X36265Y21524D01*
X36171Y21597D01*
X36082Y21676D01*
X36046Y21694D01*
X36014Y21719D01*
X35904Y21766D01*
X35798Y21820D01*
X35759Y21829D01*
X35722Y21845D01*
X35604Y21864D01*
X35488Y21890D01*
X35448Y21889D01*
X35408Y21895D01*
X35289Y21884D01*
X35170Y21880D01*
X35131Y21869D01*
X35091Y21865D01*
X34979Y21825D01*
X34865Y21792D01*
X34830Y21771D01*
X34792Y21758D01*
X34693Y21691D01*
X34591Y21630D01*
X34545Y21590D01*
X34529Y21579D01*
X34515Y21564D01*
X34470Y21524D01*
X34183Y21237D01*
X33044Y21237D01*
X32906Y21220D01*
X32768Y21207D01*
X32749Y21200D01*
X32728Y21197D01*
X32599Y21146D01*
X32468Y21099D01*
X32452Y21088D01*
X32433Y21080D01*
X32320Y20999D01*
X32205Y20921D01*
X32192Y20905D01*
X32175Y20894D01*
X32086Y20786D01*
X31995Y20682D01*
X31986Y20664D01*
X31973Y20649D01*
X31913Y20523D01*
X31850Y20399D01*
X31846Y20379D01*
X31837Y20361D01*
X31811Y20224D01*
X31780Y20089D01*
X31781Y20068D01*
X31777Y20049D01*
X31786Y19910D01*
X31790Y19771D01*
X31796Y19751D01*
X31797Y19731D01*
X31840Y19599D01*
X31878Y19465D01*
X31889Y19448D01*
X31895Y19429D01*
X31969Y19311D01*
X32040Y19191D01*
X32059Y19170D01*
X32065Y19160D01*
X32080Y19146D01*
X32146Y19070D01*
X32275Y18942D01*
X32275Y17035D01*
X32247Y16984D01*
X32210Y16936D01*
X32170Y16845D01*
X32122Y16759D01*
X32107Y16700D01*
X32083Y16644D01*
X32068Y16546D01*
X32043Y16451D01*
X32037Y16351D01*
X32033Y16330D01*
X32035Y16318D01*
X32033Y16290D01*
X32033Y11722D01*
X32045Y11623D01*
X32048Y11524D01*
X32063Y11474D01*
X32063Y8034D01*
X31484Y7455D01*
X31466Y7432D01*
X31443Y7413D01*
X31368Y7306D01*
X31289Y7204D01*
X31277Y7177D01*
X31260Y7153D01*
X31214Y7031D01*
X31163Y6912D01*
X31158Y6883D01*
X31148Y6855D01*
X31133Y6727D01*
X31113Y6598D01*
X31116Y6569D01*
X31112Y6539D01*
X31130Y6411D01*
X31143Y6281D01*
X31153Y6254D01*
X31157Y6224D01*
X31209Y6072D01*
X31293Y5869D01*
X29550Y5869D01*
X29432Y5854D01*
X29313Y5847D01*
X29275Y5835D01*
X29235Y5830D01*
X29124Y5786D01*
X29011Y5749D01*
X28977Y5727D01*
X28939Y5713D01*
X28843Y5643D01*
X28742Y5579D01*
X28714Y5549D01*
X28682Y5526D01*
X28606Y5434D01*
X28524Y5347D01*
X28505Y5312D01*
X28479Y5281D01*
X28428Y5173D01*
X28371Y5069D01*
X28361Y5030D01*
X28343Y4993D01*
X28321Y4876D01*
X28291Y4761D01*
X28287Y4701D01*
X28284Y4681D01*
X28284Y4680D01*
X28285Y4660D01*
X28281Y4600D01*
X28296Y4482D01*
X28303Y4363D01*
X28316Y4324D01*
X28321Y4284D01*
X28365Y4174D01*
X28401Y4060D01*
X28423Y4026D01*
X28438Y3989D01*
X28508Y3892D01*
X28572Y3792D01*
X28601Y3764D01*
X28625Y3731D01*
X28717Y3655D01*
X28803Y3574D01*
X28839Y3554D01*
X28870Y3528D01*
X28977Y3478D01*
X29082Y3420D01*
X29121Y3410D01*
X29157Y3393D01*
X29274Y3371D01*
X29390Y3341D01*
X29450Y3337D01*
X29470Y3333D01*
X29490Y3334D01*
X29550Y3331D01*
X31293Y3331D01*
X31272Y3280D01*
X31259Y3232D01*
X31237Y3187D01*
X31217Y3079D01*
X31188Y2973D01*
X31187Y2923D01*
X31178Y2874D01*
X31184Y2765D01*
X31183Y2655D01*
X31194Y2607D01*
X31197Y2557D01*
X31231Y2453D01*
X31257Y2346D01*
X31280Y2302D01*
X31295Y2255D01*
X31354Y2162D01*
X31405Y2065D01*
X31439Y2028D01*
X31466Y1986D01*
X31545Y1911D01*
X31619Y1829D01*
X31661Y1802D01*
X31697Y1768D01*
X31793Y1715D01*
X31885Y1655D01*
X31932Y1638D01*
X31976Y1614D01*
X32082Y1587D01*
X32186Y1551D01*
X32235Y1547D01*
X32284Y1535D01*
X32444Y1525D01*
X35648Y1525D01*
X35786Y1542D01*
G37*
G36*
X19902Y1531D02*
X19902Y1531D01*
X19951Y1529D01*
X20059Y1551D01*
X20168Y1565D01*
X20214Y1583D01*
X20263Y1593D01*
X20361Y1641D01*
X20463Y1682D01*
X20504Y1711D01*
X20548Y1733D01*
X20632Y1804D01*
X20721Y1868D01*
X20752Y1907D01*
X20790Y1939D01*
X20854Y2029D01*
X20924Y2113D01*
X20945Y2159D01*
X20973Y2199D01*
X21012Y2302D01*
X21059Y2401D01*
X21068Y2450D01*
X21086Y2497D01*
X21098Y2606D01*
X21119Y2713D01*
X21116Y2763D01*
X21121Y2813D01*
X21106Y2922D01*
X21099Y3028D01*
X21099Y3231D01*
X23250Y3231D01*
X23368Y3246D01*
X23487Y3253D01*
X23525Y3265D01*
X23565Y3270D01*
X23676Y3314D01*
X23789Y3351D01*
X23823Y3373D01*
X23861Y3387D01*
X23957Y3457D01*
X24058Y3521D01*
X24086Y3551D01*
X24118Y3574D01*
X24194Y3666D01*
X24276Y3753D01*
X24295Y3788D01*
X24321Y3819D01*
X24372Y3927D01*
X24429Y4031D01*
X24439Y4070D01*
X24457Y4107D01*
X24479Y4224D01*
X24509Y4339D01*
X24513Y4399D01*
X24516Y4419D01*
X24516Y4420D01*
X24515Y4440D01*
X24519Y4500D01*
X24504Y4618D01*
X24497Y4737D01*
X24484Y4775D01*
X24479Y4816D01*
X24435Y4926D01*
X24399Y5040D01*
X24377Y5074D01*
X24362Y5111D01*
X24292Y5208D01*
X24228Y5308D01*
X24199Y5336D01*
X24175Y5369D01*
X24083Y5445D01*
X23997Y5526D01*
X23961Y5546D01*
X23930Y5572D01*
X23823Y5622D01*
X23718Y5680D01*
X23679Y5690D01*
X23643Y5707D01*
X23526Y5729D01*
X23410Y5759D01*
X23350Y5763D01*
X23330Y5767D01*
X23310Y5766D01*
X23250Y5769D01*
X21099Y5769D01*
X21099Y5900D01*
X21133Y5981D01*
X21140Y6009D01*
X21154Y6035D01*
X21182Y6162D01*
X21217Y6287D01*
X21217Y6317D01*
X21223Y6346D01*
X21220Y6475D01*
X21222Y6605D01*
X21215Y6634D01*
X21214Y6664D01*
X21178Y6788D01*
X21147Y6915D01*
X21134Y6941D01*
X21125Y6969D01*
X21059Y7081D01*
X20999Y7196D01*
X20979Y7218D01*
X20964Y7243D01*
X20857Y7364D01*
X20337Y7884D01*
X20337Y11316D01*
X20797Y11775D01*
X20816Y11778D01*
X20935Y11785D01*
X20973Y11798D01*
X21014Y11803D01*
X21124Y11846D01*
X21237Y11883D01*
X21272Y11905D01*
X21309Y11920D01*
X21405Y11989D01*
X21506Y12053D01*
X21534Y12083D01*
X21567Y12106D01*
X21643Y12198D01*
X21724Y12285D01*
X21744Y12320D01*
X21769Y12351D01*
X21820Y12459D01*
X21878Y12563D01*
X21888Y12603D01*
X21905Y12639D01*
X21927Y12756D01*
X21957Y12871D01*
X21961Y12931D01*
X21965Y12951D01*
X21963Y12972D01*
X21967Y13032D01*
X21967Y16290D01*
X21955Y16388D01*
X21952Y16487D01*
X21935Y16545D01*
X21927Y16606D01*
X21891Y16698D01*
X21863Y16793D01*
X21833Y16845D01*
X21810Y16901D01*
X21752Y16981D01*
X21725Y17027D01*
X21725Y18942D01*
X21854Y19070D01*
X21939Y19180D01*
X22027Y19287D01*
X22036Y19306D01*
X22048Y19322D01*
X22104Y19450D01*
X22163Y19575D01*
X22167Y19595D01*
X22175Y19614D01*
X22197Y19752D01*
X22223Y19888D01*
X22222Y19908D01*
X22225Y19928D01*
X22212Y20067D01*
X22203Y20205D01*
X22197Y20224D01*
X22195Y20244D01*
X22148Y20375D01*
X22105Y20507D01*
X22094Y20525D01*
X22087Y20544D01*
X22009Y20658D01*
X21935Y20776D01*
X21920Y20790D01*
X21909Y20807D01*
X21804Y20899D01*
X21703Y20994D01*
X21686Y21004D01*
X21670Y21017D01*
X21546Y21081D01*
X21425Y21148D01*
X21405Y21153D01*
X21387Y21162D01*
X21251Y21192D01*
X21117Y21227D01*
X21089Y21229D01*
X21077Y21232D01*
X21056Y21231D01*
X20956Y21237D01*
X20322Y21237D01*
X20204Y21222D01*
X20085Y21215D01*
X20047Y21202D01*
X20006Y21197D01*
X19896Y21154D01*
X19783Y21117D01*
X19748Y21095D01*
X19711Y21080D01*
X19615Y21011D01*
X19514Y20947D01*
X19486Y20917D01*
X19453Y20894D01*
X19377Y20802D01*
X19296Y20715D01*
X19276Y20680D01*
X19251Y20649D01*
X19200Y20541D01*
X19142Y20437D01*
X19132Y20397D01*
X19115Y20361D01*
X19093Y20244D01*
X19063Y20129D01*
X19059Y20069D01*
X19055Y20049D01*
X19057Y20028D01*
X19053Y19968D01*
X19053Y18895D01*
X18207Y16855D01*
X16645Y15293D01*
X14605Y14447D01*
X13680Y14447D01*
X13577Y14434D01*
X13472Y14430D01*
X13419Y14414D01*
X13365Y14407D01*
X13268Y14369D01*
X13167Y14339D01*
X13120Y14311D01*
X13069Y14290D01*
X12985Y14229D01*
X12895Y14175D01*
X12856Y14136D01*
X12812Y14104D01*
X12745Y14023D01*
X12672Y13949D01*
X12644Y13901D01*
X12609Y13859D01*
X12564Y13764D01*
X12512Y13674D01*
X12497Y13621D01*
X12473Y13571D01*
X12454Y13468D01*
X12425Y13368D01*
X12424Y13313D01*
X12414Y13259D01*
X12420Y13154D01*
X12417Y13050D01*
X12430Y12996D01*
X12433Y12941D01*
X12465Y12842D01*
X12489Y12740D01*
X12514Y12691D01*
X12531Y12639D01*
X12587Y12550D01*
X12635Y12458D01*
X12672Y12417D01*
X12701Y12370D01*
X12778Y12298D01*
X12847Y12220D01*
X12917Y12167D01*
X12933Y12152D01*
X12946Y12145D01*
X12975Y12123D01*
X13239Y11946D01*
X13946Y11239D01*
X14502Y10407D01*
X14885Y9482D01*
X14928Y9269D01*
X10000Y9269D01*
X9882Y9254D01*
X9763Y9247D01*
X9725Y9235D01*
X9685Y9230D01*
X9574Y9186D01*
X9461Y9149D01*
X9427Y9127D01*
X9389Y9113D01*
X9293Y9043D01*
X9192Y8979D01*
X9164Y8949D01*
X9132Y8926D01*
X9056Y8834D01*
X8974Y8747D01*
X8955Y8712D01*
X8929Y8681D01*
X8878Y8573D01*
X8821Y8469D01*
X8811Y8430D01*
X8793Y8393D01*
X8771Y8276D01*
X8741Y8161D01*
X8737Y8101D01*
X8734Y8081D01*
X8734Y8080D01*
X8735Y8060D01*
X8731Y8000D01*
X8746Y7882D01*
X8753Y7763D01*
X8766Y7724D01*
X8771Y7684D01*
X8815Y7574D01*
X8851Y7460D01*
X8873Y7426D01*
X8888Y7389D01*
X8958Y7292D01*
X9022Y7192D01*
X9051Y7164D01*
X9075Y7131D01*
X9167Y7055D01*
X9253Y6974D01*
X9289Y6954D01*
X9320Y6928D01*
X9427Y6878D01*
X9532Y6820D01*
X9571Y6810D01*
X9607Y6793D01*
X9724Y6771D01*
X9840Y6741D01*
X9900Y6737D01*
X9920Y6733D01*
X9940Y6734D01*
X10000Y6731D01*
X14928Y6731D01*
X14885Y6518D01*
X14502Y5593D01*
X13946Y4761D01*
X13239Y4054D01*
X12933Y3849D01*
X12854Y3781D01*
X12770Y3720D01*
X12735Y3677D01*
X12693Y3641D01*
X12634Y3555D01*
X12567Y3475D01*
X12543Y3425D01*
X12512Y3379D01*
X12476Y3281D01*
X12431Y3187D01*
X12421Y3133D01*
X12402Y3081D01*
X12391Y2977D01*
X12372Y2874D01*
X12375Y2820D01*
X12369Y2765D01*
X12385Y2661D01*
X12391Y2557D01*
X12408Y2505D01*
X12417Y2450D01*
X12457Y2354D01*
X12489Y2255D01*
X12519Y2208D01*
X12540Y2157D01*
X12604Y2074D01*
X12660Y1986D01*
X12700Y1948D01*
X12733Y1904D01*
X12815Y1839D01*
X12891Y1768D01*
X12939Y1741D01*
X12983Y1707D01*
X13078Y1665D01*
X13170Y1614D01*
X13223Y1601D01*
X13273Y1578D01*
X13376Y1561D01*
X13478Y1535D01*
X13566Y1529D01*
X13587Y1526D01*
X13602Y1527D01*
X13638Y1525D01*
X19852Y1525D01*
X19902Y1531D01*
G37*
%LPC*%
G36*
X215521Y8137D02*
X215521Y8137D01*
X214137Y9521D01*
X214137Y11479D01*
X214761Y12103D01*
X214834Y12197D01*
X214913Y12286D01*
X214931Y12322D01*
X214956Y12354D01*
X215003Y12463D01*
X215057Y12569D01*
X215066Y12608D01*
X215082Y12646D01*
X215101Y12763D01*
X215127Y12879D01*
X215126Y12920D01*
X215132Y12960D01*
X215121Y13078D01*
X215117Y13197D01*
X215106Y13236D01*
X215102Y13276D01*
X215062Y13388D01*
X215029Y13503D01*
X215009Y13538D01*
X214995Y13576D01*
X214928Y13674D01*
X214867Y13777D01*
X214828Y13822D01*
X214816Y13839D01*
X214801Y13852D01*
X214761Y13898D01*
X214137Y14521D01*
X214137Y16479D01*
X214761Y17103D01*
X214834Y17197D01*
X214913Y17286D01*
X214931Y17322D01*
X214956Y17354D01*
X215003Y17463D01*
X215057Y17569D01*
X215066Y17608D01*
X215082Y17646D01*
X215101Y17763D01*
X215127Y17879D01*
X215126Y17920D01*
X215132Y17960D01*
X215121Y18078D01*
X215117Y18197D01*
X215106Y18236D01*
X215102Y18276D01*
X215062Y18388D01*
X215029Y18503D01*
X215009Y18538D01*
X214995Y18576D01*
X214928Y18674D01*
X214867Y18777D01*
X214828Y18822D01*
X214816Y18839D01*
X214801Y18852D01*
X214761Y18898D01*
X214137Y19521D01*
X214137Y21479D01*
X215521Y22863D01*
X217479Y22863D01*
X218863Y21479D01*
X218863Y19132D01*
X218878Y19014D01*
X218885Y18895D01*
X218898Y18857D01*
X218903Y18816D01*
X218946Y18706D01*
X218983Y18593D01*
X219005Y18558D01*
X219020Y18521D01*
X219089Y18425D01*
X219153Y18324D01*
X219183Y18296D01*
X219206Y18263D01*
X219298Y18187D01*
X219385Y18106D01*
X219420Y18086D01*
X219451Y18061D01*
X219559Y18010D01*
X219663Y17952D01*
X219703Y17942D01*
X219739Y17925D01*
X219856Y17903D01*
X219971Y17873D01*
X220031Y17869D01*
X220051Y17865D01*
X220072Y17867D01*
X220132Y17863D01*
X222479Y17863D01*
X223863Y16479D01*
X223863Y14132D01*
X223878Y14014D01*
X223885Y13895D01*
X223898Y13857D01*
X223903Y13816D01*
X223946Y13706D01*
X223983Y13593D01*
X224005Y13558D01*
X224020Y13521D01*
X224089Y13425D01*
X224153Y13324D01*
X224183Y13296D01*
X224206Y13263D01*
X224298Y13187D01*
X224385Y13106D01*
X224420Y13086D01*
X224451Y13061D01*
X224559Y13010D01*
X224663Y12952D01*
X224703Y12942D01*
X224739Y12925D01*
X224856Y12903D01*
X224971Y12873D01*
X225031Y12869D01*
X225051Y12865D01*
X225072Y12867D01*
X225132Y12863D01*
X227479Y12863D01*
X228863Y11479D01*
X228863Y9521D01*
X227479Y8137D01*
X225521Y8137D01*
X224898Y8761D01*
X224804Y8834D01*
X224714Y8913D01*
X224678Y8931D01*
X224646Y8956D01*
X224537Y9003D01*
X224431Y9057D01*
X224392Y9066D01*
X224354Y9082D01*
X224237Y9101D01*
X224121Y9127D01*
X224080Y9126D01*
X224040Y9132D01*
X223922Y9121D01*
X223803Y9117D01*
X223764Y9106D01*
X223724Y9102D01*
X223611Y9062D01*
X223497Y9029D01*
X223463Y9009D01*
X223424Y8995D01*
X223326Y8928D01*
X223223Y8868D01*
X223178Y8828D01*
X223161Y8816D01*
X223148Y8801D01*
X223103Y8761D01*
X222479Y8137D01*
X220521Y8137D01*
X219898Y8761D01*
X219804Y8834D01*
X219714Y8913D01*
X219678Y8931D01*
X219646Y8956D01*
X219537Y9003D01*
X219431Y9057D01*
X219392Y9066D01*
X219354Y9082D01*
X219237Y9101D01*
X219121Y9127D01*
X219080Y9126D01*
X219040Y9132D01*
X218922Y9121D01*
X218803Y9117D01*
X218764Y9106D01*
X218724Y9102D01*
X218611Y9062D01*
X218497Y9029D01*
X218463Y9009D01*
X218424Y8995D01*
X218326Y8928D01*
X218223Y8868D01*
X218178Y8828D01*
X218161Y8816D01*
X218148Y8801D01*
X218103Y8761D01*
X217479Y8137D01*
X215521Y8137D01*
G37*
%LPD*%
%LPC*%
G36*
X46907Y57539D02*
X46907Y57539D01*
X46907Y63001D01*
X52367Y63001D01*
X52368Y63001D01*
X52368Y63000D01*
X52368Y57539D01*
X46907Y57539D01*
G37*
%LPD*%
%LPC*%
G36*
X92907Y103539D02*
X92907Y103539D01*
X92907Y109001D01*
X98367Y109001D01*
X98368Y109001D01*
X98368Y109000D01*
X98368Y103539D01*
X92907Y103539D01*
G37*
%LPD*%
%LPC*%
G36*
X69907Y103539D02*
X69907Y103539D01*
X69907Y109001D01*
X75367Y109001D01*
X75368Y109001D01*
X75368Y109000D01*
X75368Y103539D01*
X69907Y103539D01*
G37*
%LPD*%
%LPC*%
G36*
X92907Y57539D02*
X92907Y57539D01*
X92907Y63001D01*
X98367Y63001D01*
X98368Y63001D01*
X98368Y63000D01*
X98368Y57539D01*
X92907Y57539D01*
G37*
%LPD*%
%LPC*%
G36*
X69907Y57539D02*
X69907Y57539D01*
X69907Y63001D01*
X75367Y63001D01*
X75368Y63001D01*
X75368Y63000D01*
X75368Y57539D01*
X69907Y57539D01*
G37*
%LPD*%
%LPC*%
G36*
X46907Y103539D02*
X46907Y103539D01*
X46907Y109001D01*
X52367Y109001D01*
X52368Y109001D01*
X52368Y109000D01*
X52368Y103539D01*
X46907Y103539D01*
G37*
%LPD*%
%LPC*%
G36*
X69907Y69999D02*
X69907Y69999D01*
X69907Y75461D01*
X75368Y75461D01*
X75368Y70000D01*
X75368Y69999D01*
X75367Y69999D01*
X69907Y69999D01*
G37*
%LPD*%
%LPC*%
G36*
X46907Y69999D02*
X46907Y69999D01*
X46907Y75461D01*
X52368Y75461D01*
X52368Y70000D01*
X52368Y69999D01*
X52367Y69999D01*
X46907Y69999D01*
G37*
%LPD*%
%LPC*%
G36*
X46907Y46999D02*
X46907Y46999D01*
X46907Y52461D01*
X52368Y52461D01*
X52368Y47000D01*
X52368Y46999D01*
X52367Y46999D01*
X46907Y46999D01*
G37*
%LPD*%
%LPC*%
G36*
X92907Y69999D02*
X92907Y69999D01*
X92907Y75461D01*
X98368Y75461D01*
X98368Y70000D01*
X98368Y69999D01*
X98367Y69999D01*
X92907Y69999D01*
G37*
%LPD*%
%LPC*%
G36*
X82367Y103539D02*
X82367Y103539D01*
X82367Y109000D01*
X82367Y109001D01*
X87828Y109001D01*
X87828Y103539D01*
X82367Y103539D01*
G37*
%LPD*%
%LPC*%
G36*
X36367Y57539D02*
X36367Y57539D01*
X36367Y63000D01*
X36367Y63001D01*
X41828Y63001D01*
X41828Y57539D01*
X36367Y57539D01*
G37*
%LPD*%
%LPC*%
G36*
X36367Y103539D02*
X36367Y103539D01*
X36367Y109000D01*
X36367Y109001D01*
X41828Y109001D01*
X41828Y103539D01*
X36367Y103539D01*
G37*
%LPD*%
%LPC*%
G36*
X59367Y57539D02*
X59367Y57539D01*
X59367Y63000D01*
X59367Y63001D01*
X64828Y63001D01*
X64828Y57539D01*
X59367Y57539D01*
G37*
%LPD*%
%LPC*%
G36*
X59367Y103539D02*
X59367Y103539D01*
X59367Y109000D01*
X59367Y109001D01*
X64828Y109001D01*
X64828Y103539D01*
X59367Y103539D01*
G37*
%LPD*%
%LPC*%
G36*
X82367Y57539D02*
X82367Y57539D01*
X82367Y63000D01*
X82367Y63001D01*
X87828Y63001D01*
X87828Y57539D01*
X82367Y57539D01*
G37*
%LPD*%
%LPC*%
G36*
X59367Y69999D02*
X59367Y69999D01*
X59367Y70000D01*
X59367Y75461D01*
X64828Y75461D01*
X64828Y69999D01*
X59367Y69999D01*
G37*
%LPD*%
%LPC*%
G36*
X36367Y46999D02*
X36367Y46999D01*
X36367Y47000D01*
X36367Y52461D01*
X41828Y52461D01*
X41828Y46999D01*
X36367Y46999D01*
G37*
%LPD*%
%LPC*%
G36*
X82367Y69999D02*
X82367Y69999D01*
X82367Y70000D01*
X82367Y75461D01*
X87828Y75461D01*
X87828Y69999D01*
X82367Y69999D01*
G37*
%LPD*%
%LPC*%
G36*
X36367Y69999D02*
X36367Y69999D01*
X36367Y70000D01*
X36367Y75461D01*
X41828Y75461D01*
X41828Y69999D01*
X36367Y69999D01*
G37*
%LPD*%
%LPC*%
G36*
X26058Y99273D02*
X26058Y99273D01*
X24725Y100606D01*
X24725Y102490D01*
X26058Y103823D01*
X27942Y103823D01*
X29275Y102490D01*
X29275Y100606D01*
X27942Y99273D01*
X26058Y99273D01*
G37*
%LPD*%
%LPC*%
G36*
X26058Y108725D02*
X26058Y108725D01*
X24725Y110058D01*
X24725Y111942D01*
X26058Y113275D01*
X27942Y113275D01*
X29275Y111942D01*
X29275Y110058D01*
X27942Y108725D01*
X26058Y108725D01*
G37*
%LPD*%
G36*
X196986Y16556D02*
X196986Y16556D01*
X197105Y16563D01*
X197143Y16576D01*
X197184Y16581D01*
X197294Y16624D01*
X197407Y16661D01*
X197442Y16683D01*
X197479Y16698D01*
X197575Y16767D01*
X197676Y16831D01*
X197704Y16861D01*
X197737Y16884D01*
X197813Y16976D01*
X197894Y17063D01*
X197914Y17098D01*
X197939Y17129D01*
X197990Y17237D01*
X198048Y17341D01*
X198058Y17381D01*
X198075Y17417D01*
X198097Y17534D01*
X198127Y17649D01*
X198131Y17709D01*
X198135Y17729D01*
X198133Y17750D01*
X198137Y17810D01*
X198137Y18368D01*
X198122Y18486D01*
X198115Y18605D01*
X198102Y18643D01*
X198097Y18684D01*
X198054Y18794D01*
X198017Y18907D01*
X197995Y18942D01*
X197980Y18979D01*
X197911Y19075D01*
X197847Y19176D01*
X197817Y19204D01*
X197794Y19237D01*
X197702Y19313D01*
X197615Y19394D01*
X197580Y19414D01*
X197549Y19439D01*
X197441Y19490D01*
X197337Y19548D01*
X197297Y19558D01*
X197261Y19575D01*
X197144Y19597D01*
X197029Y19627D01*
X196969Y19631D01*
X196949Y19635D01*
X196928Y19633D01*
X196868Y19637D01*
X196310Y19637D01*
X196192Y19622D01*
X196073Y19615D01*
X196035Y19602D01*
X195994Y19597D01*
X195884Y19554D01*
X195771Y19517D01*
X195736Y19495D01*
X195699Y19480D01*
X195603Y19411D01*
X195502Y19347D01*
X195474Y19317D01*
X195441Y19294D01*
X195365Y19202D01*
X195284Y19115D01*
X195264Y19080D01*
X195239Y19049D01*
X195188Y18941D01*
X195130Y18837D01*
X195120Y18797D01*
X195103Y18761D01*
X195081Y18644D01*
X195051Y18529D01*
X195047Y18469D01*
X195043Y18449D01*
X195045Y18428D01*
X195041Y18368D01*
X195041Y17810D01*
X195056Y17692D01*
X195063Y17573D01*
X195076Y17535D01*
X195081Y17494D01*
X195124Y17384D01*
X195161Y17271D01*
X195183Y17236D01*
X195198Y17199D01*
X195267Y17103D01*
X195331Y17002D01*
X195361Y16974D01*
X195384Y16941D01*
X195476Y16865D01*
X195563Y16784D01*
X195598Y16764D01*
X195629Y16739D01*
X195737Y16688D01*
X195841Y16630D01*
X195881Y16620D01*
X195917Y16603D01*
X196034Y16581D01*
X196149Y16551D01*
X196209Y16547D01*
X196229Y16543D01*
X196250Y16545D01*
X196310Y16541D01*
X196868Y16541D01*
X196986Y16556D01*
G37*
%LPC*%
G36*
X230499Y129001D02*
X230499Y129001D01*
X232501Y129001D01*
X232501Y128473D01*
X232228Y127456D01*
X231701Y126544D01*
X230956Y125799D01*
X230499Y125535D01*
X230499Y129001D01*
G37*
%LPD*%
%LPC*%
G36*
X138044Y28799D02*
X138044Y28799D01*
X137299Y29544D01*
X136772Y30456D01*
X136499Y31473D01*
X136499Y32001D01*
X138501Y32001D01*
X138501Y28535D01*
X138044Y28799D01*
G37*
%LPD*%
%LPC*%
G36*
X70499Y6269D02*
X70499Y6269D01*
X70499Y7500D01*
X70500Y7501D01*
X73731Y7501D01*
X73731Y6269D01*
X70499Y6269D01*
G37*
%LPD*%
%LPC*%
G36*
X54269Y6269D02*
X54269Y6269D01*
X54269Y7501D01*
X57500Y7501D01*
X57501Y7500D01*
X57501Y6269D01*
X54269Y6269D01*
G37*
%LPD*%
%LPC*%
G36*
X76269Y6269D02*
X76269Y6269D01*
X76269Y7501D01*
X79500Y7501D01*
X79501Y7500D01*
X79501Y6269D01*
X76269Y6269D01*
G37*
%LPD*%
%LPC*%
G36*
X119867Y31499D02*
X119867Y31499D01*
X119867Y31500D01*
X119867Y32731D01*
X122598Y32731D01*
X122598Y31499D01*
X119867Y31499D01*
G37*
%LPD*%
%LPC*%
G36*
X125137Y31499D02*
X125137Y31499D01*
X125137Y32731D01*
X127868Y32731D01*
X127868Y31500D01*
X127868Y31499D01*
X127867Y31499D01*
X125137Y31499D01*
G37*
%LPD*%
%LPC*%
G36*
X140269Y5449D02*
X140269Y5449D01*
X140269Y6081D01*
X142731Y6081D01*
X142731Y5449D01*
X142376Y5449D01*
X142276Y5491D01*
X142214Y5546D01*
X142178Y5564D01*
X142146Y5589D01*
X142037Y5636D01*
X141931Y5690D01*
X141891Y5699D01*
X141854Y5715D01*
X141737Y5734D01*
X141620Y5760D01*
X141580Y5759D01*
X141540Y5765D01*
X141422Y5754D01*
X141303Y5750D01*
X141264Y5739D01*
X141224Y5735D01*
X141112Y5695D01*
X140997Y5662D01*
X140962Y5641D01*
X140924Y5627D01*
X140826Y5561D01*
X140723Y5500D01*
X140702Y5482D01*
X140624Y5449D01*
X140269Y5449D01*
G37*
%LPD*%
%LPC*%
G36*
X150269Y23919D02*
X150269Y23919D01*
X150269Y24551D01*
X150624Y24551D01*
X150682Y24527D01*
X150727Y24482D01*
X150751Y24424D01*
X150751Y23919D01*
X150269Y23919D01*
G37*
%LPD*%
%LPC*%
G36*
X137249Y23919D02*
X137249Y23919D01*
X137249Y24424D01*
X137273Y24482D01*
X137318Y24527D01*
X137376Y24551D01*
X137731Y24551D01*
X137731Y23919D01*
X137249Y23919D01*
G37*
%LPD*%
%LPC*%
G36*
X137376Y5449D02*
X137376Y5449D01*
X137318Y5473D01*
X137273Y5518D01*
X137249Y5576D01*
X137249Y6081D01*
X137731Y6081D01*
X137731Y5449D01*
X137376Y5449D01*
G37*
%LPD*%
%LPC*%
G36*
X44366Y54999D02*
X44366Y54999D01*
X44366Y55001D01*
X44368Y55001D01*
X44368Y54999D01*
X44366Y54999D01*
G37*
%LPD*%
%LPC*%
G36*
X90366Y54999D02*
X90366Y54999D01*
X90366Y55001D01*
X90368Y55001D01*
X90368Y54999D01*
X90366Y54999D01*
G37*
%LPD*%
D10*
X107000Y4000D03*
X102000Y4000D03*
D11*
X10867Y122000D03*
X10867Y114000D03*
X10867Y106000D03*
X10867Y98000D03*
X10867Y90000D03*
X10867Y82000D03*
X10867Y74000D03*
X10867Y66000D03*
X10867Y58000D03*
X10867Y50000D03*
X10867Y42000D03*
X10867Y34000D03*
D12*
X23367Y26000D03*
X31367Y26000D03*
X39367Y26000D03*
X47367Y26000D03*
X55367Y26000D03*
X63367Y26000D03*
X71367Y26000D03*
X79367Y26000D03*
X87367Y26000D03*
X95367Y26000D03*
X103367Y26000D03*
X111367Y26000D03*
D11*
X123867Y34000D03*
X123867Y42000D03*
X123867Y50000D03*
X123867Y58000D03*
X123867Y66000D03*
X123867Y74000D03*
X123867Y82000D03*
X123867Y90000D03*
X123867Y98000D03*
X123867Y106000D03*
X123867Y114000D03*
X123867Y122000D03*
D12*
X111367Y130000D03*
X103367Y130000D03*
X95367Y130000D03*
X87367Y130000D03*
X79367Y130000D03*
X71367Y130000D03*
X63367Y130000D03*
X55367Y130000D03*
X47367Y130000D03*
X39367Y130000D03*
X31367Y130000D03*
X23367Y130000D03*
D13*
X44367Y101000D03*
X67367Y101000D03*
X90367Y101000D03*
X44367Y78000D03*
X67367Y78000D03*
X90367Y78000D03*
X44367Y55000D03*
X67367Y55000D03*
X90367Y55000D03*
D14*
X107050Y9500D03*
X101950Y9500D03*
X107050Y15500D03*
X101950Y15500D03*
D15*
X29550Y9600D03*
X29550Y4600D03*
D16*
X23250Y4500D03*
X23250Y9600D03*
D17*
X279600Y44400D02*
X279600Y55600D01*
X279600Y44400D02*
X242400Y44400D01*
X242400Y55600D01*
X279600Y55600D01*
X279600Y47060D02*
X242400Y47060D01*
X242400Y49720D02*
X279600Y49720D01*
X279600Y52380D02*
X242400Y52380D01*
X242400Y55040D02*
X279600Y55040D01*
D18*
X251000Y50000D03*
X271000Y50000D03*
D19*
X89000Y14000D03*
X93000Y14000D03*
X93000Y10000D03*
X89000Y10000D03*
D10*
X94500Y4000D03*
X89500Y4000D03*
D20*
X13500Y20000D03*
D21*
X140500Y32000D02*
X140500Y36000D01*
X151500Y36000D02*
X151500Y32000D01*
X162500Y32000D02*
X162500Y36000D01*
X173500Y36000D02*
X173500Y32000D01*
X184500Y32000D02*
X184500Y36000D01*
X195500Y36000D02*
X195500Y32000D01*
X206500Y32000D02*
X206500Y36000D01*
X217500Y36000D02*
X217500Y32000D01*
X228500Y32000D02*
X228500Y36000D01*
X228500Y129000D02*
X228500Y133000D01*
X217500Y133000D02*
X217500Y129000D01*
X206500Y129000D02*
X206500Y133000D01*
X195500Y133000D02*
X195500Y129000D01*
X184500Y129000D02*
X184500Y133000D01*
X173500Y133000D02*
X173500Y129000D01*
X162500Y129000D02*
X162500Y133000D01*
X151500Y133000D02*
X151500Y129000D01*
X140500Y129000D02*
X140500Y133000D01*
D17*
X241900Y95600D02*
X241900Y84400D01*
X241900Y95600D02*
X279100Y95600D01*
X279100Y84400D01*
X241900Y84400D01*
X241900Y87060D02*
X279100Y87060D01*
X279100Y89720D02*
X241900Y89720D01*
X241900Y92380D02*
X279100Y92380D01*
X279100Y95040D02*
X241900Y95040D01*
D18*
X270500Y90000D03*
X250500Y90000D03*
D22*
X53000Y16000D03*
X53000Y5000D03*
X75000Y16000D03*
X75000Y5000D03*
D23*
X226500Y20500D03*
X226500Y15500D03*
X226500Y10500D03*
X221500Y20500D03*
X221500Y15500D03*
X221500Y10500D03*
X216500Y20500D03*
X216500Y15500D03*
X216500Y10500D03*
X192500Y22000D03*
X196500Y22000D03*
X200500Y22000D03*
X204500Y22000D03*
X192500Y18000D03*
X196500Y18000D03*
X200500Y18000D03*
X204500Y18000D03*
X192500Y14000D03*
X196500Y14000D03*
X200500Y14000D03*
X204500Y14000D03*
D24*
X127750Y14500D03*
X127750Y9500D03*
X127750Y4500D03*
X123500Y12000D03*
X123500Y7000D03*
X119250Y14500D03*
X119250Y9500D03*
X119250Y4500D03*
D25*
X180450Y21109D02*
X184050Y21109D01*
X184050Y7391D01*
X180450Y7391D01*
X180450Y21109D01*
X180450Y9671D02*
X184050Y9671D01*
X184050Y11951D02*
X180450Y11951D01*
X180450Y14231D02*
X184050Y14231D01*
X184050Y16511D02*
X180450Y16511D01*
X180450Y18791D02*
X184050Y18791D01*
X184050Y21071D02*
X180450Y21071D01*
X167550Y21109D02*
X163950Y21109D01*
X167550Y21109D02*
X167550Y7391D01*
X163950Y7391D01*
X163950Y21109D01*
X163950Y9671D02*
X167550Y9671D01*
X167550Y11951D02*
X163950Y11951D01*
X163950Y14231D02*
X167550Y14231D01*
X167550Y16511D02*
X163950Y16511D01*
X163950Y18791D02*
X167550Y18791D01*
X167550Y21071D02*
X163950Y21071D01*
D15*
X191500Y4000D03*
X191500Y9000D03*
X199000Y4000D03*
X199000Y9000D03*
X206500Y4000D03*
X206500Y9000D03*
D26*
X62250Y14750D03*
X65750Y14750D03*
X62250Y11250D03*
X65750Y11250D03*
D27*
X10000Y8000D03*
X40500Y8000D03*
D28*
X150057Y10757D02*
X150057Y14243D01*
X153243Y14243D01*
X153243Y10757D01*
X150057Y10757D01*
X150057Y11056D02*
X153243Y11056D01*
X153243Y11355D02*
X150057Y11355D01*
X150057Y11654D02*
X153243Y11654D01*
X153243Y11953D02*
X150057Y11953D01*
X150057Y12252D02*
X153243Y12252D01*
X153243Y12551D02*
X150057Y12551D01*
X150057Y12850D02*
X153243Y12850D01*
X153243Y13149D02*
X150057Y13149D01*
X150057Y13448D02*
X153243Y13448D01*
X153243Y13747D02*
X150057Y13747D01*
X150057Y14046D02*
X153243Y14046D01*
X150057Y15757D02*
X150057Y19243D01*
X153243Y19243D01*
X153243Y15757D01*
X150057Y15757D01*
X150057Y16056D02*
X153243Y16056D01*
X153243Y16355D02*
X150057Y16355D01*
X150057Y16654D02*
X153243Y16654D01*
X153243Y16953D02*
X150057Y16953D01*
X150057Y17252D02*
X153243Y17252D01*
X153243Y17551D02*
X150057Y17551D01*
X150057Y17850D02*
X153243Y17850D01*
X153243Y18149D02*
X150057Y18149D01*
X150057Y18448D02*
X153243Y18448D01*
X153243Y18747D02*
X150057Y18747D01*
X150057Y19046D02*
X153243Y19046D01*
X147407Y20907D02*
X147407Y24393D01*
X150593Y24393D01*
X150593Y20907D01*
X147407Y20907D01*
X147407Y21206D02*
X150593Y21206D01*
X150593Y21505D02*
X147407Y21505D01*
X147407Y21804D02*
X150593Y21804D01*
X150593Y22103D02*
X147407Y22103D01*
X147407Y22402D02*
X150593Y22402D01*
X150593Y22701D02*
X147407Y22701D01*
X147407Y23000D02*
X150593Y23000D01*
X150593Y23299D02*
X147407Y23299D01*
X147407Y23598D02*
X150593Y23598D01*
X150593Y23897D02*
X147407Y23897D01*
X147407Y24196D02*
X150593Y24196D01*
X142407Y24393D02*
X142407Y20907D01*
X142407Y24393D02*
X145593Y24393D01*
X145593Y20907D01*
X142407Y20907D01*
X142407Y21206D02*
X145593Y21206D01*
X145593Y21505D02*
X142407Y21505D01*
X142407Y21804D02*
X145593Y21804D01*
X145593Y22103D02*
X142407Y22103D01*
X142407Y22402D02*
X145593Y22402D01*
X145593Y22701D02*
X142407Y22701D01*
X142407Y23000D02*
X145593Y23000D01*
X145593Y23299D02*
X142407Y23299D01*
X142407Y23598D02*
X145593Y23598D01*
X145593Y23897D02*
X142407Y23897D01*
X142407Y24196D02*
X145593Y24196D01*
X137407Y24393D02*
X137407Y20907D01*
X137407Y24393D02*
X140593Y24393D01*
X140593Y20907D01*
X137407Y20907D01*
X137407Y21206D02*
X140593Y21206D01*
X140593Y21505D02*
X137407Y21505D01*
X137407Y21804D02*
X140593Y21804D01*
X140593Y22103D02*
X137407Y22103D01*
X137407Y22402D02*
X140593Y22402D01*
X140593Y22701D02*
X137407Y22701D01*
X137407Y23000D02*
X140593Y23000D01*
X140593Y23299D02*
X137407Y23299D01*
X137407Y23598D02*
X140593Y23598D01*
X140593Y23897D02*
X137407Y23897D01*
X137407Y24196D02*
X140593Y24196D01*
X134757Y19243D02*
X134757Y15757D01*
X134757Y19243D02*
X137943Y19243D01*
X137943Y15757D01*
X134757Y15757D01*
X134757Y16056D02*
X137943Y16056D01*
X137943Y16355D02*
X134757Y16355D01*
X134757Y16654D02*
X137943Y16654D01*
X137943Y16953D02*
X134757Y16953D01*
X134757Y17252D02*
X137943Y17252D01*
X137943Y17551D02*
X134757Y17551D01*
X134757Y17850D02*
X137943Y17850D01*
X137943Y18149D02*
X134757Y18149D01*
X134757Y18448D02*
X137943Y18448D01*
X137943Y18747D02*
X134757Y18747D01*
X134757Y19046D02*
X137943Y19046D01*
X134757Y14243D02*
X134757Y10757D01*
X134757Y14243D02*
X137943Y14243D01*
X137943Y10757D01*
X134757Y10757D01*
X134757Y11056D02*
X137943Y11056D01*
X137943Y11355D02*
X134757Y11355D01*
X134757Y11654D02*
X137943Y11654D01*
X137943Y11953D02*
X134757Y11953D01*
X134757Y12252D02*
X137943Y12252D01*
X137943Y12551D02*
X134757Y12551D01*
X134757Y12850D02*
X137943Y12850D01*
X137943Y13149D02*
X134757Y13149D01*
X134757Y13448D02*
X137943Y13448D01*
X137943Y13747D02*
X134757Y13747D01*
X134757Y14046D02*
X137943Y14046D01*
X137407Y9093D02*
X137407Y5607D01*
X137407Y9093D02*
X140593Y9093D01*
X140593Y5607D01*
X137407Y5607D01*
X137407Y5906D02*
X140593Y5906D01*
X140593Y6205D02*
X137407Y6205D01*
X137407Y6504D02*
X140593Y6504D01*
X140593Y6803D02*
X137407Y6803D01*
X137407Y7102D02*
X140593Y7102D01*
X140593Y7401D02*
X137407Y7401D01*
X137407Y7700D02*
X140593Y7700D01*
X140593Y7999D02*
X137407Y7999D01*
X137407Y8298D02*
X140593Y8298D01*
X140593Y8597D02*
X137407Y8597D01*
X137407Y8896D02*
X140593Y8896D01*
X142407Y9093D02*
X142407Y5607D01*
X142407Y9093D02*
X145593Y9093D01*
X145593Y5607D01*
X142407Y5607D01*
X142407Y5906D02*
X145593Y5906D01*
X145593Y6205D02*
X142407Y6205D01*
X142407Y6504D02*
X145593Y6504D01*
X145593Y6803D02*
X142407Y6803D01*
X142407Y7102D02*
X145593Y7102D01*
X145593Y7401D02*
X142407Y7401D01*
X142407Y7700D02*
X145593Y7700D01*
X145593Y7999D02*
X142407Y7999D01*
X142407Y8298D02*
X145593Y8298D01*
X145593Y8597D02*
X142407Y8597D01*
X142407Y8896D02*
X145593Y8896D01*
X147407Y9093D02*
X147407Y5607D01*
X147407Y9093D02*
X150593Y9093D01*
X150593Y5607D01*
X147407Y5607D01*
X147407Y5906D02*
X150593Y5906D01*
X150593Y6205D02*
X147407Y6205D01*
X147407Y6504D02*
X150593Y6504D01*
X150593Y6803D02*
X147407Y6803D01*
X147407Y7102D02*
X150593Y7102D01*
X150593Y7401D02*
X147407Y7401D01*
X147407Y7700D02*
X150593Y7700D01*
X150593Y7999D02*
X147407Y7999D01*
X147407Y8298D02*
X150593Y8298D01*
X150593Y8597D02*
X147407Y8597D01*
X147407Y8896D02*
X150593Y8896D01*
D29*
X67367Y55000D02*
X44367Y55000D01*
X67367Y55000D02*
X90367Y55000D01*
X90366Y51134D01*
X92500Y49000D01*
X11399Y73468D02*
X10867Y74000D01*
X11399Y73468D02*
X40209Y73468D01*
X41741Y75000D01*
X41741Y75374D01*
X44367Y78000D01*
X55367Y123951D02*
X55367Y130000D01*
X55367Y123951D02*
X46198Y114782D01*
X46198Y102831D02*
X44367Y101000D01*
X46198Y102831D02*
X46198Y114782D01*
X221500Y20500D02*
X226500Y20500D01*
X226500Y15500D01*
D30*
X196500Y18000D03*
X63500Y7000D03*
D29*
X73000Y7000D02*
X75000Y5000D01*
X73000Y7000D02*
X63500Y7000D01*
X89000Y4000D02*
X89500Y4000D01*
X89000Y5000D02*
X75000Y5000D01*
X107000Y4000D02*
X107500Y4500D01*
X119250Y4500D01*
X89000Y5000D02*
X89000Y10000D01*
X89000Y5000D02*
X89000Y4000D01*
X29550Y4600D02*
X29450Y4500D01*
X23250Y4500D01*
D30*
X250000Y70000D03*
X270000Y70000D03*
X230000Y70000D03*
X210000Y70000D03*
X190000Y70000D03*
X170000Y70000D03*
X150000Y70000D03*
X150000Y90000D03*
X170000Y90000D03*
X190000Y90000D03*
X210000Y90000D03*
X190000Y110000D03*
X170000Y110000D03*
X150000Y110000D03*
X270000Y110000D03*
X250000Y110000D03*
X227500Y110000D03*
X270000Y30000D03*
X250000Y30000D03*
X170000Y65000D03*
X160000Y65000D03*
X150000Y65000D03*
X180000Y65000D03*
X190000Y65000D03*
X200000Y65000D03*
X210000Y65000D03*
X220000Y65000D03*
X230000Y60000D03*
X160000Y45000D03*
X170000Y45000D03*
X180000Y45000D03*
X190000Y45000D03*
X200000Y45000D03*
X210000Y45000D03*
X150000Y45000D03*
X140000Y65000D03*
X240000Y62500D03*
X250000Y62500D03*
X260000Y62500D03*
X270000Y62500D03*
X270000Y37500D03*
X260000Y37500D03*
X250000Y37500D03*
X240000Y37500D03*
X270000Y77500D03*
X260000Y77500D03*
X250000Y77500D03*
X240000Y77500D03*
X260000Y102500D03*
X270000Y102500D03*
X250000Y102500D03*
X240000Y102500D03*
X207500Y110000D03*
X207500Y100000D03*
X220000Y82500D03*
X230000Y80000D03*
X230000Y102500D03*
X227500Y120000D03*
X207500Y120000D03*
X132500Y135000D03*
X232500Y5000D03*
X232500Y135000D03*
X211000Y5000D03*
X160000Y7500D03*
X27500Y67500D03*
X27500Y37500D03*
X57500Y37500D03*
X57500Y67500D03*
X87500Y67500D03*
X87500Y117500D03*
X107500Y117500D03*
X37500Y17500D03*
X115000Y50000D03*
X83500Y7000D03*
X220000Y45000D03*
X230000Y42500D03*
X280000Y62500D03*
X280000Y37500D03*
X280000Y77500D03*
X280000Y102500D03*
X5000Y132500D03*
D29*
X122367Y120500D02*
X123867Y122000D01*
X122367Y120500D02*
X117500Y120500D01*
X115000Y118000D01*
D30*
X115000Y118000D03*
X216500Y20500D03*
X200500Y22000D03*
D29*
X114250Y9500D02*
X107050Y9500D01*
D30*
X119250Y14500D03*
D29*
X114250Y9500D01*
D30*
X144000Y22650D03*
D29*
X123867Y114000D02*
X117867Y114000D01*
X115500Y111633D01*
X115500Y110000D01*
D30*
X115500Y110000D03*
X216500Y15500D03*
X204500Y22000D03*
D29*
X122286Y15758D02*
X120508Y17536D01*
X117992Y17536D01*
X122286Y12624D02*
X123205Y11705D01*
X122286Y12624D02*
X122286Y15758D01*
X117992Y17536D02*
X115956Y15500D01*
X107050Y15500D01*
D30*
X123500Y12000D03*
X151650Y17500D03*
X187286Y23140D03*
X111000Y43000D03*
D29*
X63367Y39000D02*
X63367Y26000D01*
X63367Y39000D02*
X67367Y43000D01*
X111000Y43000D01*
D30*
X151400Y37500D03*
D29*
X151500Y37525D02*
X151500Y34000D01*
X151400Y37500D02*
X151500Y37525D01*
D30*
X162500Y37500D03*
X105000Y37000D03*
D29*
X162500Y37500D02*
X162500Y34000D01*
X103000Y39000D02*
X75000Y39000D01*
X71000Y35000D01*
X71000Y26367D01*
X71367Y26000D01*
X103000Y39000D02*
X105000Y37000D01*
X79367Y121367D02*
X79367Y130000D01*
X79367Y121367D02*
X78000Y120000D01*
D30*
X78000Y120000D03*
X27000Y101548D03*
D29*
X71367Y122867D02*
X71367Y130000D01*
X71367Y122867D02*
X70000Y121500D01*
X70000Y120000D01*
D30*
X70000Y120000D03*
X27000Y111000D03*
D29*
X31367Y130000D02*
X39367Y130000D01*
X46367Y122500D02*
X47367Y123500D01*
X47367Y130000D01*
X46367Y122500D02*
X24500Y122500D01*
X23367Y123633D02*
X23367Y130000D01*
X23367Y123633D02*
X24500Y122500D01*
X62250Y14750D02*
X62250Y11250D01*
D30*
X226500Y10500D03*
X196500Y14000D03*
D31*
X196500Y11500D02*
X199000Y9000D01*
X196500Y11500D02*
X196500Y14000D01*
D30*
X195600Y30900D03*
D29*
X62250Y14750D02*
X62176Y14750D01*
D30*
X62176Y14750D03*
D31*
X195500Y31000D02*
X195500Y34000D01*
X195500Y31000D02*
X195600Y30900D01*
X53000Y16000D02*
X45000Y16000D01*
X40500Y11500D02*
X40500Y8000D01*
X40500Y11500D02*
X45000Y16000D01*
X53000Y16000D02*
X61000Y16000D01*
X62250Y14750D01*
D32*
X123367Y89500D02*
X123867Y90000D01*
D30*
X93000Y14000D03*
X127750Y14500D03*
X149000Y7350D03*
D32*
X123867Y90000D02*
X109000Y90000D01*
D30*
X109000Y90000D03*
X87851Y34851D03*
D32*
X84000Y16000D02*
X75000Y16000D01*
X84000Y16000D02*
X87000Y19000D01*
X90000Y19000D01*
X94500Y4000D02*
X102000Y4000D01*
X101950Y9500D02*
X101950Y15500D01*
X101950Y4050D02*
X102000Y4000D01*
X101950Y4050D02*
X101950Y9500D01*
X151650Y10000D02*
X151650Y12500D01*
X151650Y10000D02*
X149000Y7350D01*
X130750Y17500D02*
X127750Y14500D01*
X130750Y17500D02*
X136350Y17500D01*
X75000Y16000D02*
X74900Y15900D01*
D31*
X66900Y15900D02*
X65750Y14750D01*
D32*
X66900Y15900D02*
X74900Y15900D01*
X10867Y90000D02*
X10867Y98000D01*
X10867Y90000D02*
X10867Y82000D01*
X27000Y90000D02*
X109000Y90000D01*
X27000Y90000D02*
X10867Y90000D01*
X90000Y19000D02*
X93000Y16000D01*
X93000Y14000D01*
X94500Y15500D01*
X101950Y15500D01*
D30*
X27000Y90000D03*
D29*
X63367Y121867D02*
X63367Y130000D01*
X63367Y121867D02*
X56500Y115000D01*
D30*
X56500Y115000D03*
X24000Y18000D03*
D29*
X24000Y10350D02*
X23250Y9600D01*
X24000Y10350D02*
X24000Y18000D01*
X119867Y106000D02*
X123867Y106000D01*
X119867Y106000D02*
X115434Y101566D01*
X115500Y101500D01*
D30*
X115500Y101500D03*
X30000Y18000D03*
D29*
X30000Y10050D01*
X29550Y9600D01*
D33*
X149899Y55000D02*
X217134Y55000D01*
X217372Y54997D01*
X217610Y54989D01*
X217847Y54975D01*
X218085Y54955D01*
X218321Y54929D01*
X218557Y54898D01*
X218792Y54862D01*
X219027Y54819D01*
X219260Y54771D01*
X219492Y54718D01*
X219722Y54659D01*
X219951Y54595D01*
X220179Y54525D01*
X220405Y54450D01*
X220629Y54369D01*
X220851Y54284D01*
X221071Y54193D01*
X221288Y54096D01*
X221504Y53995D01*
X221716Y53888D01*
X221927Y53777D01*
X222134Y53660D01*
X222339Y53539D01*
X222541Y53412D01*
X222739Y53281D01*
X222935Y53146D01*
X223127Y53005D01*
X223316Y52860D01*
X223501Y52711D01*
X223683Y52557D01*
X223861Y52399D01*
X224025Y52254D01*
X224193Y52112D01*
X224364Y51974D01*
X224538Y51840D01*
X224715Y51711D01*
X224896Y51586D01*
X225079Y51465D01*
X225265Y51348D01*
X225454Y51236D01*
X225645Y51129D01*
X225839Y51026D01*
X226036Y50927D01*
X226234Y50834D01*
X226435Y50745D01*
X226638Y50661D01*
X226843Y50582D01*
X227049Y50507D01*
X227258Y50438D01*
X227468Y50374D01*
X227679Y50314D01*
X227892Y50260D01*
X228106Y50211D01*
X228321Y50167D01*
X228537Y50128D01*
X228754Y50094D01*
X228972Y50065D01*
X229190Y50042D01*
X229409Y50024D01*
X229628Y50010D01*
X229847Y50003D01*
X230067Y50000D01*
X261000Y50000D01*
X149899Y55000D02*
X149659Y54997D01*
X149420Y54989D01*
X149181Y54974D01*
X148942Y54954D01*
X148704Y54928D01*
X148467Y54897D01*
X148230Y54860D01*
X147994Y54817D01*
X147760Y54769D01*
X147526Y54714D01*
X147294Y54655D01*
X147064Y54590D01*
X146835Y54519D01*
X146608Y54443D01*
X146383Y54361D01*
X146159Y54274D01*
X145938Y54182D01*
X145720Y54085D01*
X145503Y53982D01*
X145289Y53874D01*
X145078Y53761D01*
X144870Y53643D01*
X144664Y53520D01*
X144461Y53392D01*
X144262Y53260D01*
X144066Y53122D01*
X143873Y52980D01*
X143684Y52834D01*
X143498Y52683D01*
X143315Y52527D01*
X143137Y52367D01*
X142963Y52203D01*
X135272Y44797D01*
D34*
X135271Y44797D02*
X135097Y44633D01*
X134919Y44473D01*
X134736Y44317D01*
X134550Y44166D01*
X134361Y44020D01*
X134168Y43878D01*
X133972Y43740D01*
X133773Y43608D01*
X133570Y43480D01*
X133364Y43357D01*
X133156Y43239D01*
X132945Y43126D01*
X132731Y43018D01*
X132514Y42915D01*
X132296Y42818D01*
X132075Y42726D01*
X131851Y42639D01*
X131626Y42557D01*
X131399Y42481D01*
X131170Y42410D01*
X130940Y42345D01*
X130708Y42286D01*
X130474Y42231D01*
X130240Y42183D01*
X130004Y42140D01*
X129767Y42103D01*
X129530Y42072D01*
X129292Y42046D01*
X129053Y42026D01*
X128814Y42011D01*
X128575Y42003D01*
X128335Y42000D01*
X123867Y42000D01*
D29*
X111367Y26000D02*
X113867Y23500D01*
X119000Y23500D01*
D30*
X93000Y10000D03*
X119000Y23500D03*
X217600Y37500D03*
X89000Y14000D03*
D31*
X217500Y37500D02*
X217600Y37500D01*
X217500Y37500D02*
X217500Y34000D01*
D33*
X217500Y129500D02*
X217500Y131000D01*
X217500Y107107D01*
X217505Y106694D01*
X217520Y106281D01*
X217545Y105868D01*
X217580Y105456D01*
X217625Y105045D01*
X217680Y104635D01*
X217744Y104227D01*
X217819Y103820D01*
X217903Y103416D01*
X217997Y103013D01*
X218101Y102613D01*
X218214Y102215D01*
X218337Y101821D01*
X218470Y101429D01*
X218612Y101041D01*
X218763Y100656D01*
X218923Y100275D01*
X219093Y99898D01*
X219272Y99525D01*
X219460Y99157D01*
X219656Y98793D01*
X219861Y98434D01*
X220075Y98081D01*
X220298Y97732D01*
X220528Y97389D01*
X220767Y97052D01*
X221014Y96720D01*
X221269Y96395D01*
X221532Y96076D01*
X221802Y95763D01*
X222080Y95457D01*
X222365Y95158D01*
X222658Y94865D01*
X222957Y94580D01*
X223263Y94302D01*
X223576Y94032D01*
X223895Y93769D01*
X224220Y93514D01*
X224552Y93267D01*
X224889Y93028D01*
X225232Y92798D01*
X225581Y92575D01*
X225934Y92361D01*
X226293Y92156D01*
X226657Y91960D01*
X227025Y91772D01*
X227398Y91593D01*
X227775Y91423D01*
X228156Y91263D01*
X228541Y91112D01*
X228929Y90970D01*
X229321Y90837D01*
X229715Y90714D01*
X230113Y90601D01*
X230513Y90497D01*
X230916Y90403D01*
X231320Y90319D01*
X231727Y90244D01*
X232135Y90180D01*
X232545Y90125D01*
X232956Y90080D01*
X233368Y90045D01*
X233781Y90020D01*
X234194Y90005D01*
X234607Y90000D01*
X260500Y90000D01*
D30*
X95000Y120000D03*
D29*
X95367Y120367D01*
X95367Y130000D01*
D30*
X228700Y37500D03*
D35*
X228500Y37300D01*
X228500Y34000D01*
D30*
X174000Y18000D03*
D31*
X182250Y18000D02*
X192500Y18000D01*
X182250Y18000D02*
X182250Y14250D01*
X182250Y18000D02*
X174000Y18000D01*
X182250Y9000D02*
X191500Y9000D01*
X182250Y9000D02*
X182250Y14250D01*
D30*
X192500Y14000D03*
X174000Y10000D03*
D29*
X165750Y10250D02*
X165750Y14250D01*
D31*
X166000Y10000D02*
X174000Y10000D01*
X166000Y10000D02*
X165750Y10250D01*
D29*
X200500Y14000D02*
X201376Y13124D01*
X201376Y12706D01*
X205000Y9082D02*
X206500Y9000D01*
X205000Y9082D02*
X201376Y12706D01*
M02*
