G04 EAGLE Gerber RS-274X export*
G75*
%MOMM*%
%FSLAX34Y34*%
%LPD*%
%IN*%
%IPPOS*%
%AMOC8*
5,1,8,0,0,1.08239X$1,22.5*%
G01*
%ADD10C,0.254000*%


D10*
X1000Y10000D02*
X1038Y9128D01*
X1152Y8264D01*
X1341Y7412D01*
X1603Y6580D01*
X1937Y5774D01*
X2340Y5000D01*
X2808Y4264D01*
X3340Y3572D01*
X3929Y2929D01*
X4572Y2340D01*
X5264Y1808D01*
X6000Y1340D01*
X6774Y937D01*
X7580Y603D01*
X8412Y341D01*
X9264Y152D01*
X10128Y38D01*
X11000Y0D01*
X228000Y0D01*
X228872Y38D01*
X229736Y152D01*
X230588Y341D01*
X231420Y603D01*
X232226Y937D01*
X233000Y1340D01*
X233736Y1808D01*
X234428Y2340D01*
X235071Y2929D01*
X235660Y3572D01*
X236192Y4264D01*
X236660Y5000D01*
X237063Y5774D01*
X237397Y6580D01*
X237659Y7412D01*
X237848Y8264D01*
X237962Y9128D01*
X238000Y10000D01*
X238000Y15000D01*
X238038Y15872D01*
X238152Y16736D01*
X238341Y17588D01*
X238603Y18420D01*
X238937Y19226D01*
X239340Y20000D01*
X239808Y20736D01*
X240340Y21428D01*
X240929Y22071D01*
X241572Y22660D01*
X242264Y23192D01*
X243000Y23660D01*
X243774Y24063D01*
X244580Y24397D01*
X245412Y24659D01*
X246264Y24848D01*
X247128Y24962D01*
X248000Y25000D01*
X273000Y25000D01*
X273872Y25038D01*
X274736Y25152D01*
X275588Y25341D01*
X276420Y25603D01*
X277226Y25937D01*
X278000Y26340D01*
X278736Y26808D01*
X279428Y27340D01*
X280071Y27929D01*
X280660Y28572D01*
X281192Y29264D01*
X281660Y30000D01*
X282063Y30774D01*
X282397Y31580D01*
X282659Y32412D01*
X282848Y33264D01*
X282962Y34128D01*
X283000Y35000D01*
X283000Y105000D01*
X282962Y105872D01*
X282848Y106736D01*
X282659Y107588D01*
X282397Y108420D01*
X282063Y109226D01*
X281660Y110000D01*
X281192Y110736D01*
X280660Y111428D01*
X280071Y112071D01*
X279428Y112660D01*
X278736Y113192D01*
X278000Y113660D01*
X277226Y114063D01*
X276420Y114397D01*
X275588Y114659D01*
X274736Y114848D01*
X273872Y114962D01*
X273000Y115000D01*
X249000Y115000D01*
X248128Y115038D01*
X247264Y115152D01*
X246412Y115341D01*
X245580Y115603D01*
X244774Y115937D01*
X244000Y116340D01*
X243264Y116808D01*
X242572Y117340D01*
X241929Y117929D01*
X241340Y118572D01*
X240808Y119264D01*
X240340Y120000D01*
X239937Y120774D01*
X239603Y121580D01*
X239341Y122412D01*
X239152Y123264D01*
X239038Y124128D01*
X239000Y125000D01*
X239000Y130000D01*
X238962Y130872D01*
X238848Y131736D01*
X238659Y132588D01*
X238397Y133420D01*
X238063Y134226D01*
X237660Y135000D01*
X237192Y135736D01*
X236660Y136428D01*
X236071Y137071D01*
X235428Y137660D01*
X234736Y138192D01*
X234000Y138660D01*
X233226Y139063D01*
X232420Y139397D01*
X231588Y139659D01*
X230736Y139848D01*
X229872Y139962D01*
X229000Y140000D01*
X11000Y140000D01*
X10128Y139962D01*
X9264Y139848D01*
X8412Y139659D01*
X7580Y139397D01*
X6774Y139063D01*
X6000Y138660D01*
X5264Y138192D01*
X4572Y137660D01*
X3929Y137071D01*
X3340Y136428D01*
X2808Y135736D01*
X2340Y135000D01*
X1937Y134226D01*
X1603Y133420D01*
X1341Y132588D01*
X1152Y131736D01*
X1038Y130872D01*
X1000Y130000D01*
X1000Y10000D01*
M02*
