G04 EAGLE Gerber RS-274X export*
G75*
%MOMM*%
%FSLAX34Y34*%
%LPD*%
%INSoldermask Top*%
%IPPOS*%
%AMOC8*
5,1,8,0,0,1.08239X$1,22.5*%
G01*
%ADD10R,0.250000X0.350000*%
%ADD11R,0.800000X0.500000*%
%ADD12R,0.500000X0.800000*%
%ADD13R,1.600000X1.600000*%
%ADD14R,0.280000X0.430000*%
%ADD15R,0.350000X0.250000*%
%ADD16R,0.430000X0.280000*%
%ADD17C,0.280000*%
%ADD18C,1.108000*%
%ADD19C,0.250000*%
%ADD20C,0.958000*%
%ADD21C,0.800000*%
%ADD22R,0.900000X0.500000*%
%ADD23C,0.240000*%
%ADD24C,0.240000*%
%ADD25C,0.200000*%
%ADD26C,1.016000*%
%ADD27C,0.031500*%


D10*
X107000Y4000D03*
X102000Y4000D03*
D11*
X10867Y122000D03*
X10867Y114000D03*
X10867Y106000D03*
X10867Y98000D03*
X10867Y90000D03*
X10867Y82000D03*
X10867Y74000D03*
X10867Y66000D03*
X10867Y58000D03*
X10867Y50000D03*
X10867Y42000D03*
X10867Y34000D03*
D12*
X23367Y26000D03*
X31367Y26000D03*
X39367Y26000D03*
X47367Y26000D03*
X55367Y26000D03*
X63367Y26000D03*
X71367Y26000D03*
X79367Y26000D03*
X87367Y26000D03*
X95367Y26000D03*
X103367Y26000D03*
X111367Y26000D03*
D11*
X123867Y34000D03*
X123867Y42000D03*
X123867Y50000D03*
X123867Y58000D03*
X123867Y66000D03*
X123867Y74000D03*
X123867Y82000D03*
X123867Y90000D03*
X123867Y98000D03*
X123867Y106000D03*
X123867Y114000D03*
X123867Y122000D03*
D12*
X111367Y130000D03*
X103367Y130000D03*
X95367Y130000D03*
X87367Y130000D03*
X79367Y130000D03*
X71367Y130000D03*
X63367Y130000D03*
X55367Y130000D03*
X47367Y130000D03*
X39367Y130000D03*
X31367Y130000D03*
X23367Y130000D03*
D13*
X44367Y101000D03*
X67367Y101000D03*
X90367Y101000D03*
X44367Y78000D03*
X67367Y78000D03*
X90367Y78000D03*
X44367Y55000D03*
X67367Y55000D03*
X90367Y55000D03*
D14*
X107050Y9500D03*
X101950Y9500D03*
X107050Y15500D03*
X101950Y15500D03*
D15*
X29550Y9600D03*
X29550Y4600D03*
D16*
X23250Y4500D03*
X23250Y9600D03*
D17*
X279600Y44400D02*
X279600Y55600D01*
X279600Y44400D02*
X242400Y44400D01*
X242400Y55600D01*
X279600Y55600D01*
X279600Y47060D02*
X242400Y47060D01*
X242400Y49720D02*
X279600Y49720D01*
X279600Y52380D02*
X242400Y52380D01*
X242400Y55040D02*
X279600Y55040D01*
D18*
X251000Y50000D03*
X271000Y50000D03*
D19*
X89000Y14000D03*
X93000Y14000D03*
X93000Y10000D03*
X89000Y10000D03*
D10*
X94500Y4000D03*
X89500Y4000D03*
D20*
X13500Y20000D03*
D21*
X140500Y32000D02*
X140500Y36000D01*
X151500Y36000D02*
X151500Y32000D01*
X162500Y32000D02*
X162500Y36000D01*
X173500Y36000D02*
X173500Y32000D01*
X184500Y32000D02*
X184500Y36000D01*
X195500Y36000D02*
X195500Y32000D01*
X206500Y32000D02*
X206500Y36000D01*
X217500Y36000D02*
X217500Y32000D01*
X228500Y32000D02*
X228500Y36000D01*
X228500Y129000D02*
X228500Y133000D01*
X217500Y133000D02*
X217500Y129000D01*
X206500Y129000D02*
X206500Y133000D01*
X195500Y133000D02*
X195500Y129000D01*
X184500Y129000D02*
X184500Y133000D01*
X173500Y133000D02*
X173500Y129000D01*
X162500Y129000D02*
X162500Y133000D01*
X151500Y133000D02*
X151500Y129000D01*
X140500Y129000D02*
X140500Y133000D01*
D17*
X241900Y95600D02*
X241900Y84400D01*
X241900Y95600D02*
X279100Y95600D01*
X279100Y84400D01*
X241900Y84400D01*
X241900Y87060D02*
X279100Y87060D01*
X279100Y89720D02*
X241900Y89720D01*
X241900Y92380D02*
X279100Y92380D01*
X279100Y95040D02*
X241900Y95040D01*
D18*
X270500Y90000D03*
X250500Y90000D03*
D22*
X53000Y16000D03*
X53000Y5000D03*
X75000Y16000D03*
X75000Y5000D03*
D19*
X226500Y20500D03*
X226500Y15500D03*
X226500Y10500D03*
X221500Y20500D03*
X221500Y15500D03*
X221500Y10500D03*
X216500Y20500D03*
X216500Y15500D03*
X216500Y10500D03*
X192500Y22000D03*
X196500Y22000D03*
X200500Y22000D03*
X204500Y22000D03*
X192500Y18000D03*
X196500Y18000D03*
X200500Y18000D03*
X204500Y18000D03*
X192500Y14000D03*
X196500Y14000D03*
X200500Y14000D03*
X204500Y14000D03*
D23*
X127750Y14500D03*
X127750Y9500D03*
X127750Y4500D03*
X123500Y12000D03*
X123500Y7000D03*
X119250Y14500D03*
X119250Y9500D03*
X119250Y4500D03*
D24*
X180450Y21109D02*
X184050Y21109D01*
X184050Y7391D01*
X180450Y7391D01*
X180450Y21109D01*
X180450Y9671D02*
X184050Y9671D01*
X184050Y11951D02*
X180450Y11951D01*
X180450Y14231D02*
X184050Y14231D01*
X184050Y16511D02*
X180450Y16511D01*
X180450Y18791D02*
X184050Y18791D01*
X184050Y21071D02*
X180450Y21071D01*
X167550Y21109D02*
X163950Y21109D01*
X167550Y21109D02*
X167550Y7391D01*
X163950Y7391D01*
X163950Y21109D01*
X163950Y9671D02*
X167550Y9671D01*
X167550Y11951D02*
X163950Y11951D01*
X163950Y14231D02*
X167550Y14231D01*
X167550Y16511D02*
X163950Y16511D01*
X163950Y18791D02*
X167550Y18791D01*
X167550Y21071D02*
X163950Y21071D01*
D15*
X191500Y4000D03*
X191500Y9000D03*
X199000Y4000D03*
X199000Y9000D03*
X206500Y4000D03*
X206500Y9000D03*
D25*
X62250Y14750D03*
X65750Y14750D03*
X65750Y11250D03*
X62250Y11250D03*
D26*
X10000Y8000D03*
X40500Y8000D03*
D27*
X150057Y10757D02*
X150057Y14243D01*
X153243Y14243D01*
X153243Y10757D01*
X150057Y10757D01*
X150057Y11056D02*
X153243Y11056D01*
X153243Y11355D02*
X150057Y11355D01*
X150057Y11654D02*
X153243Y11654D01*
X153243Y11953D02*
X150057Y11953D01*
X150057Y12252D02*
X153243Y12252D01*
X153243Y12551D02*
X150057Y12551D01*
X150057Y12850D02*
X153243Y12850D01*
X153243Y13149D02*
X150057Y13149D01*
X150057Y13448D02*
X153243Y13448D01*
X153243Y13747D02*
X150057Y13747D01*
X150057Y14046D02*
X153243Y14046D01*
X150057Y15757D02*
X150057Y19243D01*
X153243Y19243D01*
X153243Y15757D01*
X150057Y15757D01*
X150057Y16056D02*
X153243Y16056D01*
X153243Y16355D02*
X150057Y16355D01*
X150057Y16654D02*
X153243Y16654D01*
X153243Y16953D02*
X150057Y16953D01*
X150057Y17252D02*
X153243Y17252D01*
X153243Y17551D02*
X150057Y17551D01*
X150057Y17850D02*
X153243Y17850D01*
X153243Y18149D02*
X150057Y18149D01*
X150057Y18448D02*
X153243Y18448D01*
X153243Y18747D02*
X150057Y18747D01*
X150057Y19046D02*
X153243Y19046D01*
X147407Y20907D02*
X147407Y24393D01*
X150593Y24393D01*
X150593Y20907D01*
X147407Y20907D01*
X147407Y21206D02*
X150593Y21206D01*
X150593Y21505D02*
X147407Y21505D01*
X147407Y21804D02*
X150593Y21804D01*
X150593Y22103D02*
X147407Y22103D01*
X147407Y22402D02*
X150593Y22402D01*
X150593Y22701D02*
X147407Y22701D01*
X147407Y23000D02*
X150593Y23000D01*
X150593Y23299D02*
X147407Y23299D01*
X147407Y23598D02*
X150593Y23598D01*
X150593Y23897D02*
X147407Y23897D01*
X147407Y24196D02*
X150593Y24196D01*
X142407Y24393D02*
X142407Y20907D01*
X142407Y24393D02*
X145593Y24393D01*
X145593Y20907D01*
X142407Y20907D01*
X142407Y21206D02*
X145593Y21206D01*
X145593Y21505D02*
X142407Y21505D01*
X142407Y21804D02*
X145593Y21804D01*
X145593Y22103D02*
X142407Y22103D01*
X142407Y22402D02*
X145593Y22402D01*
X145593Y22701D02*
X142407Y22701D01*
X142407Y23000D02*
X145593Y23000D01*
X145593Y23299D02*
X142407Y23299D01*
X142407Y23598D02*
X145593Y23598D01*
X145593Y23897D02*
X142407Y23897D01*
X142407Y24196D02*
X145593Y24196D01*
X137407Y24393D02*
X137407Y20907D01*
X137407Y24393D02*
X140593Y24393D01*
X140593Y20907D01*
X137407Y20907D01*
X137407Y21206D02*
X140593Y21206D01*
X140593Y21505D02*
X137407Y21505D01*
X137407Y21804D02*
X140593Y21804D01*
X140593Y22103D02*
X137407Y22103D01*
X137407Y22402D02*
X140593Y22402D01*
X140593Y22701D02*
X137407Y22701D01*
X137407Y23000D02*
X140593Y23000D01*
X140593Y23299D02*
X137407Y23299D01*
X137407Y23598D02*
X140593Y23598D01*
X140593Y23897D02*
X137407Y23897D01*
X137407Y24196D02*
X140593Y24196D01*
X134757Y19243D02*
X134757Y15757D01*
X134757Y19243D02*
X137943Y19243D01*
X137943Y15757D01*
X134757Y15757D01*
X134757Y16056D02*
X137943Y16056D01*
X137943Y16355D02*
X134757Y16355D01*
X134757Y16654D02*
X137943Y16654D01*
X137943Y16953D02*
X134757Y16953D01*
X134757Y17252D02*
X137943Y17252D01*
X137943Y17551D02*
X134757Y17551D01*
X134757Y17850D02*
X137943Y17850D01*
X137943Y18149D02*
X134757Y18149D01*
X134757Y18448D02*
X137943Y18448D01*
X137943Y18747D02*
X134757Y18747D01*
X134757Y19046D02*
X137943Y19046D01*
X134757Y14243D02*
X134757Y10757D01*
X134757Y14243D02*
X137943Y14243D01*
X137943Y10757D01*
X134757Y10757D01*
X134757Y11056D02*
X137943Y11056D01*
X137943Y11355D02*
X134757Y11355D01*
X134757Y11654D02*
X137943Y11654D01*
X137943Y11953D02*
X134757Y11953D01*
X134757Y12252D02*
X137943Y12252D01*
X137943Y12551D02*
X134757Y12551D01*
X134757Y12850D02*
X137943Y12850D01*
X137943Y13149D02*
X134757Y13149D01*
X134757Y13448D02*
X137943Y13448D01*
X137943Y13747D02*
X134757Y13747D01*
X134757Y14046D02*
X137943Y14046D01*
X137407Y9093D02*
X137407Y5607D01*
X137407Y9093D02*
X140593Y9093D01*
X140593Y5607D01*
X137407Y5607D01*
X137407Y5906D02*
X140593Y5906D01*
X140593Y6205D02*
X137407Y6205D01*
X137407Y6504D02*
X140593Y6504D01*
X140593Y6803D02*
X137407Y6803D01*
X137407Y7102D02*
X140593Y7102D01*
X140593Y7401D02*
X137407Y7401D01*
X137407Y7700D02*
X140593Y7700D01*
X140593Y7999D02*
X137407Y7999D01*
X137407Y8298D02*
X140593Y8298D01*
X140593Y8597D02*
X137407Y8597D01*
X137407Y8896D02*
X140593Y8896D01*
X142407Y9093D02*
X142407Y5607D01*
X142407Y9093D02*
X145593Y9093D01*
X145593Y5607D01*
X142407Y5607D01*
X142407Y5906D02*
X145593Y5906D01*
X145593Y6205D02*
X142407Y6205D01*
X142407Y6504D02*
X145593Y6504D01*
X145593Y6803D02*
X142407Y6803D01*
X142407Y7102D02*
X145593Y7102D01*
X145593Y7401D02*
X142407Y7401D01*
X142407Y7700D02*
X145593Y7700D01*
X145593Y7999D02*
X142407Y7999D01*
X142407Y8298D02*
X145593Y8298D01*
X145593Y8597D02*
X142407Y8597D01*
X142407Y8896D02*
X145593Y8896D01*
X147407Y9093D02*
X147407Y5607D01*
X147407Y9093D02*
X150593Y9093D01*
X150593Y5607D01*
X147407Y5607D01*
X147407Y5906D02*
X150593Y5906D01*
X150593Y6205D02*
X147407Y6205D01*
X147407Y6504D02*
X150593Y6504D01*
X150593Y6803D02*
X147407Y6803D01*
X147407Y7102D02*
X150593Y7102D01*
X150593Y7401D02*
X147407Y7401D01*
X147407Y7700D02*
X150593Y7700D01*
X150593Y7999D02*
X147407Y7999D01*
X147407Y8298D02*
X150593Y8298D01*
X150593Y8597D02*
X147407Y8597D01*
X147407Y8896D02*
X150593Y8896D01*
M02*
