G04 EAGLE Gerber RS-274X export*
G75*
%MOMM*%
%FSLAX34Y34*%
%LPD*%
%INSolderpaste Top*%
%IPPOS*%
%AMOC8*
5,1,8,0,0,1.08239X$1,22.5*%
G01*
%ADD10R,0.200000X0.300000*%
%ADD11R,0.700000X0.400000*%
%ADD12R,0.400000X0.700000*%
%ADD13R,1.280000X1.280000*%
%ADD14R,0.224000X0.374000*%
%ADD15R,0.300000X0.200000*%
%ADD16R,0.374000X0.224000*%
%ADD17R,3.720000X1.120000*%
%ADD18C,0.200000*%
%ADD19R,0.800000X0.400000*%
%ADD20C,0.192000*%
%ADD21C,0.120000*%
%ADD22R,0.280000X0.310000*%

G36*
X205301Y20695D02*
X205301Y20695D01*
X205492Y20733D01*
X205493Y20734D01*
X205494Y20734D01*
X205656Y20842D01*
X205657Y20844D01*
X205658Y20844D01*
X205766Y21006D01*
X205766Y21007D01*
X205767Y21008D01*
X205769Y21017D01*
X205772Y21032D01*
X205775Y21047D01*
X205777Y21057D01*
X205780Y21072D01*
X205783Y21087D01*
X205788Y21112D01*
X205790Y21127D01*
X205791Y21127D01*
X205790Y21127D01*
X205795Y21151D01*
X205795Y21152D01*
X205798Y21166D01*
X205801Y21181D01*
X205803Y21191D01*
X205805Y21199D01*
X205805Y21200D01*
X205805Y22800D01*
X205805Y22801D01*
X205767Y22992D01*
X205766Y22993D01*
X205766Y22994D01*
X205658Y23156D01*
X205657Y23157D01*
X205656Y23158D01*
X205494Y23266D01*
X205493Y23266D01*
X205492Y23267D01*
X205301Y23305D01*
X205300Y23305D01*
X203700Y23305D01*
X203699Y23305D01*
X203508Y23267D01*
X203507Y23266D01*
X203506Y23266D01*
X203344Y23158D01*
X203343Y23157D01*
X203342Y23156D01*
X203234Y22994D01*
X203234Y22993D01*
X203233Y22992D01*
X203231Y22981D01*
X203228Y22966D01*
X203225Y22951D01*
X203223Y22942D01*
X203223Y22941D01*
X203220Y22927D01*
X203217Y22912D01*
X203215Y22902D01*
X203212Y22887D01*
X203209Y22872D01*
X203204Y22847D01*
X203201Y22832D01*
X203196Y22807D01*
X203195Y22801D01*
X203195Y22800D01*
X203195Y21200D01*
X203195Y21199D01*
X203233Y21008D01*
X203234Y21007D01*
X203234Y21006D01*
X203342Y20844D01*
X203344Y20843D01*
X203344Y20842D01*
X203506Y20734D01*
X203507Y20734D01*
X203508Y20733D01*
X203699Y20695D01*
X203700Y20695D01*
X205300Y20695D01*
X205301Y20695D01*
G37*
G36*
X201301Y20695D02*
X201301Y20695D01*
X201492Y20733D01*
X201493Y20734D01*
X201494Y20734D01*
X201656Y20842D01*
X201657Y20844D01*
X201658Y20844D01*
X201766Y21006D01*
X201766Y21007D01*
X201767Y21008D01*
X201769Y21017D01*
X201772Y21032D01*
X201775Y21047D01*
X201777Y21057D01*
X201780Y21072D01*
X201783Y21087D01*
X201788Y21112D01*
X201790Y21127D01*
X201791Y21127D01*
X201790Y21127D01*
X201795Y21151D01*
X201795Y21152D01*
X201798Y21166D01*
X201801Y21181D01*
X201803Y21191D01*
X201805Y21199D01*
X201805Y21200D01*
X201805Y22800D01*
X201805Y22801D01*
X201767Y22992D01*
X201766Y22993D01*
X201766Y22994D01*
X201658Y23156D01*
X201657Y23157D01*
X201656Y23158D01*
X201494Y23266D01*
X201493Y23266D01*
X201492Y23267D01*
X201301Y23305D01*
X201300Y23305D01*
X199700Y23305D01*
X199699Y23305D01*
X199508Y23267D01*
X199507Y23266D01*
X199506Y23266D01*
X199344Y23158D01*
X199343Y23157D01*
X199342Y23156D01*
X199234Y22994D01*
X199234Y22993D01*
X199233Y22992D01*
X199231Y22981D01*
X199228Y22966D01*
X199225Y22951D01*
X199223Y22942D01*
X199223Y22941D01*
X199220Y22927D01*
X199217Y22912D01*
X199215Y22902D01*
X199212Y22887D01*
X199209Y22872D01*
X199204Y22847D01*
X199201Y22832D01*
X199196Y22807D01*
X199195Y22801D01*
X199195Y22800D01*
X199195Y21200D01*
X199195Y21199D01*
X199233Y21008D01*
X199234Y21007D01*
X199234Y21006D01*
X199342Y20844D01*
X199344Y20843D01*
X199344Y20842D01*
X199506Y20734D01*
X199507Y20734D01*
X199508Y20733D01*
X199699Y20695D01*
X199700Y20695D01*
X201300Y20695D01*
X201301Y20695D01*
G37*
G36*
X193301Y20695D02*
X193301Y20695D01*
X193492Y20733D01*
X193493Y20734D01*
X193494Y20734D01*
X193656Y20842D01*
X193657Y20844D01*
X193658Y20844D01*
X193766Y21006D01*
X193766Y21007D01*
X193767Y21008D01*
X193769Y21017D01*
X193772Y21032D01*
X193775Y21047D01*
X193777Y21057D01*
X193780Y21072D01*
X193783Y21087D01*
X193788Y21112D01*
X193790Y21127D01*
X193791Y21127D01*
X193790Y21127D01*
X193795Y21151D01*
X193795Y21152D01*
X193798Y21166D01*
X193801Y21181D01*
X193803Y21191D01*
X193805Y21199D01*
X193805Y21200D01*
X193805Y22800D01*
X193805Y22801D01*
X193767Y22992D01*
X193766Y22993D01*
X193766Y22994D01*
X193658Y23156D01*
X193657Y23157D01*
X193656Y23158D01*
X193494Y23266D01*
X193493Y23266D01*
X193492Y23267D01*
X193301Y23305D01*
X193300Y23305D01*
X191700Y23305D01*
X191699Y23305D01*
X191508Y23267D01*
X191507Y23266D01*
X191506Y23266D01*
X191344Y23158D01*
X191343Y23157D01*
X191342Y23156D01*
X191234Y22994D01*
X191234Y22993D01*
X191233Y22992D01*
X191231Y22981D01*
X191228Y22966D01*
X191225Y22951D01*
X191223Y22942D01*
X191223Y22941D01*
X191220Y22927D01*
X191217Y22912D01*
X191215Y22902D01*
X191212Y22887D01*
X191209Y22872D01*
X191204Y22847D01*
X191201Y22832D01*
X191196Y22807D01*
X191195Y22801D01*
X191195Y22800D01*
X191195Y21200D01*
X191195Y21199D01*
X191233Y21008D01*
X191234Y21007D01*
X191234Y21006D01*
X191342Y20844D01*
X191344Y20843D01*
X191344Y20842D01*
X191506Y20734D01*
X191507Y20734D01*
X191508Y20733D01*
X191699Y20695D01*
X191700Y20695D01*
X193300Y20695D01*
X193301Y20695D01*
G37*
G36*
X197301Y20695D02*
X197301Y20695D01*
X197492Y20733D01*
X197493Y20734D01*
X197494Y20734D01*
X197656Y20842D01*
X197657Y20844D01*
X197658Y20844D01*
X197766Y21006D01*
X197766Y21007D01*
X197767Y21008D01*
X197769Y21017D01*
X197772Y21032D01*
X197775Y21047D01*
X197777Y21057D01*
X197780Y21072D01*
X197783Y21087D01*
X197788Y21112D01*
X197790Y21127D01*
X197791Y21127D01*
X197790Y21127D01*
X197795Y21151D01*
X197795Y21152D01*
X197798Y21166D01*
X197801Y21181D01*
X197803Y21191D01*
X197805Y21199D01*
X197805Y21200D01*
X197805Y22800D01*
X197805Y22801D01*
X197767Y22992D01*
X197766Y22993D01*
X197766Y22994D01*
X197658Y23156D01*
X197657Y23157D01*
X197656Y23158D01*
X197494Y23266D01*
X197493Y23266D01*
X197492Y23267D01*
X197301Y23305D01*
X197300Y23305D01*
X195700Y23305D01*
X195699Y23305D01*
X195508Y23267D01*
X195507Y23266D01*
X195506Y23266D01*
X195344Y23158D01*
X195343Y23157D01*
X195342Y23156D01*
X195234Y22994D01*
X195234Y22993D01*
X195233Y22992D01*
X195231Y22981D01*
X195228Y22966D01*
X195225Y22951D01*
X195223Y22942D01*
X195223Y22941D01*
X195220Y22927D01*
X195217Y22912D01*
X195215Y22902D01*
X195212Y22887D01*
X195209Y22872D01*
X195204Y22847D01*
X195201Y22832D01*
X195196Y22807D01*
X195195Y22801D01*
X195195Y22800D01*
X195195Y21200D01*
X195195Y21199D01*
X195233Y21008D01*
X195234Y21007D01*
X195234Y21006D01*
X195342Y20844D01*
X195344Y20843D01*
X195344Y20842D01*
X195506Y20734D01*
X195507Y20734D01*
X195508Y20733D01*
X195699Y20695D01*
X195700Y20695D01*
X197300Y20695D01*
X197301Y20695D01*
G37*
G36*
X197301Y12695D02*
X197301Y12695D01*
X197492Y12733D01*
X197493Y12734D01*
X197494Y12734D01*
X197656Y12842D01*
X197657Y12844D01*
X197658Y12844D01*
X197766Y13006D01*
X197766Y13007D01*
X197767Y13008D01*
X197769Y13017D01*
X197772Y13032D01*
X197775Y13047D01*
X197777Y13057D01*
X197780Y13072D01*
X197783Y13087D01*
X197788Y13112D01*
X197790Y13127D01*
X197791Y13127D01*
X197790Y13127D01*
X197795Y13151D01*
X197795Y13152D01*
X197798Y13166D01*
X197801Y13181D01*
X197803Y13191D01*
X197805Y13199D01*
X197805Y13200D01*
X197805Y14800D01*
X197805Y14801D01*
X197767Y14992D01*
X197766Y14993D01*
X197766Y14994D01*
X197658Y15156D01*
X197657Y15157D01*
X197656Y15158D01*
X197494Y15266D01*
X197493Y15266D01*
X197492Y15267D01*
X197301Y15305D01*
X197300Y15305D01*
X195700Y15305D01*
X195699Y15305D01*
X195508Y15267D01*
X195507Y15266D01*
X195506Y15266D01*
X195344Y15158D01*
X195343Y15157D01*
X195342Y15156D01*
X195234Y14994D01*
X195234Y14993D01*
X195233Y14992D01*
X195231Y14981D01*
X195228Y14966D01*
X195225Y14951D01*
X195223Y14942D01*
X195223Y14941D01*
X195220Y14927D01*
X195217Y14912D01*
X195215Y14902D01*
X195212Y14887D01*
X195209Y14872D01*
X195204Y14847D01*
X195201Y14832D01*
X195196Y14807D01*
X195195Y14801D01*
X195195Y14800D01*
X195195Y13200D01*
X195195Y13199D01*
X195233Y13008D01*
X195234Y13007D01*
X195234Y13006D01*
X195342Y12844D01*
X195344Y12843D01*
X195344Y12842D01*
X195506Y12734D01*
X195507Y12734D01*
X195508Y12733D01*
X195699Y12695D01*
X195700Y12695D01*
X197300Y12695D01*
X197301Y12695D01*
G37*
G36*
X205301Y12695D02*
X205301Y12695D01*
X205492Y12733D01*
X205493Y12734D01*
X205494Y12734D01*
X205656Y12842D01*
X205657Y12844D01*
X205658Y12844D01*
X205766Y13006D01*
X205766Y13007D01*
X205767Y13008D01*
X205769Y13017D01*
X205772Y13032D01*
X205775Y13047D01*
X205777Y13057D01*
X205780Y13072D01*
X205783Y13087D01*
X205788Y13112D01*
X205790Y13127D01*
X205791Y13127D01*
X205790Y13127D01*
X205795Y13151D01*
X205795Y13152D01*
X205798Y13166D01*
X205801Y13181D01*
X205803Y13191D01*
X205805Y13199D01*
X205805Y13200D01*
X205805Y14800D01*
X205805Y14801D01*
X205767Y14992D01*
X205766Y14993D01*
X205766Y14994D01*
X205658Y15156D01*
X205657Y15157D01*
X205656Y15158D01*
X205494Y15266D01*
X205493Y15266D01*
X205492Y15267D01*
X205301Y15305D01*
X205300Y15305D01*
X203700Y15305D01*
X203699Y15305D01*
X203508Y15267D01*
X203507Y15266D01*
X203506Y15266D01*
X203344Y15158D01*
X203343Y15157D01*
X203342Y15156D01*
X203234Y14994D01*
X203234Y14993D01*
X203233Y14992D01*
X203231Y14981D01*
X203228Y14966D01*
X203225Y14951D01*
X203223Y14942D01*
X203223Y14941D01*
X203220Y14927D01*
X203217Y14912D01*
X203215Y14902D01*
X203212Y14887D01*
X203209Y14872D01*
X203204Y14847D01*
X203201Y14832D01*
X203196Y14807D01*
X203195Y14801D01*
X203195Y14800D01*
X203195Y13200D01*
X203195Y13199D01*
X203233Y13008D01*
X203234Y13007D01*
X203234Y13006D01*
X203342Y12844D01*
X203344Y12843D01*
X203344Y12842D01*
X203506Y12734D01*
X203507Y12734D01*
X203508Y12733D01*
X203699Y12695D01*
X203700Y12695D01*
X205300Y12695D01*
X205301Y12695D01*
G37*
G36*
X193301Y12695D02*
X193301Y12695D01*
X193492Y12733D01*
X193493Y12734D01*
X193494Y12734D01*
X193656Y12842D01*
X193657Y12844D01*
X193658Y12844D01*
X193766Y13006D01*
X193766Y13007D01*
X193767Y13008D01*
X193769Y13017D01*
X193772Y13032D01*
X193775Y13047D01*
X193777Y13057D01*
X193780Y13072D01*
X193783Y13087D01*
X193788Y13112D01*
X193790Y13127D01*
X193791Y13127D01*
X193790Y13127D01*
X193795Y13151D01*
X193795Y13152D01*
X193798Y13166D01*
X193801Y13181D01*
X193803Y13191D01*
X193805Y13199D01*
X193805Y13200D01*
X193805Y14800D01*
X193805Y14801D01*
X193767Y14992D01*
X193766Y14993D01*
X193766Y14994D01*
X193658Y15156D01*
X193657Y15157D01*
X193656Y15158D01*
X193494Y15266D01*
X193493Y15266D01*
X193492Y15267D01*
X193301Y15305D01*
X193300Y15305D01*
X191700Y15305D01*
X191699Y15305D01*
X191508Y15267D01*
X191507Y15266D01*
X191506Y15266D01*
X191344Y15158D01*
X191343Y15157D01*
X191342Y15156D01*
X191234Y14994D01*
X191234Y14993D01*
X191233Y14992D01*
X191231Y14981D01*
X191228Y14966D01*
X191225Y14951D01*
X191223Y14942D01*
X191223Y14941D01*
X191220Y14927D01*
X191217Y14912D01*
X191215Y14902D01*
X191212Y14887D01*
X191209Y14872D01*
X191204Y14847D01*
X191201Y14832D01*
X191196Y14807D01*
X191195Y14801D01*
X191195Y14800D01*
X191195Y13200D01*
X191195Y13199D01*
X191233Y13008D01*
X191234Y13007D01*
X191234Y13006D01*
X191342Y12844D01*
X191344Y12843D01*
X191344Y12842D01*
X191506Y12734D01*
X191507Y12734D01*
X191508Y12733D01*
X191699Y12695D01*
X191700Y12695D01*
X193300Y12695D01*
X193301Y12695D01*
G37*
G36*
X193301Y16695D02*
X193301Y16695D01*
X193492Y16733D01*
X193493Y16734D01*
X193494Y16734D01*
X193656Y16842D01*
X193657Y16844D01*
X193658Y16844D01*
X193766Y17006D01*
X193766Y17007D01*
X193767Y17008D01*
X193769Y17017D01*
X193772Y17032D01*
X193775Y17047D01*
X193777Y17057D01*
X193780Y17072D01*
X193783Y17087D01*
X193788Y17112D01*
X193790Y17127D01*
X193791Y17127D01*
X193790Y17127D01*
X193795Y17151D01*
X193795Y17152D01*
X193798Y17166D01*
X193801Y17181D01*
X193803Y17191D01*
X193805Y17199D01*
X193805Y17200D01*
X193805Y18800D01*
X193805Y18801D01*
X193767Y18992D01*
X193766Y18993D01*
X193766Y18994D01*
X193658Y19156D01*
X193657Y19157D01*
X193656Y19158D01*
X193494Y19266D01*
X193493Y19266D01*
X193492Y19267D01*
X193301Y19305D01*
X193300Y19305D01*
X191700Y19305D01*
X191699Y19305D01*
X191508Y19267D01*
X191507Y19266D01*
X191506Y19266D01*
X191344Y19158D01*
X191343Y19157D01*
X191342Y19156D01*
X191234Y18994D01*
X191234Y18993D01*
X191233Y18992D01*
X191231Y18981D01*
X191228Y18966D01*
X191225Y18951D01*
X191223Y18942D01*
X191223Y18941D01*
X191220Y18927D01*
X191217Y18912D01*
X191215Y18902D01*
X191212Y18887D01*
X191209Y18872D01*
X191204Y18847D01*
X191201Y18832D01*
X191196Y18807D01*
X191195Y18801D01*
X191195Y18800D01*
X191195Y17200D01*
X191195Y17199D01*
X191233Y17008D01*
X191234Y17007D01*
X191234Y17006D01*
X191342Y16844D01*
X191344Y16843D01*
X191344Y16842D01*
X191506Y16734D01*
X191507Y16734D01*
X191508Y16733D01*
X191699Y16695D01*
X191700Y16695D01*
X193300Y16695D01*
X193301Y16695D01*
G37*
G36*
X197301Y16695D02*
X197301Y16695D01*
X197492Y16733D01*
X197493Y16734D01*
X197494Y16734D01*
X197656Y16842D01*
X197657Y16844D01*
X197658Y16844D01*
X197766Y17006D01*
X197766Y17007D01*
X197767Y17008D01*
X197769Y17017D01*
X197772Y17032D01*
X197775Y17047D01*
X197777Y17057D01*
X197780Y17072D01*
X197783Y17087D01*
X197788Y17112D01*
X197790Y17127D01*
X197791Y17127D01*
X197790Y17127D01*
X197795Y17151D01*
X197795Y17152D01*
X197798Y17166D01*
X197801Y17181D01*
X197803Y17191D01*
X197805Y17199D01*
X197805Y17200D01*
X197805Y18800D01*
X197805Y18801D01*
X197767Y18992D01*
X197766Y18993D01*
X197766Y18994D01*
X197658Y19156D01*
X197657Y19157D01*
X197656Y19158D01*
X197494Y19266D01*
X197493Y19266D01*
X197492Y19267D01*
X197301Y19305D01*
X197300Y19305D01*
X195700Y19305D01*
X195699Y19305D01*
X195508Y19267D01*
X195507Y19266D01*
X195506Y19266D01*
X195344Y19158D01*
X195343Y19157D01*
X195342Y19156D01*
X195234Y18994D01*
X195234Y18993D01*
X195233Y18992D01*
X195231Y18981D01*
X195228Y18966D01*
X195225Y18951D01*
X195223Y18942D01*
X195223Y18941D01*
X195220Y18927D01*
X195217Y18912D01*
X195215Y18902D01*
X195212Y18887D01*
X195209Y18872D01*
X195204Y18847D01*
X195201Y18832D01*
X195196Y18807D01*
X195195Y18801D01*
X195195Y18800D01*
X195195Y17200D01*
X195195Y17199D01*
X195233Y17008D01*
X195234Y17007D01*
X195234Y17006D01*
X195342Y16844D01*
X195344Y16843D01*
X195344Y16842D01*
X195506Y16734D01*
X195507Y16734D01*
X195508Y16733D01*
X195699Y16695D01*
X195700Y16695D01*
X197300Y16695D01*
X197301Y16695D01*
G37*
G36*
X205301Y16695D02*
X205301Y16695D01*
X205492Y16733D01*
X205493Y16734D01*
X205494Y16734D01*
X205656Y16842D01*
X205657Y16844D01*
X205658Y16844D01*
X205766Y17006D01*
X205766Y17007D01*
X205767Y17008D01*
X205769Y17017D01*
X205772Y17032D01*
X205775Y17047D01*
X205777Y17057D01*
X205780Y17072D01*
X205783Y17087D01*
X205788Y17112D01*
X205790Y17127D01*
X205791Y17127D01*
X205790Y17127D01*
X205795Y17151D01*
X205795Y17152D01*
X205798Y17166D01*
X205801Y17181D01*
X205803Y17191D01*
X205805Y17199D01*
X205805Y17200D01*
X205805Y18800D01*
X205805Y18801D01*
X205767Y18992D01*
X205766Y18993D01*
X205766Y18994D01*
X205658Y19156D01*
X205657Y19157D01*
X205656Y19158D01*
X205494Y19266D01*
X205493Y19266D01*
X205492Y19267D01*
X205301Y19305D01*
X205300Y19305D01*
X203700Y19305D01*
X203699Y19305D01*
X203508Y19267D01*
X203507Y19266D01*
X203506Y19266D01*
X203344Y19158D01*
X203343Y19157D01*
X203342Y19156D01*
X203234Y18994D01*
X203234Y18993D01*
X203233Y18992D01*
X203231Y18981D01*
X203228Y18966D01*
X203225Y18951D01*
X203223Y18942D01*
X203223Y18941D01*
X203220Y18927D01*
X203217Y18912D01*
X203215Y18902D01*
X203212Y18887D01*
X203209Y18872D01*
X203204Y18847D01*
X203201Y18832D01*
X203196Y18807D01*
X203195Y18801D01*
X203195Y18800D01*
X203195Y17200D01*
X203195Y17199D01*
X203233Y17008D01*
X203234Y17007D01*
X203234Y17006D01*
X203342Y16844D01*
X203344Y16843D01*
X203344Y16842D01*
X203506Y16734D01*
X203507Y16734D01*
X203508Y16733D01*
X203699Y16695D01*
X203700Y16695D01*
X205300Y16695D01*
X205301Y16695D01*
G37*
G36*
X201301Y16695D02*
X201301Y16695D01*
X201492Y16733D01*
X201493Y16734D01*
X201494Y16734D01*
X201656Y16842D01*
X201657Y16844D01*
X201658Y16844D01*
X201766Y17006D01*
X201766Y17007D01*
X201767Y17008D01*
X201769Y17017D01*
X201772Y17032D01*
X201775Y17047D01*
X201777Y17057D01*
X201780Y17072D01*
X201783Y17087D01*
X201788Y17112D01*
X201790Y17127D01*
X201791Y17127D01*
X201790Y17127D01*
X201795Y17151D01*
X201795Y17152D01*
X201798Y17166D01*
X201801Y17181D01*
X201803Y17191D01*
X201805Y17199D01*
X201805Y17200D01*
X201805Y18800D01*
X201805Y18801D01*
X201767Y18992D01*
X201766Y18993D01*
X201766Y18994D01*
X201658Y19156D01*
X201657Y19157D01*
X201656Y19158D01*
X201494Y19266D01*
X201493Y19266D01*
X201492Y19267D01*
X201301Y19305D01*
X201300Y19305D01*
X199700Y19305D01*
X199699Y19305D01*
X199508Y19267D01*
X199507Y19266D01*
X199506Y19266D01*
X199344Y19158D01*
X199343Y19157D01*
X199342Y19156D01*
X199234Y18994D01*
X199234Y18993D01*
X199233Y18992D01*
X199231Y18981D01*
X199228Y18966D01*
X199225Y18951D01*
X199223Y18942D01*
X199223Y18941D01*
X199220Y18927D01*
X199217Y18912D01*
X199215Y18902D01*
X199212Y18887D01*
X199209Y18872D01*
X199204Y18847D01*
X199201Y18832D01*
X199196Y18807D01*
X199195Y18801D01*
X199195Y18800D01*
X199195Y17200D01*
X199195Y17199D01*
X199233Y17008D01*
X199234Y17007D01*
X199234Y17006D01*
X199342Y16844D01*
X199344Y16843D01*
X199344Y16842D01*
X199506Y16734D01*
X199507Y16734D01*
X199508Y16733D01*
X199699Y16695D01*
X199700Y16695D01*
X201300Y16695D01*
X201301Y16695D01*
G37*
G36*
X201301Y12695D02*
X201301Y12695D01*
X201492Y12733D01*
X201493Y12734D01*
X201494Y12734D01*
X201656Y12842D01*
X201657Y12844D01*
X201658Y12844D01*
X201766Y13006D01*
X201766Y13007D01*
X201767Y13008D01*
X201769Y13017D01*
X201772Y13032D01*
X201775Y13047D01*
X201777Y13057D01*
X201780Y13072D01*
X201783Y13087D01*
X201788Y13112D01*
X201790Y13127D01*
X201791Y13127D01*
X201790Y13127D01*
X201795Y13151D01*
X201795Y13152D01*
X201798Y13166D01*
X201801Y13181D01*
X201803Y13191D01*
X201805Y13199D01*
X201805Y13200D01*
X201805Y14800D01*
X201805Y14801D01*
X201767Y14992D01*
X201766Y14993D01*
X201766Y14994D01*
X201658Y15156D01*
X201657Y15157D01*
X201656Y15158D01*
X201494Y15266D01*
X201493Y15266D01*
X201492Y15267D01*
X201301Y15305D01*
X201300Y15305D01*
X199700Y15305D01*
X199699Y15305D01*
X199508Y15267D01*
X199507Y15266D01*
X199506Y15266D01*
X199344Y15158D01*
X199343Y15157D01*
X199342Y15156D01*
X199234Y14994D01*
X199234Y14993D01*
X199233Y14992D01*
X199231Y14981D01*
X199228Y14966D01*
X199225Y14951D01*
X199223Y14942D01*
X199223Y14941D01*
X199220Y14927D01*
X199217Y14912D01*
X199215Y14902D01*
X199212Y14887D01*
X199209Y14872D01*
X199204Y14847D01*
X199201Y14832D01*
X199196Y14807D01*
X199195Y14801D01*
X199195Y14800D01*
X199195Y13200D01*
X199195Y13199D01*
X199233Y13008D01*
X199234Y13007D01*
X199234Y13006D01*
X199342Y12844D01*
X199344Y12843D01*
X199344Y12842D01*
X199506Y12734D01*
X199507Y12734D01*
X199508Y12733D01*
X199699Y12695D01*
X199700Y12695D01*
X201300Y12695D01*
X201301Y12695D01*
G37*
G36*
X217251Y14245D02*
X217251Y14245D01*
X217442Y14283D01*
X217443Y14284D01*
X217444Y14284D01*
X217606Y14392D01*
X217607Y14394D01*
X217608Y14394D01*
X217716Y14556D01*
X217716Y14557D01*
X217717Y14558D01*
X217755Y14749D01*
X217755Y14750D01*
X217755Y16250D01*
X217755Y16251D01*
X217717Y16442D01*
X217716Y16443D01*
X217716Y16444D01*
X217608Y16606D01*
X217607Y16607D01*
X217606Y16608D01*
X217444Y16716D01*
X217443Y16716D01*
X217442Y16717D01*
X217251Y16755D01*
X217250Y16755D01*
X215750Y16755D01*
X215749Y16755D01*
X215558Y16717D01*
X215557Y16716D01*
X215556Y16716D01*
X215394Y16608D01*
X215393Y16607D01*
X215392Y16606D01*
X215284Y16444D01*
X215284Y16443D01*
X215283Y16442D01*
X215245Y16251D01*
X215245Y16250D01*
X215245Y14750D01*
X215245Y14749D01*
X215283Y14558D01*
X215284Y14557D01*
X215284Y14556D01*
X215392Y14394D01*
X215394Y14393D01*
X215394Y14392D01*
X215556Y14284D01*
X215557Y14284D01*
X215558Y14283D01*
X215749Y14245D01*
X215750Y14245D01*
X217250Y14245D01*
X217251Y14245D01*
G37*
G36*
X222251Y14245D02*
X222251Y14245D01*
X222442Y14283D01*
X222443Y14284D01*
X222444Y14284D01*
X222606Y14392D01*
X222607Y14394D01*
X222608Y14394D01*
X222716Y14556D01*
X222716Y14557D01*
X222717Y14558D01*
X222755Y14749D01*
X222755Y14750D01*
X222755Y16250D01*
X222755Y16251D01*
X222717Y16442D01*
X222716Y16443D01*
X222716Y16444D01*
X222608Y16606D01*
X222607Y16607D01*
X222606Y16608D01*
X222444Y16716D01*
X222443Y16716D01*
X222442Y16717D01*
X222251Y16755D01*
X222250Y16755D01*
X220750Y16755D01*
X220749Y16755D01*
X220558Y16717D01*
X220557Y16716D01*
X220556Y16716D01*
X220394Y16608D01*
X220393Y16607D01*
X220392Y16606D01*
X220284Y16444D01*
X220284Y16443D01*
X220283Y16442D01*
X220245Y16251D01*
X220245Y16250D01*
X220245Y14750D01*
X220245Y14749D01*
X220283Y14558D01*
X220284Y14557D01*
X220284Y14556D01*
X220392Y14394D01*
X220394Y14393D01*
X220394Y14392D01*
X220556Y14284D01*
X220557Y14284D01*
X220558Y14283D01*
X220749Y14245D01*
X220750Y14245D01*
X222250Y14245D01*
X222251Y14245D01*
G37*
G36*
X217251Y9245D02*
X217251Y9245D01*
X217442Y9283D01*
X217443Y9284D01*
X217444Y9284D01*
X217606Y9392D01*
X217607Y9394D01*
X217608Y9394D01*
X217716Y9556D01*
X217716Y9557D01*
X217717Y9558D01*
X217755Y9749D01*
X217755Y9750D01*
X217755Y11250D01*
X217755Y11251D01*
X217717Y11442D01*
X217716Y11443D01*
X217716Y11444D01*
X217608Y11606D01*
X217607Y11607D01*
X217606Y11608D01*
X217444Y11716D01*
X217443Y11716D01*
X217442Y11717D01*
X217251Y11755D01*
X217250Y11755D01*
X215750Y11755D01*
X215749Y11755D01*
X215558Y11717D01*
X215557Y11716D01*
X215556Y11716D01*
X215394Y11608D01*
X215393Y11607D01*
X215392Y11606D01*
X215284Y11444D01*
X215284Y11443D01*
X215283Y11442D01*
X215245Y11251D01*
X215245Y11250D01*
X215245Y9750D01*
X215245Y9749D01*
X215283Y9558D01*
X215284Y9557D01*
X215284Y9556D01*
X215392Y9394D01*
X215394Y9393D01*
X215394Y9392D01*
X215556Y9284D01*
X215557Y9284D01*
X215558Y9283D01*
X215749Y9245D01*
X215750Y9245D01*
X217250Y9245D01*
X217251Y9245D01*
G37*
G36*
X222301Y9245D02*
X222301Y9245D01*
X222492Y9283D01*
X222493Y9284D01*
X222494Y9284D01*
X222656Y9392D01*
X222657Y9394D01*
X222658Y9394D01*
X222766Y9556D01*
X222766Y9557D01*
X222767Y9558D01*
X222805Y9749D01*
X222805Y9750D01*
X222805Y11250D01*
X222805Y11251D01*
X222767Y11442D01*
X222766Y11443D01*
X222766Y11444D01*
X222658Y11606D01*
X222657Y11607D01*
X222656Y11608D01*
X222494Y11716D01*
X222493Y11716D01*
X222492Y11717D01*
X222301Y11755D01*
X222300Y11755D01*
X220800Y11755D01*
X220799Y11755D01*
X220608Y11717D01*
X220607Y11716D01*
X220606Y11716D01*
X220444Y11608D01*
X220443Y11607D01*
X220442Y11606D01*
X220334Y11444D01*
X220334Y11443D01*
X220333Y11442D01*
X220295Y11251D01*
X220295Y11250D01*
X220295Y9750D01*
X220295Y9749D01*
X220333Y9558D01*
X220334Y9557D01*
X220334Y9556D01*
X220442Y9394D01*
X220444Y9393D01*
X220444Y9392D01*
X220606Y9284D01*
X220607Y9284D01*
X220608Y9283D01*
X220799Y9245D01*
X220800Y9245D01*
X222300Y9245D01*
X222301Y9245D01*
G37*
G36*
X227251Y14245D02*
X227251Y14245D01*
X227442Y14283D01*
X227443Y14284D01*
X227444Y14284D01*
X227606Y14392D01*
X227607Y14394D01*
X227608Y14394D01*
X227716Y14556D01*
X227716Y14557D01*
X227717Y14558D01*
X227755Y14749D01*
X227755Y14750D01*
X227755Y16250D01*
X227755Y16251D01*
X227717Y16442D01*
X227716Y16443D01*
X227716Y16444D01*
X227608Y16606D01*
X227607Y16607D01*
X227606Y16608D01*
X227444Y16716D01*
X227443Y16716D01*
X227442Y16717D01*
X227251Y16755D01*
X227250Y16755D01*
X225750Y16755D01*
X225749Y16755D01*
X225558Y16717D01*
X225557Y16716D01*
X225556Y16716D01*
X225394Y16608D01*
X225393Y16607D01*
X225392Y16606D01*
X225284Y16444D01*
X225284Y16443D01*
X225283Y16442D01*
X225245Y16251D01*
X225245Y16250D01*
X225245Y14750D01*
X225245Y14749D01*
X225283Y14558D01*
X225284Y14557D01*
X225284Y14556D01*
X225392Y14394D01*
X225394Y14393D01*
X225394Y14392D01*
X225556Y14284D01*
X225557Y14284D01*
X225558Y14283D01*
X225749Y14245D01*
X225750Y14245D01*
X227250Y14245D01*
X227251Y14245D01*
G37*
G36*
X227251Y19245D02*
X227251Y19245D01*
X227442Y19283D01*
X227443Y19284D01*
X227444Y19284D01*
X227606Y19392D01*
X227607Y19394D01*
X227608Y19394D01*
X227716Y19556D01*
X227716Y19557D01*
X227717Y19558D01*
X227755Y19749D01*
X227755Y19750D01*
X227755Y21250D01*
X227755Y21251D01*
X227717Y21442D01*
X227716Y21443D01*
X227716Y21444D01*
X227608Y21606D01*
X227607Y21607D01*
X227606Y21608D01*
X227444Y21716D01*
X227443Y21716D01*
X227442Y21717D01*
X227251Y21755D01*
X227250Y21755D01*
X225750Y21755D01*
X225749Y21755D01*
X225558Y21717D01*
X225557Y21716D01*
X225556Y21716D01*
X225394Y21608D01*
X225393Y21607D01*
X225392Y21606D01*
X225284Y21444D01*
X225284Y21443D01*
X225283Y21442D01*
X225245Y21251D01*
X225245Y21250D01*
X225245Y19750D01*
X225245Y19749D01*
X225283Y19558D01*
X225284Y19557D01*
X225284Y19556D01*
X225392Y19394D01*
X225394Y19393D01*
X225394Y19392D01*
X225556Y19284D01*
X225557Y19284D01*
X225558Y19283D01*
X225749Y19245D01*
X225750Y19245D01*
X227250Y19245D01*
X227251Y19245D01*
G37*
G36*
X222251Y19245D02*
X222251Y19245D01*
X222442Y19283D01*
X222443Y19284D01*
X222444Y19284D01*
X222606Y19392D01*
X222607Y19394D01*
X222608Y19394D01*
X222716Y19556D01*
X222716Y19557D01*
X222717Y19558D01*
X222755Y19749D01*
X222755Y19750D01*
X222755Y21250D01*
X222755Y21251D01*
X222717Y21442D01*
X222716Y21443D01*
X222716Y21444D01*
X222608Y21606D01*
X222607Y21607D01*
X222606Y21608D01*
X222444Y21716D01*
X222443Y21716D01*
X222442Y21717D01*
X222251Y21755D01*
X222250Y21755D01*
X220750Y21755D01*
X220749Y21755D01*
X220558Y21717D01*
X220557Y21716D01*
X220556Y21716D01*
X220394Y21608D01*
X220393Y21607D01*
X220392Y21606D01*
X220284Y21444D01*
X220284Y21443D01*
X220283Y21442D01*
X220245Y21251D01*
X220245Y21250D01*
X220245Y19750D01*
X220245Y19749D01*
X220283Y19558D01*
X220284Y19557D01*
X220284Y19556D01*
X220392Y19394D01*
X220394Y19393D01*
X220394Y19392D01*
X220556Y19284D01*
X220557Y19284D01*
X220558Y19283D01*
X220749Y19245D01*
X220750Y19245D01*
X222250Y19245D01*
X222251Y19245D01*
G37*
G36*
X217251Y19245D02*
X217251Y19245D01*
X217442Y19283D01*
X217443Y19284D01*
X217444Y19284D01*
X217606Y19392D01*
X217607Y19394D01*
X217608Y19394D01*
X217716Y19556D01*
X217716Y19557D01*
X217717Y19558D01*
X217755Y19749D01*
X217755Y19750D01*
X217755Y21250D01*
X217755Y21251D01*
X217717Y21442D01*
X217716Y21443D01*
X217716Y21444D01*
X217608Y21606D01*
X217607Y21607D01*
X217606Y21608D01*
X217444Y21716D01*
X217443Y21716D01*
X217442Y21717D01*
X217251Y21755D01*
X217250Y21755D01*
X215750Y21755D01*
X215749Y21755D01*
X215558Y21717D01*
X215557Y21716D01*
X215556Y21716D01*
X215394Y21608D01*
X215393Y21607D01*
X215392Y21606D01*
X215284Y21444D01*
X215284Y21443D01*
X215283Y21442D01*
X215245Y21251D01*
X215245Y21250D01*
X215245Y19750D01*
X215245Y19749D01*
X215283Y19558D01*
X215284Y19557D01*
X215284Y19556D01*
X215392Y19394D01*
X215394Y19393D01*
X215394Y19392D01*
X215556Y19284D01*
X215557Y19284D01*
X215558Y19283D01*
X215749Y19245D01*
X215750Y19245D01*
X217250Y19245D01*
X217251Y19245D01*
G37*
G36*
X227251Y9245D02*
X227251Y9245D01*
X227442Y9283D01*
X227443Y9284D01*
X227444Y9284D01*
X227606Y9392D01*
X227607Y9394D01*
X227608Y9394D01*
X227716Y9556D01*
X227716Y9557D01*
X227717Y9558D01*
X227755Y9749D01*
X227755Y9750D01*
X227755Y11250D01*
X227755Y11251D01*
X227717Y11442D01*
X227716Y11443D01*
X227716Y11444D01*
X227608Y11606D01*
X227607Y11607D01*
X227606Y11608D01*
X227444Y11716D01*
X227443Y11716D01*
X227442Y11717D01*
X227251Y11755D01*
X227250Y11755D01*
X225750Y11755D01*
X225749Y11755D01*
X225558Y11717D01*
X225557Y11716D01*
X225556Y11716D01*
X225394Y11608D01*
X225393Y11607D01*
X225392Y11606D01*
X225284Y11444D01*
X225284Y11443D01*
X225283Y11442D01*
X225245Y11251D01*
X225245Y11250D01*
X225245Y9750D01*
X225245Y9749D01*
X225283Y9558D01*
X225284Y9557D01*
X225284Y9556D01*
X225392Y9394D01*
X225394Y9393D01*
X225394Y9392D01*
X225556Y9284D01*
X225557Y9284D01*
X225558Y9283D01*
X225749Y9245D01*
X225750Y9245D01*
X227250Y9245D01*
X227251Y9245D01*
G37*
G36*
X66301Y10195D02*
X66301Y10195D01*
X66492Y10233D01*
X66493Y10234D01*
X66494Y10234D01*
X66656Y10342D01*
X66657Y10344D01*
X66658Y10344D01*
X66766Y10506D01*
X66766Y10507D01*
X66767Y10508D01*
X66769Y10517D01*
X66772Y10532D01*
X66775Y10547D01*
X66777Y10557D01*
X66780Y10572D01*
X66783Y10587D01*
X66788Y10612D01*
X66790Y10627D01*
X66791Y10627D01*
X66790Y10627D01*
X66795Y10651D01*
X66795Y10652D01*
X66798Y10666D01*
X66801Y10681D01*
X66803Y10691D01*
X66805Y10699D01*
X66805Y10700D01*
X66805Y11800D01*
X66805Y11801D01*
X66767Y11992D01*
X66766Y11993D01*
X66766Y11994D01*
X66658Y12156D01*
X66657Y12157D01*
X66656Y12158D01*
X66494Y12266D01*
X66493Y12266D01*
X66492Y12267D01*
X66301Y12305D01*
X66300Y12305D01*
X65200Y12305D01*
X65199Y12305D01*
X65008Y12267D01*
X65007Y12266D01*
X65006Y12266D01*
X64844Y12158D01*
X64843Y12157D01*
X64842Y12156D01*
X64734Y11994D01*
X64734Y11993D01*
X64733Y11992D01*
X64729Y11970D01*
X64729Y11969D01*
X64726Y11955D01*
X64721Y11930D01*
X64718Y11915D01*
X64715Y11900D01*
X64713Y11890D01*
X64710Y11875D01*
X64707Y11860D01*
X64705Y11850D01*
X64702Y11835D01*
X64699Y11820D01*
X64695Y11801D01*
X64695Y11800D01*
X64695Y10700D01*
X64695Y10699D01*
X64733Y10508D01*
X64734Y10507D01*
X64734Y10506D01*
X64842Y10344D01*
X64844Y10343D01*
X64844Y10342D01*
X65006Y10234D01*
X65007Y10234D01*
X65008Y10233D01*
X65199Y10195D01*
X65200Y10195D01*
X66300Y10195D01*
X66301Y10195D01*
G37*
G36*
X62801Y10195D02*
X62801Y10195D01*
X62992Y10233D01*
X62993Y10234D01*
X62994Y10234D01*
X63156Y10342D01*
X63157Y10344D01*
X63158Y10344D01*
X63266Y10506D01*
X63266Y10507D01*
X63267Y10508D01*
X63269Y10517D01*
X63272Y10532D01*
X63275Y10547D01*
X63277Y10557D01*
X63280Y10572D01*
X63283Y10587D01*
X63288Y10612D01*
X63290Y10627D01*
X63291Y10627D01*
X63290Y10627D01*
X63295Y10651D01*
X63295Y10652D01*
X63298Y10666D01*
X63301Y10681D01*
X63303Y10691D01*
X63305Y10699D01*
X63305Y10700D01*
X63305Y11800D01*
X63305Y11801D01*
X63267Y11992D01*
X63266Y11993D01*
X63266Y11994D01*
X63158Y12156D01*
X63157Y12157D01*
X63156Y12158D01*
X62994Y12266D01*
X62993Y12266D01*
X62992Y12267D01*
X62801Y12305D01*
X62800Y12305D01*
X61700Y12305D01*
X61699Y12305D01*
X61508Y12267D01*
X61507Y12266D01*
X61506Y12266D01*
X61344Y12158D01*
X61343Y12157D01*
X61342Y12156D01*
X61234Y11994D01*
X61234Y11993D01*
X61233Y11992D01*
X61229Y11970D01*
X61229Y11969D01*
X61226Y11955D01*
X61221Y11930D01*
X61218Y11915D01*
X61215Y11900D01*
X61213Y11890D01*
X61210Y11875D01*
X61207Y11860D01*
X61205Y11850D01*
X61202Y11835D01*
X61199Y11820D01*
X61195Y11801D01*
X61195Y11800D01*
X61195Y10700D01*
X61195Y10699D01*
X61233Y10508D01*
X61234Y10507D01*
X61234Y10506D01*
X61342Y10344D01*
X61344Y10343D01*
X61344Y10342D01*
X61506Y10234D01*
X61507Y10234D01*
X61508Y10233D01*
X61699Y10195D01*
X61700Y10195D01*
X62800Y10195D01*
X62801Y10195D01*
G37*
G36*
X62801Y13695D02*
X62801Y13695D01*
X62992Y13733D01*
X62993Y13734D01*
X62994Y13734D01*
X63156Y13842D01*
X63157Y13844D01*
X63158Y13844D01*
X63266Y14006D01*
X63266Y14007D01*
X63267Y14008D01*
X63269Y14017D01*
X63272Y14032D01*
X63275Y14047D01*
X63277Y14057D01*
X63280Y14072D01*
X63283Y14087D01*
X63288Y14112D01*
X63290Y14127D01*
X63291Y14127D01*
X63290Y14127D01*
X63295Y14151D01*
X63295Y14152D01*
X63298Y14166D01*
X63301Y14181D01*
X63303Y14191D01*
X63305Y14199D01*
X63305Y14200D01*
X63305Y15300D01*
X63305Y15301D01*
X63267Y15492D01*
X63266Y15493D01*
X63266Y15494D01*
X63158Y15656D01*
X63157Y15657D01*
X63156Y15658D01*
X62994Y15766D01*
X62993Y15766D01*
X62992Y15767D01*
X62801Y15805D01*
X62800Y15805D01*
X61700Y15805D01*
X61699Y15805D01*
X61508Y15767D01*
X61507Y15766D01*
X61506Y15766D01*
X61344Y15658D01*
X61343Y15657D01*
X61342Y15656D01*
X61234Y15494D01*
X61234Y15493D01*
X61233Y15492D01*
X61229Y15470D01*
X61229Y15469D01*
X61226Y15455D01*
X61221Y15430D01*
X61218Y15415D01*
X61215Y15400D01*
X61213Y15390D01*
X61210Y15375D01*
X61207Y15360D01*
X61205Y15350D01*
X61202Y15335D01*
X61199Y15320D01*
X61195Y15301D01*
X61195Y15300D01*
X61195Y14200D01*
X61195Y14199D01*
X61233Y14008D01*
X61234Y14007D01*
X61234Y14006D01*
X61342Y13844D01*
X61344Y13843D01*
X61344Y13842D01*
X61506Y13734D01*
X61507Y13734D01*
X61508Y13733D01*
X61699Y13695D01*
X61700Y13695D01*
X62800Y13695D01*
X62801Y13695D01*
G37*
G36*
X66301Y13695D02*
X66301Y13695D01*
X66492Y13733D01*
X66493Y13734D01*
X66494Y13734D01*
X66656Y13842D01*
X66657Y13844D01*
X66658Y13844D01*
X66766Y14006D01*
X66766Y14007D01*
X66767Y14008D01*
X66769Y14017D01*
X66772Y14032D01*
X66775Y14047D01*
X66777Y14057D01*
X66780Y14072D01*
X66783Y14087D01*
X66788Y14112D01*
X66790Y14127D01*
X66791Y14127D01*
X66790Y14127D01*
X66795Y14151D01*
X66795Y14152D01*
X66798Y14166D01*
X66801Y14181D01*
X66803Y14191D01*
X66805Y14199D01*
X66805Y14200D01*
X66805Y15300D01*
X66805Y15301D01*
X66767Y15492D01*
X66766Y15493D01*
X66766Y15494D01*
X66658Y15656D01*
X66657Y15657D01*
X66656Y15658D01*
X66494Y15766D01*
X66493Y15766D01*
X66492Y15767D01*
X66301Y15805D01*
X66300Y15805D01*
X65200Y15805D01*
X65199Y15805D01*
X65008Y15767D01*
X65007Y15766D01*
X65006Y15766D01*
X64844Y15658D01*
X64843Y15657D01*
X64842Y15656D01*
X64734Y15494D01*
X64734Y15493D01*
X64733Y15492D01*
X64729Y15470D01*
X64729Y15469D01*
X64726Y15455D01*
X64721Y15430D01*
X64718Y15415D01*
X64715Y15400D01*
X64713Y15390D01*
X64710Y15375D01*
X64707Y15360D01*
X64705Y15350D01*
X64702Y15335D01*
X64699Y15320D01*
X64695Y15301D01*
X64695Y15300D01*
X64695Y14200D01*
X64695Y14199D01*
X64733Y14008D01*
X64734Y14007D01*
X64734Y14006D01*
X64842Y13844D01*
X64844Y13843D01*
X64844Y13842D01*
X65006Y13734D01*
X65007Y13734D01*
X65008Y13733D01*
X65199Y13695D01*
X65200Y13695D01*
X66300Y13695D01*
X66301Y13695D01*
G37*
D10*
X107000Y4000D03*
X102000Y4000D03*
D11*
X10867Y122000D03*
X10867Y114000D03*
X10867Y106000D03*
X10867Y98000D03*
X10867Y90000D03*
X10867Y82000D03*
X10867Y74000D03*
X10867Y66000D03*
X10867Y58000D03*
X10867Y50000D03*
X10867Y42000D03*
X10867Y34000D03*
D12*
X23367Y26000D03*
X31367Y26000D03*
X39367Y26000D03*
X47367Y26000D03*
X55367Y26000D03*
X63367Y26000D03*
X71367Y26000D03*
X79367Y26000D03*
X87367Y26000D03*
X95367Y26000D03*
X103367Y26000D03*
X111367Y26000D03*
D11*
X123867Y34000D03*
X123867Y42000D03*
X123867Y50000D03*
X123867Y58000D03*
X123867Y66000D03*
X123867Y74000D03*
X123867Y82000D03*
X123867Y90000D03*
X123867Y98000D03*
X123867Y106000D03*
X123867Y114000D03*
X123867Y122000D03*
D12*
X111367Y130000D03*
X103367Y130000D03*
X95367Y130000D03*
X87367Y130000D03*
X79367Y130000D03*
X71367Y130000D03*
X63367Y130000D03*
X55367Y130000D03*
X47367Y130000D03*
X39367Y130000D03*
X31367Y130000D03*
X23367Y130000D03*
D13*
X44367Y101000D03*
X67367Y101000D03*
X90367Y101000D03*
X44367Y78000D03*
X67367Y78000D03*
X90367Y78000D03*
X44367Y55000D03*
X67367Y55000D03*
X90367Y55000D03*
D14*
X107050Y9500D03*
X101950Y9500D03*
X107050Y15500D03*
X101950Y15500D03*
D15*
X29550Y9600D03*
X29550Y4600D03*
D16*
X23250Y4500D03*
X23250Y9600D03*
D17*
X261000Y50000D03*
D18*
X89000Y14000D03*
X93000Y14000D03*
X93000Y10000D03*
X89000Y10000D03*
D10*
X94500Y4000D03*
X89500Y4000D03*
D17*
X260500Y90000D03*
D19*
X53000Y16000D03*
X53000Y5000D03*
X75000Y16000D03*
X75000Y5000D03*
D20*
X127750Y14500D03*
X127750Y9500D03*
X127750Y4500D03*
X123500Y12000D03*
X123500Y7000D03*
X119250Y14500D03*
X119250Y9500D03*
X119250Y4500D03*
D21*
X180450Y21109D02*
X184050Y21109D01*
X184050Y7391D01*
X180450Y7391D01*
X180450Y21109D01*
X180450Y8531D02*
X184050Y8531D01*
X184050Y9671D02*
X180450Y9671D01*
X180450Y10811D02*
X184050Y10811D01*
X184050Y11951D02*
X180450Y11951D01*
X180450Y13091D02*
X184050Y13091D01*
X184050Y14231D02*
X180450Y14231D01*
X180450Y15371D02*
X184050Y15371D01*
X184050Y16511D02*
X180450Y16511D01*
X180450Y17651D02*
X184050Y17651D01*
X184050Y18791D02*
X180450Y18791D01*
X180450Y19931D02*
X184050Y19931D01*
X184050Y21071D02*
X180450Y21071D01*
X167550Y21109D02*
X163950Y21109D01*
X167550Y21109D02*
X167550Y7391D01*
X163950Y7391D01*
X163950Y21109D01*
X163950Y8531D02*
X167550Y8531D01*
X167550Y9671D02*
X163950Y9671D01*
X163950Y10811D02*
X167550Y10811D01*
X167550Y11951D02*
X163950Y11951D01*
X163950Y13091D02*
X167550Y13091D01*
X167550Y14231D02*
X163950Y14231D01*
X163950Y15371D02*
X167550Y15371D01*
X167550Y16511D02*
X163950Y16511D01*
X163950Y17651D02*
X167550Y17651D01*
X167550Y18791D02*
X163950Y18791D01*
X163950Y19931D02*
X167550Y19931D01*
X167550Y21071D02*
X163950Y21071D01*
D15*
X191500Y4000D03*
X191500Y9000D03*
X199000Y4000D03*
X199000Y9000D03*
X206500Y4000D03*
X206500Y9000D03*
D22*
X151650Y12500D03*
X151650Y17500D03*
X149000Y22650D03*
X144000Y22650D03*
X139000Y22650D03*
X136350Y17500D03*
X136350Y12500D03*
X139000Y7350D03*
X144000Y7350D03*
X149000Y7350D03*
M02*
