M48
;GenerationSoftware,Autodesk,EAGLE,9.6.2*%
;CreationDate,2022-06-20T12:31:29Z*%
FMAT,2
ICI,OFF
METRIC,TZ,000.000
T4C0.150
T3C0.450
T2C0.508
T1C0.600
%
G90
M71
T1
X25050Y9000
X27050Y9000
X27100Y5000
X25100Y5000
T2
X4050Y800
X1000Y800
T3
X1350Y2000
T4
X17000Y7000
X15000Y7000
X15000Y9000
X17000Y9000
X19000Y9000
X21000Y9000
X19000Y11000
X17000Y11000
X15000Y11000
X27000Y11000
X25000Y11000
X22750Y11000
X27000Y3000
X25000Y3000
X17000Y6500
X16000Y6500
X15000Y6500
X18000Y6500
X19000Y6500
X20000Y6500
X21000Y6500
X22000Y6500
X23000Y6000
X16000Y4500
X17000Y4500
X18000Y4500
X19000Y4500
X20000Y4500
X21000Y4500
X15000Y4500
X14000Y6500
X24000Y6250
X25000Y6250
X26000Y6250
X27000Y6250
X27000Y3750
X26000Y3750
X25000Y3750
X24000Y3750
X27000Y7750
X26000Y7750
X25000Y7750
X24000Y7750
X26000Y10250
X27000Y10250
X25000Y10250
X24000Y10250
X20750Y11000
X20750Y10000
X22000Y8250
X23000Y8000
X23000Y10250
X22750Y12000
X20750Y12000
X13250Y13500
X23250Y500
X23250Y13500
X21100Y500
X16000Y750
X19650Y1800
X2750Y3750
X5750Y3750
X5750Y6750
X8750Y6750
X8750Y11750
X10750Y11750
X3750Y1750
X11500Y5000
X8350Y700
X22000Y4500
X23000Y4250
X28000Y6250
X28000Y3750
X28000Y7750
X28000Y10250
X500Y13250
X11500Y11800
X21650Y2050
X20050Y2200
X11925Y1450
X14400Y2265
X11550Y11000
X21650Y1550
X20450Y2200
X12350Y1200
X15165Y1750
X18729Y2314
X11100Y4300
X15140Y3750
X16250Y3750
X10500Y3700
X7800Y12000
X2700Y10155
X7000Y12000
X2700Y11100
X22650Y1050
X19650Y1400
X19560Y3090
X6218Y1475
X9300Y1400
X12775Y1450
X14900Y735
X10900Y9000
X8785Y3485
X2700Y9000
X5650Y11500
X2400Y1800
X11550Y10150
X3000Y1800
X9300Y1000
X11900Y2350
X21760Y3750
X8900Y1400
X9500Y12000
X22870Y3750
X17400Y1800
X19250Y1400
X17400Y1000
X19000Y7000
X21000Y7000
X23000Y7000
X27000Y7000
X25000Y7000
X6350Y700
X2750Y6750
M30