G04 EAGLE Gerber RS-274X export*
G75*
%MOMM*%
%FSLAX34Y34*%
%LPD*%
%INTop Copper*%
%IPPOS*%
%AMOC8*
5,1,8,0,0,1.08239X$1,22.5*%
G01*
%ADD10R,0.350000X0.250000*%
%ADD11R,0.800000X0.500000*%
%ADD12R,0.500000X0.800000*%
%ADD13R,1.600000X1.600000*%
%ADD14R,0.320000X0.630000*%
%ADD15R,1.560000X1.060000*%
%ADD16C,1.016000*%
%ADD17R,0.280000X0.430000*%
%ADD18R,0.430000X0.280000*%
%ADD19C,0.180000*%
%ADD20C,0.320000*%
%ADD21R,2.540000X0.750000*%
%ADD22R,0.250000X0.350000*%
%ADD23R,1.000000X1.100000*%
%ADD24C,0.280000*%
%ADD25C,1.108000*%
%ADD26C,0.250000*%
%ADD27C,0.958000*%
%ADD28C,0.800000*%
%ADD29R,0.900000X0.500000*%
%ADD30R,0.240000X0.240000*%
%ADD31R,0.520000X0.520000*%
%ADD32C,1.308000*%
%ADD33C,0.454000*%
%ADD34C,0.152400*%
%ADD35C,0.150000*%
%ADD36C,0.254000*%
%ADD37C,0.406400*%
%ADD38C,0.304800*%
%ADD39C,0.203200*%
%ADD40C,0.609600*%

G36*
X316218Y-15754D02*
X316218Y-15754D01*
X316337Y-15747D01*
X316375Y-15735D01*
X316416Y-15729D01*
X316526Y-15686D01*
X316639Y-15649D01*
X316674Y-15627D01*
X316711Y-15612D01*
X316807Y-15543D01*
X316908Y-15479D01*
X316936Y-15449D01*
X316969Y-15426D01*
X317045Y-15334D01*
X317126Y-15247D01*
X317146Y-15212D01*
X317171Y-15181D01*
X317222Y-15073D01*
X317280Y-14969D01*
X317290Y-14929D01*
X317307Y-14893D01*
X317329Y-14776D01*
X317359Y-14661D01*
X317363Y-14601D01*
X317367Y-14581D01*
X317365Y-14560D01*
X317369Y-14500D01*
X317369Y187800D01*
X317354Y187918D01*
X317347Y188037D01*
X317334Y188075D01*
X317329Y188116D01*
X317286Y188226D01*
X317249Y188339D01*
X317227Y188374D01*
X317212Y188411D01*
X317143Y188507D01*
X317079Y188608D01*
X317049Y188636D01*
X317026Y188669D01*
X316934Y188745D01*
X316847Y188826D01*
X316812Y188846D01*
X316781Y188871D01*
X316673Y188922D01*
X316569Y188980D01*
X316529Y188990D01*
X316493Y189007D01*
X316376Y189029D01*
X316261Y189059D01*
X316201Y189063D01*
X316181Y189067D01*
X316160Y189065D01*
X316100Y189069D01*
X-17100Y189069D01*
X-17218Y189054D01*
X-17337Y189047D01*
X-17375Y189034D01*
X-17416Y189029D01*
X-17526Y188986D01*
X-17639Y188949D01*
X-17674Y188927D01*
X-17711Y188912D01*
X-17807Y188843D01*
X-17908Y188779D01*
X-17936Y188749D01*
X-17969Y188726D01*
X-18045Y188634D01*
X-18126Y188547D01*
X-18146Y188512D01*
X-18171Y188481D01*
X-18222Y188373D01*
X-18280Y188269D01*
X-18290Y188229D01*
X-18307Y188193D01*
X-18329Y188076D01*
X-18359Y187961D01*
X-18363Y187901D01*
X-18367Y187881D01*
X-18365Y187860D01*
X-18369Y187800D01*
X-18369Y-14500D01*
X-18354Y-14618D01*
X-18347Y-14737D01*
X-18334Y-14775D01*
X-18329Y-14816D01*
X-18286Y-14926D01*
X-18249Y-15039D01*
X-18227Y-15074D01*
X-18212Y-15111D01*
X-18143Y-15208D01*
X-18079Y-15308D01*
X-18049Y-15336D01*
X-18026Y-15369D01*
X-17934Y-15445D01*
X-17847Y-15526D01*
X-17812Y-15546D01*
X-17781Y-15571D01*
X-17673Y-15622D01*
X-17569Y-15680D01*
X-17529Y-15690D01*
X-17493Y-15707D01*
X-17376Y-15729D01*
X-17261Y-15759D01*
X-17201Y-15763D01*
X-17181Y-15767D01*
X-17160Y-15765D01*
X-17100Y-15769D01*
X316100Y-15769D01*
X316218Y-15754D01*
G37*
%LPC*%
G36*
X13184Y-3279D02*
X13184Y-3279D01*
X10038Y-1462D01*
X8221Y1684D01*
X8221Y23952D01*
X8206Y24070D01*
X8199Y24189D01*
X8186Y24227D01*
X8181Y24268D01*
X8138Y24378D01*
X8101Y24491D01*
X8079Y24526D01*
X8064Y24563D01*
X7995Y24659D01*
X7931Y24760D01*
X7901Y24788D01*
X7878Y24821D01*
X7786Y24897D01*
X7699Y24978D01*
X7664Y24998D01*
X7633Y25023D01*
X7525Y25074D01*
X7421Y25132D01*
X7381Y25142D01*
X7345Y25159D01*
X7228Y25181D01*
X7113Y25211D01*
X7053Y25215D01*
X7033Y25219D01*
X7012Y25217D01*
X6952Y25221D01*
X3263Y25221D01*
X2221Y26263D01*
X2221Y29434D01*
X2218Y29464D01*
X2220Y29493D01*
X2198Y29621D01*
X2181Y29750D01*
X2171Y29777D01*
X2166Y29806D01*
X2112Y29925D01*
X2064Y30046D01*
X2047Y30070D01*
X2035Y30096D01*
X1954Y30198D01*
X1878Y30303D01*
X1855Y30322D01*
X1836Y30345D01*
X1733Y30423D01*
X1633Y30506D01*
X1606Y30518D01*
X1582Y30536D01*
X1438Y30607D01*
X-424Y31378D01*
X-2622Y33576D01*
X-3811Y36446D01*
X-3811Y39554D01*
X-2622Y42424D01*
X-444Y44602D01*
X-370Y44697D01*
X-292Y44786D01*
X-273Y44822D01*
X-249Y44854D01*
X-201Y44963D01*
X-147Y45069D01*
X-138Y45108D01*
X-122Y45146D01*
X-104Y45263D01*
X-78Y45379D01*
X-79Y45420D01*
X-72Y45460D01*
X-84Y45578D01*
X-87Y45697D01*
X-98Y45736D01*
X-102Y45776D01*
X-142Y45888D01*
X-176Y46003D01*
X-196Y46037D01*
X-210Y46076D01*
X-277Y46174D01*
X-337Y46277D01*
X-377Y46322D01*
X-388Y46339D01*
X-404Y46352D01*
X-444Y46397D01*
X-2622Y48576D01*
X-3811Y51446D01*
X-3811Y54554D01*
X-2622Y57424D01*
X-444Y59602D01*
X-370Y59697D01*
X-292Y59786D01*
X-273Y59822D01*
X-249Y59854D01*
X-201Y59963D01*
X-147Y60069D01*
X-138Y60108D01*
X-122Y60146D01*
X-104Y60263D01*
X-78Y60379D01*
X-79Y60420D01*
X-72Y60460D01*
X-84Y60578D01*
X-87Y60697D01*
X-98Y60736D01*
X-102Y60776D01*
X-143Y60889D01*
X-176Y61003D01*
X-196Y61037D01*
X-210Y61076D01*
X-277Y61174D01*
X-337Y61277D01*
X-377Y61322D01*
X-388Y61339D01*
X-404Y61352D01*
X-444Y61397D01*
X-2622Y63576D01*
X-3811Y66446D01*
X-3811Y69554D01*
X-2622Y72424D01*
X-424Y74622D01*
X586Y75040D01*
X599Y75047D01*
X613Y75052D01*
X737Y75126D01*
X862Y75198D01*
X873Y75208D01*
X886Y75216D01*
X986Y75318D01*
X1091Y75419D01*
X1098Y75432D01*
X1109Y75442D01*
X1181Y75567D01*
X1257Y75690D01*
X1261Y75704D01*
X1269Y75717D01*
X1308Y75857D01*
X1351Y75994D01*
X1351Y76009D01*
X1355Y76023D01*
X1359Y76168D01*
X1366Y76312D01*
X1363Y76326D01*
X1363Y76341D01*
X1331Y76481D01*
X1301Y76623D01*
X1295Y76637D01*
X1292Y76651D01*
X1225Y76778D01*
X1162Y76909D01*
X1152Y76920D01*
X1145Y76933D01*
X1050Y77040D01*
X955Y77151D01*
X943Y77159D01*
X933Y77170D01*
X805Y77268D01*
X-169Y77919D01*
X-1081Y78831D01*
X-1796Y79902D01*
X-2252Y81001D01*
X952Y81001D01*
X1070Y81016D01*
X1189Y81023D01*
X1227Y81035D01*
X1268Y81041D01*
X1378Y81084D01*
X1491Y81121D01*
X1526Y81143D01*
X1563Y81158D01*
X1659Y81227D01*
X1760Y81291D01*
X1788Y81321D01*
X1821Y81344D01*
X1897Y81436D01*
X1978Y81523D01*
X1998Y81558D01*
X2023Y81589D01*
X2074Y81697D01*
X2132Y81801D01*
X2142Y81841D01*
X2159Y81877D01*
X2181Y81994D01*
X2211Y82109D01*
X2215Y82169D01*
X2219Y82189D01*
X2217Y82210D01*
X2221Y82270D01*
X2221Y83730D01*
X2206Y83848D01*
X2199Y83967D01*
X2186Y84005D01*
X2181Y84046D01*
X2138Y84156D01*
X2101Y84269D01*
X2079Y84304D01*
X2064Y84341D01*
X1995Y84437D01*
X1931Y84538D01*
X1901Y84566D01*
X1878Y84599D01*
X1786Y84675D01*
X1699Y84756D01*
X1664Y84776D01*
X1633Y84801D01*
X1525Y84852D01*
X1421Y84910D01*
X1381Y84920D01*
X1345Y84937D01*
X1228Y84959D01*
X1113Y84989D01*
X1053Y84993D01*
X1033Y84997D01*
X1012Y84995D01*
X952Y84999D01*
X-2252Y84999D01*
X-1796Y86098D01*
X-1081Y87169D01*
X-169Y88081D01*
X805Y88732D01*
X817Y88742D01*
X830Y88748D01*
X937Y88846D01*
X1046Y88940D01*
X1054Y88952D01*
X1065Y88962D01*
X1145Y89083D01*
X1226Y89202D01*
X1232Y89216D01*
X1240Y89228D01*
X1287Y89365D01*
X1337Y89500D01*
X1338Y89515D01*
X1343Y89529D01*
X1354Y89673D01*
X1369Y89817D01*
X1367Y89831D01*
X1368Y89846D01*
X1343Y89989D01*
X1322Y90131D01*
X1316Y90145D01*
X1314Y90159D01*
X1254Y90291D01*
X1198Y90424D01*
X1189Y90436D01*
X1183Y90449D01*
X1093Y90562D01*
X1005Y90677D01*
X994Y90686D01*
X985Y90698D01*
X869Y90785D01*
X756Y90874D01*
X742Y90880D01*
X731Y90889D01*
X586Y90960D01*
X-424Y91378D01*
X-2622Y93576D01*
X-3811Y96446D01*
X-3811Y99554D01*
X-2622Y102424D01*
X-444Y104602D01*
X-370Y104697D01*
X-292Y104786D01*
X-273Y104822D01*
X-249Y104854D01*
X-201Y104963D01*
X-147Y105069D01*
X-138Y105108D01*
X-122Y105146D01*
X-104Y105263D01*
X-78Y105379D01*
X-79Y105420D01*
X-72Y105460D01*
X-84Y105578D01*
X-87Y105697D01*
X-98Y105736D01*
X-102Y105776D01*
X-143Y105889D01*
X-176Y106003D01*
X-196Y106037D01*
X-210Y106076D01*
X-277Y106174D01*
X-337Y106277D01*
X-377Y106322D01*
X-388Y106339D01*
X-404Y106352D01*
X-444Y106397D01*
X-2622Y108576D01*
X-3811Y111446D01*
X-3811Y114554D01*
X-2622Y117424D01*
X-444Y119602D01*
X-370Y119697D01*
X-292Y119786D01*
X-273Y119822D01*
X-249Y119854D01*
X-201Y119963D01*
X-147Y120069D01*
X-138Y120108D01*
X-122Y120146D01*
X-104Y120263D01*
X-78Y120379D01*
X-79Y120420D01*
X-72Y120460D01*
X-84Y120578D01*
X-87Y120697D01*
X-98Y120736D01*
X-102Y120776D01*
X-143Y120889D01*
X-176Y121003D01*
X-196Y121037D01*
X-210Y121076D01*
X-277Y121174D01*
X-337Y121277D01*
X-377Y121322D01*
X-388Y121339D01*
X-404Y121352D01*
X-444Y121397D01*
X-2622Y123576D01*
X-3811Y126446D01*
X-3811Y129554D01*
X-2622Y132424D01*
X-424Y134622D01*
X1438Y135393D01*
X1463Y135408D01*
X1491Y135417D01*
X1601Y135486D01*
X1714Y135550D01*
X1735Y135571D01*
X1760Y135587D01*
X1849Y135681D01*
X1942Y135772D01*
X1958Y135797D01*
X1978Y135818D01*
X2041Y135932D01*
X2109Y136043D01*
X2117Y136071D01*
X2132Y136097D01*
X2164Y136223D01*
X2202Y136347D01*
X2204Y136376D01*
X2211Y136405D01*
X2221Y136566D01*
X2221Y139237D01*
X3263Y140279D01*
X6952Y140279D01*
X7070Y140294D01*
X7189Y140301D01*
X7227Y140314D01*
X7268Y140319D01*
X7378Y140362D01*
X7491Y140399D01*
X7526Y140421D01*
X7563Y140436D01*
X7659Y140505D01*
X7760Y140569D01*
X7788Y140599D01*
X7821Y140622D01*
X7897Y140714D01*
X7978Y140801D01*
X7998Y140836D01*
X8023Y140867D01*
X8074Y140975D01*
X8132Y141079D01*
X8142Y141119D01*
X8159Y141155D01*
X8181Y141272D01*
X8211Y141387D01*
X8215Y141447D01*
X8219Y141467D01*
X8217Y141488D01*
X8221Y141548D01*
X8221Y161816D01*
X10038Y164962D01*
X13184Y166779D01*
X171816Y166779D01*
X174962Y164962D01*
X176779Y161816D01*
X176779Y155500D01*
X176779Y155498D01*
X176779Y155495D01*
X176790Y155334D01*
X176856Y154829D01*
X176858Y154820D01*
X176859Y154811D01*
X176899Y154666D01*
X176937Y154522D01*
X176941Y154513D01*
X176944Y154504D01*
X177015Y154360D01*
X177521Y153485D01*
X177576Y153412D01*
X177624Y153333D01*
X177672Y153285D01*
X177713Y153232D01*
X177785Y153174D01*
X177851Y153110D01*
X177949Y153045D01*
X177962Y153034D01*
X177970Y153031D01*
X177985Y153021D01*
X178860Y152515D01*
X178869Y152512D01*
X178876Y152506D01*
X179015Y152450D01*
X179153Y152392D01*
X179162Y152391D01*
X179171Y152387D01*
X179329Y152356D01*
X179834Y152290D01*
X179837Y152290D01*
X179839Y152289D01*
X180000Y152279D01*
X253316Y152279D01*
X256462Y150462D01*
X258279Y147316D01*
X258279Y130500D01*
X258279Y130498D01*
X258279Y130495D01*
X258290Y130334D01*
X258356Y129829D01*
X258358Y129820D01*
X258359Y129811D01*
X258399Y129667D01*
X258437Y129522D01*
X258441Y129513D01*
X258444Y129504D01*
X258515Y129360D01*
X259021Y128485D01*
X259076Y128412D01*
X259124Y128333D01*
X259172Y128285D01*
X259213Y128232D01*
X259285Y128174D01*
X259351Y128110D01*
X259449Y128045D01*
X259462Y128034D01*
X259470Y128031D01*
X259485Y128021D01*
X260360Y127515D01*
X260369Y127512D01*
X260376Y127506D01*
X260515Y127450D01*
X260653Y127392D01*
X260662Y127391D01*
X260671Y127387D01*
X260829Y127356D01*
X261334Y127290D01*
X261337Y127290D01*
X261339Y127289D01*
X261500Y127279D01*
X298316Y127279D01*
X301462Y125462D01*
X303279Y122316D01*
X303279Y41684D01*
X301462Y38538D01*
X298316Y36721D01*
X261500Y36721D01*
X261498Y36721D01*
X261495Y36721D01*
X261334Y36710D01*
X260829Y36644D01*
X260820Y36642D01*
X260811Y36641D01*
X260667Y36601D01*
X260522Y36563D01*
X260513Y36559D01*
X260504Y36556D01*
X260360Y36485D01*
X259485Y35979D01*
X259412Y35924D01*
X259333Y35876D01*
X259285Y35828D01*
X259232Y35787D01*
X259174Y35715D01*
X259110Y35649D01*
X259045Y35551D01*
X259034Y35538D01*
X259031Y35530D01*
X259021Y35515D01*
X258515Y34640D01*
X258512Y34631D01*
X258506Y34624D01*
X258450Y34485D01*
X258392Y34347D01*
X258391Y34338D01*
X258387Y34329D01*
X258356Y34171D01*
X258290Y33666D01*
X258290Y33663D01*
X258289Y33661D01*
X258279Y33500D01*
X258279Y16684D01*
X256462Y13538D01*
X253316Y11721D01*
X180500Y11721D01*
X180498Y11721D01*
X180495Y11721D01*
X180334Y11710D01*
X179829Y11644D01*
X179820Y11642D01*
X179811Y11641D01*
X179667Y11601D01*
X179522Y11563D01*
X179513Y11559D01*
X179504Y11556D01*
X179360Y11485D01*
X178485Y10979D01*
X178412Y10924D01*
X178333Y10876D01*
X178285Y10828D01*
X178232Y10787D01*
X178174Y10715D01*
X178110Y10649D01*
X178045Y10551D01*
X178034Y10538D01*
X178031Y10530D01*
X178021Y10515D01*
X177515Y9640D01*
X177512Y9631D01*
X177506Y9624D01*
X177450Y9485D01*
X177392Y9347D01*
X177391Y9338D01*
X177387Y9329D01*
X177356Y9171D01*
X177290Y8666D01*
X177290Y8663D01*
X177289Y8661D01*
X177279Y8500D01*
X177279Y1684D01*
X175462Y-1462D01*
X172316Y-3279D01*
X13184Y-3279D01*
G37*
%LPD*%
G36*
X170502Y279D02*
X170502Y279D01*
X170505Y279D01*
X170666Y290D01*
X171171Y356D01*
X171180Y358D01*
X171189Y359D01*
X171333Y399D01*
X171478Y437D01*
X171487Y441D01*
X171496Y444D01*
X171640Y515D01*
X172515Y1021D01*
X172588Y1076D01*
X172667Y1124D01*
X172715Y1172D01*
X172768Y1213D01*
X172826Y1285D01*
X172890Y1351D01*
X172955Y1449D01*
X172966Y1462D01*
X172969Y1470D01*
X172979Y1485D01*
X173485Y2360D01*
X173488Y2369D01*
X173494Y2376D01*
X173550Y2515D01*
X173608Y2653D01*
X173609Y2662D01*
X173613Y2671D01*
X173644Y2829D01*
X173710Y3334D01*
X173710Y3337D01*
X173711Y3339D01*
X173721Y3500D01*
X173721Y10316D01*
X175538Y13462D01*
X178684Y15279D01*
X187813Y15279D01*
X187862Y15285D01*
X187912Y15283D01*
X188019Y15305D01*
X188128Y15319D01*
X188174Y15337D01*
X188223Y15347D01*
X188322Y15395D01*
X188424Y15436D01*
X188464Y15465D01*
X188509Y15487D01*
X188592Y15558D01*
X188681Y15622D01*
X188713Y15661D01*
X188751Y15693D01*
X188814Y15783D01*
X188884Y15867D01*
X188905Y15912D01*
X188934Y15953D01*
X188973Y16056D01*
X189020Y16155D01*
X189029Y16204D01*
X189046Y16250D01*
X189059Y16360D01*
X189079Y16467D01*
X189076Y16517D01*
X189082Y16566D01*
X189066Y16675D01*
X189060Y16785D01*
X189044Y16832D01*
X189037Y16881D01*
X188999Y16993D01*
X188999Y18231D01*
X193500Y18231D01*
X193618Y18246D01*
X193737Y18253D01*
X193775Y18265D01*
X193815Y18270D01*
X193926Y18314D01*
X194039Y18351D01*
X194073Y18373D01*
X194111Y18387D01*
X194207Y18457D01*
X194308Y18521D01*
X194336Y18551D01*
X194368Y18574D01*
X194369Y18575D01*
X194445Y18666D01*
X194522Y18749D01*
X194526Y18753D01*
X194546Y18789D01*
X194572Y18820D01*
X194622Y18927D01*
X194680Y19032D01*
X194690Y19071D01*
X194707Y19107D01*
X194729Y19224D01*
X194759Y19340D01*
X194763Y19400D01*
X194767Y19420D01*
X194766Y19440D01*
X194769Y19500D01*
X194769Y22001D01*
X197338Y22001D01*
X197476Y22018D01*
X197614Y22031D01*
X197633Y22038D01*
X197653Y22041D01*
X197783Y22092D01*
X197914Y22139D01*
X197930Y22150D01*
X197949Y22158D01*
X198062Y22239D01*
X198177Y22317D01*
X198190Y22333D01*
X198207Y22344D01*
X198295Y22451D01*
X198387Y22556D01*
X198396Y22574D01*
X198409Y22589D01*
X198468Y22715D01*
X198532Y22839D01*
X198536Y22859D01*
X198545Y22877D01*
X198571Y23014D01*
X198601Y23149D01*
X198601Y23170D01*
X198605Y23189D01*
X198596Y23328D01*
X198592Y23467D01*
X198586Y23487D01*
X198585Y23507D01*
X198542Y23639D01*
X198503Y23773D01*
X198493Y23790D01*
X198487Y23809D01*
X198412Y23927D01*
X198342Y24047D01*
X198323Y24068D01*
X198317Y24078D01*
X198302Y24092D01*
X198235Y24168D01*
X198229Y24174D01*
X198229Y25460D01*
X198214Y25578D01*
X198207Y25697D01*
X198194Y25735D01*
X198189Y25776D01*
X198146Y25886D01*
X198109Y25999D01*
X198087Y26034D01*
X198072Y26071D01*
X198003Y26167D01*
X197939Y26268D01*
X197909Y26296D01*
X197886Y26329D01*
X197794Y26405D01*
X197707Y26486D01*
X197672Y26506D01*
X197641Y26531D01*
X197533Y26582D01*
X197429Y26640D01*
X197389Y26650D01*
X197353Y26667D01*
X197236Y26689D01*
X197121Y26719D01*
X197061Y26723D01*
X197041Y26727D01*
X197020Y26725D01*
X196960Y26729D01*
X189011Y26729D01*
X188893Y26714D01*
X188774Y26707D01*
X188736Y26694D01*
X188695Y26689D01*
X188585Y26646D01*
X188472Y26609D01*
X188437Y26587D01*
X188400Y26572D01*
X188303Y26503D01*
X188203Y26439D01*
X188175Y26409D01*
X188142Y26386D01*
X188066Y26294D01*
X187985Y26207D01*
X187965Y26172D01*
X187940Y26141D01*
X187889Y26033D01*
X187831Y25929D01*
X187821Y25889D01*
X187804Y25853D01*
X187782Y25736D01*
X187752Y25621D01*
X187748Y25561D01*
X187744Y25541D01*
X187746Y25520D01*
X187742Y25460D01*
X187742Y23270D01*
X187757Y23152D01*
X187764Y23033D01*
X187776Y22995D01*
X187782Y22954D01*
X187825Y22844D01*
X187862Y22731D01*
X187884Y22696D01*
X187899Y22659D01*
X187968Y22563D01*
X188032Y22462D01*
X188062Y22434D01*
X188085Y22401D01*
X188177Y22325D01*
X188264Y22244D01*
X188299Y22224D01*
X188330Y22199D01*
X188438Y22148D01*
X188542Y22090D01*
X188582Y22080D01*
X188618Y22063D01*
X188735Y22041D01*
X188850Y22011D01*
X188910Y22007D01*
X188930Y22003D01*
X188951Y22005D01*
X189011Y22001D01*
X192231Y22001D01*
X192231Y20769D01*
X188283Y20769D01*
X188161Y20832D01*
X188141Y20836D01*
X188123Y20845D01*
X187986Y20871D01*
X187851Y20901D01*
X187830Y20901D01*
X187810Y20905D01*
X187672Y20896D01*
X187533Y20892D01*
X187513Y20886D01*
X187493Y20885D01*
X187361Y20842D01*
X187227Y20803D01*
X187210Y20793D01*
X187191Y20787D01*
X187073Y20712D01*
X186953Y20642D01*
X186932Y20623D01*
X186922Y20617D01*
X186908Y20602D01*
X186832Y20535D01*
X186026Y19729D01*
X181074Y19729D01*
X180329Y20474D01*
X180329Y21131D01*
X180326Y21160D01*
X180328Y21189D01*
X180306Y21317D01*
X180289Y21446D01*
X180279Y21474D01*
X180273Y21503D01*
X180220Y21621D01*
X180172Y21742D01*
X180155Y21766D01*
X180143Y21793D01*
X180062Y21894D01*
X179986Y21999D01*
X179963Y22018D01*
X179944Y22041D01*
X179840Y22119D01*
X179741Y22202D01*
X179714Y22215D01*
X179690Y22232D01*
X179546Y22303D01*
X179458Y22340D01*
X179351Y22428D01*
X179332Y22437D01*
X179316Y22449D01*
X179188Y22505D01*
X179063Y22564D01*
X179043Y22568D01*
X179025Y22576D01*
X178960Y22586D01*
X178922Y22698D01*
X178876Y22839D01*
X178871Y22848D01*
X178867Y22857D01*
X178786Y22982D01*
X178706Y23108D01*
X178699Y23115D01*
X178693Y23123D01*
X178581Y23239D01*
X178524Y23279D01*
X178475Y23326D01*
X178474Y23326D01*
X178395Y23370D01*
X178320Y23422D01*
X178256Y23446D01*
X178196Y23480D01*
X178108Y23502D01*
X178023Y23534D01*
X177954Y23542D01*
X177888Y23559D01*
X177727Y23569D01*
X175969Y23569D01*
X175969Y23899D01*
X175996Y23917D01*
X176009Y23933D01*
X176026Y23944D01*
X176114Y24051D01*
X176206Y24156D01*
X176216Y24174D01*
X176228Y24189D01*
X176288Y24315D01*
X176351Y24439D01*
X176355Y24459D01*
X176364Y24477D01*
X176390Y24613D01*
X176421Y24749D01*
X176420Y24770D01*
X176424Y24789D01*
X176415Y24928D01*
X176411Y25067D01*
X176405Y25087D01*
X176404Y25107D01*
X176361Y25239D01*
X176323Y25373D01*
X176312Y25390D01*
X176306Y25409D01*
X176232Y25527D01*
X176161Y25647D01*
X176142Y25668D01*
X176136Y25678D01*
X176121Y25692D01*
X176055Y25768D01*
X175822Y26000D01*
X175803Y26046D01*
X175800Y26097D01*
X175788Y26135D01*
X175782Y26176D01*
X175739Y26286D01*
X175702Y26399D01*
X175680Y26434D01*
X175665Y26471D01*
X175596Y26567D01*
X175532Y26668D01*
X175502Y26696D01*
X175479Y26729D01*
X175387Y26805D01*
X175300Y26886D01*
X175265Y26906D01*
X175234Y26931D01*
X175126Y26982D01*
X175022Y27040D01*
X174982Y27050D01*
X174946Y27067D01*
X174829Y27089D01*
X174714Y27119D01*
X174654Y27123D01*
X174634Y27127D01*
X174613Y27125D01*
X174553Y27129D01*
X172974Y27129D01*
X172848Y27255D01*
X172753Y27328D01*
X172664Y27407D01*
X172628Y27426D01*
X172596Y27450D01*
X172487Y27498D01*
X172381Y27552D01*
X172342Y27561D01*
X172304Y27577D01*
X172187Y27595D01*
X172071Y27621D01*
X172030Y27620D01*
X171990Y27627D01*
X171872Y27615D01*
X171753Y27612D01*
X171714Y27601D01*
X171674Y27597D01*
X171562Y27556D01*
X171447Y27523D01*
X171412Y27503D01*
X171374Y27489D01*
X171276Y27422D01*
X171173Y27362D01*
X171128Y27322D01*
X171111Y27311D01*
X171098Y27295D01*
X171053Y27255D01*
X170526Y26729D01*
X160474Y26729D01*
X160253Y26950D01*
X160158Y27023D01*
X160069Y27102D01*
X160033Y27120D01*
X160001Y27145D01*
X159892Y27193D01*
X159786Y27247D01*
X159747Y27256D01*
X159709Y27272D01*
X159592Y27290D01*
X159476Y27316D01*
X159435Y27315D01*
X159395Y27321D01*
X159276Y27310D01*
X159158Y27307D01*
X159119Y27295D01*
X159079Y27292D01*
X158967Y27251D01*
X158852Y27218D01*
X158817Y27198D01*
X158779Y27184D01*
X158681Y27117D01*
X158578Y27057D01*
X158533Y27017D01*
X158516Y27005D01*
X158503Y26990D01*
X158468Y26959D01*
X155540Y26959D01*
X155422Y26944D01*
X155303Y26937D01*
X155265Y26924D01*
X155224Y26919D01*
X155114Y26876D01*
X155001Y26839D01*
X154966Y26817D01*
X154929Y26802D01*
X154833Y26733D01*
X154732Y26669D01*
X154704Y26639D01*
X154671Y26616D01*
X154595Y26524D01*
X154514Y26437D01*
X154494Y26402D01*
X154469Y26371D01*
X154418Y26263D01*
X154360Y26159D01*
X154350Y26119D01*
X154333Y26083D01*
X154311Y25966D01*
X154281Y25851D01*
X154277Y25791D01*
X154273Y25771D01*
X154275Y25750D01*
X154271Y25690D01*
X154271Y19574D01*
X153526Y18829D01*
X142474Y18829D01*
X142215Y19088D01*
X142137Y19148D01*
X142065Y19216D01*
X142012Y19245D01*
X141964Y19282D01*
X141873Y19322D01*
X141787Y19370D01*
X141728Y19385D01*
X141672Y19409D01*
X141574Y19424D01*
X141479Y19449D01*
X141379Y19455D01*
X141358Y19459D01*
X141346Y19457D01*
X141333Y19458D01*
X141331Y19459D01*
X141330Y19459D01*
X141318Y19459D01*
X141291Y19459D01*
X141153Y19442D01*
X141014Y19429D01*
X140995Y19422D01*
X140975Y19419D01*
X140846Y19368D01*
X140715Y19321D01*
X140698Y19310D01*
X140680Y19302D01*
X140567Y19221D01*
X140452Y19143D01*
X140439Y19127D01*
X140422Y19116D01*
X140333Y19008D01*
X140242Y18904D01*
X140232Y18886D01*
X140219Y18871D01*
X140160Y18745D01*
X140097Y18621D01*
X140093Y18601D01*
X140084Y18583D01*
X140058Y18447D01*
X140027Y18311D01*
X140028Y18290D01*
X140024Y18271D01*
X140033Y18132D01*
X140037Y17993D01*
X140043Y17973D01*
X140044Y17953D01*
X140087Y17821D01*
X140125Y17687D01*
X140136Y17670D01*
X140142Y17651D01*
X140152Y17635D01*
X140152Y8666D01*
X135184Y3698D01*
X126203Y3698D01*
X126128Y3740D01*
X126069Y3755D01*
X126013Y3779D01*
X125915Y3794D01*
X125820Y3819D01*
X125720Y3825D01*
X125699Y3829D01*
X125687Y3827D01*
X125659Y3829D01*
X118341Y3829D01*
X118243Y3817D01*
X118144Y3814D01*
X118085Y3797D01*
X118025Y3789D01*
X117933Y3753D01*
X117838Y3725D01*
X117792Y3698D01*
X108816Y3698D01*
X103848Y8666D01*
X103848Y13780D01*
X103833Y13898D01*
X103826Y14017D01*
X103813Y14055D01*
X103808Y14096D01*
X103765Y14206D01*
X103728Y14319D01*
X103706Y14354D01*
X103691Y14391D01*
X103622Y14487D01*
X103558Y14588D01*
X103528Y14616D01*
X103505Y14649D01*
X103413Y14725D01*
X103326Y14806D01*
X103291Y14826D01*
X103260Y14851D01*
X103152Y14902D01*
X103048Y14960D01*
X103008Y14970D01*
X102972Y14987D01*
X102855Y15009D01*
X102740Y15039D01*
X102680Y15043D01*
X102660Y15047D01*
X102639Y15045D01*
X102579Y15049D01*
X99045Y15049D01*
X98947Y15037D01*
X98848Y15034D01*
X98789Y15017D01*
X98729Y15009D01*
X98637Y14973D01*
X98542Y14945D01*
X98490Y14915D01*
X98434Y14892D01*
X98354Y14834D01*
X98268Y14784D01*
X98193Y14718D01*
X98176Y14706D01*
X98169Y14696D01*
X98147Y14678D01*
X97199Y13729D01*
X96842Y13729D01*
X96704Y13712D01*
X96566Y13699D01*
X96547Y13692D01*
X96527Y13689D01*
X96398Y13638D01*
X96267Y13591D01*
X96250Y13580D01*
X96231Y13572D01*
X96119Y13491D01*
X96004Y13413D01*
X95990Y13397D01*
X95974Y13386D01*
X95885Y13278D01*
X95793Y13174D01*
X95784Y13156D01*
X95771Y13141D01*
X95712Y13015D01*
X95648Y12891D01*
X95644Y12871D01*
X95635Y12853D01*
X95609Y12716D01*
X95579Y12581D01*
X95579Y12560D01*
X95576Y12541D01*
X95584Y12402D01*
X95588Y12263D01*
X95594Y12243D01*
X95595Y12223D01*
X95638Y12091D01*
X95677Y11957D01*
X95687Y11940D01*
X95693Y11921D01*
X95768Y11803D01*
X95838Y11683D01*
X95857Y11662D01*
X95864Y11652D01*
X95879Y11638D01*
X95945Y11563D01*
X96541Y10967D01*
X96541Y8033D01*
X94467Y5959D01*
X91533Y5959D01*
X91379Y6114D01*
X91285Y6187D01*
X91195Y6266D01*
X91159Y6284D01*
X91128Y6309D01*
X91018Y6356D01*
X90912Y6410D01*
X90873Y6419D01*
X90836Y6435D01*
X90718Y6454D01*
X90602Y6480D01*
X90562Y6479D01*
X90522Y6485D01*
X90403Y6474D01*
X90284Y6470D01*
X90245Y6459D01*
X90205Y6455D01*
X90093Y6415D01*
X89979Y6382D01*
X89944Y6361D01*
X89906Y6348D01*
X89807Y6281D01*
X89705Y6220D01*
X89659Y6181D01*
X89643Y6169D01*
X89629Y6154D01*
X89584Y6114D01*
X89099Y5629D01*
X87176Y5629D01*
X87083Y5677D01*
X87044Y5685D01*
X87007Y5701D01*
X86889Y5720D01*
X86773Y5746D01*
X86733Y5745D01*
X86693Y5751D01*
X86574Y5740D01*
X86455Y5737D01*
X86416Y5725D01*
X86376Y5722D01*
X86264Y5681D01*
X86150Y5648D01*
X86115Y5628D01*
X86077Y5614D01*
X85978Y5547D01*
X85876Y5487D01*
X85831Y5447D01*
X85814Y5435D01*
X85800Y5420D01*
X85755Y5380D01*
X84773Y4398D01*
X84772Y4398D01*
X83210Y2835D01*
X60916Y2835D01*
X60344Y3408D01*
X60266Y3468D01*
X60194Y3536D01*
X60141Y3565D01*
X60093Y3602D01*
X60002Y3642D01*
X59915Y3690D01*
X59857Y3705D01*
X59801Y3729D01*
X59703Y3744D01*
X59607Y3769D01*
X59507Y3775D01*
X59487Y3779D01*
X59475Y3777D01*
X59447Y3779D01*
X57824Y3779D01*
X57363Y4240D01*
X57268Y4313D01*
X57179Y4392D01*
X57143Y4410D01*
X57111Y4435D01*
X57002Y4483D01*
X56896Y4537D01*
X56857Y4545D01*
X56819Y4562D01*
X56702Y4580D01*
X56586Y4606D01*
X56545Y4605D01*
X56505Y4611D01*
X56387Y4600D01*
X56268Y4597D01*
X56229Y4585D01*
X56189Y4582D01*
X56077Y4541D01*
X55962Y4508D01*
X55928Y4488D01*
X55889Y4474D01*
X55791Y4407D01*
X55688Y4347D01*
X55643Y4307D01*
X55626Y4295D01*
X55613Y4280D01*
X55568Y4240D01*
X54335Y3007D01*
X51401Y3007D01*
X51313Y3096D01*
X51235Y3156D01*
X51163Y3224D01*
X51110Y3253D01*
X51062Y3290D01*
X50971Y3330D01*
X50884Y3378D01*
X50826Y3393D01*
X50770Y3417D01*
X50672Y3432D01*
X50576Y3457D01*
X50476Y3463D01*
X50456Y3467D01*
X50444Y3465D01*
X50416Y3467D01*
X19658Y3467D01*
X16918Y6208D01*
X16839Y6268D01*
X16767Y6336D01*
X16714Y6365D01*
X16666Y6402D01*
X16576Y6442D01*
X16489Y6490D01*
X16430Y6505D01*
X16375Y6529D01*
X16277Y6544D01*
X16181Y6569D01*
X16081Y6575D01*
X16061Y6579D01*
X16048Y6577D01*
X16024Y6579D01*
X15279Y7324D01*
X15279Y12698D01*
X15357Y12786D01*
X15376Y12822D01*
X15400Y12854D01*
X15448Y12963D01*
X15502Y13069D01*
X15511Y13108D01*
X15527Y13146D01*
X15545Y13263D01*
X15571Y13379D01*
X15570Y13420D01*
X15577Y13460D01*
X15565Y13578D01*
X15562Y13697D01*
X15551Y13736D01*
X15547Y13776D01*
X15506Y13888D01*
X15473Y14003D01*
X15453Y14037D01*
X15439Y14076D01*
X15372Y14174D01*
X15312Y14277D01*
X15279Y14314D01*
X15279Y19676D01*
X16378Y20775D01*
X16438Y20853D01*
X16506Y20925D01*
X16535Y20978D01*
X16572Y21026D01*
X16612Y21117D01*
X16660Y21203D01*
X16675Y21262D01*
X16699Y21318D01*
X16714Y21416D01*
X16739Y21511D01*
X16745Y21611D01*
X16749Y21632D01*
X16747Y21644D01*
X16749Y21672D01*
X16749Y21831D01*
X18000Y21831D01*
X18118Y21846D01*
X18237Y21853D01*
X18275Y21865D01*
X18315Y21870D01*
X18426Y21914D01*
X18539Y21951D01*
X18573Y21973D01*
X18611Y21987D01*
X18707Y22057D01*
X18808Y22121D01*
X18836Y22151D01*
X18868Y22174D01*
X18869Y22175D01*
X18945Y22266D01*
X19021Y22348D01*
X19026Y22353D01*
X19046Y22389D01*
X19072Y22420D01*
X19122Y22527D01*
X19180Y22632D01*
X19190Y22671D01*
X19207Y22707D01*
X19229Y22824D01*
X19259Y22940D01*
X19263Y23000D01*
X19267Y23020D01*
X19266Y23040D01*
X19269Y23100D01*
X19269Y24851D01*
X19428Y24851D01*
X19526Y24863D01*
X19625Y24866D01*
X19683Y24883D01*
X19743Y24891D01*
X19836Y24927D01*
X19931Y24955D01*
X19983Y24985D01*
X20039Y25008D01*
X20119Y25066D01*
X20205Y25116D01*
X20280Y25182D01*
X20296Y25194D01*
X20304Y25204D01*
X20325Y25222D01*
X20596Y25493D01*
X20656Y25571D01*
X20724Y25643D01*
X20753Y25696D01*
X20790Y25744D01*
X20830Y25835D01*
X20878Y25921D01*
X20893Y25980D01*
X20917Y26036D01*
X20932Y26134D01*
X20957Y26229D01*
X20963Y26329D01*
X20967Y26350D01*
X20965Y26362D01*
X20967Y26390D01*
X20967Y27436D01*
X20955Y27534D01*
X20952Y27633D01*
X20935Y27691D01*
X20927Y27751D01*
X20891Y27843D01*
X20863Y27939D01*
X20833Y27991D01*
X20810Y28047D01*
X20752Y28127D01*
X20702Y28212D01*
X20636Y28288D01*
X20624Y28304D01*
X20614Y28312D01*
X20596Y28333D01*
X20362Y28567D01*
X19439Y30794D01*
X19439Y33206D01*
X20362Y35433D01*
X22067Y37138D01*
X24294Y38061D01*
X26706Y38061D01*
X28933Y37138D01*
X29212Y36859D01*
X29322Y36773D01*
X29429Y36685D01*
X29448Y36676D01*
X29464Y36664D01*
X29592Y36608D01*
X29717Y36549D01*
X29737Y36545D01*
X29756Y36537D01*
X29894Y36515D01*
X30030Y36489D01*
X30050Y36491D01*
X30070Y36488D01*
X30209Y36501D01*
X30347Y36509D01*
X30366Y36515D01*
X30386Y36517D01*
X30518Y36565D01*
X30649Y36607D01*
X30666Y36618D01*
X30686Y36625D01*
X30801Y36703D01*
X30918Y36777D01*
X30932Y36792D01*
X30949Y36804D01*
X31041Y36907D01*
X31136Y37009D01*
X31146Y37027D01*
X31159Y37042D01*
X31223Y37166D01*
X31290Y37288D01*
X31295Y37307D01*
X31304Y37325D01*
X31334Y37461D01*
X31369Y37595D01*
X31371Y37623D01*
X31374Y37635D01*
X31373Y37656D01*
X31379Y37756D01*
X31379Y40776D01*
X31380Y40777D01*
X31711Y40777D01*
X31711Y37626D01*
X31711Y33785D01*
X31708Y33779D01*
X31650Y33675D01*
X31640Y33635D01*
X31623Y33599D01*
X31601Y33482D01*
X31571Y33367D01*
X31567Y33307D01*
X31563Y33287D01*
X31565Y33266D01*
X31561Y33206D01*
X31561Y30896D01*
X31576Y30778D01*
X31583Y30659D01*
X31596Y30621D01*
X31601Y30580D01*
X31644Y30470D01*
X31681Y30357D01*
X31703Y30322D01*
X31718Y30285D01*
X31787Y30189D01*
X31851Y30088D01*
X31881Y30060D01*
X31904Y30027D01*
X31996Y29951D01*
X32083Y29870D01*
X32118Y29850D01*
X32149Y29825D01*
X32257Y29774D01*
X32361Y29716D01*
X32401Y29706D01*
X32437Y29689D01*
X32554Y29667D01*
X32669Y29637D01*
X32729Y29633D01*
X32749Y29629D01*
X32770Y29631D01*
X32830Y29627D01*
X37941Y29627D01*
X37941Y26865D01*
X32679Y26865D01*
X32679Y27544D01*
X32662Y27681D01*
X32649Y27820D01*
X32642Y27839D01*
X32639Y27859D01*
X32588Y27988D01*
X32541Y28119D01*
X32530Y28136D01*
X32522Y28155D01*
X32441Y28268D01*
X32363Y28383D01*
X32347Y28396D01*
X32336Y28412D01*
X32228Y28501D01*
X32124Y28593D01*
X32106Y28602D01*
X32091Y28615D01*
X31965Y28674D01*
X31841Y28738D01*
X31821Y28742D01*
X31803Y28751D01*
X31666Y28777D01*
X31531Y28807D01*
X31510Y28807D01*
X31491Y28811D01*
X31352Y28802D01*
X31213Y28798D01*
X31193Y28792D01*
X31173Y28791D01*
X31041Y28748D01*
X30907Y28709D01*
X30890Y28699D01*
X30871Y28693D01*
X30753Y28618D01*
X30633Y28548D01*
X30612Y28529D01*
X30602Y28523D01*
X30588Y28508D01*
X30513Y28441D01*
X28933Y26862D01*
X26669Y25924D01*
X26553Y25917D01*
X26515Y25904D01*
X26474Y25899D01*
X26364Y25856D01*
X26251Y25819D01*
X26216Y25797D01*
X26179Y25782D01*
X26083Y25713D01*
X25982Y25649D01*
X25954Y25619D01*
X25921Y25596D01*
X25845Y25504D01*
X25764Y25417D01*
X25744Y25382D01*
X25719Y25351D01*
X25668Y25243D01*
X25610Y25139D01*
X25600Y25099D01*
X25583Y25063D01*
X25561Y24946D01*
X25531Y24831D01*
X25527Y24771D01*
X25523Y24751D01*
X25525Y24730D01*
X25521Y24670D01*
X25521Y21310D01*
X25536Y21192D01*
X25543Y21073D01*
X25556Y21035D01*
X25561Y20994D01*
X25604Y20884D01*
X25641Y20771D01*
X25663Y20736D01*
X25678Y20699D01*
X25747Y20603D01*
X25811Y20502D01*
X25841Y20474D01*
X25864Y20441D01*
X25956Y20365D01*
X26043Y20284D01*
X26078Y20264D01*
X26109Y20239D01*
X26217Y20188D01*
X26321Y20130D01*
X26361Y20120D01*
X26397Y20103D01*
X26514Y20081D01*
X26629Y20051D01*
X26689Y20047D01*
X26709Y20043D01*
X26730Y20045D01*
X26790Y20041D01*
X29467Y20041D01*
X30513Y18995D01*
X30622Y18910D01*
X30729Y18821D01*
X30748Y18812D01*
X30764Y18800D01*
X30891Y18745D01*
X31017Y18685D01*
X31037Y18682D01*
X31056Y18674D01*
X31194Y18652D01*
X31330Y18626D01*
X31350Y18627D01*
X31370Y18624D01*
X31509Y18637D01*
X31647Y18645D01*
X31666Y18652D01*
X31686Y18653D01*
X31818Y18701D01*
X31949Y18743D01*
X31967Y18754D01*
X31986Y18761D01*
X32101Y18839D01*
X32218Y18914D01*
X32232Y18928D01*
X32249Y18940D01*
X32341Y19044D01*
X32436Y19145D01*
X32446Y19163D01*
X32459Y19178D01*
X32523Y19302D01*
X32590Y19424D01*
X32595Y19443D01*
X32604Y19461D01*
X32634Y19597D01*
X32669Y19732D01*
X32671Y19760D01*
X32674Y19772D01*
X32673Y19792D01*
X32679Y19892D01*
X32679Y21787D01*
X37941Y21787D01*
X37941Y19460D01*
X37953Y19361D01*
X37956Y19262D01*
X37973Y19204D01*
X37981Y19144D01*
X38017Y19052D01*
X38045Y18957D01*
X38075Y18905D01*
X38098Y18848D01*
X38156Y18768D01*
X38206Y18683D01*
X38273Y18608D01*
X38285Y18591D01*
X38294Y18583D01*
X38313Y18562D01*
X41056Y15818D01*
X41135Y15758D01*
X41207Y15690D01*
X41260Y15661D01*
X41308Y15624D01*
X41398Y15584D01*
X41485Y15536D01*
X41544Y15521D01*
X41599Y15497D01*
X41697Y15482D01*
X41793Y15457D01*
X41893Y15451D01*
X41913Y15447D01*
X41926Y15449D01*
X41954Y15447D01*
X50106Y15447D01*
X50613Y14941D01*
X50722Y14856D01*
X50829Y14767D01*
X50848Y14758D01*
X50864Y14746D01*
X50992Y14690D01*
X51117Y14631D01*
X51137Y14627D01*
X51156Y14619D01*
X51294Y14597D01*
X51430Y14571D01*
X51450Y14573D01*
X51470Y14569D01*
X51609Y14583D01*
X51747Y14591D01*
X51766Y14597D01*
X51786Y14599D01*
X51917Y14646D01*
X52049Y14689D01*
X52067Y14700D01*
X52086Y14707D01*
X52200Y14785D01*
X52318Y14859D01*
X52332Y14874D01*
X52349Y14885D01*
X52441Y14989D01*
X52536Y15091D01*
X52546Y15109D01*
X52559Y15124D01*
X52622Y15248D01*
X52690Y15369D01*
X52695Y15389D01*
X52704Y15407D01*
X52734Y15543D01*
X52769Y15677D01*
X52771Y15705D01*
X52774Y15717D01*
X52773Y15738D01*
X52779Y15838D01*
X52779Y19076D01*
X53524Y19821D01*
X57418Y19821D01*
X57509Y19832D01*
X57517Y19807D01*
X57527Y19790D01*
X57533Y19771D01*
X57608Y19653D01*
X57678Y19533D01*
X57697Y19512D01*
X57703Y19502D01*
X57718Y19488D01*
X57785Y19412D01*
X58275Y18922D01*
X58353Y18862D01*
X58425Y18794D01*
X58478Y18765D01*
X58526Y18728D01*
X58617Y18688D01*
X58703Y18640D01*
X58762Y18625D01*
X58818Y18601D01*
X58916Y18586D01*
X59011Y18561D01*
X59112Y18555D01*
X59132Y18551D01*
X59144Y18553D01*
X59172Y18551D01*
X59281Y18551D01*
X59281Y16400D01*
X59296Y16282D01*
X59303Y16163D01*
X59315Y16125D01*
X59320Y16085D01*
X59364Y15974D01*
X59401Y15861D01*
X59423Y15827D01*
X59437Y15789D01*
X59507Y15693D01*
X59571Y15592D01*
X59601Y15564D01*
X59624Y15532D01*
X59716Y15456D01*
X59803Y15374D01*
X59838Y15355D01*
X59869Y15329D01*
X59977Y15278D01*
X60081Y15221D01*
X60120Y15211D01*
X60157Y15193D01*
X60274Y15171D01*
X60389Y15141D01*
X60449Y15137D01*
X60469Y15134D01*
X60470Y15134D01*
X60490Y15135D01*
X60550Y15131D01*
X60668Y15146D01*
X60787Y15153D01*
X60825Y15166D01*
X60866Y15171D01*
X60976Y15215D01*
X61090Y15251D01*
X61124Y15273D01*
X61161Y15288D01*
X61258Y15358D01*
X61358Y15422D01*
X61386Y15451D01*
X61419Y15475D01*
X61495Y15567D01*
X61576Y15653D01*
X61596Y15689D01*
X61622Y15720D01*
X61672Y15827D01*
X61730Y15932D01*
X61740Y15971D01*
X61757Y16007D01*
X61779Y16124D01*
X61809Y16240D01*
X61813Y16300D01*
X61817Y16320D01*
X61816Y16340D01*
X61819Y16400D01*
X61819Y18551D01*
X61930Y18551D01*
X62048Y18566D01*
X62167Y18573D01*
X62205Y18585D01*
X62246Y18591D01*
X62347Y18631D01*
X65431Y18631D01*
X65431Y15900D01*
X65446Y15782D01*
X65453Y15663D01*
X65465Y15625D01*
X65470Y15585D01*
X65514Y15474D01*
X65551Y15361D01*
X65573Y15327D01*
X65587Y15289D01*
X65657Y15193D01*
X65721Y15092D01*
X65751Y15064D01*
X65774Y15032D01*
X65866Y14956D01*
X65953Y14874D01*
X65988Y14855D01*
X66019Y14829D01*
X66127Y14778D01*
X66231Y14721D01*
X66270Y14711D01*
X66307Y14693D01*
X66424Y14671D01*
X66539Y14641D01*
X66599Y14637D01*
X66619Y14634D01*
X66620Y14634D01*
X66640Y14635D01*
X66700Y14631D01*
X66818Y14646D01*
X66937Y14653D01*
X66975Y14666D01*
X67016Y14671D01*
X67126Y14715D01*
X67240Y14751D01*
X67274Y14773D01*
X67311Y14788D01*
X67408Y14858D01*
X67508Y14922D01*
X67536Y14951D01*
X67569Y14975D01*
X67645Y15067D01*
X67726Y15153D01*
X67746Y15189D01*
X67772Y15220D01*
X67822Y15327D01*
X67880Y15432D01*
X67890Y15471D01*
X67907Y15507D01*
X67929Y15624D01*
X67959Y15740D01*
X67963Y15800D01*
X67967Y15820D01*
X67966Y15840D01*
X67969Y15900D01*
X67969Y19900D01*
X67954Y20018D01*
X67947Y20137D01*
X67935Y20175D01*
X67930Y20215D01*
X67886Y20326D01*
X67849Y20439D01*
X67827Y20473D01*
X67813Y20511D01*
X67743Y20607D01*
X67679Y20708D01*
X67678Y20708D01*
X67649Y20736D01*
X67626Y20768D01*
X67625Y20769D01*
X67533Y20845D01*
X67447Y20926D01*
X67411Y20946D01*
X67380Y20972D01*
X67273Y21022D01*
X67168Y21080D01*
X67129Y21090D01*
X67093Y21107D01*
X66976Y21129D01*
X66860Y21159D01*
X66800Y21163D01*
X66780Y21167D01*
X66760Y21166D01*
X66700Y21169D01*
X62862Y21169D01*
X62856Y21179D01*
X62764Y21255D01*
X62677Y21336D01*
X62642Y21356D01*
X62611Y21381D01*
X62503Y21432D01*
X62399Y21490D01*
X62359Y21500D01*
X62323Y21517D01*
X62206Y21539D01*
X62091Y21569D01*
X62031Y21573D01*
X62011Y21577D01*
X61990Y21575D01*
X61930Y21579D01*
X58682Y21579D01*
X58591Y21568D01*
X58583Y21593D01*
X58573Y21610D01*
X58567Y21629D01*
X58493Y21747D01*
X58422Y21867D01*
X58403Y21888D01*
X58397Y21898D01*
X58382Y21912D01*
X58315Y21988D01*
X57825Y22478D01*
X57747Y22538D01*
X57675Y22606D01*
X57622Y22635D01*
X57574Y22672D01*
X57483Y22712D01*
X57397Y22760D01*
X57338Y22775D01*
X57282Y22799D01*
X57184Y22814D01*
X57089Y22839D01*
X56988Y22845D01*
X56968Y22849D01*
X56956Y22847D01*
X56928Y22849D01*
X56769Y22849D01*
X56769Y24600D01*
X56754Y24718D01*
X56747Y24837D01*
X56735Y24875D01*
X56730Y24915D01*
X56686Y25026D01*
X56649Y25139D01*
X56627Y25173D01*
X56613Y25211D01*
X56543Y25307D01*
X56479Y25408D01*
X56478Y25408D01*
X56449Y25436D01*
X56426Y25468D01*
X56425Y25469D01*
X56333Y25545D01*
X56247Y25626D01*
X56211Y25646D01*
X56180Y25672D01*
X56073Y25722D01*
X55968Y25780D01*
X55929Y25790D01*
X55893Y25807D01*
X55776Y25829D01*
X55660Y25859D01*
X55600Y25863D01*
X55580Y25867D01*
X55560Y25866D01*
X55500Y25869D01*
X54249Y25869D01*
X54249Y26350D01*
X54261Y26362D01*
X54292Y26401D01*
X54329Y26435D01*
X54389Y26527D01*
X54456Y26613D01*
X54476Y26659D01*
X54503Y26701D01*
X54539Y26804D01*
X54582Y26905D01*
X54590Y26954D01*
X54606Y27002D01*
X54615Y27111D01*
X54632Y27219D01*
X54628Y27269D01*
X54632Y27319D01*
X54613Y27427D01*
X54602Y27536D01*
X54586Y27583D01*
X54577Y27632D01*
X54532Y27732D01*
X54495Y27835D01*
X54467Y27876D01*
X54446Y27922D01*
X54378Y28008D01*
X54316Y28098D01*
X54279Y28131D01*
X54248Y28170D01*
X54170Y28229D01*
X54049Y28350D01*
X54049Y29231D01*
X55450Y29231D01*
X55568Y29246D01*
X55687Y29253D01*
X55725Y29265D01*
X55765Y29270D01*
X55876Y29314D01*
X55989Y29351D01*
X56023Y29373D01*
X56061Y29387D01*
X56157Y29457D01*
X56258Y29521D01*
X56286Y29551D01*
X56318Y29574D01*
X56394Y29666D01*
X56476Y29753D01*
X56495Y29788D01*
X56521Y29819D01*
X56572Y29927D01*
X56629Y30031D01*
X56639Y30070D01*
X56657Y30107D01*
X56679Y30224D01*
X56709Y30339D01*
X56713Y30399D01*
X56716Y30419D01*
X56716Y30420D01*
X56715Y30440D01*
X56719Y30500D01*
X56704Y30618D01*
X56697Y30737D01*
X56684Y30775D01*
X56679Y30816D01*
X56635Y30926D01*
X56599Y31040D01*
X56577Y31074D01*
X56562Y31111D01*
X56492Y31208D01*
X56428Y31308D01*
X56399Y31336D01*
X56375Y31369D01*
X56283Y31445D01*
X56197Y31526D01*
X56161Y31546D01*
X56130Y31572D01*
X56023Y31622D01*
X55918Y31680D01*
X55879Y31690D01*
X55843Y31707D01*
X55726Y31729D01*
X55610Y31759D01*
X55550Y31763D01*
X55530Y31767D01*
X55510Y31766D01*
X55450Y31769D01*
X54049Y31769D01*
X54049Y32650D01*
X54061Y32662D01*
X54078Y32672D01*
X54143Y32698D01*
X54216Y32750D01*
X54294Y32795D01*
X54344Y32843D01*
X54401Y32884D01*
X54458Y32954D01*
X54522Y33016D01*
X54559Y33076D01*
X54603Y33129D01*
X54642Y33211D01*
X54689Y33287D01*
X54709Y33354D01*
X54739Y33417D01*
X54756Y33505D01*
X54782Y33591D01*
X54786Y33661D01*
X54799Y33730D01*
X54793Y33819D01*
X54797Y33909D01*
X54783Y33977D01*
X54779Y34047D01*
X54751Y34132D01*
X54733Y34220D01*
X54702Y34283D01*
X54681Y34349D01*
X54633Y34425D01*
X54593Y34506D01*
X54548Y34559D01*
X54511Y34618D01*
X54445Y34680D01*
X54387Y34748D01*
X54330Y34788D01*
X54279Y34836D01*
X54200Y34879D01*
X54127Y34931D01*
X54062Y34956D01*
X54001Y34990D01*
X53914Y35012D01*
X53830Y35044D01*
X53760Y35052D01*
X53693Y35069D01*
X53532Y35079D01*
X53524Y35079D01*
X53017Y35585D01*
X52908Y35670D01*
X52801Y35759D01*
X52782Y35768D01*
X52766Y35780D01*
X52638Y35836D01*
X52513Y35895D01*
X52493Y35899D01*
X52474Y35907D01*
X52336Y35929D01*
X52200Y35955D01*
X52180Y35953D01*
X52160Y35957D01*
X52021Y35943D01*
X51883Y35935D01*
X51864Y35929D01*
X51844Y35927D01*
X51713Y35880D01*
X51581Y35837D01*
X51563Y35826D01*
X51544Y35819D01*
X51430Y35741D01*
X51312Y35667D01*
X51298Y35652D01*
X51281Y35641D01*
X51189Y35537D01*
X51094Y35435D01*
X51084Y35417D01*
X51071Y35402D01*
X51008Y35278D01*
X50940Y35157D01*
X50935Y35137D01*
X50926Y35119D01*
X50896Y34983D01*
X50861Y34849D01*
X50859Y34821D01*
X50856Y34809D01*
X50857Y34788D01*
X50851Y34688D01*
X50851Y33950D01*
X50106Y33205D01*
X35854Y33205D01*
X34955Y34104D01*
X34877Y34164D01*
X34805Y34232D01*
X34752Y34261D01*
X34704Y34298D01*
X34613Y34338D01*
X34527Y34386D01*
X34468Y34401D01*
X34412Y34425D01*
X34314Y34440D01*
X34249Y34457D01*
X34249Y37626D01*
X34249Y40792D01*
X34255Y40792D01*
X34313Y40809D01*
X34373Y40817D01*
X34465Y40853D01*
X34561Y40881D01*
X34613Y40911D01*
X34669Y40934D01*
X34749Y40992D01*
X34835Y41042D01*
X34910Y41108D01*
X34926Y41120D01*
X34934Y41130D01*
X34955Y41148D01*
X35869Y42063D01*
X35954Y42172D01*
X36043Y42279D01*
X36052Y42298D01*
X36064Y42314D01*
X36120Y42442D01*
X36179Y42567D01*
X36183Y42587D01*
X36191Y42606D01*
X36213Y42744D01*
X36239Y42880D01*
X36237Y42900D01*
X36241Y42920D01*
X36228Y43058D01*
X36219Y43197D01*
X36213Y43216D01*
X36211Y43236D01*
X36164Y43368D01*
X36121Y43499D01*
X36110Y43517D01*
X36103Y43536D01*
X36025Y43651D01*
X35951Y43768D01*
X35936Y43782D01*
X35925Y43799D01*
X35821Y43891D01*
X35719Y43986D01*
X35701Y43996D01*
X35686Y44009D01*
X35562Y44072D01*
X35441Y44140D01*
X35427Y44143D01*
X34597Y44974D01*
X34597Y54026D01*
X35341Y54771D01*
X41394Y54771D01*
X41470Y54695D01*
X41564Y54622D01*
X41653Y54543D01*
X41689Y54524D01*
X41721Y54500D01*
X41830Y54452D01*
X41936Y54398D01*
X41976Y54389D01*
X42013Y54373D01*
X42130Y54355D01*
X42247Y54329D01*
X42287Y54330D01*
X42327Y54323D01*
X42446Y54335D01*
X42565Y54338D01*
X42603Y54349D01*
X42644Y54353D01*
X42756Y54394D01*
X42870Y54427D01*
X42905Y54447D01*
X42943Y54461D01*
X43041Y54528D01*
X43144Y54588D01*
X43189Y54628D01*
X43206Y54639D01*
X43219Y54655D01*
X43265Y54695D01*
X43341Y54771D01*
X49394Y54771D01*
X49470Y54695D01*
X49564Y54622D01*
X49653Y54543D01*
X49689Y54524D01*
X49721Y54500D01*
X49830Y54452D01*
X49936Y54398D01*
X49976Y54389D01*
X50013Y54373D01*
X50130Y54355D01*
X50247Y54329D01*
X50287Y54330D01*
X50327Y54323D01*
X50446Y54335D01*
X50565Y54338D01*
X50603Y54349D01*
X50644Y54353D01*
X50756Y54394D01*
X50870Y54427D01*
X50905Y54447D01*
X50943Y54461D01*
X51041Y54528D01*
X51144Y54588D01*
X51189Y54628D01*
X51206Y54639D01*
X51219Y54655D01*
X51265Y54695D01*
X51341Y54771D01*
X57394Y54771D01*
X57470Y54695D01*
X57564Y54622D01*
X57653Y54543D01*
X57689Y54524D01*
X57721Y54500D01*
X57830Y54452D01*
X57936Y54398D01*
X57976Y54389D01*
X58013Y54373D01*
X58130Y54355D01*
X58247Y54329D01*
X58287Y54330D01*
X58327Y54323D01*
X58446Y54335D01*
X58565Y54338D01*
X58603Y54349D01*
X58644Y54353D01*
X58756Y54394D01*
X58870Y54427D01*
X58905Y54447D01*
X58943Y54461D01*
X59041Y54528D01*
X59144Y54588D01*
X59189Y54628D01*
X59206Y54639D01*
X59219Y54655D01*
X59265Y54695D01*
X59341Y54771D01*
X65394Y54771D01*
X65470Y54695D01*
X65564Y54622D01*
X65653Y54543D01*
X65689Y54524D01*
X65721Y54500D01*
X65830Y54452D01*
X65936Y54398D01*
X65976Y54389D01*
X66013Y54373D01*
X66130Y54355D01*
X66247Y54329D01*
X66287Y54330D01*
X66327Y54323D01*
X66446Y54335D01*
X66565Y54338D01*
X66603Y54349D01*
X66644Y54353D01*
X66756Y54394D01*
X66870Y54427D01*
X66905Y54447D01*
X66943Y54461D01*
X67041Y54528D01*
X67144Y54588D01*
X67189Y54628D01*
X67206Y54639D01*
X67219Y54655D01*
X67265Y54695D01*
X67341Y54771D01*
X73190Y54771D01*
X73308Y54786D01*
X73427Y54793D01*
X73465Y54806D01*
X73506Y54811D01*
X73616Y54854D01*
X73729Y54891D01*
X73764Y54913D01*
X73801Y54928D01*
X73897Y54997D01*
X73998Y55061D01*
X74026Y55091D01*
X74059Y55114D01*
X74135Y55206D01*
X74216Y55293D01*
X74236Y55328D01*
X74261Y55359D01*
X74312Y55467D01*
X74370Y55571D01*
X74380Y55611D01*
X74397Y55647D01*
X74419Y55764D01*
X74449Y55879D01*
X74453Y55939D01*
X74457Y55959D01*
X74455Y55980D01*
X74459Y56040D01*
X74459Y58967D01*
X76533Y61041D01*
X79467Y61041D01*
X81102Y59405D01*
X81197Y59332D01*
X81286Y59253D01*
X81322Y59235D01*
X81354Y59210D01*
X81463Y59163D01*
X81569Y59108D01*
X81608Y59100D01*
X81646Y59084D01*
X81763Y59065D01*
X81879Y59039D01*
X81920Y59040D01*
X81960Y59034D01*
X82078Y59045D01*
X82197Y59048D01*
X82236Y59060D01*
X82276Y59064D01*
X82389Y59104D01*
X82503Y59137D01*
X82537Y59157D01*
X82576Y59171D01*
X82674Y59238D01*
X82777Y59298D01*
X82822Y59338D01*
X82839Y59350D01*
X82852Y59365D01*
X82897Y59405D01*
X84533Y61041D01*
X87467Y61041D01*
X89541Y58967D01*
X89541Y56035D01*
X89558Y55895D01*
X89572Y55755D01*
X89578Y55737D01*
X89581Y55719D01*
X89632Y55588D01*
X89680Y55456D01*
X89691Y55441D01*
X89698Y55423D01*
X89780Y55310D01*
X89860Y55193D01*
X89874Y55181D01*
X89884Y55166D01*
X89993Y55076D01*
X90099Y54983D01*
X90115Y54975D01*
X90129Y54963D01*
X90257Y54903D01*
X90383Y54840D01*
X90401Y54836D01*
X90417Y54828D01*
X90555Y54801D01*
X90693Y54771D01*
X90711Y54771D01*
X90729Y54768D01*
X90794Y54772D01*
X90815Y54771D01*
X97394Y54771D01*
X97470Y54695D01*
X97564Y54622D01*
X97653Y54543D01*
X97689Y54524D01*
X97721Y54500D01*
X97830Y54452D01*
X97936Y54398D01*
X97976Y54389D01*
X98013Y54373D01*
X98130Y54355D01*
X98247Y54329D01*
X98287Y54330D01*
X98327Y54323D01*
X98446Y54335D01*
X98565Y54338D01*
X98603Y54349D01*
X98644Y54353D01*
X98756Y54394D01*
X98870Y54427D01*
X98905Y54447D01*
X98943Y54461D01*
X99041Y54528D01*
X99144Y54588D01*
X99189Y54628D01*
X99206Y54639D01*
X99219Y54655D01*
X99265Y54695D01*
X99341Y54771D01*
X105690Y54771D01*
X105808Y54786D01*
X105927Y54793D01*
X105965Y54806D01*
X106006Y54811D01*
X106116Y54854D01*
X106229Y54891D01*
X106264Y54913D01*
X106301Y54928D01*
X106397Y54997D01*
X106498Y55061D01*
X106526Y55091D01*
X106559Y55114D01*
X106635Y55206D01*
X106716Y55293D01*
X106736Y55328D01*
X106761Y55359D01*
X106812Y55467D01*
X106870Y55571D01*
X106880Y55611D01*
X106897Y55647D01*
X106919Y55764D01*
X106949Y55879D01*
X106953Y55939D01*
X106957Y55959D01*
X106955Y55980D01*
X106959Y56040D01*
X106959Y58967D01*
X109033Y61041D01*
X111967Y61041D01*
X113603Y59405D01*
X113697Y59332D01*
X113786Y59253D01*
X113822Y59235D01*
X113854Y59210D01*
X113963Y59163D01*
X114069Y59108D01*
X114108Y59100D01*
X114146Y59084D01*
X114263Y59065D01*
X114379Y59039D01*
X114420Y59040D01*
X114460Y59034D01*
X114578Y59045D01*
X114697Y59048D01*
X114736Y59060D01*
X114776Y59064D01*
X114888Y59104D01*
X115003Y59137D01*
X115038Y59157D01*
X115076Y59171D01*
X115174Y59238D01*
X115277Y59298D01*
X115322Y59338D01*
X115339Y59350D01*
X115352Y59365D01*
X115398Y59405D01*
X117033Y61041D01*
X119967Y61041D01*
X122041Y58967D01*
X122041Y56040D01*
X122056Y55922D01*
X122063Y55803D01*
X122076Y55765D01*
X122081Y55724D01*
X122124Y55614D01*
X122161Y55501D01*
X122183Y55466D01*
X122198Y55429D01*
X122267Y55333D01*
X122331Y55232D01*
X122361Y55204D01*
X122384Y55171D01*
X122476Y55095D01*
X122563Y55014D01*
X122598Y54994D01*
X122629Y54969D01*
X122737Y54918D01*
X122841Y54860D01*
X122881Y54850D01*
X122917Y54833D01*
X123034Y54811D01*
X123149Y54781D01*
X123209Y54777D01*
X123229Y54773D01*
X123250Y54775D01*
X123310Y54771D01*
X129394Y54771D01*
X129760Y54404D01*
X129838Y54344D01*
X129910Y54276D01*
X129963Y54247D01*
X130011Y54210D01*
X130102Y54170D01*
X130189Y54122D01*
X130247Y54107D01*
X130303Y54083D01*
X130401Y54068D01*
X130497Y54043D01*
X130597Y54037D01*
X130617Y54033D01*
X130629Y54035D01*
X130657Y54033D01*
X133597Y54033D01*
X133716Y54048D01*
X133834Y54055D01*
X133873Y54068D01*
X133913Y54073D01*
X134024Y54116D01*
X134137Y54153D01*
X134171Y54175D01*
X134209Y54190D01*
X134305Y54259D01*
X134405Y54323D01*
X134433Y54353D01*
X134466Y54376D01*
X134542Y54468D01*
X134623Y54555D01*
X134643Y54590D01*
X134669Y54621D01*
X134719Y54729D01*
X134777Y54833D01*
X134787Y54873D01*
X134804Y54909D01*
X134827Y55026D01*
X134856Y55141D01*
X134860Y55201D01*
X134864Y55221D01*
X134864Y55227D01*
X134864Y55228D01*
X134863Y55245D01*
X134867Y55302D01*
X134867Y56231D01*
X138867Y56231D01*
X138868Y56231D01*
X142868Y56231D01*
X142868Y55302D01*
X142883Y55184D01*
X142890Y55065D01*
X142903Y55027D01*
X142908Y54986D01*
X142952Y54876D01*
X142988Y54763D01*
X143010Y54728D01*
X143025Y54691D01*
X143095Y54595D01*
X143159Y54494D01*
X143188Y54466D01*
X143212Y54433D01*
X143304Y54357D01*
X143390Y54276D01*
X143426Y54256D01*
X143457Y54231D01*
X143564Y54180D01*
X143669Y54122D01*
X143708Y54112D01*
X143744Y54095D01*
X143861Y54073D01*
X143977Y54043D01*
X144037Y54039D01*
X144057Y54035D01*
X144077Y54037D01*
X144137Y54033D01*
X148500Y54033D01*
X148598Y54045D01*
X148697Y54048D01*
X148755Y54065D01*
X148815Y54073D01*
X148907Y54109D01*
X149002Y54137D01*
X149055Y54167D01*
X149111Y54190D01*
X149191Y54248D01*
X149276Y54298D01*
X149352Y54364D01*
X149368Y54376D01*
X149372Y54381D01*
X149375Y54383D01*
X149380Y54390D01*
X149397Y54404D01*
X150533Y55541D01*
X153467Y55541D01*
X155541Y53467D01*
X155541Y50533D01*
X153467Y48459D01*
X150533Y48459D01*
X149397Y49596D01*
X149319Y49656D01*
X149247Y49724D01*
X149194Y49753D01*
X149146Y49790D01*
X149055Y49830D01*
X148968Y49878D01*
X148910Y49893D01*
X148854Y49917D01*
X148756Y49932D01*
X148660Y49957D01*
X148560Y49963D01*
X148540Y49967D01*
X148528Y49965D01*
X148500Y49967D01*
X137266Y49967D01*
X137129Y49950D01*
X136990Y49937D01*
X136971Y49930D01*
X136951Y49927D01*
X136822Y49876D01*
X136691Y49829D01*
X136674Y49818D01*
X136655Y49810D01*
X136543Y49729D01*
X136428Y49651D01*
X136414Y49635D01*
X136398Y49624D01*
X136309Y49516D01*
X136217Y49412D01*
X136208Y49394D01*
X136195Y49379D01*
X136136Y49253D01*
X136072Y49129D01*
X136068Y49109D01*
X136059Y49091D01*
X136033Y48955D01*
X136003Y48819D01*
X136003Y48798D01*
X136000Y48779D01*
X136008Y48640D01*
X136012Y48501D01*
X136018Y48481D01*
X136019Y48461D01*
X136062Y48329D01*
X136101Y48195D01*
X136111Y48178D01*
X136117Y48159D01*
X136192Y48041D01*
X136262Y47921D01*
X136281Y47900D01*
X136288Y47890D01*
X136303Y47876D01*
X136369Y47801D01*
X138441Y45729D01*
X138441Y44210D01*
X138453Y44112D01*
X138456Y44013D01*
X138473Y43954D01*
X138481Y43894D01*
X138517Y43802D01*
X138545Y43707D01*
X138575Y43655D01*
X138598Y43599D01*
X138656Y43518D01*
X138706Y43433D01*
X138772Y43358D01*
X138784Y43341D01*
X138794Y43333D01*
X138812Y43312D01*
X142432Y39692D01*
X142510Y39632D01*
X142583Y39564D01*
X142636Y39535D01*
X142683Y39498D01*
X142774Y39458D01*
X142861Y39410D01*
X142920Y39395D01*
X142975Y39371D01*
X143073Y39356D01*
X143169Y39331D01*
X143269Y39325D01*
X143289Y39321D01*
X143302Y39323D01*
X143330Y39321D01*
X145425Y39321D01*
X145469Y39298D01*
X145508Y39289D01*
X145545Y39273D01*
X145663Y39255D01*
X145779Y39229D01*
X145820Y39230D01*
X145860Y39223D01*
X145978Y39235D01*
X146097Y39238D01*
X146136Y39249D01*
X146176Y39253D01*
X146288Y39294D01*
X146382Y39321D01*
X150376Y39321D01*
X150825Y38872D01*
X150903Y38812D01*
X150975Y38744D01*
X151028Y38715D01*
X151076Y38678D01*
X151167Y38638D01*
X151254Y38590D01*
X151312Y38575D01*
X151368Y38551D01*
X151466Y38536D01*
X151561Y38511D01*
X151661Y38505D01*
X151682Y38501D01*
X151694Y38502D01*
X151722Y38501D01*
X155770Y38501D01*
X155888Y38516D01*
X156007Y38523D01*
X156045Y38535D01*
X156085Y38541D01*
X156196Y38584D01*
X156309Y38621D01*
X156343Y38643D01*
X156381Y38658D01*
X156477Y38727D01*
X156578Y38791D01*
X156606Y38821D01*
X156638Y38844D01*
X156714Y38936D01*
X156796Y39023D01*
X156815Y39058D01*
X156841Y39089D01*
X156892Y39197D01*
X156949Y39301D01*
X156959Y39341D01*
X156977Y39377D01*
X156999Y39494D01*
X157029Y39609D01*
X157033Y39669D01*
X157036Y39689D01*
X157035Y39710D01*
X157039Y39770D01*
X157039Y39961D01*
X157230Y39961D01*
X157348Y39976D01*
X157467Y39983D01*
X157505Y39996D01*
X157546Y40001D01*
X157656Y40045D01*
X157769Y40081D01*
X157804Y40103D01*
X157841Y40118D01*
X157937Y40188D01*
X158038Y40251D01*
X158066Y40281D01*
X158099Y40305D01*
X158175Y40396D01*
X158256Y40483D01*
X158276Y40518D01*
X158301Y40550D01*
X158352Y40657D01*
X158410Y40762D01*
X158420Y40801D01*
X158437Y40837D01*
X158459Y40954D01*
X158489Y41070D01*
X158493Y41130D01*
X158497Y41150D01*
X158495Y41170D01*
X158499Y41230D01*
X158499Y45965D01*
X158956Y45701D01*
X159701Y44957D01*
X160226Y44048D01*
X160260Y44003D01*
X160286Y43953D01*
X160356Y43877D01*
X160418Y43795D01*
X160462Y43760D01*
X160500Y43718D01*
X160587Y43661D01*
X160667Y43597D01*
X160719Y43574D01*
X160766Y43543D01*
X160864Y43510D01*
X160958Y43468D01*
X161014Y43458D01*
X161067Y43440D01*
X161170Y43432D01*
X161272Y43414D01*
X161328Y43419D01*
X161384Y43415D01*
X161485Y43432D01*
X161588Y43441D01*
X161642Y43459D01*
X161697Y43469D01*
X161791Y43511D01*
X161889Y43545D01*
X161936Y43576D01*
X161987Y43600D01*
X162068Y43664D01*
X162154Y43721D01*
X162192Y43763D01*
X162236Y43798D01*
X162298Y43881D01*
X162367Y43957D01*
X162393Y44007D01*
X162427Y44052D01*
X162498Y44197D01*
X163032Y45486D01*
X164122Y46576D01*
X164195Y46670D01*
X164274Y46759D01*
X164292Y46795D01*
X164317Y46827D01*
X164364Y46936D01*
X164418Y47042D01*
X164427Y47082D01*
X164443Y47119D01*
X164462Y47237D01*
X164488Y47353D01*
X164487Y47393D01*
X164493Y47433D01*
X164482Y47552D01*
X164478Y47671D01*
X164467Y47709D01*
X164463Y47750D01*
X164423Y47862D01*
X164390Y47976D01*
X164369Y48011D01*
X164356Y48049D01*
X164289Y48147D01*
X164228Y48250D01*
X164188Y48295D01*
X164177Y48312D01*
X164162Y48326D01*
X164122Y48371D01*
X163959Y48533D01*
X163959Y51467D01*
X166033Y53541D01*
X168967Y53541D01*
X171041Y51467D01*
X171041Y48533D01*
X170878Y48371D01*
X170805Y48277D01*
X170726Y48187D01*
X170708Y48151D01*
X170683Y48120D01*
X170636Y48010D01*
X170582Y47904D01*
X170573Y47865D01*
X170557Y47828D01*
X170538Y47710D01*
X170512Y47594D01*
X170513Y47554D01*
X170507Y47514D01*
X170518Y47395D01*
X170522Y47276D01*
X170533Y47237D01*
X170537Y47197D01*
X170577Y47085D01*
X170610Y46971D01*
X170631Y46936D01*
X170644Y46898D01*
X170711Y46799D01*
X170772Y46697D01*
X170812Y46651D01*
X170823Y46635D01*
X170838Y46621D01*
X170878Y46576D01*
X172102Y45351D01*
X172197Y45278D01*
X172286Y45200D01*
X172322Y45181D01*
X172354Y45156D01*
X172463Y45109D01*
X172569Y45055D01*
X172608Y45046D01*
X172646Y45030D01*
X172763Y45011D01*
X172879Y44985D01*
X172920Y44987D01*
X172960Y44980D01*
X173078Y44991D01*
X173197Y44995D01*
X173236Y45006D01*
X173276Y45010D01*
X173389Y45050D01*
X173503Y45083D01*
X173537Y45104D01*
X173576Y45118D01*
X173674Y45185D01*
X173777Y45245D01*
X173822Y45285D01*
X173839Y45296D01*
X173852Y45312D01*
X173897Y45351D01*
X175122Y46576D01*
X175195Y46670D01*
X175274Y46759D01*
X175292Y46795D01*
X175317Y46827D01*
X175364Y46936D01*
X175418Y47042D01*
X175427Y47082D01*
X175443Y47119D01*
X175462Y47237D01*
X175488Y47353D01*
X175487Y47393D01*
X175493Y47433D01*
X175482Y47552D01*
X175478Y47671D01*
X175467Y47709D01*
X175463Y47750D01*
X175423Y47862D01*
X175390Y47976D01*
X175369Y48011D01*
X175356Y48049D01*
X175289Y48147D01*
X175228Y48250D01*
X175188Y48295D01*
X175177Y48312D01*
X175162Y48326D01*
X175122Y48371D01*
X174959Y48533D01*
X174959Y51467D01*
X177033Y53541D01*
X179967Y53541D01*
X182041Y51467D01*
X182041Y48533D01*
X181878Y48371D01*
X181805Y48277D01*
X181726Y48187D01*
X181708Y48151D01*
X181683Y48120D01*
X181636Y48010D01*
X181582Y47904D01*
X181573Y47865D01*
X181557Y47828D01*
X181538Y47710D01*
X181512Y47594D01*
X181513Y47554D01*
X181507Y47514D01*
X181518Y47395D01*
X181522Y47276D01*
X181533Y47237D01*
X181537Y47197D01*
X181577Y47085D01*
X181610Y46971D01*
X181631Y46936D01*
X181644Y46898D01*
X181711Y46799D01*
X181772Y46697D01*
X181812Y46651D01*
X181823Y46635D01*
X181838Y46621D01*
X181878Y46576D01*
X183102Y45351D01*
X183197Y45278D01*
X183286Y45200D01*
X183322Y45181D01*
X183354Y45156D01*
X183463Y45109D01*
X183569Y45055D01*
X183608Y45046D01*
X183646Y45030D01*
X183763Y45011D01*
X183879Y44985D01*
X183920Y44987D01*
X183960Y44980D01*
X184078Y44991D01*
X184197Y44995D01*
X184236Y45006D01*
X184276Y45010D01*
X184389Y45050D01*
X184503Y45083D01*
X184537Y45104D01*
X184576Y45118D01*
X184674Y45185D01*
X184777Y45245D01*
X184822Y45285D01*
X184839Y45296D01*
X184852Y45312D01*
X184897Y45351D01*
X186514Y46968D01*
X188452Y47771D01*
X190548Y47771D01*
X192486Y46968D01*
X194103Y45351D01*
X194197Y45278D01*
X194286Y45200D01*
X194322Y45181D01*
X194354Y45156D01*
X194463Y45109D01*
X194569Y45055D01*
X194608Y45046D01*
X194646Y45030D01*
X194763Y45011D01*
X194879Y44985D01*
X194920Y44987D01*
X194960Y44980D01*
X195078Y44991D01*
X195197Y44995D01*
X195236Y45006D01*
X195276Y45010D01*
X195388Y45050D01*
X195503Y45083D01*
X195538Y45104D01*
X195576Y45118D01*
X195674Y45185D01*
X195777Y45245D01*
X195822Y45285D01*
X195839Y45296D01*
X195852Y45312D01*
X195898Y45351D01*
X197514Y46968D01*
X199452Y47771D01*
X201548Y47771D01*
X203486Y46968D01*
X205102Y45351D01*
X205197Y45278D01*
X205286Y45200D01*
X205322Y45181D01*
X205354Y45156D01*
X205463Y45109D01*
X205569Y45055D01*
X205608Y45046D01*
X205646Y45030D01*
X205763Y45011D01*
X205879Y44985D01*
X205920Y44987D01*
X205960Y44980D01*
X206078Y44991D01*
X206197Y44995D01*
X206236Y45006D01*
X206276Y45010D01*
X206389Y45050D01*
X206503Y45083D01*
X206537Y45104D01*
X206576Y45118D01*
X206674Y45185D01*
X206777Y45245D01*
X206822Y45285D01*
X206839Y45296D01*
X206852Y45312D01*
X206897Y45351D01*
X208514Y46968D01*
X210452Y47771D01*
X212548Y47771D01*
X214486Y46968D01*
X216102Y45351D01*
X216197Y45278D01*
X216286Y45200D01*
X216322Y45181D01*
X216354Y45156D01*
X216463Y45109D01*
X216569Y45055D01*
X216608Y45046D01*
X216646Y45030D01*
X216763Y45011D01*
X216879Y44985D01*
X216920Y44987D01*
X216960Y44980D01*
X217078Y44991D01*
X217197Y44995D01*
X217236Y45006D01*
X217276Y45010D01*
X217389Y45050D01*
X217503Y45083D01*
X217537Y45104D01*
X217576Y45118D01*
X217674Y45185D01*
X217777Y45245D01*
X217822Y45285D01*
X217839Y45296D01*
X217852Y45312D01*
X217897Y45351D01*
X219514Y46968D01*
X221452Y47771D01*
X223548Y47771D01*
X225486Y46968D01*
X227102Y45351D01*
X227197Y45278D01*
X227286Y45200D01*
X227322Y45181D01*
X227354Y45156D01*
X227463Y45109D01*
X227569Y45055D01*
X227608Y45046D01*
X227646Y45030D01*
X227763Y45011D01*
X227879Y44985D01*
X227920Y44987D01*
X227960Y44980D01*
X228078Y44991D01*
X228197Y44995D01*
X228236Y45006D01*
X228276Y45010D01*
X228389Y45050D01*
X228503Y45083D01*
X228537Y45104D01*
X228576Y45118D01*
X228674Y45185D01*
X228777Y45245D01*
X228822Y45285D01*
X228839Y45296D01*
X228852Y45312D01*
X228897Y45351D01*
X230514Y46968D01*
X232452Y47771D01*
X234548Y47771D01*
X236486Y46968D01*
X238102Y45351D01*
X238197Y45278D01*
X238286Y45200D01*
X238322Y45181D01*
X238354Y45156D01*
X238463Y45109D01*
X238569Y45055D01*
X238608Y45046D01*
X238646Y45030D01*
X238763Y45011D01*
X238879Y44985D01*
X238920Y44987D01*
X238960Y44980D01*
X239078Y44991D01*
X239197Y44995D01*
X239236Y45006D01*
X239276Y45010D01*
X239389Y45050D01*
X239503Y45083D01*
X239537Y45104D01*
X239576Y45118D01*
X239674Y45185D01*
X239777Y45245D01*
X239822Y45285D01*
X239839Y45296D01*
X239852Y45312D01*
X239897Y45351D01*
X241514Y46968D01*
X243452Y47771D01*
X245548Y47771D01*
X247486Y46968D01*
X248968Y45486D01*
X249771Y43548D01*
X249771Y37452D01*
X248968Y35514D01*
X247486Y34032D01*
X247367Y33983D01*
X247307Y33948D01*
X247242Y33922D01*
X247169Y33870D01*
X247091Y33825D01*
X247041Y33777D01*
X246984Y33736D01*
X246927Y33666D01*
X246862Y33604D01*
X246826Y33544D01*
X246781Y33491D01*
X246743Y33409D01*
X246696Y33333D01*
X246676Y33266D01*
X246646Y33203D01*
X246629Y33115D01*
X246603Y33029D01*
X246599Y32959D01*
X246586Y32890D01*
X246592Y32801D01*
X246587Y32711D01*
X246602Y32643D01*
X246606Y32573D01*
X246634Y32488D01*
X246652Y32400D01*
X246682Y32337D01*
X246704Y32271D01*
X246752Y32195D01*
X246791Y32114D01*
X246837Y32061D01*
X246874Y32002D01*
X246940Y31940D01*
X246998Y31872D01*
X247055Y31832D01*
X247106Y31784D01*
X247184Y31741D01*
X247258Y31689D01*
X247323Y31664D01*
X247384Y31630D01*
X247471Y31608D01*
X247555Y31576D01*
X247625Y31568D01*
X247692Y31551D01*
X247853Y31541D01*
X249900Y31541D01*
X249937Y31531D01*
X250038Y31525D01*
X250058Y31521D01*
X250070Y31523D01*
X250098Y31521D01*
X250776Y31521D01*
X251521Y30776D01*
X251521Y27224D01*
X250622Y26325D01*
X250562Y26247D01*
X250494Y26175D01*
X250465Y26122D01*
X250428Y26074D01*
X250388Y25983D01*
X250340Y25897D01*
X250325Y25838D01*
X250301Y25782D01*
X250286Y25684D01*
X250261Y25589D01*
X250255Y25489D01*
X250251Y25468D01*
X250253Y25456D01*
X250251Y25428D01*
X250251Y25269D01*
X248500Y25269D01*
X248382Y25254D01*
X248263Y25247D01*
X248225Y25235D01*
X248185Y25230D01*
X248074Y25186D01*
X247961Y25149D01*
X247927Y25127D01*
X247889Y25113D01*
X247793Y25043D01*
X247692Y24979D01*
X247692Y24978D01*
X247664Y24949D01*
X247632Y24926D01*
X247632Y24925D01*
X247631Y24925D01*
X247555Y24833D01*
X247474Y24747D01*
X247454Y24711D01*
X247428Y24680D01*
X247378Y24573D01*
X247320Y24468D01*
X247310Y24429D01*
X247293Y24393D01*
X247271Y24276D01*
X247241Y24160D01*
X247237Y24100D01*
X247233Y24080D01*
X247234Y24060D01*
X247231Y24000D01*
X247231Y22749D01*
X246736Y22749D01*
X246635Y22769D01*
X246529Y22798D01*
X246479Y22798D01*
X246430Y22808D01*
X246321Y22801D01*
X246211Y22803D01*
X246163Y22791D01*
X246113Y22788D01*
X246009Y22754D01*
X245902Y22729D01*
X245858Y22705D01*
X245811Y22690D01*
X245718Y22631D01*
X245621Y22580D01*
X245584Y22546D01*
X245542Y22520D01*
X245466Y22440D01*
X245385Y22366D01*
X245358Y22324D01*
X245324Y22288D01*
X245271Y22192D01*
X245211Y22100D01*
X245194Y22053D01*
X245170Y22010D01*
X245143Y21903D01*
X245107Y21800D01*
X245103Y21750D01*
X245091Y21702D01*
X245081Y21541D01*
X245081Y20033D01*
X243007Y17959D01*
X240073Y17959D01*
X238937Y19096D01*
X238859Y19156D01*
X238787Y19224D01*
X238734Y19253D01*
X238686Y19290D01*
X238595Y19330D01*
X238508Y19378D01*
X238450Y19393D01*
X238394Y19417D01*
X238296Y19432D01*
X238200Y19457D01*
X238100Y19463D01*
X238080Y19467D01*
X238068Y19465D01*
X238040Y19467D01*
X237658Y19467D01*
X236018Y21108D01*
X235939Y21168D01*
X235867Y21236D01*
X235814Y21265D01*
X235766Y21302D01*
X235676Y21342D01*
X235589Y21390D01*
X235530Y21405D01*
X235475Y21429D01*
X235377Y21444D01*
X235281Y21469D01*
X235181Y21475D01*
X235161Y21479D01*
X235148Y21477D01*
X235120Y21479D01*
X234956Y21479D01*
X233865Y22571D01*
X233841Y22589D01*
X233822Y22611D01*
X233716Y22686D01*
X233613Y22765D01*
X233586Y22777D01*
X233562Y22794D01*
X233441Y22840D01*
X233322Y22892D01*
X233292Y22896D01*
X233269Y22905D01*
X233269Y24000D01*
X233254Y24118D01*
X233247Y24237D01*
X233235Y24275D01*
X233230Y24315D01*
X233186Y24426D01*
X233149Y24539D01*
X233127Y24573D01*
X233113Y24611D01*
X233043Y24707D01*
X232979Y24808D01*
X232978Y24808D01*
X232949Y24836D01*
X232926Y24868D01*
X232925Y24869D01*
X232833Y24945D01*
X232747Y25026D01*
X232711Y25046D01*
X232680Y25072D01*
X232573Y25122D01*
X232468Y25180D01*
X232429Y25190D01*
X232393Y25207D01*
X232276Y25229D01*
X232160Y25259D01*
X232100Y25263D01*
X232080Y25267D01*
X232060Y25266D01*
X232000Y25269D01*
X230882Y25269D01*
X230852Y25395D01*
X230838Y25421D01*
X230830Y25450D01*
X230764Y25562D01*
X230704Y25676D01*
X230684Y25698D01*
X230669Y25724D01*
X230562Y25845D01*
X229133Y27274D01*
X229039Y27346D01*
X228950Y27425D01*
X228914Y27444D01*
X228882Y27468D01*
X228773Y27516D01*
X228667Y27570D01*
X228627Y27579D01*
X228590Y27595D01*
X228473Y27613D01*
X228357Y27640D01*
X228316Y27638D01*
X228276Y27645D01*
X228158Y27633D01*
X228039Y27630D01*
X228000Y27619D01*
X227960Y27615D01*
X227847Y27575D01*
X227733Y27541D01*
X227698Y27521D01*
X227660Y27507D01*
X227562Y27440D01*
X227459Y27380D01*
X227414Y27340D01*
X227397Y27329D01*
X227384Y27313D01*
X227338Y27274D01*
X225929Y25865D01*
X225911Y25841D01*
X225889Y25822D01*
X225814Y25716D01*
X225735Y25613D01*
X225723Y25586D01*
X225706Y25562D01*
X225660Y25441D01*
X225608Y25322D01*
X225604Y25292D01*
X225595Y25269D01*
X224500Y25269D01*
X224382Y25254D01*
X224263Y25247D01*
X224225Y25235D01*
X224185Y25230D01*
X224074Y25186D01*
X223961Y25149D01*
X223927Y25127D01*
X223889Y25113D01*
X223793Y25043D01*
X223692Y24979D01*
X223692Y24978D01*
X223664Y24949D01*
X223632Y24926D01*
X223632Y24925D01*
X223631Y24925D01*
X223555Y24833D01*
X223474Y24747D01*
X223454Y24711D01*
X223428Y24680D01*
X223378Y24573D01*
X223320Y24468D01*
X223310Y24429D01*
X223293Y24393D01*
X223271Y24276D01*
X223241Y24160D01*
X223237Y24100D01*
X223233Y24080D01*
X223234Y24060D01*
X223231Y24000D01*
X223231Y22896D01*
X223211Y22891D01*
X223085Y22860D01*
X223058Y22847D01*
X223030Y22838D01*
X222918Y22773D01*
X222803Y22712D01*
X222782Y22692D01*
X222756Y22677D01*
X222635Y22571D01*
X221544Y21479D01*
X221380Y21479D01*
X221282Y21467D01*
X221183Y21464D01*
X221124Y21447D01*
X221064Y21439D01*
X220972Y21403D01*
X220877Y21375D01*
X220825Y21345D01*
X220769Y21322D01*
X220688Y21264D01*
X220603Y21214D01*
X220528Y21148D01*
X220511Y21136D01*
X220503Y21126D01*
X220482Y21108D01*
X218235Y18860D01*
X218192Y18855D01*
X218093Y18852D01*
X218035Y18835D01*
X217975Y18827D01*
X217882Y18791D01*
X217787Y18763D01*
X217735Y18733D01*
X217679Y18710D01*
X217599Y18652D01*
X217513Y18602D01*
X217438Y18536D01*
X217422Y18524D01*
X217414Y18514D01*
X217393Y18495D01*
X217126Y18229D01*
X211774Y18229D01*
X210875Y19127D01*
X210797Y19188D01*
X210725Y19256D01*
X210672Y19285D01*
X210624Y19322D01*
X210533Y19362D01*
X210447Y19410D01*
X210388Y19425D01*
X210332Y19449D01*
X210234Y19464D01*
X210139Y19489D01*
X210039Y19495D01*
X210018Y19499D01*
X210006Y19497D01*
X209978Y19499D01*
X209069Y19499D01*
X209069Y20900D01*
X209054Y21018D01*
X209047Y21137D01*
X209035Y21175D01*
X209030Y21215D01*
X208986Y21326D01*
X208949Y21439D01*
X208927Y21473D01*
X208913Y21511D01*
X208843Y21607D01*
X208779Y21708D01*
X208778Y21708D01*
X208749Y21736D01*
X208726Y21768D01*
X208725Y21769D01*
X208633Y21845D01*
X208547Y21926D01*
X208511Y21946D01*
X208480Y21972D01*
X208373Y22022D01*
X208268Y22080D01*
X208229Y22090D01*
X208193Y22107D01*
X208076Y22129D01*
X207960Y22159D01*
X207900Y22163D01*
X207880Y22167D01*
X207860Y22166D01*
X207800Y22169D01*
X205649Y22169D01*
X205649Y22278D01*
X205637Y22376D01*
X205634Y22475D01*
X205617Y22533D01*
X205609Y22593D01*
X205573Y22685D01*
X205546Y22780D01*
X205515Y22833D01*
X205492Y22889D01*
X205434Y22969D01*
X205384Y23054D01*
X205318Y23130D01*
X205306Y23146D01*
X205296Y23154D01*
X205278Y23175D01*
X205173Y23280D01*
X205078Y23353D01*
X204989Y23432D01*
X204953Y23450D01*
X204921Y23475D01*
X204812Y23523D01*
X204706Y23577D01*
X204667Y23586D01*
X204630Y23602D01*
X204512Y23620D01*
X204396Y23646D01*
X204355Y23645D01*
X204315Y23652D01*
X204197Y23640D01*
X204078Y23637D01*
X204039Y23626D01*
X203999Y23622D01*
X203887Y23581D01*
X203772Y23548D01*
X203742Y23531D01*
X203731Y23527D01*
X203725Y23524D01*
X203700Y23514D01*
X203601Y23447D01*
X203498Y23387D01*
X203470Y23362D01*
X203462Y23357D01*
X203452Y23346D01*
X203436Y23336D01*
X203423Y23320D01*
X203378Y23280D01*
X203372Y23275D01*
X203312Y23197D01*
X203244Y23125D01*
X203233Y23106D01*
X203226Y23097D01*
X203210Y23066D01*
X203178Y23024D01*
X203138Y22933D01*
X203090Y22847D01*
X203083Y22817D01*
X203081Y22814D01*
X203076Y22790D01*
X203075Y22788D01*
X203051Y22732D01*
X203036Y22634D01*
X203011Y22539D01*
X203005Y22439D01*
X203001Y22418D01*
X203003Y22406D01*
X203001Y22378D01*
X203001Y22219D01*
X201250Y22219D01*
X201132Y22204D01*
X201013Y22197D01*
X200975Y22185D01*
X200935Y22180D01*
X200824Y22136D01*
X200711Y22099D01*
X200677Y22077D01*
X200639Y22063D01*
X200543Y21993D01*
X200442Y21929D01*
X200442Y21928D01*
X200414Y21899D01*
X200382Y21876D01*
X200382Y21875D01*
X200381Y21875D01*
X200305Y21783D01*
X200224Y21697D01*
X200204Y21661D01*
X200178Y21630D01*
X200128Y21523D01*
X200070Y21418D01*
X200060Y21379D01*
X200043Y21343D01*
X200021Y21226D01*
X199991Y21110D01*
X199987Y21050D01*
X199983Y21030D01*
X199984Y21010D01*
X199981Y20950D01*
X199981Y19699D01*
X199270Y19699D01*
X199152Y19684D01*
X199033Y19677D01*
X198995Y19664D01*
X198954Y19659D01*
X198844Y19616D01*
X198731Y19579D01*
X198696Y19557D01*
X198659Y19542D01*
X198562Y19472D01*
X198462Y19409D01*
X198434Y19379D01*
X198401Y19356D01*
X198325Y19264D01*
X198244Y19177D01*
X198224Y19142D01*
X198199Y19111D01*
X198148Y19003D01*
X198090Y18899D01*
X198080Y18859D01*
X198063Y18823D01*
X198041Y18706D01*
X198011Y18591D01*
X198007Y18531D01*
X198003Y18511D01*
X198005Y18490D01*
X198001Y18430D01*
X198001Y16984D01*
X197980Y16941D01*
X197960Y16833D01*
X197931Y16727D01*
X197930Y16677D01*
X197921Y16628D01*
X197928Y16519D01*
X197926Y16409D01*
X197937Y16361D01*
X197940Y16311D01*
X197974Y16207D01*
X198000Y16100D01*
X198023Y16056D01*
X198038Y16009D01*
X198097Y15916D01*
X198149Y15819D01*
X198182Y15782D01*
X198209Y15740D01*
X198289Y15665D01*
X198363Y15583D01*
X198404Y15556D01*
X198440Y15522D01*
X198536Y15469D01*
X198628Y15409D01*
X198675Y15392D01*
X198719Y15368D01*
X198825Y15341D01*
X198929Y15305D01*
X198979Y15301D01*
X199027Y15289D01*
X199187Y15279D01*
X251500Y15279D01*
X251502Y15279D01*
X251505Y15279D01*
X251666Y15290D01*
X252171Y15356D01*
X252180Y15358D01*
X252189Y15359D01*
X252333Y15399D01*
X252478Y15437D01*
X252487Y15441D01*
X252496Y15444D01*
X252640Y15515D01*
X253515Y16021D01*
X253588Y16076D01*
X253667Y16124D01*
X253715Y16172D01*
X253768Y16213D01*
X253826Y16285D01*
X253890Y16351D01*
X253955Y16449D01*
X253966Y16462D01*
X253969Y16470D01*
X253979Y16485D01*
X254485Y17360D01*
X254488Y17369D01*
X254494Y17376D01*
X254550Y17515D01*
X254608Y17653D01*
X254609Y17662D01*
X254613Y17671D01*
X254644Y17829D01*
X254710Y18334D01*
X254710Y18337D01*
X254711Y18339D01*
X254715Y18400D01*
X254719Y18420D01*
X254717Y18440D01*
X254721Y18500D01*
X254721Y35316D01*
X256538Y38462D01*
X259684Y40279D01*
X296500Y40279D01*
X296502Y40279D01*
X296505Y40279D01*
X296666Y40290D01*
X297171Y40356D01*
X297180Y40358D01*
X297189Y40359D01*
X297333Y40399D01*
X297478Y40437D01*
X297487Y40441D01*
X297496Y40444D01*
X297640Y40515D01*
X298515Y41021D01*
X298588Y41076D01*
X298667Y41124D01*
X298715Y41172D01*
X298768Y41213D01*
X298826Y41285D01*
X298890Y41351D01*
X298955Y41449D01*
X298966Y41462D01*
X298969Y41470D01*
X298979Y41485D01*
X299485Y42360D01*
X299488Y42369D01*
X299494Y42376D01*
X299550Y42515D01*
X299608Y42653D01*
X299609Y42662D01*
X299613Y42671D01*
X299644Y42829D01*
X299710Y43334D01*
X299710Y43337D01*
X299711Y43339D01*
X299721Y43500D01*
X299721Y46190D01*
X299706Y46308D01*
X299699Y46427D01*
X299686Y46465D01*
X299681Y46506D01*
X299638Y46616D01*
X299601Y46729D01*
X299579Y46764D01*
X299564Y46801D01*
X299495Y46897D01*
X299431Y46998D01*
X299401Y47026D01*
X299378Y47059D01*
X299286Y47135D01*
X299199Y47216D01*
X299164Y47236D01*
X299133Y47261D01*
X299025Y47312D01*
X298921Y47370D01*
X298881Y47380D01*
X298845Y47397D01*
X298728Y47419D01*
X298613Y47449D01*
X298553Y47453D01*
X298533Y47457D01*
X298512Y47455D01*
X298452Y47459D01*
X257768Y47459D01*
X255459Y49768D01*
X255459Y50142D01*
X255444Y50260D01*
X255437Y50379D01*
X255424Y50417D01*
X255419Y50458D01*
X255376Y50568D01*
X255339Y50681D01*
X255317Y50716D01*
X255302Y50753D01*
X255233Y50849D01*
X255169Y50950D01*
X255139Y50978D01*
X255116Y51011D01*
X255024Y51087D01*
X254937Y51168D01*
X254902Y51188D01*
X254871Y51213D01*
X254763Y51264D01*
X254659Y51322D01*
X254619Y51332D01*
X254583Y51349D01*
X254466Y51371D01*
X254351Y51401D01*
X254291Y51405D01*
X254271Y51409D01*
X254250Y51407D01*
X254190Y51411D01*
X225656Y51411D01*
X225525Y51395D01*
X225395Y51384D01*
X225356Y51373D01*
X225340Y51371D01*
X225320Y51363D01*
X225290Y51355D01*
X224373Y51409D01*
X224354Y51408D01*
X224299Y51411D01*
X223367Y51411D01*
X223303Y51429D01*
X223178Y51469D01*
X223138Y51474D01*
X223123Y51478D01*
X223101Y51479D01*
X223018Y51489D01*
X219203Y51713D01*
X209430Y53613D01*
X204714Y55204D01*
X204707Y55206D01*
X204701Y55209D01*
X204690Y55211D01*
X204668Y55219D01*
X198179Y57136D01*
X198167Y57138D01*
X198038Y57169D01*
X184719Y59497D01*
X184707Y59497D01*
X184575Y59513D01*
X177847Y59909D01*
X177827Y59908D01*
X177772Y59911D01*
X144137Y59911D01*
X144019Y59896D01*
X143900Y59889D01*
X143862Y59876D01*
X143822Y59871D01*
X143711Y59828D01*
X143598Y59791D01*
X143564Y59769D01*
X143526Y59754D01*
X143430Y59685D01*
X143329Y59621D01*
X143301Y59591D01*
X143269Y59568D01*
X143193Y59476D01*
X143111Y59389D01*
X143092Y59354D01*
X143066Y59323D01*
X143015Y59215D01*
X142958Y59111D01*
X142948Y59071D01*
X142930Y59035D01*
X142908Y58918D01*
X142878Y58803D01*
X142876Y58769D01*
X138868Y58769D01*
X138867Y58769D01*
X134867Y58769D01*
X134867Y59190D01*
X134852Y59308D01*
X134844Y59427D01*
X134832Y59465D01*
X134827Y59506D01*
X134783Y59616D01*
X134746Y59729D01*
X134725Y59764D01*
X134710Y59801D01*
X134640Y59897D01*
X134576Y59998D01*
X134547Y60026D01*
X134523Y60059D01*
X134431Y60135D01*
X134344Y60216D01*
X134309Y60236D01*
X134278Y60261D01*
X134170Y60312D01*
X134066Y60370D01*
X134027Y60380D01*
X133990Y60397D01*
X133873Y60419D01*
X133848Y60426D01*
X132327Y61948D01*
X132327Y69052D01*
X133839Y70564D01*
X133873Y70576D01*
X133913Y70581D01*
X134024Y70624D01*
X134137Y70661D01*
X134171Y70683D01*
X134209Y70698D01*
X134305Y70767D01*
X134405Y70831D01*
X134433Y70861D01*
X134466Y70884D01*
X134542Y70976D01*
X134623Y71063D01*
X134643Y71098D01*
X134669Y71129D01*
X134719Y71237D01*
X134777Y71341D01*
X134787Y71381D01*
X134804Y71417D01*
X134827Y71534D01*
X134856Y71649D01*
X134860Y71709D01*
X134864Y71729D01*
X134863Y71750D01*
X134867Y71810D01*
X134867Y72231D01*
X138867Y72231D01*
X138868Y72231D01*
X142884Y72231D01*
X142890Y72121D01*
X142903Y72083D01*
X142908Y72042D01*
X142952Y71932D01*
X142988Y71819D01*
X143010Y71784D01*
X143025Y71747D01*
X143095Y71651D01*
X143159Y71550D01*
X143188Y71522D01*
X143212Y71489D01*
X143304Y71413D01*
X143390Y71332D01*
X143426Y71312D01*
X143457Y71287D01*
X143564Y71236D01*
X143669Y71178D01*
X143708Y71168D01*
X143744Y71151D01*
X143861Y71129D01*
X143977Y71099D01*
X144037Y71095D01*
X144057Y71091D01*
X144077Y71093D01*
X144137Y71089D01*
X176598Y71089D01*
X176754Y71108D01*
X176789Y71113D01*
X177933Y71089D01*
X177941Y71090D01*
X177959Y71089D01*
X179083Y71089D01*
X179134Y71074D01*
X179139Y71074D01*
X179142Y71073D01*
X179149Y71073D01*
X179295Y71061D01*
X185733Y70928D01*
X200962Y68266D01*
X207773Y65969D01*
X207774Y65968D01*
X208286Y65796D01*
X208299Y65793D01*
X208327Y65783D01*
X212291Y64591D01*
X212310Y64588D01*
X212415Y64560D01*
X220538Y62981D01*
X220557Y62980D01*
X220663Y62963D01*
X224658Y62594D01*
X224679Y62595D01*
X224774Y62589D01*
X254190Y62589D01*
X254308Y62604D01*
X254427Y62611D01*
X254465Y62624D01*
X254506Y62629D01*
X254616Y62672D01*
X254729Y62709D01*
X254764Y62731D01*
X254801Y62746D01*
X254897Y62815D01*
X254998Y62879D01*
X255026Y62909D01*
X255059Y62932D01*
X255135Y63024D01*
X255216Y63111D01*
X255236Y63146D01*
X255261Y63177D01*
X255312Y63285D01*
X255370Y63389D01*
X255380Y63429D01*
X255397Y63465D01*
X255419Y63582D01*
X255449Y63697D01*
X255453Y63757D01*
X255457Y63777D01*
X255455Y63798D01*
X255459Y63858D01*
X255459Y64232D01*
X257768Y66541D01*
X298452Y66541D01*
X298570Y66556D01*
X298689Y66563D01*
X298727Y66576D01*
X298768Y66581D01*
X298878Y66624D01*
X298991Y66661D01*
X299026Y66683D01*
X299063Y66698D01*
X299159Y66767D01*
X299260Y66831D01*
X299288Y66861D01*
X299321Y66884D01*
X299397Y66976D01*
X299478Y67063D01*
X299498Y67098D01*
X299523Y67129D01*
X299574Y67237D01*
X299632Y67341D01*
X299642Y67381D01*
X299659Y67417D01*
X299681Y67534D01*
X299711Y67649D01*
X299715Y67709D01*
X299719Y67729D01*
X299717Y67750D01*
X299721Y67810D01*
X299721Y96190D01*
X299706Y96308D01*
X299699Y96427D01*
X299686Y96465D01*
X299681Y96506D01*
X299638Y96616D01*
X299601Y96729D01*
X299579Y96764D01*
X299564Y96801D01*
X299495Y96897D01*
X299431Y96998D01*
X299401Y97026D01*
X299378Y97059D01*
X299286Y97135D01*
X299199Y97216D01*
X299164Y97236D01*
X299133Y97261D01*
X299025Y97312D01*
X298921Y97370D01*
X298881Y97380D01*
X298845Y97397D01*
X298728Y97419D01*
X298613Y97449D01*
X298553Y97453D01*
X298533Y97457D01*
X298512Y97455D01*
X298452Y97459D01*
X257768Y97459D01*
X255459Y99768D01*
X255459Y100142D01*
X255444Y100260D01*
X255437Y100379D01*
X255424Y100417D01*
X255419Y100458D01*
X255376Y100568D01*
X255339Y100681D01*
X255317Y100716D01*
X255302Y100753D01*
X255233Y100849D01*
X255169Y100950D01*
X255139Y100978D01*
X255116Y101011D01*
X255024Y101087D01*
X254937Y101168D01*
X254902Y101188D01*
X254871Y101213D01*
X254763Y101264D01*
X254659Y101322D01*
X254619Y101332D01*
X254583Y101349D01*
X254466Y101371D01*
X254351Y101401D01*
X254291Y101405D01*
X254271Y101409D01*
X254250Y101407D01*
X254190Y101411D01*
X253384Y101411D01*
X253276Y101441D01*
X253157Y101480D01*
X253107Y101487D01*
X253089Y101492D01*
X253068Y101492D01*
X252998Y101502D01*
X249866Y101718D01*
X241924Y104792D01*
X235246Y110079D01*
X230431Y117106D01*
X227911Y125241D01*
X227911Y131648D01*
X227910Y131657D01*
X227911Y131667D01*
X227890Y131815D01*
X227871Y131964D01*
X227868Y131972D01*
X227867Y131982D01*
X227815Y132134D01*
X227656Y132516D01*
X227632Y132560D01*
X227615Y132606D01*
X227553Y132697D01*
X227499Y132793D01*
X227464Y132828D01*
X227436Y132869D01*
X227354Y132942D01*
X227277Y133021D01*
X227235Y133047D01*
X227198Y133080D01*
X227100Y133130D01*
X227006Y133187D01*
X226959Y133202D01*
X226915Y133225D01*
X226807Y133249D01*
X226702Y133281D01*
X226653Y133283D01*
X226604Y133294D01*
X226495Y133291D01*
X226385Y133296D01*
X226336Y133286D01*
X226286Y133285D01*
X226181Y133254D01*
X226073Y133232D01*
X226029Y133210D01*
X225981Y133196D01*
X225886Y133140D01*
X225788Y133092D01*
X225750Y133060D01*
X225707Y133035D01*
X225586Y132928D01*
X224957Y132299D01*
X224499Y132035D01*
X224499Y136770D01*
X224484Y136888D01*
X224477Y137007D01*
X224464Y137045D01*
X224459Y137085D01*
X224416Y137196D01*
X224379Y137309D01*
X224357Y137343D01*
X224342Y137381D01*
X224273Y137477D01*
X224262Y137494D01*
X224276Y137518D01*
X224301Y137550D01*
X224352Y137657D01*
X224410Y137762D01*
X224420Y137801D01*
X224437Y137837D01*
X224459Y137954D01*
X224489Y138070D01*
X224493Y138130D01*
X224497Y138150D01*
X224495Y138170D01*
X224499Y138230D01*
X224499Y142965D01*
X224957Y142701D01*
X225586Y142072D01*
X225625Y142041D01*
X225659Y142005D01*
X225751Y141944D01*
X225837Y141877D01*
X225883Y141857D01*
X225924Y141830D01*
X226028Y141794D01*
X226129Y141751D01*
X226178Y141743D01*
X226225Y141727D01*
X226334Y141718D01*
X226443Y141701D01*
X226493Y141705D01*
X226542Y141701D01*
X226650Y141720D01*
X226760Y141730D01*
X226807Y141747D01*
X226856Y141756D01*
X226956Y141801D01*
X227059Y141838D01*
X227100Y141866D01*
X227146Y141886D01*
X227232Y141955D01*
X227322Y142017D01*
X227355Y142054D01*
X227394Y142085D01*
X227460Y142173D01*
X227533Y142255D01*
X227555Y142299D01*
X227585Y142339D01*
X227656Y142484D01*
X227955Y143205D01*
X229795Y145045D01*
X232199Y146041D01*
X234801Y146041D01*
X237205Y145045D01*
X239045Y143205D01*
X239344Y142484D01*
X239368Y142440D01*
X239385Y142394D01*
X239447Y142303D01*
X239501Y142207D01*
X239536Y142172D01*
X239564Y142131D01*
X239646Y142058D01*
X239723Y141979D01*
X239765Y141953D01*
X239802Y141920D01*
X239900Y141870D01*
X239994Y141813D01*
X240041Y141798D01*
X240085Y141775D01*
X240193Y141751D01*
X240298Y141719D01*
X240347Y141717D01*
X240396Y141706D01*
X240506Y141709D01*
X240615Y141704D01*
X240664Y141714D01*
X240714Y141715D01*
X240819Y141746D01*
X240927Y141768D01*
X240971Y141790D01*
X241019Y141804D01*
X241114Y141860D01*
X241212Y141908D01*
X241250Y141940D01*
X241293Y141965D01*
X241414Y142072D01*
X242043Y142701D01*
X242501Y142965D01*
X242501Y138230D01*
X242516Y138112D01*
X242523Y137993D01*
X242535Y137955D01*
X242541Y137915D01*
X242584Y137804D01*
X242621Y137691D01*
X242643Y137657D01*
X242658Y137619D01*
X242727Y137523D01*
X242738Y137506D01*
X242724Y137482D01*
X242699Y137450D01*
X242648Y137343D01*
X242590Y137238D01*
X242580Y137199D01*
X242563Y137163D01*
X242541Y137046D01*
X242511Y136930D01*
X242507Y136870D01*
X242503Y136850D01*
X242505Y136830D01*
X242501Y136770D01*
X242501Y132035D01*
X242043Y132299D01*
X241414Y132928D01*
X241375Y132959D01*
X241341Y132995D01*
X241250Y133056D01*
X241163Y133123D01*
X241117Y133143D01*
X241076Y133170D01*
X240972Y133206D01*
X240871Y133249D01*
X240822Y133257D01*
X240775Y133273D01*
X240666Y133282D01*
X240557Y133299D01*
X240507Y133295D01*
X240458Y133299D01*
X240350Y133280D01*
X240240Y133270D01*
X240193Y133253D01*
X240144Y133244D01*
X240044Y133199D01*
X239941Y133162D01*
X239900Y133134D01*
X239854Y133114D01*
X239769Y133045D01*
X239678Y132983D01*
X239645Y132946D01*
X239606Y132915D01*
X239540Y132827D01*
X239467Y132745D01*
X239445Y132701D01*
X239415Y132661D01*
X239344Y132516D01*
X239185Y132134D01*
X239183Y132125D01*
X239178Y132117D01*
X239141Y131972D01*
X239101Y131827D01*
X239101Y131818D01*
X239099Y131809D01*
X239089Y131648D01*
X239089Y129500D01*
X239091Y129478D01*
X239092Y129405D01*
X239269Y127056D01*
X239281Y126995D01*
X239284Y126933D01*
X239322Y126776D01*
X240712Y122290D01*
X240757Y122189D01*
X240795Y122086D01*
X240834Y122020D01*
X240843Y122000D01*
X240854Y121986D01*
X240877Y121948D01*
X243532Y118073D01*
X243605Y117991D01*
X243618Y117974D01*
X243625Y117963D01*
X243630Y117959D01*
X243672Y117903D01*
X243729Y117852D01*
X243743Y117835D01*
X243758Y117826D01*
X243791Y117795D01*
X247474Y114880D01*
X247568Y114823D01*
X247657Y114759D01*
X247727Y114727D01*
X247746Y114715D01*
X247762Y114710D01*
X247803Y114691D01*
X252184Y112996D01*
X252244Y112981D01*
X252302Y112957D01*
X252460Y112924D01*
X254008Y112699D01*
X254059Y112698D01*
X254110Y112688D01*
X254218Y112695D01*
X254326Y112693D01*
X254376Y112705D01*
X254427Y112708D01*
X254530Y112742D01*
X254635Y112767D01*
X254681Y112790D01*
X254729Y112806D01*
X254821Y112864D01*
X254917Y112915D01*
X254955Y112949D01*
X254998Y112976D01*
X255072Y113055D01*
X255153Y113128D01*
X255181Y113171D01*
X255216Y113208D01*
X255268Y113303D01*
X255328Y113393D01*
X255345Y113442D01*
X255370Y113487D01*
X255397Y113591D01*
X255432Y113694D01*
X255436Y113745D01*
X255449Y113794D01*
X255459Y113955D01*
X255459Y114232D01*
X257768Y116541D01*
X298452Y116541D01*
X298570Y116556D01*
X298689Y116563D01*
X298727Y116576D01*
X298768Y116581D01*
X298878Y116624D01*
X298991Y116661D01*
X299026Y116683D01*
X299063Y116698D01*
X299159Y116767D01*
X299260Y116831D01*
X299288Y116861D01*
X299321Y116884D01*
X299397Y116976D01*
X299478Y117063D01*
X299498Y117098D01*
X299523Y117129D01*
X299574Y117237D01*
X299632Y117341D01*
X299642Y117381D01*
X299659Y117417D01*
X299681Y117534D01*
X299711Y117649D01*
X299715Y117709D01*
X299719Y117729D01*
X299717Y117750D01*
X299721Y117810D01*
X299721Y120500D01*
X299721Y120502D01*
X299721Y120505D01*
X299710Y120666D01*
X299644Y121171D01*
X299642Y121180D01*
X299641Y121189D01*
X299601Y121333D01*
X299563Y121478D01*
X299559Y121487D01*
X299556Y121496D01*
X299485Y121640D01*
X298979Y122515D01*
X298924Y122588D01*
X298876Y122667D01*
X298828Y122715D01*
X298787Y122768D01*
X298715Y122826D01*
X298649Y122890D01*
X298551Y122955D01*
X298538Y122966D01*
X298530Y122969D01*
X298515Y122979D01*
X297640Y123485D01*
X297631Y123488D01*
X297624Y123494D01*
X297485Y123550D01*
X297347Y123608D01*
X297338Y123609D01*
X297329Y123613D01*
X297171Y123644D01*
X296666Y123710D01*
X296663Y123710D01*
X296661Y123711D01*
X296500Y123721D01*
X259684Y123721D01*
X256538Y125538D01*
X254721Y128684D01*
X254721Y145500D01*
X254721Y145502D01*
X254721Y145505D01*
X254710Y145666D01*
X254644Y146171D01*
X254642Y146180D01*
X254641Y146189D01*
X254601Y146333D01*
X254563Y146478D01*
X254559Y146487D01*
X254556Y146496D01*
X254485Y146640D01*
X253979Y147515D01*
X253924Y147588D01*
X253876Y147667D01*
X253828Y147715D01*
X253787Y147768D01*
X253715Y147826D01*
X253649Y147890D01*
X253551Y147955D01*
X253538Y147966D01*
X253530Y147969D01*
X253515Y147979D01*
X252640Y148485D01*
X252631Y148488D01*
X252624Y148494D01*
X252485Y148550D01*
X252347Y148608D01*
X252338Y148609D01*
X252329Y148613D01*
X252171Y148644D01*
X251666Y148710D01*
X251663Y148710D01*
X251661Y148711D01*
X251500Y148721D01*
X178184Y148721D01*
X175038Y150538D01*
X173221Y153684D01*
X173221Y160000D01*
X173221Y160002D01*
X173221Y160005D01*
X173210Y160166D01*
X173144Y160671D01*
X173142Y160680D01*
X173141Y160689D01*
X173101Y160834D01*
X173063Y160978D01*
X173059Y160987D01*
X173056Y160996D01*
X172985Y161140D01*
X172479Y162015D01*
X172424Y162088D01*
X172376Y162167D01*
X172328Y162215D01*
X172287Y162268D01*
X172215Y162326D01*
X172149Y162390D01*
X172051Y162455D01*
X172038Y162466D01*
X172030Y162469D01*
X172015Y162479D01*
X171140Y162985D01*
X171131Y162988D01*
X171124Y162994D01*
X170985Y163050D01*
X170847Y163108D01*
X170838Y163109D01*
X170829Y163113D01*
X170671Y163144D01*
X170166Y163210D01*
X170163Y163210D01*
X170161Y163211D01*
X170000Y163221D01*
X166824Y163221D01*
X166687Y163204D01*
X166548Y163191D01*
X166529Y163184D01*
X166509Y163181D01*
X166380Y163130D01*
X166249Y163083D01*
X166232Y163072D01*
X166213Y163064D01*
X166101Y162983D01*
X165985Y162905D01*
X165972Y162889D01*
X165956Y162878D01*
X165867Y162770D01*
X165775Y162666D01*
X165766Y162648D01*
X165753Y162633D01*
X165694Y162507D01*
X165630Y162383D01*
X165626Y162363D01*
X165617Y162345D01*
X165591Y162209D01*
X165561Y162073D01*
X165561Y162052D01*
X165558Y162033D01*
X165566Y161894D01*
X165570Y161755D01*
X165576Y161735D01*
X165577Y161715D01*
X165620Y161583D01*
X165659Y161449D01*
X165669Y161432D01*
X165675Y161413D01*
X165750Y161295D01*
X165820Y161175D01*
X165839Y161154D01*
X165846Y161144D01*
X165861Y161130D01*
X165927Y161055D01*
X167884Y159097D01*
X168851Y156763D01*
X168851Y154237D01*
X167884Y151903D01*
X166097Y150116D01*
X163763Y149149D01*
X161237Y149149D01*
X158903Y150116D01*
X157116Y151903D01*
X156149Y154237D01*
X156149Y156763D01*
X157116Y159097D01*
X159073Y161055D01*
X159158Y161164D01*
X159247Y161271D01*
X159256Y161290D01*
X159268Y161306D01*
X159324Y161434D01*
X159383Y161559D01*
X159386Y161579D01*
X159395Y161598D01*
X159416Y161736D01*
X159442Y161872D01*
X159441Y161892D01*
X159444Y161912D01*
X159431Y162051D01*
X159423Y162189D01*
X159416Y162208D01*
X159415Y162228D01*
X159367Y162360D01*
X159325Y162491D01*
X159314Y162509D01*
X159307Y162528D01*
X159229Y162643D01*
X159154Y162760D01*
X159140Y162774D01*
X159128Y162791D01*
X159024Y162883D01*
X158923Y162978D01*
X158905Y162988D01*
X158890Y163001D01*
X158766Y163065D01*
X158644Y163132D01*
X158625Y163137D01*
X158607Y163146D01*
X158471Y163176D01*
X158336Y163211D01*
X158308Y163213D01*
X158296Y163216D01*
X158276Y163215D01*
X158176Y163221D01*
X15000Y163221D01*
X14998Y163221D01*
X14995Y163221D01*
X14834Y163210D01*
X14329Y163144D01*
X14320Y163142D01*
X14311Y163141D01*
X14167Y163101D01*
X14022Y163063D01*
X14013Y163059D01*
X14004Y163056D01*
X13860Y162985D01*
X12985Y162479D01*
X12912Y162424D01*
X12833Y162376D01*
X12785Y162328D01*
X12732Y162287D01*
X12674Y162215D01*
X12610Y162149D01*
X12545Y162051D01*
X12534Y162038D01*
X12531Y162030D01*
X12521Y162015D01*
X12015Y161140D01*
X12012Y161131D01*
X12006Y161124D01*
X11950Y160985D01*
X11892Y160847D01*
X11891Y160838D01*
X11887Y160829D01*
X11856Y160671D01*
X11790Y160166D01*
X11790Y160163D01*
X11789Y160161D01*
X11779Y160000D01*
X11779Y137763D01*
X10737Y136721D01*
X9389Y136721D01*
X9252Y136704D01*
X9113Y136691D01*
X9093Y136684D01*
X9073Y136681D01*
X8945Y136630D01*
X8813Y136583D01*
X8797Y136572D01*
X8778Y136564D01*
X8665Y136483D01*
X8550Y136405D01*
X8537Y136389D01*
X8520Y136378D01*
X8432Y136270D01*
X8340Y136166D01*
X8331Y136148D01*
X8318Y136133D01*
X8258Y136007D01*
X8195Y135883D01*
X8191Y135863D01*
X8182Y135845D01*
X8156Y135709D01*
X8125Y135573D01*
X8126Y135552D01*
X8122Y135533D01*
X8131Y135394D01*
X8135Y135255D01*
X8141Y135235D01*
X8142Y135215D01*
X8185Y135083D01*
X8224Y134949D01*
X8234Y134932D01*
X8240Y134913D01*
X8315Y134795D01*
X8385Y134675D01*
X8404Y134654D01*
X8410Y134644D01*
X8425Y134630D01*
X8491Y134555D01*
X10622Y132424D01*
X11814Y129547D01*
X11826Y129452D01*
X11833Y129333D01*
X11846Y129295D01*
X11851Y129254D01*
X11894Y129144D01*
X11931Y129031D01*
X11953Y128996D01*
X11968Y128959D01*
X12037Y128863D01*
X12101Y128762D01*
X12131Y128734D01*
X12154Y128701D01*
X12246Y128625D01*
X12333Y128544D01*
X12368Y128524D01*
X12399Y128499D01*
X12507Y128448D01*
X12611Y128390D01*
X12651Y128380D01*
X12687Y128363D01*
X12804Y128341D01*
X12919Y128311D01*
X12979Y128307D01*
X12999Y128303D01*
X13020Y128305D01*
X13080Y128301D01*
X13704Y128301D01*
X13704Y127050D01*
X13719Y126932D01*
X13727Y126813D01*
X13739Y126775D01*
X13744Y126735D01*
X13788Y126624D01*
X13825Y126511D01*
X13846Y126477D01*
X13861Y126439D01*
X13931Y126343D01*
X13995Y126242D01*
X14024Y126214D01*
X14048Y126182D01*
X14048Y126181D01*
X14049Y126181D01*
X14140Y126105D01*
X14227Y126024D01*
X14262Y126004D01*
X14294Y125978D01*
X14401Y125928D01*
X14506Y125870D01*
X14545Y125860D01*
X14581Y125843D01*
X14698Y125821D01*
X14813Y125791D01*
X14874Y125787D01*
X14894Y125783D01*
X14914Y125784D01*
X14974Y125781D01*
X16735Y125781D01*
X16739Y125742D01*
X16747Y125623D01*
X16759Y125585D01*
X16764Y125544D01*
X16808Y125434D01*
X16845Y125321D01*
X16867Y125286D01*
X16881Y125249D01*
X16951Y125153D01*
X17015Y125052D01*
X17045Y125024D01*
X17068Y124991D01*
X17160Y124915D01*
X17247Y124834D01*
X17282Y124814D01*
X17313Y124789D01*
X17421Y124738D01*
X17525Y124680D01*
X17564Y124670D01*
X17601Y124653D01*
X17718Y124631D01*
X17833Y124601D01*
X17893Y124597D01*
X17913Y124593D01*
X17934Y124595D01*
X17994Y124591D01*
X20135Y124591D01*
X20233Y124603D01*
X20332Y124606D01*
X20391Y124623D01*
X20451Y124631D01*
X20543Y124667D01*
X20638Y124695D01*
X20690Y124725D01*
X20746Y124748D01*
X20826Y124806D01*
X20912Y124856D01*
X20987Y124922D01*
X21004Y124934D01*
X21012Y124944D01*
X21033Y124962D01*
X21619Y125549D01*
X21638Y125573D01*
X21660Y125592D01*
X21735Y125698D01*
X21814Y125800D01*
X21826Y125828D01*
X21843Y125852D01*
X21889Y125973D01*
X21941Y126092D01*
X21945Y126122D01*
X21956Y126149D01*
X21970Y126278D01*
X21991Y126406D01*
X21988Y126436D01*
X21991Y126465D01*
X21973Y126594D01*
X21961Y126723D01*
X21951Y126751D01*
X21947Y126780D01*
X21895Y126932D01*
X21867Y127000D01*
X21867Y128231D01*
X25867Y128231D01*
X25868Y128231D01*
X29868Y128231D01*
X29868Y127000D01*
X29840Y126932D01*
X29832Y126904D01*
X29819Y126878D01*
X29791Y126751D01*
X29756Y126626D01*
X29756Y126596D01*
X29749Y126567D01*
X29753Y126438D01*
X29751Y126308D01*
X29758Y126279D01*
X29759Y126249D01*
X29795Y126125D01*
X29825Y125998D01*
X29839Y125972D01*
X29847Y125944D01*
X29913Y125832D01*
X29974Y125717D01*
X29994Y125695D01*
X30009Y125670D01*
X30115Y125549D01*
X31138Y124526D01*
X31138Y118474D01*
X31062Y118398D01*
X30989Y118303D01*
X30910Y118214D01*
X30900Y118195D01*
X30890Y118183D01*
X30882Y118166D01*
X30867Y118146D01*
X30820Y118037D01*
X30766Y117931D01*
X30760Y117907D01*
X30754Y117895D01*
X30752Y117880D01*
X30741Y117854D01*
X30722Y117737D01*
X30696Y117621D01*
X30697Y117593D01*
X30695Y117582D01*
X30695Y117570D01*
X30691Y117540D01*
X30702Y117421D01*
X30706Y117303D01*
X30714Y117274D01*
X30714Y117265D01*
X30718Y117255D01*
X30721Y117224D01*
X30761Y117111D01*
X30794Y116997D01*
X30810Y116970D01*
X30812Y116963D01*
X30817Y116955D01*
X30828Y116924D01*
X30895Y116826D01*
X30956Y116723D01*
X30995Y116678D01*
X31007Y116661D01*
X31022Y116648D01*
X31062Y116603D01*
X31183Y116481D01*
X31222Y116384D01*
X31258Y116271D01*
X31280Y116236D01*
X31295Y116199D01*
X31365Y116103D01*
X31429Y116002D01*
X31458Y115974D01*
X31482Y115941D01*
X31574Y115865D01*
X31660Y115784D01*
X31696Y115764D01*
X31727Y115739D01*
X31834Y115688D01*
X31939Y115630D01*
X31978Y115620D01*
X32014Y115603D01*
X32131Y115581D01*
X32247Y115551D01*
X32307Y115547D01*
X32327Y115543D01*
X32347Y115545D01*
X32407Y115541D01*
X50097Y115541D01*
X50216Y115556D01*
X50334Y115563D01*
X50373Y115576D01*
X50413Y115581D01*
X50524Y115624D01*
X50637Y115661D01*
X50671Y115683D01*
X50709Y115698D01*
X50805Y115767D01*
X50905Y115831D01*
X50933Y115861D01*
X50966Y115884D01*
X51042Y115976D01*
X51123Y116063D01*
X51143Y116098D01*
X51169Y116129D01*
X51219Y116237D01*
X51277Y116341D01*
X51287Y116381D01*
X51304Y116417D01*
X51327Y116534D01*
X51356Y116649D01*
X51360Y116709D01*
X51364Y116729D01*
X51363Y116750D01*
X51367Y116810D01*
X51367Y121961D01*
X58097Y121961D01*
X58215Y121976D01*
X58334Y121983D01*
X58373Y121996D01*
X58413Y122001D01*
X58524Y122044D01*
X58637Y122081D01*
X58671Y122103D01*
X58708Y122118D01*
X58805Y122188D01*
X58905Y122251D01*
X58933Y122281D01*
X58966Y122305D01*
X59042Y122396D01*
X59123Y122483D01*
X59143Y122518D01*
X59169Y122549D01*
X59219Y122657D01*
X59277Y122761D01*
X59287Y122801D01*
X59304Y122837D01*
X59326Y122954D01*
X59356Y123069D01*
X59360Y123130D01*
X59364Y123150D01*
X59363Y123170D01*
X59366Y123230D01*
X59366Y124501D01*
X59368Y124501D01*
X59368Y123230D01*
X59383Y123112D01*
X59391Y122993D01*
X59403Y122955D01*
X59408Y122915D01*
X59452Y122804D01*
X59489Y122691D01*
X59510Y122656D01*
X59525Y122619D01*
X59595Y122522D01*
X59659Y122422D01*
X59688Y122394D01*
X59712Y122361D01*
X59804Y122286D01*
X59890Y122204D01*
X59926Y122184D01*
X59957Y122159D01*
X60065Y122108D01*
X60169Y122050D01*
X60208Y122040D01*
X60245Y122023D01*
X60361Y122001D01*
X60477Y121971D01*
X60537Y121967D01*
X60557Y121963D01*
X60577Y121965D01*
X60637Y121961D01*
X67368Y121961D01*
X67368Y116810D01*
X67383Y116692D01*
X67390Y116573D01*
X67403Y116535D01*
X67408Y116494D01*
X67452Y116384D01*
X67488Y116271D01*
X67510Y116236D01*
X67525Y116199D01*
X67595Y116103D01*
X67659Y116002D01*
X67688Y115974D01*
X67712Y115941D01*
X67804Y115865D01*
X67890Y115784D01*
X67926Y115764D01*
X67957Y115739D01*
X68064Y115688D01*
X68169Y115630D01*
X68208Y115620D01*
X68244Y115603D01*
X68361Y115581D01*
X68477Y115551D01*
X68537Y115547D01*
X68557Y115543D01*
X68577Y115545D01*
X68637Y115541D01*
X73097Y115541D01*
X73216Y115556D01*
X73334Y115563D01*
X73373Y115576D01*
X73413Y115581D01*
X73524Y115624D01*
X73637Y115661D01*
X73671Y115683D01*
X73709Y115698D01*
X73805Y115767D01*
X73905Y115831D01*
X73933Y115861D01*
X73966Y115884D01*
X74042Y115976D01*
X74123Y116063D01*
X74143Y116098D01*
X74169Y116129D01*
X74219Y116237D01*
X74277Y116341D01*
X74287Y116381D01*
X74304Y116417D01*
X74327Y116534D01*
X74356Y116649D01*
X74360Y116709D01*
X74364Y116729D01*
X74363Y116750D01*
X74367Y116810D01*
X74367Y121961D01*
X81097Y121961D01*
X81215Y121976D01*
X81334Y121983D01*
X81373Y121996D01*
X81413Y122001D01*
X81524Y122044D01*
X81637Y122081D01*
X81671Y122103D01*
X81708Y122118D01*
X81805Y122188D01*
X81905Y122251D01*
X81933Y122281D01*
X81966Y122305D01*
X82042Y122396D01*
X82123Y122483D01*
X82143Y122518D01*
X82169Y122549D01*
X82219Y122657D01*
X82277Y122761D01*
X82287Y122801D01*
X82304Y122837D01*
X82326Y122954D01*
X82356Y123069D01*
X82360Y123130D01*
X82364Y123150D01*
X82363Y123170D01*
X82366Y123230D01*
X82366Y124501D01*
X82368Y124501D01*
X82368Y123230D01*
X82383Y123112D01*
X82391Y122993D01*
X82403Y122955D01*
X82408Y122915D01*
X82452Y122804D01*
X82489Y122691D01*
X82510Y122656D01*
X82525Y122619D01*
X82595Y122522D01*
X82659Y122422D01*
X82688Y122394D01*
X82712Y122361D01*
X82804Y122286D01*
X82890Y122204D01*
X82926Y122184D01*
X82957Y122159D01*
X83065Y122108D01*
X83169Y122050D01*
X83208Y122040D01*
X83245Y122023D01*
X83361Y122001D01*
X83477Y121971D01*
X83537Y121967D01*
X83557Y121963D01*
X83577Y121965D01*
X83637Y121961D01*
X90368Y121961D01*
X90368Y116810D01*
X90383Y116692D01*
X90390Y116573D01*
X90403Y116535D01*
X90408Y116494D01*
X90452Y116384D01*
X90488Y116271D01*
X90510Y116236D01*
X90525Y116199D01*
X90595Y116103D01*
X90659Y116002D01*
X90688Y115974D01*
X90712Y115941D01*
X90804Y115865D01*
X90890Y115784D01*
X90926Y115764D01*
X90957Y115739D01*
X91064Y115688D01*
X91169Y115630D01*
X91208Y115620D01*
X91244Y115603D01*
X91361Y115581D01*
X91477Y115551D01*
X91537Y115547D01*
X91557Y115543D01*
X91577Y115545D01*
X91637Y115541D01*
X96097Y115541D01*
X96216Y115556D01*
X96334Y115563D01*
X96373Y115576D01*
X96413Y115581D01*
X96524Y115624D01*
X96637Y115661D01*
X96671Y115683D01*
X96709Y115698D01*
X96805Y115767D01*
X96905Y115831D01*
X96933Y115861D01*
X96966Y115884D01*
X97042Y115976D01*
X97123Y116063D01*
X97143Y116098D01*
X97169Y116129D01*
X97219Y116237D01*
X97277Y116341D01*
X97287Y116381D01*
X97304Y116417D01*
X97327Y116534D01*
X97356Y116649D01*
X97360Y116709D01*
X97364Y116729D01*
X97363Y116750D01*
X97367Y116810D01*
X97367Y121961D01*
X104097Y121961D01*
X104215Y121976D01*
X104334Y121983D01*
X104373Y121996D01*
X104413Y122001D01*
X104524Y122044D01*
X104637Y122081D01*
X104671Y122103D01*
X104708Y122118D01*
X104805Y122188D01*
X104905Y122251D01*
X104933Y122281D01*
X104966Y122305D01*
X105042Y122396D01*
X105123Y122483D01*
X105143Y122518D01*
X105169Y122549D01*
X105219Y122657D01*
X105277Y122761D01*
X105287Y122801D01*
X105304Y122837D01*
X105326Y122954D01*
X105356Y123069D01*
X105360Y123130D01*
X105364Y123150D01*
X105363Y123170D01*
X105366Y123230D01*
X105366Y124501D01*
X105368Y124501D01*
X105368Y123230D01*
X105383Y123112D01*
X105391Y122993D01*
X105403Y122955D01*
X105408Y122915D01*
X105452Y122804D01*
X105489Y122691D01*
X105510Y122656D01*
X105525Y122619D01*
X105595Y122522D01*
X105659Y122422D01*
X105688Y122394D01*
X105712Y122361D01*
X105804Y122286D01*
X105890Y122204D01*
X105926Y122184D01*
X105957Y122159D01*
X106065Y122108D01*
X106169Y122050D01*
X106208Y122040D01*
X106245Y122023D01*
X106361Y122001D01*
X106477Y121971D01*
X106537Y121967D01*
X106557Y121963D01*
X106577Y121965D01*
X106637Y121961D01*
X113928Y121961D01*
X114026Y121973D01*
X114125Y121976D01*
X114183Y121993D01*
X114243Y122001D01*
X114335Y122037D01*
X114430Y122065D01*
X114483Y122095D01*
X114539Y122118D01*
X114619Y122176D01*
X114704Y122226D01*
X114780Y122292D01*
X114796Y122305D01*
X114804Y122314D01*
X114825Y122333D01*
X117033Y124541D01*
X119967Y124541D01*
X120603Y123904D01*
X120681Y123844D01*
X120753Y123776D01*
X120806Y123747D01*
X120854Y123710D01*
X120945Y123670D01*
X121032Y123622D01*
X121090Y123607D01*
X121146Y123583D01*
X121244Y123568D01*
X121340Y123543D01*
X121440Y123537D01*
X121460Y123533D01*
X121472Y123535D01*
X121500Y123533D01*
X125500Y123533D01*
X125598Y123545D01*
X125697Y123548D01*
X125755Y123565D01*
X125815Y123573D01*
X125907Y123609D01*
X126002Y123637D01*
X126055Y123667D01*
X126111Y123690D01*
X126191Y123748D01*
X126276Y123798D01*
X126352Y123864D01*
X126368Y123876D01*
X126376Y123886D01*
X126397Y123904D01*
X133225Y130732D01*
X133286Y130810D01*
X133353Y130883D01*
X133383Y130936D01*
X133420Y130983D01*
X133459Y131074D01*
X133507Y131161D01*
X133522Y131220D01*
X133546Y131275D01*
X133562Y131373D01*
X133586Y131469D01*
X133593Y131569D01*
X133596Y131589D01*
X133595Y131602D01*
X133597Y131630D01*
X133597Y131698D01*
X133582Y131816D01*
X133574Y131935D01*
X133562Y131973D01*
X133557Y132014D01*
X133513Y132124D01*
X133476Y132237D01*
X133455Y132272D01*
X133440Y132309D01*
X133370Y132405D01*
X133306Y132506D01*
X133277Y132534D01*
X133253Y132567D01*
X133161Y132643D01*
X133074Y132724D01*
X133039Y132744D01*
X133008Y132769D01*
X132900Y132820D01*
X132796Y132878D01*
X132757Y132888D01*
X132720Y132905D01*
X132603Y132927D01*
X132488Y132957D01*
X132428Y132961D01*
X132408Y132965D01*
X132388Y132963D01*
X132327Y132967D01*
X128310Y132967D01*
X128192Y132952D01*
X128073Y132945D01*
X128035Y132932D01*
X127994Y132927D01*
X127884Y132884D01*
X127771Y132847D01*
X127736Y132825D01*
X127699Y132810D01*
X127603Y132741D01*
X127502Y132677D01*
X127474Y132647D01*
X127441Y132624D01*
X127365Y132532D01*
X127284Y132445D01*
X127264Y132410D01*
X127239Y132379D01*
X127188Y132271D01*
X127130Y132167D01*
X127120Y132127D01*
X127107Y132100D01*
X124967Y129959D01*
X122033Y129959D01*
X119959Y132033D01*
X119959Y134967D01*
X122033Y137041D01*
X123388Y137041D01*
X123525Y137058D01*
X123664Y137071D01*
X123683Y137078D01*
X123703Y137081D01*
X123833Y137132D01*
X123963Y137179D01*
X123980Y137190D01*
X123999Y137198D01*
X124112Y137279D01*
X124227Y137357D01*
X124240Y137373D01*
X124256Y137384D01*
X124345Y137492D01*
X124437Y137596D01*
X124446Y137614D01*
X124459Y137629D01*
X124518Y137755D01*
X124582Y137879D01*
X124586Y137899D01*
X124595Y137917D01*
X124621Y138053D01*
X124651Y138189D01*
X124651Y138210D01*
X124654Y138229D01*
X124646Y138368D01*
X124642Y138507D01*
X124636Y138527D01*
X124635Y138547D01*
X124592Y138679D01*
X124553Y138813D01*
X124543Y138830D01*
X124537Y138849D01*
X124462Y138967D01*
X124459Y138972D01*
X124459Y141967D01*
X124793Y142301D01*
X124878Y142410D01*
X124967Y142517D01*
X124976Y142536D01*
X124988Y142552D01*
X125044Y142680D01*
X125103Y142805D01*
X125106Y142825D01*
X125114Y142844D01*
X125136Y142982D01*
X125162Y143118D01*
X125161Y143138D01*
X125164Y143158D01*
X125151Y143297D01*
X125143Y143435D01*
X125136Y143454D01*
X125135Y143474D01*
X125087Y143605D01*
X125045Y143737D01*
X125034Y143755D01*
X125027Y143774D01*
X124949Y143888D01*
X124874Y144006D01*
X124860Y144020D01*
X124848Y144037D01*
X124744Y144129D01*
X124643Y144224D01*
X124625Y144234D01*
X124610Y144247D01*
X124486Y144310D01*
X124364Y144378D01*
X124345Y144383D01*
X124327Y144392D01*
X124191Y144422D01*
X124056Y144457D01*
X124028Y144459D01*
X124016Y144462D01*
X123996Y144461D01*
X123896Y144467D01*
X111658Y144467D01*
X108268Y147858D01*
X108189Y147918D01*
X108117Y147986D01*
X108064Y148015D01*
X108016Y148052D01*
X107926Y148092D01*
X107839Y148140D01*
X107780Y148155D01*
X107725Y148179D01*
X107627Y148194D01*
X107531Y148219D01*
X107431Y148225D01*
X107411Y148229D01*
X107398Y148227D01*
X107370Y148229D01*
X107341Y148229D01*
X107265Y148305D01*
X107171Y148378D01*
X107082Y148457D01*
X107046Y148476D01*
X107014Y148500D01*
X106904Y148548D01*
X106798Y148602D01*
X106759Y148611D01*
X106722Y148627D01*
X106604Y148645D01*
X106488Y148671D01*
X106448Y148670D01*
X106408Y148677D01*
X106289Y148665D01*
X106170Y148662D01*
X106131Y148651D01*
X106091Y148647D01*
X105979Y148606D01*
X105865Y148573D01*
X105830Y148553D01*
X105792Y148539D01*
X105693Y148472D01*
X105591Y148412D01*
X105545Y148372D01*
X105529Y148361D01*
X105515Y148345D01*
X105470Y148305D01*
X105394Y148229D01*
X99341Y148229D01*
X99265Y148305D01*
X99171Y148378D01*
X99082Y148457D01*
X99046Y148476D01*
X99014Y148500D01*
X98904Y148548D01*
X98798Y148602D01*
X98759Y148611D01*
X98722Y148627D01*
X98604Y148645D01*
X98488Y148671D01*
X98448Y148670D01*
X98408Y148677D01*
X98289Y148665D01*
X98170Y148662D01*
X98131Y148651D01*
X98091Y148647D01*
X97979Y148606D01*
X97865Y148573D01*
X97830Y148553D01*
X97792Y148539D01*
X97693Y148472D01*
X97591Y148412D01*
X97545Y148372D01*
X97529Y148361D01*
X97515Y148345D01*
X97470Y148305D01*
X97233Y148069D01*
X97160Y147975D01*
X97082Y147886D01*
X97063Y147850D01*
X97038Y147818D01*
X96991Y147708D01*
X96937Y147602D01*
X96928Y147563D01*
X96912Y147526D01*
X96893Y147408D01*
X96867Y147292D01*
X96869Y147252D01*
X96862Y147212D01*
X96873Y147094D01*
X96877Y146974D01*
X96888Y146935D01*
X96892Y146895D01*
X96932Y146783D01*
X96965Y146669D01*
X96986Y146634D01*
X97000Y146596D01*
X97066Y146497D01*
X97127Y146395D01*
X97167Y146349D01*
X97178Y146333D01*
X97193Y146319D01*
X97233Y146274D01*
X97541Y145967D01*
X97541Y143033D01*
X95467Y140959D01*
X92533Y140959D01*
X90898Y142595D01*
X90803Y142668D01*
X90714Y142747D01*
X90678Y142765D01*
X90646Y142790D01*
X90537Y142837D01*
X90431Y142892D01*
X90392Y142900D01*
X90354Y142916D01*
X90237Y142935D01*
X90121Y142961D01*
X90080Y142960D01*
X90040Y142966D01*
X89922Y142955D01*
X89803Y142952D01*
X89764Y142940D01*
X89724Y142936D01*
X89611Y142896D01*
X89497Y142863D01*
X89463Y142843D01*
X89424Y142829D01*
X89326Y142762D01*
X89223Y142702D01*
X89178Y142662D01*
X89161Y142650D01*
X89148Y142635D01*
X89103Y142595D01*
X87467Y140959D01*
X84533Y140959D01*
X82459Y143033D01*
X82459Y143520D01*
X82442Y143658D01*
X82429Y143797D01*
X82422Y143816D01*
X82419Y143836D01*
X82369Y143964D01*
X82321Y144096D01*
X82310Y144113D01*
X82302Y144132D01*
X82221Y144244D01*
X82143Y144359D01*
X82127Y144372D01*
X82116Y144389D01*
X82008Y144478D01*
X81904Y144570D01*
X81886Y144579D01*
X81871Y144592D01*
X81745Y144651D01*
X81621Y144714D01*
X81601Y144719D01*
X81583Y144727D01*
X81447Y144753D01*
X81311Y144784D01*
X81290Y144783D01*
X81271Y144787D01*
X81132Y144778D01*
X80993Y144774D01*
X80973Y144769D01*
X80953Y144767D01*
X80821Y144724D01*
X80687Y144686D01*
X80670Y144675D01*
X80651Y144669D01*
X80533Y144595D01*
X80413Y144524D01*
X80392Y144506D01*
X80382Y144499D01*
X80368Y144484D01*
X80293Y144418D01*
X76412Y140538D01*
X76352Y140459D01*
X76284Y140387D01*
X76255Y140334D01*
X76218Y140286D01*
X76178Y140196D01*
X76130Y140109D01*
X76115Y140050D01*
X76091Y139995D01*
X76076Y139897D01*
X76051Y139801D01*
X76045Y139701D01*
X76041Y139681D01*
X76043Y139668D01*
X76041Y139640D01*
X76041Y138033D01*
X73967Y135959D01*
X71033Y135959D01*
X68959Y138033D01*
X68959Y140967D01*
X71033Y143041D01*
X72640Y143041D01*
X72738Y143053D01*
X72837Y143056D01*
X72896Y143073D01*
X72956Y143081D01*
X73048Y143117D01*
X73143Y143145D01*
X73195Y143175D01*
X73251Y143198D01*
X73332Y143256D01*
X73417Y143306D01*
X73492Y143372D01*
X73509Y143384D01*
X73517Y143394D01*
X73538Y143412D01*
X75963Y145838D01*
X76024Y145916D01*
X76091Y145988D01*
X76121Y146041D01*
X76158Y146089D01*
X76197Y146180D01*
X76245Y146266D01*
X76260Y146325D01*
X76284Y146381D01*
X76300Y146479D01*
X76324Y146574D01*
X76331Y146674D01*
X76334Y146695D01*
X76333Y146707D01*
X76335Y146735D01*
X76335Y146960D01*
X76320Y147078D01*
X76312Y147197D01*
X76300Y147235D01*
X76295Y147276D01*
X76251Y147386D01*
X76214Y147499D01*
X76193Y147534D01*
X76178Y147571D01*
X76108Y147667D01*
X76044Y147768D01*
X76015Y147796D01*
X75991Y147829D01*
X75899Y147905D01*
X75812Y147986D01*
X75777Y148006D01*
X75746Y148031D01*
X75638Y148082D01*
X75534Y148140D01*
X75495Y148150D01*
X75458Y148167D01*
X75390Y148180D01*
X74318Y149252D01*
X74295Y149270D01*
X74276Y149293D01*
X74170Y149367D01*
X74067Y149447D01*
X74040Y149459D01*
X74016Y149476D01*
X73894Y149522D01*
X73775Y149573D01*
X73746Y149578D01*
X73718Y149588D01*
X73589Y149603D01*
X73461Y149623D01*
X73432Y149620D01*
X73402Y149624D01*
X73274Y149606D01*
X73144Y149593D01*
X73117Y149583D01*
X73087Y149579D01*
X72935Y149527D01*
X72867Y149499D01*
X71637Y149499D01*
X71637Y153500D01*
X71637Y157501D01*
X72867Y157501D01*
X72935Y157473D01*
X72963Y157465D01*
X72990Y157452D01*
X73116Y157423D01*
X73242Y157389D01*
X73271Y157388D01*
X73300Y157382D01*
X73430Y157386D01*
X73560Y157384D01*
X73588Y157391D01*
X73618Y157392D01*
X73743Y157428D01*
X73869Y157458D01*
X73895Y157472D01*
X73923Y157480D01*
X74035Y157546D01*
X74150Y157607D01*
X74172Y157627D01*
X74197Y157642D01*
X74318Y157748D01*
X75341Y158771D01*
X81394Y158771D01*
X81470Y158695D01*
X81564Y158622D01*
X81653Y158543D01*
X81689Y158524D01*
X81721Y158500D01*
X81830Y158452D01*
X81936Y158398D01*
X81976Y158389D01*
X82013Y158373D01*
X82131Y158355D01*
X82247Y158329D01*
X82287Y158330D01*
X82327Y158323D01*
X82446Y158335D01*
X82565Y158338D01*
X82603Y158349D01*
X82644Y158353D01*
X82756Y158394D01*
X82870Y158427D01*
X82905Y158447D01*
X82943Y158461D01*
X83041Y158528D01*
X83144Y158588D01*
X83189Y158628D01*
X83206Y158639D01*
X83220Y158655D01*
X83265Y158695D01*
X83341Y158771D01*
X89394Y158771D01*
X89470Y158695D01*
X89564Y158622D01*
X89653Y158543D01*
X89689Y158524D01*
X89721Y158500D01*
X89830Y158452D01*
X89936Y158398D01*
X89976Y158389D01*
X90013Y158373D01*
X90131Y158355D01*
X90247Y158329D01*
X90287Y158330D01*
X90327Y158323D01*
X90446Y158335D01*
X90565Y158338D01*
X90603Y158349D01*
X90644Y158353D01*
X90756Y158394D01*
X90870Y158427D01*
X90905Y158447D01*
X90943Y158461D01*
X91041Y158528D01*
X91144Y158588D01*
X91189Y158628D01*
X91206Y158639D01*
X91220Y158655D01*
X91265Y158695D01*
X91341Y158771D01*
X97394Y158771D01*
X97470Y158695D01*
X97564Y158622D01*
X97653Y158543D01*
X97689Y158524D01*
X97721Y158500D01*
X97830Y158452D01*
X97936Y158398D01*
X97976Y158389D01*
X98013Y158373D01*
X98131Y158355D01*
X98247Y158329D01*
X98287Y158330D01*
X98327Y158323D01*
X98446Y158335D01*
X98565Y158338D01*
X98603Y158349D01*
X98644Y158353D01*
X98756Y158394D01*
X98870Y158427D01*
X98905Y158447D01*
X98943Y158461D01*
X99041Y158528D01*
X99144Y158588D01*
X99189Y158628D01*
X99206Y158639D01*
X99220Y158655D01*
X99265Y158695D01*
X99341Y158771D01*
X105394Y158771D01*
X105470Y158695D01*
X105564Y158622D01*
X105653Y158543D01*
X105689Y158524D01*
X105721Y158500D01*
X105830Y158452D01*
X105936Y158398D01*
X105976Y158389D01*
X106013Y158373D01*
X106131Y158355D01*
X106247Y158329D01*
X106287Y158330D01*
X106327Y158323D01*
X106446Y158335D01*
X106565Y158338D01*
X106603Y158349D01*
X106644Y158353D01*
X106756Y158394D01*
X106870Y158427D01*
X106905Y158447D01*
X106943Y158461D01*
X107041Y158528D01*
X107144Y158588D01*
X107189Y158628D01*
X107206Y158639D01*
X107220Y158655D01*
X107265Y158695D01*
X107341Y158771D01*
X113394Y158771D01*
X113470Y158695D01*
X113564Y158622D01*
X113653Y158543D01*
X113689Y158524D01*
X113721Y158500D01*
X113830Y158452D01*
X113936Y158398D01*
X113976Y158389D01*
X114013Y158373D01*
X114131Y158355D01*
X114247Y158329D01*
X114287Y158330D01*
X114327Y158323D01*
X114446Y158335D01*
X114565Y158338D01*
X114603Y158349D01*
X114644Y158353D01*
X114756Y158394D01*
X114870Y158427D01*
X114905Y158447D01*
X114943Y158461D01*
X115041Y158528D01*
X115144Y158588D01*
X115189Y158628D01*
X115206Y158639D01*
X115220Y158655D01*
X115265Y158695D01*
X115341Y158771D01*
X121394Y158771D01*
X121470Y158695D01*
X121564Y158622D01*
X121653Y158543D01*
X121689Y158524D01*
X121721Y158500D01*
X121830Y158452D01*
X121936Y158398D01*
X121976Y158389D01*
X122013Y158373D01*
X122131Y158355D01*
X122247Y158329D01*
X122287Y158330D01*
X122327Y158323D01*
X122446Y158335D01*
X122565Y158338D01*
X122603Y158349D01*
X122644Y158353D01*
X122756Y158394D01*
X122870Y158427D01*
X122905Y158447D01*
X122943Y158461D01*
X123041Y158528D01*
X123144Y158588D01*
X123189Y158628D01*
X123206Y158639D01*
X123220Y158655D01*
X123265Y158695D01*
X123341Y158771D01*
X129394Y158771D01*
X130138Y158026D01*
X130138Y152577D01*
X130155Y152440D01*
X130169Y152301D01*
X130175Y152282D01*
X130178Y152261D01*
X130229Y152133D01*
X130276Y152001D01*
X130288Y151985D01*
X130295Y151966D01*
X130377Y151853D01*
X130455Y151738D01*
X130470Y151725D01*
X130482Y151708D01*
X130589Y151620D01*
X130693Y151528D01*
X130711Y151519D01*
X130727Y151506D01*
X130853Y151446D01*
X130976Y151383D01*
X130996Y151379D01*
X131014Y151370D01*
X131151Y151344D01*
X131287Y151314D01*
X131307Y151314D01*
X131327Y151310D01*
X131465Y151319D01*
X131605Y151323D01*
X131624Y151329D01*
X131644Y151330D01*
X131776Y151373D01*
X131910Y151412D01*
X131927Y151422D01*
X131947Y151428D01*
X132065Y151503D01*
X132184Y151573D01*
X132205Y151592D01*
X132215Y151598D01*
X132230Y151613D01*
X132305Y151680D01*
X135158Y154533D01*
X144342Y154533D01*
X151047Y147827D01*
X151048Y147803D01*
X151065Y147745D01*
X151073Y147685D01*
X151109Y147593D01*
X151137Y147498D01*
X151167Y147445D01*
X151190Y147389D01*
X151248Y147309D01*
X151298Y147224D01*
X151364Y147148D01*
X151376Y147132D01*
X151386Y147124D01*
X151404Y147103D01*
X152541Y145967D01*
X152541Y145465D01*
X152547Y145415D01*
X152545Y145366D01*
X152567Y145258D01*
X152581Y145149D01*
X152599Y145103D01*
X152609Y145054D01*
X152657Y144956D01*
X152698Y144853D01*
X152727Y144813D01*
X152749Y144769D01*
X152820Y144685D01*
X152884Y144596D01*
X152923Y144564D01*
X152955Y144527D01*
X153045Y144463D01*
X153129Y144393D01*
X153174Y144372D01*
X153215Y144343D01*
X153318Y144304D01*
X153417Y144258D01*
X153466Y144248D01*
X153512Y144231D01*
X153622Y144219D01*
X153729Y144198D01*
X153779Y144201D01*
X153828Y144195D01*
X153937Y144211D01*
X154047Y144218D01*
X154094Y144233D01*
X154143Y144240D01*
X154296Y144292D01*
X155452Y144771D01*
X157548Y144771D01*
X159486Y143968D01*
X161103Y142351D01*
X161197Y142278D01*
X161286Y142200D01*
X161322Y142181D01*
X161354Y142156D01*
X161463Y142109D01*
X161569Y142055D01*
X161608Y142046D01*
X161646Y142030D01*
X161763Y142011D01*
X161879Y141985D01*
X161920Y141987D01*
X161960Y141980D01*
X162078Y141991D01*
X162197Y141995D01*
X162236Y142006D01*
X162276Y142010D01*
X162388Y142050D01*
X162503Y142083D01*
X162538Y142104D01*
X162576Y142118D01*
X162674Y142185D01*
X162777Y142245D01*
X162822Y142285D01*
X162839Y142296D01*
X162852Y142312D01*
X162898Y142351D01*
X164514Y143968D01*
X166452Y144771D01*
X168548Y144771D01*
X170486Y143968D01*
X172103Y142351D01*
X172197Y142278D01*
X172286Y142200D01*
X172322Y142181D01*
X172354Y142156D01*
X172463Y142109D01*
X172569Y142055D01*
X172608Y142046D01*
X172646Y142030D01*
X172763Y142011D01*
X172879Y141985D01*
X172920Y141987D01*
X172960Y141980D01*
X173078Y141991D01*
X173197Y141995D01*
X173236Y142006D01*
X173276Y142010D01*
X173388Y142050D01*
X173503Y142083D01*
X173538Y142104D01*
X173576Y142118D01*
X173674Y142185D01*
X173777Y142245D01*
X173822Y142285D01*
X173839Y142296D01*
X173852Y142312D01*
X173898Y142351D01*
X175514Y143968D01*
X177452Y144771D01*
X179548Y144771D01*
X181486Y143968D01*
X183103Y142351D01*
X183197Y142278D01*
X183286Y142200D01*
X183322Y142181D01*
X183354Y142156D01*
X183463Y142109D01*
X183569Y142055D01*
X183608Y142046D01*
X183646Y142030D01*
X183763Y142011D01*
X183879Y141985D01*
X183920Y141987D01*
X183960Y141980D01*
X184078Y141991D01*
X184197Y141995D01*
X184236Y142006D01*
X184276Y142010D01*
X184388Y142050D01*
X184503Y142083D01*
X184538Y142104D01*
X184576Y142118D01*
X184674Y142185D01*
X184777Y142245D01*
X184822Y142285D01*
X184839Y142296D01*
X184852Y142312D01*
X184898Y142351D01*
X186514Y143968D01*
X188452Y144771D01*
X190548Y144771D01*
X192486Y143968D01*
X194103Y142351D01*
X194197Y142278D01*
X194286Y142200D01*
X194322Y142181D01*
X194354Y142156D01*
X194463Y142109D01*
X194569Y142055D01*
X194608Y142046D01*
X194646Y142030D01*
X194763Y142011D01*
X194879Y141985D01*
X194920Y141987D01*
X194960Y141980D01*
X195078Y141991D01*
X195197Y141995D01*
X195236Y142006D01*
X195276Y142010D01*
X195388Y142050D01*
X195503Y142083D01*
X195538Y142104D01*
X195576Y142118D01*
X195674Y142185D01*
X195777Y142245D01*
X195822Y142285D01*
X195839Y142296D01*
X195852Y142312D01*
X195898Y142351D01*
X197514Y143968D01*
X199452Y144771D01*
X201548Y144771D01*
X203486Y143968D01*
X205103Y142351D01*
X205197Y142278D01*
X205286Y142200D01*
X205322Y142181D01*
X205354Y142156D01*
X205463Y142109D01*
X205569Y142055D01*
X205608Y142046D01*
X205646Y142030D01*
X205763Y142011D01*
X205879Y141985D01*
X205920Y141987D01*
X205960Y141980D01*
X206078Y141991D01*
X206197Y141995D01*
X206236Y142006D01*
X206276Y142010D01*
X206388Y142050D01*
X206503Y142083D01*
X206538Y142104D01*
X206576Y142118D01*
X206674Y142185D01*
X206777Y142245D01*
X206822Y142285D01*
X206839Y142296D01*
X206852Y142312D01*
X206898Y142351D01*
X208514Y143968D01*
X210452Y144771D01*
X212548Y144771D01*
X214486Y143968D01*
X215968Y142486D01*
X216502Y141197D01*
X216530Y141148D01*
X216550Y141095D01*
X216609Y141010D01*
X216660Y140921D01*
X216699Y140880D01*
X216731Y140834D01*
X216809Y140766D01*
X216881Y140692D01*
X216929Y140663D01*
X216972Y140626D01*
X217064Y140580D01*
X217152Y140526D01*
X217206Y140509D01*
X217257Y140484D01*
X217358Y140463D01*
X217456Y140432D01*
X217512Y140430D01*
X217568Y140418D01*
X217671Y140422D01*
X217774Y140417D01*
X217829Y140428D01*
X217885Y140431D01*
X217984Y140461D01*
X218085Y140481D01*
X218136Y140506D01*
X218190Y140522D01*
X218278Y140576D01*
X218371Y140621D01*
X218414Y140658D01*
X218462Y140687D01*
X218534Y140761D01*
X218613Y140827D01*
X218645Y140874D01*
X218685Y140914D01*
X218774Y141048D01*
X219299Y141957D01*
X220044Y142701D01*
X220501Y142965D01*
X220501Y138230D01*
X220516Y138112D01*
X220523Y137993D01*
X220535Y137955D01*
X220541Y137915D01*
X220584Y137804D01*
X220621Y137691D01*
X220643Y137657D01*
X220658Y137619D01*
X220727Y137523D01*
X220738Y137506D01*
X220724Y137482D01*
X220699Y137450D01*
X220648Y137343D01*
X220590Y137238D01*
X220580Y137199D01*
X220563Y137163D01*
X220541Y137046D01*
X220511Y136930D01*
X220507Y136870D01*
X220503Y136850D01*
X220505Y136830D01*
X220501Y136770D01*
X220501Y132035D01*
X220044Y132299D01*
X219299Y133043D01*
X218774Y133952D01*
X218740Y133997D01*
X218714Y134047D01*
X218644Y134123D01*
X218582Y134205D01*
X218538Y134240D01*
X218500Y134282D01*
X218413Y134339D01*
X218333Y134403D01*
X218281Y134426D01*
X218234Y134457D01*
X218136Y134490D01*
X218042Y134532D01*
X217986Y134542D01*
X217933Y134560D01*
X217830Y134568D01*
X217728Y134586D01*
X217672Y134581D01*
X217616Y134585D01*
X217515Y134568D01*
X217412Y134559D01*
X217358Y134541D01*
X217303Y134531D01*
X217209Y134489D01*
X217111Y134455D01*
X217064Y134424D01*
X217013Y134400D01*
X216932Y134336D01*
X216846Y134279D01*
X216808Y134237D01*
X216764Y134202D01*
X216702Y134119D01*
X216633Y134043D01*
X216607Y133993D01*
X216573Y133948D01*
X216502Y133803D01*
X215968Y132514D01*
X214486Y131032D01*
X212548Y130229D01*
X210452Y130229D01*
X208514Y131032D01*
X206898Y132649D01*
X206803Y132722D01*
X206714Y132800D01*
X206678Y132819D01*
X206646Y132844D01*
X206537Y132891D01*
X206431Y132945D01*
X206392Y132954D01*
X206354Y132970D01*
X206237Y132989D01*
X206121Y133015D01*
X206080Y133013D01*
X206040Y133020D01*
X205922Y133009D01*
X205803Y133005D01*
X205764Y132994D01*
X205724Y132990D01*
X205611Y132950D01*
X205497Y132917D01*
X205463Y132896D01*
X205424Y132882D01*
X205326Y132815D01*
X205223Y132755D01*
X205178Y132715D01*
X205161Y132704D01*
X205148Y132688D01*
X205103Y132649D01*
X203486Y131032D01*
X201548Y130229D01*
X199452Y130229D01*
X197514Y131032D01*
X195898Y132649D01*
X195803Y132722D01*
X195714Y132800D01*
X195678Y132819D01*
X195646Y132844D01*
X195537Y132891D01*
X195431Y132945D01*
X195392Y132954D01*
X195354Y132970D01*
X195237Y132989D01*
X195121Y133015D01*
X195080Y133013D01*
X195040Y133020D01*
X194922Y133009D01*
X194803Y133005D01*
X194764Y132994D01*
X194724Y132990D01*
X194611Y132950D01*
X194497Y132917D01*
X194463Y132896D01*
X194424Y132882D01*
X194326Y132815D01*
X194223Y132755D01*
X194178Y132715D01*
X194161Y132704D01*
X194148Y132688D01*
X194103Y132649D01*
X192486Y131032D01*
X190548Y130229D01*
X188452Y130229D01*
X186514Y131032D01*
X184898Y132649D01*
X184803Y132722D01*
X184714Y132800D01*
X184678Y132819D01*
X184646Y132844D01*
X184537Y132891D01*
X184431Y132945D01*
X184392Y132954D01*
X184354Y132970D01*
X184237Y132989D01*
X184121Y133015D01*
X184080Y133013D01*
X184040Y133020D01*
X183922Y133009D01*
X183803Y133005D01*
X183764Y132994D01*
X183724Y132990D01*
X183611Y132950D01*
X183497Y132917D01*
X183463Y132896D01*
X183424Y132882D01*
X183326Y132815D01*
X183223Y132755D01*
X183178Y132715D01*
X183161Y132704D01*
X183148Y132688D01*
X183103Y132649D01*
X181486Y131032D01*
X179548Y130229D01*
X177452Y130229D01*
X175514Y131032D01*
X173898Y132649D01*
X173803Y132722D01*
X173714Y132800D01*
X173678Y132819D01*
X173646Y132844D01*
X173537Y132891D01*
X173431Y132945D01*
X173392Y132954D01*
X173354Y132970D01*
X173237Y132989D01*
X173121Y133015D01*
X173080Y133013D01*
X173040Y133020D01*
X172922Y133009D01*
X172803Y133005D01*
X172764Y132994D01*
X172724Y132990D01*
X172611Y132950D01*
X172497Y132917D01*
X172463Y132896D01*
X172424Y132882D01*
X172326Y132815D01*
X172223Y132755D01*
X172178Y132715D01*
X172161Y132704D01*
X172148Y132688D01*
X172103Y132649D01*
X170486Y131032D01*
X168548Y130229D01*
X166452Y130229D01*
X164514Y131032D01*
X162898Y132649D01*
X162803Y132722D01*
X162714Y132800D01*
X162678Y132819D01*
X162646Y132844D01*
X162537Y132891D01*
X162431Y132945D01*
X162392Y132954D01*
X162354Y132970D01*
X162237Y132989D01*
X162121Y133015D01*
X162080Y133013D01*
X162040Y133020D01*
X161922Y133009D01*
X161803Y133005D01*
X161764Y132994D01*
X161724Y132990D01*
X161611Y132950D01*
X161497Y132917D01*
X161463Y132896D01*
X161424Y132882D01*
X161326Y132815D01*
X161223Y132755D01*
X161178Y132715D01*
X161161Y132704D01*
X161148Y132688D01*
X161103Y132649D01*
X159486Y131032D01*
X157548Y130229D01*
X155452Y130229D01*
X153514Y131032D01*
X152032Y132514D01*
X151229Y134452D01*
X151229Y139690D01*
X151214Y139808D01*
X151207Y139927D01*
X151194Y139965D01*
X151189Y140006D01*
X151146Y140116D01*
X151109Y140229D01*
X151087Y140264D01*
X151072Y140301D01*
X151003Y140397D01*
X150939Y140498D01*
X150909Y140526D01*
X150886Y140559D01*
X150794Y140635D01*
X150707Y140716D01*
X150672Y140736D01*
X150641Y140761D01*
X150533Y140812D01*
X150429Y140870D01*
X150389Y140880D01*
X150353Y140897D01*
X150236Y140919D01*
X150121Y140949D01*
X150061Y140953D01*
X150041Y140957D01*
X150020Y140955D01*
X149960Y140959D01*
X147533Y140959D01*
X145976Y142517D01*
X145897Y142578D01*
X145827Y142644D01*
X145810Y142653D01*
X145793Y142668D01*
X145757Y142687D01*
X145725Y142712D01*
X145628Y142753D01*
X145549Y142797D01*
X145532Y142802D01*
X145510Y142813D01*
X145470Y142822D01*
X145433Y142838D01*
X145324Y142855D01*
X145241Y142877D01*
X145219Y142878D01*
X145199Y142883D01*
X145165Y142882D01*
X145153Y142882D01*
X145119Y142888D01*
X145098Y142886D01*
X145080Y142887D01*
X145077Y142887D01*
X144993Y142876D01*
X144881Y142873D01*
X144842Y142862D01*
X144802Y142858D01*
X144778Y142849D01*
X144762Y142847D01*
X144679Y142814D01*
X144576Y142785D01*
X144541Y142764D01*
X144503Y142750D01*
X144483Y142737D01*
X144466Y142730D01*
X144390Y142675D01*
X144302Y142623D01*
X144257Y142583D01*
X144240Y142572D01*
X144226Y142557D01*
X144224Y142554D01*
X144209Y142543D01*
X144201Y142534D01*
X144181Y142517D01*
X144062Y142398D01*
X143989Y142303D01*
X143910Y142214D01*
X143892Y142178D01*
X143867Y142146D01*
X143820Y142037D01*
X143766Y141931D01*
X143757Y141892D01*
X143741Y141854D01*
X143722Y141737D01*
X143696Y141621D01*
X143697Y141580D01*
X143691Y141540D01*
X143702Y141422D01*
X143706Y141303D01*
X143717Y141264D01*
X143721Y141224D01*
X143761Y141111D01*
X143794Y140997D01*
X143815Y140963D01*
X143828Y140924D01*
X143895Y140826D01*
X143956Y140723D01*
X143995Y140678D01*
X144007Y140661D01*
X144022Y140648D01*
X144062Y140603D01*
X144138Y140526D01*
X144138Y134474D01*
X144062Y134397D01*
X143989Y134303D01*
X143910Y134214D01*
X143892Y134178D01*
X143867Y134146D01*
X143820Y134037D01*
X143766Y133931D01*
X143757Y133891D01*
X143741Y133854D01*
X143722Y133737D01*
X143696Y133621D01*
X143697Y133580D01*
X143691Y133540D01*
X143702Y133421D01*
X143706Y133303D01*
X143717Y133264D01*
X143721Y133224D01*
X143761Y133111D01*
X143794Y132997D01*
X143815Y132962D01*
X143828Y132924D01*
X143895Y132826D01*
X143956Y132723D01*
X143995Y132678D01*
X144007Y132661D01*
X144022Y132648D01*
X144062Y132602D01*
X144138Y132526D01*
X144138Y126474D01*
X144062Y126397D01*
X143989Y126303D01*
X143910Y126214D01*
X143892Y126178D01*
X143867Y126146D01*
X143820Y126037D01*
X143766Y125931D01*
X143757Y125891D01*
X143741Y125854D01*
X143722Y125737D01*
X143696Y125621D01*
X143697Y125580D01*
X143691Y125540D01*
X143702Y125421D01*
X143706Y125303D01*
X143717Y125264D01*
X143721Y125224D01*
X143761Y125111D01*
X143794Y124997D01*
X143815Y124962D01*
X143828Y124924D01*
X143895Y124826D01*
X143956Y124723D01*
X143995Y124678D01*
X144007Y124661D01*
X144022Y124648D01*
X144062Y124602D01*
X144138Y124526D01*
X144138Y118474D01*
X144062Y118397D01*
X143989Y118303D01*
X143910Y118214D01*
X143900Y118195D01*
X143890Y118183D01*
X143882Y118166D01*
X143867Y118146D01*
X143820Y118037D01*
X143766Y117931D01*
X143760Y117907D01*
X143755Y117895D01*
X143752Y117880D01*
X143741Y117854D01*
X143722Y117737D01*
X143696Y117621D01*
X143697Y117593D01*
X143695Y117582D01*
X143696Y117570D01*
X143691Y117540D01*
X143702Y117421D01*
X143706Y117303D01*
X143714Y117274D01*
X143714Y117265D01*
X143718Y117255D01*
X143721Y117224D01*
X143761Y117111D01*
X143794Y116997D01*
X143810Y116970D01*
X143813Y116963D01*
X143817Y116955D01*
X143828Y116924D01*
X143895Y116826D01*
X143956Y116723D01*
X143995Y116678D01*
X144007Y116661D01*
X144022Y116648D01*
X144062Y116602D01*
X144138Y116526D01*
X144138Y110474D01*
X144062Y110397D01*
X143989Y110303D01*
X143910Y110214D01*
X143892Y110178D01*
X143867Y110146D01*
X143820Y110037D01*
X143766Y109931D01*
X143757Y109891D01*
X143741Y109854D01*
X143722Y109737D01*
X143696Y109621D01*
X143697Y109580D01*
X143691Y109540D01*
X143702Y109421D01*
X143706Y109303D01*
X143717Y109264D01*
X143721Y109224D01*
X143761Y109111D01*
X143794Y108997D01*
X143815Y108962D01*
X143828Y108924D01*
X143895Y108826D01*
X143956Y108723D01*
X143995Y108678D01*
X144007Y108661D01*
X144022Y108648D01*
X144062Y108602D01*
X144138Y108526D01*
X144138Y102474D01*
X144062Y102397D01*
X143989Y102303D01*
X143910Y102214D01*
X143892Y102178D01*
X143867Y102146D01*
X143820Y102037D01*
X143766Y101931D01*
X143757Y101891D01*
X143741Y101854D01*
X143722Y101737D01*
X143696Y101621D01*
X143697Y101580D01*
X143691Y101540D01*
X143702Y101421D01*
X143706Y101303D01*
X143717Y101264D01*
X143721Y101224D01*
X143761Y101111D01*
X143794Y100997D01*
X143815Y100962D01*
X143828Y100924D01*
X143895Y100826D01*
X143956Y100723D01*
X143995Y100678D01*
X144007Y100661D01*
X144022Y100648D01*
X144062Y100602D01*
X144138Y100526D01*
X144138Y94474D01*
X144062Y94397D01*
X143989Y94303D01*
X143910Y94214D01*
X143892Y94178D01*
X143867Y94146D01*
X143820Y94037D01*
X143766Y93931D01*
X143757Y93891D01*
X143741Y93854D01*
X143722Y93737D01*
X143696Y93621D01*
X143697Y93580D01*
X143691Y93540D01*
X143702Y93421D01*
X143706Y93303D01*
X143717Y93264D01*
X143721Y93224D01*
X143761Y93111D01*
X143794Y92997D01*
X143815Y92962D01*
X143828Y92924D01*
X143895Y92826D01*
X143956Y92723D01*
X143995Y92678D01*
X144007Y92661D01*
X144022Y92648D01*
X144062Y92602D01*
X144138Y92526D01*
X144138Y86474D01*
X144062Y86397D01*
X143989Y86303D01*
X143910Y86214D01*
X143892Y86178D01*
X143867Y86146D01*
X143820Y86037D01*
X143766Y85931D01*
X143757Y85891D01*
X143741Y85854D01*
X143722Y85737D01*
X143696Y85621D01*
X143697Y85580D01*
X143691Y85540D01*
X143702Y85421D01*
X143706Y85303D01*
X143717Y85264D01*
X143721Y85224D01*
X143761Y85111D01*
X143794Y84997D01*
X143815Y84962D01*
X143828Y84924D01*
X143895Y84826D01*
X143956Y84723D01*
X143995Y84678D01*
X144007Y84661D01*
X144022Y84648D01*
X144062Y84602D01*
X144138Y84526D01*
X144138Y78474D01*
X143115Y77451D01*
X143097Y77427D01*
X143075Y77408D01*
X143000Y77302D01*
X142920Y77200D01*
X142909Y77172D01*
X142892Y77148D01*
X142846Y77027D01*
X142794Y76908D01*
X142789Y76878D01*
X142779Y76851D01*
X142765Y76722D01*
X142744Y76594D01*
X142747Y76564D01*
X142744Y76535D01*
X142762Y76406D01*
X142774Y76277D01*
X142784Y76249D01*
X142788Y76220D01*
X142840Y76068D01*
X142868Y76000D01*
X142868Y74769D01*
X138868Y74769D01*
X138867Y74769D01*
X134867Y74769D01*
X134867Y76000D01*
X134895Y76068D01*
X134902Y76096D01*
X134916Y76122D01*
X134944Y76249D01*
X134978Y76374D01*
X134979Y76404D01*
X134985Y76433D01*
X134981Y76562D01*
X134984Y76692D01*
X134977Y76721D01*
X134976Y76751D01*
X134940Y76875D01*
X134909Y77002D01*
X134896Y77028D01*
X134887Y77056D01*
X134821Y77168D01*
X134761Y77283D01*
X134741Y77305D01*
X134726Y77330D01*
X134619Y77451D01*
X133597Y78474D01*
X133597Y84526D01*
X133673Y84602D01*
X133746Y84697D01*
X133825Y84786D01*
X133843Y84822D01*
X133868Y84854D01*
X133915Y84963D01*
X133969Y85069D01*
X133978Y85109D01*
X133994Y85146D01*
X134013Y85263D01*
X134039Y85379D01*
X134038Y85420D01*
X134044Y85460D01*
X134033Y85578D01*
X134029Y85697D01*
X134018Y85736D01*
X134014Y85776D01*
X133974Y85889D01*
X133941Y86003D01*
X133920Y86037D01*
X133907Y86076D01*
X133840Y86174D01*
X133779Y86277D01*
X133739Y86322D01*
X133728Y86339D01*
X133713Y86352D01*
X133673Y86397D01*
X133597Y86474D01*
X133597Y92526D01*
X133673Y92602D01*
X133746Y92697D01*
X133825Y92786D01*
X133843Y92822D01*
X133868Y92854D01*
X133915Y92963D01*
X133969Y93069D01*
X133978Y93109D01*
X133994Y93146D01*
X134013Y93263D01*
X134039Y93379D01*
X134038Y93420D01*
X134044Y93460D01*
X134033Y93578D01*
X134029Y93697D01*
X134018Y93736D01*
X134014Y93776D01*
X133974Y93889D01*
X133941Y94003D01*
X133920Y94037D01*
X133907Y94076D01*
X133840Y94174D01*
X133779Y94277D01*
X133739Y94322D01*
X133728Y94339D01*
X133713Y94352D01*
X133673Y94397D01*
X133597Y94474D01*
X133597Y100526D01*
X133673Y100602D01*
X133746Y100697D01*
X133825Y100786D01*
X133843Y100822D01*
X133868Y100854D01*
X133915Y100963D01*
X133969Y101069D01*
X133978Y101109D01*
X133994Y101146D01*
X134013Y101263D01*
X134039Y101379D01*
X134038Y101420D01*
X134044Y101460D01*
X134033Y101578D01*
X134029Y101697D01*
X134018Y101736D01*
X134014Y101776D01*
X133974Y101889D01*
X133941Y102003D01*
X133920Y102037D01*
X133907Y102076D01*
X133840Y102174D01*
X133779Y102277D01*
X133739Y102322D01*
X133728Y102339D01*
X133713Y102352D01*
X133673Y102397D01*
X133597Y102474D01*
X133597Y108634D01*
X133613Y108672D01*
X133672Y108797D01*
X133676Y108817D01*
X133684Y108836D01*
X133706Y108973D01*
X133732Y109110D01*
X133731Y109130D01*
X133734Y109150D01*
X133721Y109288D01*
X133712Y109427D01*
X133706Y109446D01*
X133704Y109466D01*
X133657Y109598D01*
X133614Y109729D01*
X133603Y109746D01*
X133597Y109766D01*
X133518Y109881D01*
X133444Y109998D01*
X133429Y110012D01*
X133418Y110029D01*
X133314Y110121D01*
X133212Y110216D01*
X133195Y110226D01*
X133180Y110239D01*
X133056Y110302D01*
X132934Y110370D01*
X132914Y110375D01*
X132896Y110384D01*
X132760Y110414D01*
X132626Y110449D01*
X132598Y110451D01*
X132586Y110454D01*
X132566Y110453D01*
X132465Y110459D01*
X114637Y110459D01*
X114519Y110444D01*
X114400Y110437D01*
X114362Y110424D01*
X114322Y110419D01*
X114211Y110376D01*
X114098Y110339D01*
X114064Y110317D01*
X114026Y110302D01*
X113930Y110233D01*
X113829Y110169D01*
X113801Y110139D01*
X113769Y110116D01*
X113693Y110024D01*
X113611Y109937D01*
X113592Y109902D01*
X113566Y109871D01*
X113515Y109763D01*
X113458Y109659D01*
X113448Y109619D01*
X113430Y109583D01*
X113408Y109466D01*
X113378Y109351D01*
X113374Y109291D01*
X113371Y109271D01*
X113372Y109250D01*
X113368Y109190D01*
X113368Y104039D01*
X106637Y104039D01*
X106519Y104024D01*
X106401Y104017D01*
X106362Y104004D01*
X106322Y103999D01*
X106211Y103955D01*
X106098Y103919D01*
X106064Y103897D01*
X106026Y103882D01*
X105930Y103812D01*
X105829Y103749D01*
X105802Y103719D01*
X105769Y103695D01*
X105693Y103604D01*
X105611Y103517D01*
X105592Y103482D01*
X105566Y103450D01*
X105515Y103343D01*
X105458Y103239D01*
X105448Y103199D01*
X105431Y103163D01*
X105408Y103046D01*
X105378Y102931D01*
X105375Y102870D01*
X105371Y102850D01*
X105372Y102830D01*
X105368Y102770D01*
X105368Y101499D01*
X105366Y101499D01*
X105366Y102770D01*
X105352Y102888D01*
X105344Y103007D01*
X105332Y103045D01*
X105327Y103085D01*
X105283Y103196D01*
X105246Y103309D01*
X105224Y103344D01*
X105210Y103381D01*
X105140Y103477D01*
X105076Y103578D01*
X105047Y103606D01*
X105023Y103638D01*
X104931Y103714D01*
X104844Y103796D01*
X104809Y103815D01*
X104778Y103841D01*
X104670Y103892D01*
X104566Y103949D01*
X104527Y103960D01*
X104490Y103977D01*
X104373Y103999D01*
X104258Y104029D01*
X104198Y104033D01*
X104178Y104037D01*
X104157Y104035D01*
X104097Y104039D01*
X97367Y104039D01*
X97367Y109190D01*
X97352Y109308D01*
X97344Y109427D01*
X97332Y109465D01*
X97327Y109506D01*
X97283Y109616D01*
X97246Y109729D01*
X97225Y109764D01*
X97210Y109801D01*
X97140Y109897D01*
X97076Y109998D01*
X97047Y110026D01*
X97023Y110059D01*
X96931Y110135D01*
X96844Y110216D01*
X96809Y110236D01*
X96778Y110261D01*
X96670Y110312D01*
X96566Y110370D01*
X96527Y110380D01*
X96490Y110397D01*
X96373Y110419D01*
X96258Y110449D01*
X96198Y110453D01*
X96178Y110457D01*
X96158Y110455D01*
X96097Y110459D01*
X91637Y110459D01*
X91519Y110444D01*
X91400Y110437D01*
X91362Y110424D01*
X91322Y110419D01*
X91211Y110376D01*
X91098Y110339D01*
X91064Y110317D01*
X91026Y110302D01*
X90930Y110233D01*
X90829Y110169D01*
X90801Y110139D01*
X90769Y110116D01*
X90693Y110024D01*
X90611Y109937D01*
X90592Y109902D01*
X90566Y109871D01*
X90515Y109763D01*
X90458Y109659D01*
X90448Y109619D01*
X90430Y109583D01*
X90408Y109466D01*
X90378Y109351D01*
X90374Y109291D01*
X90371Y109271D01*
X90372Y109250D01*
X90368Y109190D01*
X90368Y104039D01*
X83637Y104039D01*
X83519Y104024D01*
X83401Y104017D01*
X83362Y104004D01*
X83322Y103999D01*
X83211Y103955D01*
X83098Y103919D01*
X83064Y103897D01*
X83026Y103882D01*
X82930Y103812D01*
X82829Y103749D01*
X82802Y103719D01*
X82769Y103695D01*
X82693Y103604D01*
X82611Y103517D01*
X82592Y103482D01*
X82566Y103450D01*
X82515Y103343D01*
X82458Y103239D01*
X82448Y103199D01*
X82431Y103163D01*
X82408Y103046D01*
X82378Y102931D01*
X82375Y102870D01*
X82371Y102850D01*
X82372Y102830D01*
X82368Y102770D01*
X82368Y101499D01*
X82366Y101499D01*
X82366Y102770D01*
X82352Y102888D01*
X82344Y103007D01*
X82332Y103045D01*
X82327Y103085D01*
X82283Y103196D01*
X82246Y103309D01*
X82224Y103344D01*
X82210Y103381D01*
X82140Y103477D01*
X82076Y103578D01*
X82047Y103606D01*
X82023Y103638D01*
X81931Y103714D01*
X81844Y103796D01*
X81809Y103815D01*
X81778Y103841D01*
X81670Y103892D01*
X81566Y103949D01*
X81527Y103960D01*
X81490Y103977D01*
X81373Y103999D01*
X81258Y104029D01*
X81198Y104033D01*
X81178Y104037D01*
X81157Y104035D01*
X81097Y104039D01*
X74367Y104039D01*
X74367Y109190D01*
X74352Y109308D01*
X74344Y109427D01*
X74332Y109465D01*
X74327Y109506D01*
X74283Y109616D01*
X74246Y109729D01*
X74225Y109764D01*
X74210Y109801D01*
X74140Y109897D01*
X74076Y109998D01*
X74047Y110026D01*
X74023Y110059D01*
X73931Y110135D01*
X73844Y110216D01*
X73809Y110236D01*
X73778Y110261D01*
X73670Y110312D01*
X73566Y110370D01*
X73527Y110380D01*
X73490Y110397D01*
X73373Y110419D01*
X73258Y110449D01*
X73198Y110453D01*
X73178Y110457D01*
X73158Y110455D01*
X73097Y110459D01*
X68637Y110459D01*
X68519Y110444D01*
X68400Y110437D01*
X68362Y110424D01*
X68322Y110419D01*
X68211Y110376D01*
X68098Y110339D01*
X68064Y110317D01*
X68026Y110302D01*
X67930Y110233D01*
X67829Y110169D01*
X67801Y110139D01*
X67769Y110116D01*
X67693Y110024D01*
X67611Y109937D01*
X67592Y109902D01*
X67566Y109871D01*
X67515Y109763D01*
X67458Y109659D01*
X67448Y109619D01*
X67430Y109583D01*
X67408Y109466D01*
X67378Y109351D01*
X67374Y109291D01*
X67371Y109271D01*
X67372Y109250D01*
X67368Y109190D01*
X67368Y104039D01*
X60637Y104039D01*
X60519Y104024D01*
X60401Y104017D01*
X60362Y104004D01*
X60322Y103999D01*
X60211Y103955D01*
X60098Y103919D01*
X60064Y103897D01*
X60026Y103882D01*
X59930Y103812D01*
X59829Y103749D01*
X59802Y103719D01*
X59769Y103695D01*
X59693Y103604D01*
X59611Y103517D01*
X59592Y103482D01*
X59566Y103450D01*
X59515Y103343D01*
X59458Y103239D01*
X59448Y103199D01*
X59431Y103163D01*
X59408Y103046D01*
X59378Y102931D01*
X59375Y102870D01*
X59371Y102850D01*
X59372Y102830D01*
X59368Y102770D01*
X59368Y101499D01*
X59366Y101499D01*
X59366Y102770D01*
X59352Y102888D01*
X59344Y103007D01*
X59332Y103045D01*
X59327Y103085D01*
X59283Y103196D01*
X59246Y103309D01*
X59224Y103344D01*
X59210Y103381D01*
X59140Y103477D01*
X59076Y103578D01*
X59047Y103606D01*
X59023Y103638D01*
X58931Y103714D01*
X58844Y103796D01*
X58809Y103815D01*
X58778Y103841D01*
X58670Y103892D01*
X58566Y103949D01*
X58527Y103960D01*
X58490Y103977D01*
X58373Y103999D01*
X58258Y104029D01*
X58198Y104033D01*
X58178Y104037D01*
X58157Y104035D01*
X58097Y104039D01*
X51367Y104039D01*
X51367Y109190D01*
X51352Y109308D01*
X51344Y109427D01*
X51332Y109465D01*
X51327Y109506D01*
X51283Y109616D01*
X51246Y109729D01*
X51225Y109764D01*
X51210Y109801D01*
X51140Y109897D01*
X51076Y109998D01*
X51047Y110026D01*
X51023Y110059D01*
X50931Y110135D01*
X50844Y110216D01*
X50809Y110236D01*
X50778Y110261D01*
X50670Y110312D01*
X50566Y110370D01*
X50527Y110380D01*
X50490Y110397D01*
X50373Y110419D01*
X50258Y110449D01*
X50198Y110453D01*
X50178Y110457D01*
X50158Y110455D01*
X50097Y110459D01*
X32269Y110459D01*
X32132Y110442D01*
X31993Y110429D01*
X31974Y110422D01*
X31954Y110419D01*
X31825Y110368D01*
X31694Y110321D01*
X31677Y110310D01*
X31658Y110302D01*
X31546Y110221D01*
X31431Y110143D01*
X31417Y110127D01*
X31401Y110116D01*
X31312Y110008D01*
X31220Y109904D01*
X31211Y109886D01*
X31198Y109871D01*
X31139Y109745D01*
X31075Y109621D01*
X31071Y109601D01*
X31062Y109583D01*
X31036Y109447D01*
X31006Y109311D01*
X31006Y109290D01*
X31003Y109271D01*
X31011Y109132D01*
X31016Y108993D01*
X31021Y108973D01*
X31022Y108953D01*
X31065Y108821D01*
X31104Y108687D01*
X31114Y108670D01*
X31120Y108651D01*
X31138Y108623D01*
X31138Y102474D01*
X30115Y101451D01*
X30097Y101427D01*
X30075Y101408D01*
X30000Y101302D01*
X29920Y101200D01*
X29909Y101172D01*
X29892Y101148D01*
X29846Y101027D01*
X29794Y100908D01*
X29789Y100878D01*
X29779Y100851D01*
X29765Y100722D01*
X29744Y100594D01*
X29747Y100564D01*
X29744Y100535D01*
X29762Y100406D01*
X29774Y100277D01*
X29784Y100249D01*
X29788Y100220D01*
X29840Y100068D01*
X29868Y100000D01*
X29868Y98769D01*
X25868Y98769D01*
X25867Y98769D01*
X21867Y98769D01*
X21867Y100000D01*
X21895Y100068D01*
X21902Y100096D01*
X21916Y100122D01*
X21944Y100249D01*
X21978Y100374D01*
X21979Y100404D01*
X21985Y100433D01*
X21981Y100562D01*
X21984Y100692D01*
X21977Y100721D01*
X21976Y100751D01*
X21940Y100875D01*
X21909Y101002D01*
X21896Y101028D01*
X21887Y101056D01*
X21821Y101168D01*
X21761Y101283D01*
X21741Y101305D01*
X21726Y101330D01*
X21619Y101451D01*
X20597Y102474D01*
X20597Y108526D01*
X20673Y108603D01*
X20746Y108697D01*
X20825Y108786D01*
X20843Y108822D01*
X20868Y108854D01*
X20915Y108963D01*
X20969Y109069D01*
X20978Y109109D01*
X20994Y109146D01*
X21013Y109263D01*
X21039Y109379D01*
X21038Y109420D01*
X21044Y109460D01*
X21033Y109579D01*
X21029Y109697D01*
X21018Y109736D01*
X21014Y109776D01*
X20974Y109889D01*
X20941Y110003D01*
X20920Y110038D01*
X20906Y110076D01*
X20840Y110174D01*
X20779Y110277D01*
X20739Y110322D01*
X20728Y110339D01*
X20713Y110352D01*
X20673Y110398D01*
X20597Y110474D01*
X20597Y116526D01*
X20673Y116603D01*
X20746Y116697D01*
X20825Y116786D01*
X20840Y116815D01*
X20845Y116821D01*
X20848Y116828D01*
X20868Y116854D01*
X20915Y116963D01*
X20969Y117069D01*
X20976Y117101D01*
X20980Y117109D01*
X20982Y117117D01*
X20994Y117146D01*
X21013Y117263D01*
X21039Y117379D01*
X21038Y117410D01*
X21040Y117421D01*
X21039Y117431D01*
X21044Y117460D01*
X21033Y117579D01*
X21029Y117697D01*
X21021Y117725D01*
X21020Y117739D01*
X21017Y117750D01*
X21014Y117776D01*
X20974Y117889D01*
X20941Y118003D01*
X20927Y118025D01*
X20922Y118041D01*
X20914Y118054D01*
X20906Y118076D01*
X20840Y118174D01*
X20779Y118277D01*
X20758Y118301D01*
X20752Y118310D01*
X20739Y118322D01*
X20728Y118339D01*
X20713Y118352D01*
X20673Y118398D01*
X20525Y118545D01*
X20513Y118576D01*
X20476Y118689D01*
X20455Y118724D01*
X20440Y118761D01*
X20370Y118857D01*
X20306Y118958D01*
X20277Y118986D01*
X20253Y119019D01*
X20161Y119095D01*
X20074Y119176D01*
X20039Y119196D01*
X20008Y119221D01*
X19900Y119272D01*
X19796Y119330D01*
X19757Y119340D01*
X19720Y119357D01*
X19603Y119379D01*
X19488Y119409D01*
X19428Y119413D01*
X19408Y119417D01*
X19388Y119415D01*
X19327Y119419D01*
X18616Y119419D01*
X18616Y119420D01*
X18557Y119435D01*
X18501Y119459D01*
X18403Y119474D01*
X18308Y119499D01*
X18208Y119505D01*
X18187Y119509D01*
X18175Y119507D01*
X18147Y119509D01*
X11601Y119509D01*
X11463Y119492D01*
X11324Y119479D01*
X11305Y119472D01*
X11285Y119469D01*
X11156Y119418D01*
X11025Y119371D01*
X11008Y119360D01*
X10990Y119352D01*
X10877Y119271D01*
X10762Y119192D01*
X10749Y119177D01*
X10732Y119166D01*
X10643Y119058D01*
X10552Y118954D01*
X10543Y118936D01*
X10530Y118921D01*
X10470Y118794D01*
X10407Y118671D01*
X10403Y118651D01*
X10394Y118633D01*
X10368Y118497D01*
X10337Y118360D01*
X10338Y118340D01*
X10334Y118321D01*
X10343Y118182D01*
X10347Y118043D01*
X10353Y118023D01*
X10354Y118003D01*
X10397Y117871D01*
X10436Y117737D01*
X10446Y117720D01*
X10452Y117701D01*
X10526Y117583D01*
X10597Y117463D01*
X10613Y117445D01*
X11811Y114554D01*
X11811Y111446D01*
X10622Y108576D01*
X8444Y106397D01*
X8370Y106303D01*
X8292Y106214D01*
X8273Y106178D01*
X8249Y106146D01*
X8201Y106037D01*
X8147Y105931D01*
X8138Y105892D01*
X8122Y105854D01*
X8104Y105737D01*
X8078Y105621D01*
X8079Y105580D01*
X8072Y105540D01*
X8084Y105422D01*
X8087Y105303D01*
X8098Y105264D01*
X8102Y105224D01*
X8143Y105112D01*
X8176Y104997D01*
X8196Y104962D01*
X8210Y104924D01*
X8277Y104826D01*
X8337Y104723D01*
X8377Y104678D01*
X8388Y104661D01*
X8404Y104648D01*
X8444Y104602D01*
X10622Y102424D01*
X11811Y99554D01*
X11811Y96446D01*
X10622Y93576D01*
X8424Y91378D01*
X7414Y90960D01*
X7401Y90953D01*
X7387Y90948D01*
X7263Y90874D01*
X7138Y90802D01*
X7127Y90792D01*
X7114Y90784D01*
X7013Y90681D01*
X6909Y90581D01*
X6902Y90569D01*
X6891Y90558D01*
X6818Y90432D01*
X6743Y90310D01*
X6739Y90296D01*
X6731Y90283D01*
X6692Y90143D01*
X6649Y90006D01*
X6649Y89991D01*
X6645Y89977D01*
X6641Y89833D01*
X6634Y89688D01*
X6637Y89674D01*
X6637Y89659D01*
X6669Y89519D01*
X6699Y89377D01*
X6705Y89364D01*
X6708Y89349D01*
X6775Y89221D01*
X6838Y89091D01*
X6848Y89080D01*
X6855Y89067D01*
X6951Y88959D01*
X7045Y88849D01*
X7057Y88841D01*
X7067Y88830D01*
X7195Y88732D01*
X8169Y88081D01*
X9081Y87169D01*
X9796Y86098D01*
X10252Y84999D01*
X7048Y84999D01*
X6930Y84984D01*
X6811Y84977D01*
X6773Y84964D01*
X6732Y84959D01*
X6622Y84916D01*
X6509Y84879D01*
X6474Y84857D01*
X6437Y84842D01*
X6341Y84773D01*
X6240Y84709D01*
X6212Y84679D01*
X6179Y84656D01*
X6103Y84564D01*
X6022Y84477D01*
X6002Y84442D01*
X5977Y84411D01*
X5926Y84303D01*
X5868Y84199D01*
X5858Y84159D01*
X5841Y84123D01*
X5819Y84006D01*
X5789Y83891D01*
X5785Y83831D01*
X5781Y83811D01*
X5783Y83790D01*
X5779Y83730D01*
X5779Y82270D01*
X5794Y82152D01*
X5801Y82033D01*
X5814Y81995D01*
X5819Y81954D01*
X5862Y81844D01*
X5899Y81731D01*
X5921Y81696D01*
X5936Y81659D01*
X6005Y81562D01*
X6069Y81462D01*
X6099Y81434D01*
X6122Y81401D01*
X6214Y81325D01*
X6301Y81244D01*
X6336Y81224D01*
X6367Y81199D01*
X6475Y81148D01*
X6579Y81090D01*
X6619Y81080D01*
X6655Y81063D01*
X6772Y81041D01*
X6887Y81011D01*
X6947Y81007D01*
X6967Y81003D01*
X6988Y81005D01*
X7048Y81001D01*
X10252Y81001D01*
X9796Y79902D01*
X9081Y78831D01*
X8169Y77919D01*
X7195Y77268D01*
X7183Y77258D01*
X7170Y77252D01*
X7063Y77154D01*
X6954Y77060D01*
X6946Y77048D01*
X6935Y77038D01*
X6856Y76917D01*
X6774Y76798D01*
X6768Y76784D01*
X6760Y76772D01*
X6714Y76636D01*
X6663Y76500D01*
X6662Y76485D01*
X6657Y76471D01*
X6646Y76328D01*
X6631Y76183D01*
X6633Y76169D01*
X6632Y76154D01*
X6657Y76012D01*
X6678Y75869D01*
X6684Y75855D01*
X6686Y75841D01*
X6745Y75709D01*
X6802Y75576D01*
X6811Y75564D01*
X6817Y75551D01*
X6907Y75438D01*
X6995Y75323D01*
X7006Y75314D01*
X7015Y75302D01*
X7131Y75215D01*
X7244Y75126D01*
X7258Y75120D01*
X7269Y75111D01*
X7414Y75040D01*
X8424Y74622D01*
X10622Y72424D01*
X10982Y71554D01*
X10997Y71529D01*
X11006Y71501D01*
X11075Y71391D01*
X11140Y71278D01*
X11160Y71257D01*
X11176Y71232D01*
X11271Y71143D01*
X11361Y71050D01*
X11386Y71034D01*
X11408Y71014D01*
X11521Y70951D01*
X11632Y70883D01*
X11660Y70875D01*
X11686Y70860D01*
X11812Y70828D01*
X11936Y70790D01*
X11965Y70788D01*
X11994Y70781D01*
X12155Y70771D01*
X16926Y70771D01*
X17671Y70026D01*
X17671Y66174D01*
X16772Y65275D01*
X16712Y65197D01*
X16644Y65125D01*
X16615Y65072D01*
X16578Y65024D01*
X16538Y64933D01*
X16490Y64847D01*
X16475Y64788D01*
X16451Y64732D01*
X16436Y64634D01*
X16411Y64539D01*
X16405Y64439D01*
X16401Y64418D01*
X16403Y64406D01*
X16401Y64378D01*
X16401Y64269D01*
X14250Y64269D01*
X14132Y64254D01*
X14013Y64247D01*
X13975Y64235D01*
X13935Y64230D01*
X13824Y64186D01*
X13711Y64149D01*
X13677Y64127D01*
X13639Y64113D01*
X13543Y64043D01*
X13442Y63979D01*
X13442Y63978D01*
X13414Y63949D01*
X13382Y63926D01*
X13382Y63925D01*
X13381Y63925D01*
X13305Y63833D01*
X13224Y63747D01*
X13204Y63711D01*
X13178Y63680D01*
X13128Y63573D01*
X13070Y63468D01*
X13060Y63429D01*
X13043Y63393D01*
X13021Y63276D01*
X12991Y63160D01*
X12987Y63100D01*
X12983Y63080D01*
X12984Y63060D01*
X12981Y63000D01*
X12981Y61599D01*
X12100Y61599D01*
X12099Y61600D01*
X12099Y61989D01*
X12082Y62127D01*
X12069Y62265D01*
X12062Y62284D01*
X12059Y62305D01*
X12008Y62434D01*
X11961Y62565D01*
X11950Y62582D01*
X11942Y62600D01*
X11861Y62713D01*
X11783Y62828D01*
X11767Y62841D01*
X11756Y62858D01*
X11648Y62946D01*
X11544Y63038D01*
X11526Y63047D01*
X11511Y63060D01*
X11385Y63120D01*
X11261Y63183D01*
X11241Y63187D01*
X11223Y63196D01*
X11086Y63222D01*
X10951Y63253D01*
X10930Y63252D01*
X10911Y63256D01*
X10772Y63247D01*
X10633Y63243D01*
X10613Y63237D01*
X10593Y63236D01*
X10461Y63193D01*
X10327Y63154D01*
X10310Y63144D01*
X10291Y63138D01*
X10173Y63063D01*
X10053Y62993D01*
X10032Y62974D01*
X10022Y62968D01*
X10008Y62953D01*
X9933Y62887D01*
X8444Y61397D01*
X8370Y61303D01*
X8292Y61214D01*
X8273Y61178D01*
X8249Y61146D01*
X8201Y61037D01*
X8147Y60931D01*
X8138Y60891D01*
X8122Y60854D01*
X8104Y60737D01*
X8078Y60621D01*
X8079Y60580D01*
X8072Y60540D01*
X8084Y60422D01*
X8087Y60303D01*
X8098Y60264D01*
X8102Y60224D01*
X8142Y60112D01*
X8176Y59997D01*
X8196Y59963D01*
X8210Y59924D01*
X8277Y59826D01*
X8337Y59723D01*
X8377Y59678D01*
X8388Y59661D01*
X8404Y59648D01*
X8444Y59602D01*
X10622Y57424D01*
X11044Y56404D01*
X11059Y56379D01*
X11068Y56351D01*
X11137Y56241D01*
X11202Y56128D01*
X11222Y56107D01*
X11238Y56082D01*
X11333Y55993D01*
X11423Y55900D01*
X11448Y55884D01*
X11470Y55864D01*
X11583Y55801D01*
X11694Y55733D01*
X11722Y55725D01*
X11748Y55710D01*
X11874Y55678D01*
X11998Y55640D01*
X12028Y55638D01*
X12056Y55631D01*
X12217Y55621D01*
X16826Y55621D01*
X17571Y54876D01*
X17571Y51324D01*
X16672Y50425D01*
X16612Y50347D01*
X16544Y50275D01*
X16515Y50222D01*
X16478Y50174D01*
X16438Y50083D01*
X16390Y49997D01*
X16375Y49938D01*
X16351Y49882D01*
X16336Y49784D01*
X16311Y49689D01*
X16305Y49589D01*
X16301Y49568D01*
X16303Y49556D01*
X16301Y49528D01*
X16301Y49369D01*
X14550Y49369D01*
X14432Y49354D01*
X14313Y49347D01*
X14275Y49335D01*
X14235Y49330D01*
X14124Y49286D01*
X14011Y49249D01*
X13977Y49227D01*
X13939Y49213D01*
X13843Y49143D01*
X13742Y49079D01*
X13742Y49078D01*
X13714Y49049D01*
X13682Y49026D01*
X13682Y49025D01*
X13681Y49025D01*
X13605Y48933D01*
X13524Y48847D01*
X13504Y48811D01*
X13478Y48780D01*
X13428Y48673D01*
X13370Y48568D01*
X13360Y48529D01*
X13343Y48493D01*
X13321Y48376D01*
X13291Y48260D01*
X13287Y48200D01*
X13283Y48180D01*
X13284Y48160D01*
X13281Y48100D01*
X13281Y46849D01*
X12800Y46849D01*
X12799Y46850D01*
X12799Y47689D01*
X12782Y47826D01*
X12769Y47965D01*
X12762Y47985D01*
X12759Y48005D01*
X12708Y48133D01*
X12661Y48265D01*
X12650Y48281D01*
X12642Y48300D01*
X12561Y48413D01*
X12483Y48528D01*
X12467Y48541D01*
X12456Y48558D01*
X12348Y48646D01*
X12244Y48738D01*
X12226Y48747D01*
X12211Y48760D01*
X12085Y48820D01*
X11961Y48883D01*
X11941Y48887D01*
X11923Y48896D01*
X11787Y48922D01*
X11651Y48953D01*
X11630Y48952D01*
X11611Y48956D01*
X11472Y48947D01*
X11333Y48943D01*
X11313Y48937D01*
X11293Y48936D01*
X11161Y48893D01*
X11027Y48854D01*
X11010Y48844D01*
X10991Y48838D01*
X10873Y48763D01*
X10753Y48693D01*
X10732Y48674D01*
X10722Y48668D01*
X10708Y48653D01*
X10633Y48587D01*
X8444Y46397D01*
X8370Y46303D01*
X8292Y46214D01*
X8273Y46178D01*
X8249Y46146D01*
X8201Y46037D01*
X8147Y45931D01*
X8138Y45891D01*
X8122Y45854D01*
X8104Y45737D01*
X8078Y45621D01*
X8079Y45580D01*
X8072Y45540D01*
X8084Y45422D01*
X8087Y45303D01*
X8098Y45264D01*
X8102Y45224D01*
X8143Y45111D01*
X8176Y44997D01*
X8196Y44962D01*
X8210Y44924D01*
X8277Y44826D01*
X8337Y44723D01*
X8377Y44678D01*
X8388Y44661D01*
X8404Y44648D01*
X8444Y44602D01*
X10622Y42424D01*
X11811Y39554D01*
X11811Y36446D01*
X10622Y33576D01*
X8424Y31378D01*
X8044Y31221D01*
X7983Y31186D01*
X7918Y31160D01*
X7845Y31108D01*
X7767Y31063D01*
X7717Y31014D01*
X7661Y30974D01*
X7603Y30904D01*
X7539Y30842D01*
X7502Y30782D01*
X7458Y30729D01*
X7420Y30647D01*
X7373Y30571D01*
X7352Y30504D01*
X7322Y30441D01*
X7305Y30353D01*
X7279Y30267D01*
X7276Y30197D01*
X7263Y30128D01*
X7268Y30039D01*
X7264Y29949D01*
X7278Y29881D01*
X7282Y29811D01*
X7310Y29726D01*
X7328Y29638D01*
X7359Y29575D01*
X7380Y29509D01*
X7428Y29433D01*
X7468Y29352D01*
X7513Y29299D01*
X7550Y29240D01*
X7616Y29178D01*
X7674Y29110D01*
X7731Y29070D01*
X7782Y29022D01*
X7861Y28979D01*
X7934Y28927D01*
X7999Y28902D01*
X8061Y28868D01*
X8148Y28846D01*
X8232Y28814D01*
X8301Y28806D01*
X8369Y28789D01*
X8529Y28779D01*
X10737Y28779D01*
X11779Y27737D01*
X11779Y3500D01*
X11779Y3498D01*
X11779Y3495D01*
X11790Y3334D01*
X11856Y2829D01*
X11858Y2820D01*
X11859Y2811D01*
X11899Y2666D01*
X11937Y2522D01*
X11941Y2513D01*
X11944Y2504D01*
X12015Y2360D01*
X12521Y1485D01*
X12576Y1412D01*
X12624Y1333D01*
X12672Y1285D01*
X12713Y1232D01*
X12785Y1174D01*
X12851Y1110D01*
X12949Y1045D01*
X12962Y1034D01*
X12970Y1031D01*
X12985Y1021D01*
X13860Y515D01*
X13869Y512D01*
X13876Y506D01*
X14015Y450D01*
X14153Y392D01*
X14162Y391D01*
X14171Y387D01*
X14329Y356D01*
X14834Y290D01*
X14837Y290D01*
X14839Y289D01*
X15000Y279D01*
X170500Y279D01*
X170502Y279D01*
G37*
%LPC*%
G36*
X37525Y144967D02*
X37525Y144967D01*
X36335Y146158D01*
X36335Y146960D01*
X36320Y147078D01*
X36312Y147197D01*
X36300Y147235D01*
X36295Y147276D01*
X36251Y147386D01*
X36214Y147499D01*
X36193Y147534D01*
X36178Y147571D01*
X36108Y147667D01*
X36044Y147768D01*
X36015Y147796D01*
X35991Y147829D01*
X35899Y147905D01*
X35812Y147986D01*
X35777Y148006D01*
X35746Y148031D01*
X35638Y148082D01*
X35534Y148140D01*
X35495Y148150D01*
X35458Y148167D01*
X35390Y148180D01*
X34597Y148974D01*
X34597Y158026D01*
X35341Y158771D01*
X41394Y158771D01*
X41470Y158695D01*
X41564Y158622D01*
X41653Y158543D01*
X41689Y158524D01*
X41721Y158500D01*
X41830Y158452D01*
X41936Y158398D01*
X41976Y158389D01*
X42013Y158373D01*
X42131Y158355D01*
X42247Y158329D01*
X42287Y158330D01*
X42327Y158323D01*
X42446Y158335D01*
X42565Y158338D01*
X42603Y158349D01*
X42644Y158353D01*
X42756Y158394D01*
X42870Y158427D01*
X42905Y158447D01*
X42943Y158461D01*
X43041Y158528D01*
X43144Y158588D01*
X43189Y158628D01*
X43206Y158639D01*
X43220Y158655D01*
X43265Y158695D01*
X43341Y158771D01*
X49394Y158771D01*
X49470Y158695D01*
X49564Y158622D01*
X49653Y158543D01*
X49689Y158524D01*
X49721Y158500D01*
X49830Y158452D01*
X49936Y158398D01*
X49976Y158389D01*
X50013Y158373D01*
X50131Y158355D01*
X50247Y158329D01*
X50287Y158330D01*
X50327Y158323D01*
X50446Y158335D01*
X50565Y158338D01*
X50603Y158349D01*
X50644Y158353D01*
X50756Y158394D01*
X50870Y158427D01*
X50905Y158447D01*
X50943Y158461D01*
X51041Y158528D01*
X51144Y158588D01*
X51189Y158628D01*
X51206Y158639D01*
X51220Y158655D01*
X51265Y158695D01*
X51341Y158771D01*
X57394Y158771D01*
X57470Y158695D01*
X57564Y158622D01*
X57653Y158543D01*
X57689Y158524D01*
X57721Y158500D01*
X57830Y158452D01*
X57936Y158398D01*
X57976Y158389D01*
X58013Y158373D01*
X58131Y158355D01*
X58247Y158329D01*
X58287Y158330D01*
X58327Y158323D01*
X58446Y158335D01*
X58565Y158338D01*
X58603Y158349D01*
X58644Y158353D01*
X58756Y158394D01*
X58870Y158427D01*
X58905Y158447D01*
X58943Y158461D01*
X59041Y158528D01*
X59144Y158588D01*
X59189Y158628D01*
X59206Y158639D01*
X59220Y158655D01*
X59265Y158695D01*
X59341Y158771D01*
X65394Y158771D01*
X66417Y157748D01*
X66440Y157730D01*
X66459Y157707D01*
X66565Y157633D01*
X66668Y157553D01*
X66695Y157541D01*
X66719Y157524D01*
X66840Y157478D01*
X66960Y157427D01*
X66989Y157422D01*
X67016Y157412D01*
X67145Y157397D01*
X67274Y157377D01*
X67303Y157380D01*
X67333Y157376D01*
X67461Y157394D01*
X67590Y157407D01*
X67618Y157417D01*
X67647Y157421D01*
X67800Y157473D01*
X67867Y157501D01*
X69098Y157501D01*
X69098Y153500D01*
X69098Y149499D01*
X67867Y149499D01*
X67800Y149527D01*
X67771Y149535D01*
X67745Y149548D01*
X67618Y149577D01*
X67493Y149611D01*
X67463Y149612D01*
X67435Y149618D01*
X67305Y149614D01*
X67175Y149616D01*
X67146Y149609D01*
X67117Y149608D01*
X66992Y149572D01*
X66866Y149542D01*
X66840Y149528D01*
X66811Y149520D01*
X66699Y149454D01*
X66585Y149393D01*
X66563Y149373D01*
X66537Y149358D01*
X66417Y149252D01*
X65354Y148189D01*
X65243Y148146D01*
X65130Y148109D01*
X65096Y148087D01*
X65058Y148072D01*
X64962Y148003D01*
X64861Y147939D01*
X64833Y147909D01*
X64801Y147886D01*
X64725Y147794D01*
X64643Y147707D01*
X64624Y147672D01*
X64598Y147641D01*
X64547Y147533D01*
X64490Y147429D01*
X64480Y147389D01*
X64462Y147353D01*
X64440Y147236D01*
X64410Y147121D01*
X64406Y147061D01*
X64403Y147041D01*
X64404Y147020D01*
X64400Y146960D01*
X64400Y146158D01*
X63209Y144967D01*
X37525Y144967D01*
G37*
%LPD*%
%LPC*%
G36*
X21341Y53729D02*
X21341Y53729D01*
X20597Y54474D01*
X20597Y60526D01*
X20673Y60603D01*
X20746Y60697D01*
X20825Y60786D01*
X20843Y60822D01*
X20868Y60854D01*
X20915Y60963D01*
X20969Y61069D01*
X20978Y61109D01*
X20994Y61146D01*
X21013Y61263D01*
X21039Y61379D01*
X21038Y61420D01*
X21044Y61460D01*
X21033Y61579D01*
X21029Y61697D01*
X21018Y61736D01*
X21014Y61776D01*
X20974Y61889D01*
X20941Y62003D01*
X20920Y62038D01*
X20906Y62076D01*
X20840Y62174D01*
X20779Y62277D01*
X20739Y62322D01*
X20728Y62339D01*
X20713Y62352D01*
X20673Y62398D01*
X20597Y62474D01*
X20597Y68526D01*
X20673Y68603D01*
X20746Y68697D01*
X20825Y68786D01*
X20843Y68822D01*
X20868Y68854D01*
X20915Y68963D01*
X20969Y69069D01*
X20978Y69109D01*
X20994Y69146D01*
X21013Y69263D01*
X21039Y69379D01*
X21038Y69420D01*
X21044Y69460D01*
X21033Y69579D01*
X21029Y69697D01*
X21018Y69736D01*
X21014Y69776D01*
X20974Y69889D01*
X20941Y70003D01*
X20920Y70038D01*
X20906Y70076D01*
X20840Y70174D01*
X20779Y70277D01*
X20739Y70322D01*
X20728Y70339D01*
X20713Y70352D01*
X20673Y70398D01*
X20597Y70474D01*
X20597Y76526D01*
X20673Y76603D01*
X20746Y76697D01*
X20825Y76786D01*
X20843Y76822D01*
X20868Y76854D01*
X20915Y76963D01*
X20969Y77069D01*
X20978Y77109D01*
X20994Y77146D01*
X21013Y77263D01*
X21039Y77379D01*
X21038Y77420D01*
X21044Y77460D01*
X21033Y77579D01*
X21029Y77697D01*
X21018Y77736D01*
X21014Y77776D01*
X20974Y77889D01*
X20941Y78003D01*
X20920Y78038D01*
X20906Y78076D01*
X20840Y78174D01*
X20779Y78277D01*
X20739Y78322D01*
X20728Y78339D01*
X20713Y78352D01*
X20673Y78398D01*
X20597Y78474D01*
X20597Y84526D01*
X20673Y84603D01*
X20746Y84697D01*
X20825Y84786D01*
X20843Y84822D01*
X20868Y84854D01*
X20915Y84963D01*
X20969Y85069D01*
X20978Y85109D01*
X20994Y85146D01*
X21013Y85263D01*
X21039Y85379D01*
X21038Y85420D01*
X21044Y85460D01*
X21033Y85579D01*
X21029Y85697D01*
X21018Y85736D01*
X21014Y85776D01*
X20974Y85889D01*
X20941Y86003D01*
X20920Y86038D01*
X20906Y86076D01*
X20840Y86174D01*
X20779Y86277D01*
X20739Y86322D01*
X20728Y86339D01*
X20713Y86352D01*
X20673Y86398D01*
X20597Y86474D01*
X20597Y92526D01*
X21619Y93549D01*
X21638Y93573D01*
X21660Y93592D01*
X21735Y93698D01*
X21814Y93800D01*
X21826Y93827D01*
X21843Y93852D01*
X21889Y93973D01*
X21941Y94092D01*
X21945Y94121D01*
X21956Y94149D01*
X21970Y94278D01*
X21991Y94406D01*
X21988Y94436D01*
X21991Y94465D01*
X21973Y94594D01*
X21961Y94723D01*
X21951Y94751D01*
X21947Y94780D01*
X21895Y94932D01*
X21867Y95000D01*
X21867Y96231D01*
X25867Y96231D01*
X25868Y96231D01*
X29868Y96231D01*
X29868Y95000D01*
X29840Y94932D01*
X29832Y94904D01*
X29819Y94878D01*
X29790Y94751D01*
X29756Y94626D01*
X29756Y94596D01*
X29749Y94567D01*
X29753Y94437D01*
X29751Y94308D01*
X29758Y94279D01*
X29759Y94249D01*
X29795Y94125D01*
X29825Y93998D01*
X29839Y93972D01*
X29847Y93944D01*
X29913Y93832D01*
X29974Y93717D01*
X29994Y93695D01*
X30009Y93670D01*
X30115Y93549D01*
X31138Y92526D01*
X31138Y86474D01*
X31062Y86398D01*
X30989Y86303D01*
X30910Y86214D01*
X30892Y86178D01*
X30867Y86146D01*
X30820Y86037D01*
X30766Y85931D01*
X30757Y85891D01*
X30741Y85854D01*
X30722Y85737D01*
X30696Y85621D01*
X30697Y85580D01*
X30691Y85540D01*
X30702Y85422D01*
X30706Y85303D01*
X30717Y85264D01*
X30721Y85224D01*
X30761Y85111D01*
X30794Y84997D01*
X30814Y84963D01*
X30828Y84924D01*
X30895Y84826D01*
X30956Y84723D01*
X30995Y84678D01*
X31007Y84661D01*
X31022Y84648D01*
X31062Y84603D01*
X31138Y84526D01*
X31138Y78474D01*
X31062Y78398D01*
X30989Y78303D01*
X30910Y78214D01*
X30892Y78178D01*
X30867Y78146D01*
X30820Y78037D01*
X30766Y77931D01*
X30757Y77891D01*
X30741Y77854D01*
X30722Y77737D01*
X30696Y77621D01*
X30697Y77580D01*
X30691Y77540D01*
X30702Y77422D01*
X30706Y77303D01*
X30717Y77264D01*
X30721Y77224D01*
X30761Y77111D01*
X30794Y76997D01*
X30814Y76963D01*
X30828Y76924D01*
X30895Y76826D01*
X30956Y76723D01*
X30995Y76678D01*
X31007Y76661D01*
X31022Y76648D01*
X31062Y76603D01*
X31138Y76526D01*
X31138Y70474D01*
X31062Y70398D01*
X30989Y70303D01*
X30910Y70214D01*
X30892Y70178D01*
X30867Y70146D01*
X30820Y70037D01*
X30766Y69931D01*
X30757Y69891D01*
X30741Y69854D01*
X30722Y69737D01*
X30696Y69621D01*
X30697Y69580D01*
X30691Y69540D01*
X30702Y69422D01*
X30706Y69303D01*
X30717Y69264D01*
X30721Y69224D01*
X30761Y69111D01*
X30794Y68997D01*
X30814Y68963D01*
X30828Y68924D01*
X30895Y68826D01*
X30956Y68723D01*
X30995Y68678D01*
X31007Y68661D01*
X31022Y68648D01*
X31062Y68603D01*
X31138Y68526D01*
X31138Y62474D01*
X31062Y62398D01*
X30989Y62303D01*
X30910Y62214D01*
X30892Y62178D01*
X30867Y62146D01*
X30820Y62037D01*
X30766Y61931D01*
X30757Y61891D01*
X30741Y61854D01*
X30722Y61737D01*
X30696Y61621D01*
X30697Y61580D01*
X30691Y61540D01*
X30702Y61422D01*
X30706Y61303D01*
X30717Y61264D01*
X30721Y61224D01*
X30761Y61111D01*
X30794Y60997D01*
X30814Y60963D01*
X30828Y60924D01*
X30895Y60826D01*
X30956Y60723D01*
X30995Y60678D01*
X31007Y60661D01*
X31022Y60648D01*
X31062Y60603D01*
X31138Y60526D01*
X31138Y54474D01*
X30394Y53729D01*
X21341Y53729D01*
G37*
%LPD*%
%LPC*%
G36*
X25867Y130769D02*
X25867Y130769D01*
X21867Y130769D01*
X21867Y132096D01*
X21873Y132120D01*
X21874Y132150D01*
X21880Y132179D01*
X21876Y132308D01*
X21878Y132438D01*
X21871Y132467D01*
X21871Y132497D01*
X21834Y132621D01*
X21804Y132747D01*
X21790Y132774D01*
X21782Y132802D01*
X21716Y132914D01*
X21656Y133029D01*
X21636Y133050D01*
X21621Y133076D01*
X21514Y133197D01*
X20343Y134368D01*
X20343Y140640D01*
X20387Y140697D01*
X20465Y140786D01*
X20484Y140822D01*
X20508Y140854D01*
X20556Y140963D01*
X20610Y141069D01*
X20619Y141109D01*
X20635Y141146D01*
X20654Y141263D01*
X20680Y141379D01*
X20678Y141420D01*
X20685Y141460D01*
X20673Y141579D01*
X20670Y141697D01*
X20659Y141736D01*
X20655Y141776D01*
X20615Y141888D01*
X20581Y142003D01*
X20561Y142038D01*
X20547Y142076D01*
X20480Y142174D01*
X20420Y142277D01*
X20380Y142322D01*
X20369Y142339D01*
X20353Y142352D01*
X20343Y142365D01*
X20343Y148632D01*
X21236Y149525D01*
X30499Y149525D01*
X31392Y148632D01*
X31392Y142360D01*
X31348Y142303D01*
X31269Y142214D01*
X31251Y142178D01*
X31226Y142146D01*
X31179Y142037D01*
X31125Y141931D01*
X31116Y141892D01*
X31100Y141854D01*
X31081Y141737D01*
X31055Y141621D01*
X31056Y141580D01*
X31050Y141540D01*
X31061Y141422D01*
X31065Y141303D01*
X31076Y141264D01*
X31080Y141224D01*
X31120Y141112D01*
X31153Y140997D01*
X31174Y140963D01*
X31187Y140924D01*
X31254Y140826D01*
X31315Y140723D01*
X31355Y140678D01*
X31366Y140661D01*
X31381Y140648D01*
X31392Y140636D01*
X31392Y134368D01*
X30220Y133197D01*
X30202Y133173D01*
X30180Y133154D01*
X30105Y133048D01*
X30026Y132946D01*
X30014Y132918D01*
X29997Y132894D01*
X29951Y132773D01*
X29899Y132654D01*
X29895Y132625D01*
X29884Y132597D01*
X29870Y132468D01*
X29849Y132340D01*
X29852Y132310D01*
X29849Y132281D01*
X29867Y132152D01*
X29868Y132141D01*
X29868Y130769D01*
X25868Y130769D01*
X25867Y130769D01*
X25867Y130769D01*
G37*
%LPD*%
G36*
X81588Y23916D02*
X81588Y23916D01*
X81707Y23923D01*
X81745Y23936D01*
X81785Y23941D01*
X81896Y23985D01*
X82009Y24021D01*
X82044Y24043D01*
X82081Y24058D01*
X82177Y24128D01*
X82278Y24191D01*
X82306Y24221D01*
X82338Y24245D01*
X82414Y24336D01*
X82496Y24423D01*
X82515Y24458D01*
X82541Y24490D01*
X82592Y24597D01*
X82649Y24701D01*
X82660Y24741D01*
X82677Y24777D01*
X82699Y24894D01*
X82729Y25009D01*
X82733Y25070D01*
X82737Y25090D01*
X82735Y25110D01*
X82739Y25170D01*
X82739Y32665D01*
X82727Y32763D01*
X82724Y32862D01*
X82707Y32921D01*
X82699Y32981D01*
X82663Y33073D01*
X82635Y33168D01*
X82605Y33220D01*
X82582Y33276D01*
X82524Y33357D01*
X82474Y33442D01*
X82407Y33517D01*
X82395Y33534D01*
X82386Y33542D01*
X82367Y33563D01*
X82147Y33783D01*
X82123Y33801D01*
X82104Y33824D01*
X81998Y33899D01*
X81896Y33978D01*
X81869Y33990D01*
X81844Y34007D01*
X81723Y34053D01*
X81604Y34105D01*
X81575Y34109D01*
X81547Y34120D01*
X81469Y34128D01*
X81469Y37400D01*
X81469Y40667D01*
X81571Y40696D01*
X81698Y40727D01*
X81724Y40741D01*
X81752Y40749D01*
X81864Y40815D01*
X81979Y40875D01*
X82001Y40895D01*
X82026Y40910D01*
X82147Y41017D01*
X83453Y42323D01*
X83526Y42417D01*
X83605Y42506D01*
X83623Y42542D01*
X83648Y42574D01*
X83695Y42683D01*
X83749Y42789D01*
X83758Y42829D01*
X83774Y42866D01*
X83793Y42984D01*
X83819Y43100D01*
X83817Y43140D01*
X83824Y43180D01*
X83813Y43299D01*
X83809Y43417D01*
X83798Y43456D01*
X83794Y43496D01*
X83754Y43608D01*
X83721Y43723D01*
X83700Y43758D01*
X83686Y43796D01*
X83619Y43894D01*
X83559Y43997D01*
X83519Y44042D01*
X83508Y44059D01*
X83492Y44072D01*
X83453Y44118D01*
X83265Y44305D01*
X83171Y44378D01*
X83081Y44457D01*
X83045Y44476D01*
X83013Y44500D01*
X82904Y44548D01*
X82798Y44602D01*
X82759Y44611D01*
X82722Y44627D01*
X82604Y44645D01*
X82488Y44671D01*
X82448Y44670D01*
X82407Y44677D01*
X82289Y44665D01*
X82170Y44662D01*
X82131Y44651D01*
X82091Y44647D01*
X81979Y44606D01*
X81865Y44573D01*
X81830Y44553D01*
X81792Y44539D01*
X81693Y44472D01*
X81591Y44412D01*
X81545Y44372D01*
X81528Y44360D01*
X81515Y44345D01*
X81470Y44305D01*
X81394Y44229D01*
X75341Y44229D01*
X75265Y44305D01*
X75171Y44378D01*
X75081Y44457D01*
X75045Y44476D01*
X75014Y44500D01*
X74904Y44548D01*
X74798Y44602D01*
X74759Y44611D01*
X74722Y44627D01*
X74604Y44645D01*
X74488Y44671D01*
X74448Y44670D01*
X74408Y44677D01*
X74289Y44665D01*
X74170Y44662D01*
X74131Y44651D01*
X74091Y44647D01*
X73979Y44606D01*
X73865Y44573D01*
X73830Y44553D01*
X73792Y44539D01*
X73693Y44472D01*
X73591Y44412D01*
X73545Y44372D01*
X73529Y44361D01*
X73515Y44345D01*
X73470Y44305D01*
X73394Y44229D01*
X67341Y44229D01*
X67265Y44305D01*
X67171Y44378D01*
X67081Y44457D01*
X67045Y44476D01*
X67014Y44500D01*
X66904Y44548D01*
X66798Y44602D01*
X66759Y44611D01*
X66722Y44627D01*
X66604Y44645D01*
X66488Y44671D01*
X66448Y44670D01*
X66408Y44677D01*
X66289Y44665D01*
X66170Y44662D01*
X66131Y44651D01*
X66091Y44647D01*
X65979Y44606D01*
X65865Y44573D01*
X65830Y44553D01*
X65792Y44539D01*
X65693Y44472D01*
X65591Y44412D01*
X65545Y44372D01*
X65529Y44361D01*
X65515Y44345D01*
X65470Y44305D01*
X65394Y44229D01*
X63232Y44229D01*
X63094Y44212D01*
X62956Y44199D01*
X62937Y44192D01*
X62917Y44189D01*
X62787Y44138D01*
X62656Y44091D01*
X62640Y44080D01*
X62621Y44072D01*
X62508Y43991D01*
X62393Y43913D01*
X62380Y43897D01*
X62363Y43886D01*
X62275Y43778D01*
X62183Y43674D01*
X62174Y43656D01*
X62161Y43641D01*
X62102Y43515D01*
X62038Y43391D01*
X62034Y43371D01*
X62025Y43353D01*
X61999Y43217D01*
X61969Y43081D01*
X61969Y43060D01*
X61965Y43041D01*
X61974Y42902D01*
X61978Y42763D01*
X61984Y42743D01*
X61985Y42723D01*
X62028Y42591D01*
X62067Y42457D01*
X62077Y42440D01*
X62083Y42421D01*
X62157Y42303D01*
X62228Y42183D01*
X62247Y42162D01*
X62253Y42152D01*
X62268Y42138D01*
X62335Y42063D01*
X63047Y41350D01*
X63142Y41277D01*
X63231Y41198D01*
X63267Y41180D01*
X63299Y41155D01*
X63408Y41107D01*
X63514Y41053D01*
X63553Y41045D01*
X63590Y41028D01*
X63708Y41010D01*
X63824Y40984D01*
X63865Y40985D01*
X63905Y40979D01*
X64023Y40990D01*
X64142Y40993D01*
X64181Y41005D01*
X64221Y41008D01*
X64333Y41049D01*
X64448Y41082D01*
X64482Y41102D01*
X64520Y41116D01*
X64619Y41183D01*
X64722Y41243D01*
X64767Y41283D01*
X64784Y41295D01*
X64797Y41310D01*
X64842Y41350D01*
X65033Y41541D01*
X67967Y41541D01*
X69379Y40129D01*
X69418Y40098D01*
X69451Y40061D01*
X69543Y40001D01*
X69630Y39934D01*
X69676Y39914D01*
X69717Y39887D01*
X69821Y39851D01*
X69922Y39807D01*
X69971Y39799D01*
X70018Y39783D01*
X70127Y39775D01*
X70236Y39757D01*
X70286Y39762D01*
X70335Y39758D01*
X70443Y39777D01*
X70553Y39787D01*
X70599Y39804D01*
X70648Y39813D01*
X70748Y39858D01*
X70852Y39895D01*
X70893Y39923D01*
X70931Y39940D01*
X70931Y37400D01*
X70946Y37282D01*
X70953Y37163D01*
X70965Y37125D01*
X70970Y37085D01*
X71014Y36974D01*
X71051Y36861D01*
X71073Y36827D01*
X71087Y36789D01*
X71157Y36693D01*
X71221Y36592D01*
X71222Y36592D01*
X71251Y36564D01*
X71274Y36532D01*
X71275Y36531D01*
X71367Y36455D01*
X71453Y36374D01*
X71489Y36354D01*
X71520Y36328D01*
X71627Y36278D01*
X71732Y36220D01*
X71771Y36210D01*
X71807Y36193D01*
X71924Y36171D01*
X72040Y36141D01*
X72100Y36137D01*
X72120Y36133D01*
X72140Y36134D01*
X72200Y36131D01*
X76200Y36131D01*
X78931Y36131D01*
X78931Y34266D01*
X78832Y34257D01*
X78693Y34248D01*
X78674Y34242D01*
X78654Y34240D01*
X78523Y34193D01*
X78391Y34150D01*
X78374Y34139D01*
X78355Y34133D01*
X78240Y34054D01*
X78122Y33980D01*
X78108Y33965D01*
X78092Y33954D01*
X77999Y33850D01*
X77904Y33748D01*
X77894Y33731D01*
X77881Y33716D01*
X77818Y33592D01*
X77750Y33470D01*
X77745Y33450D01*
X77736Y33433D01*
X77706Y33296D01*
X77671Y33162D01*
X77669Y33134D01*
X77667Y33122D01*
X77667Y33102D01*
X77661Y33001D01*
X77661Y25170D01*
X77676Y25052D01*
X77683Y24933D01*
X77696Y24895D01*
X77701Y24855D01*
X77744Y24744D01*
X77781Y24631D01*
X77803Y24596D01*
X77818Y24559D01*
X77888Y24463D01*
X77951Y24362D01*
X77981Y24334D01*
X78005Y24302D01*
X78096Y24226D01*
X78183Y24144D01*
X78218Y24125D01*
X78249Y24099D01*
X78357Y24048D01*
X78461Y23991D01*
X78501Y23980D01*
X78537Y23963D01*
X78654Y23941D01*
X78769Y23911D01*
X78830Y23907D01*
X78850Y23903D01*
X78870Y23905D01*
X78930Y23901D01*
X81470Y23901D01*
X81588Y23916D01*
G37*
G36*
X112574Y25987D02*
X112574Y25987D01*
X112649Y26000D01*
X112659Y26007D01*
X112669Y26009D01*
X112698Y26033D01*
X112769Y26081D01*
X117269Y30581D01*
X117309Y30646D01*
X117353Y30708D01*
X117355Y30720D01*
X117360Y30728D01*
X117364Y30765D01*
X117380Y30850D01*
X117380Y37850D01*
X117369Y37900D01*
X117367Y37951D01*
X117349Y37983D01*
X117341Y38019D01*
X117308Y38058D01*
X117284Y38103D01*
X117254Y38124D01*
X117231Y38152D01*
X117184Y38173D01*
X117142Y38203D01*
X117100Y38211D01*
X117072Y38223D01*
X117042Y38222D01*
X117000Y38230D01*
X109500Y38230D01*
X109426Y38213D01*
X109351Y38200D01*
X109341Y38193D01*
X109331Y38191D01*
X109302Y38167D01*
X109231Y38119D01*
X105231Y34119D01*
X105191Y34054D01*
X105147Y33992D01*
X105145Y33980D01*
X105140Y33972D01*
X105136Y33935D01*
X105120Y33850D01*
X105120Y26350D01*
X105131Y26300D01*
X105133Y26249D01*
X105151Y26217D01*
X105159Y26181D01*
X105192Y26142D01*
X105216Y26097D01*
X105246Y26076D01*
X105269Y26048D01*
X105316Y26027D01*
X105358Y25997D01*
X105400Y25989D01*
X105428Y25977D01*
X105458Y25978D01*
X105500Y25970D01*
X112500Y25970D01*
X112574Y25987D01*
G37*
G36*
X134574Y4987D02*
X134574Y4987D01*
X134649Y5000D01*
X134659Y5007D01*
X134669Y5009D01*
X134698Y5033D01*
X134769Y5081D01*
X138769Y9081D01*
X138809Y9146D01*
X138853Y9208D01*
X138855Y9220D01*
X138860Y9228D01*
X138864Y9265D01*
X138880Y9350D01*
X138880Y16850D01*
X138869Y16900D01*
X138867Y16951D01*
X138849Y16983D01*
X138841Y17019D01*
X138808Y17058D01*
X138784Y17103D01*
X138754Y17124D01*
X138731Y17152D01*
X138684Y17173D01*
X138642Y17203D01*
X138600Y17211D01*
X138572Y17223D01*
X138542Y17222D01*
X138500Y17230D01*
X131500Y17230D01*
X131426Y17213D01*
X131351Y17200D01*
X131341Y17193D01*
X131331Y17191D01*
X131302Y17167D01*
X131231Y17119D01*
X126731Y12619D01*
X126691Y12554D01*
X126647Y12492D01*
X126645Y12480D01*
X126640Y12472D01*
X126636Y12435D01*
X126620Y12350D01*
X126620Y5350D01*
X126631Y5300D01*
X126633Y5249D01*
X126651Y5217D01*
X126659Y5181D01*
X126692Y5142D01*
X126716Y5097D01*
X126746Y5076D01*
X126769Y5048D01*
X126816Y5027D01*
X126858Y4997D01*
X126900Y4989D01*
X126928Y4977D01*
X126958Y4978D01*
X127000Y4970D01*
X134500Y4970D01*
X134574Y4987D01*
G37*
G36*
X117050Y4981D02*
X117050Y4981D01*
X117101Y4983D01*
X117133Y5001D01*
X117169Y5009D01*
X117208Y5042D01*
X117253Y5066D01*
X117274Y5096D01*
X117302Y5119D01*
X117323Y5166D01*
X117353Y5208D01*
X117361Y5250D01*
X117373Y5278D01*
X117372Y5308D01*
X117380Y5350D01*
X117380Y12350D01*
X117363Y12424D01*
X117350Y12499D01*
X117343Y12509D01*
X117341Y12519D01*
X117317Y12548D01*
X117269Y12619D01*
X112769Y17119D01*
X112704Y17159D01*
X112642Y17203D01*
X112630Y17205D01*
X112622Y17210D01*
X112585Y17214D01*
X112500Y17230D01*
X105500Y17230D01*
X105450Y17219D01*
X105399Y17217D01*
X105367Y17199D01*
X105331Y17191D01*
X105292Y17158D01*
X105247Y17134D01*
X105226Y17104D01*
X105198Y17081D01*
X105177Y17034D01*
X105147Y16992D01*
X105139Y16950D01*
X105127Y16922D01*
X105128Y16892D01*
X105120Y16850D01*
X105120Y9350D01*
X105137Y9276D01*
X105150Y9201D01*
X105157Y9191D01*
X105159Y9181D01*
X105183Y9152D01*
X105231Y9081D01*
X109231Y5081D01*
X109296Y5041D01*
X109358Y4997D01*
X109370Y4995D01*
X109378Y4990D01*
X109415Y4986D01*
X109500Y4970D01*
X117000Y4970D01*
X117050Y4981D01*
G37*
G36*
X138550Y25981D02*
X138550Y25981D01*
X138601Y25983D01*
X138633Y26001D01*
X138669Y26009D01*
X138708Y26042D01*
X138753Y26066D01*
X138774Y26096D01*
X138802Y26119D01*
X138823Y26166D01*
X138853Y26208D01*
X138861Y26250D01*
X138873Y26278D01*
X138872Y26308D01*
X138880Y26350D01*
X138880Y33850D01*
X138863Y33924D01*
X138850Y33999D01*
X138843Y34009D01*
X138841Y34019D01*
X138817Y34048D01*
X138769Y34119D01*
X134769Y38119D01*
X134704Y38159D01*
X134642Y38203D01*
X134630Y38205D01*
X134622Y38210D01*
X134585Y38214D01*
X134500Y38230D01*
X127000Y38230D01*
X126950Y38219D01*
X126899Y38217D01*
X126867Y38199D01*
X126831Y38191D01*
X126792Y38158D01*
X126747Y38134D01*
X126726Y38104D01*
X126698Y38081D01*
X126677Y38034D01*
X126647Y37992D01*
X126639Y37950D01*
X126627Y37922D01*
X126628Y37892D01*
X126620Y37850D01*
X126620Y30850D01*
X126637Y30776D01*
X126650Y30701D01*
X126657Y30691D01*
X126659Y30681D01*
X126683Y30652D01*
X126731Y30581D01*
X131231Y26081D01*
X131296Y26041D01*
X131358Y25997D01*
X131370Y25995D01*
X131378Y25990D01*
X131415Y25986D01*
X131500Y25970D01*
X138500Y25970D01*
X138550Y25981D01*
G37*
%LPC*%
G36*
X84907Y81039D02*
X84907Y81039D01*
X84907Y86501D01*
X90367Y86501D01*
X90368Y86501D01*
X90368Y86500D01*
X90368Y81039D01*
X84907Y81039D01*
G37*
%LPD*%
%LPC*%
G36*
X61907Y81039D02*
X61907Y81039D01*
X61907Y86501D01*
X67367Y86501D01*
X67368Y86501D01*
X67368Y86500D01*
X67368Y81039D01*
X61907Y81039D01*
G37*
%LPD*%
%LPC*%
G36*
X107907Y127039D02*
X107907Y127039D01*
X107907Y132501D01*
X113367Y132501D01*
X113368Y132501D01*
X113368Y132500D01*
X113368Y127039D01*
X107907Y127039D01*
G37*
%LPD*%
%LPC*%
G36*
X61907Y127039D02*
X61907Y127039D01*
X61907Y132501D01*
X67367Y132501D01*
X67368Y132501D01*
X67368Y132500D01*
X67368Y127039D01*
X61907Y127039D01*
G37*
%LPD*%
%LPC*%
G36*
X107907Y81039D02*
X107907Y81039D01*
X107907Y86501D01*
X113367Y86501D01*
X113368Y86501D01*
X113368Y86500D01*
X113368Y81039D01*
X107907Y81039D01*
G37*
%LPD*%
%LPC*%
G36*
X84907Y127039D02*
X84907Y127039D01*
X84907Y132501D01*
X90367Y132501D01*
X90368Y132501D01*
X90368Y132500D01*
X90368Y127039D01*
X84907Y127039D01*
G37*
%LPD*%
%LPC*%
G36*
X107907Y93499D02*
X107907Y93499D01*
X107907Y98961D01*
X113368Y98961D01*
X113368Y93500D01*
X113368Y93499D01*
X113367Y93499D01*
X107907Y93499D01*
G37*
%LPD*%
%LPC*%
G36*
X84907Y93499D02*
X84907Y93499D01*
X84907Y98961D01*
X90368Y98961D01*
X90368Y93500D01*
X90368Y93499D01*
X90367Y93499D01*
X84907Y93499D01*
G37*
%LPD*%
%LPC*%
G36*
X61907Y93499D02*
X61907Y93499D01*
X61907Y98961D01*
X67368Y98961D01*
X67368Y93500D01*
X67368Y93499D01*
X67367Y93499D01*
X61907Y93499D01*
G37*
%LPD*%
%LPC*%
G36*
X74367Y127039D02*
X74367Y127039D01*
X74367Y132500D01*
X74367Y132501D01*
X79828Y132501D01*
X79828Y127039D01*
X74367Y127039D01*
G37*
%LPD*%
%LPC*%
G36*
X74367Y81039D02*
X74367Y81039D01*
X74367Y86500D01*
X74367Y86501D01*
X79828Y86501D01*
X79828Y81039D01*
X74367Y81039D01*
G37*
%LPD*%
%LPC*%
G36*
X51367Y81039D02*
X51367Y81039D01*
X51367Y86500D01*
X51367Y86501D01*
X56828Y86501D01*
X56828Y81039D01*
X51367Y81039D01*
G37*
%LPD*%
%LPC*%
G36*
X97367Y81039D02*
X97367Y81039D01*
X97367Y86500D01*
X97367Y86501D01*
X102828Y86501D01*
X102828Y81039D01*
X97367Y81039D01*
G37*
%LPD*%
%LPC*%
G36*
X97367Y127039D02*
X97367Y127039D01*
X97367Y132500D01*
X97367Y132501D01*
X102828Y132501D01*
X102828Y127039D01*
X97367Y127039D01*
G37*
%LPD*%
%LPC*%
G36*
X51367Y127039D02*
X51367Y127039D01*
X51367Y132500D01*
X51367Y132501D01*
X56828Y132501D01*
X56828Y127039D01*
X51367Y127039D01*
G37*
%LPD*%
%LPC*%
G36*
X61907Y70499D02*
X61907Y70499D01*
X61907Y75961D01*
X67368Y75961D01*
X67368Y70500D01*
X67368Y70499D01*
X67367Y70499D01*
X61907Y70499D01*
G37*
%LPD*%
%LPC*%
G36*
X84907Y70499D02*
X84907Y70499D01*
X84907Y75961D01*
X90368Y75961D01*
X90368Y70500D01*
X90368Y70499D01*
X90367Y70499D01*
X84907Y70499D01*
G37*
%LPD*%
%LPC*%
G36*
X107907Y70499D02*
X107907Y70499D01*
X107907Y75961D01*
X113368Y75961D01*
X113368Y70500D01*
X113368Y70499D01*
X113367Y70499D01*
X107907Y70499D01*
G37*
%LPD*%
%LPC*%
G36*
X51367Y70499D02*
X51367Y70499D01*
X51367Y70500D01*
X51367Y75961D01*
X56828Y75961D01*
X56828Y70499D01*
X51367Y70499D01*
G37*
%LPD*%
%LPC*%
G36*
X51367Y93499D02*
X51367Y93499D01*
X51367Y93500D01*
X51367Y98961D01*
X56828Y98961D01*
X56828Y93499D01*
X51367Y93499D01*
G37*
%LPD*%
%LPC*%
G36*
X74367Y70499D02*
X74367Y70499D01*
X74367Y70500D01*
X74367Y75961D01*
X79828Y75961D01*
X79828Y70499D01*
X74367Y70499D01*
G37*
%LPD*%
%LPC*%
G36*
X97367Y70499D02*
X97367Y70499D01*
X97367Y70500D01*
X97367Y75961D01*
X102828Y75961D01*
X102828Y70499D01*
X97367Y70499D01*
G37*
%LPD*%
%LPC*%
G36*
X97367Y93499D02*
X97367Y93499D01*
X97367Y93500D01*
X97367Y98961D01*
X102828Y98961D01*
X102828Y93499D01*
X97367Y93499D01*
G37*
%LPD*%
%LPC*%
G36*
X74367Y93499D02*
X74367Y93499D01*
X74367Y93500D01*
X74367Y98961D01*
X79828Y98961D01*
X79828Y93499D01*
X74367Y93499D01*
G37*
%LPD*%
%LPC*%
G36*
X43019Y26865D02*
X43019Y26865D01*
X43019Y29627D01*
X48280Y29627D01*
X48281Y29626D01*
X48281Y26865D01*
X43019Y26865D01*
G37*
%LPD*%
%LPC*%
G36*
X43019Y19025D02*
X43019Y19025D01*
X43019Y21787D01*
X48281Y21787D01*
X48281Y19026D01*
X48280Y19025D01*
X43019Y19025D01*
G37*
%LPD*%
%LPC*%
G36*
X163769Y9269D02*
X163769Y9269D01*
X163769Y12928D01*
X163982Y12885D01*
X164907Y12502D01*
X165739Y11946D01*
X166446Y11239D01*
X167002Y10407D01*
X167385Y9482D01*
X167428Y9269D01*
X163769Y9269D01*
G37*
%LPD*%
%LPC*%
G36*
X157572Y9269D02*
X157572Y9269D01*
X157615Y9482D01*
X157998Y10407D01*
X158554Y11239D01*
X159261Y11946D01*
X160093Y12502D01*
X161018Y12885D01*
X161231Y12928D01*
X161231Y9269D01*
X157572Y9269D01*
G37*
%LPD*%
%LPC*%
G36*
X163769Y6731D02*
X163769Y6731D01*
X167428Y6731D01*
X167385Y6518D01*
X167002Y5593D01*
X166446Y4761D01*
X165739Y4054D01*
X164907Y3498D01*
X163982Y3115D01*
X163769Y3072D01*
X163769Y6731D01*
G37*
%LPD*%
%LPC*%
G36*
X161018Y3115D02*
X161018Y3115D01*
X160093Y3498D01*
X159261Y4054D01*
X158554Y4761D01*
X157998Y5593D01*
X157615Y6518D01*
X157572Y6731D01*
X161231Y6731D01*
X161231Y3072D01*
X161018Y3115D01*
G37*
%LPD*%
G36*
X185505Y28399D02*
X185505Y28399D01*
X185505Y28400D01*
X185505Y31000D01*
X185501Y31005D01*
X185500Y31005D01*
X181600Y31005D01*
X181595Y31001D01*
X181595Y31000D01*
X181595Y29900D01*
X181597Y29898D01*
X181596Y29896D01*
X183096Y28396D01*
X183099Y28396D01*
X183100Y28395D01*
X185500Y28395D01*
X185505Y28399D01*
G37*
G36*
X175902Y28397D02*
X175902Y28397D01*
X175904Y28396D01*
X177404Y29896D01*
X177404Y29899D01*
X177405Y29900D01*
X177405Y31000D01*
X177401Y31005D01*
X177400Y31005D01*
X173500Y31005D01*
X173495Y31001D01*
X173495Y31000D01*
X173495Y28400D01*
X173499Y28395D01*
X173500Y28395D01*
X175900Y28395D01*
X175902Y28397D01*
G37*
G36*
X185505Y20999D02*
X185505Y20999D01*
X185505Y21000D01*
X185505Y23600D01*
X185501Y23605D01*
X185500Y23605D01*
X183100Y23605D01*
X183098Y23603D01*
X183096Y23604D01*
X181596Y22104D01*
X181596Y22101D01*
X181595Y22100D01*
X181595Y21000D01*
X181599Y20995D01*
X181600Y20995D01*
X185500Y20995D01*
X185505Y20999D01*
G37*
%LPC*%
G36*
X150499Y11099D02*
X150499Y11099D01*
X150499Y14101D01*
X153000Y14101D01*
X153001Y14100D01*
X153001Y11099D01*
X150499Y11099D01*
G37*
%LPD*%
%LPC*%
G36*
X142999Y11099D02*
X142999Y11099D01*
X142999Y14100D01*
X143000Y14101D01*
X145501Y14101D01*
X145501Y11099D01*
X142999Y11099D01*
G37*
%LPD*%
%LPC*%
G36*
X150499Y3099D02*
X150499Y3099D01*
X150499Y6101D01*
X153001Y6101D01*
X153001Y3100D01*
X153000Y3099D01*
X150499Y3099D01*
G37*
%LPD*%
%LPC*%
G36*
X143000Y3099D02*
X143000Y3099D01*
X142999Y3100D01*
X142999Y6101D01*
X145501Y6101D01*
X145501Y3099D01*
X143000Y3099D01*
G37*
%LPD*%
%LPC*%
G36*
X246499Y139499D02*
X246499Y139499D01*
X246499Y142965D01*
X246956Y142701D01*
X247701Y141956D01*
X248228Y141044D01*
X248501Y140027D01*
X248501Y139499D01*
X246499Y139499D01*
G37*
%LPD*%
%LPC*%
G36*
X246499Y135501D02*
X246499Y135501D01*
X248501Y135501D01*
X248501Y134973D01*
X248228Y133956D01*
X247701Y133044D01*
X246956Y132299D01*
X246499Y132035D01*
X246499Y135501D01*
G37*
%LPD*%
%LPC*%
G36*
X152499Y42499D02*
X152499Y42499D01*
X152499Y43027D01*
X152772Y44044D01*
X153299Y44956D01*
X154044Y45701D01*
X154501Y45965D01*
X154501Y42499D01*
X152499Y42499D01*
G37*
%LPD*%
%LPC*%
G36*
X160999Y20769D02*
X160999Y20769D01*
X160999Y22000D01*
X161000Y22001D01*
X164231Y22001D01*
X164231Y20769D01*
X160999Y20769D01*
G37*
%LPD*%
%LPC*%
G36*
X166769Y20769D02*
X166769Y20769D01*
X166769Y22001D01*
X170000Y22001D01*
X170001Y22000D01*
X170001Y20769D01*
X166769Y20769D01*
G37*
%LPD*%
%LPC*%
G36*
X166769Y16999D02*
X166769Y16999D01*
X166769Y18231D01*
X170001Y18231D01*
X170001Y17000D01*
X170000Y16999D01*
X166769Y16999D01*
G37*
%LPD*%
%LPC*%
G36*
X161000Y16999D02*
X161000Y16999D01*
X160999Y17000D01*
X160999Y18231D01*
X164231Y18231D01*
X164231Y16999D01*
X161000Y16999D01*
G37*
%LPD*%
%LPC*%
G36*
X73469Y38669D02*
X73469Y38669D01*
X73469Y39813D01*
X73525Y39779D01*
X73641Y39702D01*
X73660Y39696D01*
X73677Y39685D01*
X73810Y39644D01*
X73942Y39599D01*
X73962Y39598D01*
X73981Y39592D01*
X74120Y39585D01*
X74259Y39574D01*
X74279Y39578D01*
X74299Y39577D01*
X74435Y39605D01*
X74572Y39629D01*
X74591Y39637D01*
X74610Y39641D01*
X74735Y39702D01*
X74862Y39759D01*
X74878Y39772D01*
X74896Y39781D01*
X74931Y39810D01*
X74931Y38669D01*
X73469Y38669D01*
G37*
%LPD*%
%LPC*%
G36*
X77469Y38669D02*
X77469Y38669D01*
X77469Y39813D01*
X77525Y39779D01*
X77641Y39702D01*
X77660Y39696D01*
X77677Y39685D01*
X77810Y39644D01*
X77942Y39599D01*
X77962Y39598D01*
X77981Y39592D01*
X78120Y39585D01*
X78259Y39574D01*
X78279Y39578D01*
X78299Y39577D01*
X78435Y39605D01*
X78572Y39629D01*
X78591Y39637D01*
X78610Y39641D01*
X78735Y39702D01*
X78862Y39759D01*
X78878Y39772D01*
X78896Y39781D01*
X78931Y39810D01*
X78931Y38669D01*
X77469Y38669D01*
G37*
%LPD*%
%LPC*%
G36*
X15519Y61599D02*
X15519Y61599D01*
X15519Y61731D01*
X16401Y61731D01*
X16401Y61600D01*
X16400Y61599D01*
X15519Y61599D01*
G37*
%LPD*%
%LPC*%
G36*
X205650Y19499D02*
X205650Y19499D01*
X205649Y19500D01*
X205649Y19631D01*
X206531Y19631D01*
X206531Y19499D01*
X205650Y19499D01*
G37*
%LPD*%
%LPC*%
G36*
X59366Y78499D02*
X59366Y78499D01*
X59366Y78501D01*
X59368Y78501D01*
X59368Y78499D01*
X59366Y78499D01*
G37*
%LPD*%
%LPC*%
G36*
X105366Y78499D02*
X105366Y78499D01*
X105366Y78501D01*
X105368Y78501D01*
X105368Y78499D01*
X105366Y78499D01*
G37*
%LPD*%
%LPC*%
G36*
X40479Y24325D02*
X40479Y24325D01*
X40479Y24327D01*
X40481Y24327D01*
X40481Y24325D01*
X40479Y24325D01*
G37*
%LPD*%
%LPC*%
G36*
X82366Y78499D02*
X82366Y78499D01*
X82366Y78501D01*
X82368Y78501D01*
X82368Y78499D01*
X82366Y78499D01*
G37*
%LPD*%
D10*
X14974Y127050D03*
X14974Y122050D03*
D11*
X25867Y145500D03*
X25867Y137500D03*
X25867Y129500D03*
X25867Y121500D03*
X25867Y113500D03*
X25867Y105500D03*
X25867Y97500D03*
X25867Y89500D03*
X25867Y81500D03*
X25867Y73500D03*
X25867Y65500D03*
X25867Y57500D03*
D12*
X38367Y49500D03*
X46367Y49500D03*
X54367Y49500D03*
X62367Y49500D03*
X70367Y49500D03*
X78367Y49500D03*
X86367Y49500D03*
X94367Y49500D03*
X102367Y49500D03*
X110367Y49500D03*
X118367Y49500D03*
X126367Y49500D03*
D11*
X138867Y57500D03*
X138867Y65500D03*
X138867Y73500D03*
X138867Y81500D03*
X138867Y89500D03*
X138867Y97500D03*
X138867Y105500D03*
X138867Y113500D03*
X138867Y121500D03*
X138867Y129500D03*
X138867Y137500D03*
X138867Y145500D03*
D12*
X126367Y153500D03*
X118367Y153500D03*
X110367Y153500D03*
X102367Y153500D03*
X94367Y153500D03*
X86367Y153500D03*
X78367Y153500D03*
X70367Y153500D03*
X62367Y153500D03*
X54367Y153500D03*
X46367Y153500D03*
X38367Y153500D03*
D13*
X59367Y124500D03*
X82367Y124500D03*
X105367Y124500D03*
X59367Y101500D03*
X82367Y101500D03*
X105367Y101500D03*
X59367Y78500D03*
X82367Y78500D03*
X105367Y78500D03*
D14*
X47980Y37626D03*
X42980Y37626D03*
X37980Y37626D03*
X32980Y37626D03*
X32980Y11026D03*
X37980Y11026D03*
X42980Y11026D03*
X47980Y11026D03*
D15*
X40480Y24326D03*
D16*
X162500Y155500D03*
X162500Y8000D03*
D17*
X23050Y10000D03*
X17950Y10000D03*
X23050Y17000D03*
X17950Y17000D03*
D10*
X14550Y53100D03*
X14550Y48100D03*
D18*
X14250Y63000D03*
X14250Y68100D03*
D10*
X201250Y25950D03*
X201250Y20950D03*
D18*
X207800Y20900D03*
X207800Y26000D03*
X214450Y26000D03*
X214450Y20900D03*
D19*
X69300Y31900D02*
X64100Y31900D01*
X64100Y27900D02*
X69300Y27900D01*
X69300Y23900D02*
X64100Y23900D01*
X64100Y19900D02*
X69300Y19900D01*
X69300Y15900D02*
X64100Y15900D01*
X72200Y13000D02*
X72200Y7800D01*
X76200Y7800D02*
X76200Y13000D01*
X80200Y13000D02*
X80200Y7800D01*
X84200Y7800D02*
X84200Y13000D01*
X88200Y13000D02*
X88200Y7800D01*
X91100Y15900D02*
X96300Y15900D01*
X96300Y19900D02*
X91100Y19900D01*
X91100Y23900D02*
X96300Y23900D01*
X96300Y27900D02*
X91100Y27900D01*
X91100Y31900D02*
X96300Y31900D01*
X88200Y34800D02*
X88200Y40000D01*
X84200Y40000D02*
X84200Y34800D01*
X80200Y34800D02*
X80200Y40000D01*
X76200Y40000D02*
X76200Y34800D01*
X72200Y34800D02*
X72200Y40000D01*
D20*
X73800Y17500D02*
X86600Y17500D01*
X73800Y17500D02*
X73800Y30300D01*
X86600Y30300D01*
X86600Y17500D01*
X86600Y20540D02*
X73800Y20540D01*
X73800Y23580D02*
X86600Y23580D01*
X86600Y26620D02*
X73800Y26620D01*
X73800Y29660D02*
X86600Y29660D01*
D21*
X122000Y8850D03*
X122000Y34350D03*
D17*
X55450Y38500D03*
X60550Y38500D03*
X55450Y30500D03*
X60550Y30500D03*
X143350Y35900D03*
X148450Y35900D03*
D18*
X60500Y6450D03*
X60500Y11550D03*
D17*
X60550Y16400D03*
X55450Y16400D03*
D22*
X60500Y24600D03*
X55500Y24600D03*
D23*
X148000Y25600D03*
X148000Y8600D03*
D24*
X296600Y51400D02*
X296600Y62600D01*
X296600Y51400D02*
X259400Y51400D01*
X259400Y62600D01*
X296600Y62600D01*
X296600Y54060D02*
X259400Y54060D01*
X259400Y56720D02*
X296600Y56720D01*
X296600Y59380D02*
X259400Y59380D01*
X259400Y62040D02*
X296600Y62040D01*
D25*
X268000Y57000D03*
X288000Y57000D03*
D22*
X23000Y23100D03*
X18000Y23100D03*
D26*
X232000Y28000D03*
X236000Y28000D03*
X236000Y24000D03*
X232000Y24000D03*
D10*
X248500Y29000D03*
X248500Y24000D03*
D27*
X25500Y32000D03*
D28*
X156500Y38500D02*
X156500Y42500D01*
X167500Y42500D02*
X167500Y38500D01*
X178500Y38500D02*
X178500Y42500D01*
X189500Y42500D02*
X189500Y38500D01*
X200500Y38500D02*
X200500Y42500D01*
X211500Y42500D02*
X211500Y38500D01*
X222500Y38500D02*
X222500Y42500D01*
X233500Y42500D02*
X233500Y38500D01*
X244500Y38500D02*
X244500Y42500D01*
X244500Y135500D02*
X244500Y139500D01*
X233500Y139500D02*
X233500Y135500D01*
X222500Y135500D02*
X222500Y139500D01*
X211500Y139500D02*
X211500Y135500D01*
X200500Y135500D02*
X200500Y139500D01*
X189500Y139500D02*
X189500Y135500D01*
X178500Y135500D02*
X178500Y139500D01*
X167500Y139500D02*
X167500Y135500D01*
X156500Y135500D02*
X156500Y139500D01*
D24*
X259400Y112600D02*
X259400Y101400D01*
X259400Y112600D02*
X296600Y112600D01*
X296600Y101400D01*
X259400Y101400D01*
X259400Y104060D02*
X296600Y104060D01*
X296600Y106720D02*
X259400Y106720D01*
X259400Y109380D02*
X296600Y109380D01*
X296600Y112040D02*
X259400Y112040D01*
D25*
X288000Y107000D03*
X268000Y107000D03*
D29*
X193500Y30500D03*
X193500Y19500D03*
X165500Y30500D03*
X165500Y19500D03*
D30*
X174700Y29700D03*
X174700Y22300D03*
X184300Y22300D03*
X184300Y29700D03*
D31*
G36*
X179500Y22324D02*
X175824Y26000D01*
X179500Y29676D01*
X183176Y26000D01*
X179500Y22324D01*
G37*
D26*
X220500Y24000D03*
X220500Y28000D03*
X224500Y28000D03*
X224500Y24000D03*
D32*
X4000Y38000D03*
X4000Y53000D03*
X4000Y68000D03*
X4000Y83000D03*
X4000Y98000D03*
X4000Y113000D03*
X4000Y128000D03*
D33*
X236500Y83000D03*
D34*
X55500Y24600D02*
X55450Y24650D01*
X55450Y30500D01*
X66700Y19900D02*
X66700Y15900D01*
X66700Y19900D02*
X66800Y20000D01*
X76500Y20000D01*
X80200Y23700D01*
X80200Y23900D01*
X80200Y36500D01*
X80200Y37400D01*
X82367Y78500D02*
X59367Y78500D01*
X82367Y78500D02*
X105367Y78500D01*
X105367Y76633D01*
X108500Y73500D02*
X138867Y73500D01*
X108500Y73500D02*
X105367Y76633D01*
X26335Y97968D02*
X25867Y97500D01*
X26335Y97968D02*
X56209Y97968D01*
X57741Y99500D01*
X57741Y99874D01*
X59367Y101500D01*
D35*
X60550Y19500D02*
X60550Y16400D01*
X66300Y19500D02*
X66700Y19900D01*
X66300Y19500D02*
X60550Y19500D01*
X132000Y57500D02*
X138867Y57500D01*
X132000Y57500D02*
X128000Y61500D01*
X128000Y67785D01*
X133715Y73500D01*
X138867Y73500D01*
D34*
X76200Y37400D02*
X72200Y37400D01*
X76200Y37400D02*
X79300Y37400D01*
X80200Y36500D01*
X70367Y147451D02*
X70367Y153500D01*
X70367Y147451D02*
X62198Y139282D01*
X62198Y127331D02*
X59367Y124500D01*
X62198Y127331D02*
X62198Y139282D01*
D33*
X156500Y123000D03*
X176500Y123000D03*
X196500Y123000D03*
X216500Y123000D03*
X216500Y103000D03*
X196500Y103000D03*
X176500Y103000D03*
X156500Y103000D03*
X156500Y83000D03*
X176500Y83000D03*
X196500Y83000D03*
X216500Y83000D03*
X256500Y83000D03*
X276500Y83000D03*
X126500Y83000D03*
X126500Y103000D03*
X126500Y63000D03*
X156500Y75000D03*
X176500Y75000D03*
X196500Y73000D03*
X216500Y68000D03*
X239000Y67000D03*
X196500Y54500D03*
X176500Y57000D03*
X156500Y57000D03*
X216500Y49500D03*
X256500Y70000D03*
X276500Y70000D03*
X276500Y44000D03*
X256500Y44000D03*
X276500Y94000D03*
X256500Y94000D03*
X228000Y67000D03*
X206500Y71000D03*
X186500Y75000D03*
X166500Y75000D03*
X186500Y56000D03*
X206500Y51500D03*
X166500Y57000D03*
X147500Y75000D03*
X147500Y57000D03*
X266500Y70000D03*
X266500Y44000D03*
X286500Y44000D03*
X286500Y70000D03*
X286500Y94000D03*
X266500Y94000D03*
X266500Y120000D03*
X276500Y120000D03*
X286500Y120000D03*
X296500Y94000D03*
X296500Y70000D03*
X296500Y120000D03*
X296500Y44000D03*
X236500Y103000D03*
X225500Y120000D03*
X229500Y111000D03*
X246500Y98000D03*
X256500Y120000D03*
X246500Y120000D03*
X242500Y128000D03*
X223500Y128000D03*
X102500Y143000D03*
X41000Y138000D03*
X15000Y160500D03*
X144000Y158000D03*
X195000Y145000D03*
X217000Y145000D03*
X251000Y144500D03*
X251000Y18500D03*
X40500Y83000D03*
X97500Y3000D03*
D34*
X55500Y23226D02*
X55500Y24600D01*
X40754Y24600D01*
X40480Y24326D01*
X72200Y15700D02*
X72200Y10400D01*
X72200Y15700D02*
X76500Y20000D01*
D36*
X172364Y19964D02*
X174700Y22300D01*
X172364Y19964D02*
X165500Y19500D01*
D34*
X175800Y22300D02*
X179500Y26000D01*
X175800Y22300D02*
X174700Y22300D01*
X32980Y31826D02*
X32980Y37626D01*
X32980Y31826D02*
X40403Y24403D01*
X40480Y24326D01*
X40403Y24403D02*
X46500Y30500D01*
X55450Y30500D01*
X201300Y20900D02*
X207800Y20900D01*
X201300Y20900D02*
X201250Y20950D01*
X194950Y20950D02*
X193500Y19500D01*
X194950Y20950D02*
X201250Y20950D01*
D33*
X228000Y48500D03*
X239000Y48500D03*
D35*
X60550Y18176D02*
X60550Y16400D01*
X60550Y18176D02*
X55500Y23226D01*
D34*
X224500Y24000D02*
X232000Y24000D01*
D33*
X15000Y138000D03*
X15000Y3500D03*
X228500Y18500D03*
D34*
X138367Y145000D02*
X138867Y145500D01*
X138367Y145000D02*
X133500Y145000D01*
X129000Y140500D01*
X128000Y140500D01*
D33*
X128000Y140500D03*
X28000Y10000D03*
D34*
X31954Y10000D02*
X32980Y11026D01*
X31954Y10000D02*
X28000Y10000D01*
X23050Y10000D01*
X134867Y137500D02*
X138867Y137500D01*
X134867Y137500D02*
X132367Y135000D01*
X125000Y135000D02*
X123500Y133500D01*
X125000Y135000D02*
X132367Y135000D01*
D33*
X123500Y133500D03*
X28000Y16500D03*
D34*
X27500Y17000D01*
X23050Y17000D01*
X28000Y16500D02*
X37500Y16500D01*
X39000Y15000D01*
X39000Y12046D01*
X37980Y11026D01*
X78000Y49867D02*
X78367Y49500D01*
X167500Y50000D02*
X167500Y40500D01*
D33*
X78000Y57500D03*
D34*
X78000Y49867D01*
D33*
X167500Y50000D03*
D34*
X178500Y50000D02*
X178500Y40500D01*
D33*
X178500Y50000D03*
X86000Y57500D03*
D34*
X86367Y57133D01*
X86367Y49500D01*
X94367Y144867D02*
X94367Y153500D01*
X94367Y144867D02*
X94000Y144500D01*
D33*
X94000Y144500D03*
D34*
X86367Y146367D02*
X86367Y153500D01*
X86367Y146367D02*
X86000Y146000D01*
X86000Y144500D01*
D33*
X86000Y144500D03*
D34*
X54367Y153500D02*
X46367Y153500D01*
X38367Y153500D02*
X38367Y147000D01*
X62367Y147000D02*
X62367Y153500D01*
X62367Y147000D02*
X38367Y147000D01*
D33*
X100500Y29000D03*
D34*
X99400Y27900D01*
D36*
X184300Y29700D02*
X185100Y30500D01*
X193500Y30500D01*
D34*
X184851Y29700D02*
X184300Y29700D01*
X184851Y29700D02*
X185709Y28842D01*
X185709Y23158D01*
X184851Y22300D01*
X184300Y22300D01*
D33*
X204060Y30897D03*
D37*
X203663Y30500D01*
X193500Y30500D01*
D38*
X211500Y39000D02*
X211500Y40500D01*
X210500Y39000D02*
X210500Y38837D01*
X204060Y32397D01*
X204060Y30897D01*
D34*
X213000Y39000D02*
X220500Y31500D01*
X213000Y39000D02*
X211500Y39000D01*
X210500Y39000D01*
X220500Y31500D02*
X220500Y28000D01*
D39*
X99400Y27900D02*
X93700Y27900D01*
D33*
X101000Y18590D03*
D34*
X18500Y9450D02*
X17950Y10000D01*
X47980Y11026D02*
X48000Y11006D01*
X17950Y10000D02*
X17950Y17000D01*
D33*
X52868Y6548D03*
D34*
X51820Y5500D01*
X48000Y5500D01*
X48000Y11006D01*
X48000Y5500D02*
X20500Y5500D01*
X18500Y7500D02*
X18500Y9450D01*
X18500Y7500D02*
X20500Y5500D01*
D36*
X165500Y30500D02*
X173900Y30500D01*
X174700Y29700D01*
X165500Y30500D02*
X157000Y30500D01*
D33*
X157000Y30500D03*
X242179Y27396D03*
D37*
X25867Y113500D02*
X25867Y121500D01*
D36*
X138367Y113000D02*
X138867Y113500D01*
X25867Y121500D02*
X23867Y121500D01*
X23407Y121960D01*
X19815Y121960D01*
X19725Y122050D02*
X14974Y122050D01*
X19725Y122050D02*
X19815Y121960D01*
X9950Y122050D02*
X4000Y128000D01*
X9950Y122050D02*
X14974Y122050D01*
D37*
X25867Y113500D02*
X25867Y105500D01*
D36*
X26367Y113000D02*
X25867Y113500D01*
X26367Y113000D02*
X138367Y113000D01*
X247500Y29000D02*
X248500Y29000D01*
X247500Y29000D02*
X247396Y28896D01*
X243679Y28896D01*
X242179Y27396D01*
X237964Y27396D01*
X237570Y27790D01*
X236210Y27790D01*
X236000Y28000D01*
D34*
X78367Y145367D02*
X78367Y153500D01*
X78367Y145367D02*
X72500Y139500D01*
D33*
X72500Y139500D03*
D34*
X14250Y68100D02*
X14150Y68000D01*
X4000Y68000D01*
X134867Y129500D02*
X138867Y129500D01*
X134867Y129500D02*
X126867Y121500D01*
X119000Y121500D01*
X118500Y121000D01*
D33*
X118500Y121000D03*
D34*
X14550Y53100D02*
X14450Y53000D01*
X4000Y53000D01*
X109934Y49066D02*
X110367Y49500D01*
D33*
X211000Y30500D03*
D34*
X109934Y49066D02*
X109934Y56934D01*
X110500Y57500D01*
D33*
X110500Y57500D03*
D34*
X201250Y25950D02*
X201300Y26000D01*
X207800Y26000D01*
X214450Y26000D02*
X214450Y27050D01*
X211000Y30500D01*
X211000Y29700D02*
X207800Y26500D01*
X207800Y26000D01*
X211000Y29700D02*
X211000Y30500D01*
X122000Y34350D02*
X110650Y34350D01*
X105000Y40000D01*
X96300Y40000D02*
X93700Y37400D01*
X88200Y37400D01*
X96300Y40000D02*
X105000Y40000D01*
X63150Y27900D02*
X60550Y30500D01*
X63150Y27900D02*
X66700Y27900D01*
X55450Y36924D02*
X55450Y38500D01*
X60550Y31824D02*
X60550Y30500D01*
X60550Y31824D02*
X55450Y36924D01*
D33*
X67000Y10500D03*
X93000Y9500D03*
X134900Y44262D03*
D34*
X134988Y44262D02*
X143350Y35900D01*
X134988Y44262D02*
X134900Y44262D01*
X65950Y11550D02*
X60500Y11550D01*
X65950Y11550D02*
X67000Y10500D01*
X88200Y10400D02*
X92100Y10400D01*
X93000Y9500D01*
X84200Y6700D02*
X82368Y4868D01*
X84200Y6700D02*
X84200Y10400D01*
X60500Y6450D02*
X60338Y6288D01*
X61758Y4868D02*
X82368Y4868D01*
X61758Y4868D02*
X60338Y6288D01*
X60500Y6450D02*
X59176Y6450D01*
X55450Y10176D01*
X55450Y16400D01*
X93700Y31900D02*
X97300Y35500D01*
X100500Y35500D01*
D33*
X100500Y35500D03*
X127500Y22000D03*
D36*
X144400Y22000D02*
X148000Y25600D01*
X144400Y22000D02*
X127500Y22000D01*
X148450Y26050D02*
X148450Y35900D01*
X148450Y26050D02*
X148000Y25600D01*
D34*
X66700Y23900D02*
X66500Y24100D01*
X61000Y24100D01*
X60500Y24600D01*
X66700Y31900D02*
X66500Y32100D01*
X66500Y38000D01*
D33*
X117000Y22000D03*
X66500Y38000D03*
D36*
X117000Y22000D02*
X122000Y17000D01*
X122000Y8850D01*
X105000Y22000D02*
X103100Y23900D01*
X105000Y22000D02*
X117000Y22000D01*
X103100Y23900D02*
X93700Y23900D01*
D34*
X25500Y31000D02*
X25500Y32000D01*
X25500Y31000D02*
X23000Y28500D01*
X23000Y23100D01*
X60550Y38500D02*
X66000Y38500D01*
X66500Y38000D01*
D40*
X177889Y65501D02*
X180130Y65428D01*
X182370Y65303D01*
X184605Y65125D01*
X186836Y64895D01*
X189061Y64613D01*
X191279Y64279D01*
X193489Y63893D01*
X195688Y63455D01*
X197877Y62966D01*
X200054Y62425D01*
X202217Y61834D01*
X204366Y61193D01*
X206500Y60501D01*
X206500Y60500D02*
X208091Y59985D01*
X209693Y59508D01*
X211307Y59071D01*
X212931Y58673D01*
X214564Y58314D01*
X216205Y57995D01*
X217853Y57715D01*
X219508Y57476D01*
X221168Y57277D01*
X222832Y57118D01*
X224500Y57000D01*
X278000Y57000D01*
X177889Y65500D02*
X138867Y65500D01*
D34*
X128867Y52000D02*
X126367Y49500D01*
X128867Y52000D02*
X152000Y52000D01*
D33*
X152000Y52000D03*
X241540Y21500D03*
D34*
X238500Y21500D01*
X236000Y24000D01*
X233960Y40040D02*
X233500Y40500D01*
D36*
X232000Y30198D02*
X232000Y28000D01*
X232000Y30198D02*
X232810Y31008D01*
X232810Y38890D02*
X233960Y40040D01*
X232810Y38890D02*
X232810Y31008D01*
D40*
X233500Y136000D02*
X233500Y137500D01*
X233500Y129500D01*
X233507Y128954D01*
X233526Y128408D01*
X233560Y127862D01*
X233606Y127318D01*
X233665Y126775D01*
X233738Y126234D01*
X233823Y125694D01*
X233922Y125157D01*
X234034Y124622D01*
X234158Y124090D01*
X234296Y123561D01*
X234446Y123036D01*
X234609Y122514D01*
X234785Y121997D01*
X234973Y121484D01*
X235173Y120976D01*
X235385Y120473D01*
X235610Y119975D01*
X235847Y119482D01*
X236095Y118996D01*
X236356Y118515D01*
X236628Y118041D01*
X236911Y117574D01*
X237205Y117114D01*
X237511Y116661D01*
X237827Y116216D01*
X238154Y115778D01*
X238492Y115349D01*
X238840Y114928D01*
X239198Y114515D01*
X239566Y114111D01*
X239943Y113716D01*
X240330Y113331D01*
X240727Y112954D01*
X241132Y112588D01*
X241546Y112232D01*
X241968Y111885D01*
X242399Y111549D01*
X242838Y111224D01*
X243285Y110909D01*
X243739Y110605D01*
X244200Y110312D01*
X244668Y110031D01*
X245143Y109761D01*
X245624Y109502D01*
X246112Y109256D01*
X246605Y109021D01*
X247104Y108798D01*
X247608Y108587D01*
X248117Y108389D01*
X248630Y108203D01*
X249149Y108029D01*
X249671Y107868D01*
X250196Y107720D01*
X250726Y107584D01*
X251258Y107462D01*
X251793Y107352D01*
X252331Y107255D01*
X252871Y107172D01*
X253413Y107101D01*
X253956Y107044D01*
X254500Y107000D01*
X278000Y107000D01*
D33*
X239000Y33000D03*
X149000Y144500D03*
D34*
X149000Y147000D01*
X143500Y152500D01*
X136000Y152500D01*
X130000Y146500D01*
X112500Y146500D01*
X110367Y148633D02*
X110367Y153500D01*
X110367Y148633D02*
X112500Y146500D01*
X244500Y40500D02*
X244500Y38500D01*
X239000Y33000D01*
X118367Y49500D02*
X118367Y57367D01*
X118500Y57500D01*
D33*
X118500Y57500D03*
X228000Y33000D03*
D34*
X224142Y29142D01*
X224142Y27642D01*
X224500Y28000D01*
X217400Y20900D02*
X214450Y20900D01*
X217400Y20900D02*
X220500Y24000D01*
M02*
