G04 EAGLE Gerber RS-274X export*
G75*
%MOMM*%
%FSLAX34Y34*%
%LPD*%
%INCopper Layer 15*%
%IPPOS*%
%AMOC8*
5,1,8,0,0,1.08239X$1,22.5*%
G01*
%ADD10C,1.016000*%
%ADD11C,1.108000*%
%ADD12C,0.958000*%
%ADD13C,1.308000*%
%ADD14C,0.454000*%
%ADD15C,0.406400*%


D10*
X162500Y155500D03*
X162500Y8000D03*
D11*
X268000Y57000D03*
X288000Y57000D03*
D12*
X25500Y32000D03*
D11*
X288000Y107000D03*
X268000Y107000D03*
D13*
X4000Y38000D03*
X4000Y53000D03*
X4000Y68000D03*
X4000Y83000D03*
X4000Y98000D03*
X4000Y113000D03*
X4000Y128000D03*
D14*
X236500Y83000D03*
X156500Y123000D03*
X176500Y123000D03*
X196500Y123000D03*
X216500Y123000D03*
X216500Y103000D03*
X196500Y103000D03*
X176500Y103000D03*
X156500Y103000D03*
X156500Y83000D03*
X176500Y83000D03*
X196500Y83000D03*
X216500Y83000D03*
X256500Y83000D03*
X276500Y83000D03*
X126500Y83000D03*
X126500Y103000D03*
X126500Y63000D03*
X156500Y75000D03*
X176500Y75000D03*
X196500Y73000D03*
X216500Y68000D03*
X239000Y67000D03*
X196500Y54500D03*
X176500Y57000D03*
X156500Y57000D03*
X216500Y49500D03*
X256500Y70000D03*
X276500Y70000D03*
X276500Y44000D03*
X256500Y44000D03*
X276500Y94000D03*
X256500Y94000D03*
X228000Y67000D03*
X206500Y71000D03*
X186500Y75000D03*
X166500Y75000D03*
X186500Y56000D03*
X206500Y51500D03*
X166500Y57000D03*
X147500Y75000D03*
X147500Y57000D03*
X266500Y70000D03*
X266500Y44000D03*
X286500Y44000D03*
X286500Y70000D03*
X286500Y94000D03*
X266500Y94000D03*
X266500Y120000D03*
X276500Y120000D03*
X286500Y120000D03*
X296500Y94000D03*
X296500Y70000D03*
X296500Y120000D03*
X296500Y44000D03*
X236500Y103000D03*
X225500Y120000D03*
X229500Y111000D03*
X246500Y98000D03*
X256500Y120000D03*
X246500Y120000D03*
X242500Y128000D03*
X223500Y128000D03*
X102500Y143000D03*
X41000Y138000D03*
X15000Y160500D03*
X144000Y158000D03*
X195000Y145000D03*
X217000Y145000D03*
X251000Y144500D03*
X251000Y18500D03*
X40500Y83000D03*
X97500Y3000D03*
X228000Y48500D03*
X239000Y48500D03*
X15000Y138000D03*
X15000Y3500D03*
X228500Y18500D03*
X128000Y140500D03*
X28000Y10000D03*
X123500Y133500D03*
X28000Y16500D03*
X78000Y57500D03*
X167500Y50000D03*
X178500Y50000D03*
X86000Y57500D03*
X94000Y144500D03*
X86000Y144500D03*
X100500Y29000D03*
X204060Y30897D03*
X101000Y18590D03*
D15*
X157000Y38000D02*
X213500Y38000D01*
X157000Y30500D02*
X123000Y30500D01*
X213500Y38000D02*
X224104Y27396D01*
X113910Y30500D02*
X102000Y18590D01*
X101000Y18590D01*
D14*
X52868Y6548D03*
X157000Y30500D03*
D15*
X157000Y38000D01*
X224104Y27396D02*
X242179Y27396D01*
D14*
X242179Y27396D03*
D15*
X123000Y30500D02*
X25500Y128000D01*
X4000Y128000D01*
X113910Y30500D02*
X123000Y30500D01*
D14*
X72500Y139500D03*
X118500Y121000D03*
X211000Y30500D03*
X110500Y57500D03*
X67000Y10500D03*
X93000Y9500D03*
X134900Y44262D03*
X100500Y35500D03*
X127500Y22000D03*
X117000Y22000D03*
X66500Y38000D03*
D15*
X49620Y38000D01*
X43620Y32000D02*
X25500Y32000D01*
X43620Y32000D02*
X49620Y38000D01*
X109518Y11518D02*
X117000Y19000D01*
X117000Y22000D01*
X109518Y11518D02*
X98692Y11518D01*
X98572Y11638D02*
X98572Y11808D01*
X98572Y11638D02*
X98692Y11518D01*
X98572Y11808D02*
X91000Y19380D01*
X81000Y38000D02*
X66500Y38000D01*
X81000Y38000D02*
X91000Y28000D01*
X91000Y19380D01*
D14*
X152000Y52000D03*
X241540Y21500D03*
X239000Y33000D03*
X149000Y144500D03*
X118500Y57500D03*
X228000Y33000D03*
M02*
