G04 EAGLE Gerber RS-274X export*
G75*
%MOMM*%
%FSLAX34Y34*%
%LPD*%
%IN*%
%IPPOS*%
%AMOC8*
5,1,8,0,0,1.08239X$1,22.5*%
G01*
%ADD10C,0.254000*%


D10*
X4000Y27000D02*
X10000Y27000D01*
X10000Y3500D01*
X10019Y3064D01*
X10076Y2632D01*
X10170Y2206D01*
X10302Y1790D01*
X10468Y1387D01*
X10670Y1000D01*
X10904Y632D01*
X11170Y286D01*
X11464Y-36D01*
X11786Y-330D01*
X12132Y-596D01*
X12500Y-830D01*
X12887Y-1032D01*
X13290Y-1198D01*
X13706Y-1330D01*
X14132Y-1424D01*
X14564Y-1481D01*
X15000Y-1500D01*
X170500Y-1500D01*
X170936Y-1481D01*
X171368Y-1424D01*
X171794Y-1330D01*
X172210Y-1198D01*
X172613Y-1032D01*
X173000Y-830D01*
X173368Y-596D01*
X173714Y-330D01*
X174036Y-36D01*
X174330Y286D01*
X174596Y632D01*
X174830Y1000D01*
X175032Y1387D01*
X175198Y1790D01*
X175330Y2206D01*
X175424Y2632D01*
X175481Y3064D01*
X175500Y3500D01*
X175500Y8500D01*
X175519Y8936D01*
X175576Y9368D01*
X175670Y9794D01*
X175802Y10210D01*
X175968Y10613D01*
X176170Y11000D01*
X176404Y11368D01*
X176670Y11714D01*
X176964Y12036D01*
X177286Y12330D01*
X177632Y12596D01*
X178000Y12830D01*
X178387Y13032D01*
X178790Y13198D01*
X179206Y13330D01*
X179632Y13424D01*
X180064Y13481D01*
X180500Y13500D01*
X251500Y13500D01*
X251936Y13519D01*
X252368Y13576D01*
X252794Y13670D01*
X253210Y13802D01*
X253613Y13968D01*
X254000Y14170D01*
X254368Y14404D01*
X254714Y14670D01*
X255036Y14964D01*
X255330Y15286D01*
X255596Y15632D01*
X255830Y16000D01*
X256032Y16387D01*
X256198Y16790D01*
X256330Y17206D01*
X256424Y17632D01*
X256481Y18064D01*
X256500Y18500D01*
X256500Y33500D01*
X256519Y33936D01*
X256576Y34368D01*
X256670Y34794D01*
X256802Y35210D01*
X256968Y35613D01*
X257170Y36000D01*
X257404Y36368D01*
X257670Y36714D01*
X257964Y37036D01*
X258286Y37330D01*
X258632Y37596D01*
X259000Y37830D01*
X259387Y38032D01*
X259790Y38198D01*
X260206Y38330D01*
X260632Y38424D01*
X261064Y38481D01*
X261500Y38500D01*
X296500Y38500D01*
X296936Y38519D01*
X297368Y38576D01*
X297794Y38670D01*
X298210Y38802D01*
X298613Y38968D01*
X299000Y39170D01*
X299368Y39404D01*
X299714Y39670D01*
X300036Y39964D01*
X300330Y40286D01*
X300596Y40632D01*
X300830Y41000D01*
X301032Y41387D01*
X301198Y41790D01*
X301330Y42206D01*
X301424Y42632D01*
X301481Y43064D01*
X301500Y43500D01*
X301500Y120500D01*
X301481Y120936D01*
X301424Y121368D01*
X301330Y121794D01*
X301198Y122210D01*
X301032Y122613D01*
X300830Y123000D01*
X300596Y123368D01*
X300330Y123714D01*
X300036Y124036D01*
X299714Y124330D01*
X299368Y124596D01*
X299000Y124830D01*
X298613Y125032D01*
X298210Y125198D01*
X297794Y125330D01*
X297368Y125424D01*
X296936Y125481D01*
X296500Y125500D01*
X261500Y125500D01*
X261064Y125519D01*
X260632Y125576D01*
X260206Y125670D01*
X259790Y125802D01*
X259387Y125968D01*
X259000Y126170D01*
X258632Y126404D01*
X258286Y126670D01*
X257964Y126964D01*
X257670Y127286D01*
X257404Y127632D01*
X257170Y128000D01*
X256968Y128387D01*
X256802Y128790D01*
X256670Y129206D01*
X256576Y129632D01*
X256519Y130064D01*
X256500Y130500D01*
X256500Y145500D01*
X256481Y145936D01*
X256424Y146368D01*
X256330Y146794D01*
X256198Y147210D01*
X256032Y147613D01*
X255830Y148000D01*
X255596Y148368D01*
X255330Y148714D01*
X255036Y149036D01*
X254714Y149330D01*
X254368Y149596D01*
X254000Y149830D01*
X253613Y150032D01*
X253210Y150198D01*
X252794Y150330D01*
X252368Y150424D01*
X251936Y150481D01*
X251500Y150500D01*
X180000Y150500D01*
X179564Y150519D01*
X179132Y150576D01*
X178706Y150670D01*
X178290Y150802D01*
X177887Y150968D01*
X177500Y151170D01*
X177132Y151404D01*
X176786Y151670D01*
X176464Y151964D01*
X176170Y152286D01*
X175904Y152632D01*
X175670Y153000D01*
X175468Y153387D01*
X175302Y153790D01*
X175170Y154206D01*
X175076Y154632D01*
X175019Y155064D01*
X175000Y155500D01*
X175000Y160000D01*
X174981Y160436D01*
X174924Y160868D01*
X174830Y161294D01*
X174698Y161710D01*
X174532Y162113D01*
X174330Y162500D01*
X174096Y162868D01*
X173830Y163214D01*
X173536Y163536D01*
X173214Y163830D01*
X172868Y164096D01*
X172500Y164330D01*
X172113Y164532D01*
X171710Y164698D01*
X171294Y164830D01*
X170868Y164924D01*
X170436Y164981D01*
X170000Y165000D01*
X15000Y165000D01*
X14564Y164981D01*
X14132Y164924D01*
X13706Y164830D01*
X13290Y164698D01*
X12887Y164532D01*
X12500Y164330D01*
X12132Y164096D01*
X11786Y163830D01*
X11464Y163536D01*
X11170Y163214D01*
X10904Y162868D01*
X10670Y162500D01*
X10468Y162113D01*
X10302Y161710D01*
X10170Y161294D01*
X10076Y160868D01*
X10019Y160436D01*
X10000Y160000D01*
X10000Y138500D01*
X4000Y138500D01*
X4000Y27000D01*
M02*
