G04 EAGLE Gerber RS-274X export*
G75*
%MOMM*%
%FSLAX34Y34*%
%LPD*%
%INSilkscreen Bottom*%
%IPPOS*%
%AMOC8*
5,1,8,0,0,1.08239X$1,22.5*%
G01*
%ADD10C,0.076200*%
%ADD11C,0.127000*%


D10*
X38175Y142500D02*
X242825Y142500D01*
X242936Y142498D01*
X243046Y142492D01*
X243157Y142483D01*
X243267Y142469D01*
X243376Y142452D01*
X243485Y142431D01*
X243593Y142406D01*
X243700Y142377D01*
X243806Y142345D01*
X243911Y142309D01*
X244014Y142269D01*
X244116Y142226D01*
X244217Y142179D01*
X244316Y142128D01*
X244413Y142075D01*
X244507Y142018D01*
X244600Y141957D01*
X244691Y141894D01*
X244780Y141827D01*
X244866Y141757D01*
X244949Y141684D01*
X245031Y141609D01*
X245109Y141531D01*
X245184Y141449D01*
X245257Y141366D01*
X245327Y141280D01*
X245394Y141191D01*
X245457Y141100D01*
X245518Y141007D01*
X245575Y140913D01*
X245628Y140816D01*
X245679Y140717D01*
X245726Y140616D01*
X245769Y140514D01*
X245809Y140411D01*
X245845Y140306D01*
X245877Y140200D01*
X245906Y140093D01*
X245931Y139985D01*
X245952Y139876D01*
X245969Y139767D01*
X245983Y139657D01*
X245992Y139546D01*
X245998Y139436D01*
X246000Y139325D01*
X246000Y24675D01*
X245998Y24564D01*
X245992Y24454D01*
X245983Y24343D01*
X245969Y24233D01*
X245952Y24124D01*
X245931Y24015D01*
X245906Y23907D01*
X245877Y23800D01*
X245845Y23694D01*
X245809Y23589D01*
X245769Y23486D01*
X245726Y23384D01*
X245679Y23283D01*
X245628Y23184D01*
X245575Y23087D01*
X245518Y22993D01*
X245457Y22900D01*
X245394Y22809D01*
X245327Y22720D01*
X245257Y22634D01*
X245184Y22551D01*
X245109Y22469D01*
X245031Y22391D01*
X244949Y22316D01*
X244866Y22243D01*
X244780Y22173D01*
X244691Y22106D01*
X244600Y22043D01*
X244507Y21982D01*
X244412Y21925D01*
X244316Y21872D01*
X244217Y21821D01*
X244116Y21774D01*
X244014Y21731D01*
X243911Y21691D01*
X243806Y21655D01*
X243700Y21623D01*
X243593Y21594D01*
X243485Y21569D01*
X243376Y21548D01*
X243267Y21531D01*
X243157Y21517D01*
X243046Y21508D01*
X242936Y21502D01*
X242825Y21500D01*
X20000Y21500D01*
X15000Y26500D02*
X15000Y36500D01*
X15002Y36640D01*
X15008Y36780D01*
X15018Y36920D01*
X15031Y37060D01*
X15049Y37199D01*
X15071Y37338D01*
X15096Y37475D01*
X15125Y37613D01*
X15158Y37749D01*
X15195Y37884D01*
X15236Y38018D01*
X15281Y38151D01*
X15329Y38283D01*
X15381Y38413D01*
X15436Y38542D01*
X15495Y38669D01*
X15558Y38795D01*
X15624Y38919D01*
X15693Y39040D01*
X15766Y39160D01*
X15843Y39278D01*
X15922Y39393D01*
X16005Y39507D01*
X16091Y39617D01*
X16180Y39726D01*
X16272Y39832D01*
X16367Y39935D01*
X16464Y40036D01*
X16565Y40133D01*
X16668Y40228D01*
X16774Y40320D01*
X16883Y40409D01*
X16993Y40495D01*
X17107Y40578D01*
X17222Y40657D01*
X17340Y40734D01*
X17460Y40807D01*
X17581Y40876D01*
X17705Y40942D01*
X17831Y41005D01*
X17958Y41064D01*
X18087Y41119D01*
X18217Y41171D01*
X18349Y41219D01*
X18482Y41264D01*
X18616Y41305D01*
X18751Y41342D01*
X18887Y41375D01*
X19025Y41404D01*
X19162Y41429D01*
X19301Y41451D01*
X19440Y41469D01*
X19580Y41482D01*
X19720Y41492D01*
X19860Y41498D01*
X20000Y41500D01*
X30000Y41500D01*
X30140Y41502D01*
X30280Y41508D01*
X30420Y41518D01*
X30560Y41531D01*
X30699Y41549D01*
X30838Y41571D01*
X30975Y41596D01*
X31113Y41625D01*
X31249Y41658D01*
X31384Y41695D01*
X31518Y41736D01*
X31651Y41781D01*
X31783Y41829D01*
X31913Y41881D01*
X32042Y41936D01*
X32169Y41995D01*
X32295Y42058D01*
X32419Y42124D01*
X32540Y42193D01*
X32660Y42266D01*
X32778Y42343D01*
X32893Y42422D01*
X33007Y42505D01*
X33117Y42591D01*
X33226Y42680D01*
X33332Y42772D01*
X33435Y42867D01*
X33536Y42964D01*
X33633Y43065D01*
X33728Y43168D01*
X33820Y43274D01*
X33909Y43383D01*
X33995Y43493D01*
X34078Y43607D01*
X34157Y43722D01*
X34234Y43840D01*
X34307Y43960D01*
X34376Y44081D01*
X34442Y44205D01*
X34505Y44331D01*
X34564Y44458D01*
X34619Y44587D01*
X34671Y44717D01*
X34719Y44849D01*
X34764Y44982D01*
X34805Y45116D01*
X34842Y45251D01*
X34875Y45387D01*
X34904Y45525D01*
X34929Y45662D01*
X34951Y45801D01*
X34969Y45940D01*
X34982Y46080D01*
X34992Y46220D01*
X34998Y46360D01*
X35000Y46500D01*
X35000Y139325D01*
X35002Y139436D01*
X35008Y139546D01*
X35017Y139657D01*
X35031Y139767D01*
X35048Y139876D01*
X35069Y139985D01*
X35094Y140093D01*
X35123Y140200D01*
X35155Y140306D01*
X35191Y140411D01*
X35231Y140514D01*
X35274Y140616D01*
X35321Y140717D01*
X35372Y140816D01*
X35425Y140913D01*
X35482Y141007D01*
X35543Y141100D01*
X35606Y141191D01*
X35673Y141280D01*
X35743Y141366D01*
X35816Y141449D01*
X35891Y141531D01*
X35969Y141609D01*
X36051Y141684D01*
X36134Y141757D01*
X36220Y141827D01*
X36309Y141894D01*
X36400Y141957D01*
X36493Y142018D01*
X36588Y142075D01*
X36684Y142128D01*
X36783Y142179D01*
X36884Y142226D01*
X36986Y142269D01*
X37089Y142309D01*
X37194Y142345D01*
X37300Y142377D01*
X37407Y142406D01*
X37515Y142431D01*
X37624Y142452D01*
X37733Y142469D01*
X37843Y142483D01*
X37954Y142492D01*
X38064Y142498D01*
X38175Y142500D01*
X15000Y26500D02*
X15002Y26360D01*
X15008Y26220D01*
X15018Y26080D01*
X15031Y25940D01*
X15049Y25801D01*
X15071Y25662D01*
X15096Y25525D01*
X15125Y25387D01*
X15158Y25251D01*
X15195Y25116D01*
X15236Y24982D01*
X15281Y24849D01*
X15329Y24717D01*
X15381Y24587D01*
X15436Y24458D01*
X15495Y24331D01*
X15558Y24205D01*
X15624Y24081D01*
X15693Y23960D01*
X15766Y23840D01*
X15843Y23722D01*
X15922Y23607D01*
X16005Y23493D01*
X16091Y23383D01*
X16180Y23274D01*
X16272Y23168D01*
X16367Y23065D01*
X16464Y22964D01*
X16565Y22867D01*
X16668Y22772D01*
X16774Y22680D01*
X16883Y22591D01*
X16993Y22505D01*
X17107Y22422D01*
X17222Y22343D01*
X17340Y22266D01*
X17460Y22193D01*
X17581Y22124D01*
X17705Y22058D01*
X17831Y21995D01*
X17958Y21936D01*
X18087Y21881D01*
X18217Y21829D01*
X18349Y21781D01*
X18482Y21736D01*
X18616Y21695D01*
X18751Y21658D01*
X18887Y21625D01*
X19025Y21596D01*
X19162Y21571D01*
X19301Y21549D01*
X19440Y21531D01*
X19580Y21518D01*
X19720Y21508D01*
X19860Y21502D01*
X20000Y21500D01*
D11*
X251000Y19500D02*
X251000Y144500D01*
X36000Y144500D01*
X36000Y19500D01*
X118500Y19500D01*
X168500Y19500D01*
X251000Y19500D01*
X168500Y19500D02*
X168500Y32000D01*
X118500Y32000D01*
X118500Y19500D01*
M02*
