G04 EAGLE Gerber RS-274X export*
G75*
%MOMM*%
%FSLAX34Y34*%
%LPD*%
%INSilkscreen Top*%
%IPPOS*%
%AMOC8*
5,1,8,0,0,1.08239X$1,22.5*%
G01*
%ADD10C,0.127000*%
%ADD11C,0.250000*%
%ADD12C,0.152400*%
%ADD13R,0.300000X0.300000*%
%ADD14C,0.076200*%
%ADD15C,0.200000*%
%ADD16C,0.406400*%


D10*
X19367Y160000D02*
X145367Y160000D01*
X145367Y43000D01*
X19367Y43000D01*
X19367Y160000D01*
D11*
X50480Y43576D02*
X50482Y43646D01*
X50488Y43716D01*
X50498Y43785D01*
X50511Y43854D01*
X50529Y43922D01*
X50550Y43989D01*
X50575Y44054D01*
X50604Y44118D01*
X50636Y44181D01*
X50672Y44241D01*
X50711Y44299D01*
X50753Y44355D01*
X50798Y44409D01*
X50846Y44460D01*
X50897Y44508D01*
X50951Y44553D01*
X51007Y44595D01*
X51065Y44634D01*
X51125Y44670D01*
X51188Y44702D01*
X51252Y44731D01*
X51317Y44756D01*
X51384Y44777D01*
X51452Y44795D01*
X51521Y44808D01*
X51590Y44818D01*
X51660Y44824D01*
X51730Y44826D01*
X51800Y44824D01*
X51870Y44818D01*
X51939Y44808D01*
X52008Y44795D01*
X52076Y44777D01*
X52143Y44756D01*
X52208Y44731D01*
X52272Y44702D01*
X52335Y44670D01*
X52395Y44634D01*
X52453Y44595D01*
X52509Y44553D01*
X52563Y44508D01*
X52614Y44460D01*
X52662Y44409D01*
X52707Y44355D01*
X52749Y44299D01*
X52788Y44241D01*
X52824Y44181D01*
X52856Y44118D01*
X52885Y44054D01*
X52910Y43989D01*
X52931Y43922D01*
X52949Y43854D01*
X52962Y43785D01*
X52972Y43716D01*
X52978Y43646D01*
X52980Y43576D01*
X52978Y43506D01*
X52972Y43436D01*
X52962Y43367D01*
X52949Y43298D01*
X52931Y43230D01*
X52910Y43163D01*
X52885Y43098D01*
X52856Y43034D01*
X52824Y42971D01*
X52788Y42911D01*
X52749Y42853D01*
X52707Y42797D01*
X52662Y42743D01*
X52614Y42692D01*
X52563Y42644D01*
X52509Y42599D01*
X52453Y42557D01*
X52395Y42518D01*
X52335Y42482D01*
X52272Y42450D01*
X52208Y42421D01*
X52143Y42396D01*
X52076Y42375D01*
X52008Y42357D01*
X51939Y42344D01*
X51870Y42334D01*
X51800Y42328D01*
X51730Y42326D01*
X51660Y42328D01*
X51590Y42334D01*
X51521Y42344D01*
X51452Y42357D01*
X51384Y42375D01*
X51317Y42396D01*
X51252Y42421D01*
X51188Y42450D01*
X51125Y42482D01*
X51065Y42518D01*
X51007Y42557D01*
X50951Y42599D01*
X50897Y42644D01*
X50846Y42692D01*
X50798Y42743D01*
X50753Y42797D01*
X50711Y42853D01*
X50672Y42911D01*
X50636Y42971D01*
X50604Y43034D01*
X50575Y43098D01*
X50550Y43163D01*
X50529Y43230D01*
X50511Y43298D01*
X50498Y43367D01*
X50488Y43436D01*
X50482Y43506D01*
X50480Y43576D01*
D12*
X50480Y32576D02*
X50480Y16326D01*
X30480Y16326D02*
X30480Y32576D01*
D13*
X20500Y10000D03*
X20500Y17000D03*
X14250Y65550D03*
X207800Y23450D03*
X214450Y23450D03*
D10*
X68200Y38900D02*
X65200Y38900D01*
X92200Y38900D02*
X95200Y38900D01*
X68200Y8900D02*
X65200Y8900D01*
X65200Y35900D02*
X65200Y38900D01*
X65200Y35900D02*
X68200Y38900D01*
X65200Y12000D02*
X65200Y9000D01*
X65200Y8900D02*
X68200Y8900D01*
X92124Y8900D02*
X95124Y8900D01*
X95172Y8976D02*
X95172Y11976D01*
X95200Y35900D02*
X95200Y38900D01*
X92200Y38900D01*
X104000Y39350D02*
X104000Y3350D01*
X104000Y39350D02*
X140000Y39350D01*
X140000Y3350D01*
X104000Y3350D01*
D13*
X58000Y38500D03*
X58000Y30500D03*
X145900Y35900D03*
X60500Y9000D03*
X58000Y16400D03*
D14*
X239000Y21000D02*
X239000Y31000D01*
X232000Y31000D01*
X229000Y31000D01*
X229000Y28000D01*
X229000Y21000D01*
X239000Y21000D01*
X232000Y31000D02*
X229000Y28000D01*
D10*
X251750Y39750D02*
X251750Y138250D01*
X149250Y138250D02*
X149250Y39750D01*
D15*
X151500Y22000D02*
X151502Y22063D01*
X151508Y22125D01*
X151518Y22187D01*
X151531Y22249D01*
X151549Y22309D01*
X151570Y22368D01*
X151595Y22426D01*
X151624Y22482D01*
X151656Y22536D01*
X151691Y22588D01*
X151729Y22637D01*
X151771Y22685D01*
X151815Y22729D01*
X151863Y22771D01*
X151912Y22809D01*
X151964Y22844D01*
X152018Y22876D01*
X152074Y22905D01*
X152132Y22930D01*
X152191Y22951D01*
X152251Y22969D01*
X152313Y22982D01*
X152375Y22992D01*
X152437Y22998D01*
X152500Y23000D01*
X152563Y22998D01*
X152625Y22992D01*
X152687Y22982D01*
X152749Y22969D01*
X152809Y22951D01*
X152868Y22930D01*
X152926Y22905D01*
X152982Y22876D01*
X153036Y22844D01*
X153088Y22809D01*
X153137Y22771D01*
X153185Y22729D01*
X153229Y22685D01*
X153271Y22637D01*
X153309Y22588D01*
X153344Y22536D01*
X153376Y22482D01*
X153405Y22426D01*
X153430Y22368D01*
X153451Y22309D01*
X153469Y22249D01*
X153482Y22187D01*
X153492Y22125D01*
X153498Y22063D01*
X153500Y22000D01*
X153498Y21937D01*
X153492Y21875D01*
X153482Y21813D01*
X153469Y21751D01*
X153451Y21691D01*
X153430Y21632D01*
X153405Y21574D01*
X153376Y21518D01*
X153344Y21464D01*
X153309Y21412D01*
X153271Y21363D01*
X153229Y21315D01*
X153185Y21271D01*
X153137Y21229D01*
X153088Y21191D01*
X153036Y21156D01*
X152982Y21124D01*
X152926Y21095D01*
X152868Y21070D01*
X152809Y21049D01*
X152749Y21031D01*
X152687Y21018D01*
X152625Y21008D01*
X152563Y21002D01*
X152500Y21000D01*
X152437Y21002D01*
X152375Y21008D01*
X152313Y21018D01*
X152251Y21031D01*
X152191Y21049D01*
X152132Y21070D01*
X152074Y21095D01*
X152018Y21124D01*
X151964Y21156D01*
X151912Y21191D01*
X151863Y21229D01*
X151815Y21271D01*
X151771Y21315D01*
X151729Y21363D01*
X151691Y21412D01*
X151656Y21464D01*
X151624Y21518D01*
X151595Y21574D01*
X151570Y21632D01*
X151549Y21691D01*
X151531Y21751D01*
X151518Y21813D01*
X151508Y21875D01*
X151502Y21937D01*
X151500Y22000D01*
D16*
X193195Y25000D02*
X193805Y25000D01*
X165805Y25000D02*
X165195Y25000D01*
D10*
X187100Y19400D02*
X187100Y32500D01*
X187100Y19400D02*
X171800Y19400D01*
X171800Y32500D01*
X187100Y32500D01*
X170900Y32900D02*
X170902Y32940D01*
X170908Y32979D01*
X170918Y33018D01*
X170931Y33055D01*
X170949Y33091D01*
X170970Y33125D01*
X170994Y33157D01*
X171021Y33186D01*
X171051Y33213D01*
X171083Y33236D01*
X171118Y33256D01*
X171154Y33272D01*
X171192Y33285D01*
X171231Y33294D01*
X171270Y33299D01*
X171310Y33300D01*
X171350Y33297D01*
X171389Y33290D01*
X171427Y33279D01*
X171465Y33265D01*
X171500Y33246D01*
X171533Y33225D01*
X171565Y33200D01*
X171593Y33172D01*
X171619Y33142D01*
X171641Y33109D01*
X171660Y33074D01*
X171676Y33037D01*
X171688Y32999D01*
X171696Y32960D01*
X171700Y32920D01*
X171700Y32880D01*
X171696Y32840D01*
X171688Y32801D01*
X171676Y32763D01*
X171660Y32726D01*
X171641Y32691D01*
X171619Y32658D01*
X171593Y32628D01*
X171565Y32600D01*
X171533Y32575D01*
X171500Y32554D01*
X171465Y32535D01*
X171427Y32521D01*
X171389Y32510D01*
X171350Y32503D01*
X171310Y32500D01*
X171270Y32501D01*
X171231Y32506D01*
X171192Y32515D01*
X171154Y32528D01*
X171118Y32544D01*
X171083Y32564D01*
X171051Y32587D01*
X171021Y32614D01*
X170994Y32643D01*
X170970Y32675D01*
X170949Y32709D01*
X170931Y32745D01*
X170918Y32782D01*
X170908Y32821D01*
X170902Y32860D01*
X170900Y32900D01*
D14*
X217500Y31000D02*
X227500Y31000D01*
X217500Y31000D02*
X217500Y24000D01*
X217500Y21000D01*
X220500Y21000D01*
X227500Y21000D01*
X227500Y31000D01*
X217500Y24000D02*
X220500Y21000D01*
M02*
